  0
SECTION
  2
BLOCKS
  0
ENDSEC
  0
SECTION
  2
ENTITIES
  0
LINE
  8
0
 10
-32.146
 11
-32.146
 20
12.768
 21
13.032
  0
LINE
  8
0
 10
-32.146
 11
-32.113
 20
13.032
 21
13.294
  0
LINE
  8
0
 10
-32.113
 11
-32.047
 20
13.294
 21
13.549
  0
LINE
  8
0
 10
-32.047
 11
-31.95
 20
13.549
 21
13.794
  0
LINE
  8
0
 10
-31.95
 11
-31.823
 20
13.794
 21
14.025
  0
LINE
  8
0
 10
-31.823
 11
-31.668
 20
14.025
 21
14.239
  0
LINE
  8
0
 10
-31.668
 11
-31.488
 20
14.239
 21
14.431
  0
LINE
  8
0
 10
-31.488
 11
-31.284
 20
14.431
 21
14.599
  0
LINE
  8
0
 10
-31.284
 11
-31.062
 20
14.599
 21
14.74
  0
LINE
  8
0
 10
-31.062
 11
-30.823
 20
14.74
 21
14.853
  0
LINE
  8
0
 10
-30.823
 11
-30.572
 20
14.853
 21
14.934
  0
LINE
  8
0
 10
-30.572
 11
-30.313
 20
14.934
 21
14.983
  0
LINE
  8
0
 10
-30.313
 11
-30.05
 20
14.983
 21
15
  0
LINE
  8
0
 10
-30.05
 11
-29.787
 20
15
 21
14.983
  0
LINE
  8
0
 10
-29.787
 11
-29.528
 20
14.983
 21
14.934
  0
LINE
  8
0
 10
-29.528
 11
-29.277
 20
14.934
 21
14.853
  0
LINE
  8
0
 10
-29.277
 11
-29.038
 20
14.853
 21
14.74
  0
LINE
  8
0
 10
-29.038
 11
-28.816
 20
14.74
 21
14.599
  0
LINE
  8
0
 10
-28.816
 11
-28.612
 20
14.599
 21
14.431
  0
LINE
  8
0
 10
-28.612
 11
-28.432
 20
14.431
 21
14.239
  0
LINE
  8
0
 10
-28.432
 11
-28.277
 20
14.239
 21
14.025
  0
LINE
  8
0
 10
-28.277
 11
-28.15
 20
14.025
 21
13.794
  0
LINE
  8
0
 10
-28.15
 11
-28.053
 20
13.794
 21
13.549
  0
LINE
  8
0
 10
-28.053
 11
-27.987
 20
13.549
 21
13.294
  0
LINE
  8
0
 10
-27.987
 11
-27.954
 20
13.294
 21
13.032
  0
LINE
  8
0
 10
-27.954
 11
-27.954
 20
13.032
 21
12.768
  0
LINE
  8
0
 10
-27.954
 11
-27.987
 20
12.768
 21
12.506
  0
LINE
  8
0
 10
-27.987
 11
-28.053
 20
12.506
 21
12.251
  0
LINE
  8
0
 10
-28.053
 11
-28.15
 20
12.251
 21
12.006
  0
LINE
  8
0
 10
-28.15
 11
-28.277
 20
12.006
 21
11.775
  0
LINE
  8
0
 10
-28.277
 11
-28.432
 20
11.775
 21
11.561
  0
LINE
  8
0
 10
-28.432
 11
-28.612
 20
11.561
 21
11.369
  0
LINE
  8
0
 10
-28.612
 11
-28.816
 20
11.369
 21
11.201
  0
LINE
  8
0
 10
-28.816
 11
-29.038
 20
11.201
 21
11.06
  0
LINE
  8
0
 10
-29.038
 11
-29.277
 20
11.06
 21
10.947
  0
LINE
  8
0
 10
-29.277
 11
-29.528
 20
10.947
 21
10.866
  0
LINE
  8
0
 10
-29.528
 11
-29.787
 20
10.866
 21
10.817
  0
LINE
  8
0
 10
-29.787
 11
-30.05
 20
10.817
 21
10.8
  0
LINE
  8
0
 10
-30.05
 11
-30.313
 20
10.8
 21
10.817
  0
LINE
  8
0
 10
-30.313
 11
-30.572
 20
10.817
 21
10.866
  0
LINE
  8
0
 10
-30.572
 11
-30.823
 20
10.866
 21
10.947
  0
LINE
  8
0
 10
-30.823
 11
-31.062
 20
10.947
 21
11.06
  0
LINE
  8
0
 10
-31.062
 11
-31.284
 20
11.06
 21
11.201
  0
LINE
  8
0
 10
-31.284
 11
-31.488
 20
11.201
 21
11.369
  0
LINE
  8
0
 10
-31.488
 11
-31.668
 20
11.369
 21
11.561
  0
LINE
  8
0
 10
-31.668
 11
-31.823
 20
11.561
 21
11.775
  0
LINE
  8
0
 10
-31.823
 11
-31.95
 20
11.775
 21
12.006
  0
LINE
  8
0
 10
-31.95
 11
-32.047
 20
12.006
 21
12.251
  0
LINE
  8
0
 10
-32.047
 11
-32.113
 20
12.251
 21
12.506
  0
LINE
  8
0
 10
-32.113
 11
-32.146
 20
12.506
 21
12.768
  0
LINE
  8
0
 10
-32.146
 11
-32.146
 20
48.768
 21
49.032
  0
LINE
  8
0
 10
-32.146
 11
-32.113
 20
49.032
 21
49.294
  0
LINE
  8
0
 10
-32.113
 11
-32.047
 20
49.294
 21
49.549
  0
LINE
  8
0
 10
-32.047
 11
-31.95
 20
49.549
 21
49.794
  0
LINE
  8
0
 10
-31.95
 11
-31.823
 20
49.794
 21
50.025
  0
LINE
  8
0
 10
-31.823
 11
-31.668
 20
50.025
 21
50.239
  0
LINE
  8
0
 10
-31.668
 11
-31.488
 20
50.239
 21
50.431
  0
LINE
  8
0
 10
-31.488
 11
-31.284
 20
50.431
 21
50.599
  0
LINE
  8
0
 10
-31.284
 11
-31.062
 20
50.599
 21
50.74
  0
LINE
  8
0
 10
-31.062
 11
-30.823
 20
50.74
 21
50.853
  0
LINE
  8
0
 10
-30.823
 11
-30.572
 20
50.853
 21
50.934
  0
LINE
  8
0
 10
-30.572
 11
-30.313
 20
50.934
 21
50.983
  0
LINE
  8
0
 10
-30.313
 11
-30.05
 20
50.983
 21
51
  0
LINE
  8
0
 10
-30.05
 11
-29.787
 20
51
 21
50.983
  0
LINE
  8
0
 10
-29.787
 11
-29.528
 20
50.983
 21
50.934
  0
LINE
  8
0
 10
-29.528
 11
-29.277
 20
50.934
 21
50.853
  0
LINE
  8
0
 10
-29.277
 11
-29.038
 20
50.853
 21
50.74
  0
LINE
  8
0
 10
-29.038
 11
-28.816
 20
50.74
 21
50.599
  0
LINE
  8
0
 10
-28.816
 11
-28.612
 20
50.599
 21
50.431
  0
LINE
  8
0
 10
-28.612
 11
-28.432
 20
50.431
 21
50.239
  0
LINE
  8
0
 10
-28.432
 11
-28.277
 20
50.239
 21
50.025
  0
LINE
  8
0
 10
-28.277
 11
-28.15
 20
50.025
 21
49.794
  0
LINE
  8
0
 10
-28.15
 11
-28.053
 20
49.794
 21
49.549
  0
LINE
  8
0
 10
-28.053
 11
-27.987
 20
49.549
 21
49.294
  0
LINE
  8
0
 10
-27.987
 11
-27.954
 20
49.294
 21
49.032
  0
LINE
  8
0
 10
-27.954
 11
-27.954
 20
49.032
 21
48.768
  0
LINE
  8
0
 10
-27.954
 11
-27.987
 20
48.768
 21
48.506
  0
LINE
  8
0
 10
-27.987
 11
-28.053
 20
48.506
 21
48.251
  0
LINE
  8
0
 10
-28.053
 11
-28.15
 20
48.251
 21
48.006
  0
LINE
  8
0
 10
-28.15
 11
-28.277
 20
48.006
 21
47.775
  0
LINE
  8
0
 10
-28.277
 11
-28.432
 20
47.775
 21
47.561
  0
LINE
  8
0
 10
-28.432
 11
-28.612
 20
47.561
 21
47.369
  0
LINE
  8
0
 10
-28.612
 11
-28.816
 20
47.369
 21
47.201
  0
LINE
  8
0
 10
-28.816
 11
-29.038
 20
47.201
 21
47.06
  0
LINE
  8
0
 10
-29.038
 11
-29.277
 20
47.06
 21
46.947
  0
LINE
  8
0
 10
-29.277
 11
-29.528
 20
46.947
 21
46.866
  0
LINE
  8
0
 10
-29.528
 11
-29.787
 20
46.866
 21
46.817
  0
LINE
  8
0
 10
-29.787
 11
-30.05
 20
46.817
 21
46.8
  0
LINE
  8
0
 10
-30.05
 11
-30.313
 20
46.8
 21
46.817
  0
LINE
  8
0
 10
-30.313
 11
-30.572
 20
46.817
 21
46.866
  0
LINE
  8
0
 10
-30.572
 11
-30.823
 20
46.866
 21
46.947
  0
LINE
  8
0
 10
-30.823
 11
-31.062
 20
46.947
 21
47.06
  0
LINE
  8
0
 10
-31.062
 11
-31.284
 20
47.06
 21
47.201
  0
LINE
  8
0
 10
-31.284
 11
-31.488
 20
47.201
 21
47.369
  0
LINE
  8
0
 10
-31.488
 11
-31.668
 20
47.369
 21
47.561
  0
LINE
  8
0
 10
-31.668
 11
-31.823
 20
47.561
 21
47.775
  0
LINE
  8
0
 10
-31.823
 11
-31.95
 20
47.775
 21
48.006
  0
LINE
  8
0
 10
-31.95
 11
-32.047
 20
48.006
 21
48.251
  0
LINE
  8
0
 10
-32.047
 11
-32.113
 20
48.251
 21
48.506
  0
LINE
  8
0
 10
-32.113
 11
-32.146
 20
48.506
 21
48.768
  0
LINE
  8
0
 10
-36.35
 11
-36.35
 20
-17.9
 21
12.8
  0
LINE
  8
0
 10
-36.35
 11
-36.338
 20
12.8
 21
12.8
  0
LINE
  8
0
 10
-36.338
 11
-36.338
 20
12.8
 21
13.196
  0
LINE
  8
0
 10
-36.338
 11
-36.238
 20
13.196
 21
13.981
  0
LINE
  8
0
 10
-36.238
 11
-36.042
 20
13.981
 21
14.747
  0
LINE
  8
0
 10
-36.042
 11
-35.75
 20
14.747
 21
15.482
  0
LINE
  8
0
 10
-35.75
 11
-35.369
 20
15.482
 21
16.176
  0
LINE
  8
0
 10
-35.369
 11
-34.904
 20
16.176
 21
16.816
  0
LINE
  8
0
 10
-34.904
 11
-34.363
 20
16.816
 21
17.393
  0
LINE
  8
0
 10
-34.363
 11
-33.753
 20
17.393
 21
17.897
  0
LINE
  8
0
 10
-33.753
 11
-33.085
 20
17.897
 21
18.321
  0
LINE
  8
0
 10
-33.085
 11
-32.369
 20
18.321
 21
18.658
  0
LINE
  8
0
 10
-32.369
 11
-32.15
 20
18.658
 21
18.729
  0
LINE
  8
0
 10
-32.15
 11
-32.15
 20
18.729
 21
45.268
  0
LINE
  8
0
 10
-32.15
 11
-32.519
 20
45.268
 21
45.502
  0
LINE
  8
0
 10
-32.519
 11
-32.925
 20
45.502
 21
45.838
  0
LINE
  8
0
 10
-32.925
 11
-33.286
 20
45.838
 21
46.223
  0
LINE
  8
0
 10
-33.286
 11
-33.596
 20
46.223
 21
46.65
  0
LINE
  8
0
 10
-33.596
 11
-33.85
 20
46.65
 21
47.112
  0
LINE
  8
0
 10
-33.85
 11
-34.044
 20
47.112
 21
47.602
  0
LINE
  8
0
 10
-34.044
 11
-34.176
 20
47.602
 21
48.113
  0
LINE
  8
0
 10
-34.176
 11
-34.242
 20
48.113
 21
48.636
  0
LINE
  8
0
 10
-34.242
 11
-34.242
 20
48.636
 21
49.164
  0
LINE
  8
0
 10
-34.242
 11
-34.176
 20
49.164
 21
49.687
  0
LINE
  8
0
 10
-34.176
 11
-34.044
 20
49.687
 21
50.198
  0
LINE
  8
0
 10
-34.044
 11
-33.85
 20
50.198
 21
50.688
  0
LINE
  8
0
 10
-33.85
 11
-33.596
 20
50.688
 21
51.15
  0
LINE
  8
0
 10
-33.596
 11
-33.286
 20
51.15
 21
51.577
  0
LINE
  8
0
 10
-33.286
 11
-32.925
 20
51.577
 21
51.962
  0
LINE
  8
0
 10
-32.925
 11
-32.519
 20
51.962
 21
52.298
  0
LINE
  8
0
 10
-32.519
 11
-32.073
 20
52.298
 21
52.58
  0
LINE
  8
0
 10
-32.073
 11
-31.596
 20
52.58
 21
52.805
  0
LINE
  8
0
 10
-31.596
 11
-31.094
 20
52.805
 21
52.968
  0
LINE
  8
0
 10
-31.094
 11
-30.576
 20
52.968
 21
53.067
  0
LINE
  8
0
 10
-30.576
 11
-30.05
 20
53.067
 21
53.1
  0
LINE
  8
0
 10
-30.05
 11
-29.524
 20
53.1
 21
53.067
  0
LINE
  8
0
 10
-29.524
 11
-29.006
 20
53.067
 21
52.968
  0
LINE
  8
0
 10
-29.006
 11
-28.504
 20
52.968
 21
52.805
  0
LINE
  8
0
 10
-28.504
 11
-28.027
 20
52.805
 21
52.58
  0
LINE
  8
0
 10
-28.027
 11
-27.581
 20
52.58
 21
52.298
  0
LINE
  8
0
 10
-27.581
 11
-27.175
 20
52.298
 21
51.962
  0
LINE
  8
0
 10
-27.175
 11
-26.814
 20
51.962
 21
51.577
  0
LINE
  8
0
 10
-26.814
 11
-26.504
 20
51.577
 21
51.15
  0
LINE
  8
0
 10
-26.504
 11
-26.25
 20
51.15
 21
50.688
  0
LINE
  8
0
 10
-26.25
 11
-26.056
 20
50.688
 21
50.198
  0
LINE
  8
0
 10
-26.056
 11
-25.924
 20
50.198
 21
49.687
  0
LINE
  8
0
 10
-25.924
 11
-25.858
 20
49.687
 21
49.164
  0
LINE
  8
0
 10
-25.858
 11
-25.858
 20
49.164
 21
48.636
  0
LINE
  8
0
 10
-25.858
 11
-25.924
 20
48.636
 21
48.113
  0
LINE
  8
0
 10
-25.924
 11
-26.056
 20
48.113
 21
47.602
  0
LINE
  8
0
 10
-26.056
 11
-26.25
 20
47.602
 21
47.112
  0
LINE
  8
0
 10
-26.25
 11
-26.504
 20
47.112
 21
46.65
  0
LINE
  8
0
 10
-26.504
 11
-26.814
 20
46.65
 21
46.223
  0
LINE
  8
0
 10
-26.814
 11
-27.175
 20
46.223
 21
45.838
  0
LINE
  8
0
 10
-27.175
 11
-27.581
 20
45.838
 21
45.502
  0
LINE
  8
0
 10
-27.581
 11
-27.95
 20
45.502
 21
45.268
  0
LINE
  8
0
 10
-27.95
 11
-27.95
 20
45.268
 21
18.729
  0
LINE
  8
0
 10
-27.95
 11
-27.731
 20
18.729
 21
18.658
  0
LINE
  8
0
 10
-27.731
 11
-27.015
 20
18.658
 21
18.321
  0
LINE
  8
0
 10
-27.015
 11
-26.347
 20
18.321
 21
17.897
  0
LINE
  8
0
 10
-26.347
 11
-25.737
 20
17.897
 21
17.393
  0
LINE
  8
0
 10
-25.737
 11
-25.196
 20
17.393
 21
16.816
  0
LINE
  8
0
 10
-25.196
 11
-24.731
 20
16.816
 21
16.176
  0
LINE
  8
0
 10
-24.731
 11
-24.35
 20
16.176
 21
15.482
  0
LINE
  8
0
 10
-24.35
 11
-24.058
 20
15.482
 21
14.747
  0
LINE
  8
0
 10
-24.058
 11
-23.862
 20
14.747
 21
13.981
  0
LINE
  8
0
 10
-23.862
 11
-23.762
 20
13.981
 21
13.196
  0
LINE
  8
0
 10
-23.762
 11
-23.762
 20
13.196
 21
12.8
  0
LINE
  8
0
 10
-23.762
 11
-23.75
 20
12.8
 21
12.8
  0
LINE
  8
0
 10
-23.75
 11
-23.75
 20
12.8
 21
7.3
  0
LINE
  8
0
 10
-23.75
 11
23.75
 20
7.3
 21
7.3
  0
LINE
  8
0
 10
23.75
 11
23.75
 20
7.3
 21
12.8
  0
LINE
  8
0
 10
23.75
 11
23.762
 20
12.8
 21
12.8
  0
LINE
  8
0
 10
23.762
 11
23.762
 20
12.8
 21
13.196
  0
LINE
  8
0
 10
23.762
 11
23.862
 20
13.196
 21
13.981
  0
LINE
  8
0
 10
23.862
 11
24.058
 20
13.981
 21
14.747
  0
LINE
  8
0
 10
24.058
 11
24.35
 20
14.747
 21
15.482
  0
LINE
  8
0
 10
24.35
 11
24.731
 20
15.482
 21
16.176
  0
LINE
  8
0
 10
24.731
 11
25.196
 20
16.176
 21
16.816
  0
LINE
  8
0
 10
25.196
 11
25.737
 20
16.816
 21
17.393
  0
LINE
  8
0
 10
25.737
 11
26.347
 20
17.393
 21
17.897
  0
LINE
  8
0
 10
26.347
 11
27.015
 20
17.897
 21
18.321
  0
LINE
  8
0
 10
27.015
 11
27.731
 20
18.321
 21
18.658
  0
LINE
  8
0
 10
27.731
 11
27.95
 20
18.658
 21
18.729
  0
LINE
  8
0
 10
27.95
 11
27.95
 20
18.729
 21
45.268
  0
LINE
  8
0
 10
27.95
 11
27.581
 20
45.268
 21
45.502
  0
LINE
  8
0
 10
27.581
 11
27.175
 20
45.502
 21
45.838
  0
LINE
  8
0
 10
27.175
 11
26.814
 20
45.838
 21
46.223
  0
LINE
  8
0
 10
26.814
 11
26.504
 20
46.223
 21
46.65
  0
LINE
  8
0
 10
26.504
 11
26.25
 20
46.65
 21
47.112
  0
LINE
  8
0
 10
26.25
 11
26.056
 20
47.112
 21
47.602
  0
LINE
  8
0
 10
26.056
 11
25.924
 20
47.602
 21
48.113
  0
LINE
  8
0
 10
25.924
 11
25.858
 20
48.113
 21
48.636
  0
LINE
  8
0
 10
25.858
 11
25.858
 20
48.636
 21
49.164
  0
LINE
  8
0
 10
25.858
 11
25.924
 20
49.164
 21
49.687
  0
LINE
  8
0
 10
25.924
 11
26.056
 20
49.687
 21
50.198
  0
LINE
  8
0
 10
26.056
 11
26.25
 20
50.198
 21
50.688
  0
LINE
  8
0
 10
26.25
 11
26.504
 20
50.688
 21
51.15
  0
LINE
  8
0
 10
26.504
 11
26.814
 20
51.15
 21
51.577
  0
LINE
  8
0
 10
26.814
 11
27.175
 20
51.577
 21
51.962
  0
LINE
  8
0
 10
27.175
 11
27.581
 20
51.962
 21
52.298
  0
LINE
  8
0
 10
27.581
 11
28.027
 20
52.298
 21
52.58
  0
LINE
  8
0
 10
28.027
 11
28.504
 20
52.58
 21
52.805
  0
LINE
  8
0
 10
28.504
 11
29.006
 20
52.805
 21
52.968
  0
LINE
  8
0
 10
29.006
 11
29.524
 20
52.968
 21
53.067
  0
LINE
  8
0
 10
29.524
 11
30.05
 20
53.067
 21
53.1
  0
LINE
  8
0
 10
30.05
 11
30.576
 20
53.1
 21
53.067
  0
LINE
  8
0
 10
30.576
 11
31.094
 20
53.067
 21
52.968
  0
LINE
  8
0
 10
31.094
 11
31.596
 20
52.968
 21
52.805
  0
LINE
  8
0
 10
31.596
 11
32.073
 20
52.805
 21
52.58
  0
LINE
  8
0
 10
32.073
 11
32.519
 20
52.58
 21
52.298
  0
LINE
  8
0
 10
32.519
 11
32.925
 20
52.298
 21
51.962
  0
LINE
  8
0
 10
32.925
 11
33.286
 20
51.962
 21
51.577
  0
LINE
  8
0
 10
33.286
 11
33.596
 20
51.577
 21
51.15
  0
LINE
  8
0
 10
33.596
 11
33.85
 20
51.15
 21
50.688
  0
LINE
  8
0
 10
33.85
 11
34.044
 20
50.688
 21
50.198
  0
LINE
  8
0
 10
34.044
 11
34.176
 20
50.198
 21
49.687
  0
LINE
  8
0
 10
34.176
 11
34.242
 20
49.687
 21
49.164
  0
LINE
  8
0
 10
34.242
 11
34.242
 20
49.164
 21
48.636
  0
LINE
  8
0
 10
34.242
 11
34.176
 20
48.636
 21
48.113
  0
LINE
  8
0
 10
34.176
 11
34.044
 20
48.113
 21
47.602
  0
LINE
  8
0
 10
34.044
 11
33.85
 20
47.602
 21
47.112
  0
LINE
  8
0
 10
33.85
 11
33.596
 20
47.112
 21
46.65
  0
LINE
  8
0
 10
33.596
 11
33.286
 20
46.65
 21
46.223
  0
LINE
  8
0
 10
33.286
 11
32.925
 20
46.223
 21
45.838
  0
LINE
  8
0
 10
32.925
 11
32.519
 20
45.838
 21
45.502
  0
LINE
  8
0
 10
32.519
 11
32.15
 20
45.502
 21
45.268
  0
LINE
  8
0
 10
32.15
 11
32.15
 20
45.268
 21
18.729
  0
LINE
  8
0
 10
32.15
 11
32.369
 20
18.729
 21
18.658
  0
LINE
  8
0
 10
32.369
 11
33.085
 20
18.658
 21
18.321
  0
LINE
  8
0
 10
33.085
 11
33.753
 20
18.321
 21
17.897
  0
LINE
  8
0
 10
33.753
 11
34.363
 20
17.897
 21
17.393
  0
LINE
  8
0
 10
34.363
 11
34.904
 20
17.393
 21
16.816
  0
LINE
  8
0
 10
34.904
 11
35.369
 20
16.816
 21
16.176
  0
LINE
  8
0
 10
35.369
 11
35.75
 20
16.176
 21
15.482
  0
LINE
  8
0
 10
35.75
 11
36.042
 20
15.482
 21
14.747
  0
LINE
  8
0
 10
36.042
 11
36.238
 20
14.747
 21
13.981
  0
LINE
  8
0
 10
36.238
 11
36.338
 20
13.981
 21
13.196
  0
LINE
  8
0
 10
36.338
 11
36.338
 20
13.196
 21
12.8
  0
LINE
  8
0
 10
36.338
 11
36.35
 20
12.8
 21
12.8
  0
LINE
  8
0
 10
36.35
 11
36.35
 20
12.8
 21
-17.9
  0
LINE
  8
0
 10
36.35
 11
31.1
 20
-17.9
 21
-17.9
  0
LINE
  8
0
 10
31.1
 11
31.1
 20
-17.9
 21
-3.37
  0
LINE
  8
0
 10
31.1
 11
31.144
 20
-3.37
 21
-3.362
  0
LINE
  8
0
 10
31.144
 11
31.67
 20
-3.362
 21
-3.191
  0
LINE
  8
0
 10
31.67
 11
32.17
 20
-3.191
 21
-2.956
  0
LINE
  8
0
 10
32.17
 11
32.636
 20
-2.956
 21
-2.66
  0
LINE
  8
0
 10
32.636
 11
33.062
 20
-2.66
 21
-2.307
  0
LINE
  8
0
 10
33.062
 11
33.44
 20
-2.307
 21
-1.905
  0
LINE
  8
0
 10
33.44
 11
33.765
 20
-1.905
 21
-1.458
  0
LINE
  8
0
 10
33.765
 11
34.031
 20
-1.458
 21
-0.973
  0
LINE
  8
0
 10
34.031
 11
34.235
 20
-0.973
 21
-0.46
  0
LINE
  8
0
 10
34.235
 11
34.372
 20
-0.46
 21
0.076
  0
LINE
  8
0
 10
34.372
 11
34.441
 20
0.076
 21
0.624
  0
LINE
  8
0
 10
34.441
 11
34.441
 20
0.624
 21
1.176
  0
LINE
  8
0
 10
34.441
 11
34.372
 20
1.176
 21
1.724
  0
LINE
  8
0
 10
34.372
 11
34.235
 20
1.724
 21
2.26
  0
LINE
  8
0
 10
34.235
 11
34.031
 20
2.26
 21
2.773
  0
LINE
  8
0
 10
34.031
 11
33.765
 20
2.773
 21
3.258
  0
LINE
  8
0
 10
33.765
 11
33.44
 20
3.258
 21
3.705
  0
LINE
  8
0
 10
33.44
 11
33.062
 20
3.705
 21
4.107
  0
LINE
  8
0
 10
33.062
 11
32.636
 20
4.107
 21
4.46
  0
LINE
  8
0
 10
32.636
 11
32.17
 20
4.46
 21
4.756
  0
LINE
  8
0
 10
32.17
 11
31.67
 20
4.756
 21
4.991
  0
LINE
  8
0
 10
31.67
 11
31.144
 20
4.991
 21
5.162
  0
LINE
  8
0
 10
31.144
 11
30.601
 20
5.162
 21
5.265
  0
LINE
  8
0
 10
30.601
 11
30.05
 20
5.265
 21
5.3
  0
LINE
  8
0
 10
30.05
 11
29.499
 20
5.3
 21
5.265
  0
LINE
  8
0
 10
29.499
 11
28.956
 20
5.265
 21
5.162
  0
LINE
  8
0
 10
28.956
 11
28.43
 20
5.162
 21
4.991
  0
LINE
  8
0
 10
28.43
 11
27.93
 20
4.991
 21
4.756
  0
LINE
  8
0
 10
27.93
 11
27.464
 20
4.756
 21
4.46
  0
LINE
  8
0
 10
27.464
 11
27.038
 20
4.46
 21
4.107
  0
LINE
  8
0
 10
27.038
 11
26.66
 20
4.107
 21
3.705
  0
LINE
  8
0
 10
26.66
 11
26.335
 20
3.705
 21
3.258
  0
LINE
  8
0
 10
26.335
 11
26.069
 20
3.258
 21
2.773
  0
LINE
  8
0
 10
26.069
 11
25.865
 20
2.773
 21
2.26
  0
LINE
  8
0
 10
25.865
 11
25.728
 20
2.26
 21
1.724
  0
LINE
  8
0
 10
25.728
 11
25.659
 20
1.724
 21
1.176
  0
LINE
  8
0
 10
25.659
 11
25.659
 20
1.176
 21
0.624
  0
LINE
  8
0
 10
25.659
 11
25.728
 20
0.624
 21
0.076
  0
LINE
  8
0
 10
25.728
 11
25.865
 20
0.076
 21
-0.46
  0
LINE
  8
0
 10
25.865
 11
26.069
 20
-0.46
 21
-0.973
  0
LINE
  8
0
 10
26.069
 11
26.335
 20
-0.973
 21
-1.458
  0
LINE
  8
0
 10
26.335
 11
26.66
 20
-1.458
 21
-1.905
  0
LINE
  8
0
 10
26.66
 11
27.038
 20
-1.905
 21
-2.307
  0
LINE
  8
0
 10
27.038
 11
27.464
 20
-2.307
 21
-2.66
  0
LINE
  8
0
 10
27.464
 11
27.93
 20
-2.66
 21
-2.956
  0
LINE
  8
0
 10
27.93
 11
28.43
 20
-2.956
 21
-3.191
  0
LINE
  8
0
 10
28.43
 11
28.956
 20
-3.191
 21
-3.362
  0
LINE
  8
0
 10
28.956
 11
29
 20
-3.362
 21
-3.37
  0
LINE
  8
0
 10
29
 11
29
 20
-3.37
 21
-17.9
  0
LINE
  8
0
 10
29
 11
24.8
 20
-17.9
 21
-17.9
  0
LINE
  8
0
 10
24.8
 11
24.8
 20
-17.9
 21
-50.39
  0
LINE
  8
0
 10
24.8
 11
11.3
 20
-50.39
 21
-50.39
  0
LINE
  8
0
 10
11.3
 11
11.3
 20
-50.39
 21
-40.68
  0
LINE
  8
0
 10
11.3
 11
-10.3
 20
-40.68
 21
-40.68
  0
LINE
  8
0
 10
-10.3
 11
-10.3
 20
-40.68
 21
-50.39
  0
LINE
  8
0
 10
-10.3
 11
-24.8
 20
-50.39
 21
-50.39
  0
LINE
  8
0
 10
-24.8
 11
-24.8
 20
-50.39
 21
-17.9
  0
LINE
  8
0
 10
-24.8
 11
-29
 20
-17.9
 21
-17.9
  0
LINE
  8
0
 10
-29
 11
-29
 20
-17.9
 21
-3.37
  0
LINE
  8
0
 10
-29
 11
-28.956
 20
-3.37
 21
-3.362
  0
LINE
  8
0
 10
-28.956
 11
-28.43
 20
-3.362
 21
-3.191
  0
LINE
  8
0
 10
-28.43
 11
-27.93
 20
-3.191
 21
-2.956
  0
LINE
  8
0
 10
-27.93
 11
-27.464
 20
-2.956
 21
-2.66
  0
LINE
  8
0
 10
-27.464
 11
-27.038
 20
-2.66
 21
-2.307
  0
LINE
  8
0
 10
-27.038
 11
-26.66
 20
-2.307
 21
-1.905
  0
LINE
  8
0
 10
-26.66
 11
-26.335
 20
-1.905
 21
-1.458
  0
LINE
  8
0
 10
-26.335
 11
-26.069
 20
-1.458
 21
-0.973
  0
LINE
  8
0
 10
-26.069
 11
-25.865
 20
-0.973
 21
-0.46
  0
LINE
  8
0
 10
-25.865
 11
-25.728
 20
-0.46
 21
0.076
  0
LINE
  8
0
 10
-25.728
 11
-25.659
 20
0.076
 21
0.624
  0
LINE
  8
0
 10
-25.659
 11
-25.659
 20
0.624
 21
1.176
  0
LINE
  8
0
 10
-25.659
 11
-25.728
 20
1.176
 21
1.724
  0
LINE
  8
0
 10
-25.728
 11
-25.865
 20
1.724
 21
2.26
  0
LINE
  8
0
 10
-25.865
 11
-26.069
 20
2.26
 21
2.773
  0
LINE
  8
0
 10
-26.069
 11
-26.335
 20
2.773
 21
3.258
  0
LINE
  8
0
 10
-26.335
 11
-26.66
 20
3.258
 21
3.705
  0
LINE
  8
0
 10
-26.66
 11
-27.038
 20
3.705
 21
4.107
  0
LINE
  8
0
 10
-27.038
 11
-27.464
 20
4.107
 21
4.46
  0
LINE
  8
0
 10
-27.464
 11
-27.93
 20
4.46
 21
4.756
  0
LINE
  8
0
 10
-27.93
 11
-28.43
 20
4.756
 21
4.991
  0
LINE
  8
0
 10
-28.43
 11
-28.956
 20
4.991
 21
5.162
  0
LINE
  8
0
 10
-28.956
 11
-29.499
 20
5.162
 21
5.265
  0
LINE
  8
0
 10
-29.499
 11
-30.05
 20
5.265
 21
5.3
  0
LINE
  8
0
 10
-30.05
 11
-30.601
 20
5.3
 21
5.265
  0
LINE
  8
0
 10
-30.601
 11
-31.144
 20
5.265
 21
5.162
  0
LINE
  8
0
 10
-31.144
 11
-31.67
 20
5.162
 21
4.991
  0
LINE
  8
0
 10
-31.67
 11
-32.17
 20
4.991
 21
4.756
  0
LINE
  8
0
 10
-32.17
 11
-32.636
 20
4.756
 21
4.46
  0
LINE
  8
0
 10
-32.636
 11
-33.062
 20
4.46
 21
4.107
  0
LINE
  8
0
 10
-33.062
 11
-33.44
 20
4.107
 21
3.705
  0
LINE
  8
0
 10
-33.44
 11
-33.765
 20
3.705
 21
3.258
  0
LINE
  8
0
 10
-33.765
 11
-34.031
 20
3.258
 21
2.773
  0
LINE
  8
0
 10
-34.031
 11
-34.235
 20
2.773
 21
2.26
  0
LINE
  8
0
 10
-34.235
 11
-34.372
 20
2.26
 21
1.724
  0
LINE
  8
0
 10
-34.372
 11
-34.441
 20
1.724
 21
1.176
  0
LINE
  8
0
 10
-34.441
 11
-34.441
 20
1.176
 21
0.624
  0
LINE
  8
0
 10
-34.441
 11
-34.372
 20
0.624
 21
0.076
  0
LINE
  8
0
 10
-34.372
 11
-34.235
 20
0.076
 21
-0.46
  0
LINE
  8
0
 10
-34.235
 11
-34.031
 20
-0.46
 21
-0.973
  0
LINE
  8
0
 10
-34.031
 11
-33.765
 20
-0.973
 21
-1.458
  0
LINE
  8
0
 10
-33.765
 11
-33.44
 20
-1.458
 21
-1.905
  0
LINE
  8
0
 10
-33.44
 11
-33.062
 20
-1.905
 21
-2.307
  0
LINE
  8
0
 10
-33.062
 11
-32.636
 20
-2.307
 21
-2.66
  0
LINE
  8
0
 10
-32.636
 11
-32.17
 20
-2.66
 21
-2.956
  0
LINE
  8
0
 10
-32.17
 11
-31.67
 20
-2.956
 21
-3.191
  0
LINE
  8
0
 10
-31.67
 11
-31.144
 20
-3.191
 21
-3.362
  0
LINE
  8
0
 10
-31.144
 11
-31.1
 20
-3.362
 21
-3.37
  0
LINE
  8
0
 10
-31.1
 11
-31.1
 20
-3.37
 21
-17.9
  0
LINE
  8
0
 10
-31.1
 11
-36.35
 20
-17.9
 21
-17.9
  0
LINE
  8
0
 10
-18.447
 11
-18.447
 20
-26.99
 21
0
  0
LINE
  8
0
 10
-18.447
 11
18.447
 20
0
 21
0
  0
LINE
  8
0
 10
18.447
 11
18.447
 20
0
 21
-26.99
  0
LINE
  8
0
 10
18.447
 11
-18.447
 20
-26.99
 21
-26.99
  0
LINE
  8
0
 10
27.954
 11
27.954
 20
12.768
 21
13.032
  0
LINE
  8
0
 10
27.954
 11
27.987
 20
13.032
 21
13.294
  0
LINE
  8
0
 10
27.987
 11
28.053
 20
13.294
 21
13.549
  0
LINE
  8
0
 10
28.053
 11
28.15
 20
13.549
 21
13.794
  0
LINE
  8
0
 10
28.15
 11
28.277
 20
13.794
 21
14.025
  0
LINE
  8
0
 10
28.277
 11
28.432
 20
14.025
 21
14.239
  0
LINE
  8
0
 10
28.432
 11
28.612
 20
14.239
 21
14.431
  0
LINE
  8
0
 10
28.612
 11
28.816
 20
14.431
 21
14.599
  0
LINE
  8
0
 10
28.816
 11
29.038
 20
14.599
 21
14.74
  0
LINE
  8
0
 10
29.038
 11
29.277
 20
14.74
 21
14.853
  0
LINE
  8
0
 10
29.277
 11
29.528
 20
14.853
 21
14.934
  0
LINE
  8
0
 10
29.528
 11
29.787
 20
14.934
 21
14.983
  0
LINE
  8
0
 10
29.787
 11
30.05
 20
14.983
 21
15
  0
LINE
  8
0
 10
30.05
 11
30.313
 20
15
 21
14.983
  0
LINE
  8
0
 10
30.313
 11
30.572
 20
14.983
 21
14.934
  0
LINE
  8
0
 10
30.572
 11
30.823
 20
14.934
 21
14.853
  0
LINE
  8
0
 10
30.823
 11
31.062
 20
14.853
 21
14.74
  0
LINE
  8
0
 10
31.062
 11
31.284
 20
14.74
 21
14.599
  0
LINE
  8
0
 10
31.284
 11
31.488
 20
14.599
 21
14.431
  0
LINE
  8
0
 10
31.488
 11
31.668
 20
14.431
 21
14.239
  0
LINE
  8
0
 10
31.668
 11
31.823
 20
14.239
 21
14.025
  0
LINE
  8
0
 10
31.823
 11
31.95
 20
14.025
 21
13.794
  0
LINE
  8
0
 10
31.95
 11
32.047
 20
13.794
 21
13.549
  0
LINE
  8
0
 10
32.047
 11
32.113
 20
13.549
 21
13.294
  0
LINE
  8
0
 10
32.113
 11
32.146
 20
13.294
 21
13.032
  0
LINE
  8
0
 10
32.146
 11
32.146
 20
13.032
 21
12.768
  0
LINE
  8
0
 10
32.146
 11
32.113
 20
12.768
 21
12.506
  0
LINE
  8
0
 10
32.113
 11
32.047
 20
12.506
 21
12.251
  0
LINE
  8
0
 10
32.047
 11
31.95
 20
12.251
 21
12.006
  0
LINE
  8
0
 10
31.95
 11
31.823
 20
12.006
 21
11.775
  0
LINE
  8
0
 10
31.823
 11
31.668
 20
11.775
 21
11.561
  0
LINE
  8
0
 10
31.668
 11
31.488
 20
11.561
 21
11.369
  0
LINE
  8
0
 10
31.488
 11
31.284
 20
11.369
 21
11.201
  0
LINE
  8
0
 10
31.284
 11
31.062
 20
11.201
 21
11.06
  0
LINE
  8
0
 10
31.062
 11
30.823
 20
11.06
 21
10.947
  0
LINE
  8
0
 10
30.823
 11
30.572
 20
10.947
 21
10.866
  0
LINE
  8
0
 10
30.572
 11
30.313
 20
10.866
 21
10.817
  0
LINE
  8
0
 10
30.313
 11
30.05
 20
10.817
 21
10.8
  0
LINE
  8
0
 10
30.05
 11
29.787
 20
10.8
 21
10.817
  0
LINE
  8
0
 10
29.787
 11
29.528
 20
10.817
 21
10.866
  0
LINE
  8
0
 10
29.528
 11
29.277
 20
10.866
 21
10.947
  0
LINE
  8
0
 10
29.277
 11
29.038
 20
10.947
 21
11.06
  0
LINE
  8
0
 10
29.038
 11
28.816
 20
11.06
 21
11.201
  0
LINE
  8
0
 10
28.816
 11
28.612
 20
11.201
 21
11.369
  0
LINE
  8
0
 10
28.612
 11
28.432
 20
11.369
 21
11.561
  0
LINE
  8
0
 10
28.432
 11
28.277
 20
11.561
 21
11.775
  0
LINE
  8
0
 10
28.277
 11
28.15
 20
11.775
 21
12.006
  0
LINE
  8
0
 10
28.15
 11
28.053
 20
12.006
 21
12.251
  0
LINE
  8
0
 10
28.053
 11
27.987
 20
12.251
 21
12.506
  0
LINE
  8
0
 10
27.987
 11
27.954
 20
12.506
 21
12.768
  0
LINE
  8
0
 10
27.954
 11
27.954
 20
48.768
 21
49.032
  0
LINE
  8
0
 10
27.954
 11
27.987
 20
49.032
 21
49.294
  0
LINE
  8
0
 10
27.987
 11
28.053
 20
49.294
 21
49.549
  0
LINE
  8
0
 10
28.053
 11
28.15
 20
49.549
 21
49.794
  0
LINE
  8
0
 10
28.15
 11
28.277
 20
49.794
 21
50.025
  0
LINE
  8
0
 10
28.277
 11
28.432
 20
50.025
 21
50.239
  0
LINE
  8
0
 10
28.432
 11
28.612
 20
50.239
 21
50.431
  0
LINE
  8
0
 10
28.612
 11
28.816
 20
50.431
 21
50.599
  0
LINE
  8
0
 10
28.816
 11
29.038
 20
50.599
 21
50.74
  0
LINE
  8
0
 10
29.038
 11
29.277
 20
50.74
 21
50.853
  0
LINE
  8
0
 10
29.277
 11
29.528
 20
50.853
 21
50.934
  0
LINE
  8
0
 10
29.528
 11
29.787
 20
50.934
 21
50.983
  0
LINE
  8
0
 10
29.787
 11
30.05
 20
50.983
 21
51
  0
LINE
  8
0
 10
30.05
 11
30.313
 20
51
 21
50.983
  0
LINE
  8
0
 10
30.313
 11
30.572
 20
50.983
 21
50.934
  0
LINE
  8
0
 10
30.572
 11
30.823
 20
50.934
 21
50.853
  0
LINE
  8
0
 10
30.823
 11
31.062
 20
50.853
 21
50.74
  0
LINE
  8
0
 10
31.062
 11
31.284
 20
50.74
 21
50.599
  0
LINE
  8
0
 10
31.284
 11
31.488
 20
50.599
 21
50.431
  0
LINE
  8
0
 10
31.488
 11
31.668
 20
50.431
 21
50.239
  0
LINE
  8
0
 10
31.668
 11
31.823
 20
50.239
 21
50.025
  0
LINE
  8
0
 10
31.823
 11
31.95
 20
50.025
 21
49.794
  0
LINE
  8
0
 10
31.95
 11
32.047
 20
49.794
 21
49.549
  0
LINE
  8
0
 10
32.047
 11
32.113
 20
49.549
 21
49.294
  0
LINE
  8
0
 10
32.113
 11
32.146
 20
49.294
 21
49.032
  0
LINE
  8
0
 10
32.146
 11
32.146
 20
49.032
 21
48.768
  0
LINE
  8
0
 10
32.146
 11
32.113
 20
48.768
 21
48.506
  0
LINE
  8
0
 10
32.113
 11
32.047
 20
48.506
 21
48.251
  0
LINE
  8
0
 10
32.047
 11
31.95
 20
48.251
 21
48.006
  0
LINE
  8
0
 10
31.95
 11
31.823
 20
48.006
 21
47.775
  0
LINE
  8
0
 10
31.823
 11
31.668
 20
47.775
 21
47.561
  0
LINE
  8
0
 10
31.668
 11
31.488
 20
47.561
 21
47.369
  0
LINE
  8
0
 10
31.488
 11
31.284
 20
47.369
 21
47.201
  0
LINE
  8
0
 10
31.284
 11
31.062
 20
47.201
 21
47.06
  0
LINE
  8
0
 10
31.062
 11
30.823
 20
47.06
 21
46.947
  0
LINE
  8
0
 10
30.823
 11
30.572
 20
46.947
 21
46.866
  0
LINE
  8
0
 10
30.572
 11
30.313
 20
46.866
 21
46.817
  0
LINE
  8
0
 10
30.313
 11
30.05
 20
46.817
 21
46.8
  0
LINE
  8
0
 10
30.05
 11
29.787
 20
46.8
 21
46.817
  0
LINE
  8
0
 10
29.787
 11
29.528
 20
46.817
 21
46.866
  0
LINE
  8
0
 10
29.528
 11
29.277
 20
46.866
 21
46.947
  0
LINE
  8
0
 10
29.277
 11
29.038
 20
46.947
 21
47.06
  0
LINE
  8
0
 10
29.038
 11
28.816
 20
47.06
 21
47.201
  0
LINE
  8
0
 10
28.816
 11
28.612
 20
47.201
 21
47.369
  0
LINE
  8
0
 10
28.612
 11
28.432
 20
47.369
 21
47.561
  0
LINE
  8
0
 10
28.432
 11
28.277
 20
47.561
 21
47.775
  0
LINE
  8
0
 10
28.277
 11
28.15
 20
47.775
 21
48.006
  0
LINE
  8
0
 10
28.15
 11
28.053
 20
48.006
 21
48.251
  0
LINE
  8
0
 10
28.053
 11
27.987
 20
48.251
 21
48.506
  0
LINE
  8
0
 10
27.987
 11
27.954
 20
48.506
 21
48.768
  0
ENDSEC
  0
SECTION
  2
OBJECTS
  0
DICTIONARY
  0
ENDSEC
  0
EOF
