  0
SECTION
  2
BLOCKS
  0
ENDSEC
  0
SECTION
  2
ENTITIES
  0
LINE
  8
0
 10
-34.45
 11
-34.415
 20
-12
 21
-11.449
  0
LINE
  8
0
 10
-34.415
 11
-34.312
 20
-11.449
 21
-10.906
  0
LINE
  8
0
 10
-34.312
 11
-34.141
 20
-10.906
 21
-10.38
  0
LINE
  8
0
 10
-34.141
 11
-33.906
 20
-10.38
 21
-9.88
  0
LINE
  8
0
 10
-33.906
 11
-33.61
 20
-9.88
 21
-9.414
  0
LINE
  8
0
 10
-33.61
 11
-33.257
 20
-9.414
 21
-8.988
  0
LINE
  8
0
 10
-33.257
 11
-32.855
 20
-8.988
 21
-8.61
  0
LINE
  8
0
 10
-32.855
 11
-32.408
 20
-8.61
 21
-8.285
  0
LINE
  8
0
 10
-32.408
 11
-31.923
 20
-8.285
 21
-8.019
  0
LINE
  8
0
 10
-31.923
 11
-31.41
 20
-8.019
 21
-7.815
  0
LINE
  8
0
 10
-31.41
 11
-30.874
 20
-7.815
 21
-7.678
  0
LINE
  8
0
 10
-30.874
 11
-30.326
 20
-7.678
 21
-7.609
  0
LINE
  8
0
 10
-30.326
 11
-29.774
 20
-7.609
 21
-7.609
  0
LINE
  8
0
 10
-29.774
 11
-29.226
 20
-7.609
 21
-7.678
  0
LINE
  8
0
 10
-29.226
 11
-28.69
 20
-7.678
 21
-7.815
  0
LINE
  8
0
 10
-28.69
 11
-28.177
 20
-7.815
 21
-8.019
  0
LINE
  8
0
 10
-28.177
 11
-27.692
 20
-8.019
 21
-8.285
  0
LINE
  8
0
 10
-27.692
 11
-27.245
 20
-8.285
 21
-8.61
  0
LINE
  8
0
 10
-27.245
 11
-26.843
 20
-8.61
 21
-8.988
  0
LINE
  8
0
 10
-26.843
 11
-26.49
 20
-8.988
 21
-9.414
  0
LINE
  8
0
 10
-26.49
 11
-26.194
 20
-9.414
 21
-9.88
  0
LINE
  8
0
 10
-26.194
 11
-25.959
 20
-9.88
 21
-10.38
  0
LINE
  8
0
 10
-25.959
 11
-25.788
 20
-10.38
 21
-10.906
  0
LINE
  8
0
 10
-25.788
 11
-25.685
 20
-10.906
 21
-11.449
  0
LINE
  8
0
 10
-25.685
 11
-25.65
 20
-11.449
 21
-12
  0
LINE
  8
0
 10
-25.65
 11
-25.685
 20
-12
 21
-12.551
  0
LINE
  8
0
 10
-25.685
 11
-25.788
 20
-12.551
 21
-13.094
  0
LINE
  8
0
 10
-25.788
 11
-25.959
 20
-13.094
 21
-13.62
  0
LINE
  8
0
 10
-25.959
 11
-26.194
 20
-13.62
 21
-14.12
  0
LINE
  8
0
 10
-26.194
 11
-26.49
 20
-14.12
 21
-14.586
  0
LINE
  8
0
 10
-26.49
 11
-26.843
 20
-14.586
 21
-15.012
  0
LINE
  8
0
 10
-26.843
 11
-27.245
 20
-15.012
 21
-15.39
  0
LINE
  8
0
 10
-27.245
 11
-27.692
 20
-15.39
 21
-15.715
  0
LINE
  8
0
 10
-27.692
 11
-28.177
 20
-15.715
 21
-15.981
  0
LINE
  8
0
 10
-28.177
 11
-28.69
 20
-15.981
 21
-16.185
  0
LINE
  8
0
 10
-28.69
 11
-29.226
 20
-16.185
 21
-16.322
  0
LINE
  8
0
 10
-29.226
 11
-29.774
 20
-16.322
 21
-16.391
  0
LINE
  8
0
 10
-29.774
 11
-30.326
 20
-16.391
 21
-16.391
  0
LINE
  8
0
 10
-30.326
 11
-30.874
 20
-16.391
 21
-16.322
  0
LINE
  8
0
 10
-30.874
 11
-31.41
 20
-16.322
 21
-16.185
  0
LINE
  8
0
 10
-31.41
 11
-31.923
 20
-16.185
 21
-15.981
  0
LINE
  8
0
 10
-31.923
 11
-32.408
 20
-15.981
 21
-15.715
  0
LINE
  8
0
 10
-32.408
 11
-32.855
 20
-15.715
 21
-15.39
  0
LINE
  8
0
 10
-32.855
 11
-33.257
 20
-15.39
 21
-15.012
  0
LINE
  8
0
 10
-33.257
 11
-33.61
 20
-15.012
 21
-14.586
  0
LINE
  8
0
 10
-33.61
 11
-33.906
 20
-14.586
 21
-14.12
  0
LINE
  8
0
 10
-33.906
 11
-34.141
 20
-14.12
 21
-13.62
  0
LINE
  8
0
 10
-34.141
 11
-34.312
 20
-13.62
 21
-13.094
  0
LINE
  8
0
 10
-34.312
 11
-34.415
 20
-13.094
 21
-12.551
  0
LINE
  8
0
 10
-34.415
 11
-34.45
 20
-12.551
 21
-12
  0
LINE
  8
0
 10
-32.15
 11
-32.133
 20
0
 21
0.263
  0
LINE
  8
0
 10
-32.133
 11
-32.084
 20
0.263
 21
0.522
  0
LINE
  8
0
 10
-32.084
 11
-32.003
 20
0.522
 21
0.773
  0
LINE
  8
0
 10
-32.003
 11
-31.89
 20
0.773
 21
1.012
  0
LINE
  8
0
 10
-31.89
 11
-31.749
 20
1.012
 21
1.234
  0
LINE
  8
0
 10
-31.749
 11
-31.581
 20
1.234
 21
1.438
  0
LINE
  8
0
 10
-31.581
 11
-31.389
 20
1.438
 21
1.618
  0
LINE
  8
0
 10
-31.389
 11
-31.175
 20
1.618
 21
1.773
  0
LINE
  8
0
 10
-31.175
 11
-30.944
 20
1.773
 21
1.9
  0
LINE
  8
0
 10
-30.944
 11
-30.699
 20
1.9
 21
1.997
  0
LINE
  8
0
 10
-30.699
 11
-30.444
 20
1.997
 21
2.063
  0
LINE
  8
0
 10
-30.444
 11
-30.182
 20
2.063
 21
2.096
  0
LINE
  8
0
 10
-30.182
 11
-29.918
 20
2.096
 21
2.096
  0
LINE
  8
0
 10
-29.918
 11
-29.656
 20
2.096
 21
2.063
  0
LINE
  8
0
 10
-29.656
 11
-29.401
 20
2.063
 21
1.997
  0
LINE
  8
0
 10
-29.401
 11
-29.156
 20
1.997
 21
1.9
  0
LINE
  8
0
 10
-29.156
 11
-28.925
 20
1.9
 21
1.773
  0
LINE
  8
0
 10
-28.925
 11
-28.711
 20
1.773
 21
1.618
  0
LINE
  8
0
 10
-28.711
 11
-28.519
 20
1.618
 21
1.438
  0
LINE
  8
0
 10
-28.519
 11
-28.351
 20
1.438
 21
1.234
  0
LINE
  8
0
 10
-28.351
 11
-28.21
 20
1.234
 21
1.012
  0
LINE
  8
0
 10
-28.21
 11
-28.097
 20
1.012
 21
0.773
  0
LINE
  8
0
 10
-28.097
 11
-28.016
 20
0.773
 21
0.522
  0
LINE
  8
0
 10
-28.016
 11
-27.967
 20
0.522
 21
0.263
  0
LINE
  8
0
 10
-27.967
 11
-27.95
 20
0.263
 21
0
  0
LINE
  8
0
 10
-27.95
 11
-27.967
 20
0
 21
-0.263
  0
LINE
  8
0
 10
-27.967
 11
-28.016
 20
-0.263
 21
-0.522
  0
LINE
  8
0
 10
-28.016
 11
-28.097
 20
-0.522
 21
-0.773
  0
LINE
  8
0
 10
-28.097
 11
-28.21
 20
-0.773
 21
-1.012
  0
LINE
  8
0
 10
-28.21
 11
-28.351
 20
-1.012
 21
-1.234
  0
LINE
  8
0
 10
-28.351
 11
-28.519
 20
-1.234
 21
-1.438
  0
LINE
  8
0
 10
-28.519
 11
-28.711
 20
-1.438
 21
-1.618
  0
LINE
  8
0
 10
-28.711
 11
-28.925
 20
-1.618
 21
-1.773
  0
LINE
  8
0
 10
-28.925
 11
-29.156
 20
-1.773
 21
-1.9
  0
LINE
  8
0
 10
-29.156
 11
-29.401
 20
-1.9
 21
-1.997
  0
LINE
  8
0
 10
-29.401
 11
-29.656
 20
-1.997
 21
-2.063
  0
LINE
  8
0
 10
-29.656
 11
-29.918
 20
-2.063
 21
-2.096
  0
LINE
  8
0
 10
-29.918
 11
-30.182
 20
-2.096
 21
-2.096
  0
LINE
  8
0
 10
-30.182
 11
-30.444
 20
-2.096
 21
-2.063
  0
LINE
  8
0
 10
-30.444
 11
-30.699
 20
-2.063
 21
-1.997
  0
LINE
  8
0
 10
-30.699
 11
-30.944
 20
-1.997
 21
-1.9
  0
LINE
  8
0
 10
-30.944
 11
-31.175
 20
-1.9
 21
-1.773
  0
LINE
  8
0
 10
-31.175
 11
-31.389
 20
-1.773
 21
-1.618
  0
LINE
  8
0
 10
-31.389
 11
-31.581
 20
-1.618
 21
-1.438
  0
LINE
  8
0
 10
-31.581
 11
-31.749
 20
-1.438
 21
-1.234
  0
LINE
  8
0
 10
-31.749
 11
-31.89
 20
-1.234
 21
-1.012
  0
LINE
  8
0
 10
-31.89
 11
-32.003
 20
-1.012
 21
-0.773
  0
LINE
  8
0
 10
-32.003
 11
-32.084
 20
-0.773
 21
-0.522
  0
LINE
  8
0
 10
-32.084
 11
-32.133
 20
-0.522
 21
-0.263
  0
LINE
  8
0
 10
-32.133
 11
-32.15
 20
-0.263
 21
0
  0
LINE
  8
0
 10
-32.15
 11
-32.133
 20
36
 21
36.263
  0
LINE
  8
0
 10
-32.133
 11
-32.084
 20
36.263
 21
36.522
  0
LINE
  8
0
 10
-32.084
 11
-32.003
 20
36.522
 21
36.773
  0
LINE
  8
0
 10
-32.003
 11
-31.89
 20
36.773
 21
37.012
  0
LINE
  8
0
 10
-31.89
 11
-31.749
 20
37.012
 21
37.234
  0
LINE
  8
0
 10
-31.749
 11
-31.581
 20
37.234
 21
37.438
  0
LINE
  8
0
 10
-31.581
 11
-31.389
 20
37.438
 21
37.618
  0
LINE
  8
0
 10
-31.389
 11
-31.175
 20
37.618
 21
37.773
  0
LINE
  8
0
 10
-31.175
 11
-30.944
 20
37.773
 21
37.9
  0
LINE
  8
0
 10
-30.944
 11
-30.699
 20
37.9
 21
37.997
  0
LINE
  8
0
 10
-30.699
 11
-30.444
 20
37.997
 21
38.063
  0
LINE
  8
0
 10
-30.444
 11
-30.182
 20
38.063
 21
38.096
  0
LINE
  8
0
 10
-30.182
 11
-29.918
 20
38.096
 21
38.096
  0
LINE
  8
0
 10
-29.918
 11
-29.656
 20
38.096
 21
38.063
  0
LINE
  8
0
 10
-29.656
 11
-29.401
 20
38.063
 21
37.997
  0
LINE
  8
0
 10
-29.401
 11
-29.156
 20
37.997
 21
37.9
  0
LINE
  8
0
 10
-29.156
 11
-28.925
 20
37.9
 21
37.773
  0
LINE
  8
0
 10
-28.925
 11
-28.711
 20
37.773
 21
37.618
  0
LINE
  8
0
 10
-28.711
 11
-28.519
 20
37.618
 21
37.438
  0
LINE
  8
0
 10
-28.519
 11
-28.351
 20
37.438
 21
37.234
  0
LINE
  8
0
 10
-28.351
 11
-28.21
 20
37.234
 21
37.012
  0
LINE
  8
0
 10
-28.21
 11
-28.097
 20
37.012
 21
36.773
  0
LINE
  8
0
 10
-28.097
 11
-28.016
 20
36.773
 21
36.522
  0
LINE
  8
0
 10
-28.016
 11
-27.967
 20
36.522
 21
36.263
  0
LINE
  8
0
 10
-27.967
 11
-27.95
 20
36.263
 21
36
  0
LINE
  8
0
 10
-27.95
 11
-27.967
 20
36
 21
35.737
  0
LINE
  8
0
 10
-27.967
 11
-28.016
 20
35.737
 21
35.478
  0
LINE
  8
0
 10
-28.016
 11
-28.097
 20
35.478
 21
35.227
  0
LINE
  8
0
 10
-28.097
 11
-28.21
 20
35.227
 21
34.988
  0
LINE
  8
0
 10
-28.21
 11
-28.351
 20
34.988
 21
34.766
  0
LINE
  8
0
 10
-28.351
 11
-28.519
 20
34.766
 21
34.562
  0
LINE
  8
0
 10
-28.519
 11
-28.711
 20
34.562
 21
34.382
  0
LINE
  8
0
 10
-28.711
 11
-28.925
 20
34.382
 21
34.227
  0
LINE
  8
0
 10
-28.925
 11
-29.156
 20
34.227
 21
34.1
  0
LINE
  8
0
 10
-29.156
 11
-29.401
 20
34.1
 21
34.003
  0
LINE
  8
0
 10
-29.401
 11
-29.656
 20
34.003
 21
33.937
  0
LINE
  8
0
 10
-29.656
 11
-29.918
 20
33.937
 21
33.904
  0
LINE
  8
0
 10
-29.918
 11
-30.182
 20
33.904
 21
33.904
  0
LINE
  8
0
 10
-30.182
 11
-30.444
 20
33.904
 21
33.937
  0
LINE
  8
0
 10
-30.444
 11
-30.699
 20
33.937
 21
34.003
  0
LINE
  8
0
 10
-30.699
 11
-30.944
 20
34.003
 21
34.1
  0
LINE
  8
0
 10
-30.944
 11
-31.175
 20
34.1
 21
34.227
  0
LINE
  8
0
 10
-31.175
 11
-31.389
 20
34.227
 21
34.382
  0
LINE
  8
0
 10
-31.389
 11
-31.581
 20
34.382
 21
34.562
  0
LINE
  8
0
 10
-31.581
 11
-31.749
 20
34.562
 21
34.766
  0
LINE
  8
0
 10
-31.749
 11
-31.89
 20
34.766
 21
34.988
  0
LINE
  8
0
 10
-31.89
 11
-32.003
 20
34.988
 21
35.227
  0
LINE
  8
0
 10
-32.003
 11
-32.084
 20
35.227
 21
35.478
  0
LINE
  8
0
 10
-32.084
 11
-32.133
 20
35.478
 21
35.737
  0
LINE
  8
0
 10
-32.133
 11
-32.15
 20
35.737
 21
36
  0
LINE
  8
0
 10
-18.625
 11
-18.625
 20
-40.19
 21
-13.14
  0
LINE
  8
0
 10
-18.625
 11
18.625
 20
-13.14
 21
-13.14
  0
LINE
  8
0
 10
18.625
 11
18.625
 20
-13.14
 21
-40.19
  0
LINE
  8
0
 10
18.625
 11
-18.625
 20
-40.19
 21
-40.19
  0
LINE
  8
0
 10
25.65
 11
25.685
 20
-12
 21
-11.449
  0
LINE
  8
0
 10
25.685
 11
25.788
 20
-11.449
 21
-10.906
  0
LINE
  8
0
 10
25.788
 11
25.959
 20
-10.906
 21
-10.38
  0
LINE
  8
0
 10
25.959
 11
26.194
 20
-10.38
 21
-9.88
  0
LINE
  8
0
 10
26.194
 11
26.49
 20
-9.88
 21
-9.414
  0
LINE
  8
0
 10
26.49
 11
26.843
 20
-9.414
 21
-8.988
  0
LINE
  8
0
 10
26.843
 11
27.245
 20
-8.988
 21
-8.61
  0
LINE
  8
0
 10
27.245
 11
27.692
 20
-8.61
 21
-8.285
  0
LINE
  8
0
 10
27.692
 11
28.177
 20
-8.285
 21
-8.019
  0
LINE
  8
0
 10
28.177
 11
28.69
 20
-8.019
 21
-7.815
  0
LINE
  8
0
 10
28.69
 11
29.226
 20
-7.815
 21
-7.678
  0
LINE
  8
0
 10
29.226
 11
29.774
 20
-7.678
 21
-7.609
  0
LINE
  8
0
 10
29.774
 11
30.326
 20
-7.609
 21
-7.609
  0
LINE
  8
0
 10
30.326
 11
30.874
 20
-7.609
 21
-7.678
  0
LINE
  8
0
 10
30.874
 11
31.41
 20
-7.678
 21
-7.815
  0
LINE
  8
0
 10
31.41
 11
31.923
 20
-7.815
 21
-8.019
  0
LINE
  8
0
 10
31.923
 11
32.408
 20
-8.019
 21
-8.285
  0
LINE
  8
0
 10
32.408
 11
32.855
 20
-8.285
 21
-8.61
  0
LINE
  8
0
 10
32.855
 11
33.257
 20
-8.61
 21
-8.988
  0
LINE
  8
0
 10
33.257
 11
33.61
 20
-8.988
 21
-9.414
  0
LINE
  8
0
 10
33.61
 11
33.906
 20
-9.414
 21
-9.88
  0
LINE
  8
0
 10
33.906
 11
34.141
 20
-9.88
 21
-10.38
  0
LINE
  8
0
 10
34.141
 11
34.312
 20
-10.38
 21
-10.906
  0
LINE
  8
0
 10
34.312
 11
34.415
 20
-10.906
 21
-11.449
  0
LINE
  8
0
 10
34.415
 11
34.45
 20
-11.449
 21
-12
  0
LINE
  8
0
 10
34.45
 11
34.415
 20
-12
 21
-12.551
  0
LINE
  8
0
 10
34.415
 11
34.312
 20
-12.551
 21
-13.094
  0
LINE
  8
0
 10
34.312
 11
34.141
 20
-13.094
 21
-13.62
  0
LINE
  8
0
 10
34.141
 11
33.906
 20
-13.62
 21
-14.12
  0
LINE
  8
0
 10
33.906
 11
33.61
 20
-14.12
 21
-14.586
  0
LINE
  8
0
 10
33.61
 11
33.257
 20
-14.586
 21
-15.012
  0
LINE
  8
0
 10
33.257
 11
32.855
 20
-15.012
 21
-15.39
  0
LINE
  8
0
 10
32.855
 11
32.408
 20
-15.39
 21
-15.715
  0
LINE
  8
0
 10
32.408
 11
31.923
 20
-15.715
 21
-15.981
  0
LINE
  8
0
 10
31.923
 11
31.41
 20
-15.981
 21
-16.185
  0
LINE
  8
0
 10
31.41
 11
30.874
 20
-16.185
 21
-16.322
  0
LINE
  8
0
 10
30.874
 11
30.326
 20
-16.322
 21
-16.391
  0
LINE
  8
0
 10
30.326
 11
29.774
 20
-16.391
 21
-16.391
  0
LINE
  8
0
 10
29.774
 11
29.226
 20
-16.391
 21
-16.322
  0
LINE
  8
0
 10
29.226
 11
28.69
 20
-16.322
 21
-16.185
  0
LINE
  8
0
 10
28.69
 11
28.177
 20
-16.185
 21
-15.981
  0
LINE
  8
0
 10
28.177
 11
27.692
 20
-15.981
 21
-15.715
  0
LINE
  8
0
 10
27.692
 11
27.245
 20
-15.715
 21
-15.39
  0
LINE
  8
0
 10
27.245
 11
26.843
 20
-15.39
 21
-15.012
  0
LINE
  8
0
 10
26.843
 11
26.49
 20
-15.012
 21
-14.586
  0
LINE
  8
0
 10
26.49
 11
26.194
 20
-14.586
 21
-14.12
  0
LINE
  8
0
 10
26.194
 11
25.959
 20
-14.12
 21
-13.62
  0
LINE
  8
0
 10
25.959
 11
25.788
 20
-13.62
 21
-13.094
  0
LINE
  8
0
 10
25.788
 11
25.685
 20
-13.094
 21
-12.551
  0
LINE
  8
0
 10
25.685
 11
25.65
 20
-12.551
 21
-12
  0
LINE
  8
0
 10
27.95
 11
27.967
 20
0
 21
0.263
  0
LINE
  8
0
 10
27.967
 11
28.016
 20
0.263
 21
0.522
  0
LINE
  8
0
 10
28.016
 11
28.097
 20
0.522
 21
0.773
  0
LINE
  8
0
 10
28.097
 11
28.21
 20
0.773
 21
1.012
  0
LINE
  8
0
 10
28.21
 11
28.351
 20
1.012
 21
1.234
  0
LINE
  8
0
 10
28.351
 11
28.519
 20
1.234
 21
1.438
  0
LINE
  8
0
 10
28.519
 11
28.711
 20
1.438
 21
1.618
  0
LINE
  8
0
 10
28.711
 11
28.925
 20
1.618
 21
1.773
  0
LINE
  8
0
 10
28.925
 11
29.156
 20
1.773
 21
1.9
  0
LINE
  8
0
 10
29.156
 11
29.401
 20
1.9
 21
1.997
  0
LINE
  8
0
 10
29.401
 11
29.656
 20
1.997
 21
2.063
  0
LINE
  8
0
 10
29.656
 11
29.918
 20
2.063
 21
2.096
  0
LINE
  8
0
 10
29.918
 11
30.182
 20
2.096
 21
2.096
  0
LINE
  8
0
 10
30.182
 11
30.444
 20
2.096
 21
2.063
  0
LINE
  8
0
 10
30.444
 11
30.699
 20
2.063
 21
1.997
  0
LINE
  8
0
 10
30.699
 11
30.944
 20
1.997
 21
1.9
  0
LINE
  8
0
 10
30.944
 11
31.175
 20
1.9
 21
1.773
  0
LINE
  8
0
 10
31.175
 11
31.389
 20
1.773
 21
1.618
  0
LINE
  8
0
 10
31.389
 11
31.581
 20
1.618
 21
1.438
  0
LINE
  8
0
 10
31.581
 11
31.749
 20
1.438
 21
1.234
  0
LINE
  8
0
 10
31.749
 11
31.89
 20
1.234
 21
1.012
  0
LINE
  8
0
 10
31.89
 11
32.003
 20
1.012
 21
0.773
  0
LINE
  8
0
 10
32.003
 11
32.084
 20
0.773
 21
0.522
  0
LINE
  8
0
 10
32.084
 11
32.133
 20
0.522
 21
0.263
  0
LINE
  8
0
 10
32.133
 11
32.15
 20
0.263
 21
0
  0
LINE
  8
0
 10
32.15
 11
32.133
 20
0
 21
-0.263
  0
LINE
  8
0
 10
32.133
 11
32.084
 20
-0.263
 21
-0.522
  0
LINE
  8
0
 10
32.084
 11
32.003
 20
-0.522
 21
-0.773
  0
LINE
  8
0
 10
32.003
 11
31.89
 20
-0.773
 21
-1.012
  0
LINE
  8
0
 10
31.89
 11
31.749
 20
-1.012
 21
-1.234
  0
LINE
  8
0
 10
31.749
 11
31.581
 20
-1.234
 21
-1.438
  0
LINE
  8
0
 10
31.581
 11
31.389
 20
-1.438
 21
-1.618
  0
LINE
  8
0
 10
31.389
 11
31.175
 20
-1.618
 21
-1.773
  0
LINE
  8
0
 10
31.175
 11
30.944
 20
-1.773
 21
-1.9
  0
LINE
  8
0
 10
30.944
 11
30.699
 20
-1.9
 21
-1.997
  0
LINE
  8
0
 10
30.699
 11
30.444
 20
-1.997
 21
-2.063
  0
LINE
  8
0
 10
30.444
 11
30.182
 20
-2.063
 21
-2.096
  0
LINE
  8
0
 10
30.182
 11
29.918
 20
-2.096
 21
-2.096
  0
LINE
  8
0
 10
29.918
 11
29.656
 20
-2.096
 21
-2.063
  0
LINE
  8
0
 10
29.656
 11
29.401
 20
-2.063
 21
-1.997
  0
LINE
  8
0
 10
29.401
 11
29.156
 20
-1.997
 21
-1.9
  0
LINE
  8
0
 10
29.156
 11
28.925
 20
-1.9
 21
-1.773
  0
LINE
  8
0
 10
28.925
 11
28.711
 20
-1.773
 21
-1.618
  0
LINE
  8
0
 10
28.711
 11
28.519
 20
-1.618
 21
-1.438
  0
LINE
  8
0
 10
28.519
 11
28.351
 20
-1.438
 21
-1.234
  0
LINE
  8
0
 10
28.351
 11
28.21
 20
-1.234
 21
-1.012
  0
LINE
  8
0
 10
28.21
 11
28.097
 20
-1.012
 21
-0.773
  0
LINE
  8
0
 10
28.097
 11
28.016
 20
-0.773
 21
-0.522
  0
LINE
  8
0
 10
28.016
 11
27.967
 20
-0.522
 21
-0.263
  0
LINE
  8
0
 10
27.967
 11
27.95
 20
-0.263
 21
0
  0
LINE
  8
0
 10
27.95
 11
27.967
 20
36
 21
36.263
  0
LINE
  8
0
 10
27.967
 11
28.016
 20
36.263
 21
36.522
  0
LINE
  8
0
 10
28.016
 11
28.097
 20
36.522
 21
36.773
  0
LINE
  8
0
 10
28.097
 11
28.21
 20
36.773
 21
37.012
  0
LINE
  8
0
 10
28.21
 11
28.351
 20
37.012
 21
37.234
  0
LINE
  8
0
 10
28.351
 11
28.519
 20
37.234
 21
37.438
  0
LINE
  8
0
 10
28.519
 11
28.711
 20
37.438
 21
37.618
  0
LINE
  8
0
 10
28.711
 11
28.925
 20
37.618
 21
37.773
  0
LINE
  8
0
 10
28.925
 11
29.156
 20
37.773
 21
37.9
  0
LINE
  8
0
 10
29.156
 11
29.401
 20
37.9
 21
37.997
  0
LINE
  8
0
 10
29.401
 11
29.656
 20
37.997
 21
38.063
  0
LINE
  8
0
 10
29.656
 11
29.918
 20
38.063
 21
38.096
  0
LINE
  8
0
 10
29.918
 11
30.182
 20
38.096
 21
38.096
  0
LINE
  8
0
 10
30.182
 11
30.444
 20
38.096
 21
38.063
  0
LINE
  8
0
 10
30.444
 11
30.699
 20
38.063
 21
37.997
  0
LINE
  8
0
 10
30.699
 11
30.944
 20
37.997
 21
37.9
  0
LINE
  8
0
 10
30.944
 11
31.175
 20
37.9
 21
37.773
  0
LINE
  8
0
 10
31.175
 11
31.389
 20
37.773
 21
37.618
  0
LINE
  8
0
 10
31.389
 11
31.581
 20
37.618
 21
37.438
  0
LINE
  8
0
 10
31.581
 11
31.749
 20
37.438
 21
37.234
  0
LINE
  8
0
 10
31.749
 11
31.89
 20
37.234
 21
37.012
  0
LINE
  8
0
 10
31.89
 11
32.003
 20
37.012
 21
36.773
  0
LINE
  8
0
 10
32.003
 11
32.084
 20
36.773
 21
36.522
  0
LINE
  8
0
 10
32.084
 11
32.133
 20
36.522
 21
36.263
  0
LINE
  8
0
 10
32.133
 11
32.15
 20
36.263
 21
36
  0
LINE
  8
0
 10
32.15
 11
32.133
 20
36
 21
35.737
  0
LINE
  8
0
 10
32.133
 11
32.084
 20
35.737
 21
35.478
  0
LINE
  8
0
 10
32.084
 11
32.003
 20
35.478
 21
35.227
  0
LINE
  8
0
 10
32.003
 11
31.89
 20
35.227
 21
34.988
  0
LINE
  8
0
 10
31.89
 11
31.749
 20
34.988
 21
34.766
  0
LINE
  8
0
 10
31.749
 11
31.581
 20
34.766
 21
34.562
  0
LINE
  8
0
 10
31.581
 11
31.389
 20
34.562
 21
34.382
  0
LINE
  8
0
 10
31.389
 11
31.175
 20
34.382
 21
34.227
  0
LINE
  8
0
 10
31.175
 11
30.944
 20
34.227
 21
34.1
  0
LINE
  8
0
 10
30.944
 11
30.699
 20
34.1
 21
34.003
  0
LINE
  8
0
 10
30.699
 11
30.444
 20
34.003
 21
33.937
  0
LINE
  8
0
 10
30.444
 11
30.182
 20
33.937
 21
33.904
  0
LINE
  8
0
 10
30.182
 11
29.918
 20
33.904
 21
33.904
  0
LINE
  8
0
 10
29.918
 11
29.656
 20
33.904
 21
33.937
  0
LINE
  8
0
 10
29.656
 11
29.401
 20
33.937
 21
34.003
  0
LINE
  8
0
 10
29.401
 11
29.156
 20
34.003
 21
34.1
  0
LINE
  8
0
 10
29.156
 11
28.925
 20
34.1
 21
34.227
  0
LINE
  8
0
 10
28.925
 11
28.711
 20
34.227
 21
34.382
  0
LINE
  8
0
 10
28.711
 11
28.519
 20
34.382
 21
34.562
  0
LINE
  8
0
 10
28.519
 11
28.351
 20
34.562
 21
34.766
  0
LINE
  8
0
 10
28.351
 11
28.21
 20
34.766
 21
34.988
  0
LINE
  8
0
 10
28.21
 11
28.097
 20
34.988
 21
35.227
  0
LINE
  8
0
 10
28.097
 11
28.016
 20
35.227
 21
35.478
  0
LINE
  8
0
 10
28.016
 11
27.967
 20
35.478
 21
35.737
  0
LINE
  8
0
 10
27.967
 11
27.95
 20
35.737
 21
36
  0
ENDSEC
  0
SECTION
  2
OBJECTS
  0
DICTIONARY
  0
ENDSEC
  0
EOF
