solid OpenSCAD_Model
  facet normal -1 0 0
    outer loop
      vertex 0 0 0
      vertex 0 0 1.75
      vertex 0 4.67273 0
    endloop
  endfacet
  facet normal -1 0 0
    outer loop
      vertex 0 4.67273 0
      vertex 0 0 1.75
      vertex 0 4.67273 1.75
    endloop
  endfacet
  facet normal 0 -1 0
    outer loop
      vertex 0 0 1.75
      vertex 0 0 0
      vertex 17.88 0 0
    endloop
  endfacet
  facet normal 0 -1 0
    outer loop
      vertex 17.88 0 1.75
      vertex 0 0 1.75
      vertex 17.88 0 0
    endloop
  endfacet
  facet normal 0 0 -1
    outer loop
      vertex 0 0 0
      vertex 0 4.67273 0
      vertex 17.88 0 0
    endloop
  endfacet
  facet normal 0 0 -1
    outer loop
      vertex 17.88 0 0
      vertex 0 4.67273 0
      vertex 15.092 4.67273 0
    endloop
  endfacet
  facet normal 0 0 -1
    outer loop
      vertex 17.88 0 0
      vertex 15.092 4.67273 0
      vertex 15.092 7.00909 0
    endloop
  endfacet
  facet normal 0 0 -1
    outer loop
      vertex 15.092 7.00909 0
      vertex 0 7.00909 0
      vertex 0 11.6818 0
    endloop
  endfacet
  facet normal 0 0 -1
    outer loop
      vertex 15.092 7.00909 0
      vertex 0 11.6818 0
      vertex 15.092 11.6818 0
    endloop
  endfacet
  facet normal 0 0 -1
    outer loop
      vertex 15.092 7.00909 0
      vertex 15.092 11.6818 0
      vertex 17.88 0 0
    endloop
  endfacet
  facet normal 0 0 -1
    outer loop
      vertex 15.092 11.6818 0
      vertex 15.092 14.0182 0
      vertex 17.88 0 0
    endloop
  endfacet
  facet normal 0 0 -1
    outer loop
      vertex 15.092 14.0182 0
      vertex 0 14.0182 0
      vertex 0 18.6909 0
    endloop
  endfacet
  facet normal 0 0 -1
    outer loop
      vertex 15.092 14.0182 0
      vertex 0 18.6909 0
      vertex 15.092 18.6909 0
    endloop
  endfacet
  facet normal 0 0 -1
    outer loop
      vertex 15.092 14.0182 0
      vertex 15.092 18.6909 0
      vertex 17.88 0 0
    endloop
  endfacet
  facet normal 0 0 -1
    outer loop
      vertex 15.092 18.6909 0
      vertex 15.092 21.0273 0
      vertex 17.88 0 0
    endloop
  endfacet
  facet normal 0 0 -1
    outer loop
      vertex 15.092 21.0273 0
      vertex 0 21.0273 0
      vertex 0 25.7 0
    endloop
  endfacet
  facet normal 0 0 -1
    outer loop
      vertex 15.092 21.0273 0
      vertex 0 25.7 0
      vertex 17.88 25.7 0
    endloop
  endfacet
  facet normal 0 0 -1
    outer loop
      vertex 15.092 21.0273 0
      vertex 17.88 25.7 0
      vertex 17.88 0 0
    endloop
  endfacet
  facet normal 0 1 0
    outer loop
      vertex 15.092 4.67273 1.75
      vertex 15.092 4.67273 0
      vertex 0 4.67273 1.75
    endloop
  endfacet
  facet normal 0 1 0
    outer loop
      vertex 0 4.67273 1.75
      vertex 15.092 4.67273 0
      vertex 0 4.67273 0
    endloop
  endfacet
  facet normal 0 0 1
    outer loop
      vertex 0 4.67273 1.75
      vertex 0 0 1.75
      vertex 17.88 0 1.75
    endloop
  endfacet
  facet normal 0 0 1
    outer loop
      vertex 15.092 4.67273 1.75
      vertex 0 4.67273 1.75
      vertex 17.88 0 1.75
    endloop
  endfacet
  facet normal 0 0 1
    outer loop
      vertex 17.88 25.7 1.75
      vertex 17.4467 16.9631 1.75
      vertex 17.88 16.9631 1.75
    endloop
  endfacet
  facet normal 0 0 1
    outer loop
      vertex 15.092 11.6818 1.75
      vertex 0 11.6818 1.75
      vertex 0 7.00909 1.75
    endloop
  endfacet
  facet normal 0 0 1
    outer loop
      vertex 0 25.7 1.75
      vertex 0 21.0273 1.75
      vertex 17.88 25.7 1.75
    endloop
  endfacet
  facet normal 0 0 1
    outer loop
      vertex 17.88 25.7 1.75
      vertex 15.092 21.0273 1.75
      vertex 17.4467 16.9631 1.75
    endloop
  endfacet
  facet normal 0 0 1
    outer loop
      vertex 15.092 21.0273 1.75
      vertex 15.092 18.6909 1.75
      vertex 17.4467 16.9631 1.75
    endloop
  endfacet
  facet normal 0 0 1
    outer loop
      vertex 0 14.0182 1.75
      vertex 15.092 14.0182 1.75
      vertex 17.4467 16.9631 1.75
    endloop
  endfacet
  facet normal 0 0 1
    outer loop
      vertex 15.092 18.6909 1.75
      vertex 0 18.6909 1.75
      vertex 0 14.0182 1.75
    endloop
  endfacet
  facet normal 0 0 1
    outer loop
      vertex 17.4467 16.9631 1.75
      vertex 15.092 14.0182 1.75
      vertex 17.4467 11.8881 1.75
    endloop
  endfacet
  facet normal 0 0 1
    outer loop
      vertex 15.092 14.0182 1.75
      vertex 15.092 11.6818 1.75
      vertex 17.4467 11.8881 1.75
    endloop
  endfacet
  facet normal 0 0 1
    outer loop
      vertex 0 7.00909 1.75
      vertex 17.88 11.8881 1.75
      vertex 17.4467 11.8881 1.75
    endloop
  endfacet
  facet normal 0 0 1
    outer loop
      vertex 0 7.00909 1.75
      vertex 15.092 7.00909 1.75
      vertex 17.88 11.8881 1.75
    endloop
  endfacet
  facet normal 0 0 1
    outer loop
      vertex 17.88 11.8881 1.75
      vertex 15.092 7.00909 1.75
      vertex 17.88 0 1.75
    endloop
  endfacet
  facet normal 0 0 1
    outer loop
      vertex 15.092 7.00909 1.75
      vertex 15.092 4.67273 1.75
      vertex 17.88 0 1.75
    endloop
  endfacet
  facet normal 0 0 1
    outer loop
      vertex 0 14.0182 1.75
      vertex 17.4467 16.9631 1.75
      vertex 15.092 18.6909 1.75
    endloop
  endfacet
  facet normal 0 0 1
    outer loop
      vertex 0 7.00909 1.75
      vertex 17.4467 11.8881 1.75
      vertex 15.092 11.6818 1.75
    endloop
  endfacet
  facet normal 0 0 1
    outer loop
      vertex 0 21.0273 1.75
      vertex 15.092 21.0273 1.75
      vertex 17.88 25.7 1.75
    endloop
  endfacet
  facet normal 1 0 0
    outer loop
      vertex 17.88 11.8881 0.64
      vertex 17.88 0 0
      vertex 17.88 25.7 0
    endloop
  endfacet
  facet normal 1 0 0
    outer loop
      vertex 17.88 11.8881 0.64
      vertex 17.88 11.8881 1.75
      vertex 17.88 0 1.75
    endloop
  endfacet
  facet normal 1 0 0
    outer loop
      vertex 17.88 25.7 1.75
      vertex 17.88 16.9631 1.75
      vertex 17.88 25.7 0
    endloop
  endfacet
  facet normal 1 0 0
    outer loop
      vertex 17.88 16.9631 1.75
      vertex 17.88 16.9631 0.64
      vertex 17.88 25.7 0
    endloop
  endfacet
  facet normal 1 0 0
    outer loop
      vertex 17.88 0 1.75
      vertex 17.88 0 0
      vertex 17.88 11.8881 0.64
    endloop
  endfacet
  facet normal 1 0 0
    outer loop
      vertex 17.88 16.9631 0.64
      vertex 17.88 11.8881 0.64
      vertex 17.88 25.7 0
    endloop
  endfacet
  facet normal 0 1 0
    outer loop
      vertex 0 25.7 0
      vertex 0 25.7 1.75
      vertex 17.88 25.7 0
    endloop
  endfacet
  facet normal 0 1 0
    outer loop
      vertex 17.88 25.7 0
      vertex 0 25.7 1.75
      vertex 17.88 25.7 1.75
    endloop
  endfacet
  facet normal -1 0 0
    outer loop
      vertex 0 21.0273 0
      vertex 0 21.0273 1.75
      vertex 0 25.7 0
    endloop
  endfacet
  facet normal -1 0 0
    outer loop
      vertex 0 25.7 0
      vertex 0 21.0273 1.75
      vertex 0 25.7 1.75
    endloop
  endfacet
  facet normal 0 -1 0
    outer loop
      vertex 15.092 21.0273 0
      vertex 15.092 21.0273 1.75
      vertex 0 21.0273 1.75
    endloop
  endfacet
  facet normal 0 -1 0
    outer loop
      vertex 0 21.0273 0
      vertex 15.092 21.0273 0
      vertex 0 21.0273 1.75
    endloop
  endfacet
  facet normal -1 0 0
    outer loop
      vertex 15.092 21.0273 1.75
      vertex 15.092 21.0273 0
      vertex 15.092 18.6909 1.75
    endloop
  endfacet
  facet normal -1 0 0
    outer loop
      vertex 15.092 18.6909 1.75
      vertex 15.092 21.0273 0
      vertex 15.092 18.6909 0
    endloop
  endfacet
  facet normal 0 1 0
    outer loop
      vertex 15.092 18.6909 1.75
      vertex 15.092 18.6909 0
      vertex 0 18.6909 1.75
    endloop
  endfacet
  facet normal 0 1 0
    outer loop
      vertex 0 18.6909 1.75
      vertex 15.092 18.6909 0
      vertex 0 18.6909 0
    endloop
  endfacet
  facet normal -1 0 0
    outer loop
      vertex 0 14.0182 0
      vertex 0 14.0182 1.75
      vertex 0 18.6909 0
    endloop
  endfacet
  facet normal -1 0 0
    outer loop
      vertex 0 18.6909 0
      vertex 0 14.0182 1.75
      vertex 0 18.6909 1.75
    endloop
  endfacet
  facet normal 0 -1 0
    outer loop
      vertex 15.092 14.0182 0
      vertex 15.092 14.0182 1.75
      vertex 0 14.0182 1.75
    endloop
  endfacet
  facet normal 0 -1 0
    outer loop
      vertex 0 14.0182 0
      vertex 15.092 14.0182 0
      vertex 0 14.0182 1.75
    endloop
  endfacet
  facet normal -1 0 0
    outer loop
      vertex 15.092 14.0182 1.75
      vertex 15.092 14.0182 0
      vertex 15.092 11.6818 1.75
    endloop
  endfacet
  facet normal -1 0 0
    outer loop
      vertex 15.092 11.6818 1.75
      vertex 15.092 14.0182 0
      vertex 15.092 11.6818 0
    endloop
  endfacet
  facet normal 0 1 0
    outer loop
      vertex 15.092 11.6818 1.75
      vertex 15.092 11.6818 0
      vertex 0 11.6818 1.75
    endloop
  endfacet
  facet normal 0 1 0
    outer loop
      vertex 0 11.6818 1.75
      vertex 15.092 11.6818 0
      vertex 0 11.6818 0
    endloop
  endfacet
  facet normal -1 0 0
    outer loop
      vertex 0 7.00909 0
      vertex 0 7.00909 1.75
      vertex 0 11.6818 0
    endloop
  endfacet
  facet normal -1 0 0
    outer loop
      vertex 0 11.6818 0
      vertex 0 7.00909 1.75
      vertex 0 11.6818 1.75
    endloop
  endfacet
  facet normal 0 -1 0
    outer loop
      vertex 15.092 7.00909 0
      vertex 15.092 7.00909 1.75
      vertex 0 7.00909 1.75
    endloop
  endfacet
  facet normal 0 -1 0
    outer loop
      vertex 0 7.00909 0
      vertex 15.092 7.00909 0
      vertex 0 7.00909 1.75
    endloop
  endfacet
  facet normal -1 0 0
    outer loop
      vertex 15.092 7.00909 1.75
      vertex 15.092 7.00909 0
      vertex 15.092 4.67273 1.75
    endloop
  endfacet
  facet normal -1 0 0
    outer loop
      vertex 15.092 4.67273 1.75
      vertex 15.092 7.00909 0
      vertex 15.092 4.67273 0
    endloop
  endfacet
  facet normal 0 -1 -2.22045e-016
    outer loop
      vertex 17.4467 16.9631 0.64
      vertex 17.88 16.9631 0.64
      vertex 17.88 16.9631 1.75
    endloop
  endfacet
  facet normal 0 -1 -2.22045e-016
    outer loop
      vertex 17.4467 16.9631 1.75
      vertex 17.4467 16.9631 0.64
      vertex 17.88 16.9631 1.75
    endloop
  endfacet
  facet normal 1 0 0
    outer loop
      vertex 17.4467 11.8881 0.64
      vertex 17.4467 16.9631 0.64
      vertex 17.4467 16.9631 1.75
    endloop
  endfacet
  facet normal 1 0 0
    outer loop
      vertex 17.4467 11.8881 1.75
      vertex 17.4467 11.8881 0.64
      vertex 17.4467 16.9631 1.75
    endloop
  endfacet
  facet normal 0 1 2.22045e-016
    outer loop
      vertex 17.88 11.8881 0.64
      vertex 17.4467 11.8881 0.64
      vertex 17.88 11.8881 1.75
    endloop
  endfacet
  facet normal 0 1 2.22045e-016
    outer loop
      vertex 17.88 11.8881 1.75
      vertex 17.4467 11.8881 0.64
      vertex 17.4467 11.8881 1.75
    endloop
  endfacet
  facet normal 0 -2.22045e-016 1
    outer loop
      vertex 17.88 11.8881 0.64
      vertex 17.88 16.9631 0.64
      vertex 17.4467 16.9631 0.64
    endloop
  endfacet
  facet normal 0 -2.22045e-016 1
    outer loop
      vertex 17.4467 11.8881 0.64
      vertex 17.88 11.8881 0.64
      vertex 17.4467 16.9631 0.64
    endloop
  endfacet
  facet normal -1 0 0
    outer loop
      vertex 17.88 16.9631 0.64
      vertex 17.88 17.7083 0
      vertex 17.88 11.8881 0.64
    endloop
  endfacet
  facet normal -1 0 0
    outer loop
      vertex 17.88 10.7083 0
      vertex 17.88 10.7083 1.75
      vertex 17.88 11.8881 0.64
    endloop
  endfacet
  facet normal -1 0 0
    outer loop
      vertex 17.88 10.7083 0
      vertex 17.88 11.8881 0.64
      vertex 17.88 17.7083 0
    endloop
  endfacet
  facet normal -1 0 0
    outer loop
      vertex 17.88 17.7083 0
      vertex 17.88 16.9631 0.64
      vertex 17.88 16.9631 1.75
    endloop
  endfacet
  facet normal -1 0 0
    outer loop
      vertex 17.88 17.7083 0
      vertex 17.88 16.9631 1.75
      vertex 17.88 17.7083 1.75
    endloop
  endfacet
  facet normal -1 0 0
    outer loop
      vertex 17.88 11.8881 0.64
      vertex 17.88 10.7083 1.75
      vertex 17.88 11.8881 1.75
    endloop
  endfacet
  facet normal 0 -1 0
    outer loop
      vertex 17.88 10.7083 1.75
      vertex 17.88 10.7083 0
      vertex 20.5467 10.7083 0
    endloop
  endfacet
  facet normal 0 -1 0
    outer loop
      vertex 20.5467 10.7083 1.75
      vertex 17.88 10.7083 1.75
      vertex 20.5467 10.7083 0
    endloop
  endfacet
  facet normal 0 0 -1
    outer loop
      vertex 17.88 10.7083 0
      vertex 17.88 17.7083 0
      vertex 20.5467 10.7083 0
    endloop
  endfacet
  facet normal 0 0 -1
    outer loop
      vertex 20.5467 10.7083 0
      vertex 17.88 17.7083 0
      vertex 20.5467 17.7083 0
    endloop
  endfacet
  facet normal 0 1 0
    outer loop
      vertex 17.88 17.7083 0
      vertex 17.88 17.7083 1.75
      vertex 20.5467 17.7083 0
    endloop
  endfacet
  facet normal 0 1 0
    outer loop
      vertex 20.5467 17.7083 0
      vertex 17.88 17.7083 1.75
      vertex 20.5467 17.7083 1.75
    endloop
  endfacet
  facet normal 0 0 1
    outer loop
      vertex 17.88 17.7083 1.75
      vertex 17.88 16.9631 1.75
      vertex 20.5467 16.9631 1.75
    endloop
  endfacet
  facet normal 0 0 1
    outer loop
      vertex 20.5467 17.7083 1.75
      vertex 17.88 17.7083 1.75
      vertex 20.5467 16.9631 1.75
    endloop
  endfacet
  facet normal 0 -1 -2.22045e-016
    outer loop
      vertex 17.88 16.9631 0.64
      vertex 20.5467 16.9631 0.64
      vertex 20.5467 16.9631 1.75
    endloop
  endfacet
  facet normal 0 -1 -2.22045e-016
    outer loop
      vertex 17.88 16.9631 1.75
      vertex 17.88 16.9631 0.64
      vertex 20.5467 16.9631 1.75
    endloop
  endfacet
  facet normal 0 -2.22045e-016 1
    outer loop
      vertex 20.5467 11.8881 0.64
      vertex 20.5467 16.9631 0.64
      vertex 17.88 16.9631 0.64
    endloop
  endfacet
  facet normal 0 -2.22045e-016 1
    outer loop
      vertex 17.88 11.8881 0.64
      vertex 20.5467 11.8881 0.64
      vertex 17.88 16.9631 0.64
    endloop
  endfacet
  facet normal 0 1 2.22045e-016
    outer loop
      vertex 20.5467 11.8881 0.64
      vertex 17.88 11.8881 0.64
      vertex 20.5467 11.8881 1.75
    endloop
  endfacet
  facet normal 0 1 2.22045e-016
    outer loop
      vertex 20.5467 11.8881 1.75
      vertex 17.88 11.8881 0.64
      vertex 17.88 11.8881 1.75
    endloop
  endfacet
  facet normal 0 0 1
    outer loop
      vertex 17.88 11.8881 1.75
      vertex 17.88 10.7083 1.75
      vertex 20.5467 10.7083 1.75
    endloop
  endfacet
  facet normal 0 0 1
    outer loop
      vertex 20.5467 11.8881 1.75
      vertex 17.88 11.8881 1.75
      vertex 20.5467 10.7083 1.75
    endloop
  endfacet
  facet normal 1 0 0
    outer loop
      vertex 20.5467 11.8881 0.64
      vertex 20.5467 10.7083 0
      vertex 20.5467 17.7083 0
    endloop
  endfacet
  facet normal 1 0 0
    outer loop
      vertex 20.5467 11.8881 0.64
      vertex 20.5467 11.8881 1.75
      vertex 20.5467 10.7083 1.75
    endloop
  endfacet
  facet normal 1 0 0
    outer loop
      vertex 20.5467 17.7083 1.75
      vertex 20.5467 16.9631 1.75
      vertex 20.5467 17.7083 0
    endloop
  endfacet
  facet normal 1 0 0
    outer loop
      vertex 20.5467 16.9631 1.75
      vertex 20.5467 16.9631 0.64
      vertex 20.5467 17.7083 0
    endloop
  endfacet
  facet normal 1 0 0
    outer loop
      vertex 20.5467 10.7083 1.75
      vertex 20.5467 10.7083 0
      vertex 20.5467 11.8881 0.64
    endloop
  endfacet
  facet normal 1 0 0
    outer loop
      vertex 20.5467 16.9631 0.64
      vertex 20.5467 11.8881 0.64
      vertex 20.5467 17.7083 0
    endloop
  endfacet
  facet normal -1 0 0
    outer loop
      vertex 0.313333 28.35 0
      vertex 0.313333 28.35 4.375
      vertex 0.313333 37.35 0
    endloop
  endfacet
  facet normal -1 0 0
    outer loop
      vertex 0.313333 37.35 0
      vertex 0.313333 28.35 4.375
      vertex 0.313333 37.35 4.375
    endloop
  endfacet
  facet normal 0 -1 0
    outer loop
      vertex 0.313333 28.35 4.375
      vertex 0.313333 28.35 0
      vertex 1.88 28.35 0
    endloop
  endfacet
  facet normal 0 -1 0
    outer loop
      vertex 3.15381 28.35 0.015017
      vertex 0.313333 28.35 4.375
      vertex 1.88 28.35 1.17281
    endloop
  endfacet
  facet normal 0 -1 0
    outer loop
      vertex 1.88 28.35 1.17281
      vertex 0.313333 28.35 4.375
      vertex 1.88 28.35 0
    endloop
  endfacet
  facet normal 0 -1 0
    outer loop
      vertex 3.15381 28.35 0.015017
      vertex 1.88 28.35 1.17281
      vertex 1.97881 28.35 0.868705
    endloop
  endfacet
  facet normal 0 -1 0
    outer loop
      vertex 4.60619 28.35 0.015017
      vertex 0.313333 28.35 4.375
      vertex 3.15381 28.35 0.015017
    endloop
  endfacet
  facet normal 0 -1 0
    outer loop
      vertex 3.77098 28.35 1.76222
      vertex 0.313333 28.35 4.375
      vertex 4.60619 28.35 0.015017
    endloop
  endfacet
  facet normal 0 -1 0
    outer loop
      vertex 3.60185 28.35 2.55791
      vertex 3.77098 28.35 2.93779
      vertex 0.313333 28.35 4.375
    endloop
  endfacet
  facet normal 0 -1 0
    outer loop
      vertex 4.88902 28.35 1.39894
      vertex 4.47547 28.35 1.35548
      vertex 5.78119 28.35 0.868705
    endloop
  endfacet
  facet normal 0 -1 0
    outer loop
      vertex 5.49355 28.35 1.94326
      vertex 5.24913 28.35 1.60686
      vertex 6.06754 28.35 1.75
    endloop
  endfacet
  facet normal 0 -1 0
    outer loop
      vertex 4.08 28.35 3.21603
      vertex 0.313333 28.35 4.375
      vertex 3.77098 28.35 2.93779
    endloop
  endfacet
  facet normal 0 -1 0
    outer loop
      vertex 4.47547 28.35 3.34452
      vertex 0.313333 28.35 4.375
      vertex 4.08 28.35 3.21603
    endloop
  endfacet
  facet normal 0 -1 0
    outer loop
      vertex 4.88902 28.35 3.30106
      vertex 0.313333 28.35 4.375
      vertex 4.47547 28.35 3.34452
    endloop
  endfacet
  facet normal 0 -1 0
    outer loop
      vertex 11.8825 28.35 2.10686
      vertex 11.5224 28.35 1.89894
      vertex 14.7133 28.35 1.75
    endloop
  endfacet
  facet normal 0 -1 0
    outer loop
      vertex 11.1088 28.35 3.84452
      vertex 11.5224 28.35 3.80106
      vertex 14.7133 28.35 4.375
    endloop
  endfacet
  facet normal 0 -1 0
    outer loop
      vertex 10.4043 28.35 2.26222
      vertex 0.313333 28.35 4.375
      vertex 4.88902 28.35 3.30106
    endloop
  endfacet
  facet normal 0 -1 0
    outer loop
      vertex 5.58 28.35 2.35
      vertex 5.49355 28.35 1.94326
      vertex 6.06754 28.35 1.75
    endloop
  endfacet
  facet normal 0 -1 0
    outer loop
      vertex 5.24913 28.35 1.60686
      vertex 4.88902 28.35 1.39894
      vertex 5.78119 28.35 0.868705
    endloop
  endfacet
  facet normal 0 -1 0
    outer loop
      vertex 11.8825 28.35 3.59315
      vertex 12.1269 28.35 3.25674
      vertex 14.7133 28.35 4.375
    endloop
  endfacet
  facet normal 0 -1 0
    outer loop
      vertex 6.06754 28.35 1.75
      vertex 5.24913 28.35 1.60686
      vertex 5.78119 28.35 0.868705
    endloop
  endfacet
  facet normal 0 -1 0
    outer loop
      vertex 4.08 28.35 1.48398
      vertex 3.77098 28.35 1.76222
      vertex 4.60619 28.35 0.015017
    endloop
  endfacet
  facet normal 0 -1 0
    outer loop
      vertex 5.78119 28.35 0.868705
      vertex 4.47547 28.35 1.35548
      vertex 4.60619 28.35 0.015017
    endloop
  endfacet
  facet normal 0 -1 0
    outer loop
      vertex 4.47547 28.35 1.35548
      vertex 4.08 28.35 1.48398
      vertex 4.60619 28.35 0.015017
    endloop
  endfacet
  facet normal 0 -1 0
    outer loop
      vertex 10.7133 28.35 1.98398
      vertex 5.49355 28.35 2.75674
      vertex 5.58 28.35 2.35
    endloop
  endfacet
  facet normal 0 -1 0
    outer loop
      vertex 3.60185 28.35 2.14209
      vertex 0.313333 28.35 4.375
      vertex 3.77098 28.35 1.76222
    endloop
  endfacet
  facet normal 0 -1 0
    outer loop
      vertex 10.2352 28.35 3.05791
      vertex 0.313333 28.35 4.375
      vertex 10.2352 28.35 2.64209
    endloop
  endfacet
  facet normal 0 -1 0
    outer loop
      vertex 12.1269 28.35 2.44326
      vertex 11.8825 28.35 2.10686
      vertex 14.7133 28.35 1.75
    endloop
  endfacet
  facet normal 0 -1 0
    outer loop
      vertex 10.4043 28.35 3.43779
      vertex 0.313333 28.35 4.375
      vertex 10.2352 28.35 3.05791
    endloop
  endfacet
  facet normal 0 -1 0
    outer loop
      vertex 10.7133 28.35 3.71603
      vertex 0.313333 28.35 4.375
      vertex 10.4043 28.35 3.43779
    endloop
  endfacet
  facet normal 0 -1 0
    outer loop
      vertex 11.1088 28.35 3.84452
      vertex 0.313333 28.35 4.375
      vertex 10.7133 28.35 3.71603
    endloop
  endfacet
  facet normal 0 -1 0
    outer loop
      vertex 11.5224 28.35 3.80106
      vertex 11.8825 28.35 3.59315
      vertex 14.7133 28.35 4.375
    endloop
  endfacet
  facet normal 0 -1 0
    outer loop
      vertex 14.7133 28.35 4.375
      vertex 0.313333 28.35 4.375
      vertex 11.1088 28.35 3.84452
    endloop
  endfacet
  facet normal 0 -1 0
    outer loop
      vertex 14.7133 28.35 4.375
      vertex 12.1269 28.35 3.25674
      vertex 14.7133 28.35 1.75
    endloop
  endfacet
  facet normal 0 -1 0
    outer loop
      vertex 12.1269 28.35 3.25674
      vertex 12.2133 28.35 2.85
      vertex 14.7133 28.35 1.75
    endloop
  endfacet
  facet normal 0 -1 0
    outer loop
      vertex 12.2133 28.35 2.85
      vertex 12.1269 28.35 2.44326
      vertex 14.7133 28.35 1.75
    endloop
  endfacet
  facet normal 0 -1 0
    outer loop
      vertex 10.4043 28.35 2.26222
      vertex 4.88902 28.35 3.30106
      vertex 5.24913 28.35 3.09315
    endloop
  endfacet
  facet normal 0 -1 0
    outer loop
      vertex 10.7133 28.35 1.98398
      vertex 10.4043 28.35 2.26222
      vertex 5.49355 28.35 2.75674
    endloop
  endfacet
  facet normal 0 -1 0
    outer loop
      vertex 14.7133 28.35 1.75
      vertex 11.1088 28.35 1.85548
      vertex 6.06754 28.35 1.75
    endloop
  endfacet
  facet normal 0 -1 0
    outer loop
      vertex 14.7133 28.35 1.75
      vertex 11.5224 28.35 1.89894
      vertex 11.1088 28.35 1.85548
    endloop
  endfacet
  facet normal 0 -1 0
    outer loop
      vertex 11.1088 28.35 1.85548
      vertex 5.58 28.35 2.35
      vertex 6.06754 28.35 1.75
    endloop
  endfacet
  facet normal 0 -1 0
    outer loop
      vertex 11.1088 28.35 1.85548
      vertex 10.7133 28.35 1.98398
      vertex 5.58 28.35 2.35
    endloop
  endfacet
  facet normal 0 -1 0
    outer loop
      vertex 3.60185 28.35 2.14209
      vertex 3.60185 28.35 2.55791
      vertex 0.313333 28.35 4.375
    endloop
  endfacet
  facet normal 0 -1 0
    outer loop
      vertex 5.24913 28.35 3.09315
      vertex 5.49355 28.35 2.75674
      vertex 10.4043 28.35 2.26222
    endloop
  endfacet
  facet normal 0 -1 0
    outer loop
      vertex 10.4043 28.35 2.26222
      vertex 10.2352 28.35 2.64209
      vertex 0.313333 28.35 4.375
    endloop
  endfacet
  facet normal 0 0 -1
    outer loop
      vertex 0.313333 28.35 0
      vertex 0.313333 37.35 0
      vertex 1.88 28.35 0
    endloop
  endfacet
  facet normal 0 0 -1
    outer loop
      vertex 1.88 28.35 0
      vertex 0.313333 37.35 0
      vertex 14.7133 37.35 0
    endloop
  endfacet
  facet normal 0 0 -1
    outer loop
      vertex 1.88 28.35 0
      vertex 14.7133 37.35 0
      vertex 14.7133 37.2 0
    endloop
  endfacet
  facet normal 0 0 -1
    outer loop
      vertex 1.88 28.35 0
      vertex 14.7133 37.2 0
      vertex 17.88 37.2 0
    endloop
  endfacet
  facet normal 0 0 -1
    outer loop
      vertex 1.88 28.35 0
      vertex 17.88 37.2 0
      vertex 17.88 28.35 0
    endloop
  endfacet
  facet normal 0 1 0
    outer loop
      vertex 4.88902 37.35 3.30106
      vertex 0.313333 37.35 4.375
      vertex 14.7133 37.35 4.375
    endloop
  endfacet
  facet normal 0 1 0
    outer loop
      vertex 0.313333 37.35 0
      vertex 0.313333 37.35 4.375
      vertex 3.60185 37.35 2.55791
    endloop
  endfacet
  facet normal 0 1 0
    outer loop
      vertex 3.77098 37.35 2.93779
      vertex 0.313333 37.35 4.375
      vertex 4.08 37.35 3.21603
    endloop
  endfacet
  facet normal 0 1 0
    outer loop
      vertex 0.313333 37.35 0
      vertex 3.60185 37.35 2.55791
      vertex 3.60185 37.35 2.14209
    endloop
  endfacet
  facet normal 0 1 0
    outer loop
      vertex 0.313333 37.35 0
      vertex 3.60185 37.35 2.14209
      vertex 3.77098 37.35 1.76222
    endloop
  endfacet
  facet normal 0 1 0
    outer loop
      vertex 0.313333 37.35 0
      vertex 3.77098 37.35 1.76222
      vertex 4.08 37.35 1.48398
    endloop
  endfacet
  facet normal 0 1 0
    outer loop
      vertex 0.313333 37.35 0
      vertex 4.08 37.35 1.48398
      vertex 4.47547 37.35 1.35548
    endloop
  endfacet
  facet normal 0 1 0
    outer loop
      vertex 0.313333 37.35 0
      vertex 4.47547 37.35 1.35548
      vertex 14.7133 37.35 0
    endloop
  endfacet
  facet normal 0 1 0
    outer loop
      vertex 5.24913 37.35 1.60686
      vertex 14.7133 37.35 0
      vertex 4.88902 37.35 1.39894
    endloop
  endfacet
  facet normal 0 1 0
    outer loop
      vertex 5.49355 37.35 1.94326
      vertex 14.7133 37.35 0
      vertex 5.24913 37.35 1.60686
    endloop
  endfacet
  facet normal 0 1 0
    outer loop
      vertex 5.58 37.35 2.35
      vertex 14.7133 37.35 0
      vertex 5.49355 37.35 1.94326
    endloop
  endfacet
  facet normal 0 1 0
    outer loop
      vertex 11.5224 37.35 1.89894
      vertex 14.7133 37.35 0
      vertex 11.1088 37.35 1.85548
    endloop
  endfacet
  facet normal 0 1 0
    outer loop
      vertex 5.24913 37.35 3.09315
      vertex 14.7133 37.35 0
      vertex 5.49355 37.35 2.75674
    endloop
  endfacet
  facet normal 0 1 0
    outer loop
      vertex 5.58 37.35 2.35
      vertex 5.49355 37.35 2.75674
      vertex 14.7133 37.35 0
    endloop
  endfacet
  facet normal 0 1 0
    outer loop
      vertex 4.08 37.35 3.21603
      vertex 0.313333 37.35 4.375
      vertex 4.47547 37.35 3.34452
    endloop
  endfacet
  facet normal 0 1 0
    outer loop
      vertex 11.1088 37.35 3.84452
      vertex 5.24913 37.35 3.09315
      vertex 14.7133 37.35 4.375
    endloop
  endfacet
  facet normal 0 1 0
    outer loop
      vertex 4.47547 37.35 3.34452
      vertex 0.313333 37.35 4.375
      vertex 4.88902 37.35 3.30106
    endloop
  endfacet
  facet normal 0 1 0
    outer loop
      vertex 5.24913 37.35 3.09315
      vertex 4.88902 37.35 3.30106
      vertex 14.7133 37.35 4.375
    endloop
  endfacet
  facet normal 0 1 0
    outer loop
      vertex 3.60185 37.35 2.55791
      vertex 0.313333 37.35 4.375
      vertex 3.77098 37.35 2.93779
    endloop
  endfacet
  facet normal 0 1 0
    outer loop
      vertex 10.2352 37.35 2.64209
      vertex 5.24913 37.35 3.09315
      vertex 10.2352 37.35 3.05791
    endloop
  endfacet
  facet normal 0 1 0
    outer loop
      vertex 10.4043 37.35 2.26221
      vertex 5.24913 37.35 3.09315
      vertex 10.2352 37.35 2.64209
    endloop
  endfacet
  facet normal 0 1 0
    outer loop
      vertex 10.7133 37.35 1.98398
      vertex 5.24913 37.35 3.09315
      vertex 10.4043 37.35 2.26221
    endloop
  endfacet
  facet normal 0 1 0
    outer loop
      vertex 14.7133 37.35 0
      vertex 5.24913 37.35 3.09315
      vertex 10.7133 37.35 1.98398
    endloop
  endfacet
  facet normal 0 1 0
    outer loop
      vertex 14.7133 37.35 0
      vertex 10.7133 37.35 1.98398
      vertex 11.1088 37.35 1.85548
    endloop
  endfacet
  facet normal 0 1 0
    outer loop
      vertex 11.8825 37.35 2.10685
      vertex 14.7133 37.35 0
      vertex 11.5224 37.35 1.89894
    endloop
  endfacet
  facet normal 0 1 0
    outer loop
      vertex 11.8825 37.35 3.59315
      vertex 14.7133 37.35 4.375
      vertex 12.1269 37.35 3.25674
    endloop
  endfacet
  facet normal 0 1 0
    outer loop
      vertex 14.7133 37.35 0
      vertex 11.8825 37.35 2.10685
      vertex 14.7133 37.35 4.375
    endloop
  endfacet
  facet normal 0 1 0
    outer loop
      vertex 11.8825 37.35 2.10685
      vertex 12.1269 37.35 2.44326
      vertex 14.7133 37.35 4.375
    endloop
  endfacet
  facet normal 0 1 0
    outer loop
      vertex 12.1269 37.35 2.44326
      vertex 12.2133 37.35 2.85
      vertex 14.7133 37.35 4.375
    endloop
  endfacet
  facet normal 0 1 0
    outer loop
      vertex 12.2133 37.35 2.85
      vertex 12.1269 37.35 3.25674
      vertex 14.7133 37.35 4.375
    endloop
  endfacet
  facet normal 0 1 0
    outer loop
      vertex 10.4043 37.35 3.43779
      vertex 5.24913 37.35 3.09315
      vertex 10.7133 37.35 3.71603
    endloop
  endfacet
  facet normal 0 1 0
    outer loop
      vertex 11.8825 37.35 3.59315
      vertex 11.5224 37.35 3.80106
      vertex 14.7133 37.35 4.375
    endloop
  endfacet
  facet normal 0 1 0
    outer loop
      vertex 10.7133 37.35 3.71603
      vertex 5.24913 37.35 3.09315
      vertex 11.1088 37.35 3.84452
    endloop
  endfacet
  facet normal 0 1 0
    outer loop
      vertex 11.5224 37.35 3.80106
      vertex 11.1088 37.35 3.84452
      vertex 14.7133 37.35 4.375
    endloop
  endfacet
  facet normal 0 1 0
    outer loop
      vertex 10.2352 37.35 3.05791
      vertex 5.24913 37.35 3.09315
      vertex 10.4043 37.35 3.43779
    endloop
  endfacet
  facet normal 0 1 0
    outer loop
      vertex 4.88902 37.35 1.39894
      vertex 14.7133 37.35 0
      vertex 4.47547 37.35 1.35548
    endloop
  endfacet
  facet normal 0 0 1
    outer loop
      vertex 2.31333 30.35 4.375
      vertex 0.313333 28.35 4.375
      vertex 14.7133 28.35 4.375
    endloop
  endfacet
  facet normal 0 0 1
    outer loop
      vertex 0.313333 37.35 4.375
      vertex 0.313333 28.35 4.375
      vertex 2.31333 30.35 4.375
    endloop
  endfacet
  facet normal 0 0 1
    outer loop
      vertex 2.31333 35.35 4.375
      vertex 14.7133 35.35 4.375
      vertex 0.313333 37.35 4.375
    endloop
  endfacet
  facet normal 0 0 1
    outer loop
      vertex 0.313333 37.35 4.375
      vertex 2.31333 30.35 4.375
      vertex 2.31333 35.35 4.375
    endloop
  endfacet
  facet normal 0 0 1
    outer loop
      vertex 14.7133 37.35 4.375
      vertex 0.313333 37.35 4.375
      vertex 14.7133 35.35 4.375
    endloop
  endfacet
  facet normal 0 0 1
    outer loop
      vertex 14.7133 30.35 4.375
      vertex 2.31333 30.35 4.375
      vertex 14.7133 28.35 4.375
    endloop
  endfacet
  facet normal 1 0 0
    outer loop
      vertex 14.7133 28.35 4.375
      vertex 14.7133 28.35 1.75
      vertex 14.7133 30.35 1.75
    endloop
  endfacet
  facet normal 1 0 0
    outer loop
      vertex 14.7133 30.35 4.375
      vertex 14.7133 28.35 4.375
      vertex 14.7133 30.35 1.75
    endloop
  endfacet
  facet normal 0 0 1
    outer loop
      vertex 14.7133 28.35 1.75
      vertex 6.06754 28.35 1.75
      vertex 17.88 28.35 1.75
    endloop
  endfacet
  facet normal 0 0 1
    outer loop
      vertex 14.7133 35.35 1.75
      vertex 14.7133 30.35 1.75
      vertex 17.88 37.2 1.75
    endloop
  endfacet
  facet normal 0 0 1
    outer loop
      vertex 14.7133 37.2 1.75
      vertex 14.7133 35.35 1.75
      vertex 17.88 37.2 1.75
    endloop
  endfacet
  facet normal 0 0 1
    outer loop
      vertex 6.06754 30.35 1.75
      vertex 14.7133 30.35 1.75
      vertex 14.7133 35.35 1.75
    endloop
  endfacet
  facet normal 0 0 1
    outer loop
      vertex 17.88 37.2 1.75
      vertex 14.7133 30.35 1.75
      vertex 17.88 28.35 1.75
    endloop
  endfacet
  facet normal 0 0 1
    outer loop
      vertex 14.7133 30.35 1.75
      vertex 14.7133 28.35 1.75
      vertex 17.88 28.35 1.75
    endloop
  endfacet
  facet normal 0 0 1
    outer loop
      vertex 14.7133 35.35 1.75
      vertex 6.06754 35.35 1.75
      vertex 6.06754 30.35 1.75
    endloop
  endfacet
  facet normal 1 0 0
    outer loop
      vertex 3.60185 30.35 2.14209
      vertex 3.60185 30.35 2.55791
      vertex 3.60185 28.35 2.55791
    endloop
  endfacet
  facet normal 1 0 0
    outer loop
      vertex 3.60185 28.35 2.14209
      vertex 3.60185 30.35 2.14209
      vertex 3.60185 28.35 2.55791
    endloop
  endfacet
  facet normal 0.913545 9.0314e-017 0.406738
    outer loop
      vertex 3.77098 28.35 1.76222
      vertex 3.77098 30.35 1.76222
      vertex 3.60185 30.35 2.14209
    endloop
  endfacet
  facet normal 0.913545 9.0314e-017 0.406738
    outer loop
      vertex 3.60185 28.35 2.14209
      vertex 3.77098 28.35 1.76222
      vertex 3.60185 30.35 2.14209
    endloop
  endfacet
  facet normal 0.66913 1.65011e-016 0.743145
    outer loop
      vertex 4.08 28.35 1.48398
      vertex 4.08 30.35 1.48398
      vertex 3.77098 30.35 1.76222
    endloop
  endfacet
  facet normal 0.66913 1.65011e-016 0.743145
    outer loop
      vertex 3.77098 28.35 1.76222
      vertex 4.08 28.35 1.48398
      vertex 3.77098 30.35 1.76222
    endloop
  endfacet
  facet normal 0.309018 2.11177e-016 0.951056
    outer loop
      vertex 4.47547 28.35 1.35548
      vertex 4.47547 30.35 1.35548
      vertex 4.08 30.35 1.48398
    endloop
  endfacet
  facet normal 0.309018 2.11177e-016 0.951056
    outer loop
      vertex 4.08 28.35 1.48398
      vertex 4.47547 28.35 1.35548
      vertex 4.08 30.35 1.48398
    endloop
  endfacet
  facet normal -0.104528 2.20828e-016 0.994522
    outer loop
      vertex 4.88902 28.35 1.39894
      vertex 4.88902 30.35 1.39894
      vertex 4.47547 30.35 1.35548
    endloop
  endfacet
  facet normal -0.104528 2.20828e-016 0.994522
    outer loop
      vertex 4.47547 28.35 1.35548
      vertex 4.88902 28.35 1.39894
      vertex 4.47547 30.35 1.35548
    endloop
  endfacet
  facet normal -0.5 1.92296e-016 0.866025
    outer loop
      vertex 5.24913 28.35 1.60686
      vertex 5.24913 30.35 1.60686
      vertex 4.88902 30.35 1.39894
    endloop
  endfacet
  facet normal -0.5 1.92296e-016 0.866025
    outer loop
      vertex 4.88902 28.35 1.39894
      vertex 5.24913 28.35 1.60686
      vertex 4.88902 30.35 1.39894
    endloop
  endfacet
  facet normal -0.809018 1.30514e-016 0.587784
    outer loop
      vertex 5.49355 30.35 1.94326
      vertex 5.24913 30.35 1.60686
      vertex 5.49355 28.35 1.94326
    endloop
  endfacet
  facet normal -0.809018 1.30514e-016 0.587784
    outer loop
      vertex 5.49355 28.35 1.94326
      vertex 5.24913 30.35 1.60686
      vertex 5.24913 28.35 1.60686
    endloop
  endfacet
  facet normal -0.978147 4.61659e-017 0.207913
    outer loop
      vertex 5.58 30.35 2.35
      vertex 5.49355 30.35 1.94326
      vertex 5.58 28.35 2.35
    endloop
  endfacet
  facet normal -0.978147 4.61659e-017 0.207913
    outer loop
      vertex 5.58 28.35 2.35
      vertex 5.49355 30.35 1.94326
      vertex 5.49355 28.35 1.94326
    endloop
  endfacet
  facet normal -0.978147 -4.61659e-017 -0.207913
    outer loop
      vertex 5.58 30.35 2.35
      vertex 5.58 28.35 2.35
      vertex 5.49355 30.35 2.75674
    endloop
  endfacet
  facet normal -0.978147 -4.61659e-017 -0.207913
    outer loop
      vertex 5.49355 30.35 2.75674
      vertex 5.58 28.35 2.35
      vertex 5.49355 28.35 2.75674
    endloop
  endfacet
  facet normal -0.809018 -1.30514e-016 -0.587784
    outer loop
      vertex 5.49355 30.35 2.75674
      vertex 5.49355 28.35 2.75674
      vertex 5.24913 30.35 3.09315
    endloop
  endfacet
  facet normal -0.809018 -1.30514e-016 -0.587784
    outer loop
      vertex 5.24913 30.35 3.09315
      vertex 5.49355 28.35 2.75674
      vertex 5.24913 28.35 3.09315
    endloop
  endfacet
  facet normal -0.5 -1.92296e-016 -0.866025
    outer loop
      vertex 5.24913 30.35 3.09315
      vertex 5.24913 28.35 3.09315
      vertex 4.88902 30.35 3.30106
    endloop
  endfacet
  facet normal -0.5 -1.92296e-016 -0.866025
    outer loop
      vertex 4.88902 30.35 3.30106
      vertex 5.24913 28.35 3.09315
      vertex 4.88902 28.35 3.30106
    endloop
  endfacet
  facet normal -0.104528 -2.20828e-016 -0.994522
    outer loop
      vertex 4.88902 30.35 3.30106
      vertex 4.88902 28.35 3.30106
      vertex 4.47547 30.35 3.34452
    endloop
  endfacet
  facet normal -0.104528 -2.20828e-016 -0.994522
    outer loop
      vertex 4.47547 30.35 3.34452
      vertex 4.88902 28.35 3.30106
      vertex 4.47547 28.35 3.34452
    endloop
  endfacet
  facet normal 0.309018 -2.11177e-016 -0.951056
    outer loop
      vertex 4.47547 30.35 3.34452
      vertex 4.47547 28.35 3.34452
      vertex 4.08 30.35 3.21603
    endloop
  endfacet
  facet normal 0.309018 -2.11177e-016 -0.951056
    outer loop
      vertex 4.08 30.35 3.21603
      vertex 4.47547 28.35 3.34452
      vertex 4.08 28.35 3.21603
    endloop
  endfacet
  facet normal 0.66913 -1.65011e-016 -0.743145
    outer loop
      vertex 4.08 30.35 3.21603
      vertex 4.08 28.35 3.21603
      vertex 3.77098 30.35 2.93779
    endloop
  endfacet
  facet normal 0.66913 -1.65011e-016 -0.743145
    outer loop
      vertex 3.77098 30.35 2.93779
      vertex 4.08 28.35 3.21603
      vertex 3.77098 28.35 2.93779
    endloop
  endfacet
  facet normal 0.913545 -9.0314e-017 -0.406738
    outer loop
      vertex 3.60185 30.35 2.55791
      vertex 3.77098 30.35 2.93779
      vertex 3.77098 28.35 2.93779
    endloop
  endfacet
  facet normal 0.913545 -9.0314e-017 -0.406738
    outer loop
      vertex 3.60185 28.35 2.55791
      vertex 3.60185 30.35 2.55791
      vertex 3.77098 28.35 2.93779
    endloop
  endfacet
  facet normal 1 0 0
    outer loop
      vertex 10.2352 30.35 2.64209
      vertex 10.2352 30.35 3.05791
      vertex 10.2352 28.35 3.05791
    endloop
  endfacet
  facet normal 1 0 0
    outer loop
      vertex 10.2352 28.35 2.64209
      vertex 10.2352 30.35 2.64209
      vertex 10.2352 28.35 3.05791
    endloop
  endfacet
  facet normal 0.913545 9.0314e-017 0.406738
    outer loop
      vertex 10.4043 28.35 2.26222
      vertex 10.4043 30.35 2.26222
      vertex 10.2352 30.35 2.64209
    endloop
  endfacet
  facet normal 0.913545 9.0314e-017 0.406738
    outer loop
      vertex 10.2352 28.35 2.64209
      vertex 10.4043 28.35 2.26222
      vertex 10.2352 30.35 2.64209
    endloop
  endfacet
  facet normal 0.66913 1.65011e-016 0.743145
    outer loop
      vertex 10.7133 28.35 1.98398
      vertex 10.7133 30.35 1.98398
      vertex 10.4043 30.35 2.26222
    endloop
  endfacet
  facet normal 0.66913 1.65011e-016 0.743145
    outer loop
      vertex 10.4043 28.35 2.26222
      vertex 10.7133 28.35 1.98398
      vertex 10.4043 30.35 2.26222
    endloop
  endfacet
  facet normal 0.309018 2.11177e-016 0.951056
    outer loop
      vertex 11.1088 28.35 1.85548
      vertex 11.1088 30.35 1.85548
      vertex 10.7133 30.35 1.98398
    endloop
  endfacet
  facet normal 0.309018 2.11177e-016 0.951056
    outer loop
      vertex 10.7133 28.35 1.98398
      vertex 11.1088 28.35 1.85548
      vertex 10.7133 30.35 1.98398
    endloop
  endfacet
  facet normal -0.104528 2.20828e-016 0.994522
    outer loop
      vertex 11.5224 28.35 1.89894
      vertex 11.5224 30.35 1.89894
      vertex 11.1088 30.35 1.85548
    endloop
  endfacet
  facet normal -0.104528 2.20828e-016 0.994522
    outer loop
      vertex 11.1088 28.35 1.85548
      vertex 11.5224 28.35 1.89894
      vertex 11.1088 30.35 1.85548
    endloop
  endfacet
  facet normal -0.5 1.92296e-016 0.866025
    outer loop
      vertex 11.8825 28.35 2.10686
      vertex 11.8825 30.35 2.10686
      vertex 11.5224 30.35 1.89894
    endloop
  endfacet
  facet normal -0.5 1.92296e-016 0.866025
    outer loop
      vertex 11.5224 28.35 1.89894
      vertex 11.8825 28.35 2.10686
      vertex 11.5224 30.35 1.89894
    endloop
  endfacet
  facet normal -0.809018 1.30514e-016 0.587784
    outer loop
      vertex 12.1269 30.35 2.44326
      vertex 11.8825 30.35 2.10686
      vertex 12.1269 28.35 2.44326
    endloop
  endfacet
  facet normal -0.809018 1.30514e-016 0.587784
    outer loop
      vertex 12.1269 28.35 2.44326
      vertex 11.8825 30.35 2.10686
      vertex 11.8825 28.35 2.10686
    endloop
  endfacet
  facet normal -0.978147 4.61659e-017 0.207913
    outer loop
      vertex 12.2133 30.35 2.85
      vertex 12.1269 30.35 2.44326
      vertex 12.2133 28.35 2.85
    endloop
  endfacet
  facet normal -0.978147 4.61659e-017 0.207913
    outer loop
      vertex 12.2133 28.35 2.85
      vertex 12.1269 30.35 2.44326
      vertex 12.1269 28.35 2.44326
    endloop
  endfacet
  facet normal -0.978147 -4.61659e-017 -0.207913
    outer loop
      vertex 12.2133 30.35 2.85
      vertex 12.2133 28.35 2.85
      vertex 12.1269 30.35 3.25674
    endloop
  endfacet
  facet normal -0.978147 -4.61659e-017 -0.207913
    outer loop
      vertex 12.1269 30.35 3.25674
      vertex 12.2133 28.35 2.85
      vertex 12.1269 28.35 3.25674
    endloop
  endfacet
  facet normal -0.809018 -1.30514e-016 -0.587784
    outer loop
      vertex 12.1269 30.35 3.25674
      vertex 12.1269 28.35 3.25674
      vertex 11.8825 30.35 3.59315
    endloop
  endfacet
  facet normal -0.809018 -1.30514e-016 -0.587784
    outer loop
      vertex 11.8825 30.35 3.59315
      vertex 12.1269 28.35 3.25674
      vertex 11.8825 28.35 3.59315
    endloop
  endfacet
  facet normal -0.5 -1.92296e-016 -0.866025
    outer loop
      vertex 11.8825 30.35 3.59315
      vertex 11.8825 28.35 3.59315
      vertex 11.5224 30.35 3.80106
    endloop
  endfacet
  facet normal -0.5 -1.92296e-016 -0.866025
    outer loop
      vertex 11.5224 30.35 3.80106
      vertex 11.8825 28.35 3.59315
      vertex 11.5224 28.35 3.80106
    endloop
  endfacet
  facet normal -0.104528 -2.20828e-016 -0.994522
    outer loop
      vertex 11.5224 30.35 3.80106
      vertex 11.5224 28.35 3.80106
      vertex 11.1088 30.35 3.84452
    endloop
  endfacet
  facet normal -0.104528 -2.20828e-016 -0.994522
    outer loop
      vertex 11.1088 30.35 3.84452
      vertex 11.5224 28.35 3.80106
      vertex 11.1088 28.35 3.84452
    endloop
  endfacet
  facet normal 0.309018 -2.11177e-016 -0.951056
    outer loop
      vertex 11.1088 30.35 3.84452
      vertex 11.1088 28.35 3.84452
      vertex 10.7133 30.35 3.71603
    endloop
  endfacet
  facet normal 0.309018 -2.11177e-016 -0.951056
    outer loop
      vertex 10.7133 30.35 3.71603
      vertex 11.1088 28.35 3.84452
      vertex 10.7133 28.35 3.71603
    endloop
  endfacet
  facet normal 0.66913 -1.65011e-016 -0.743145
    outer loop
      vertex 10.7133 30.35 3.71603
      vertex 10.7133 28.35 3.71603
      vertex 10.4043 30.35 3.43779
    endloop
  endfacet
  facet normal 0.66913 -1.65011e-016 -0.743145
    outer loop
      vertex 10.4043 30.35 3.43779
      vertex 10.7133 28.35 3.71603
      vertex 10.4043 28.35 3.43779
    endloop
  endfacet
  facet normal 0.913545 -9.0314e-017 -0.406738
    outer loop
      vertex 10.2352 30.35 3.05791
      vertex 10.4043 30.35 3.43779
      vertex 10.4043 28.35 3.43779
    endloop
  endfacet
  facet normal 0.913545 -9.0314e-017 -0.406738
    outer loop
      vertex 10.2352 28.35 3.05791
      vertex 10.2352 30.35 3.05791
      vertex 10.4043 28.35 3.43779
    endloop
  endfacet
  facet normal 0 -1 0
    outer loop
      vertex 4.60619 28.35 0.015017
      vertex 1.88 28.35 0
      vertex 17.88 28.35 0
    endloop
  endfacet
  facet normal 0 -1 0
    outer loop
      vertex 3.15381 28.35 0.015017
      vertex 1.97881 28.35 0.868705
      vertex 1.88 28.35 0
    endloop
  endfacet
  facet normal 0 -1 0
    outer loop
      vertex 5.78119 28.35 0.868705
      vertex 4.60619 28.35 0.015017
      vertex 17.88 28.35 0
    endloop
  endfacet
  facet normal 0 -1 0
    outer loop
      vertex 3.15381 28.35 0.015017
      vertex 1.88 28.35 0
      vertex 4.60619 28.35 0.015017
    endloop
  endfacet
  facet normal 0 -1 0
    outer loop
      vertex 1.88 28.35 1.17281
      vertex 1.88 28.35 0
      vertex 1.97881 28.35 0.868705
    endloop
  endfacet
  facet normal 0 -1 0
    outer loop
      vertex 6.06754 28.35 1.75
      vertex 17.88 28.35 0
      vertex 17.88 28.35 1.75
    endloop
  endfacet
  facet normal 0 -1 0
    outer loop
      vertex 6.06754 28.35 1.75
      vertex 5.78119 28.35 0.868705
      vertex 17.88 28.35 0
    endloop
  endfacet
  facet normal 1 0 0
    outer loop
      vertex 17.88 28.35 1.75
      vertex 17.88 28.35 0
      vertex 17.88 37.2 0
    endloop
  endfacet
  facet normal 1 0 0
    outer loop
      vertex 17.88 37.2 1.75
      vertex 17.88 28.35 1.75
      vertex 17.88 37.2 0
    endloop
  endfacet
  facet normal 0 1 0
    outer loop
      vertex 14.7133 37.2 0
      vertex 14.7133 37.2 1.75
      vertex 17.88 37.2 0
    endloop
  endfacet
  facet normal 0 1 0
    outer loop
      vertex 17.88 37.2 0
      vertex 14.7133 37.2 1.75
      vertex 17.88 37.2 1.75
    endloop
  endfacet
  facet normal 1 0 0
    outer loop
      vertex 14.7133 35.35 4.375
      vertex 14.7133 35.35 1.75
      vertex 14.7133 37.2 1.75
    endloop
  endfacet
  facet normal 1 0 0
    outer loop
      vertex 14.7133 37.35 4.375
      vertex 14.7133 35.35 4.375
      vertex 14.7133 37.2 1.75
    endloop
  endfacet
  facet normal 1 0 0
    outer loop
      vertex 14.7133 37.2 0
      vertex 14.7133 37.35 0
      vertex 14.7133 37.2 1.75
    endloop
  endfacet
  facet normal 1 0 0
    outer loop
      vertex 14.7133 37.35 0
      vertex 14.7133 37.35 4.375
      vertex 14.7133 37.2 1.75
    endloop
  endfacet
  facet normal 0.913545 -9.0314e-017 -0.406738
    outer loop
      vertex 3.60185 37.35 2.55791
      vertex 3.77098 37.35 2.93779
      vertex 3.77098 35.35 2.93779
    endloop
  endfacet
  facet normal 0.913545 -9.0314e-017 -0.406738
    outer loop
      vertex 3.60185 35.35 2.55791
      vertex 3.60185 37.35 2.55791
      vertex 3.77098 35.35 2.93779
    endloop
  endfacet
  facet normal 1 0 0
    outer loop
      vertex 3.60185 37.35 2.14209
      vertex 3.60185 37.35 2.55791
      vertex 3.60185 35.35 2.55791
    endloop
  endfacet
  facet normal 1 0 0
    outer loop
      vertex 3.60185 35.35 2.14209
      vertex 3.60185 37.35 2.14209
      vertex 3.60185 35.35 2.55791
    endloop
  endfacet
  facet normal 0.66913 -1.65011e-016 -0.743145
    outer loop
      vertex 4.08 37.35 3.21603
      vertex 4.08 35.35 3.21603
      vertex 3.77098 37.35 2.93779
    endloop
  endfacet
  facet normal 0.66913 -1.65011e-016 -0.743145
    outer loop
      vertex 3.77098 37.35 2.93779
      vertex 4.08 35.35 3.21603
      vertex 3.77098 35.35 2.93779
    endloop
  endfacet
  facet normal 0.309018 -2.11177e-016 -0.951056
    outer loop
      vertex 4.47547 37.35 3.34452
      vertex 4.47547 35.35 3.34452
      vertex 4.08 37.35 3.21603
    endloop
  endfacet
  facet normal 0.309018 -2.11177e-016 -0.951056
    outer loop
      vertex 4.08 37.35 3.21603
      vertex 4.47547 35.35 3.34452
      vertex 4.08 35.35 3.21603
    endloop
  endfacet
  facet normal -0.104528 -2.20828e-016 -0.994522
    outer loop
      vertex 4.88902 37.35 3.30106
      vertex 4.88902 35.35 3.30106
      vertex 4.47547 37.35 3.34452
    endloop
  endfacet
  facet normal -0.104528 -2.20828e-016 -0.994522
    outer loop
      vertex 4.47547 37.35 3.34452
      vertex 4.88902 35.35 3.30106
      vertex 4.47547 35.35 3.34452
    endloop
  endfacet
  facet normal -0.5 -1.92296e-016 -0.866025
    outer loop
      vertex 5.24913 37.35 3.09315
      vertex 5.24913 35.35 3.09315
      vertex 4.88902 37.35 3.30106
    endloop
  endfacet
  facet normal -0.5 -1.92296e-016 -0.866025
    outer loop
      vertex 4.88902 37.35 3.30106
      vertex 5.24913 35.35 3.09315
      vertex 4.88902 35.35 3.30106
    endloop
  endfacet
  facet normal -0.809018 -1.30514e-016 -0.587784
    outer loop
      vertex 5.49355 37.35 2.75674
      vertex 5.49355 35.35 2.75674
      vertex 5.24913 37.35 3.09315
    endloop
  endfacet
  facet normal -0.809018 -1.30514e-016 -0.587784
    outer loop
      vertex 5.24913 37.35 3.09315
      vertex 5.49355 35.35 2.75674
      vertex 5.24913 35.35 3.09315
    endloop
  endfacet
  facet normal -0.978147 -4.61659e-017 -0.207913
    outer loop
      vertex 5.58 37.35 2.35
      vertex 5.58 35.35 2.35
      vertex 5.49355 37.35 2.75674
    endloop
  endfacet
  facet normal -0.978147 -4.61659e-017 -0.207913
    outer loop
      vertex 5.49355 37.35 2.75674
      vertex 5.58 35.35 2.35
      vertex 5.49355 35.35 2.75674
    endloop
  endfacet
  facet normal -0.978147 4.61659e-017 0.207913
    outer loop
      vertex 5.58 37.35 2.35
      vertex 5.49355 37.35 1.94326
      vertex 5.58 35.35 2.35
    endloop
  endfacet
  facet normal -0.978147 4.61659e-017 0.207913
    outer loop
      vertex 5.58 35.35 2.35
      vertex 5.49355 37.35 1.94326
      vertex 5.49355 35.35 1.94326
    endloop
  endfacet
  facet normal -0.809018 1.30514e-016 0.587784
    outer loop
      vertex 5.49355 37.35 1.94326
      vertex 5.24913 37.35 1.60686
      vertex 5.49355 35.35 1.94326
    endloop
  endfacet
  facet normal -0.809018 1.30514e-016 0.587784
    outer loop
      vertex 5.49355 35.35 1.94326
      vertex 5.24913 37.35 1.60686
      vertex 5.24913 35.35 1.60686
    endloop
  endfacet
  facet normal -0.5 1.92296e-016 0.866025
    outer loop
      vertex 5.24913 35.35 1.60686
      vertex 5.24913 37.35 1.60686
      vertex 4.88902 37.35 1.39894
    endloop
  endfacet
  facet normal -0.5 1.92296e-016 0.866025
    outer loop
      vertex 4.88902 35.35 1.39894
      vertex 5.24913 35.35 1.60686
      vertex 4.88902 37.35 1.39894
    endloop
  endfacet
  facet normal -0.104528 2.20828e-016 0.994522
    outer loop
      vertex 4.88902 35.35 1.39894
      vertex 4.88902 37.35 1.39894
      vertex 4.47547 37.35 1.35548
    endloop
  endfacet
  facet normal -0.104528 2.20828e-016 0.994522
    outer loop
      vertex 4.47547 35.35 1.35548
      vertex 4.88902 35.35 1.39894
      vertex 4.47547 37.35 1.35548
    endloop
  endfacet
  facet normal 0.309018 2.11177e-016 0.951056
    outer loop
      vertex 4.47547 35.35 1.35548
      vertex 4.47547 37.35 1.35548
      vertex 4.08 37.35 1.48398
    endloop
  endfacet
  facet normal 0.309018 2.11177e-016 0.951056
    outer loop
      vertex 4.08 35.35 1.48398
      vertex 4.47547 35.35 1.35548
      vertex 4.08 37.35 1.48398
    endloop
  endfacet
  facet normal 0.66913 1.65011e-016 0.743145
    outer loop
      vertex 4.08 35.35 1.48398
      vertex 4.08 37.35 1.48398
      vertex 3.77098 37.35 1.76222
    endloop
  endfacet
  facet normal 0.66913 1.65011e-016 0.743145
    outer loop
      vertex 3.77098 35.35 1.76222
      vertex 4.08 35.35 1.48398
      vertex 3.77098 37.35 1.76222
    endloop
  endfacet
  facet normal 0.913545 9.0314e-017 0.406738
    outer loop
      vertex 3.77098 35.35 1.76222
      vertex 3.77098 37.35 1.76222
      vertex 3.60185 37.35 2.14209
    endloop
  endfacet
  facet normal 0.913545 9.0314e-017 0.406738
    outer loop
      vertex 3.60185 35.35 2.14209
      vertex 3.77098 35.35 1.76222
      vertex 3.60185 37.35 2.14209
    endloop
  endfacet
  facet normal 0.913545 -9.0314e-017 -0.406738
    outer loop
      vertex 10.2352 37.35 3.05791
      vertex 10.4043 37.35 3.43779
      vertex 10.4043 35.35 3.43779
    endloop
  endfacet
  facet normal 0.913545 -9.0314e-017 -0.406738
    outer loop
      vertex 10.2352 35.35 3.05791
      vertex 10.2352 37.35 3.05791
      vertex 10.4043 35.35 3.43779
    endloop
  endfacet
  facet normal 1 0 0
    outer loop
      vertex 10.2352 37.35 2.64209
      vertex 10.2352 37.35 3.05791
      vertex 10.2352 35.35 3.05791
    endloop
  endfacet
  facet normal 1 0 0
    outer loop
      vertex 10.2352 35.35 2.64209
      vertex 10.2352 37.35 2.64209
      vertex 10.2352 35.35 3.05791
    endloop
  endfacet
  facet normal 0.66913 -1.65011e-016 -0.743145
    outer loop
      vertex 10.7133 37.35 3.71603
      vertex 10.7133 35.35 3.71603
      vertex 10.4043 37.35 3.43779
    endloop
  endfacet
  facet normal 0.66913 -1.65011e-016 -0.743145
    outer loop
      vertex 10.4043 37.35 3.43779
      vertex 10.7133 35.35 3.71603
      vertex 10.4043 35.35 3.43779
    endloop
  endfacet
  facet normal 0.309018 -2.11177e-016 -0.951056
    outer loop
      vertex 11.1088 37.35 3.84452
      vertex 11.1088 35.35 3.84452
      vertex 10.7133 37.35 3.71603
    endloop
  endfacet
  facet normal 0.309018 -2.11177e-016 -0.951056
    outer loop
      vertex 10.7133 37.35 3.71603
      vertex 11.1088 35.35 3.84452
      vertex 10.7133 35.35 3.71603
    endloop
  endfacet
  facet normal -0.104528 -2.20828e-016 -0.994522
    outer loop
      vertex 11.5224 37.35 3.80106
      vertex 11.5224 35.35 3.80106
      vertex 11.1088 37.35 3.84452
    endloop
  endfacet
  facet normal -0.104528 -2.20828e-016 -0.994522
    outer loop
      vertex 11.1088 37.35 3.84452
      vertex 11.5224 35.35 3.80106
      vertex 11.1088 35.35 3.84452
    endloop
  endfacet
  facet normal -0.5 -1.92296e-016 -0.866025
    outer loop
      vertex 11.8825 37.35 3.59315
      vertex 11.8825 35.35 3.59315
      vertex 11.5224 37.35 3.80106
    endloop
  endfacet
  facet normal -0.5 -1.92296e-016 -0.866025
    outer loop
      vertex 11.5224 37.35 3.80106
      vertex 11.8825 35.35 3.59315
      vertex 11.5224 35.35 3.80106
    endloop
  endfacet
  facet normal -0.809018 -1.30514e-016 -0.587784
    outer loop
      vertex 12.1269 37.35 3.25674
      vertex 12.1269 35.35 3.25674
      vertex 11.8825 37.35 3.59315
    endloop
  endfacet
  facet normal -0.809018 -1.30514e-016 -0.587784
    outer loop
      vertex 11.8825 37.35 3.59315
      vertex 12.1269 35.35 3.25674
      vertex 11.8825 35.35 3.59315
    endloop
  endfacet
  facet normal -0.978147 -4.61659e-017 -0.207913
    outer loop
      vertex 12.2133 37.35 2.85
      vertex 12.2133 35.35 2.85
      vertex 12.1269 37.35 3.25674
    endloop
  endfacet
  facet normal -0.978147 -4.61659e-017 -0.207913
    outer loop
      vertex 12.1269 37.35 3.25674
      vertex 12.2133 35.35 2.85
      vertex 12.1269 35.35 3.25674
    endloop
  endfacet
  facet normal -0.978147 4.61659e-017 0.207913
    outer loop
      vertex 12.2133 37.35 2.85
      vertex 12.1269 37.35 2.44326
      vertex 12.2133 35.35 2.85
    endloop
  endfacet
  facet normal -0.978147 4.61659e-017 0.207913
    outer loop
      vertex 12.2133 35.35 2.85
      vertex 12.1269 37.35 2.44326
      vertex 12.1269 35.35 2.44326
    endloop
  endfacet
  facet normal -0.809018 1.30514e-016 0.587784
    outer loop
      vertex 12.1269 37.35 2.44326
      vertex 11.8825 37.35 2.10685
      vertex 12.1269 35.35 2.44326
    endloop
  endfacet
  facet normal -0.809018 1.30514e-016 0.587784
    outer loop
      vertex 12.1269 35.35 2.44326
      vertex 11.8825 37.35 2.10685
      vertex 11.8825 35.35 2.10686
    endloop
  endfacet
  facet normal -0.5 1.92296e-016 0.866025
    outer loop
      vertex 11.8825 35.35 2.10686
      vertex 11.8825 37.35 2.10685
      vertex 11.5224 37.35 1.89894
    endloop
  endfacet
  facet normal -0.5 1.92296e-016 0.866025
    outer loop
      vertex 11.5224 35.35 1.89894
      vertex 11.8825 35.35 2.10686
      vertex 11.5224 37.35 1.89894
    endloop
  endfacet
  facet normal -0.104528 2.20828e-016 0.994522
    outer loop
      vertex 11.5224 35.35 1.89894
      vertex 11.5224 37.35 1.89894
      vertex 11.1088 37.35 1.85548
    endloop
  endfacet
  facet normal -0.104528 2.20828e-016 0.994522
    outer loop
      vertex 11.1088 35.35 1.85548
      vertex 11.5224 35.35 1.89894
      vertex 11.1088 37.35 1.85548
    endloop
  endfacet
  facet normal 0.309018 2.11177e-016 0.951056
    outer loop
      vertex 11.1088 35.35 1.85548
      vertex 11.1088 37.35 1.85548
      vertex 10.7133 37.35 1.98398
    endloop
  endfacet
  facet normal 0.309018 2.11177e-016 0.951056
    outer loop
      vertex 10.7133 35.35 1.98398
      vertex 11.1088 35.35 1.85548
      vertex 10.7133 37.35 1.98398
    endloop
  endfacet
  facet normal 0.66913 1.65011e-016 0.743145
    outer loop
      vertex 10.7133 35.35 1.98398
      vertex 10.7133 37.35 1.98398
      vertex 10.4043 37.35 2.26221
    endloop
  endfacet
  facet normal 0.66913 1.65011e-016 0.743145
    outer loop
      vertex 10.4043 35.35 2.26222
      vertex 10.7133 35.35 1.98398
      vertex 10.4043 37.35 2.26221
    endloop
  endfacet
  facet normal 0.913545 9.0314e-017 0.406738
    outer loop
      vertex 10.4043 35.35 2.26222
      vertex 10.4043 37.35 2.26221
      vertex 10.2352 37.35 2.64209
    endloop
  endfacet
  facet normal 0.913545 9.0314e-017 0.406738
    outer loop
      vertex 10.2352 35.35 2.64209
      vertex 10.4043 35.35 2.26222
      vertex 10.2352 37.35 2.64209
    endloop
  endfacet
  facet normal 0 -1 0
    outer loop
      vertex 2.31333 35.35 4.375
      vertex 2.31333 35.35 0.625659
      vertex 3.15381 35.35 0.015017
    endloop
  endfacet
  facet normal 0 -1 0
    outer loop
      vertex 3.77098 35.35 1.76222
      vertex 2.31333 35.35 4.375
      vertex 4.60619 35.35 0.015017
    endloop
  endfacet
  facet normal 0 -1 0
    outer loop
      vertex 4.60619 35.35 0.015017
      vertex 2.31333 35.35 4.375
      vertex 3.15381 35.35 0.015017
    endloop
  endfacet
  facet normal 0 -1 0
    outer loop
      vertex 11.1088 35.35 3.84452
      vertex 11.5224 35.35 3.80106
      vertex 14.7133 35.35 4.375
    endloop
  endfacet
  facet normal 0 -1 0
    outer loop
      vertex 3.60185 35.35 2.55791
      vertex 2.31333 35.35 4.375
      vertex 3.60185 35.35 2.14209
    endloop
  endfacet
  facet normal 0 -1 0
    outer loop
      vertex 3.77098 35.35 2.93779
      vertex 4.08 35.35 3.21603
      vertex 2.31333 35.35 4.375
    endloop
  endfacet
  facet normal 0 -1 0
    outer loop
      vertex 10.4043 35.35 2.26222
      vertex 4.88902 35.35 3.30106
      vertex 5.24913 35.35 3.09315
    endloop
  endfacet
  facet normal 0 -1 0
    outer loop
      vertex 5.24913 35.35 1.60686
      vertex 4.88902 35.35 1.39894
      vertex 5.78119 35.35 0.868705
    endloop
  endfacet
  facet normal 0 -1 0
    outer loop
      vertex 4.47547 35.35 3.34452
      vertex 2.31333 35.35 4.375
      vertex 4.08 35.35 3.21603
    endloop
  endfacet
  facet normal 0 -1 0
    outer loop
      vertex 4.88902 35.35 3.30106
      vertex 2.31333 35.35 4.375
      vertex 4.47547 35.35 3.34452
    endloop
  endfacet
  facet normal 0 -1 0
    outer loop
      vertex 10.2352 35.35 2.64209
      vertex 10.2352 35.35 3.05791
      vertex 2.31333 35.35 4.375
    endloop
  endfacet
  facet normal 0 -1 0
    outer loop
      vertex 10.2352 35.35 2.64209
      vertex 2.31333 35.35 4.375
      vertex 4.88902 35.35 3.30106
    endloop
  endfacet
  facet normal 0 -1 0
    outer loop
      vertex 10.4043 35.35 2.26222
      vertex 10.2352 35.35 2.64209
      vertex 4.88902 35.35 3.30106
    endloop
  endfacet
  facet normal 0 -1 0
    outer loop
      vertex 10.7133 35.35 1.98398
      vertex 5.49355 35.35 2.75674
      vertex 6.06754 35.35 1.75
    endloop
  endfacet
  facet normal 0 -1 0
    outer loop
      vertex 5.49355 35.35 2.75674
      vertex 5.58 35.35 2.35
      vertex 6.06754 35.35 1.75
    endloop
  endfacet
  facet normal 0 -1 0
    outer loop
      vertex 6.06754 35.35 1.75
      vertex 5.49355 35.35 1.94326
      vertex 5.78119 35.35 0.868705
    endloop
  endfacet
  facet normal 0 -1 0
    outer loop
      vertex 5.49355 35.35 1.94326
      vertex 5.24913 35.35 1.60686
      vertex 5.78119 35.35 0.868705
    endloop
  endfacet
  facet normal 0 -1 0
    outer loop
      vertex 4.08 35.35 1.48398
      vertex 3.77098 35.35 1.76222
      vertex 4.60619 35.35 0.015017
    endloop
  endfacet
  facet normal 0 -1 0
    outer loop
      vertex 5.78119 35.35 0.868705
      vertex 4.47547 35.35 1.35548
      vertex 4.60619 35.35 0.015017
    endloop
  endfacet
  facet normal 0 -1 0
    outer loop
      vertex 4.47547 35.35 1.35548
      vertex 4.08 35.35 1.48398
      vertex 4.60619 35.35 0.015017
    endloop
  endfacet
  facet normal 0 -1 0
    outer loop
      vertex 3.60185 35.35 2.14209
      vertex 2.31333 35.35 4.375
      vertex 3.77098 35.35 1.76222
    endloop
  endfacet
  facet normal 0 -1 0
    outer loop
      vertex 11.8825 35.35 2.10686
      vertex 11.5224 35.35 1.89894
      vertex 14.7133 35.35 1.75
    endloop
  endfacet
  facet normal 0 -1 0
    outer loop
      vertex 10.7133 35.35 1.98398
      vertex 10.4043 35.35 2.26222
      vertex 5.49355 35.35 2.75674
    endloop
  endfacet
  facet normal 0 -1 0
    outer loop
      vertex 12.1269 35.35 2.44326
      vertex 11.8825 35.35 2.10686
      vertex 14.7133 35.35 1.75
    endloop
  endfacet
  facet normal 0 -1 0
    outer loop
      vertex 10.4043 35.35 3.43779
      vertex 2.31333 35.35 4.375
      vertex 10.2352 35.35 3.05791
    endloop
  endfacet
  facet normal 0 -1 0
    outer loop
      vertex 10.7133 35.35 3.71603
      vertex 2.31333 35.35 4.375
      vertex 10.4043 35.35 3.43779
    endloop
  endfacet
  facet normal 0 -1 0
    outer loop
      vertex 11.1088 35.35 3.84452
      vertex 2.31333 35.35 4.375
      vertex 10.7133 35.35 3.71603
    endloop
  endfacet
  facet normal 0 -1 0
    outer loop
      vertex 11.5224 35.35 3.80106
      vertex 11.8825 35.35 3.59315
      vertex 14.7133 35.35 4.375
    endloop
  endfacet
  facet normal 0 -1 0
    outer loop
      vertex 14.7133 35.35 4.375
      vertex 2.31333 35.35 4.375
      vertex 11.1088 35.35 3.84452
    endloop
  endfacet
  facet normal 0 -1 0
    outer loop
      vertex 11.8825 35.35 3.59315
      vertex 12.1269 35.35 3.25674
      vertex 14.7133 35.35 4.375
    endloop
  endfacet
  facet normal 0 -1 0
    outer loop
      vertex 12.2133 35.35 2.85
      vertex 12.1269 35.35 2.44326
      vertex 14.7133 35.35 1.75
    endloop
  endfacet
  facet normal 0 -1 0
    outer loop
      vertex 14.7133 35.35 4.375
      vertex 12.1269 35.35 3.25674
      vertex 14.7133 35.35 1.75
    endloop
  endfacet
  facet normal 0 -1 0
    outer loop
      vertex 12.1269 35.35 3.25674
      vertex 12.2133 35.35 2.85
      vertex 14.7133 35.35 1.75
    endloop
  endfacet
  facet normal 0 -1 0
    outer loop
      vertex 11.1088 35.35 1.85548
      vertex 10.7133 35.35 1.98398
      vertex 6.06754 35.35 1.75
    endloop
  endfacet
  facet normal 0 -1 0
    outer loop
      vertex 5.58 35.35 2.35
      vertex 5.49355 35.35 1.94326
      vertex 6.06754 35.35 1.75
    endloop
  endfacet
  facet normal 0 -1 0
    outer loop
      vertex 14.7133 35.35 1.75
      vertex 11.1088 35.35 1.85548
      vertex 6.06754 35.35 1.75
    endloop
  endfacet
  facet normal 0 -1 0
    outer loop
      vertex 14.7133 35.35 1.75
      vertex 11.5224 35.35 1.89894
      vertex 11.1088 35.35 1.85548
    endloop
  endfacet
  facet normal 0 -1 0
    outer loop
      vertex 4.88902 35.35 1.39894
      vertex 4.47547 35.35 1.35548
      vertex 5.78119 35.35 0.868705
    endloop
  endfacet
  facet normal 0 -1 0
    outer loop
      vertex 3.60185 35.35 2.55791
      vertex 3.77098 35.35 2.93779
      vertex 2.31333 35.35 4.375
    endloop
  endfacet
  facet normal 0 -1 0
    outer loop
      vertex 5.24913 35.35 3.09315
      vertex 5.49355 35.35 2.75674
      vertex 10.4043 35.35 2.26222
    endloop
  endfacet
  facet normal 1 0 0
    outer loop
      vertex 2.31333 30.35 4.375
      vertex 2.31333 30.35 0.625659
      vertex 2.31333 35.35 0.625659
    endloop
  endfacet
  facet normal 1 0 0
    outer loop
      vertex 2.31333 35.35 4.375
      vertex 2.31333 30.35 4.375
      vertex 2.31333 35.35 0.625659
    endloop
  endfacet
  facet normal 0 1 0
    outer loop
      vertex 2.31333 30.35 0.625659
      vertex 2.31333 30.35 4.375
      vertex 3.15381 30.35 0.015017
    endloop
  endfacet
  facet normal 0 1 0
    outer loop
      vertex 4.88902 30.35 3.30106
      vertex 2.31333 30.35 4.375
      vertex 14.7133 30.35 4.375
    endloop
  endfacet
  facet normal 0 1 0
    outer loop
      vertex 11.8825 30.35 2.10686
      vertex 14.7133 30.35 4.375
      vertex 14.7133 30.35 1.75
    endloop
  endfacet
  facet normal 0 1 0
    outer loop
      vertex 4.60619 30.35 0.015017
      vertex 3.15381 30.35 0.015017
      vertex 5.78119 30.35 0.868705
    endloop
  endfacet
  facet normal 0 1 0
    outer loop
      vertex 5.24913 30.35 1.60686
      vertex 6.06754 30.35 1.75
      vertex 4.88902 30.35 1.39894
    endloop
  endfacet
  facet normal 0 1 0
    outer loop
      vertex 3.15381 30.35 0.015017
      vertex 2.31333 30.35 4.375
      vertex 3.60185 30.35 2.55791
    endloop
  endfacet
  facet normal 0 1 0
    outer loop
      vertex 3.15381 30.35 0.015017
      vertex 3.60185 30.35 2.55791
      vertex 3.60185 30.35 2.14209
    endloop
  endfacet
  facet normal 0 1 0
    outer loop
      vertex 3.15381 30.35 0.015017
      vertex 3.60185 30.35 2.14209
      vertex 3.77098 30.35 1.76222
    endloop
  endfacet
  facet normal 0 1 0
    outer loop
      vertex 3.15381 30.35 0.015017
      vertex 3.77098 30.35 1.76222
      vertex 4.08 30.35 1.48398
    endloop
  endfacet
  facet normal 0 1 0
    outer loop
      vertex 3.15381 30.35 0.015017
      vertex 4.08 30.35 1.48398
      vertex 4.47547 30.35 1.35548
    endloop
  endfacet
  facet normal 0 1 0
    outer loop
      vertex 3.15381 30.35 0.015017
      vertex 4.47547 30.35 1.35548
      vertex 4.88902 30.35 1.39894
    endloop
  endfacet
  facet normal 0 1 0
    outer loop
      vertex 3.15381 30.35 0.015017
      vertex 4.88902 30.35 1.39894
      vertex 6.06754 30.35 1.75
    endloop
  endfacet
  facet normal 0 1 0
    outer loop
      vertex 5.49355 30.35 1.94326
      vertex 6.06754 30.35 1.75
      vertex 5.24913 30.35 1.60686
    endloop
  endfacet
  facet normal 0 1 0
    outer loop
      vertex 10.2352 30.35 3.05791
      vertex 5.58 30.35 2.35
      vertex 10.4043 30.35 3.43779
    endloop
  endfacet
  facet normal 0 1 0
    outer loop
      vertex 5.58 30.35 2.35
      vertex 6.06754 30.35 1.75
      vertex 5.49355 30.35 1.94326
    endloop
  endfacet
  facet normal 0 1 0
    outer loop
      vertex 3.77098 30.35 2.93779
      vertex 2.31333 30.35 4.375
      vertex 4.08 30.35 3.21603
    endloop
  endfacet
  facet normal 0 1 0
    outer loop
      vertex 4.08 30.35 3.21603
      vertex 2.31333 30.35 4.375
      vertex 4.47547 30.35 3.34452
    endloop
  endfacet
  facet normal 0 1 0
    outer loop
      vertex 11.1088 30.35 3.84452
      vertex 5.24913 30.35 3.09315
      vertex 14.7133 30.35 4.375
    endloop
  endfacet
  facet normal 0 1 0
    outer loop
      vertex 5.24913 30.35 3.09315
      vertex 4.88902 30.35 3.30106
      vertex 14.7133 30.35 4.375
    endloop
  endfacet
  facet normal 0 1 0
    outer loop
      vertex 4.47547 30.35 3.34452
      vertex 2.31333 30.35 4.375
      vertex 4.88902 30.35 3.30106
    endloop
  endfacet
  facet normal 0 1 0
    outer loop
      vertex 3.60185 30.35 2.55791
      vertex 2.31333 30.35 4.375
      vertex 3.77098 30.35 2.93779
    endloop
  endfacet
  facet normal 0 1 0
    outer loop
      vertex 6.06754 30.35 1.75
      vertex 5.58 30.35 2.35
      vertex 10.2352 30.35 3.05791
    endloop
  endfacet
  facet normal 0 1 0
    outer loop
      vertex 11.8825 30.35 3.59315
      vertex 14.7133 30.35 4.375
      vertex 12.1269 30.35 3.25674
    endloop
  endfacet
  facet normal 0 1 0
    outer loop
      vertex 11.1088 30.35 1.85548
      vertex 11.5224 30.35 1.89894
      vertex 14.7133 30.35 1.75
    endloop
  endfacet
  facet normal 0 1 0
    outer loop
      vertex 12.1269 30.35 2.44326
      vertex 14.7133 30.35 4.375
      vertex 11.8825 30.35 2.10686
    endloop
  endfacet
  facet normal 0 1 0
    outer loop
      vertex 12.1269 30.35 3.25674
      vertex 14.7133 30.35 4.375
      vertex 12.2133 30.35 2.85
    endloop
  endfacet
  facet normal 0 1 0
    outer loop
      vertex 12.2133 30.35 2.85
      vertex 14.7133 30.35 4.375
      vertex 12.1269 30.35 2.44326
    endloop
  endfacet
  facet normal 0 1 0
    outer loop
      vertex 10.2352 30.35 2.64209
      vertex 6.06754 30.35 1.75
      vertex 10.2352 30.35 3.05791
    endloop
  endfacet
  facet normal 0 1 0
    outer loop
      vertex 11.5224 30.35 3.80106
      vertex 14.7133 30.35 4.375
      vertex 11.8825 30.35 3.59315
    endloop
  endfacet
  facet normal 0 1 0
    outer loop
      vertex 11.1088 30.35 3.84452
      vertex 14.7133 30.35 4.375
      vertex 11.5224 30.35 3.80106
    endloop
  endfacet
  facet normal 0 1 0
    outer loop
      vertex 5.49355 30.35 2.75674
      vertex 5.24913 30.35 3.09315
      vertex 11.1088 30.35 3.84452
    endloop
  endfacet
  facet normal 0 1 0
    outer loop
      vertex 10.4043 30.35 3.43779
      vertex 5.58 30.35 2.35
      vertex 5.49355 30.35 2.75674
    endloop
  endfacet
  facet normal 0 1 0
    outer loop
      vertex 5.49355 30.35 2.75674
      vertex 11.1088 30.35 3.84452
      vertex 10.7133 30.35 3.71603
    endloop
  endfacet
  facet normal 0 1 0
    outer loop
      vertex 10.4043 30.35 3.43779
      vertex 5.49355 30.35 2.75674
      vertex 10.7133 30.35 3.71603
    endloop
  endfacet
  facet normal 0 1 0
    outer loop
      vertex 11.8825 30.35 2.10686
      vertex 14.7133 30.35 1.75
      vertex 11.5224 30.35 1.89894
    endloop
  endfacet
  facet normal 0 1 0
    outer loop
      vertex 6.06754 30.35 1.75
      vertex 10.2352 30.35 2.64209
      vertex 10.4043 30.35 2.26222
    endloop
  endfacet
  facet normal 0 1 0
    outer loop
      vertex 6.06754 30.35 1.75
      vertex 10.4043 30.35 2.26222
      vertex 10.7133 30.35 1.98398
    endloop
  endfacet
  facet normal 0 1 0
    outer loop
      vertex 6.06754 30.35 1.75
      vertex 10.7133 30.35 1.98398
      vertex 11.1088 30.35 1.85548
    endloop
  endfacet
  facet normal 0 1 0
    outer loop
      vertex 6.06754 30.35 1.75
      vertex 11.1088 30.35 1.85548
      vertex 14.7133 30.35 1.75
    endloop
  endfacet
  facet normal 0 1 0
    outer loop
      vertex 5.78119 30.35 0.868705
      vertex 3.15381 30.35 0.015017
      vertex 6.06754 30.35 1.75
    endloop
  endfacet
  facet normal -0.951057 6.86156e-017 0.309017
    outer loop
      vertex 6.06754 35.35 1.75
      vertex 5.78119 35.35 0.868705
      vertex 6.06754 30.35 1.75
    endloop
  endfacet
  facet normal -0.951057 6.86156e-017 0.309017
    outer loop
      vertex 6.06754 30.35 1.75
      vertex 5.78119 35.35 0.868705
      vertex 5.78119 30.35 0.868705
    endloop
  endfacet
  facet normal -0.587785 1.79638e-016 0.809017
    outer loop
      vertex 5.78119 30.35 0.868705
      vertex 5.78119 35.35 0.868705
      vertex 4.60619 35.35 0.015017
    endloop
  endfacet
  facet normal -0.587785 1.79638e-016 0.809017
    outer loop
      vertex 4.60619 30.35 0.015017
      vertex 5.78119 30.35 0.868705
      vertex 4.60619 35.35 0.015017
    endloop
  endfacet
  facet normal 0 2.22045e-016 1
    outer loop
      vertex 4.60619 30.35 0.015017
      vertex 4.60619 35.35 0.015017
      vertex 3.15381 35.35 0.015017
    endloop
  endfacet
  facet normal 0 2.22045e-016 1
    outer loop
      vertex 3.15381 30.35 0.015017
      vertex 4.60619 30.35 0.015017
      vertex 3.15381 35.35 0.015017
    endloop
  endfacet
  facet normal 0.587785 1.79638e-016 0.809017
    outer loop
      vertex 3.15381 30.35 0.015017
      vertex 3.15381 35.35 0.015017
      vertex 2.31333 35.35 0.625659
    endloop
  endfacet
  facet normal 0.587785 1.79638e-016 0.809017
    outer loop
      vertex 2.31333 30.35 0.625659
      vertex 3.15381 30.35 0.015017
      vertex 2.31333 35.35 0.625659
    endloop
  endfacet
endsolid OpenSCAD_Model
