  0
SECTION
  2
BLOCKS
  0
ENDSEC
  0
SECTION
  2
ENTITIES
  0
LINE
  8
0
 10
-296.985
 11
-195.98
 20
38.995
 21
140
  0
LINE
  8
0
 10
-195.98
 11
195.98
 20
140
 21
140
  0
LINE
  8
0
 10
195.98
 11
296.985
 20
140
 21
38.995
  0
LINE
  8
0
 10
296.985
 11
0
 20
38.995
 21
-257.99
  0
LINE
  8
0
 10
0
 11
-296.985
 20
-257.99
 21
38.995
  0
LINE
  8
0
 10
-259.269
 11
-258.58
 20
11.508
 21
13.356
  0
LINE
  8
0
 10
-258.58
 11
-257.001
 20
13.356
 21
14.538
  0
LINE
  8
0
 10
-257.001
 11
-255.034
 20
14.538
 21
14.678
  0
LINE
  8
0
 10
-255.034
 11
-253.303
 20
14.678
 21
13.734
  0
LINE
  8
0
 10
-253.303
 11
-252.359
 20
13.734
 21
12.003
  0
LINE
  8
0
 10
-252.359
 11
-252.499
 20
12.003
 21
10.035
  0
LINE
  8
0
 10
-252.499
 11
-253.681
 20
10.035
 21
8.457
  0
LINE
  8
0
 10
-253.681
 11
-255.529
 20
8.457
 21
7.768
  0
LINE
  8
0
 10
-255.529
 11
-257.455
 20
7.768
 21
8.187
  0
LINE
  8
0
 10
-257.455
 11
-258.85
 20
8.187
 21
9.581
  0
LINE
  8
0
 10
-258.85
 11
-259.269
 20
9.581
 21
11.508
  0
LINE
  8
0
 10
-253.966
 11
-253.276
 20
72.284
 21
74.132
  0
LINE
  8
0
 10
-253.276
 11
-251.698
 20
74.132
 21
75.314
  0
LINE
  8
0
 10
-251.698
 11
-249.731
 20
75.314
 21
75.454
  0
LINE
  8
0
 10
-249.731
 11
-248
 20
75.454
 21
74.509
  0
LINE
  8
0
 10
-248
 11
-247.055
 20
74.509
 21
72.778
  0
LINE
  8
0
 10
-247.055
 11
-247.195
 20
72.778
 21
70.811
  0
LINE
  8
0
 10
-247.195
 11
-248.378
 20
70.811
 21
69.233
  0
LINE
  8
0
 10
-248.378
 11
-250.225
 20
69.233
 21
68.544
  0
LINE
  8
0
 10
-250.225
 11
-252.152
 20
68.544
 21
68.963
  0
LINE
  8
0
 10
-252.152
 11
-253.547
 20
68.963
 21
70.357
  0
LINE
  8
0
 10
-253.547
 11
-253.966
 20
70.357
 21
72.284
  0
LINE
  8
0
 10
-227.449
 11
-226.76
 20
-20.311
 21
-18.464
  0
LINE
  8
0
 10
-226.76
 11
-225.182
 20
-18.464
 21
-17.282
  0
LINE
  8
0
 10
-225.182
 11
-223.215
 20
-17.282
 21
-17.142
  0
LINE
  8
0
 10
-223.215
 11
-221.484
 20
-17.142
 21
-18.086
  0
LINE
  8
0
 10
-221.484
 11
-220.539
 20
-18.086
 21
-19.817
  0
LINE
  8
0
 10
-220.539
 11
-220.679
 20
-19.817
 21
-21.784
  0
LINE
  8
0
 10
-220.679
 11
-221.861
 20
-21.784
 21
-23.363
  0
LINE
  8
0
 10
-221.861
 11
-223.709
 20
-23.363
 21
-24.052
  0
LINE
  8
0
 10
-223.709
 11
-225.636
 20
-24.052
 21
-23.633
  0
LINE
  8
0
 10
-225.636
 11
-227.03
 20
-23.633
 21
-22.238
  0
LINE
  8
0
 10
-227.03
 11
-227.449
 20
-22.238
 21
-20.311
  0
LINE
  8
0
 10
-222.146
 11
-221.457
 20
104.104
 21
105.952
  0
LINE
  8
0
 10
-221.457
 11
-219.878
 20
105.952
 21
107.134
  0
LINE
  8
0
 10
-219.878
 11
-217.911
 20
107.134
 21
107.274
  0
LINE
  8
0
 10
-217.911
 11
-216.18
 20
107.274
 21
106.329
  0
LINE
  8
0
 10
-216.18
 11
-215.236
 20
106.329
 21
104.598
  0
LINE
  8
0
 10
-215.236
 11
-215.376
 20
104.598
 21
102.631
  0
LINE
  8
0
 10
-215.376
 11
-216.558
 20
102.631
 21
101.053
  0
LINE
  8
0
 10
-216.558
 11
-218.405
 20
101.053
 21
100.363
  0
LINE
  8
0
 10
-218.405
 11
-220.332
 20
100.363
 21
100.783
  0
LINE
  8
0
 10
-220.332
 11
-221.727
 20
100.783
 21
102.177
  0
LINE
  8
0
 10
-221.727
 11
-222.146
 20
102.177
 21
104.104
  0
LINE
  8
0
 10
-195.63
 11
-194.94
 20
-52.131
 21
-50.284
  0
LINE
  8
0
 10
-194.94
 11
-193.362
 20
-50.284
 21
-49.101
  0
LINE
  8
0
 10
-193.362
 11
-191.395
 20
-49.101
 21
-48.961
  0
LINE
  8
0
 10
-191.395
 11
-189.664
 20
-48.961
 21
-49.906
  0
LINE
  8
0
 10
-189.664
 11
-188.719
 20
-49.906
 21
-51.637
  0
LINE
  8
0
 10
-188.719
 11
-188.859
 20
-51.637
 21
-53.604
  0
LINE
  8
0
 10
-188.859
 11
-190.041
 20
-53.604
 21
-55.182
  0
LINE
  8
0
 10
-190.041
 11
-191.889
 20
-55.182
 21
-55.872
  0
LINE
  8
0
 10
-191.889
 11
-193.816
 20
-55.872
 21
-55.453
  0
LINE
  8
0
 10
-193.816
 11
-195.21
 20
-55.453
 21
-54.058
  0
LINE
  8
0
 10
-195.21
 11
-195.63
 20
-54.058
 21
-52.131
  0
LINE
  8
0
 10
-190.326
 11
-189.637
 20
135.924
 21
137.771
  0
LINE
  8
0
 10
-189.637
 11
-188.059
 20
137.771
 21
138.954
  0
LINE
  8
0
 10
-188.059
 11
-186.091
 20
138.954
 21
139.094
  0
LINE
  8
0
 10
-186.091
 11
-184.36
 20
139.094
 21
138.149
  0
LINE
  8
0
 10
-184.36
 11
-183.416
 20
138.149
 21
136.418
  0
LINE
  8
0
 10
-183.416
 11
-183.556
 20
136.418
 21
134.451
  0
LINE
  8
0
 10
-183.556
 11
-184.738
 20
134.451
 21
132.873
  0
LINE
  8
0
 10
-184.738
 11
-186.586
 20
132.873
 21
132.183
  0
LINE
  8
0
 10
-186.586
 11
-188.513
 20
132.183
 21
132.603
  0
LINE
  8
0
 10
-188.513
 11
-189.907
 20
132.603
 21
133.997
  0
LINE
  8
0
 10
-189.907
 11
-190.326
 20
133.997
 21
135.924
  0
LINE
  8
0
 10
-165.362
 11
-146.737
 20
73.965
 21
106.225
  0
LINE
  8
0
 10
-146.737
 11
-123.311
 20
106.225
 21
92.7
  0
LINE
  8
0
 10
-123.311
 11
-141.936
 20
92.7
 21
60.44
  0
LINE
  8
0
 10
-141.936
 11
-165.362
 20
60.44
 21
73.965
  0
LINE
  8
0
 10
-163.81
 11
-163.12
 20
-83.951
 21
-82.103
  0
LINE
  8
0
 10
-163.12
 11
-161.542
 20
-82.103
 21
-80.921
  0
LINE
  8
0
 10
-161.542
 11
-159.575
 20
-80.921
 21
-80.781
  0
LINE
  8
0
 10
-159.575
 11
-157.844
 20
-80.781
 21
-81.726
  0
LINE
  8
0
 10
-157.844
 11
-156.899
 20
-81.726
 21
-83.457
  0
LINE
  8
0
 10
-156.899
 11
-157.039
 20
-83.457
 21
-85.424
  0
LINE
  8
0
 10
-157.039
 11
-158.222
 20
-85.424
 21
-87.002
  0
LINE
  8
0
 10
-158.222
 11
-160.069
 20
-87.002
 21
-87.692
  0
LINE
  8
0
 10
-160.069
 11
-161.996
 20
-87.692
 21
-87.272
  0
LINE
  8
0
 10
-161.996
 11
-163.39
 20
-87.272
 21
-85.878
  0
LINE
  8
0
 10
-163.39
 11
-163.81
 20
-85.878
 21
-83.951
  0
LINE
  8
0
 10
-151.057
 11
-151.045
 20
49.791
 21
50.344
  0
LINE
  8
0
 10
-151.045
 11
-150.965
 20
50.344
 21
50.891
  0
LINE
  8
0
 10
-150.965
 11
-150.816
 20
50.891
 21
51.423
  0
LINE
  8
0
 10
-150.816
 11
-150.602
 20
51.423
 21
51.932
  0
LINE
  8
0
 10
-150.602
 11
-150.326
 20
51.932
 21
52.41
  0
LINE
  8
0
 10
-150.326
 11
-149.992
 20
52.41
 21
52.851
  0
LINE
  8
0
 10
-149.992
 11
-149.605
 20
52.851
 21
53.246
  0
LINE
  8
0
 10
-149.605
 11
-149.172
 20
53.246
 21
53.589
  0
LINE
  8
0
 10
-149.172
 11
-148.699
 20
53.589
 21
53.876
  0
LINE
  8
0
 10
-148.699
 11
-148.194
 20
53.876
 21
54.1
  0
LINE
  8
0
 10
-148.194
 11
-147.666
 20
54.1
 21
54.259
  0
LINE
  8
0
 10
-147.666
 11
-147.12
 20
54.259
 21
54.352
  0
LINE
  8
0
 10
-147.12
 11
-146.569
 20
54.352
 21
54.375
  0
LINE
  8
0
 10
-146.569
 11
-146.018
 20
54.375
 21
54.329
  0
LINE
  8
0
 10
-146.018
 11
-145.477
 20
54.329
 21
54.214
  0
LINE
  8
0
 10
-145.477
 11
-144.956
 20
54.214
 21
54.032
  0
LINE
  8
0
 10
-144.956
 11
-144.461
 20
54.032
 21
53.786
  0
LINE
  8
0
 10
-144.461
 11
-144.001
 20
53.786
 21
53.481
  0
LINE
  8
0
 10
-144.001
 11
-143.582
 20
53.481
 21
53.12
  0
LINE
  8
0
 10
-143.582
 11
-143.212
 20
53.12
 21
52.709
  0
LINE
  8
0
 10
-143.212
 11
-142.897
 20
52.709
 21
52.255
  0
LINE
  8
0
 10
-142.897
 11
-142.641
 20
52.255
 21
51.766
  0
LINE
  8
0
 10
-142.641
 11
-142.449
 20
51.766
 21
51.247
  0
LINE
  8
0
 10
-142.449
 11
-142.323
 20
51.247
 21
50.71
  0
LINE
  8
0
 10
-142.323
 11
-142.265
 20
50.71
 21
50.161
  0
LINE
  8
0
 10
-142.265
 11
-142.277
 20
50.161
 21
49.608
  0
LINE
  8
0
 10
-142.277
 11
-142.357
 20
49.608
 21
49.061
  0
LINE
  8
0
 10
-142.357
 11
-142.506
 20
49.061
 21
48.529
  0
LINE
  8
0
 10
-142.506
 11
-142.72
 20
48.529
 21
48.019
  0
LINE
  8
0
 10
-142.72
 11
-142.996
 20
48.019
 21
47.541
  0
LINE
  8
0
 10
-142.996
 11
-143.33
 20
47.541
 21
47.101
  0
LINE
  8
0
 10
-143.33
 11
-143.717
 20
47.101
 21
46.706
  0
LINE
  8
0
 10
-143.717
 11
-144.15
 20
46.706
 21
46.363
  0
LINE
  8
0
 10
-144.15
 11
-144.623
 20
46.363
 21
46.076
  0
LINE
  8
0
 10
-144.623
 11
-145.128
 20
46.076
 21
45.852
  0
LINE
  8
0
 10
-145.128
 11
-145.656
 20
45.852
 21
45.693
  0
LINE
  8
0
 10
-145.656
 11
-146.201
 20
45.693
 21
45.6
  0
LINE
  8
0
 10
-146.201
 11
-146.753
 20
45.6
 21
45.577
  0
LINE
  8
0
 10
-146.753
 11
-147.303
 20
45.577
 21
45.623
  0
LINE
  8
0
 10
-147.303
 11
-147.844
 20
45.623
 21
45.738
  0
LINE
  8
0
 10
-147.844
 11
-148.366
 20
45.738
 21
45.92
  0
LINE
  8
0
 10
-148.366
 11
-148.861
 20
45.92
 21
46.165
  0
LINE
  8
0
 10
-148.861
 11
-149.321
 20
46.165
 21
46.471
  0
LINE
  8
0
 10
-149.321
 11
-149.739
 20
46.471
 21
46.832
  0
LINE
  8
0
 10
-149.739
 11
-150.109
 20
46.832
 21
47.243
  0
LINE
  8
0
 10
-150.109
 11
-150.425
 20
47.243
 21
47.697
  0
LINE
  8
0
 10
-150.425
 11
-150.68
 20
47.697
 21
48.186
  0
LINE
  8
0
 10
-150.68
 11
-150.873
 20
48.186
 21
48.705
  0
LINE
  8
0
 10
-150.873
 11
-150.999
 20
48.705
 21
49.242
  0
LINE
  8
0
 10
-150.999
 11
-151.057
 20
49.242
 21
49.791
  0
LINE
  8
0
 10
-138.367
 11
-138.361
 20
43.888
 21
44.152
  0
LINE
  8
0
 10
-138.361
 11
-138.323
 20
44.152
 21
44.412
  0
LINE
  8
0
 10
-138.323
 11
-138.252
 20
44.412
 21
44.666
  0
LINE
  8
0
 10
-138.252
 11
-138.15
 20
44.666
 21
44.91
  0
LINE
  8
0
 10
-138.15
 11
-138.018
 20
44.91
 21
45.138
  0
LINE
  8
0
 10
-138.018
 11
-137.858
 20
45.138
 21
45.349
  0
LINE
  8
0
 10
-137.858
 11
-137.674
 20
45.349
 21
45.536
  0
LINE
  8
0
 10
-137.674
 11
-137.467
 20
45.536
 21
45.7
  0
LINE
  8
0
 10
-137.467
 11
-137.242
 20
45.7
 21
45.837
  0
LINE
  8
0
 10
-137.242
 11
-137
 20
45.837
 21
45.945
  0
LINE
  8
0
 10
-137
 11
-136.748
 20
45.945
 21
46.021
  0
LINE
  8
0
 10
-136.748
 11
-136.488
 20
46.021
 21
46.064
  0
LINE
  8
0
 10
-136.488
 11
-136.225
 20
46.064
 21
46.075
  0
LINE
  8
0
 10
-136.225
 11
-135.961
 20
46.075
 21
46.054
  0
LINE
  8
0
 10
-135.961
 11
-135.704
 20
46.054
 21
45.998
  0
LINE
  8
0
 10
-135.704
 11
-135.455
 20
45.998
 21
45.911
  0
LINE
  8
0
 10
-135.455
 11
-135.219
 20
45.911
 21
45.795
  0
LINE
  8
0
 10
-135.219
 11
-134.999
 20
45.795
 21
45.648
  0
LINE
  8
0
 10
-134.999
 11
-134.799
 20
45.648
 21
45.476
  0
LINE
  8
0
 10
-134.799
 11
-134.623
 20
45.476
 21
45.281
  0
LINE
  8
0
 10
-134.623
 11
-134.472
 20
45.281
 21
45.063
  0
LINE
  8
0
 10
-134.472
 11
-134.35
 20
45.063
 21
44.83
  0
LINE
  8
0
 10
-134.35
 11
-134.258
 20
44.83
 21
44.583
  0
LINE
  8
0
 10
-134.258
 11
-134.198
 20
44.583
 21
44.327
  0
LINE
  8
0
 10
-134.198
 11
-134.171
 20
44.327
 21
44.064
  0
LINE
  8
0
 10
-134.171
 11
-134.176
 20
44.064
 21
43.8
  0
LINE
  8
0
 10
-134.176
 11
-134.215
 20
43.8
 21
43.539
  0
LINE
  8
0
 10
-134.215
 11
-134.285
 20
43.539
 21
43.286
  0
LINE
  8
0
 10
-134.285
 11
-134.387
 20
43.286
 21
43.042
  0
LINE
  8
0
 10
-134.387
 11
-134.519
 20
43.042
 21
42.814
  0
LINE
  8
0
 10
-134.519
 11
-134.679
 20
42.814
 21
42.603
  0
LINE
  8
0
 10
-134.679
 11
-134.864
 20
42.603
 21
42.415
  0
LINE
  8
0
 10
-134.864
 11
-135.07
 20
42.415
 21
42.252
  0
LINE
  8
0
 10
-135.07
 11
-135.296
 20
42.252
 21
42.115
  0
LINE
  8
0
 10
-135.296
 11
-135.537
 20
42.115
 21
42.007
  0
LINE
  8
0
 10
-135.537
 11
-135.789
 20
42.007
 21
41.931
  0
LINE
  8
0
 10
-135.789
 11
-136.049
 20
41.931
 21
41.888
  0
LINE
  8
0
 10
-136.049
 11
-136.312
 20
41.888
 21
41.876
  0
LINE
  8
0
 10
-136.312
 11
-136.576
 20
41.876
 21
41.898
  0
LINE
  8
0
 10
-136.576
 11
-136.833
 20
41.898
 21
41.953
  0
LINE
  8
0
 10
-136.833
 11
-137.082
 20
41.953
 21
42.041
  0
LINE
  8
0
 10
-137.082
 11
-137.319
 20
42.041
 21
42.157
  0
LINE
  8
0
 10
-137.319
 11
-137.538
 20
42.157
 21
42.304
  0
LINE
  8
0
 10
-137.538
 11
-137.738
 20
42.304
 21
42.475
  0
LINE
  8
0
 10
-137.738
 11
-137.914
 20
42.475
 21
42.671
  0
LINE
  8
0
 10
-137.914
 11
-138.065
 20
42.671
 21
42.888
  0
LINE
  8
0
 10
-138.065
 11
-138.187
 20
42.888
 21
43.122
  0
LINE
  8
0
 10
-138.187
 11
-138.279
 20
43.122
 21
43.369
  0
LINE
  8
0
 10
-138.279
 11
-138.339
 20
43.369
 21
43.625
  0
LINE
  8
0
 10
-138.339
 11
-138.367
 20
43.625
 21
43.888
  0
LINE
  8
0
 10
-131.99
 11
-131.301
 20
-115.771
 21
-113.923
  0
LINE
  8
0
 10
-131.301
 11
-129.722
 20
-113.923
 21
-112.741
  0
LINE
  8
0
 10
-129.722
 11
-127.755
 20
-112.741
 21
-112.601
  0
LINE
  8
0
 10
-127.755
 11
-126.024
 20
-112.601
 21
-113.546
  0
LINE
  8
0
 10
-126.024
 11
-125.079
 20
-113.546
 21
-115.277
  0
LINE
  8
0
 10
-125.079
 11
-125.219
 20
-115.277
 21
-117.244
  0
LINE
  8
0
 10
-125.219
 11
-126.402
 20
-117.244
 21
-118.822
  0
LINE
  8
0
 10
-126.402
 11
-128.249
 20
-118.822
 21
-119.511
  0
LINE
  8
0
 10
-128.249
 11
-130.176
 20
-119.511
 21
-119.092
  0
LINE
  8
0
 10
-130.176
 11
-131.571
 20
-119.092
 21
-117.698
  0
LINE
  8
0
 10
-131.571
 11
-131.99
 20
-117.698
 21
-115.771
  0
LINE
  8
0
 10
-121.007
 11
-120.995
 20
101.839
 21
102.392
  0
LINE
  8
0
 10
-120.995
 11
-120.915
 20
102.392
 21
102.939
  0
LINE
  8
0
 10
-120.915
 11
-120.766
 20
102.939
 21
103.471
  0
LINE
  8
0
 10
-120.766
 11
-120.552
 20
103.471
 21
103.981
  0
LINE
  8
0
 10
-120.552
 11
-120.276
 20
103.981
 21
104.459
  0
LINE
  8
0
 10
-120.276
 11
-119.942
 20
104.459
 21
104.899
  0
LINE
  8
0
 10
-119.942
 11
-119.555
 20
104.899
 21
105.294
  0
LINE
  8
0
 10
-119.555
 11
-119.122
 20
105.294
 21
105.637
  0
LINE
  8
0
 10
-119.122
 11
-118.649
 20
105.637
 21
105.924
  0
LINE
  8
0
 10
-118.649
 11
-118.144
 20
105.924
 21
106.148
  0
LINE
  8
0
 10
-118.144
 11
-117.616
 20
106.148
 21
106.307
  0
LINE
  8
0
 10
-117.616
 11
-117.07
 20
106.307
 21
106.4
  0
LINE
  8
0
 10
-117.07
 11
-116.519
 20
106.4
 21
106.423
  0
LINE
  8
0
 10
-116.519
 11
-115.968
 20
106.423
 21
106.377
  0
LINE
  8
0
 10
-115.968
 11
-115.427
 20
106.377
 21
106.262
  0
LINE
  8
0
 10
-115.427
 11
-114.906
 20
106.262
 21
106.08
  0
LINE
  8
0
 10
-114.906
 11
-114.411
 20
106.08
 21
105.835
  0
LINE
  8
0
 10
-114.411
 11
-113.951
 20
105.835
 21
105.529
  0
LINE
  8
0
 10
-113.951
 11
-113.532
 20
105.529
 21
105.168
  0
LINE
  8
0
 10
-113.532
 11
-113.162
 20
105.168
 21
104.757
  0
LINE
  8
0
 10
-113.162
 11
-112.847
 20
104.757
 21
104.303
  0
LINE
  8
0
 10
-112.847
 11
-112.591
 20
104.303
 21
103.814
  0
LINE
  8
0
 10
-112.591
 11
-112.399
 20
103.814
 21
103.295
  0
LINE
  8
0
 10
-112.399
 11
-112.273
 20
103.295
 21
102.758
  0
LINE
  8
0
 10
-112.273
 11
-112.215
 20
102.758
 21
102.209
  0
LINE
  8
0
 10
-112.215
 11
-112.227
 20
102.209
 21
101.656
  0
LINE
  8
0
 10
-112.227
 11
-112.307
 20
101.656
 21
101.109
  0
LINE
  8
0
 10
-112.307
 11
-112.456
 20
101.109
 21
100.577
  0
LINE
  8
0
 10
-112.456
 11
-112.67
 20
100.577
 21
100.068
  0
LINE
  8
0
 10
-112.67
 11
-112.946
 20
100.068
 21
99.59
  0
LINE
  8
0
 10
-112.946
 11
-113.28
 20
99.59
 21
99.149
  0
LINE
  8
0
 10
-113.28
 11
-113.667
 20
99.149
 21
98.754
  0
LINE
  8
0
 10
-113.667
 11
-114.1
 20
98.754
 21
98.411
  0
LINE
  8
0
 10
-114.1
 11
-114.573
 20
98.411
 21
98.124
  0
LINE
  8
0
 10
-114.573
 11
-115.078
 20
98.124
 21
97.9
  0
LINE
  8
0
 10
-115.078
 11
-115.606
 20
97.9
 21
97.741
  0
LINE
  8
0
 10
-115.606
 11
-116.151
 20
97.741
 21
97.648
  0
LINE
  8
0
 10
-116.151
 11
-116.703
 20
97.648
 21
97.625
  0
LINE
  8
0
 10
-116.703
 11
-117.253
 20
97.625
 21
97.671
  0
LINE
  8
0
 10
-117.253
 11
-117.794
 20
97.671
 21
97.786
  0
LINE
  8
0
 10
-117.794
 11
-118.316
 20
97.786
 21
97.968
  0
LINE
  8
0
 10
-118.316
 11
-118.811
 20
97.968
 21
98.214
  0
LINE
  8
0
 10
-118.811
 11
-119.271
 20
98.214
 21
98.519
  0
LINE
  8
0
 10
-119.271
 11
-119.689
 20
98.519
 21
98.88
  0
LINE
  8
0
 10
-119.689
 11
-120.059
 20
98.88
 21
99.291
  0
LINE
  8
0
 10
-120.059
 11
-120.375
 20
99.291
 21
99.745
  0
LINE
  8
0
 10
-120.375
 11
-120.63
 20
99.745
 21
100.234
  0
LINE
  8
0
 10
-120.63
 11
-120.823
 20
100.234
 21
100.753
  0
LINE
  8
0
 10
-120.823
 11
-120.949
 20
100.753
 21
101.29
  0
LINE
  8
0
 10
-120.949
 11
-121.007
 20
101.29
 21
101.839
  0
LINE
  8
0
 10
-108.317
 11
-108.311
 20
95.936
 21
96.2
  0
LINE
  8
0
 10
-108.311
 11
-108.273
 20
96.2
 21
96.461
  0
LINE
  8
0
 10
-108.273
 11
-108.202
 20
96.461
 21
96.714
  0
LINE
  8
0
 10
-108.202
 11
-108.1
 20
96.714
 21
96.958
  0
LINE
  8
0
 10
-108.1
 11
-107.968
 20
96.958
 21
97.186
  0
LINE
  8
0
 10
-107.968
 11
-107.808
 20
97.186
 21
97.397
  0
LINE
  8
0
 10
-107.808
 11
-107.624
 20
97.397
 21
97.585
  0
LINE
  8
0
 10
-107.624
 11
-107.417
 20
97.585
 21
97.748
  0
LINE
  8
0
 10
-107.417
 11
-107.192
 20
97.748
 21
97.885
  0
LINE
  8
0
 10
-107.192
 11
-106.95
 20
97.885
 21
97.993
  0
LINE
  8
0
 10
-106.95
 11
-106.698
 20
97.993
 21
98.069
  0
LINE
  8
0
 10
-106.698
 11
-106.438
 20
98.069
 21
98.112
  0
LINE
  8
0
 10
-106.438
 11
-106.175
 20
98.112
 21
98.124
  0
LINE
  8
0
 10
-106.175
 11
-105.911
 20
98.124
 21
98.102
  0
LINE
  8
0
 10
-105.911
 11
-105.654
 20
98.102
 21
98.047
  0
LINE
  8
0
 10
-105.654
 11
-105.405
 20
98.047
 21
97.959
  0
LINE
  8
0
 10
-105.405
 11
-105.169
 20
97.959
 21
97.843
  0
LINE
  8
0
 10
-105.169
 11
-104.949
 20
97.843
 21
97.696
  0
LINE
  8
0
 10
-104.949
 11
-104.749
 20
97.696
 21
97.525
  0
LINE
  8
0
 10
-104.749
 11
-104.573
 20
97.525
 21
97.329
  0
LINE
  8
0
 10
-104.573
 11
-104.422
 20
97.329
 21
97.112
  0
LINE
  8
0
 10
-104.422
 11
-104.3
 20
97.112
 21
96.878
  0
LINE
  8
0
 10
-104.3
 11
-104.208
 20
96.878
 21
96.631
  0
LINE
  8
0
 10
-104.208
 11
-104.148
 20
96.631
 21
96.375
  0
LINE
  8
0
 10
-104.148
 11
-104.121
 20
96.375
 21
96.112
  0
LINE
  8
0
 10
-104.121
 11
-104.126
 20
96.112
 21
95.848
  0
LINE
  8
0
 10
-104.126
 11
-104.165
 20
95.848
 21
95.588
  0
LINE
  8
0
 10
-104.165
 11
-104.235
 20
95.588
 21
95.334
  0
LINE
  8
0
 10
-104.235
 11
-104.337
 20
95.334
 21
95.09
  0
LINE
  8
0
 10
-104.337
 11
-104.469
 20
95.09
 21
94.862
  0
LINE
  8
0
 10
-104.469
 11
-104.629
 20
94.862
 21
94.651
  0
LINE
  8
0
 10
-104.629
 11
-104.814
 20
94.651
 21
94.464
  0
LINE
  8
0
 10
-104.814
 11
-105.02
 20
94.464
 21
94.3
  0
LINE
  8
0
 10
-105.02
 11
-105.246
 20
94.3
 21
94.163
  0
LINE
  8
0
 10
-105.246
 11
-105.487
 20
94.163
 21
94.055
  0
LINE
  8
0
 10
-105.487
 11
-105.739
 20
94.055
 21
93.979
  0
LINE
  8
0
 10
-105.739
 11
-105.999
 20
93.979
 21
93.936
  0
LINE
  8
0
 10
-105.999
 11
-106.262
 20
93.936
 21
93.925
  0
LINE
  8
0
 10
-106.262
 11
-106.526
 20
93.925
 21
93.946
  0
LINE
  8
0
 10
-106.526
 11
-106.783
 20
93.946
 21
94.002
  0
LINE
  8
0
 10
-106.783
 11
-107.032
 20
94.002
 21
94.089
  0
LINE
  8
0
 10
-107.032
 11
-107.269
 20
94.089
 21
94.205
  0
LINE
  8
0
 10
-107.269
 11
-107.488
 20
94.205
 21
94.352
  0
LINE
  8
0
 10
-107.488
 11
-107.688
 20
94.352
 21
94.524
  0
LINE
  8
0
 10
-107.688
 11
-107.864
 20
94.524
 21
94.719
  0
LINE
  8
0
 10
-107.864
 11
-108.015
 20
94.719
 21
94.937
  0
LINE
  8
0
 10
-108.015
 11
-108.137
 20
94.937
 21
95.17
  0
LINE
  8
0
 10
-108.137
 11
-108.229
 20
95.17
 21
95.417
  0
LINE
  8
0
 10
-108.229
 11
-108.289
 20
95.417
 21
95.673
  0
LINE
  8
0
 10
-108.289
 11
-108.317
 20
95.673
 21
95.936
  0
LINE
  8
0
 10
-107.19
 11
-107.184
 20
25.888
 21
26.152
  0
LINE
  8
0
 10
-107.184
 11
-107.146
 20
26.152
 21
26.412
  0
LINE
  8
0
 10
-107.146
 11
-107.075
 20
26.412
 21
26.666
  0
LINE
  8
0
 10
-107.075
 11
-106.973
 20
26.666
 21
26.91
  0
LINE
  8
0
 10
-106.973
 11
-106.841
 20
26.91
 21
27.138
  0
LINE
  8
0
 10
-106.841
 11
-106.681
 20
27.138
 21
27.349
  0
LINE
  8
0
 10
-106.681
 11
-106.497
 20
27.349
 21
27.536
  0
LINE
  8
0
 10
-106.497
 11
-106.29
 20
27.536
 21
27.7
  0
LINE
  8
0
 10
-106.29
 11
-106.065
 20
27.7
 21
27.837
  0
LINE
  8
0
 10
-106.065
 11
-105.823
 20
27.837
 21
27.945
  0
LINE
  8
0
 10
-105.823
 11
-105.571
 20
27.945
 21
28.021
  0
LINE
  8
0
 10
-105.571
 11
-105.311
 20
28.021
 21
28.064
  0
LINE
  8
0
 10
-105.311
 11
-105.048
 20
28.064
 21
28.075
  0
LINE
  8
0
 10
-105.048
 11
-104.785
 20
28.075
 21
28.054
  0
LINE
  8
0
 10
-104.785
 11
-104.527
 20
28.054
 21
27.998
  0
LINE
  8
0
 10
-104.527
 11
-104.278
 20
27.998
 21
27.911
  0
LINE
  8
0
 10
-104.278
 11
-104.042
 20
27.911
 21
27.795
  0
LINE
  8
0
 10
-104.042
 11
-103.822
 20
27.795
 21
27.648
  0
LINE
  8
0
 10
-103.822
 11
-103.623
 20
27.648
 21
27.476
  0
LINE
  8
0
 10
-103.623
 11
-103.446
 20
27.476
 21
27.281
  0
LINE
  8
0
 10
-103.446
 11
-103.295
 20
27.281
 21
27.063
  0
LINE
  8
0
 10
-103.295
 11
-103.173
 20
27.063
 21
26.83
  0
LINE
  8
0
 10
-103.173
 11
-103.081
 20
26.83
 21
26.583
  0
LINE
  8
0
 10
-103.081
 11
-103.021
 20
26.583
 21
26.327
  0
LINE
  8
0
 10
-103.021
 11
-102.994
 20
26.327
 21
26.064
  0
LINE
  8
0
 10
-102.994
 11
-102.999
 20
26.064
 21
25.8
  0
LINE
  8
0
 10
-102.999
 11
-103.038
 20
25.8
 21
25.539
  0
LINE
  8
0
 10
-103.038
 11
-103.108
 20
25.539
 21
25.286
  0
LINE
  8
0
 10
-103.108
 11
-103.21
 20
25.286
 21
25.042
  0
LINE
  8
0
 10
-103.21
 11
-103.342
 20
25.042
 21
24.814
  0
LINE
  8
0
 10
-103.342
 11
-103.502
 20
24.814
 21
24.603
  0
LINE
  8
0
 10
-103.502
 11
-103.687
 20
24.603
 21
24.415
  0
LINE
  8
0
 10
-103.687
 11
-103.893
 20
24.415
 21
24.252
  0
LINE
  8
0
 10
-103.893
 11
-104.119
 20
24.252
 21
24.115
  0
LINE
  8
0
 10
-104.119
 11
-104.36
 20
24.115
 21
24.007
  0
LINE
  8
0
 10
-104.36
 11
-104.612
 20
24.007
 21
23.931
  0
LINE
  8
0
 10
-104.612
 11
-104.872
 20
23.931
 21
23.888
  0
LINE
  8
0
 10
-104.872
 11
-105.135
 20
23.888
 21
23.876
  0
LINE
  8
0
 10
-105.135
 11
-105.399
 20
23.876
 21
23.898
  0
LINE
  8
0
 10
-105.399
 11
-105.657
 20
23.898
 21
23.953
  0
LINE
  8
0
 10
-105.657
 11
-105.905
 20
23.953
 21
24.041
  0
LINE
  8
0
 10
-105.905
 11
-106.142
 20
24.041
 21
24.157
  0
LINE
  8
0
 10
-106.142
 11
-106.361
 20
24.157
 21
24.304
  0
LINE
  8
0
 10
-106.361
 11
-106.561
 20
24.304
 21
24.475
  0
LINE
  8
0
 10
-106.561
 11
-106.738
 20
24.475
 21
24.671
  0
LINE
  8
0
 10
-106.738
 11
-106.888
 20
24.671
 21
24.888
  0
LINE
  8
0
 10
-106.888
 11
-107.01
 20
24.888
 21
25.122
  0
LINE
  8
0
 10
-107.01
 11
-107.102
 20
25.122
 21
25.369
  0
LINE
  8
0
 10
-107.102
 11
-107.162
 20
25.369
 21
25.625
  0
LINE
  8
0
 10
-107.162
 11
-107.19
 20
25.625
 21
25.888
  0
LINE
  8
0
 10
-100.17
 11
-99.481
 20
-147.591
 21
-145.743
  0
LINE
  8
0
 10
-99.481
 11
-97.902
 20
-145.743
 21
-144.561
  0
LINE
  8
0
 10
-97.902
 11
-95.935
 20
-144.561
 21
-144.421
  0
LINE
  8
0
 10
-95.935
 11
-94.204
 20
-144.421
 21
-145.365
  0
LINE
  8
0
 10
-94.204
 11
-93.26
 20
-145.365
 21
-147.096
  0
LINE
  8
0
 10
-93.26
 11
-93.4
 20
-147.096
 21
-149.064
  0
LINE
  8
0
 10
-93.4
 11
-94.582
 20
-149.064
 21
-150.642
  0
LINE
  8
0
 10
-94.582
 11
-96.43
 20
-150.642
 21
-151.331
  0
LINE
  8
0
 10
-96.43
 11
-98.356
 20
-151.331
 21
-150.912
  0
LINE
  8
0
 10
-98.356
 11
-99.751
 20
-150.912
 21
-149.518
  0
LINE
  8
0
 10
-99.751
 11
-100.17
 20
-149.518
 21
-147.591
  0
LINE
  8
0
 10
-77.14
 11
-77.134
 20
77.936
 21
78.2
  0
LINE
  8
0
 10
-77.134
 11
-77.096
 20
78.2
 21
78.461
  0
LINE
  8
0
 10
-77.096
 11
-77.025
 20
78.461
 21
78.714
  0
LINE
  8
0
 10
-77.025
 11
-76.923
 20
78.714
 21
78.958
  0
LINE
  8
0
 10
-76.923
 11
-76.791
 20
78.958
 21
79.186
  0
LINE
  8
0
 10
-76.791
 11
-76.631
 20
79.186
 21
79.397
  0
LINE
  8
0
 10
-76.631
 11
-76.447
 20
79.397
 21
79.585
  0
LINE
  8
0
 10
-76.447
 11
-76.24
 20
79.585
 21
79.748
  0
LINE
  8
0
 10
-76.24
 11
-76.015
 20
79.748
 21
79.885
  0
LINE
  8
0
 10
-76.015
 11
-75.773
 20
79.885
 21
79.993
  0
LINE
  8
0
 10
-75.773
 11
-75.521
 20
79.993
 21
80.069
  0
LINE
  8
0
 10
-75.521
 11
-75.261
 20
80.069
 21
80.112
  0
LINE
  8
0
 10
-75.261
 11
-74.998
 20
80.112
 21
80.124
  0
LINE
  8
0
 10
-74.998
 11
-74.735
 20
80.124
 21
80.102
  0
LINE
  8
0
 10
-74.735
 11
-74.477
 20
80.102
 21
80.047
  0
LINE
  8
0
 10
-74.477
 11
-74.228
 20
80.047
 21
79.959
  0
LINE
  8
0
 10
-74.228
 11
-73.992
 20
79.959
 21
79.843
  0
LINE
  8
0
 10
-73.992
 11
-73.772
 20
79.843
 21
79.696
  0
LINE
  8
0
 10
-73.772
 11
-73.573
 20
79.696
 21
79.525
  0
LINE
  8
0
 10
-73.573
 11
-73.396
 20
79.525
 21
79.329
  0
LINE
  8
0
 10
-73.396
 11
-73.245
 20
79.329
 21
79.112
  0
LINE
  8
0
 10
-73.245
 11
-73.123
 20
79.112
 21
78.878
  0
LINE
  8
0
 10
-73.123
 11
-73.031
 20
78.878
 21
78.631
  0
LINE
  8
0
 10
-73.031
 11
-72.971
 20
78.631
 21
78.375
  0
LINE
  8
0
 10
-72.971
 11
-72.944
 20
78.375
 21
78.112
  0
LINE
  8
0
 10
-72.944
 11
-72.949
 20
78.112
 21
77.848
  0
LINE
  8
0
 10
-72.949
 11
-72.988
 20
77.848
 21
77.588
  0
LINE
  8
0
 10
-72.988
 11
-73.058
 20
77.588
 21
77.334
  0
LINE
  8
0
 10
-73.058
 11
-73.16
 20
77.334
 21
77.09
  0
LINE
  8
0
 10
-73.16
 11
-73.292
 20
77.09
 21
76.862
  0
LINE
  8
0
 10
-73.292
 11
-73.452
 20
76.862
 21
76.651
  0
LINE
  8
0
 10
-73.452
 11
-73.637
 20
76.651
 21
76.464
  0
LINE
  8
0
 10
-73.637
 11
-73.843
 20
76.464
 21
76.3
  0
LINE
  8
0
 10
-73.843
 11
-74.069
 20
76.3
 21
76.163
  0
LINE
  8
0
 10
-74.069
 11
-74.31
 20
76.163
 21
76.055
  0
LINE
  8
0
 10
-74.31
 11
-74.562
 20
76.055
 21
75.979
  0
LINE
  8
0
 10
-74.562
 11
-74.822
 20
75.979
 21
75.936
  0
LINE
  8
0
 10
-74.822
 11
-75.085
 20
75.936
 21
75.925
  0
LINE
  8
0
 10
-75.085
 11
-75.349
 20
75.925
 21
75.946
  0
LINE
  8
0
 10
-75.349
 11
-75.607
 20
75.946
 21
76.002
  0
LINE
  8
0
 10
-75.607
 11
-75.855
 20
76.002
 21
76.089
  0
LINE
  8
0
 10
-75.855
 11
-76.092
 20
76.089
 21
76.205
  0
LINE
  8
0
 10
-76.092
 11
-76.311
 20
76.205
 21
76.352
  0
LINE
  8
0
 10
-76.311
 11
-76.511
 20
76.352
 21
76.524
  0
LINE
  8
0
 10
-76.511
 11
-76.688
 20
76.524
 21
76.719
  0
LINE
  8
0
 10
-76.688
 11
-76.838
 20
76.719
 21
76.937
  0
LINE
  8
0
 10
-76.838
 11
-76.96
 20
76.937
 21
77.17
  0
LINE
  8
0
 10
-76.96
 11
-77.052
 20
77.17
 21
77.417
  0
LINE
  8
0
 10
-77.052
 11
-77.112
 20
77.417
 21
77.673
  0
LINE
  8
0
 10
-77.112
 11
-77.14
 20
77.673
 21
77.936
  0
LINE
  8
0
 10
-68.35
 11
-67.661
 20
-179.41
 21
-177.563
  0
LINE
  8
0
 10
-67.661
 11
-66.083
 20
-177.563
 21
-176.381
  0
LINE
  8
0
 10
-66.083
 11
-64.115
 20
-176.381
 21
-176.241
  0
LINE
  8
0
 10
-64.115
 11
-62.384
 20
-176.241
 21
-177.185
  0
LINE
  8
0
 10
-62.384
 11
-61.44
 20
-177.185
 21
-178.916
  0
LINE
  8
0
 10
-61.44
 11
-61.58
 20
-178.916
 21
-180.883
  0
LINE
  8
0
 10
-61.58
 11
-62.762
 20
-180.883
 21
-182.462
  0
LINE
  8
0
 10
-62.762
 11
-64.61
 20
-182.462
 21
-183.151
  0
LINE
  8
0
 10
-64.61
 11
-66.537
 20
-183.151
 21
-182.732
  0
LINE
  8
0
 10
-66.537
 11
-67.931
 20
-182.732
 21
-181.337
  0
LINE
  8
0
 10
-67.931
 11
-68.35
 20
-181.337
 21
-179.41
  0
LINE
  8
0
 10
-36.531
 11
-35.841
 20
-211.23
 21
-209.383
  0
LINE
  8
0
 10
-35.841
 11
-34.263
 20
-209.383
 21
-208.2
  0
LINE
  8
0
 10
-34.263
 11
-32.296
 20
-208.2
 21
-208.06
  0
LINE
  8
0
 10
-32.296
 11
-30.565
 20
-208.06
 21
-209.005
  0
LINE
  8
0
 10
-30.565
 11
-29.62
 20
-209.005
 21
-210.736
  0
LINE
  8
0
 10
-29.62
 11
-29.76
 20
-210.736
 21
-212.703
  0
LINE
  8
0
 10
-29.76
 11
-30.942
 20
-212.703
 21
-214.281
  0
LINE
  8
0
 10
-30.942
 11
-32.79
 20
-214.281
 21
-214.971
  0
LINE
  8
0
 10
-32.79
 11
-34.717
 20
-214.971
 21
-214.552
  0
LINE
  8
0
 10
-34.717
 11
-36.111
 20
-214.552
 21
-213.157
  0
LINE
  8
0
 10
-36.111
 11
-36.531
 20
-213.157
 21
-211.23
  0
LINE
  8
0
 10
-34.45
 11
-34.415
 20
-152
 21
-151.449
  0
LINE
  8
0
 10
-34.415
 11
-34.312
 20
-151.449
 21
-150.906
  0
LINE
  8
0
 10
-34.312
 11
-34.141
 20
-150.906
 21
-150.38
  0
LINE
  8
0
 10
-34.141
 11
-33.906
 20
-150.38
 21
-149.88
  0
LINE
  8
0
 10
-33.906
 11
-33.61
 20
-149.88
 21
-149.414
  0
LINE
  8
0
 10
-33.61
 11
-33.257
 20
-149.414
 21
-148.988
  0
LINE
  8
0
 10
-33.257
 11
-32.855
 20
-148.988
 21
-148.61
  0
LINE
  8
0
 10
-32.855
 11
-32.408
 20
-148.61
 21
-148.285
  0
LINE
  8
0
 10
-32.408
 11
-31.923
 20
-148.285
 21
-148.019
  0
LINE
  8
0
 10
-31.923
 11
-31.41
 20
-148.019
 21
-147.815
  0
LINE
  8
0
 10
-31.41
 11
-30.874
 20
-147.815
 21
-147.678
  0
LINE
  8
0
 10
-30.874
 11
-30.326
 20
-147.678
 21
-147.609
  0
LINE
  8
0
 10
-30.326
 11
-29.774
 20
-147.609
 21
-147.609
  0
LINE
  8
0
 10
-29.774
 11
-29.226
 20
-147.609
 21
-147.678
  0
LINE
  8
0
 10
-29.226
 11
-28.69
 20
-147.678
 21
-147.815
  0
LINE
  8
0
 10
-28.69
 11
-28.177
 20
-147.815
 21
-148.019
  0
LINE
  8
0
 10
-28.177
 11
-27.692
 20
-148.019
 21
-148.285
  0
LINE
  8
0
 10
-27.692
 11
-27.245
 20
-148.285
 21
-148.61
  0
LINE
  8
0
 10
-27.245
 11
-26.843
 20
-148.61
 21
-148.988
  0
LINE
  8
0
 10
-26.843
 11
-26.49
 20
-148.988
 21
-149.414
  0
LINE
  8
0
 10
-26.49
 11
-26.194
 20
-149.414
 21
-149.88
  0
LINE
  8
0
 10
-26.194
 11
-25.959
 20
-149.88
 21
-150.38
  0
LINE
  8
0
 10
-25.959
 11
-25.788
 20
-150.38
 21
-150.906
  0
LINE
  8
0
 10
-25.788
 11
-25.685
 20
-150.906
 21
-151.449
  0
LINE
  8
0
 10
-25.685
 11
-25.65
 20
-151.449
 21
-152
  0
LINE
  8
0
 10
-25.65
 11
-25.685
 20
-152
 21
-152.551
  0
LINE
  8
0
 10
-25.685
 11
-25.788
 20
-152.551
 21
-153.094
  0
LINE
  8
0
 10
-25.788
 11
-25.959
 20
-153.094
 21
-153.62
  0
LINE
  8
0
 10
-25.959
 11
-26.194
 20
-153.62
 21
-154.12
  0
LINE
  8
0
 10
-26.194
 11
-26.49
 20
-154.12
 21
-154.586
  0
LINE
  8
0
 10
-26.49
 11
-26.843
 20
-154.586
 21
-155.012
  0
LINE
  8
0
 10
-26.843
 11
-27.245
 20
-155.012
 21
-155.39
  0
LINE
  8
0
 10
-27.245
 11
-27.692
 20
-155.39
 21
-155.715
  0
LINE
  8
0
 10
-27.692
 11
-28.177
 20
-155.715
 21
-155.981
  0
LINE
  8
0
 10
-28.177
 11
-28.69
 20
-155.981
 21
-156.185
  0
LINE
  8
0
 10
-28.69
 11
-29.226
 20
-156.185
 21
-156.322
  0
LINE
  8
0
 10
-29.226
 11
-29.774
 20
-156.322
 21
-156.391
  0
LINE
  8
0
 10
-29.774
 11
-30.326
 20
-156.391
 21
-156.391
  0
LINE
  8
0
 10
-30.326
 11
-30.874
 20
-156.391
 21
-156.322
  0
LINE
  8
0
 10
-30.874
 11
-31.41
 20
-156.322
 21
-156.185
  0
LINE
  8
0
 10
-31.41
 11
-31.923
 20
-156.185
 21
-155.981
  0
LINE
  8
0
 10
-31.923
 11
-32.408
 20
-155.981
 21
-155.715
  0
LINE
  8
0
 10
-32.408
 11
-32.855
 20
-155.715
 21
-155.39
  0
LINE
  8
0
 10
-32.855
 11
-33.257
 20
-155.39
 21
-155.012
  0
LINE
  8
0
 10
-33.257
 11
-33.61
 20
-155.012
 21
-154.586
  0
LINE
  8
0
 10
-33.61
 11
-33.906
 20
-154.586
 21
-154.12
  0
LINE
  8
0
 10
-33.906
 11
-34.141
 20
-154.12
 21
-153.62
  0
LINE
  8
0
 10
-34.141
 11
-34.312
 20
-153.62
 21
-153.094
  0
LINE
  8
0
 10
-34.312
 11
-34.415
 20
-153.094
 21
-152.551
  0
LINE
  8
0
 10
-34.415
 11
-34.45
 20
-152.551
 21
-152
  0
LINE
  8
0
 10
-32.15
 11
-32.133
 20
-140
 21
-139.737
  0
LINE
  8
0
 10
-32.133
 11
-32.084
 20
-139.737
 21
-139.478
  0
LINE
  8
0
 10
-32.084
 11
-32.003
 20
-139.478
 21
-139.227
  0
LINE
  8
0
 10
-32.003
 11
-31.89
 20
-139.227
 21
-138.988
  0
LINE
  8
0
 10
-31.89
 11
-31.749
 20
-138.988
 21
-138.766
  0
LINE
  8
0
 10
-31.749
 11
-31.581
 20
-138.766
 21
-138.562
  0
LINE
  8
0
 10
-31.581
 11
-31.389
 20
-138.562
 21
-138.382
  0
LINE
  8
0
 10
-31.389
 11
-31.175
 20
-138.382
 21
-138.227
  0
LINE
  8
0
 10
-31.175
 11
-30.944
 20
-138.227
 21
-138.1
  0
LINE
  8
0
 10
-30.944
 11
-30.699
 20
-138.1
 21
-138.003
  0
LINE
  8
0
 10
-30.699
 11
-30.444
 20
-138.003
 21
-137.937
  0
LINE
  8
0
 10
-30.444
 11
-30.182
 20
-137.937
 21
-137.904
  0
LINE
  8
0
 10
-30.182
 11
-29.918
 20
-137.904
 21
-137.904
  0
LINE
  8
0
 10
-29.918
 11
-29.656
 20
-137.904
 21
-137.937
  0
LINE
  8
0
 10
-29.656
 11
-29.401
 20
-137.937
 21
-138.003
  0
LINE
  8
0
 10
-29.401
 11
-29.156
 20
-138.003
 21
-138.1
  0
LINE
  8
0
 10
-29.156
 11
-28.925
 20
-138.1
 21
-138.227
  0
LINE
  8
0
 10
-28.925
 11
-28.711
 20
-138.227
 21
-138.382
  0
LINE
  8
0
 10
-28.711
 11
-28.519
 20
-138.382
 21
-138.562
  0
LINE
  8
0
 10
-28.519
 11
-28.351
 20
-138.562
 21
-138.766
  0
LINE
  8
0
 10
-28.351
 11
-28.21
 20
-138.766
 21
-138.988
  0
LINE
  8
0
 10
-28.21
 11
-28.097
 20
-138.988
 21
-139.227
  0
LINE
  8
0
 10
-28.097
 11
-28.016
 20
-139.227
 21
-139.478
  0
LINE
  8
0
 10
-28.016
 11
-27.967
 20
-139.478
 21
-139.737
  0
LINE
  8
0
 10
-27.967
 11
-27.95
 20
-139.737
 21
-140
  0
LINE
  8
0
 10
-27.95
 11
-27.967
 20
-140
 21
-140.263
  0
LINE
  8
0
 10
-27.967
 11
-28.016
 20
-140.263
 21
-140.522
  0
LINE
  8
0
 10
-28.016
 11
-28.097
 20
-140.522
 21
-140.773
  0
LINE
  8
0
 10
-28.097
 11
-28.21
 20
-140.773
 21
-141.012
  0
LINE
  8
0
 10
-28.21
 11
-28.351
 20
-141.012
 21
-141.234
  0
LINE
  8
0
 10
-28.351
 11
-28.519
 20
-141.234
 21
-141.438
  0
LINE
  8
0
 10
-28.519
 11
-28.711
 20
-141.438
 21
-141.618
  0
LINE
  8
0
 10
-28.711
 11
-28.925
 20
-141.618
 21
-141.773
  0
LINE
  8
0
 10
-28.925
 11
-29.156
 20
-141.773
 21
-141.9
  0
LINE
  8
0
 10
-29.156
 11
-29.401
 20
-141.9
 21
-141.997
  0
LINE
  8
0
 10
-29.401
 11
-29.656
 20
-141.997
 21
-142.063
  0
LINE
  8
0
 10
-29.656
 11
-29.918
 20
-142.063
 21
-142.096
  0
LINE
  8
0
 10
-29.918
 11
-30.182
 20
-142.096
 21
-142.096
  0
LINE
  8
0
 10
-30.182
 11
-30.444
 20
-142.096
 21
-142.063
  0
LINE
  8
0
 10
-30.444
 11
-30.699
 20
-142.063
 21
-141.997
  0
LINE
  8
0
 10
-30.699
 11
-30.944
 20
-141.997
 21
-141.9
  0
LINE
  8
0
 10
-30.944
 11
-31.175
 20
-141.9
 21
-141.773
  0
LINE
  8
0
 10
-31.175
 11
-31.389
 20
-141.773
 21
-141.618
  0
LINE
  8
0
 10
-31.389
 11
-31.581
 20
-141.618
 21
-141.438
  0
LINE
  8
0
 10
-31.581
 11
-31.749
 20
-141.438
 21
-141.234
  0
LINE
  8
0
 10
-31.749
 11
-31.89
 20
-141.234
 21
-141.012
  0
LINE
  8
0
 10
-31.89
 11
-32.003
 20
-141.012
 21
-140.773
  0
LINE
  8
0
 10
-32.003
 11
-32.084
 20
-140.773
 21
-140.522
  0
LINE
  8
0
 10
-32.084
 11
-32.133
 20
-140.522
 21
-140.263
  0
LINE
  8
0
 10
-32.133
 11
-32.15
 20
-140.263
 21
-140
  0
LINE
  8
0
 10
-32.15
 11
-32.133
 20
-104
 21
-103.737
  0
LINE
  8
0
 10
-32.133
 11
-32.084
 20
-103.737
 21
-103.478
  0
LINE
  8
0
 10
-32.084
 11
-32.003
 20
-103.478
 21
-103.227
  0
LINE
  8
0
 10
-32.003
 11
-31.89
 20
-103.227
 21
-102.988
  0
LINE
  8
0
 10
-31.89
 11
-31.749
 20
-102.988
 21
-102.766
  0
LINE
  8
0
 10
-31.749
 11
-31.581
 20
-102.766
 21
-102.562
  0
LINE
  8
0
 10
-31.581
 11
-31.389
 20
-102.562
 21
-102.382
  0
LINE
  8
0
 10
-31.389
 11
-31.175
 20
-102.382
 21
-102.227
  0
LINE
  8
0
 10
-31.175
 11
-30.944
 20
-102.227
 21
-102.1
  0
LINE
  8
0
 10
-30.944
 11
-30.699
 20
-102.1
 21
-102.003
  0
LINE
  8
0
 10
-30.699
 11
-30.444
 20
-102.003
 21
-101.937
  0
LINE
  8
0
 10
-30.444
 11
-30.182
 20
-101.937
 21
-101.904
  0
LINE
  8
0
 10
-30.182
 11
-29.918
 20
-101.904
 21
-101.904
  0
LINE
  8
0
 10
-29.918
 11
-29.656
 20
-101.904
 21
-101.937
  0
LINE
  8
0
 10
-29.656
 11
-29.401
 20
-101.937
 21
-102.003
  0
LINE
  8
0
 10
-29.401
 11
-29.156
 20
-102.003
 21
-102.1
  0
LINE
  8
0
 10
-29.156
 11
-28.925
 20
-102.1
 21
-102.227
  0
LINE
  8
0
 10
-28.925
 11
-28.711
 20
-102.227
 21
-102.382
  0
LINE
  8
0
 10
-28.711
 11
-28.519
 20
-102.382
 21
-102.562
  0
LINE
  8
0
 10
-28.519
 11
-28.351
 20
-102.562
 21
-102.766
  0
LINE
  8
0
 10
-28.351
 11
-28.21
 20
-102.766
 21
-102.988
  0
LINE
  8
0
 10
-28.21
 11
-28.097
 20
-102.988
 21
-103.227
  0
LINE
  8
0
 10
-28.097
 11
-28.016
 20
-103.227
 21
-103.478
  0
LINE
  8
0
 10
-28.016
 11
-27.967
 20
-103.478
 21
-103.737
  0
LINE
  8
0
 10
-27.967
 11
-27.95
 20
-103.737
 21
-104
  0
LINE
  8
0
 10
-27.95
 11
-27.967
 20
-104
 21
-104.263
  0
LINE
  8
0
 10
-27.967
 11
-28.016
 20
-104.263
 21
-104.522
  0
LINE
  8
0
 10
-28.016
 11
-28.097
 20
-104.522
 21
-104.773
  0
LINE
  8
0
 10
-28.097
 11
-28.21
 20
-104.773
 21
-105.012
  0
LINE
  8
0
 10
-28.21
 11
-28.351
 20
-105.012
 21
-105.234
  0
LINE
  8
0
 10
-28.351
 11
-28.519
 20
-105.234
 21
-105.438
  0
LINE
  8
0
 10
-28.519
 11
-28.711
 20
-105.438
 21
-105.618
  0
LINE
  8
0
 10
-28.711
 11
-28.925
 20
-105.618
 21
-105.773
  0
LINE
  8
0
 10
-28.925
 11
-29.156
 20
-105.773
 21
-105.9
  0
LINE
  8
0
 10
-29.156
 11
-29.401
 20
-105.9
 21
-105.997
  0
LINE
  8
0
 10
-29.401
 11
-29.656
 20
-105.997
 21
-106.063
  0
LINE
  8
0
 10
-29.656
 11
-29.918
 20
-106.063
 21
-106.096
  0
LINE
  8
0
 10
-29.918
 11
-30.182
 20
-106.096
 21
-106.096
  0
LINE
  8
0
 10
-30.182
 11
-30.444
 20
-106.096
 21
-106.063
  0
LINE
  8
0
 10
-30.444
 11
-30.699
 20
-106.063
 21
-105.997
  0
LINE
  8
0
 10
-30.699
 11
-30.944
 20
-105.997
 21
-105.9
  0
LINE
  8
0
 10
-30.944
 11
-31.175
 20
-105.9
 21
-105.773
  0
LINE
  8
0
 10
-31.175
 11
-31.389
 20
-105.773
 21
-105.618
  0
LINE
  8
0
 10
-31.389
 11
-31.581
 20
-105.618
 21
-105.438
  0
LINE
  8
0
 10
-31.581
 11
-31.749
 20
-105.438
 21
-105.234
  0
LINE
  8
0
 10
-31.749
 11
-31.89
 20
-105.234
 21
-105.012
  0
LINE
  8
0
 10
-31.89
 11
-32.003
 20
-105.012
 21
-104.773
  0
LINE
  8
0
 10
-32.003
 11
-32.084
 20
-104.773
 21
-104.522
  0
LINE
  8
0
 10
-32.084
 11
-32.133
 20
-104.522
 21
-104.263
  0
LINE
  8
0
 10
-32.133
 11
-32.15
 20
-104.263
 21
-104
  0
LINE
  8
0
 10
-18.625
 11
-18.625
 20
-180.19
 21
-153.14
  0
LINE
  8
0
 10
-18.625
 11
18.625
 20
-153.14
 21
-153.14
  0
LINE
  8
0
 10
18.625
 11
18.625
 20
-153.14
 21
-180.19
  0
LINE
  8
0
 10
18.625
 11
-18.625
 20
-180.19
 21
-180.19
  0
LINE
  8
0
 10
25.65
 11
25.685
 20
-152
 21
-151.449
  0
LINE
  8
0
 10
25.685
 11
25.788
 20
-151.449
 21
-150.906
  0
LINE
  8
0
 10
25.788
 11
25.959
 20
-150.906
 21
-150.38
  0
LINE
  8
0
 10
25.959
 11
26.194
 20
-150.38
 21
-149.88
  0
LINE
  8
0
 10
26.194
 11
26.49
 20
-149.88
 21
-149.414
  0
LINE
  8
0
 10
26.49
 11
26.843
 20
-149.414
 21
-148.988
  0
LINE
  8
0
 10
26.843
 11
27.245
 20
-148.988
 21
-148.61
  0
LINE
  8
0
 10
27.245
 11
27.692
 20
-148.61
 21
-148.285
  0
LINE
  8
0
 10
27.692
 11
28.177
 20
-148.285
 21
-148.019
  0
LINE
  8
0
 10
28.177
 11
28.69
 20
-148.019
 21
-147.815
  0
LINE
  8
0
 10
28.69
 11
29.226
 20
-147.815
 21
-147.678
  0
LINE
  8
0
 10
29.226
 11
29.774
 20
-147.678
 21
-147.609
  0
LINE
  8
0
 10
29.774
 11
30.326
 20
-147.609
 21
-147.609
  0
LINE
  8
0
 10
30.326
 11
30.874
 20
-147.609
 21
-147.678
  0
LINE
  8
0
 10
30.874
 11
31.41
 20
-147.678
 21
-147.815
  0
LINE
  8
0
 10
31.41
 11
31.923
 20
-147.815
 21
-148.019
  0
LINE
  8
0
 10
31.923
 11
32.408
 20
-148.019
 21
-148.285
  0
LINE
  8
0
 10
32.408
 11
32.855
 20
-148.285
 21
-148.61
  0
LINE
  8
0
 10
32.855
 11
33.257
 20
-148.61
 21
-148.988
  0
LINE
  8
0
 10
33.257
 11
33.61
 20
-148.988
 21
-149.414
  0
LINE
  8
0
 10
33.61
 11
33.906
 20
-149.414
 21
-149.88
  0
LINE
  8
0
 10
33.906
 11
34.141
 20
-149.88
 21
-150.38
  0
LINE
  8
0
 10
34.141
 11
34.312
 20
-150.38
 21
-150.906
  0
LINE
  8
0
 10
34.312
 11
34.415
 20
-150.906
 21
-151.449
  0
LINE
  8
0
 10
34.415
 11
34.45
 20
-151.449
 21
-152
  0
LINE
  8
0
 10
34.45
 11
34.415
 20
-152
 21
-152.551
  0
LINE
  8
0
 10
34.415
 11
34.312
 20
-152.551
 21
-153.094
  0
LINE
  8
0
 10
34.312
 11
34.141
 20
-153.094
 21
-153.62
  0
LINE
  8
0
 10
34.141
 11
33.906
 20
-153.62
 21
-154.12
  0
LINE
  8
0
 10
33.906
 11
33.61
 20
-154.12
 21
-154.586
  0
LINE
  8
0
 10
33.61
 11
33.257
 20
-154.586
 21
-155.012
  0
LINE
  8
0
 10
33.257
 11
32.855
 20
-155.012
 21
-155.39
  0
LINE
  8
0
 10
32.855
 11
32.408
 20
-155.39
 21
-155.715
  0
LINE
  8
0
 10
32.408
 11
31.923
 20
-155.715
 21
-155.981
  0
LINE
  8
0
 10
31.923
 11
31.41
 20
-155.981
 21
-156.185
  0
LINE
  8
0
 10
31.41
 11
30.874
 20
-156.185
 21
-156.322
  0
LINE
  8
0
 10
30.874
 11
30.326
 20
-156.322
 21
-156.391
  0
LINE
  8
0
 10
30.326
 11
29.774
 20
-156.391
 21
-156.391
  0
LINE
  8
0
 10
29.774
 11
29.226
 20
-156.391
 21
-156.322
  0
LINE
  8
0
 10
29.226
 11
28.69
 20
-156.322
 21
-156.185
  0
LINE
  8
0
 10
28.69
 11
28.177
 20
-156.185
 21
-155.981
  0
LINE
  8
0
 10
28.177
 11
27.692
 20
-155.981
 21
-155.715
  0
LINE
  8
0
 10
27.692
 11
27.245
 20
-155.715
 21
-155.39
  0
LINE
  8
0
 10
27.245
 11
26.843
 20
-155.39
 21
-155.012
  0
LINE
  8
0
 10
26.843
 11
26.49
 20
-155.012
 21
-154.586
  0
LINE
  8
0
 10
26.49
 11
26.194
 20
-154.586
 21
-154.12
  0
LINE
  8
0
 10
26.194
 11
25.959
 20
-154.12
 21
-153.62
  0
LINE
  8
0
 10
25.959
 11
25.788
 20
-153.62
 21
-153.094
  0
LINE
  8
0
 10
25.788
 11
25.685
 20
-153.094
 21
-152.551
  0
LINE
  8
0
 10
25.685
 11
25.65
 20
-152.551
 21
-152
  0
LINE
  8
0
 10
27.95
 11
27.967
 20
-140
 21
-139.737
  0
LINE
  8
0
 10
27.967
 11
28.016
 20
-139.737
 21
-139.478
  0
LINE
  8
0
 10
28.016
 11
28.097
 20
-139.478
 21
-139.227
  0
LINE
  8
0
 10
28.097
 11
28.21
 20
-139.227
 21
-138.988
  0
LINE
  8
0
 10
28.21
 11
28.351
 20
-138.988
 21
-138.766
  0
LINE
  8
0
 10
28.351
 11
28.519
 20
-138.766
 21
-138.562
  0
LINE
  8
0
 10
28.519
 11
28.711
 20
-138.562
 21
-138.382
  0
LINE
  8
0
 10
28.711
 11
28.925
 20
-138.382
 21
-138.227
  0
LINE
  8
0
 10
28.925
 11
29.156
 20
-138.227
 21
-138.1
  0
LINE
  8
0
 10
29.156
 11
29.401
 20
-138.1
 21
-138.003
  0
LINE
  8
0
 10
29.401
 11
29.656
 20
-138.003
 21
-137.937
  0
LINE
  8
0
 10
29.656
 11
29.918
 20
-137.937
 21
-137.904
  0
LINE
  8
0
 10
29.918
 11
30.182
 20
-137.904
 21
-137.904
  0
LINE
  8
0
 10
30.182
 11
30.444
 20
-137.904
 21
-137.937
  0
LINE
  8
0
 10
30.444
 11
30.699
 20
-137.937
 21
-138.003
  0
LINE
  8
0
 10
30.699
 11
30.944
 20
-138.003
 21
-138.1
  0
LINE
  8
0
 10
30.944
 11
31.175
 20
-138.1
 21
-138.227
  0
LINE
  8
0
 10
31.175
 11
31.389
 20
-138.227
 21
-138.382
  0
LINE
  8
0
 10
31.389
 11
31.581
 20
-138.382
 21
-138.562
  0
LINE
  8
0
 10
31.581
 11
31.749
 20
-138.562
 21
-138.766
  0
LINE
  8
0
 10
31.749
 11
31.89
 20
-138.766
 21
-138.988
  0
LINE
  8
0
 10
31.89
 11
32.003
 20
-138.988
 21
-139.227
  0
LINE
  8
0
 10
32.003
 11
32.084
 20
-139.227
 21
-139.478
  0
LINE
  8
0
 10
32.084
 11
32.133
 20
-139.478
 21
-139.737
  0
LINE
  8
0
 10
32.133
 11
32.15
 20
-139.737
 21
-140
  0
LINE
  8
0
 10
32.15
 11
32.133
 20
-140
 21
-140.263
  0
LINE
  8
0
 10
32.133
 11
32.084
 20
-140.263
 21
-140.522
  0
LINE
  8
0
 10
32.084
 11
32.003
 20
-140.522
 21
-140.773
  0
LINE
  8
0
 10
32.003
 11
31.89
 20
-140.773
 21
-141.012
  0
LINE
  8
0
 10
31.89
 11
31.749
 20
-141.012
 21
-141.234
  0
LINE
  8
0
 10
31.749
 11
31.581
 20
-141.234
 21
-141.438
  0
LINE
  8
0
 10
31.581
 11
31.389
 20
-141.438
 21
-141.618
  0
LINE
  8
0
 10
31.389
 11
31.175
 20
-141.618
 21
-141.773
  0
LINE
  8
0
 10
31.175
 11
30.944
 20
-141.773
 21
-141.9
  0
LINE
  8
0
 10
30.944
 11
30.699
 20
-141.9
 21
-141.997
  0
LINE
  8
0
 10
30.699
 11
30.444
 20
-141.997
 21
-142.063
  0
LINE
  8
0
 10
30.444
 11
30.182
 20
-142.063
 21
-142.096
  0
LINE
  8
0
 10
30.182
 11
29.918
 20
-142.096
 21
-142.096
  0
LINE
  8
0
 10
29.918
 11
29.656
 20
-142.096
 21
-142.063
  0
LINE
  8
0
 10
29.656
 11
29.401
 20
-142.063
 21
-141.997
  0
LINE
  8
0
 10
29.401
 11
29.156
 20
-141.997
 21
-141.9
  0
LINE
  8
0
 10
29.156
 11
28.925
 20
-141.9
 21
-141.773
  0
LINE
  8
0
 10
28.925
 11
28.711
 20
-141.773
 21
-141.618
  0
LINE
  8
0
 10
28.711
 11
28.519
 20
-141.618
 21
-141.438
  0
LINE
  8
0
 10
28.519
 11
28.351
 20
-141.438
 21
-141.234
  0
LINE
  8
0
 10
28.351
 11
28.21
 20
-141.234
 21
-141.012
  0
LINE
  8
0
 10
28.21
 11
28.097
 20
-141.012
 21
-140.773
  0
LINE
  8
0
 10
28.097
 11
28.016
 20
-140.773
 21
-140.522
  0
LINE
  8
0
 10
28.016
 11
27.967
 20
-140.522
 21
-140.263
  0
LINE
  8
0
 10
27.967
 11
27.95
 20
-140.263
 21
-140
  0
LINE
  8
0
 10
27.95
 11
27.967
 20
-104
 21
-103.737
  0
LINE
  8
0
 10
27.967
 11
28.016
 20
-103.737
 21
-103.478
  0
LINE
  8
0
 10
28.016
 11
28.097
 20
-103.478
 21
-103.227
  0
LINE
  8
0
 10
28.097
 11
28.21
 20
-103.227
 21
-102.988
  0
LINE
  8
0
 10
28.21
 11
28.351
 20
-102.988
 21
-102.766
  0
LINE
  8
0
 10
28.351
 11
28.519
 20
-102.766
 21
-102.562
  0
LINE
  8
0
 10
28.519
 11
28.711
 20
-102.562
 21
-102.382
  0
LINE
  8
0
 10
28.711
 11
28.925
 20
-102.382
 21
-102.227
  0
LINE
  8
0
 10
28.925
 11
29.156
 20
-102.227
 21
-102.1
  0
LINE
  8
0
 10
29.156
 11
29.401
 20
-102.1
 21
-102.003
  0
LINE
  8
0
 10
29.401
 11
29.656
 20
-102.003
 21
-101.937
  0
LINE
  8
0
 10
29.656
 11
29.918
 20
-101.937
 21
-101.904
  0
LINE
  8
0
 10
29.918
 11
30.182
 20
-101.904
 21
-101.904
  0
LINE
  8
0
 10
30.182
 11
30.444
 20
-101.904
 21
-101.937
  0
LINE
  8
0
 10
30.444
 11
30.699
 20
-101.937
 21
-102.003
  0
LINE
  8
0
 10
30.699
 11
30.944
 20
-102.003
 21
-102.1
  0
LINE
  8
0
 10
30.944
 11
31.175
 20
-102.1
 21
-102.227
  0
LINE
  8
0
 10
31.175
 11
31.389
 20
-102.227
 21
-102.382
  0
LINE
  8
0
 10
31.389
 11
31.581
 20
-102.382
 21
-102.562
  0
LINE
  8
0
 10
31.581
 11
31.749
 20
-102.562
 21
-102.766
  0
LINE
  8
0
 10
31.749
 11
31.89
 20
-102.766
 21
-102.988
  0
LINE
  8
0
 10
31.89
 11
32.003
 20
-102.988
 21
-103.227
  0
LINE
  8
0
 10
32.003
 11
32.084
 20
-103.227
 21
-103.478
  0
LINE
  8
0
 10
32.084
 11
32.133
 20
-103.478
 21
-103.737
  0
LINE
  8
0
 10
32.133
 11
32.15
 20
-103.737
 21
-104
  0
LINE
  8
0
 10
32.15
 11
32.133
 20
-104
 21
-104.263
  0
LINE
  8
0
 10
32.133
 11
32.084
 20
-104.263
 21
-104.522
  0
LINE
  8
0
 10
32.084
 11
32.003
 20
-104.522
 21
-104.773
  0
LINE
  8
0
 10
32.003
 11
31.89
 20
-104.773
 21
-105.012
  0
LINE
  8
0
 10
31.89
 11
31.749
 20
-105.012
 21
-105.234
  0
LINE
  8
0
 10
31.749
 11
31.581
 20
-105.234
 21
-105.438
  0
LINE
  8
0
 10
31.581
 11
31.389
 20
-105.438
 21
-105.618
  0
LINE
  8
0
 10
31.389
 11
31.175
 20
-105.618
 21
-105.773
  0
LINE
  8
0
 10
31.175
 11
30.944
 20
-105.773
 21
-105.9
  0
LINE
  8
0
 10
30.944
 11
30.699
 20
-105.9
 21
-105.997
  0
LINE
  8
0
 10
30.699
 11
30.444
 20
-105.997
 21
-106.063
  0
LINE
  8
0
 10
30.444
 11
30.182
 20
-106.063
 21
-106.096
  0
LINE
  8
0
 10
30.182
 11
29.918
 20
-106.096
 21
-106.096
  0
LINE
  8
0
 10
29.918
 11
29.656
 20
-106.096
 21
-106.063
  0
LINE
  8
0
 10
29.656
 11
29.401
 20
-106.063
 21
-105.997
  0
LINE
  8
0
 10
29.401
 11
29.156
 20
-105.997
 21
-105.9
  0
LINE
  8
0
 10
29.156
 11
28.925
 20
-105.9
 21
-105.773
  0
LINE
  8
0
 10
28.925
 11
28.711
 20
-105.773
 21
-105.618
  0
LINE
  8
0
 10
28.711
 11
28.519
 20
-105.618
 21
-105.438
  0
LINE
  8
0
 10
28.519
 11
28.351
 20
-105.438
 21
-105.234
  0
LINE
  8
0
 10
28.351
 11
28.21
 20
-105.234
 21
-105.012
  0
LINE
  8
0
 10
28.21
 11
28.097
 20
-105.012
 21
-104.773
  0
LINE
  8
0
 10
28.097
 11
28.016
 20
-104.773
 21
-104.522
  0
LINE
  8
0
 10
28.016
 11
27.967
 20
-104.522
 21
-104.263
  0
LINE
  8
0
 10
27.967
 11
27.95
 20
-104.263
 21
-104
  0
LINE
  8
0
 10
29.549
 11
30.238
 20
-211.23
 21
-209.383
  0
LINE
  8
0
 10
30.238
 11
31.816
 20
-209.383
 21
-208.2
  0
LINE
  8
0
 10
31.816
 11
33.783
 20
-208.2
 21
-208.06
  0
LINE
  8
0
 10
33.783
 11
35.514
 20
-208.06
 21
-209.005
  0
LINE
  8
0
 10
35.514
 11
36.459
 20
-209.005
 21
-210.736
  0
LINE
  8
0
 10
36.459
 11
36.319
 20
-210.736
 21
-212.703
  0
LINE
  8
0
 10
36.319
 11
35.137
 20
-212.703
 21
-214.281
  0
LINE
  8
0
 10
35.137
 11
33.289
 20
-214.281
 21
-214.971
  0
LINE
  8
0
 10
33.289
 11
31.362
 20
-214.971
 21
-214.552
  0
LINE
  8
0
 10
31.362
 11
29.968
 20
-214.552
 21
-213.157
  0
LINE
  8
0
 10
29.968
 11
29.549
 20
-213.157
 21
-211.23
  0
LINE
  8
0
 10
61.368
 11
62.058
 20
-179.41
 21
-177.563
  0
LINE
  8
0
 10
62.058
 11
63.636
 20
-177.563
 21
-176.381
  0
LINE
  8
0
 10
63.636
 11
65.603
 20
-176.381
 21
-176.241
  0
LINE
  8
0
 10
65.603
 11
67.334
 20
-176.241
 21
-177.185
  0
LINE
  8
0
 10
67.334
 11
68.279
 20
-177.185
 21
-178.916
  0
LINE
  8
0
 10
68.279
 11
68.139
 20
-178.916
 21
-180.883
  0
LINE
  8
0
 10
68.139
 11
66.957
 20
-180.883
 21
-182.462
  0
LINE
  8
0
 10
66.957
 11
65.109
 20
-182.462
 21
-183.151
  0
LINE
  8
0
 10
65.109
 11
63.182
 20
-183.151
 21
-182.732
  0
LINE
  8
0
 10
63.182
 11
61.788
 20
-182.732
 21
-181.337
  0
LINE
  8
0
 10
61.788
 11
61.368
 20
-181.337
 21
-179.41
  0
LINE
  8
0
 10
72.944
 11
72.971
 20
78.112
 21
78.375
  0
LINE
  8
0
 10
72.971
 11
73.031
 20
78.375
 21
78.631
  0
LINE
  8
0
 10
73.031
 11
73.123
 20
78.631
 21
78.878
  0
LINE
  8
0
 10
73.123
 11
73.245
 20
78.878
 21
79.112
  0
LINE
  8
0
 10
73.245
 11
73.396
 20
79.112
 21
79.329
  0
LINE
  8
0
 10
73.396
 11
73.573
 20
79.329
 21
79.525
  0
LINE
  8
0
 10
73.573
 11
73.772
 20
79.525
 21
79.696
  0
LINE
  8
0
 10
73.772
 11
73.992
 20
79.696
 21
79.843
  0
LINE
  8
0
 10
73.992
 11
74.228
 20
79.843
 21
79.959
  0
LINE
  8
0
 10
74.228
 11
74.477
 20
79.959
 21
80.047
  0
LINE
  8
0
 10
74.477
 11
74.735
 20
80.047
 21
80.102
  0
LINE
  8
0
 10
74.735
 11
74.998
 20
80.102
 21
80.124
  0
LINE
  8
0
 10
74.998
 11
75.261
 20
80.124
 21
80.112
  0
LINE
  8
0
 10
75.261
 11
75.521
 20
80.112
 21
80.069
  0
LINE
  8
0
 10
75.521
 11
75.773
 20
80.069
 21
79.993
  0
LINE
  8
0
 10
75.773
 11
76.015
 20
79.993
 21
79.885
  0
LINE
  8
0
 10
76.015
 11
76.24
 20
79.885
 21
79.748
  0
LINE
  8
0
 10
76.24
 11
76.447
 20
79.748
 21
79.585
  0
LINE
  8
0
 10
76.447
 11
76.631
 20
79.585
 21
79.397
  0
LINE
  8
0
 10
76.631
 11
76.791
 20
79.397
 21
79.186
  0
LINE
  8
0
 10
76.791
 11
76.923
 20
79.186
 21
78.958
  0
LINE
  8
0
 10
76.923
 11
77.025
 20
78.958
 21
78.714
  0
LINE
  8
0
 10
77.025
 11
77.096
 20
78.714
 21
78.461
  0
LINE
  8
0
 10
77.096
 11
77.134
 20
78.461
 21
78.2
  0
LINE
  8
0
 10
77.134
 11
77.14
 20
78.2
 21
77.936
  0
LINE
  8
0
 10
77.14
 11
77.112
 20
77.936
 21
77.673
  0
LINE
  8
0
 10
77.112
 11
77.052
 20
77.673
 21
77.417
  0
LINE
  8
0
 10
77.052
 11
76.96
 20
77.417
 21
77.17
  0
LINE
  8
0
 10
76.96
 11
76.838
 20
77.17
 21
76.937
  0
LINE
  8
0
 10
76.838
 11
76.688
 20
76.937
 21
76.719
  0
LINE
  8
0
 10
76.688
 11
76.511
 20
76.719
 21
76.524
  0
LINE
  8
0
 10
76.511
 11
76.311
 20
76.524
 21
76.352
  0
LINE
  8
0
 10
76.311
 11
76.092
 20
76.352
 21
76.205
  0
LINE
  8
0
 10
76.092
 11
75.855
 20
76.205
 21
76.089
  0
LINE
  8
0
 10
75.855
 11
75.607
 20
76.089
 21
76.002
  0
LINE
  8
0
 10
75.607
 11
75.349
 20
76.002
 21
75.946
  0
LINE
  8
0
 10
75.349
 11
75.085
 20
75.946
 21
75.925
  0
LINE
  8
0
 10
75.085
 11
74.822
 20
75.925
 21
75.936
  0
LINE
  8
0
 10
74.822
 11
74.562
 20
75.936
 21
75.979
  0
LINE
  8
0
 10
74.562
 11
74.31
 20
75.979
 21
76.055
  0
LINE
  8
0
 10
74.31
 11
74.069
 20
76.055
 21
76.163
  0
LINE
  8
0
 10
74.069
 11
73.843
 20
76.163
 21
76.3
  0
LINE
  8
0
 10
73.843
 11
73.637
 20
76.3
 21
76.464
  0
LINE
  8
0
 10
73.637
 11
73.452
 20
76.464
 21
76.651
  0
LINE
  8
0
 10
73.452
 11
73.292
 20
76.651
 21
76.862
  0
LINE
  8
0
 10
73.292
 11
73.16
 20
76.862
 21
77.09
  0
LINE
  8
0
 10
73.16
 11
73.058
 20
77.09
 21
77.334
  0
LINE
  8
0
 10
73.058
 11
72.988
 20
77.334
 21
77.588
  0
LINE
  8
0
 10
72.988
 11
72.949
 20
77.588
 21
77.848
  0
LINE
  8
0
 10
72.949
 11
72.944
 20
77.848
 21
78.112
  0
LINE
  8
0
 10
93.188
 11
93.878
 20
-147.591
 21
-145.743
  0
LINE
  8
0
 10
93.878
 11
95.456
 20
-145.743
 21
-144.561
  0
LINE
  8
0
 10
95.456
 11
97.423
 20
-144.561
 21
-144.421
  0
LINE
  8
0
 10
97.423
 11
99.154
 20
-144.421
 21
-145.365
  0
LINE
  8
0
 10
99.154
 11
100.099
 20
-145.365
 21
-147.096
  0
LINE
  8
0
 10
100.099
 11
99.959
 20
-147.096
 21
-149.064
  0
LINE
  8
0
 10
99.959
 11
98.776
 20
-149.064
 21
-150.642
  0
LINE
  8
0
 10
98.776
 11
96.929
 20
-150.642
 21
-151.331
  0
LINE
  8
0
 10
96.929
 11
95.002
 20
-151.331
 21
-150.912
  0
LINE
  8
0
 10
95.002
 11
93.608
 20
-150.912
 21
-149.518
  0
LINE
  8
0
 10
93.608
 11
93.188
 20
-149.518
 21
-147.591
  0
LINE
  8
0
 10
102.994
 11
103.021
 20
26.064
 21
26.327
  0
LINE
  8
0
 10
103.021
 11
103.081
 20
26.327
 21
26.583
  0
LINE
  8
0
 10
103.081
 11
103.173
 20
26.583
 21
26.83
  0
LINE
  8
0
 10
103.173
 11
103.295
 20
26.83
 21
27.063
  0
LINE
  8
0
 10
103.295
 11
103.446
 20
27.063
 21
27.281
  0
LINE
  8
0
 10
103.446
 11
103.623
 20
27.281
 21
27.476
  0
LINE
  8
0
 10
103.623
 11
103.822
 20
27.476
 21
27.648
  0
LINE
  8
0
 10
103.822
 11
104.042
 20
27.648
 21
27.795
  0
LINE
  8
0
 10
104.042
 11
104.278
 20
27.795
 21
27.911
  0
LINE
  8
0
 10
104.278
 11
104.527
 20
27.911
 21
27.998
  0
LINE
  8
0
 10
104.527
 11
104.785
 20
27.998
 21
28.054
  0
LINE
  8
0
 10
104.785
 11
105.048
 20
28.054
 21
28.075
  0
LINE
  8
0
 10
105.048
 11
105.311
 20
28.075
 21
28.064
  0
LINE
  8
0
 10
105.311
 11
105.571
 20
28.064
 21
28.021
  0
LINE
  8
0
 10
105.571
 11
105.823
 20
28.021
 21
27.945
  0
LINE
  8
0
 10
105.823
 11
106.065
 20
27.945
 21
27.837
  0
LINE
  8
0
 10
106.065
 11
106.29
 20
27.837
 21
27.7
  0
LINE
  8
0
 10
106.29
 11
106.497
 20
27.7
 21
27.536
  0
LINE
  8
0
 10
106.497
 11
106.681
 20
27.536
 21
27.349
  0
LINE
  8
0
 10
106.681
 11
106.841
 20
27.349
 21
27.138
  0
LINE
  8
0
 10
106.841
 11
106.973
 20
27.138
 21
26.91
  0
LINE
  8
0
 10
106.973
 11
107.075
 20
26.91
 21
26.666
  0
LINE
  8
0
 10
107.075
 11
107.146
 20
26.666
 21
26.412
  0
LINE
  8
0
 10
107.146
 11
107.184
 20
26.412
 21
26.152
  0
LINE
  8
0
 10
107.184
 11
107.19
 20
26.152
 21
25.888
  0
LINE
  8
0
 10
107.19
 11
107.162
 20
25.888
 21
25.625
  0
LINE
  8
0
 10
107.162
 11
107.102
 20
25.625
 21
25.369
  0
LINE
  8
0
 10
107.102
 11
107.01
 20
25.369
 21
25.122
  0
LINE
  8
0
 10
107.01
 11
106.888
 20
25.122
 21
24.888
  0
LINE
  8
0
 10
106.888
 11
106.738
 20
24.888
 21
24.671
  0
LINE
  8
0
 10
106.738
 11
106.561
 20
24.671
 21
24.475
  0
LINE
  8
0
 10
106.561
 11
106.361
 20
24.475
 21
24.304
  0
LINE
  8
0
 10
106.361
 11
106.142
 20
24.304
 21
24.157
  0
LINE
  8
0
 10
106.142
 11
105.905
 20
24.157
 21
24.041
  0
LINE
  8
0
 10
105.905
 11
105.657
 20
24.041
 21
23.953
  0
LINE
  8
0
 10
105.657
 11
105.399
 20
23.953
 21
23.898
  0
LINE
  8
0
 10
105.399
 11
105.135
 20
23.898
 21
23.876
  0
LINE
  8
0
 10
105.135
 11
104.872
 20
23.876
 21
23.888
  0
LINE
  8
0
 10
104.872
 11
104.612
 20
23.888
 21
23.931
  0
LINE
  8
0
 10
104.612
 11
104.36
 20
23.931
 21
24.007
  0
LINE
  8
0
 10
104.36
 11
104.119
 20
24.007
 21
24.115
  0
LINE
  8
0
 10
104.119
 11
103.893
 20
24.115
 21
24.252
  0
LINE
  8
0
 10
103.893
 11
103.687
 20
24.252
 21
24.415
  0
LINE
  8
0
 10
103.687
 11
103.502
 20
24.415
 21
24.603
  0
LINE
  8
0
 10
103.502
 11
103.342
 20
24.603
 21
24.814
  0
LINE
  8
0
 10
103.342
 11
103.21
 20
24.814
 21
25.042
  0
LINE
  8
0
 10
103.21
 11
103.108
 20
25.042
 21
25.286
  0
LINE
  8
0
 10
103.108
 11
103.038
 20
25.286
 21
25.539
  0
LINE
  8
0
 10
103.038
 11
102.999
 20
25.539
 21
25.8
  0
LINE
  8
0
 10
102.999
 11
102.994
 20
25.8
 21
26.064
  0
LINE
  8
0
 10
104.121
 11
104.148
 20
96.112
 21
96.375
  0
LINE
  8
0
 10
104.148
 11
104.208
 20
96.375
 21
96.631
  0
LINE
  8
0
 10
104.208
 11
104.3
 20
96.631
 21
96.878
  0
LINE
  8
0
 10
104.3
 11
104.422
 20
96.878
 21
97.112
  0
LINE
  8
0
 10
104.422
 11
104.573
 20
97.112
 21
97.329
  0
LINE
  8
0
 10
104.573
 11
104.749
 20
97.329
 21
97.525
  0
LINE
  8
0
 10
104.749
 11
104.949
 20
97.525
 21
97.696
  0
LINE
  8
0
 10
104.949
 11
105.169
 20
97.696
 21
97.843
  0
LINE
  8
0
 10
105.169
 11
105.405
 20
97.843
 21
97.959
  0
LINE
  8
0
 10
105.405
 11
105.654
 20
97.959
 21
98.047
  0
LINE
  8
0
 10
105.654
 11
105.911
 20
98.047
 21
98.102
  0
LINE
  8
0
 10
105.911
 11
106.175
 20
98.102
 21
98.124
  0
LINE
  8
0
 10
106.175
 11
106.438
 20
98.124
 21
98.112
  0
LINE
  8
0
 10
106.438
 11
106.698
 20
98.112
 21
98.069
  0
LINE
  8
0
 10
106.698
 11
106.95
 20
98.069
 21
97.993
  0
LINE
  8
0
 10
106.95
 11
107.192
 20
97.993
 21
97.885
  0
LINE
  8
0
 10
107.192
 11
107.417
 20
97.885
 21
97.748
  0
LINE
  8
0
 10
107.417
 11
107.624
 20
97.748
 21
97.585
  0
LINE
  8
0
 10
107.624
 11
107.808
 20
97.585
 21
97.397
  0
LINE
  8
0
 10
107.808
 11
107.968
 20
97.397
 21
97.186
  0
LINE
  8
0
 10
107.968
 11
108.1
 20
97.186
 21
96.958
  0
LINE
  8
0
 10
108.1
 11
108.202
 20
96.958
 21
96.714
  0
LINE
  8
0
 10
108.202
 11
108.273
 20
96.714
 21
96.461
  0
LINE
  8
0
 10
108.273
 11
108.311
 20
96.461
 21
96.2
  0
LINE
  8
0
 10
108.311
 11
108.317
 20
96.2
 21
95.936
  0
LINE
  8
0
 10
108.317
 11
108.289
 20
95.936
 21
95.673
  0
LINE
  8
0
 10
108.289
 11
108.229
 20
95.673
 21
95.417
  0
LINE
  8
0
 10
108.229
 11
108.137
 20
95.417
 21
95.17
  0
LINE
  8
0
 10
108.137
 11
108.015
 20
95.17
 21
94.937
  0
LINE
  8
0
 10
108.015
 11
107.864
 20
94.937
 21
94.719
  0
LINE
  8
0
 10
107.864
 11
107.688
 20
94.719
 21
94.524
  0
LINE
  8
0
 10
107.688
 11
107.488
 20
94.524
 21
94.352
  0
LINE
  8
0
 10
107.488
 11
107.269
 20
94.352
 21
94.205
  0
LINE
  8
0
 10
107.269
 11
107.032
 20
94.205
 21
94.089
  0
LINE
  8
0
 10
107.032
 11
106.783
 20
94.089
 21
94.002
  0
LINE
  8
0
 10
106.783
 11
106.526
 20
94.002
 21
93.946
  0
LINE
  8
0
 10
106.526
 11
106.262
 20
93.946
 21
93.925
  0
LINE
  8
0
 10
106.262
 11
105.999
 20
93.925
 21
93.936
  0
LINE
  8
0
 10
105.999
 11
105.739
 20
93.936
 21
93.979
  0
LINE
  8
0
 10
105.739
 11
105.487
 20
93.979
 21
94.055
  0
LINE
  8
0
 10
105.487
 11
105.246
 20
94.055
 21
94.163
  0
LINE
  8
0
 10
105.246
 11
105.02
 20
94.163
 21
94.3
  0
LINE
  8
0
 10
105.02
 11
104.814
 20
94.3
 21
94.464
  0
LINE
  8
0
 10
104.814
 11
104.629
 20
94.464
 21
94.651
  0
LINE
  8
0
 10
104.629
 11
104.469
 20
94.651
 21
94.862
  0
LINE
  8
0
 10
104.469
 11
104.337
 20
94.862
 21
95.09
  0
LINE
  8
0
 10
104.337
 11
104.235
 20
95.09
 21
95.334
  0
LINE
  8
0
 10
104.235
 11
104.165
 20
95.334
 21
95.588
  0
LINE
  8
0
 10
104.165
 11
104.126
 20
95.588
 21
95.848
  0
LINE
  8
0
 10
104.126
 11
104.121
 20
95.848
 21
96.112
  0
LINE
  8
0
 10
112.215
 11
112.273
 20
102.209
 21
102.758
  0
LINE
  8
0
 10
112.273
 11
112.399
 20
102.758
 21
103.295
  0
LINE
  8
0
 10
112.399
 11
112.591
 20
103.295
 21
103.814
  0
LINE
  8
0
 10
112.591
 11
112.847
 20
103.814
 21
104.303
  0
LINE
  8
0
 10
112.847
 11
113.162
 20
104.303
 21
104.757
  0
LINE
  8
0
 10
113.162
 11
113.532
 20
104.757
 21
105.168
  0
LINE
  8
0
 10
113.532
 11
113.951
 20
105.168
 21
105.529
  0
LINE
  8
0
 10
113.951
 11
114.411
 20
105.529
 21
105.835
  0
LINE
  8
0
 10
114.411
 11
114.906
 20
105.835
 21
106.08
  0
LINE
  8
0
 10
114.906
 11
115.427
 20
106.08
 21
106.262
  0
LINE
  8
0
 10
115.427
 11
115.968
 20
106.262
 21
106.377
  0
LINE
  8
0
 10
115.968
 11
116.519
 20
106.377
 21
106.423
  0
LINE
  8
0
 10
116.519
 11
117.07
 20
106.423
 21
106.4
  0
LINE
  8
0
 10
117.07
 11
117.616
 20
106.4
 21
106.307
  0
LINE
  8
0
 10
117.616
 11
118.144
 20
106.307
 21
106.148
  0
LINE
  8
0
 10
118.144
 11
118.649
 20
106.148
 21
105.924
  0
LINE
  8
0
 10
118.649
 11
119.122
 20
105.924
 21
105.637
  0
LINE
  8
0
 10
119.122
 11
119.555
 20
105.637
 21
105.294
  0
LINE
  8
0
 10
119.555
 11
119.942
 20
105.294
 21
104.899
  0
LINE
  8
0
 10
119.942
 11
120.276
 20
104.899
 21
104.459
  0
LINE
  8
0
 10
120.276
 11
120.552
 20
104.459
 21
103.981
  0
LINE
  8
0
 10
120.552
 11
120.766
 20
103.981
 21
103.471
  0
LINE
  8
0
 10
120.766
 11
120.915
 20
103.471
 21
102.939
  0
LINE
  8
0
 10
120.915
 11
120.995
 20
102.939
 21
102.392
  0
LINE
  8
0
 10
120.995
 11
121.007
 20
102.392
 21
101.839
  0
LINE
  8
0
 10
121.007
 11
120.949
 20
101.839
 21
101.29
  0
LINE
  8
0
 10
120.949
 11
120.823
 20
101.29
 21
100.753
  0
LINE
  8
0
 10
120.823
 11
120.63
 20
100.753
 21
100.234
  0
LINE
  8
0
 10
120.63
 11
120.375
 20
100.234
 21
99.745
  0
LINE
  8
0
 10
120.375
 11
120.059
 20
99.745
 21
99.291
  0
LINE
  8
0
 10
120.059
 11
119.689
 20
99.291
 21
98.88
  0
LINE
  8
0
 10
119.689
 11
119.271
 20
98.88
 21
98.519
  0
LINE
  8
0
 10
119.271
 11
118.811
 20
98.519
 21
98.214
  0
LINE
  8
0
 10
118.811
 11
118.316
 20
98.214
 21
97.968
  0
LINE
  8
0
 10
118.316
 11
117.794
 20
97.968
 21
97.786
  0
LINE
  8
0
 10
117.794
 11
117.253
 20
97.786
 21
97.671
  0
LINE
  8
0
 10
117.253
 11
116.703
 20
97.671
 21
97.625
  0
LINE
  8
0
 10
116.703
 11
116.151
 20
97.625
 21
97.648
  0
LINE
  8
0
 10
116.151
 11
115.606
 20
97.648
 21
97.741
  0
LINE
  8
0
 10
115.606
 11
115.078
 20
97.741
 21
97.9
  0
LINE
  8
0
 10
115.078
 11
114.573
 20
97.9
 21
98.124
  0
LINE
  8
0
 10
114.573
 11
114.1
 20
98.124
 21
98.411
  0
LINE
  8
0
 10
114.1
 11
113.667
 20
98.411
 21
98.754
  0
LINE
  8
0
 10
113.667
 11
113.28
 20
98.754
 21
99.149
  0
LINE
  8
0
 10
113.28
 11
112.946
 20
99.149
 21
99.59
  0
LINE
  8
0
 10
112.946
 11
112.67
 20
99.59
 21
100.068
  0
LINE
  8
0
 10
112.67
 11
112.456
 20
100.068
 21
100.577
  0
LINE
  8
0
 10
112.456
 11
112.307
 20
100.577
 21
101.109
  0
LINE
  8
0
 10
112.307
 11
112.227
 20
101.109
 21
101.656
  0
LINE
  8
0
 10
112.227
 11
112.215
 20
101.656
 21
102.209
  0
LINE
  8
0
 10
123.311
 11
146.737
 20
92.7
 21
106.225
  0
LINE
  8
0
 10
146.737
 11
165.362
 20
106.225
 21
73.965
  0
LINE
  8
0
 10
165.362
 11
141.936
 20
73.965
 21
60.44
  0
LINE
  8
0
 10
141.936
 11
123.311
 20
60.44
 21
92.7
  0
LINE
  8
0
 10
125.008
 11
125.697
 20
-115.771
 21
-113.923
  0
LINE
  8
0
 10
125.697
 11
127.276
 20
-113.923
 21
-112.741
  0
LINE
  8
0
 10
127.276
 11
129.243
 20
-112.741
 21
-112.601
  0
LINE
  8
0
 10
129.243
 11
130.974
 20
-112.601
 21
-113.546
  0
LINE
  8
0
 10
130.974
 11
131.919
 20
-113.546
 21
-115.277
  0
LINE
  8
0
 10
131.919
 11
131.779
 20
-115.277
 21
-117.244
  0
LINE
  8
0
 10
131.779
 11
130.596
 20
-117.244
 21
-118.822
  0
LINE
  8
0
 10
130.596
 11
128.749
 20
-118.822
 21
-119.511
  0
LINE
  8
0
 10
128.749
 11
126.822
 20
-119.511
 21
-119.092
  0
LINE
  8
0
 10
126.822
 11
125.427
 20
-119.092
 21
-117.698
  0
LINE
  8
0
 10
125.427
 11
125.008
 20
-117.698
 21
-115.771
  0
LINE
  8
0
 10
134.171
 11
134.198
 20
44.064
 21
44.327
  0
LINE
  8
0
 10
134.198
 11
134.258
 20
44.327
 21
44.583
  0
LINE
  8
0
 10
134.258
 11
134.35
 20
44.583
 21
44.83
  0
LINE
  8
0
 10
134.35
 11
134.472
 20
44.83
 21
45.063
  0
LINE
  8
0
 10
134.472
 11
134.623
 20
45.063
 21
45.281
  0
LINE
  8
0
 10
134.623
 11
134.799
 20
45.281
 21
45.476
  0
LINE
  8
0
 10
134.799
 11
134.999
 20
45.476
 21
45.648
  0
LINE
  8
0
 10
134.999
 11
135.219
 20
45.648
 21
45.795
  0
LINE
  8
0
 10
135.219
 11
135.455
 20
45.795
 21
45.911
  0
LINE
  8
0
 10
135.455
 11
135.704
 20
45.911
 21
45.998
  0
LINE
  8
0
 10
135.704
 11
135.961
 20
45.998
 21
46.054
  0
LINE
  8
0
 10
135.961
 11
136.225
 20
46.054
 21
46.075
  0
LINE
  8
0
 10
136.225
 11
136.488
 20
46.075
 21
46.064
  0
LINE
  8
0
 10
136.488
 11
136.748
 20
46.064
 21
46.021
  0
LINE
  8
0
 10
136.748
 11
137
 20
46.021
 21
45.945
  0
LINE
  8
0
 10
137
 11
137.242
 20
45.945
 21
45.837
  0
LINE
  8
0
 10
137.242
 11
137.467
 20
45.837
 21
45.7
  0
LINE
  8
0
 10
137.467
 11
137.674
 20
45.7
 21
45.536
  0
LINE
  8
0
 10
137.674
 11
137.858
 20
45.536
 21
45.349
  0
LINE
  8
0
 10
137.858
 11
138.018
 20
45.349
 21
45.138
  0
LINE
  8
0
 10
138.018
 11
138.15
 20
45.138
 21
44.91
  0
LINE
  8
0
 10
138.15
 11
138.252
 20
44.91
 21
44.666
  0
LINE
  8
0
 10
138.252
 11
138.323
 20
44.666
 21
44.412
  0
LINE
  8
0
 10
138.323
 11
138.361
 20
44.412
 21
44.152
  0
LINE
  8
0
 10
138.361
 11
138.367
 20
44.152
 21
43.888
  0
LINE
  8
0
 10
138.367
 11
138.339
 20
43.888
 21
43.625
  0
LINE
  8
0
 10
138.339
 11
138.279
 20
43.625
 21
43.369
  0
LINE
  8
0
 10
138.279
 11
138.187
 20
43.369
 21
43.122
  0
LINE
  8
0
 10
138.187
 11
138.065
 20
43.122
 21
42.888
  0
LINE
  8
0
 10
138.065
 11
137.914
 20
42.888
 21
42.671
  0
LINE
  8
0
 10
137.914
 11
137.738
 20
42.671
 21
42.475
  0
LINE
  8
0
 10
137.738
 11
137.538
 20
42.475
 21
42.304
  0
LINE
  8
0
 10
137.538
 11
137.319
 20
42.304
 21
42.157
  0
LINE
  8
0
 10
137.319
 11
137.082
 20
42.157
 21
42.041
  0
LINE
  8
0
 10
137.082
 11
136.833
 20
42.041
 21
41.953
  0
LINE
  8
0
 10
136.833
 11
136.576
 20
41.953
 21
41.898
  0
LINE
  8
0
 10
136.576
 11
136.312
 20
41.898
 21
41.876
  0
LINE
  8
0
 10
136.312
 11
136.049
 20
41.876
 21
41.888
  0
LINE
  8
0
 10
136.049
 11
135.789
 20
41.888
 21
41.931
  0
LINE
  8
0
 10
135.789
 11
135.537
 20
41.931
 21
42.007
  0
LINE
  8
0
 10
135.537
 11
135.296
 20
42.007
 21
42.115
  0
LINE
  8
0
 10
135.296
 11
135.07
 20
42.115
 21
42.252
  0
LINE
  8
0
 10
135.07
 11
134.864
 20
42.252
 21
42.415
  0
LINE
  8
0
 10
134.864
 11
134.679
 20
42.415
 21
42.603
  0
LINE
  8
0
 10
134.679
 11
134.519
 20
42.603
 21
42.814
  0
LINE
  8
0
 10
134.519
 11
134.387
 20
42.814
 21
43.042
  0
LINE
  8
0
 10
134.387
 11
134.285
 20
43.042
 21
43.286
  0
LINE
  8
0
 10
134.285
 11
134.215
 20
43.286
 21
43.539
  0
LINE
  8
0
 10
134.215
 11
134.176
 20
43.539
 21
43.8
  0
LINE
  8
0
 10
134.176
 11
134.171
 20
43.8
 21
44.064
  0
LINE
  8
0
 10
142.265
 11
142.323
 20
50.161
 21
50.71
  0
LINE
  8
0
 10
142.323
 11
142.449
 20
50.71
 21
51.247
  0
LINE
  8
0
 10
142.449
 11
142.641
 20
51.247
 21
51.766
  0
LINE
  8
0
 10
142.641
 11
142.897
 20
51.766
 21
52.255
  0
LINE
  8
0
 10
142.897
 11
143.212
 20
52.255
 21
52.709
  0
LINE
  8
0
 10
143.212
 11
143.582
 20
52.709
 21
53.12
  0
LINE
  8
0
 10
143.582
 11
144.001
 20
53.12
 21
53.481
  0
LINE
  8
0
 10
144.001
 11
144.461
 20
53.481
 21
53.786
  0
LINE
  8
0
 10
144.461
 11
144.956
 20
53.786
 21
54.032
  0
LINE
  8
0
 10
144.956
 11
145.477
 20
54.032
 21
54.214
  0
LINE
  8
0
 10
145.477
 11
146.018
 20
54.214
 21
54.329
  0
LINE
  8
0
 10
146.018
 11
146.569
 20
54.329
 21
54.375
  0
LINE
  8
0
 10
146.569
 11
147.12
 20
54.375
 21
54.352
  0
LINE
  8
0
 10
147.12
 11
147.666
 20
54.352
 21
54.259
  0
LINE
  8
0
 10
147.666
 11
148.194
 20
54.259
 21
54.1
  0
LINE
  8
0
 10
148.194
 11
148.699
 20
54.1
 21
53.876
  0
LINE
  8
0
 10
148.699
 11
149.172
 20
53.876
 21
53.589
  0
LINE
  8
0
 10
149.172
 11
149.605
 20
53.589
 21
53.246
  0
LINE
  8
0
 10
149.605
 11
149.992
 20
53.246
 21
52.851
  0
LINE
  8
0
 10
149.992
 11
150.326
 20
52.851
 21
52.41
  0
LINE
  8
0
 10
150.326
 11
150.602
 20
52.41
 21
51.932
  0
LINE
  8
0
 10
150.602
 11
150.816
 20
51.932
 21
51.423
  0
LINE
  8
0
 10
150.816
 11
150.965
 20
51.423
 21
50.891
  0
LINE
  8
0
 10
150.965
 11
151.045
 20
50.891
 21
50.344
  0
LINE
  8
0
 10
151.045
 11
151.057
 20
50.344
 21
49.791
  0
LINE
  8
0
 10
151.057
 11
150.999
 20
49.791
 21
49.242
  0
LINE
  8
0
 10
150.999
 11
150.873
 20
49.242
 21
48.705
  0
LINE
  8
0
 10
150.873
 11
150.68
 20
48.705
 21
48.186
  0
LINE
  8
0
 10
150.68
 11
150.425
 20
48.186
 21
47.697
  0
LINE
  8
0
 10
150.425
 11
150.109
 20
47.697
 21
47.243
  0
LINE
  8
0
 10
150.109
 11
149.739
 20
47.243
 21
46.832
  0
LINE
  8
0
 10
149.739
 11
149.321
 20
46.832
 21
46.471
  0
LINE
  8
0
 10
149.321
 11
148.861
 20
46.471
 21
46.165
  0
LINE
  8
0
 10
148.861
 11
148.366
 20
46.165
 21
45.92
  0
LINE
  8
0
 10
148.366
 11
147.844
 20
45.92
 21
45.738
  0
LINE
  8
0
 10
147.844
 11
147.303
 20
45.738
 21
45.623
  0
LINE
  8
0
 10
147.303
 11
146.753
 20
45.623
 21
45.577
  0
LINE
  8
0
 10
146.753
 11
146.201
 20
45.577
 21
45.6
  0
LINE
  8
0
 10
146.201
 11
145.656
 20
45.6
 21
45.693
  0
LINE
  8
0
 10
145.656
 11
145.128
 20
45.693
 21
45.852
  0
LINE
  8
0
 10
145.128
 11
144.623
 20
45.852
 21
46.076
  0
LINE
  8
0
 10
144.623
 11
144.15
 20
46.076
 21
46.363
  0
LINE
  8
0
 10
144.15
 11
143.717
 20
46.363
 21
46.706
  0
LINE
  8
0
 10
143.717
 11
143.33
 20
46.706
 21
47.101
  0
LINE
  8
0
 10
143.33
 11
142.996
 20
47.101
 21
47.541
  0
LINE
  8
0
 10
142.996
 11
142.72
 20
47.541
 21
48.019
  0
LINE
  8
0
 10
142.72
 11
142.506
 20
48.019
 21
48.529
  0
LINE
  8
0
 10
142.506
 11
142.357
 20
48.529
 21
49.061
  0
LINE
  8
0
 10
142.357
 11
142.277
 20
49.061
 21
49.608
  0
LINE
  8
0
 10
142.277
 11
142.265
 20
49.608
 21
50.161
  0
LINE
  8
0
 10
156.828
 11
157.517
 20
-83.951
 21
-82.103
  0
LINE
  8
0
 10
157.517
 11
159.095
 20
-82.103
 21
-80.921
  0
LINE
  8
0
 10
159.095
 11
161.063
 20
-80.921
 21
-80.781
  0
LINE
  8
0
 10
161.063
 11
162.794
 20
-80.781
 21
-81.726
  0
LINE
  8
0
 10
162.794
 11
163.738
 20
-81.726
 21
-83.457
  0
LINE
  8
0
 10
163.738
 11
163.598
 20
-83.457
 21
-85.424
  0
LINE
  8
0
 10
163.598
 11
162.416
 20
-85.424
 21
-87.002
  0
LINE
  8
0
 10
162.416
 11
160.568
 20
-87.002
 21
-87.692
  0
LINE
  8
0
 10
160.568
 11
158.642
 20
-87.692
 21
-87.272
  0
LINE
  8
0
 10
158.642
 11
157.247
 20
-87.272
 21
-85.878
  0
LINE
  8
0
 10
157.247
 11
156.828
 20
-85.878
 21
-83.951
  0
LINE
  8
0
 10
183.344
 11
184.034
 20
135.924
 21
137.771
  0
LINE
  8
0
 10
184.034
 11
185.612
 20
137.771
 21
138.954
  0
LINE
  8
0
 10
185.612
 11
187.579
 20
138.954
 21
139.094
  0
LINE
  8
0
 10
187.579
 11
189.31
 20
139.094
 21
138.149
  0
LINE
  8
0
 10
189.31
 11
190.255
 20
138.149
 21
136.418
  0
LINE
  8
0
 10
190.255
 11
190.115
 20
136.418
 21
134.451
  0
LINE
  8
0
 10
190.115
 11
188.933
 20
134.451
 21
132.873
  0
LINE
  8
0
 10
188.933
 11
187.085
 20
132.873
 21
132.183
  0
LINE
  8
0
 10
187.085
 11
185.158
 20
132.183
 21
132.603
  0
LINE
  8
0
 10
185.158
 11
183.764
 20
132.603
 21
133.997
  0
LINE
  8
0
 10
183.764
 11
183.344
 20
133.997
 21
135.924
  0
LINE
  8
0
 10
188.648
 11
189.337
 20
-52.131
 21
-50.284
  0
LINE
  8
0
 10
189.337
 11
190.915
 20
-50.284
 21
-49.101
  0
LINE
  8
0
 10
190.915
 11
192.882
 20
-49.101
 21
-48.961
  0
LINE
  8
0
 10
192.882
 11
194.613
 20
-48.961
 21
-49.906
  0
LINE
  8
0
 10
194.613
 11
195.558
 20
-49.906
 21
-51.637
  0
LINE
  8
0
 10
195.558
 11
195.418
 20
-51.637
 21
-53.604
  0
LINE
  8
0
 10
195.418
 11
194.236
 20
-53.604
 21
-55.182
  0
LINE
  8
0
 10
194.236
 11
192.388
 20
-55.182
 21
-55.872
  0
LINE
  8
0
 10
192.388
 11
190.461
 20
-55.872
 21
-55.453
  0
LINE
  8
0
 10
190.461
 11
189.067
 20
-55.453
 21
-54.058
  0
LINE
  8
0
 10
189.067
 11
188.648
 20
-54.058
 21
-52.131
  0
LINE
  8
0
 10
215.164
 11
215.854
 20
104.104
 21
105.952
  0
LINE
  8
0
 10
215.854
 11
217.432
 20
105.952
 21
107.134
  0
LINE
  8
0
 10
217.432
 11
219.399
 20
107.134
 21
107.274
  0
LINE
  8
0
 10
219.399
 11
221.13
 20
107.274
 21
106.329
  0
LINE
  8
0
 10
221.13
 11
222.075
 20
106.329
 21
104.598
  0
LINE
  8
0
 10
222.075
 11
221.935
 20
104.598
 21
102.631
  0
LINE
  8
0
 10
221.935
 11
220.752
 20
102.631
 21
101.053
  0
LINE
  8
0
 10
220.752
 11
218.905
 20
101.053
 21
100.363
  0
LINE
  8
0
 10
218.905
 11
216.978
 20
100.363
 21
100.783
  0
LINE
  8
0
 10
216.978
 11
215.583
 20
100.783
 21
102.177
  0
LINE
  8
0
 10
215.583
 11
215.164
 20
102.177
 21
104.104
  0
LINE
  8
0
 10
220.467
 11
221.157
 20
-20.311
 21
-18.464
  0
LINE
  8
0
 10
221.157
 11
222.735
 20
-18.464
 21
-17.282
  0
LINE
  8
0
 10
222.735
 11
224.702
 20
-17.282
 21
-17.142
  0
LINE
  8
0
 10
224.702
 11
226.433
 20
-17.142
 21
-18.086
  0
LINE
  8
0
 10
226.433
 11
227.378
 20
-18.086
 21
-19.817
  0
LINE
  8
0
 10
227.378
 11
227.238
 20
-19.817
 21
-21.784
  0
LINE
  8
0
 10
227.238
 11
226.056
 20
-21.784
 21
-23.363
  0
LINE
  8
0
 10
226.056
 11
224.208
 20
-23.363
 21
-24.052
  0
LINE
  8
0
 10
224.208
 11
222.281
 20
-24.052
 21
-23.633
  0
LINE
  8
0
 10
222.281
 11
220.887
 20
-23.633
 21
-22.238
  0
LINE
  8
0
 10
220.887
 11
220.467
 20
-22.238
 21
-20.311
  0
LINE
  8
0
 10
246.984
 11
247.673
 20
72.284
 21
74.132
  0
LINE
  8
0
 10
247.673
 11
249.252
 20
74.132
 21
75.314
  0
LINE
  8
0
 10
249.252
 11
251.219
 20
75.314
 21
75.454
  0
LINE
  8
0
 10
251.219
 11
252.95
 20
75.454
 21
74.509
  0
LINE
  8
0
 10
252.95
 11
253.894
 20
74.509
 21
72.778
  0
LINE
  8
0
 10
253.894
 11
253.754
 20
72.778
 21
70.811
  0
LINE
  8
0
 10
253.754
 11
252.572
 20
70.811
 21
69.233
  0
LINE
  8
0
 10
252.572
 11
250.725
 20
69.233
 21
68.544
  0
LINE
  8
0
 10
250.725
 11
248.798
 20
68.544
 21
68.963
  0
LINE
  8
0
 10
248.798
 11
247.403
 20
68.963
 21
70.357
  0
LINE
  8
0
 10
247.403
 11
246.984
 20
70.357
 21
72.284
  0
LINE
  8
0
 10
252.287
 11
252.977
 20
11.508
 21
13.356
  0
LINE
  8
0
 10
252.977
 11
254.555
 20
13.356
 21
14.538
  0
LINE
  8
0
 10
254.555
 11
256.522
 20
14.538
 21
14.678
  0
LINE
  8
0
 10
256.522
 11
258.253
 20
14.678
 21
13.734
  0
LINE
  8
0
 10
258.253
 11
259.198
 20
13.734
 21
12.003
  0
LINE
  8
0
 10
259.198
 11
259.058
 20
12.003
 21
10.035
  0
LINE
  8
0
 10
259.058
 11
257.875
 20
10.035
 21
8.457
  0
LINE
  8
0
 10
257.875
 11
256.028
 20
8.457
 21
7.768
  0
LINE
  8
0
 10
256.028
 11
254.101
 20
7.768
 21
8.187
  0
LINE
  8
0
 10
254.101
 11
252.707
 20
8.187
 21
9.581
  0
LINE
  8
0
 10
252.707
 11
252.287
 20
9.581
 21
11.508
  0
ENDSEC
  0
SECTION
  2
OBJECTS
  0
DICTIONARY
  0
ENDSEC
  0
EOF
