999
dxfrw 0.5.10
0
SECTION
2
HEADER
9
$ACADVER
1
AC1009
9
$DWGCODEPAGE
3
ANSI_1252
9
$INSBASE
10
0
20
0
30
0
9
$EXTMIN
10
0
20
0
30
0
9
$EXTMAX
10
990
20
1900
30
0
9
$LIMMIN
10
0
20
0
9
$LIMMAX
10
420
20
297
9
$ORTHOMODE
70
0
9
$LTSCALE
40
1
9
$TEXTSTYLE
7
STANDARD
9
$CLAYER
8
0
9
$DIMASZ
40
2.5
9
$DIMLFAC
40
1
9
$DIMSCALE
40
1
9
$DIMEXO
40
0.625
9
$DIMEXE
40
1.25
9
$DIMTXT
40
2.5
9
$DIMTSZ
40
0
9
$DIMUNIT
70
2
9
$DIMSTYLE
2
STANDARD
9
$DIMGAP
40
0.625
9
$DIMTIH
70
0
9
$LUNITS
70
2
9
$LUPREC
70
4
9
$AUNITS
70
0
9
$AUPREC
70
2
9
$SNAPSTYLE
70
0
9
$PLIMMIN
10
0
20
0
9
$PLIMMAX
10
210
20
297
0
ENDSEC
0
SECTION
2
CLASSES
0
ENDSEC
0
SECTION
2
TABLES
0
TABLE
2
VPORT
70
1
0
VPORT
2
*ACTIVE
70
0
10
0
20
0
11
1
21
1
12
726.4316082
22
896.397978067
13
0
23
0
14
10
24
10
15
10
25
10
16
0
26
0
36
1
17
0
27
0
37
0
40
1462.17644215
41
1.52070063694
42
50
43
0
44
0
50
0
51
0
71
0
72
100
73
1
74
3
75
0
76
1
77
0
78
0
0
ENDTAB
0
TABLE
2
LTYPE
70
4
0
LTYPE
2
BYBLOCK
70
0
3

72
65
73
0
40
0
0
LTYPE
2
BYLAYER
70
0
3

72
65
73
0
40
0
0
LTYPE
2
CONTINUOUS
70
0
3
Solid line
72
65
73
0
40
0
0
LTYPE
2
DOT
70
0
3
Dot . . . . . . . . . . . . . . . . . . . . . .
72
65
73
2
40
6.35
49
0
49
-6.35
0
LTYPE
2
DOT2
70
0
3
Dot (.5x) .....................................
72
65
73
2
40
3.175
49
0
49
-3.175
0
LTYPE
2
DOTX2
70
0
3
Dot (2x) .  .  .  .  .  .  .  .  .  .  .  .  .
72
65
73
2
40
12.7
49
0
49
-12.7
0
LTYPE
2
DASHED
70
0
3
Dot . . . . . . . . . . . . . . . . . . . . . .
72
65
73
2
40
19.05
49
12.7
49
-6.35
0
LTYPE
2
DASHED2
70
0
3
Dashed (.5x) _ _ _ _ _ _ _ _ _ _ _ _ _ _ _ _ _
72
65
73
2
40
9.525
49
6.35
49
-3.175
0
LTYPE
2
DASHEDX2
70
0
3
Dashed (2x) ____  ____  ____  ____  ____  ___
72
65
73
2
40
38.1
49
25.4
49
-12.7
0
LTYPE
2
DASHDOT
70
0
3
Dash dot __ . __ . __ . __ . __ . __ . __ . __
72
65
73
4
40
25.4
49
12.7
49
-6.35
49
0
49
-6.35
0
LTYPE
2
DASHDOT2
70
0
3
Dash dot (.5x) _._._._._._._._._._._._._._._.
72
65
73
4
40
12.7
49
6.35
49
-3.175
49
0
49
-3.175
0
LTYPE
2
DASHDOTX2
70
0
3
Dash dot (2x) ____  .  ____  .  ____  .  ___
72
65
73
4
40
50.8
49
25.4
49
-12.7
49
0
49
-12.7
0
LTYPE
2
DIVIDE
70
0
3
Divide ____ . . ____ . . ____ . . ____ . . ____
72
65
73
6
40
31.75
49
12.7
49
-6.35
49
0
49
-6.35
49
0
49
-6.35
0
LTYPE
2
DIVIDE2
70
0
3
Divide (.5x) __..__..__..__..__..__..__..__.._
72
65
73
6
40
15.875
49
6.35
49
-3.175
49
0
49
-3.175
49
0
49
-3.175
0
LTYPE
2
DIVIDEX2
70
0
3
Divide (2x) ________  .  .  ________  .  .  _
72
65
73
6
40
63.5
49
25.4
49
-12.7
49
0
49
-12.7
49
0
49
-12.7
0
LTYPE
2
BORDER
70
0
3
Border __ __ . __ __ . __ __ . __ __ . __ __ .
72
65
73
6
40
44.45
49
12.7
49
-6.35
49
12.7
49
-6.35
49
0
49
-6.35
0
LTYPE
2
BORDER2
70
0
3
Border (.5x) __.__.__.__.__.__.__.__.__.__.__.
72
65
73
6
40
22.225
49
6.35
49
-3.175
49
6.35
49
-3.175
49
0
49
-3.175
0
LTYPE
2
BORDERX2
70
0
3
Border (2x) ____  ____  .  ____  ____  .  ___
72
65
73
6
40
88.9
49
25.4
49
-12.7
49
25.4
49
-12.7
49
0
49
-12.7
0
LTYPE
2
CENTER
70
0
3
Center ____ _ ____ _ ____ _ ____ _ ____ _ ____
72
65
73
4
40
50.8
49
31.75
49
-6.35
49
6.35
49
-6.35
0
LTYPE
2
CENTER2
70
0
3
Center (.5x) ___ _ ___ _ ___ _ ___ _ ___ _ ___
72
65
73
4
40
28.575
49
19.05
49
-3.175
49
3.175
49
-3.175
0
LTYPE
2
CENTERX2
70
0
3
Center (2x) ________  __  ________  __  _____
72
65
73
4
40
101.6
49
63.5
49
-12.7
49
12.7
49
-12.7
0
ENDTAB
0
TABLE
2
LAYER
70
1
0
LAYER
2
0
70
0
62
7
6
CONTINUOUS
0
ENDTAB
0
TABLE
2
STYLE
70
3
0
STYLE
2
STANDARD
70
0
40
0
41
1
50
0
71
0
42
1
3
TXT
4

0
ENDTAB
0
TABLE
2
VIEW
70
0
0
ENDTAB
0
TABLE
2
UCS
70
0
0
ENDTAB
0
TABLE
2
APPID
70
1
0
APPID
2
ACAD
70
0
0
ENDTAB
0
TABLE
2
DIMSTYLE
70
1
0
DIMSTYLE
2
STANDARD
70
0
3

4

5

6

7

40
1
41
2.5
42
0.625
43
0.38
44
1.25
45
0
46
0
47
0
48
0
140
2.5
141
0.09
142
0
143
25.4
144
1
145
0
146
1
147
0.625
71
0
72
0
73
0
74
1
75
0
76
0
77
0
78
0
170
0
171
2
172
0
173
0
174
0
175
0
176
0
177
0
178
0
0
ENDTAB
0
ENDSEC
0
SECTION
2
BLOCKS
0
BLOCK
8
0
2
$MODEL_SPACE
70
0
10
0
20
0
30
0
3
$MODEL_SPACE
1

0
ENDBLK
8
0
0
BLOCK
8
0
2
$PAPER_SPACE
70
0
10
0
20
0
30
0
3
$PAPER_SPACE
1

0
ENDBLK
8
0
0
ENDSEC
0
SECTION
2
ENTITIES
0
LINE
5
31
8
0
6
BYLAYER
62
256
10
0
20
38.101
11
0
21
64.35
0
LINE
5
32
8
0
6
BYLAYER
62
256
10
0
20
64.35
11
19.05
21
64.351
0
LINE
5
33
8
0
6
BYLAYER
62
256
10
19.05
20
64.351
11
19.05
21
143.101
0
LINE
5
34
8
0
6
BYLAYER
62
256
10
19.05
20
143.101
11
0
21
143.1
0
LINE
5
35
8
0
6
BYLAYER
62
256
10
0
20
143.1
11
0
21
169.351
0
LINE
5
36
8
0
6
BYLAYER
62
256
10
0
20
169.351
11
19.05
21
169.35
0
LINE
5
37
8
0
6
BYLAYER
62
256
10
19.05
20
169.35
11
19.05
21
248.101
0
LINE
5
38
8
0
6
BYLAYER
62
256
10
19.05
20
248.101
11
0
21
248.1
0
LINE
5
39
8
0
6
BYLAYER
62
256
10
0
20
248.1
11
0
21
274.351
0
LINE
5
3A
8
0
6
BYLAYER
62
256
10
0
20
274.351
11
19.05
21
274.35
0
LINE
5
3B
8
0
6
BYLAYER
62
256
10
19.05
20
274.35
11
19.05
21
353.1
0
LINE
5
3C
8
0
6
BYLAYER
62
256
10
19.05
20
353.1
11
0
21
353.1
0
LINE
5
3D
8
0
6
BYLAYER
62
256
10
0
20
353.1
11
0
21
379.35
0
LINE
5
3E
8
0
6
BYLAYER
62
256
10
0
20
379.35
11
19.049
21
379.35
0
LINE
5
3F
8
0
6
BYLAYER
62
256
10
19.049
20
379.35
11
19.05
21
400.95
0
LINE
5
40
8
0
6
BYLAYER
62
256
10
19.05
20
400.95
11
38.099
21
400.95
0
LINE
5
41
8
0
6
BYLAYER
62
256
10
38.099
20
400.95
11
38.1
21
420
0
LINE
5
42
8
0
6
BYLAYER
62
256
10
38.1
20
420
11
64.349
21
420
0
LINE
5
43
8
0
6
BYLAYER
62
256
10
64.349
20
420
11
64.35
21
400.95
0
LINE
5
44
8
0
6
BYLAYER
62
256
10
64.35
20
400.95
11
143.1
21
400.95
0
LINE
5
45
8
0
6
BYLAYER
62
256
10
143.1
20
400.95
11
143.1
21
420
0
LINE
5
46
8
0
6
BYLAYER
62
256
10
143.1
20
420
11
169.35
21
420
0
LINE
5
47
8
0
6
BYLAYER
62
256
10
169.35
20
420
11
169.349
21
400.95
0
LINE
5
48
8
0
6
BYLAYER
62
256
10
169.349
20
400.95
11
248.1
21
400.95
0
LINE
5
49
8
0
6
BYLAYER
62
256
10
248.1
20
400.95
11
248.099
21
420
0
LINE
5
4A
8
0
6
BYLAYER
62
256
10
248.099
20
420
11
274.35
21
420
0
LINE
5
4B
8
0
6
BYLAYER
62
256
10
274.35
20
420
11
274.349
21
400.95
0
LINE
5
4C
8
0
6
BYLAYER
62
256
10
274.349
20
400.95
11
353.1
21
400.95
0
LINE
5
4D
8
0
6
BYLAYER
62
256
10
353.1
20
400.95
11
353.1
21
420
0
LINE
5
4E
8
0
6
BYLAYER
62
256
10
353.1
20
420
11
379.35
21
420
0
LINE
5
4F
8
0
6
BYLAYER
62
256
10
379.35
20
420
11
379.35
21
400.951
0
LINE
5
50
8
0
6
BYLAYER
62
256
10
379.35
20
400.951
11
400.95
21
400.95
0
LINE
5
51
8
0
6
BYLAYER
62
256
10
400.95
20
400.95
11
400.95
21
381.901
0
LINE
5
52
8
0
6
BYLAYER
62
256
10
400.95
20
381.901
11
420
21
381.9
0
LINE
5
53
8
0
6
BYLAYER
62
256
10
420
20
381.9
11
420
21
355.651
0
LINE
5
54
8
0
6
BYLAYER
62
256
10
420
20
355.651
11
400.95
21
355.65
0
LINE
5
55
8
0
6
BYLAYER
62
256
10
400.95
20
355.65
11
400.95
21
276.9
0
LINE
5
56
8
0
6
BYLAYER
62
256
10
400.95
20
276.9
11
420
21
276.9
0
LINE
5
57
8
0
6
BYLAYER
62
256
10
420
20
276.9
11
420
21
250.65
0
LINE
5
58
8
0
6
BYLAYER
62
256
10
420
20
250.65
11
400.95
21
250.651
0
LINE
5
59
8
0
6
BYLAYER
62
256
10
400.95
20
250.651
11
400.95
21
220.951
0
LINE
5
5A
8
0
6
BYLAYER
62
256
10
400.95
20
220.951
11
199.049
21
19.05
0
LINE
5
5B
8
0
6
BYLAYER
62
256
10
199.049
20
19.05
11
171.899
21
19.05
0
LINE
5
5C
8
0
6
BYLAYER
62
256
10
171.899
20
19.05
11
171.9
21
0
0
LINE
5
5D
8
0
6
BYLAYER
62
256
10
171.9
20
0
11
145.649
21
0
0
LINE
5
5E
8
0
6
BYLAYER
62
256
10
145.649
20
0
11
145.65
21
19.05
0
LINE
5
5F
8
0
6
BYLAYER
62
256
10
145.65
20
19.05
11
66.9
21
19.05
0
LINE
5
60
8
0
6
BYLAYER
62
256
10
66.9
20
19.05
11
66.9
21
0.001
0
LINE
5
61
8
0
6
BYLAYER
62
256
10
66.9
20
0.001
11
40.65
21
0
0
LINE
5
62
8
0
6
BYLAYER
62
256
10
40.65
20
0
11
40.65
21
19.05
0
LINE
5
63
8
0
6
BYLAYER
62
256
10
40.65
20
19.05
11
19.05
21
19.05
0
LINE
5
64
8
0
6
BYLAYER
62
256
10
19.05
20
19.05
11
19.05
21
38.1
0
LINE
5
65
8
0
6
BYLAYER
62
256
10
19.05
20
38.1
11
0
21
38.101
0
LINE
5
66
8
0
6
BYLAYER
62
256
10
0
20
468.101
11
0
21
494.35
0
LINE
5
67
8
0
6
BYLAYER
62
256
10
0
20
494.35
11
19.05
21
494.351
0
LINE
5
68
8
0
6
BYLAYER
62
256
10
19.05
20
494.351
11
19.05
21
573.101
0
LINE
5
69
8
0
6
BYLAYER
62
256
10
19.05
20
573.101
11
0
21
573.1
0
LINE
5
6A
8
0
6
BYLAYER
62
256
10
0
20
573.1
11
0
21
599.351
0
LINE
5
6B
8
0
6
BYLAYER
62
256
10
0
20
599.351
11
19.05
21
599.35
0
LINE
5
6C
8
0
6
BYLAYER
62
256
10
19.05
20
599.35
11
19.05
21
678.101
0
LINE
5
6D
8
0
6
BYLAYER
62
256
10
19.05
20
678.101
11
0
21
678.1
0
LINE
5
6E
8
0
6
BYLAYER
62
256
10
0
20
678.1
11
0
21
704.351
0
LINE
5
6F
8
0
6
BYLAYER
62
256
10
0
20
704.351
11
19.05
21
704.35
0
LINE
5
70
8
0
6
BYLAYER
62
256
10
19.05
20
704.35
11
19.05
21
783.1
0
LINE
5
71
8
0
6
BYLAYER
62
256
10
19.05
20
783.1
11
0
21
783.1
0
LINE
5
72
8
0
6
BYLAYER
62
256
10
0
20
783.1
11
0
21
809.35
0
LINE
5
73
8
0
6
BYLAYER
62
256
10
0
20
809.35
11
19.049
21
809.35
0
LINE
5
74
8
0
6
BYLAYER
62
256
10
19.049
20
809.35
11
19.05
21
830.95
0
LINE
5
75
8
0
6
BYLAYER
62
256
10
19.05
20
830.95
11
38.099
21
830.95
0
LINE
5
76
8
0
6
BYLAYER
62
256
10
38.099
20
830.95
11
38.1
21
850
0
LINE
5
77
8
0
6
BYLAYER
62
256
10
38.1
20
850
11
64.349
21
850
0
LINE
5
78
8
0
6
BYLAYER
62
256
10
64.349
20
850
11
64.35
21
830.95
0
LINE
5
79
8
0
6
BYLAYER
62
256
10
64.35
20
830.95
11
143.1
21
830.95
0
LINE
5
7A
8
0
6
BYLAYER
62
256
10
143.1
20
830.95
11
143.1
21
850
0
LINE
5
7B
8
0
6
BYLAYER
62
256
10
143.1
20
850
11
169.35
21
850
0
LINE
5
7C
8
0
6
BYLAYER
62
256
10
169.35
20
850
11
169.349
21
830.95
0
LINE
5
7D
8
0
6
BYLAYER
62
256
10
169.349
20
830.95
11
248.1
21
830.95
0
LINE
5
7E
8
0
6
BYLAYER
62
256
10
248.1
20
830.95
11
248.099
21
850
0
LINE
5
7F
8
0
6
BYLAYER
62
256
10
248.099
20
850
11
274.35
21
850
0
LINE
5
80
8
0
6
BYLAYER
62
256
10
274.35
20
850
11
274.349
21
830.95
0
LINE
5
81
8
0
6
BYLAYER
62
256
10
274.349
20
830.95
11
353.1
21
830.95
0
LINE
5
82
8
0
6
BYLAYER
62
256
10
353.1
20
830.95
11
353.1
21
850
0
LINE
5
83
8
0
6
BYLAYER
62
256
10
353.1
20
850
11
379.35
21
850
0
LINE
5
84
8
0
6
BYLAYER
62
256
10
379.35
20
850
11
379.35
21
830.951
0
LINE
5
85
8
0
6
BYLAYER
62
256
10
379.35
20
830.951
11
400.95
21
830.95
0
LINE
5
86
8
0
6
BYLAYER
62
256
10
400.95
20
830.95
11
400.95
21
811.901
0
LINE
5
87
8
0
6
BYLAYER
62
256
10
400.95
20
811.901
11
420
21
811.9
0
LINE
5
88
8
0
6
BYLAYER
62
256
10
420
20
811.9
11
420
21
785.651
0
LINE
5
89
8
0
6
BYLAYER
62
256
10
420
20
785.651
11
400.95
21
785.65
0
LINE
5
8A
8
0
6
BYLAYER
62
256
10
400.95
20
785.65
11
400.95
21
706.9
0
LINE
5
8B
8
0
6
BYLAYER
62
256
10
400.95
20
706.9
11
420
21
706.9
0
LINE
5
8C
8
0
6
BYLAYER
62
256
10
420
20
706.9
11
420
21
680.65
0
LINE
5
8D
8
0
6
BYLAYER
62
256
10
420
20
680.65
11
400.95
21
680.651
0
LINE
5
8E
8
0
6
BYLAYER
62
256
10
400.95
20
680.651
11
400.95
21
650.951
0
LINE
5
8F
8
0
6
BYLAYER
62
256
10
400.95
20
650.951
11
370.71
21
620.711
0
LINE
5
90
8
0
6
BYLAYER
62
256
10
370.71
20
620.711
11
311.23
21
680.192
0
LINE
5
91
8
0
6
BYLAYER
62
256
10
311.23
20
680.192
11
310.825
21
687.91
0
LINE
5
92
8
0
6
BYLAYER
62
256
10
310.825
20
687.91
11
303.792
21
714.162
0
LINE
5
93
8
0
6
BYLAYER
62
256
10
303.792
20
714.162
11
291.453
21
738.377
0
LINE
5
94
8
0
6
BYLAYER
62
256
10
291.453
20
738.377
11
274.35
21
759.498
0
LINE
5
95
8
0
6
BYLAYER
62
256
10
274.35
20
759.498
11
253.229
21
776.601
0
LINE
5
96
8
0
6
BYLAYER
62
256
10
253.229
20
776.601
11
229.014
21
788.94
0
LINE
5
97
8
0
6
BYLAYER
62
256
10
229.014
20
788.94
11
202.762
21
795.973
0
LINE
5
98
8
0
6
BYLAYER
62
256
10
202.762
20
795.973
11
175.622
21
797.396
0
LINE
5
99
8
0
6
BYLAYER
62
256
10
175.622
20
797.396
11
148.78
21
793.144
0
LINE
5
9A
8
0
6
BYLAYER
62
256
10
148.78
20
793.144
11
123.407
21
783.404
0
LINE
5
9B
8
0
6
BYLAYER
62
256
10
123.407
20
783.404
11
100.614
21
768.603
0
LINE
5
9C
8
0
6
BYLAYER
62
256
10
100.614
20
768.603
11
81.397
21
749.386
0
LINE
5
9D
8
0
6
BYLAYER
62
256
10
81.397
20
749.386
11
66.596
21
726.593
0
LINE
5
9E
8
0
6
BYLAYER
62
256
10
66.596
20
726.593
11
56.856
21
701.22
0
LINE
5
9F
8
0
6
BYLAYER
62
256
10
56.856
20
701.22
11
52.604
21
674.378
0
LINE
5
A0
8
0
6
BYLAYER
62
256
10
52.604
20
674.378
11
54.027
21
647.238
0
LINE
5
A1
8
0
6
BYLAYER
62
256
10
54.027
20
647.238
11
61.06
21
620.986
0
LINE
5
A2
8
0
6
BYLAYER
62
256
10
61.06
20
620.986
11
73.399
21
596.771
0
LINE
5
A3
8
0
6
BYLAYER
62
256
10
73.399
20
596.771
11
90.502
21
575.65
0
LINE
5
A4
8
0
6
BYLAYER
62
256
10
90.502
20
575.65
11
111.623
21
558.547
0
LINE
5
A5
8
0
6
BYLAYER
62
256
10
111.623
20
558.547
11
135.838
21
546.208
0
LINE
5
A6
8
0
6
BYLAYER
62
256
10
135.838
20
546.208
11
162.09
21
539.175
0
LINE
5
A7
8
0
6
BYLAYER
62
256
10
162.09
20
539.175
11
169.808
21
538.77
0
LINE
5
A8
8
0
6
BYLAYER
62
256
10
169.808
20
538.77
11
229.289
21
479.29
0
LINE
5
A9
8
0
6
BYLAYER
62
256
10
229.289
20
479.29
11
199.049
21
449.05
0
LINE
5
AA
8
0
6
BYLAYER
62
256
10
199.049
20
449.05
11
171.899
21
449.05
0
LINE
5
AB
8
0
6
BYLAYER
62
256
10
171.899
20
449.05
11
171.9
21
430
0
LINE
5
AC
8
0
6
BYLAYER
62
256
10
171.9
20
430
11
145.649
21
430
0
LINE
5
AD
8
0
6
BYLAYER
62
256
10
145.649
20
430
11
145.65
21
449.05
0
LINE
5
AE
8
0
6
BYLAYER
62
256
10
145.65
20
449.05
11
66.9
21
449.05
0
LINE
5
AF
8
0
6
BYLAYER
62
256
10
66.9
20
449.05
11
66.9
21
430.001
0
LINE
5
B0
8
0
6
BYLAYER
62
256
10
66.9
20
430.001
11
40.65
21
430
0
LINE
5
B1
8
0
6
BYLAYER
62
256
10
40.65
20
430
11
40.65
21
449.05
0
LINE
5
B2
8
0
6
BYLAYER
62
256
10
40.65
20
449.05
11
19.05
21
449.05
0
LINE
5
B3
8
0
6
BYLAYER
62
256
10
19.05
20
449.05
11
19.05
21
468.1
0
LINE
5
B4
8
0
6
BYLAYER
62
256
10
19.05
20
468.1
11
0
21
468.101
0
LINE
5
B5
8
0
6
BYLAYER
62
256
10
0
20
860
11
0
21
1040
0
LINE
5
B6
8
0
6
BYLAYER
62
256
10
0
20
1040
11
100
21
1040
0
LINE
5
B7
8
0
6
BYLAYER
62
256
10
100
20
1040
11
100
21
1020.95
0
LINE
5
B8
8
0
6
BYLAYER
62
256
10
100
20
1020.95
11
200
21
1020.95
0
LINE
5
B9
8
0
6
BYLAYER
62
256
10
200
20
1020.95
11
200
21
1040
0
LINE
5
BA
8
0
6
BYLAYER
62
256
10
200
20
1040
11
300
21
1040
0
LINE
5
BB
8
0
6
BYLAYER
62
256
10
300
20
1040
11
300
21
1020.95
0
LINE
5
BC
8
0
6
BYLAYER
62
256
10
300
20
1020.95
11
400
21
1020.95
0
LINE
5
BD
8
0
6
BYLAYER
62
256
10
400
20
1020.95
11
400
21
1040
0
LINE
5
BE
8
0
6
BYLAYER
62
256
10
400
20
1040
11
500
21
1040
0
LINE
5
BF
8
0
6
BYLAYER
62
256
10
500
20
1040
11
500
21
1020.95
0
LINE
5
C0
8
0
6
BYLAYER
62
256
10
500
20
1020.95
11
600
21
1020.95
0
LINE
5
C1
8
0
6
BYLAYER
62
256
10
600
20
1020.95
11
600
21
1040
0
LINE
5
C2
8
0
6
BYLAYER
62
256
10
600
20
1040
11
700
21
1040
0
LINE
5
C3
8
0
6
BYLAYER
62
256
10
700
20
1040
11
700
21
1020.95
0
LINE
5
C4
8
0
6
BYLAYER
62
256
10
700
20
1020.95
11
800
21
1020.95
0
LINE
5
C5
8
0
6
BYLAYER
62
256
10
800
20
1020.95
11
800
21
860
0
LINE
5
C6
8
0
6
BYLAYER
62
256
10
800
20
860
11
0
21
860
0
LINE
5
C7
8
0
6
BYLAYER
62
256
10
0
20
1069.05
11
0
21
1470
0
LINE
5
C8
8
0
6
BYLAYER
62
256
10
0
20
1470
11
100
21
1470
0
LINE
5
C9
8
0
6
BYLAYER
62
256
10
100
20
1470
11
100
21
1450.95
0
LINE
5
CA
8
0
6
BYLAYER
62
256
10
100
20
1450.95
11
200
21
1450.95
0
LINE
5
CB
8
0
6
BYLAYER
62
256
10
200
20
1450.95
11
200
21
1470
0
LINE
5
CC
8
0
6
BYLAYER
62
256
10
200
20
1470
11
300
21
1470
0
LINE
5
CD
8
0
6
BYLAYER
62
256
10
300
20
1470
11
300
21
1450.95
0
LINE
5
CE
8
0
6
BYLAYER
62
256
10
300
20
1450.95
11
400
21
1450.95
0
LINE
5
CF
8
0
6
BYLAYER
62
256
10
400
20
1450.95
11
400
21
1470
0
LINE
5
D0
8
0
6
BYLAYER
62
256
10
400
20
1470
11
500
21
1470
0
LINE
5
D1
8
0
6
BYLAYER
62
256
10
500
20
1470
11
500
21
1450.95
0
LINE
5
D2
8
0
6
BYLAYER
62
256
10
500
20
1450.95
11
600
21
1450.95
0
LINE
5
D3
8
0
6
BYLAYER
62
256
10
600
20
1450.95
11
600
21
1470
0
LINE
5
D4
8
0
6
BYLAYER
62
256
10
600
20
1470
11
700
21
1470
0
LINE
5
D5
8
0
6
BYLAYER
62
256
10
700
20
1470
11
700
21
1450.95
0
LINE
5
D6
8
0
6
BYLAYER
62
256
10
700
20
1450.95
11
800
21
1450.95
0
LINE
5
D7
8
0
6
BYLAYER
62
256
10
800
20
1450.95
11
800
21
1050
0
LINE
5
D8
8
0
6
BYLAYER
62
256
10
800
20
1050
11
700
21
1050
0
LINE
5
D9
8
0
6
BYLAYER
62
256
10
700
20
1050
11
700
21
1069.05
0
LINE
5
DA
8
0
6
BYLAYER
62
256
10
700
20
1069.05
11
600
21
1069.05
0
LINE
5
DB
8
0
6
BYLAYER
62
256
10
600
20
1069.05
11
600
21
1050
0
LINE
5
DC
8
0
6
BYLAYER
62
256
10
600
20
1050
11
500
21
1050
0
LINE
5
DD
8
0
6
BYLAYER
62
256
10
500
20
1050
11
500
21
1069.05
0
LINE
5
DE
8
0
6
BYLAYER
62
256
10
500
20
1069.05
11
400
21
1069.05
0
LINE
5
DF
8
0
6
BYLAYER
62
256
10
400
20
1069.05
11
400
21
1050
0
LINE
5
E0
8
0
6
BYLAYER
62
256
10
400
20
1050
11
300
21
1050
0
LINE
5
E1
8
0
6
BYLAYER
62
256
10
300
20
1050
11
300
21
1069.05
0
LINE
5
E2
8
0
6
BYLAYER
62
256
10
300
20
1069.05
11
200
21
1069.05
0
LINE
5
E3
8
0
6
BYLAYER
62
256
10
200
20
1069.05
11
200
21
1050
0
LINE
5
E4
8
0
6
BYLAYER
62
256
10
200
20
1050
11
100
21
1050
0
LINE
5
E5
8
0
6
BYLAYER
62
256
10
100
20
1050
11
100
21
1069.05
0
LINE
5
E6
8
0
6
BYLAYER
62
256
10
100
20
1069.05
11
0
21
1069.05
0
LINE
5
E7
8
0
6
BYLAYER
62
256
10
0
20
1499.05
11
0
21
1900
0
LINE
5
E8
8
0
6
BYLAYER
62
256
10
0
20
1900
11
100
21
1900
0
LINE
5
E9
8
0
6
BYLAYER
62
256
10
100
20
1900
11
100
21
1880.95
0
LINE
5
EA
8
0
6
BYLAYER
62
256
10
100
20
1880.95
11
200
21
1880.95
0
LINE
5
EB
8
0
6
BYLAYER
62
256
10
200
20
1880.95
11
200
21
1900
0
LINE
5
EC
8
0
6
BYLAYER
62
256
10
200
20
1900
11
300
21
1900
0
LINE
5
ED
8
0
6
BYLAYER
62
256
10
300
20
1900
11
300
21
1880.95
0
LINE
5
EE
8
0
6
BYLAYER
62
256
10
300
20
1880.95
11
400
21
1880.95
0
LINE
5
EF
8
0
6
BYLAYER
62
256
10
400
20
1880.95
11
400
21
1900
0
LINE
5
F0
8
0
6
BYLAYER
62
256
10
400
20
1900
11
500
21
1900
0
LINE
5
F1
8
0
6
BYLAYER
62
256
10
500
20
1900
11
500
21
1880.95
0
LINE
5
F2
8
0
6
BYLAYER
62
256
10
500
20
1880.95
11
600
21
1880.95
0
LINE
5
F3
8
0
6
BYLAYER
62
256
10
600
20
1880.95
11
600
21
1900
0
LINE
5
F4
8
0
6
BYLAYER
62
256
10
600
20
1900
11
700
21
1900
0
LINE
5
F5
8
0
6
BYLAYER
62
256
10
700
20
1900
11
700
21
1880.95
0
LINE
5
F6
8
0
6
BYLAYER
62
256
10
700
20
1880.95
11
800
21
1880.95
0
LINE
5
F7
8
0
6
BYLAYER
62
256
10
800
20
1880.95
11
800
21
1480
0
LINE
5
F8
8
0
6
BYLAYER
62
256
10
800
20
1480
11
700
21
1480
0
LINE
5
F9
8
0
6
BYLAYER
62
256
10
700
20
1480
11
700
21
1499.05
0
LINE
5
FA
8
0
6
BYLAYER
62
256
10
700
20
1499.05
11
600
21
1499.05
0
LINE
5
FB
8
0
6
BYLAYER
62
256
10
600
20
1499.05
11
600
21
1480
0
LINE
5
FC
8
0
6
BYLAYER
62
256
10
600
20
1480
11
500
21
1480
0
LINE
5
FD
8
0
6
BYLAYER
62
256
10
500
20
1480
11
500
21
1499.05
0
LINE
5
FE
8
0
6
BYLAYER
62
256
10
500
20
1499.05
11
400
21
1499.05
0
LINE
5
FF
8
0
6
BYLAYER
62
256
10
400
20
1499.05
11
400
21
1480
0
LINE
5
100
8
0
6
BYLAYER
62
256
10
400
20
1480
11
300
21
1480
0
LINE
5
101
8
0
6
BYLAYER
62
256
10
300
20
1480
11
300
21
1499.05
0
LINE
5
102
8
0
6
BYLAYER
62
256
10
300
20
1499.05
11
200
21
1499.05
0
LINE
5
103
8
0
6
BYLAYER
62
256
10
200
20
1499.05
11
200
21
1480
0
LINE
5
104
8
0
6
BYLAYER
62
256
10
200
20
1480
11
100
21
1480
0
LINE
5
105
8
0
6
BYLAYER
62
256
10
100
20
1480
11
100
21
1499.05
0
LINE
5
106
8
0
6
BYLAYER
62
256
10
100
20
1499.05
11
0
21
1499.05
0
LINE
5
107
8
0
6
BYLAYER
62
256
10
41.843
20
351.818
11
68.182
21
378.157
0
LINE
5
108
8
0
6
BYLAYER
62
256
10
68.182
20
378.157
11
87.31
21
359.03
0
LINE
5
109
8
0
6
BYLAYER
62
256
10
87.31
20
359.03
11
60.97
21
332.69
0
LINE
5
10A
8
0
6
BYLAYER
62
256
10
60.97
20
332.69
11
41.843
21
351.818
0
LINE
5
10B
8
0
6
BYLAYER
62
256
10
41.843
20
781.818
11
68.182
21
808.157
0
LINE
5
10C
8
0
6
BYLAYER
62
256
10
68.182
20
808.157
11
87.31
21
789.03
0
LINE
5
10D
8
0
6
BYLAYER
62
256
10
87.31
20
789.03
11
60.97
21
762.69
0
LINE
5
10E
8
0
6
BYLAYER
62
256
10
60.97
20
762.69
11
41.843
21
781.818
0
LINE
5
10F
8
0
6
BYLAYER
62
256
10
47.75
20
1030.47
11
48.409
21
1032.07
0
LINE
5
110
8
0
6
BYLAYER
62
256
10
48.409
20
1032.07
11
50
21
1032.72
0
LINE
5
111
8
0
6
BYLAYER
62
256
10
50
20
1032.72
11
51.591
21
1032.07
0
LINE
5
112
8
0
6
BYLAYER
62
256
10
51.591
20
1032.07
11
52.25
21
1030.47
0
LINE
5
113
8
0
6
BYLAYER
62
256
10
52.25
20
1030.47
11
51.591
21
1028.88
0
LINE
5
114
8
0
6
BYLAYER
62
256
10
51.591
20
1028.88
11
50
21
1028.22
0
LINE
5
115
8
0
6
BYLAYER
62
256
10
50
20
1028.22
11
48.409
21
1028.88
0
LINE
5
116
8
0
6
BYLAYER
62
256
10
48.409
20
1028.88
11
47.75
21
1030.47
0
LINE
5
117
8
0
6
BYLAYER
62
256
10
47.75
20
1460.48
11
48.409
21
1462.07
0
LINE
5
118
8
0
6
BYLAYER
62
256
10
48.409
20
1462.07
11
50
21
1462.73
0
LINE
5
119
8
0
6
BYLAYER
62
256
10
50
20
1462.73
11
51.591
21
1462.07
0
LINE
5
11A
8
0
6
BYLAYER
62
256
10
51.591
20
1462.07
11
52.25
21
1460.48
0
LINE
5
11B
8
0
6
BYLAYER
62
256
10
52.25
20
1460.48
11
51.591
21
1458.88
0
LINE
5
11C
8
0
6
BYLAYER
62
256
10
51.591
20
1458.88
11
50
21
1458.23
0
LINE
5
11D
8
0
6
BYLAYER
62
256
10
50
20
1458.23
11
48.409
21
1458.88
0
LINE
5
11E
8
0
6
BYLAYER
62
256
10
48.409
20
1458.88
11
47.75
21
1460.48
0
LINE
5
11F
8
0
6
BYLAYER
62
256
10
47.75
20
1890.48
11
48.409
21
1892.07
0
LINE
5
120
8
0
6
BYLAYER
62
256
10
48.409
20
1892.07
11
50
21
1892.73
0
LINE
5
121
8
0
6
BYLAYER
62
256
10
50
20
1892.73
11
51.591
21
1892.07
0
LINE
5
122
8
0
6
BYLAYER
62
256
10
51.591
20
1892.07
11
52.25
21
1890.48
0
LINE
5
123
8
0
6
BYLAYER
62
256
10
52.25
20
1890.48
11
51.591
21
1888.88
0
LINE
5
124
8
0
6
BYLAYER
62
256
10
51.591
20
1888.88
11
50
21
1888.23
0
LINE
5
125
8
0
6
BYLAYER
62
256
10
50
20
1888.23
11
48.409
21
1888.88
0
LINE
5
126
8
0
6
BYLAYER
62
256
10
48.409
20
1888.88
11
47.75
21
1890.48
0
LINE
5
127
8
0
6
BYLAYER
62
256
10
49.3
20
323.668
11
49.317
21
324.219
0
LINE
5
128
8
0
6
BYLAYER
62
256
10
49.317
20
324.219
11
49.403
21
324.765
0
LINE
5
129
8
0
6
BYLAYER
62
256
10
49.403
20
324.765
11
49.558
21
325.296
0
LINE
5
12A
8
0
6
BYLAYER
62
256
10
49.558
20
325.296
11
49.776
21
325.803
0
LINE
5
12B
8
0
6
BYLAYER
62
256
10
49.776
20
325.803
11
50.058
21
326.279
0
LINE
5
12C
8
0
6
BYLAYER
62
256
10
50.058
20
326.279
11
50.397
21
326.715
0
LINE
5
12D
8
0
6
BYLAYER
62
256
10
50.397
20
326.715
11
50.787
21
327.106
0
LINE
5
12E
8
0
6
BYLAYER
62
256
10
50.787
20
327.106
11
51.224
21
327.444
0
LINE
5
12F
8
0
6
BYLAYER
62
256
10
51.224
20
327.444
11
51.7
21
327.727
0
LINE
5
130
8
0
6
BYLAYER
62
256
10
51.7
20
327.727
11
52.207
21
327.945
0
LINE
5
131
8
0
6
BYLAYER
62
256
10
52.207
20
327.945
11
52.738
21
328.1
0
LINE
5
132
8
0
6
BYLAYER
62
256
10
52.738
20
328.1
11
53.284
21
328.186
0
LINE
5
133
8
0
6
BYLAYER
62
256
10
53.284
20
328.186
11
53.835
21
328.203
0
LINE
5
134
8
0
6
BYLAYER
62
256
10
53.835
20
328.203
11
54.386
21
328.152
0
LINE
5
135
8
0
6
BYLAYER
62
256
10
54.386
20
328.152
11
54.925
21
328.031
0
LINE
5
136
8
0
6
BYLAYER
62
256
10
54.925
20
328.031
11
55.444
21
327.844
0
LINE
5
137
8
0
6
BYLAYER
62
256
10
55.444
20
327.844
11
55.937
21
327.593
0
LINE
5
138
8
0
6
BYLAYER
62
256
10
55.937
20
327.593
11
56.394
21
327.282
0
LINE
5
139
8
0
6
BYLAYER
62
256
10
56.394
20
327.282
11
56.808
21
326.917
0
LINE
5
13A
8
0
6
BYLAYER
62
256
10
56.808
20
326.917
11
57.173
21
326.503
0
LINE
5
13B
8
0
6
BYLAYER
62
256
10
57.173
20
326.503
11
57.484
21
326.046
0
LINE
5
13C
8
0
6
BYLAYER
62
256
10
57.484
20
326.046
11
57.735
21
325.553
0
LINE
5
13D
8
0
6
BYLAYER
62
256
10
57.735
20
325.553
11
57.923
21
325.033
0
LINE
5
13E
8
0
6
BYLAYER
62
256
10
57.923
20
325.033
11
58.043
21
324.494
0
LINE
5
13F
8
0
6
BYLAYER
62
256
10
58.043
20
324.494
11
58.095
21
323.944
0
LINE
5
140
8
0
6
BYLAYER
62
256
10
58.095
20
323.944
11
58.078
21
323.392
0
LINE
5
141
8
0
6
BYLAYER
62
256
10
58.078
20
323.392
11
57.991
21
322.846
0
LINE
5
142
8
0
6
BYLAYER
62
256
10
57.991
20
322.846
11
57.837
21
322.315
0
LINE
5
143
8
0
6
BYLAYER
62
256
10
57.837
20
322.315
11
57.618
21
321.808
0
LINE
5
144
8
0
6
BYLAYER
62
256
10
57.618
20
321.808
11
57.336
21
321.332
0
LINE
5
145
8
0
6
BYLAYER
62
256
10
57.336
20
321.332
11
56.997
21
320.896
0
LINE
5
146
8
0
6
BYLAYER
62
256
10
56.997
20
320.896
11
56.607
21
320.506
0
LINE
5
147
8
0
6
BYLAYER
62
256
10
56.607
20
320.506
11
56.171
21
320.167
0
LINE
5
148
8
0
6
BYLAYER
62
256
10
56.171
20
320.167
11
55.695
21
319.885
0
LINE
5
149
8
0
6
BYLAYER
62
256
10
55.695
20
319.885
11
55.188
21
319.666
0
LINE
5
14A
8
0
6
BYLAYER
62
256
10
55.188
20
319.666
11
54.657
21
319.511
0
LINE
5
14B
8
0
6
BYLAYER
62
256
10
54.657
20
319.511
11
54.111
21
319.425
0
LINE
5
14C
8
0
6
BYLAYER
62
256
10
54.111
20
319.425
11
53.559
21
319.408
0
LINE
5
14D
8
0
6
BYLAYER
62
256
10
53.559
20
319.408
11
53.008
21
319.46
0
LINE
5
14E
8
0
6
BYLAYER
62
256
10
53.008
20
319.46
11
52.47
21
319.58
0
LINE
5
14F
8
0
6
BYLAYER
62
256
10
52.47
20
319.58
11
51.95
21
319.767
0
LINE
5
150
8
0
6
BYLAYER
62
256
10
51.95
20
319.767
11
51.457
21
320.018
0
LINE
5
151
8
0
6
BYLAYER
62
256
10
51.457
20
320.018
11
51
21
320.33
0
LINE
5
152
8
0
6
BYLAYER
62
256
10
51
20
320.33
11
50.586
21
320.694
0
LINE
5
153
8
0
6
BYLAYER
62
256
10
50.586
20
320.694
11
50.221
21
321.109
0
LINE
5
154
8
0
6
BYLAYER
62
256
10
50.221
20
321.109
11
49.91
21
321.566
0
LINE
5
155
8
0
6
BYLAYER
62
256
10
49.91
20
321.566
11
49.659
21
322.058
0
LINE
5
156
8
0
6
BYLAYER
62
256
10
49.659
20
322.058
11
49.472
21
322.578
0
LINE
5
157
8
0
6
BYLAYER
62
256
10
49.472
20
322.578
11
49.351
21
323.117
0
LINE
5
158
8
0
6
BYLAYER
62
256
10
49.351
20
323.117
11
49.3
21
323.668
0
LINE
5
159
8
0
6
BYLAYER
62
256
10
49.3
20
753.668
11
49.317
21
754.219
0
LINE
5
15A
8
0
6
BYLAYER
62
256
10
49.317
20
754.219
11
49.403
21
754.765
0
LINE
5
15B
8
0
6
BYLAYER
62
256
10
49.403
20
754.765
11
49.558
21
755.296
0
LINE
5
15C
8
0
6
BYLAYER
62
256
10
49.558
20
755.296
11
49.776
21
755.803
0
LINE
5
15D
8
0
6
BYLAYER
62
256
10
49.776
20
755.803
11
50.058
21
756.279
0
LINE
5
15E
8
0
6
BYLAYER
62
256
10
50.058
20
756.279
11
50.397
21
756.715
0
LINE
5
15F
8
0
6
BYLAYER
62
256
10
50.397
20
756.715
11
50.787
21
757.106
0
LINE
5
160
8
0
6
BYLAYER
62
256
10
50.787
20
757.106
11
51.224
21
757.444
0
LINE
5
161
8
0
6
BYLAYER
62
256
10
51.224
20
757.444
11
51.7
21
757.727
0
LINE
5
162
8
0
6
BYLAYER
62
256
10
51.7
20
757.727
11
52.207
21
757.945
0
LINE
5
163
8
0
6
BYLAYER
62
256
10
52.207
20
757.945
11
52.738
21
758.1
0
LINE
5
164
8
0
6
BYLAYER
62
256
10
52.738
20
758.1
11
53.284
21
758.186
0
LINE
5
165
8
0
6
BYLAYER
62
256
10
53.284
20
758.186
11
53.835
21
758.203
0
LINE
5
166
8
0
6
BYLAYER
62
256
10
53.835
20
758.203
11
54.386
21
758.152
0
LINE
5
167
8
0
6
BYLAYER
62
256
10
54.386
20
758.152
11
54.925
21
758.031
0
LINE
5
168
8
0
6
BYLAYER
62
256
10
54.925
20
758.031
11
55.444
21
757.844
0
LINE
5
169
8
0
6
BYLAYER
62
256
10
55.444
20
757.844
11
55.937
21
757.593
0
LINE
5
16A
8
0
6
BYLAYER
62
256
10
55.937
20
757.593
11
56.394
21
757.282
0
LINE
5
16B
8
0
6
BYLAYER
62
256
10
56.394
20
757.282
11
56.808
21
756.917
0
LINE
5
16C
8
0
6
BYLAYER
62
256
10
56.808
20
756.917
11
57.173
21
756.503
0
LINE
5
16D
8
0
6
BYLAYER
62
256
10
57.173
20
756.503
11
57.484
21
756.046
0
LINE
5
16E
8
0
6
BYLAYER
62
256
10
57.484
20
756.046
11
57.735
21
755.553
0
LINE
5
16F
8
0
6
BYLAYER
62
256
10
57.735
20
755.553
11
57.923
21
755.033
0
LINE
5
170
8
0
6
BYLAYER
62
256
10
57.923
20
755.033
11
58.043
21
754.494
0
LINE
5
171
8
0
6
BYLAYER
62
256
10
58.043
20
754.494
11
58.095
21
753.944
0
LINE
5
172
8
0
6
BYLAYER
62
256
10
58.095
20
753.944
11
58.078
21
753.392
0
LINE
5
173
8
0
6
BYLAYER
62
256
10
58.078
20
753.392
11
57.991
21
752.846
0
LINE
5
174
8
0
6
BYLAYER
62
256
10
57.991
20
752.846
11
57.837
21
752.315
0
LINE
5
175
8
0
6
BYLAYER
62
256
10
57.837
20
752.315
11
57.618
21
751.808
0
LINE
5
176
8
0
6
BYLAYER
62
256
10
57.618
20
751.808
11
57.336
21
751.332
0
LINE
5
177
8
0
6
BYLAYER
62
256
10
57.336
20
751.332
11
56.997
21
750.896
0
LINE
5
178
8
0
6
BYLAYER
62
256
10
56.997
20
750.896
11
56.607
21
750.506
0
LINE
5
179
8
0
6
BYLAYER
62
256
10
56.607
20
750.506
11
56.171
21
750.167
0
LINE
5
17A
8
0
6
BYLAYER
62
256
10
56.171
20
750.167
11
55.695
21
749.885
0
LINE
5
17B
8
0
6
BYLAYER
62
256
10
55.695
20
749.885
11
55.188
21
749.666
0
LINE
5
17C
8
0
6
BYLAYER
62
256
10
55.188
20
749.666
11
54.657
21
749.511
0
LINE
5
17D
8
0
6
BYLAYER
62
256
10
54.657
20
749.511
11
54.111
21
749.425
0
LINE
5
17E
8
0
6
BYLAYER
62
256
10
54.111
20
749.425
11
53.559
21
749.408
0
LINE
5
17F
8
0
6
BYLAYER
62
256
10
53.559
20
749.408
11
53.008
21
749.46
0
LINE
5
180
8
0
6
BYLAYER
62
256
10
53.008
20
749.46
11
52.47
21
749.58
0
LINE
5
181
8
0
6
BYLAYER
62
256
10
52.47
20
749.58
11
51.95
21
749.767
0
LINE
5
182
8
0
6
BYLAYER
62
256
10
51.95
20
749.767
11
51.457
21
750.018
0
LINE
5
183
8
0
6
BYLAYER
62
256
10
51.457
20
750.018
11
51
21
750.33
0
LINE
5
184
8
0
6
BYLAYER
62
256
10
51
20
750.33
11
50.586
21
750.694
0
LINE
5
185
8
0
6
BYLAYER
62
256
10
50.586
20
750.694
11
50.221
21
751.109
0
LINE
5
186
8
0
6
BYLAYER
62
256
10
50.221
20
751.109
11
49.91
21
751.566
0
LINE
5
187
8
0
6
BYLAYER
62
256
10
49.91
20
751.566
11
49.659
21
752.058
0
LINE
5
188
8
0
6
BYLAYER
62
256
10
49.659
20
752.058
11
49.472
21
752.578
0
LINE
5
189
8
0
6
BYLAYER
62
256
10
49.472
20
752.578
11
49.351
21
753.117
0
LINE
5
18A
8
0
6
BYLAYER
62
256
10
49.351
20
753.117
11
49.3
21
753.668
0
LINE
5
18B
8
0
6
BYLAYER
62
256
10
60.083
20
315.255
11
60.092
21
315.518
0
LINE
5
18C
8
0
6
BYLAYER
62
256
10
60.092
20
315.518
11
60.133
21
315.779
0
LINE
5
18D
8
0
6
BYLAYER
62
256
10
60.133
20
315.779
11
60.207
21
316.032
0
LINE
5
18E
8
0
6
BYLAYER
62
256
10
60.207
20
316.032
11
60.311
21
316.274
0
LINE
5
18F
8
0
6
BYLAYER
62
256
10
60.311
20
316.274
11
60.445
21
316.501
0
LINE
5
190
8
0
6
BYLAYER
62
256
10
60.445
20
316.501
11
60.607
21
316.709
0
LINE
5
191
8
0
6
BYLAYER
62
256
10
60.607
20
316.709
11
60.794
21
316.896
0
LINE
5
192
8
0
6
BYLAYER
62
256
10
60.794
20
316.896
11
61.002
21
317.058
0
LINE
5
193
8
0
6
BYLAYER
62
256
10
61.002
20
317.058
11
61.229
21
317.191
0
LINE
5
194
8
0
6
BYLAYER
62
256
10
61.229
20
317.191
11
61.471
21
317.296
0
LINE
5
195
8
0
6
BYLAYER
62
256
10
61.471
20
317.296
11
61.724
21
317.37
0
LINE
5
196
8
0
6
BYLAYER
62
256
10
61.724
20
317.37
11
61.985
21
317.411
0
LINE
5
197
8
0
6
BYLAYER
62
256
10
61.985
20
317.411
11
62.248
21
317.42
0
LINE
5
198
8
0
6
BYLAYER
62
256
10
62.248
20
317.42
11
62.511
21
317.394
0
LINE
5
199
8
0
6
BYLAYER
62
256
10
62.511
20
317.394
11
62.768
21
317.337
0
LINE
5
19A
8
0
6
BYLAYER
62
256
10
62.768
20
317.337
11
63.017
21
317.248
0
LINE
5
19B
8
0
6
BYLAYER
62
256
10
63.017
20
317.248
11
63.252
21
317.128
0
LINE
5
19C
8
0
6
BYLAYER
62
256
10
63.252
20
317.128
11
63.469
21
316.979
0
LINE
5
19D
8
0
6
BYLAYER
62
256
10
63.469
20
316.979
11
63.667
21
316.805
0
LINE
5
19E
8
0
6
BYLAYER
62
256
10
63.667
20
316.805
11
63.841
21
316.607
0
LINE
5
19F
8
0
6
BYLAYER
62
256
10
63.841
20
316.607
11
63.99
21
316.39
0
LINE
5
1A0
8
0
6
BYLAYER
62
256
10
63.99
20
316.39
11
64.11
21
316.155
0
LINE
5
1A1
8
0
6
BYLAYER
62
256
10
64.11
20
316.155
11
64.199
21
315.906
0
LINE
5
1A2
8
0
6
BYLAYER
62
256
10
64.199
20
315.906
11
64.256
21
315.649
0
LINE
5
1A3
8
0
6
BYLAYER
62
256
10
64.256
20
315.649
11
64.282
21
315.386
0
LINE
5
1A4
8
0
6
BYLAYER
62
256
10
64.282
20
315.386
11
64.273
21
315.123
0
LINE
5
1A5
8
0
6
BYLAYER
62
256
10
64.273
20
315.123
11
64.232
21
314.862
0
LINE
5
1A6
8
0
6
BYLAYER
62
256
10
64.232
20
314.862
11
64.158
21
314.609
0
LINE
5
1A7
8
0
6
BYLAYER
62
256
10
64.158
20
314.609
11
64.053
21
314.367
0
LINE
5
1A8
8
0
6
BYLAYER
62
256
10
64.053
20
314.367
11
63.92
21
314.14
0
LINE
5
1A9
8
0
6
BYLAYER
62
256
10
63.92
20
314.14
11
63.758
21
313.932
0
LINE
5
1AA
8
0
6
BYLAYER
62
256
10
63.758
20
313.932
11
63.571
21
313.745
0
LINE
5
1AB
8
0
6
BYLAYER
62
256
10
63.571
20
313.745
11
63.363
21
313.583
0
LINE
5
1AC
8
0
6
BYLAYER
62
256
10
63.363
20
313.583
11
63.136
21
313.449
0
LINE
5
1AD
8
0
6
BYLAYER
62
256
10
63.136
20
313.449
11
62.894
21
313.345
0
LINE
5
1AE
8
0
6
BYLAYER
62
256
10
62.894
20
313.345
11
62.641
21
313.271
0
LINE
5
1AF
8
0
6
BYLAYER
62
256
10
62.641
20
313.271
11
62.38
21
313.229
0
LINE
5
1B0
8
0
6
BYLAYER
62
256
10
62.38
20
313.229
11
62.117
21
313.221
0
LINE
5
1B1
8
0
6
BYLAYER
62
256
10
62.117
20
313.221
11
61.854
21
313.246
0
LINE
5
1B2
8
0
6
BYLAYER
62
256
10
61.854
20
313.246
11
61.597
21
313.304
0
LINE
5
1B3
8
0
6
BYLAYER
62
256
10
61.597
20
313.304
11
61.348
21
313.393
0
LINE
5
1B4
8
0
6
BYLAYER
62
256
10
61.348
20
313.393
11
61.113
21
313.513
0
LINE
5
1B5
8
0
6
BYLAYER
62
256
10
61.113
20
313.513
11
60.896
21
313.662
0
LINE
5
1B6
8
0
6
BYLAYER
62
256
10
60.896
20
313.662
11
60.698
21
313.835
0
LINE
5
1B7
8
0
6
BYLAYER
62
256
10
60.698
20
313.835
11
60.524
21
314.033
0
LINE
5
1B8
8
0
6
BYLAYER
62
256
10
60.524
20
314.033
11
60.375
21
314.251
0
LINE
5
1B9
8
0
6
BYLAYER
62
256
10
60.375
20
314.251
11
60.255
21
314.486
0
LINE
5
1BA
8
0
6
BYLAYER
62
256
10
60.255
20
314.486
11
60.166
21
314.735
0
LINE
5
1BB
8
0
6
BYLAYER
62
256
10
60.166
20
314.735
11
60.109
21
314.992
0
LINE
5
1BC
8
0
6
BYLAYER
62
256
10
60.109
20
314.992
11
60.083
21
315.255
0
LINE
5
1BD
8
0
6
BYLAYER
62
256
10
60.083
20
745.255
11
60.092
21
745.518
0
LINE
5
1BE
8
0
6
BYLAYER
62
256
10
60.092
20
745.518
11
60.133
21
745.779
0
LINE
5
1BF
8
0
6
BYLAYER
62
256
10
60.133
20
745.779
11
60.207
21
746.032
0
LINE
5
1C0
8
0
6
BYLAYER
62
256
10
60.207
20
746.032
11
60.311
21
746.274
0
LINE
5
1C1
8
0
6
BYLAYER
62
256
10
60.311
20
746.274
11
60.445
21
746.501
0
LINE
5
1C2
8
0
6
BYLAYER
62
256
10
60.445
20
746.501
11
60.607
21
746.709
0
LINE
5
1C3
8
0
6
BYLAYER
62
256
10
60.607
20
746.709
11
60.794
21
746.896
0
LINE
5
1C4
8
0
6
BYLAYER
62
256
10
60.794
20
746.896
11
61.002
21
747.058
0
LINE
5
1C5
8
0
6
BYLAYER
62
256
10
61.002
20
747.058
11
61.229
21
747.191
0
LINE
5
1C6
8
0
6
BYLAYER
62
256
10
61.229
20
747.191
11
61.471
21
747.296
0
LINE
5
1C7
8
0
6
BYLAYER
62
256
10
61.471
20
747.296
11
61.724
21
747.37
0
LINE
5
1C8
8
0
6
BYLAYER
62
256
10
61.724
20
747.37
11
61.985
21
747.411
0
LINE
5
1C9
8
0
6
BYLAYER
62
256
10
61.985
20
747.411
11
62.248
21
747.42
0
LINE
5
1CA
8
0
6
BYLAYER
62
256
10
62.248
20
747.42
11
62.511
21
747.394
0
LINE
5
1CB
8
0
6
BYLAYER
62
256
10
62.511
20
747.394
11
62.768
21
747.337
0
LINE
5
1CC
8
0
6
BYLAYER
62
256
10
62.768
20
747.337
11
63.017
21
747.248
0
LINE
5
1CD
8
0
6
BYLAYER
62
256
10
63.017
20
747.248
11
63.252
21
747.128
0
LINE
5
1CE
8
0
6
BYLAYER
62
256
10
63.252
20
747.128
11
63.469
21
746.979
0
LINE
5
1CF
8
0
6
BYLAYER
62
256
10
63.469
20
746.979
11
63.667
21
746.805
0
LINE
5
1D0
8
0
6
BYLAYER
62
256
10
63.667
20
746.805
11
63.841
21
746.607
0
LINE
5
1D1
8
0
6
BYLAYER
62
256
10
63.841
20
746.607
11
63.99
21
746.39
0
LINE
5
1D2
8
0
6
BYLAYER
62
256
10
63.99
20
746.39
11
64.11
21
746.155
0
LINE
5
1D3
8
0
6
BYLAYER
62
256
10
64.11
20
746.155
11
64.199
21
745.906
0
LINE
5
1D4
8
0
6
BYLAYER
62
256
10
64.199
20
745.906
11
64.256
21
745.649
0
LINE
5
1D5
8
0
6
BYLAYER
62
256
10
64.256
20
745.649
11
64.282
21
745.386
0
LINE
5
1D6
8
0
6
BYLAYER
62
256
10
64.282
20
745.386
11
64.273
21
745.123
0
LINE
5
1D7
8
0
6
BYLAYER
62
256
10
64.273
20
745.123
11
64.232
21
744.862
0
LINE
5
1D8
8
0
6
BYLAYER
62
256
10
64.232
20
744.862
11
64.158
21
744.609
0
LINE
5
1D9
8
0
6
BYLAYER
62
256
10
64.158
20
744.609
11
64.053
21
744.367
0
LINE
5
1DA
8
0
6
BYLAYER
62
256
10
64.053
20
744.367
11
63.92
21
744.14
0
LINE
5
1DB
8
0
6
BYLAYER
62
256
10
63.92
20
744.14
11
63.758
21
743.932
0
LINE
5
1DC
8
0
6
BYLAYER
62
256
10
63.758
20
743.932
11
63.571
21
743.745
0
LINE
5
1DD
8
0
6
BYLAYER
62
256
10
63.571
20
743.745
11
63.363
21
743.583
0
LINE
5
1DE
8
0
6
BYLAYER
62
256
10
63.363
20
743.583
11
63.136
21
743.449
0
LINE
5
1DF
8
0
6
BYLAYER
62
256
10
63.136
20
743.449
11
62.894
21
743.345
0
LINE
5
1E0
8
0
6
BYLAYER
62
256
10
62.894
20
743.345
11
62.641
21
743.271
0
LINE
5
1E1
8
0
6
BYLAYER
62
256
10
62.641
20
743.271
11
62.38
21
743.229
0
LINE
5
1E2
8
0
6
BYLAYER
62
256
10
62.38
20
743.229
11
62.117
21
743.221
0
LINE
5
1E3
8
0
6
BYLAYER
62
256
10
62.117
20
743.221
11
61.854
21
743.246
0
LINE
5
1E4
8
0
6
BYLAYER
62
256
10
61.854
20
743.246
11
61.597
21
743.304
0
LINE
5
1E5
8
0
6
BYLAYER
62
256
10
61.597
20
743.304
11
61.348
21
743.393
0
LINE
5
1E6
8
0
6
BYLAYER
62
256
10
61.348
20
743.393
11
61.113
21
743.513
0
LINE
5
1E7
8
0
6
BYLAYER
62
256
10
61.113
20
743.513
11
60.896
21
743.662
0
LINE
5
1E8
8
0
6
BYLAYER
62
256
10
60.896
20
743.662
11
60.698
21
743.835
0
LINE
5
1E9
8
0
6
BYLAYER
62
256
10
60.698
20
743.835
11
60.524
21
744.033
0
LINE
5
1EA
8
0
6
BYLAYER
62
256
10
60.524
20
744.033
11
60.375
21
744.251
0
LINE
5
1EB
8
0
6
BYLAYER
62
256
10
60.375
20
744.251
11
60.255
21
744.486
0
LINE
5
1EC
8
0
6
BYLAYER
62
256
10
60.255
20
744.486
11
60.166
21
744.735
0
LINE
5
1ED
8
0
6
BYLAYER
62
256
10
60.166
20
744.735
11
60.109
21
744.992
0
LINE
5
1EE
8
0
6
BYLAYER
62
256
10
60.109
20
744.992
11
60.083
21
745.255
0
LINE
5
1EF
8
0
6
BYLAYER
62
256
10
85.539
20
289.799
11
85.547
21
290.062
0
LINE
5
1F0
8
0
6
BYLAYER
62
256
10
85.547
20
290.062
11
85.589
21
290.323
0
LINE
5
1F1
8
0
6
BYLAYER
62
256
10
85.589
20
290.323
11
85.663
21
290.576
0
LINE
5
1F2
8
0
6
BYLAYER
62
256
10
85.663
20
290.576
11
85.767
21
290.818
0
LINE
5
1F3
8
0
6
BYLAYER
62
256
10
85.767
20
290.818
11
85.901
21
291.045
0
LINE
5
1F4
8
0
6
BYLAYER
62
256
10
85.901
20
291.045
11
86.063
21
291.253
0
LINE
5
1F5
8
0
6
BYLAYER
62
256
10
86.063
20
291.253
11
86.25
21
291.44
0
LINE
5
1F6
8
0
6
BYLAYER
62
256
10
86.25
20
291.44
11
86.458
21
291.602
0
LINE
5
1F7
8
0
6
BYLAYER
62
256
10
86.458
20
291.602
11
86.685
21
291.736
0
LINE
5
1F8
8
0
6
BYLAYER
62
256
10
86.685
20
291.736
11
86.927
21
291.84
0
LINE
5
1F9
8
0
6
BYLAYER
62
256
10
86.927
20
291.84
11
87.18
21
291.914
0
LINE
5
1FA
8
0
6
BYLAYER
62
256
10
87.18
20
291.914
11
87.441
21
291.955
0
LINE
5
1FB
8
0
6
BYLAYER
62
256
10
87.441
20
291.955
11
87.704
21
291.964
0
LINE
5
1FC
8
0
6
BYLAYER
62
256
10
87.704
20
291.964
11
87.967
21
291.938
0
LINE
5
1FD
8
0
6
BYLAYER
62
256
10
87.967
20
291.938
11
88.224
21
291.881
0
LINE
5
1FE
8
0
6
BYLAYER
62
256
10
88.224
20
291.881
11
88.473
21
291.792
0
LINE
5
1FF
8
0
6
BYLAYER
62
256
10
88.473
20
291.792
11
88.707
21
291.672
0
LINE
5
200
8
0
6
BYLAYER
62
256
10
88.707
20
291.672
11
88.925
21
291.523
0
LINE
5
201
8
0
6
BYLAYER
62
256
10
88.925
20
291.523
11
89.123
21
291.349
0
LINE
5
202
8
0
6
BYLAYER
62
256
10
89.123
20
291.349
11
89.297
21
291.151
0
LINE
5
203
8
0
6
BYLAYER
62
256
10
89.297
20
291.151
11
89.446
21
290.934
0
LINE
5
204
8
0
6
BYLAYER
62
256
10
89.446
20
290.934
11
89.566
21
290.699
0
LINE
5
205
8
0
6
BYLAYER
62
256
10
89.566
20
290.699
11
89.655
21
290.45
0
LINE
5
206
8
0
6
BYLAYER
62
256
10
89.655
20
290.45
11
89.712
21
290.193
0
LINE
5
207
8
0
6
BYLAYER
62
256
10
89.712
20
290.193
11
89.738
21
289.93
0
LINE
5
208
8
0
6
BYLAYER
62
256
10
89.738
20
289.93
11
89.729
21
289.667
0
LINE
5
209
8
0
6
BYLAYER
62
256
10
89.729
20
289.667
11
89.688
21
289.406
0
LINE
5
20A
8
0
6
BYLAYER
62
256
10
89.688
20
289.406
11
89.614
21
289.153
0
LINE
5
20B
8
0
6
BYLAYER
62
256
10
89.614
20
289.153
11
89.509
21
288.911
0
LINE
5
20C
8
0
6
BYLAYER
62
256
10
89.509
20
288.911
11
89.376
21
288.684
0
LINE
5
20D
8
0
6
BYLAYER
62
256
10
89.376
20
288.684
11
89.214
21
288.476
0
LINE
5
20E
8
0
6
BYLAYER
62
256
10
89.214
20
288.476
11
89.027
21
288.289
0
LINE
5
20F
8
0
6
BYLAYER
62
256
10
89.027
20
288.289
11
88.818
21
288.127
0
LINE
5
210
8
0
6
BYLAYER
62
256
10
88.818
20
288.127
11
88.592
21
287.994
0
LINE
5
211
8
0
6
BYLAYER
62
256
10
88.592
20
287.994
11
88.35
21
287.889
0
LINE
5
212
8
0
6
BYLAYER
62
256
10
88.35
20
287.889
11
88.097
21
287.815
0
LINE
5
213
8
0
6
BYLAYER
62
256
10
88.097
20
287.815
11
87.836
21
287.774
0
LINE
5
214
8
0
6
BYLAYER
62
256
10
87.836
20
287.774
11
87.573
21
287.765
0
LINE
5
215
8
0
6
BYLAYER
62
256
10
87.573
20
287.765
11
87.31
21
287.791
0
LINE
5
216
8
0
6
BYLAYER
62
256
10
87.31
20
287.791
11
87.053
21
287.848
0
LINE
5
217
8
0
6
BYLAYER
62
256
10
87.053
20
287.848
11
86.804
21
287.937
0
LINE
5
218
8
0
6
BYLAYER
62
256
10
86.804
20
287.937
11
86.569
21
288.057
0
LINE
5
219
8
0
6
BYLAYER
62
256
10
86.569
20
288.057
11
86.351
21
288.206
0
LINE
5
21A
8
0
6
BYLAYER
62
256
10
86.351
20
288.206
11
86.153
21
288.38
0
LINE
5
21B
8
0
6
BYLAYER
62
256
10
86.153
20
288.38
11
85.979
21
288.578
0
LINE
5
21C
8
0
6
BYLAYER
62
256
10
85.979
20
288.578
11
85.831
21
288.795
0
LINE
5
21D
8
0
6
BYLAYER
62
256
10
85.831
20
288.795
11
85.711
21
289.03
0
LINE
5
21E
8
0
6
BYLAYER
62
256
10
85.711
20
289.03
11
85.622
21
289.279
0
LINE
5
21F
8
0
6
BYLAYER
62
256
10
85.622
20
289.279
11
85.564
21
289.536
0
LINE
5
220
8
0
6
BYLAYER
62
256
10
85.564
20
289.536
11
85.539
21
289.799
0
LINE
5
221
8
0
6
BYLAYER
62
256
10
91.797
20
366.165
11
91.814
21
366.716
0
LINE
5
222
8
0
6
BYLAYER
62
256
10
91.814
20
366.716
11
91.9
21
367.262
0
LINE
5
223
8
0
6
BYLAYER
62
256
10
91.9
20
367.262
11
92.055
21
367.793
0
LINE
5
224
8
0
6
BYLAYER
62
256
10
92.055
20
367.793
11
92.273
21
368.3
0
LINE
5
225
8
0
6
BYLAYER
62
256
10
92.273
20
368.3
11
92.556
21
368.776
0
LINE
5
226
8
0
6
BYLAYER
62
256
10
92.556
20
368.776
11
92.894
21
369.213
0
LINE
5
227
8
0
6
BYLAYER
62
256
10
92.894
20
369.213
11
93.285
21
369.603
0
LINE
5
228
8
0
6
BYLAYER
62
256
10
93.285
20
369.603
11
93.721
21
369.942
0
LINE
5
229
8
0
6
BYLAYER
62
256
10
93.721
20
369.942
11
94.197
21
370.224
0
LINE
5
22A
8
0
6
BYLAYER
62
256
10
94.197
20
370.224
11
94.704
21
370.442
0
LINE
5
22B
8
0
6
BYLAYER
62
256
10
94.704
20
370.442
11
95.235
21
370.597
0
LINE
5
22C
8
0
6
BYLAYER
62
256
10
95.235
20
370.597
11
95.781
21
370.683
0
LINE
5
22D
8
0
6
BYLAYER
62
256
10
95.781
20
370.683
11
96.332
21
370.7
0
LINE
5
22E
8
0
6
BYLAYER
62
256
10
96.332
20
370.7
11
96.883
21
370.649
0
LINE
5
22F
8
0
6
BYLAYER
62
256
10
96.883
20
370.649
11
97.422
21
370.528
0
LINE
5
230
8
0
6
BYLAYER
62
256
10
97.422
20
370.528
11
97.942
21
370.341
0
LINE
5
231
8
0
6
BYLAYER
62
256
10
97.942
20
370.341
11
98.434
21
370.09
0
LINE
5
232
8
0
6
BYLAYER
62
256
10
98.434
20
370.09
11
98.891
21
369.779
0
LINE
5
233
8
0
6
BYLAYER
62
256
10
98.891
20
369.779
11
99.306
21
369.414
0
LINE
5
234
8
0
6
BYLAYER
62
256
10
99.306
20
369.414
11
99.67
21
369
0
LINE
5
235
8
0
6
BYLAYER
62
256
10
99.67
20
369
11
99.982
21
368.543
0
LINE
5
236
8
0
6
BYLAYER
62
256
10
99.982
20
368.543
11
100.233
21
368.05
0
LINE
5
237
8
0
6
BYLAYER
62
256
10
100.233
20
368.05
11
100.42
21
367.53
0
LINE
5
238
8
0
6
BYLAYER
62
256
10
100.42
20
367.53
11
100.54
21
366.992
0
LINE
5
239
8
0
6
BYLAYER
62
256
10
100.54
20
366.992
11
100.592
21
366.441
0
LINE
5
23A
8
0
6
BYLAYER
62
256
10
100.592
20
366.441
11
100.575
21
365.889
0
LINE
5
23B
8
0
6
BYLAYER
62
256
10
100.575
20
365.889
11
100.489
21
365.343
0
LINE
5
23C
8
0
6
BYLAYER
62
256
10
100.489
20
365.343
11
100.334
21
364.812
0
LINE
5
23D
8
0
6
BYLAYER
62
256
10
100.334
20
364.812
11
100.115
21
364.305
0
LINE
5
23E
8
0
6
BYLAYER
62
256
10
100.115
20
364.305
11
99.833
21
363.829
0
LINE
5
23F
8
0
6
BYLAYER
62
256
10
99.833
20
363.829
11
99.494
21
363.393
0
LINE
5
240
8
0
6
BYLAYER
62
256
10
99.494
20
363.393
11
99.104
21
363.003
0
LINE
5
241
8
0
6
BYLAYER
62
256
10
99.104
20
363.003
11
98.668
21
362.664
0
LINE
5
242
8
0
6
BYLAYER
62
256
10
98.668
20
362.664
11
98.192
21
362.382
0
LINE
5
243
8
0
6
BYLAYER
62
256
10
98.192
20
362.382
11
97.685
21
362.163
0
LINE
5
244
8
0
6
BYLAYER
62
256
10
97.685
20
362.163
11
97.154
21
362.009
0
LINE
5
245
8
0
6
BYLAYER
62
256
10
97.154
20
362.009
11
96.608
21
361.922
0
LINE
5
246
8
0
6
BYLAYER
62
256
10
96.608
20
361.922
11
96.056
21
361.905
0
LINE
5
247
8
0
6
BYLAYER
62
256
10
96.056
20
361.905
11
95.506
21
361.957
0
LINE
5
248
8
0
6
BYLAYER
62
256
10
95.506
20
361.957
11
94.967
21
362.077
0
LINE
5
249
8
0
6
BYLAYER
62
256
10
94.967
20
362.077
11
94.447
21
362.265
0
LINE
5
24A
8
0
6
BYLAYER
62
256
10
94.447
20
362.265
11
93.954
21
362.516
0
LINE
5
24B
8
0
6
BYLAYER
62
256
10
93.954
20
362.516
11
93.497
21
362.827
0
LINE
5
24C
8
0
6
BYLAYER
62
256
10
93.497
20
362.827
11
93.083
21
363.192
0
LINE
5
24D
8
0
6
BYLAYER
62
256
10
93.083
20
363.192
11
92.718
21
363.606
0
LINE
5
24E
8
0
6
BYLAYER
62
256
10
92.718
20
363.606
11
92.407
21
364.063
0
LINE
5
24F
8
0
6
BYLAYER
62
256
10
92.407
20
364.063
11
92.156
21
364.556
0
LINE
5
250
8
0
6
BYLAYER
62
256
10
92.156
20
364.556
11
91.969
21
365.075
0
LINE
5
251
8
0
6
BYLAYER
62
256
10
91.969
20
365.075
11
91.848
21
365.614
0
LINE
5
252
8
0
6
BYLAYER
62
256
10
91.848
20
365.614
11
91.797
21
366.165
0
LINE
5
253
8
0
6
BYLAYER
62
256
10
91.797
20
796.165
11
91.814
21
796.716
0
LINE
5
254
8
0
6
BYLAYER
62
256
10
91.814
20
796.716
11
91.9
21
797.262
0
LINE
5
255
8
0
6
BYLAYER
62
256
10
91.9
20
797.262
11
92.055
21
797.793
0
LINE
5
256
8
0
6
BYLAYER
62
256
10
92.055
20
797.793
11
92.273
21
798.3
0
LINE
5
257
8
0
6
BYLAYER
62
256
10
92.273
20
798.3
11
92.556
21
798.776
0
LINE
5
258
8
0
6
BYLAYER
62
256
10
92.556
20
798.776
11
92.894
21
799.213
0
LINE
5
259
8
0
6
BYLAYER
62
256
10
92.894
20
799.213
11
93.285
21
799.603
0
LINE
5
25A
8
0
6
BYLAYER
62
256
10
93.285
20
799.603
11
93.721
21
799.942
0
LINE
5
25B
8
0
6
BYLAYER
62
256
10
93.721
20
799.942
11
94.197
21
800.224
0
LINE
5
25C
8
0
6
BYLAYER
62
256
10
94.197
20
800.224
11
94.704
21
800.442
0
LINE
5
25D
8
0
6
BYLAYER
62
256
10
94.704
20
800.442
11
95.235
21
800.597
0
LINE
5
25E
8
0
6
BYLAYER
62
256
10
95.235
20
800.597
11
95.781
21
800.683
0
LINE
5
25F
8
0
6
BYLAYER
62
256
10
95.781
20
800.683
11
96.332
21
800.7
0
LINE
5
260
8
0
6
BYLAYER
62
256
10
96.332
20
800.7
11
96.883
21
800.649
0
LINE
5
261
8
0
6
BYLAYER
62
256
10
96.883
20
800.649
11
97.422
21
800.528
0
LINE
5
262
8
0
6
BYLAYER
62
256
10
97.422
20
800.528
11
97.942
21
800.341
0
LINE
5
263
8
0
6
BYLAYER
62
256
10
97.942
20
800.341
11
98.434
21
800.09
0
LINE
5
264
8
0
6
BYLAYER
62
256
10
98.434
20
800.09
11
98.891
21
799.779
0
LINE
5
265
8
0
6
BYLAYER
62
256
10
98.891
20
799.779
11
99.306
21
799.414
0
LINE
5
266
8
0
6
BYLAYER
62
256
10
99.306
20
799.414
11
99.67
21
799
0
LINE
5
267
8
0
6
BYLAYER
62
256
10
99.67
20
799
11
99.982
21
798.543
0
LINE
5
268
8
0
6
BYLAYER
62
256
10
99.982
20
798.543
11
100.233
21
798.05
0
LINE
5
269
8
0
6
BYLAYER
62
256
10
100.233
20
798.05
11
100.42
21
797.53
0
LINE
5
26A
8
0
6
BYLAYER
62
256
10
100.42
20
797.53
11
100.54
21
796.992
0
LINE
5
26B
8
0
6
BYLAYER
62
256
10
100.54
20
796.992
11
100.592
21
796.441
0
LINE
5
26C
8
0
6
BYLAYER
62
256
10
100.592
20
796.441
11
100.575
21
795.889
0
LINE
5
26D
8
0
6
BYLAYER
62
256
10
100.575
20
795.889
11
100.489
21
795.343
0
LINE
5
26E
8
0
6
BYLAYER
62
256
10
100.489
20
795.343
11
100.334
21
794.812
0
LINE
5
26F
8
0
6
BYLAYER
62
256
10
100.334
20
794.812
11
100.115
21
794.305
0
LINE
5
270
8
0
6
BYLAYER
62
256
10
100.115
20
794.305
11
99.833
21
793.829
0
LINE
5
271
8
0
6
BYLAYER
62
256
10
99.833
20
793.829
11
99.494
21
793.393
0
LINE
5
272
8
0
6
BYLAYER
62
256
10
99.494
20
793.393
11
99.104
21
793.003
0
LINE
5
273
8
0
6
BYLAYER
62
256
10
99.104
20
793.003
11
98.668
21
792.664
0
LINE
5
274
8
0
6
BYLAYER
62
256
10
98.668
20
792.664
11
98.192
21
792.382
0
LINE
5
275
8
0
6
BYLAYER
62
256
10
98.192
20
792.382
11
97.685
21
792.163
0
LINE
5
276
8
0
6
BYLAYER
62
256
10
97.685
20
792.163
11
97.154
21
792.009
0
LINE
5
277
8
0
6
BYLAYER
62
256
10
97.154
20
792.009
11
96.608
21
791.922
0
LINE
5
278
8
0
6
BYLAYER
62
256
10
96.608
20
791.922
11
96.056
21
791.905
0
LINE
5
279
8
0
6
BYLAYER
62
256
10
96.056
20
791.905
11
95.506
21
791.957
0
LINE
5
27A
8
0
6
BYLAYER
62
256
10
95.506
20
791.957
11
94.967
21
792.077
0
LINE
5
27B
8
0
6
BYLAYER
62
256
10
94.967
20
792.077
11
94.447
21
792.265
0
LINE
5
27C
8
0
6
BYLAYER
62
256
10
94.447
20
792.265
11
93.954
21
792.516
0
LINE
5
27D
8
0
6
BYLAYER
62
256
10
93.954
20
792.516
11
93.497
21
792.827
0
LINE
5
27E
8
0
6
BYLAYER
62
256
10
93.497
20
792.827
11
93.083
21
793.192
0
LINE
5
27F
8
0
6
BYLAYER
62
256
10
93.083
20
793.192
11
92.718
21
793.606
0
LINE
5
280
8
0
6
BYLAYER
62
256
10
92.718
20
793.606
11
92.407
21
794.063
0
LINE
5
281
8
0
6
BYLAYER
62
256
10
92.407
20
794.063
11
92.156
21
794.556
0
LINE
5
282
8
0
6
BYLAYER
62
256
10
92.156
20
794.556
11
91.969
21
795.075
0
LINE
5
283
8
0
6
BYLAYER
62
256
10
91.969
20
795.075
11
91.848
21
795.614
0
LINE
5
284
8
0
6
BYLAYER
62
256
10
91.848
20
795.614
11
91.797
21
796.165
0
LINE
5
285
8
0
6
BYLAYER
62
256
10
102.58
20
357.752
11
102.589
21
358.015
0
LINE
5
286
8
0
6
BYLAYER
62
256
10
102.589
20
358.015
11
102.63
21
358.276
0
LINE
5
287
8
0
6
BYLAYER
62
256
10
102.63
20
358.276
11
102.704
21
358.529
0
LINE
5
288
8
0
6
BYLAYER
62
256
10
102.704
20
358.529
11
102.809
21
358.771
0
LINE
5
289
8
0
6
BYLAYER
62
256
10
102.809
20
358.771
11
102.942
21
358.998
0
LINE
5
28A
8
0
6
BYLAYER
62
256
10
102.942
20
358.998
11
103.104
21
359.206
0
LINE
5
28B
8
0
6
BYLAYER
62
256
10
103.104
20
359.206
11
103.291
21
359.393
0
LINE
5
28C
8
0
6
BYLAYER
62
256
10
103.291
20
359.393
11
103.499
21
359.555
0
LINE
5
28D
8
0
6
BYLAYER
62
256
10
103.499
20
359.555
11
103.726
21
359.689
0
LINE
5
28E
8
0
6
BYLAYER
62
256
10
103.726
20
359.689
11
103.968
21
359.793
0
LINE
5
28F
8
0
6
BYLAYER
62
256
10
103.968
20
359.793
11
104.221
21
359.867
0
LINE
5
290
8
0
6
BYLAYER
62
256
10
104.221
20
359.867
11
104.482
21
359.908
0
LINE
5
291
8
0
6
BYLAYER
62
256
10
104.482
20
359.908
11
104.745
21
359.917
0
LINE
5
292
8
0
6
BYLAYER
62
256
10
104.745
20
359.917
11
105.008
21
359.891
0
LINE
5
293
8
0
6
BYLAYER
62
256
10
105.008
20
359.891
11
105.265
21
359.834
0
LINE
5
294
8
0
6
BYLAYER
62
256
10
105.265
20
359.834
11
105.514
21
359.745
0
LINE
5
295
8
0
6
BYLAYER
62
256
10
105.514
20
359.745
11
105.749
21
359.625
0
LINE
5
296
8
0
6
BYLAYER
62
256
10
105.749
20
359.625
11
105.967
21
359.476
0
LINE
5
297
8
0
6
BYLAYER
62
256
10
105.967
20
359.476
11
106.165
21
359.302
0
LINE
5
298
8
0
6
BYLAYER
62
256
10
106.165
20
359.302
11
106.338
21
359.104
0
LINE
5
299
8
0
6
BYLAYER
62
256
10
106.338
20
359.104
11
106.487
21
358.887
0
LINE
5
29A
8
0
6
BYLAYER
62
256
10
106.487
20
358.887
11
106.607
21
358.652
0
LINE
5
29B
8
0
6
BYLAYER
62
256
10
106.607
20
358.652
11
106.696
21
358.403
0
LINE
5
29C
8
0
6
BYLAYER
62
256
10
106.696
20
358.403
11
106.754
21
358.146
0
LINE
5
29D
8
0
6
BYLAYER
62
256
10
106.754
20
358.146
11
106.779
21
357.883
0
LINE
5
29E
8
0
6
BYLAYER
62
256
10
106.779
20
357.883
11
106.771
21
357.62
0
LINE
5
29F
8
0
6
BYLAYER
62
256
10
106.771
20
357.62
11
106.729
21
357.359
0
LINE
5
2A0
8
0
6
BYLAYER
62
256
10
106.729
20
357.359
11
106.655
21
357.106
0
LINE
5
2A1
8
0
6
BYLAYER
62
256
10
106.655
20
357.106
11
106.551
21
356.864
0
LINE
5
2A2
8
0
6
BYLAYER
62
256
10
106.551
20
356.864
11
106.417
21
356.637
0
LINE
5
2A3
8
0
6
BYLAYER
62
256
10
106.417
20
356.637
11
106.255
21
356.429
0
LINE
5
2A4
8
0
6
BYLAYER
62
256
10
106.255
20
356.429
11
106.068
21
356.242
0
LINE
5
2A5
8
0
6
BYLAYER
62
256
10
106.068
20
356.242
11
105.86
21
356.08
0
LINE
5
2A6
8
0
6
BYLAYER
62
256
10
105.86
20
356.08
11
105.633
21
355.947
0
LINE
5
2A7
8
0
6
BYLAYER
62
256
10
105.633
20
355.947
11
105.391
21
355.842
0
LINE
5
2A8
8
0
6
BYLAYER
62
256
10
105.391
20
355.842
11
105.138
21
355.768
0
LINE
5
2A9
8
0
6
BYLAYER
62
256
10
105.138
20
355.768
11
104.877
21
355.727
0
LINE
5
2AA
8
0
6
BYLAYER
62
256
10
104.877
20
355.727
11
104.614
21
355.718
0
LINE
5
2AB
8
0
6
BYLAYER
62
256
10
104.614
20
355.718
11
104.351
21
355.744
0
LINE
5
2AC
8
0
6
BYLAYER
62
256
10
104.351
20
355.744
11
104.094
21
355.801
0
LINE
5
2AD
8
0
6
BYLAYER
62
256
10
104.094
20
355.801
11
103.845
21
355.89
0
LINE
5
2AE
8
0
6
BYLAYER
62
256
10
103.845
20
355.89
11
103.61
21
356.01
0
LINE
5
2AF
8
0
6
BYLAYER
62
256
10
103.61
20
356.01
11
103.393
21
356.159
0
LINE
5
2B0
8
0
6
BYLAYER
62
256
10
103.393
20
356.159
11
103.195
21
356.333
0
LINE
5
2B1
8
0
6
BYLAYER
62
256
10
103.195
20
356.333
11
103.021
21
356.531
0
LINE
5
2B2
8
0
6
BYLAYER
62
256
10
103.021
20
356.531
11
102.872
21
356.748
0
LINE
5
2B3
8
0
6
BYLAYER
62
256
10
102.872
20
356.748
11
102.752
21
356.983
0
LINE
5
2B4
8
0
6
BYLAYER
62
256
10
102.752
20
356.983
11
102.663
21
357.232
0
LINE
5
2B5
8
0
6
BYLAYER
62
256
10
102.663
20
357.232
11
102.606
21
357.489
0
LINE
5
2B6
8
0
6
BYLAYER
62
256
10
102.606
20
357.489
11
102.58
21
357.752
0
LINE
5
2B7
8
0
6
BYLAYER
62
256
10
102.58
20
787.752
11
102.589
21
788.015
0
LINE
5
2B8
8
0
6
BYLAYER
62
256
10
102.589
20
788.015
11
102.63
21
788.276
0
LINE
5
2B9
8
0
6
BYLAYER
62
256
10
102.63
20
788.276
11
102.704
21
788.529
0
LINE
5
2BA
8
0
6
BYLAYER
62
256
10
102.704
20
788.529
11
102.809
21
788.771
0
LINE
5
2BB
8
0
6
BYLAYER
62
256
10
102.809
20
788.771
11
102.942
21
788.998
0
LINE
5
2BC
8
0
6
BYLAYER
62
256
10
102.942
20
788.998
11
103.104
21
789.206
0
LINE
5
2BD
8
0
6
BYLAYER
62
256
10
103.104
20
789.206
11
103.291
21
789.393
0
LINE
5
2BE
8
0
6
BYLAYER
62
256
10
103.291
20
789.393
11
103.499
21
789.555
0
LINE
5
2BF
8
0
6
BYLAYER
62
256
10
103.499
20
789.555
11
103.726
21
789.689
0
LINE
5
2C0
8
0
6
BYLAYER
62
256
10
103.726
20
789.689
11
103.968
21
789.793
0
LINE
5
2C1
8
0
6
BYLAYER
62
256
10
103.968
20
789.793
11
104.221
21
789.867
0
LINE
5
2C2
8
0
6
BYLAYER
62
256
10
104.221
20
789.867
11
104.482
21
789.908
0
LINE
5
2C3
8
0
6
BYLAYER
62
256
10
104.482
20
789.908
11
104.745
21
789.917
0
LINE
5
2C4
8
0
6
BYLAYER
62
256
10
104.745
20
789.917
11
105.008
21
789.891
0
LINE
5
2C5
8
0
6
BYLAYER
62
256
10
105.008
20
789.891
11
105.265
21
789.834
0
LINE
5
2C6
8
0
6
BYLAYER
62
256
10
105.265
20
789.834
11
105.514
21
789.745
0
LINE
5
2C7
8
0
6
BYLAYER
62
256
10
105.514
20
789.745
11
105.749
21
789.625
0
LINE
5
2C8
8
0
6
BYLAYER
62
256
10
105.749
20
789.625
11
105.967
21
789.476
0
LINE
5
2C9
8
0
6
BYLAYER
62
256
10
105.967
20
789.476
11
106.165
21
789.302
0
LINE
5
2CA
8
0
6
BYLAYER
62
256
10
106.165
20
789.302
11
106.338
21
789.104
0
LINE
5
2CB
8
0
6
BYLAYER
62
256
10
106.338
20
789.104
11
106.487
21
788.887
0
LINE
5
2CC
8
0
6
BYLAYER
62
256
10
106.487
20
788.887
11
106.607
21
788.652
0
LINE
5
2CD
8
0
6
BYLAYER
62
256
10
106.607
20
788.652
11
106.696
21
788.403
0
LINE
5
2CE
8
0
6
BYLAYER
62
256
10
106.696
20
788.403
11
106.754
21
788.146
0
LINE
5
2CF
8
0
6
BYLAYER
62
256
10
106.754
20
788.146
11
106.779
21
787.883
0
LINE
5
2D0
8
0
6
BYLAYER
62
256
10
106.779
20
787.883
11
106.771
21
787.62
0
LINE
5
2D1
8
0
6
BYLAYER
62
256
10
106.771
20
787.62
11
106.729
21
787.359
0
LINE
5
2D2
8
0
6
BYLAYER
62
256
10
106.729
20
787.359
11
106.655
21
787.106
0
LINE
5
2D3
8
0
6
BYLAYER
62
256
10
106.655
20
787.106
11
106.551
21
786.864
0
LINE
5
2D4
8
0
6
BYLAYER
62
256
10
106.551
20
786.864
11
106.417
21
786.637
0
LINE
5
2D5
8
0
6
BYLAYER
62
256
10
106.417
20
786.637
11
106.255
21
786.429
0
LINE
5
2D6
8
0
6
BYLAYER
62
256
10
106.255
20
786.429
11
106.068
21
786.242
0
LINE
5
2D7
8
0
6
BYLAYER
62
256
10
106.068
20
786.242
11
105.86
21
786.08
0
LINE
5
2D8
8
0
6
BYLAYER
62
256
10
105.86
20
786.08
11
105.633
21
785.947
0
LINE
5
2D9
8
0
6
BYLAYER
62
256
10
105.633
20
785.947
11
105.391
21
785.842
0
LINE
5
2DA
8
0
6
BYLAYER
62
256
10
105.391
20
785.842
11
105.138
21
785.768
0
LINE
5
2DB
8
0
6
BYLAYER
62
256
10
105.138
20
785.768
11
104.877
21
785.727
0
LINE
5
2DC
8
0
6
BYLAYER
62
256
10
104.877
20
785.727
11
104.614
21
785.718
0
LINE
5
2DD
8
0
6
BYLAYER
62
256
10
104.614
20
785.718
11
104.351
21
785.744
0
LINE
5
2DE
8
0
6
BYLAYER
62
256
10
104.351
20
785.744
11
104.094
21
785.801
0
LINE
5
2DF
8
0
6
BYLAYER
62
256
10
104.094
20
785.801
11
103.845
21
785.89
0
LINE
5
2E0
8
0
6
BYLAYER
62
256
10
103.845
20
785.89
11
103.61
21
786.01
0
LINE
5
2E1
8
0
6
BYLAYER
62
256
10
103.61
20
786.01
11
103.393
21
786.159
0
LINE
5
2E2
8
0
6
BYLAYER
62
256
10
103.393
20
786.159
11
103.195
21
786.333
0
LINE
5
2E3
8
0
6
BYLAYER
62
256
10
103.195
20
786.333
11
103.021
21
786.531
0
LINE
5
2E4
8
0
6
BYLAYER
62
256
10
103.021
20
786.531
11
102.872
21
786.748
0
LINE
5
2E5
8
0
6
BYLAYER
62
256
10
102.872
20
786.748
11
102.752
21
786.983
0
LINE
5
2E6
8
0
6
BYLAYER
62
256
10
102.752
20
786.983
11
102.663
21
787.232
0
LINE
5
2E7
8
0
6
BYLAYER
62
256
10
102.663
20
787.232
11
102.606
21
787.489
0
LINE
5
2E8
8
0
6
BYLAYER
62
256
10
102.606
20
787.489
11
102.58
21
787.752
0
LINE
5
2E9
8
0
6
BYLAYER
62
256
10
109.66
20
98.577
11
109.7
21
99.128
0
LINE
5
2EA
8
0
6
BYLAYER
62
256
10
109.7
20
99.128
11
109.809
21
99.67
0
LINE
5
2EB
8
0
6
BYLAYER
62
256
10
109.809
20
99.67
11
109.986
21
100.193
0
LINE
5
2EC
8
0
6
BYLAYER
62
256
10
109.986
20
100.193
11
110.226
21
100.691
0
LINE
5
2ED
8
0
6
BYLAYER
62
256
10
110.226
20
100.691
11
110.527
21
101.155
0
LINE
5
2EE
8
0
6
BYLAYER
62
256
10
110.527
20
101.155
11
110.884
21
101.576
0
LINE
5
2EF
8
0
6
BYLAYER
62
256
10
110.884
20
101.576
11
111.29
21
101.95
0
LINE
5
2F0
8
0
6
BYLAYER
62
256
10
111.29
20
101.95
11
111.741
21
102.27
0
LINE
5
2F1
8
0
6
BYLAYER
62
256
10
111.741
20
102.27
11
112.227
21
102.531
0
LINE
5
2F2
8
0
6
BYLAYER
62
256
10
112.227
20
102.531
11
112.743
21
102.729
0
LINE
5
2F3
8
0
6
BYLAYER
62
256
10
112.743
20
102.729
11
113.28
21
102.861
0
LINE
5
2F4
8
0
6
BYLAYER
62
256
10
113.28
20
102.861
11
113.829
21
102.925
0
LINE
5
2F5
8
0
6
BYLAYER
62
256
10
113.829
20
102.925
11
114.382
21
102.919
0
LINE
5
2F6
8
0
6
BYLAYER
62
256
10
114.382
20
102.919
11
114.929
21
102.844
0
LINE
5
2F7
8
0
6
BYLAYER
62
256
10
114.929
20
102.844
11
115.462
21
102.701
0
LINE
5
2F8
8
0
6
BYLAYER
62
256
10
115.462
20
102.701
11
115.974
21
102.492
0
LINE
5
2F9
8
0
6
BYLAYER
62
256
10
115.974
20
102.492
11
116.456
21
102.221
0
LINE
5
2FA
8
0
6
BYLAYER
62
256
10
116.456
20
102.221
11
116.899
21
101.891
0
LINE
5
2FB
8
0
6
BYLAYER
62
256
10
116.899
20
101.891
11
117.299
21
101.508
0
LINE
5
2FC
8
0
6
BYLAYER
62
256
10
117.299
20
101.508
11
117.646
21
101.079
0
LINE
5
2FD
8
0
6
BYLAYER
62
256
10
117.646
20
101.079
11
117.936
21
100.61
0
LINE
5
2FE
8
0
6
BYLAYER
62
256
10
117.936
20
100.61
11
118.168
21
100.107
0
LINE
5
2FF
8
0
6
BYLAYER
62
256
10
118.168
20
100.107
11
118.332
21
99.581
0
LINE
5
300
8
0
6
BYLAYER
62
256
10
118.332
20
99.581
11
118.431
21
99.037
0
LINE
5
301
8
0
6
BYLAYER
62
256
10
118.431
20
99.037
11
118.46
21
98.485
0
LINE
5
302
8
0
6
BYLAYER
62
256
10
118.46
20
98.485
11
118.419
21
97.933
0
LINE
5
303
8
0
6
BYLAYER
62
256
10
118.419
20
97.933
11
118.309
21
97.392
0
LINE
5
304
8
0
6
BYLAYER
62
256
10
118.309
20
97.392
11
118.133
21
96.868
0
LINE
5
305
8
0
6
BYLAYER
62
256
10
118.133
20
96.868
11
117.893
21
96.371
0
LINE
5
306
8
0
6
BYLAYER
62
256
10
117.893
20
96.371
11
117.592
21
95.907
0
LINE
5
307
8
0
6
BYLAYER
62
256
10
117.592
20
95.907
11
117.235
21
95.485
0
LINE
5
308
8
0
6
BYLAYER
62
256
10
117.235
20
95.485
11
116.829
21
95.112
0
LINE
5
309
8
0
6
BYLAYER
62
256
10
116.829
20
95.112
11
116.377
21
94.791
0
LINE
5
30A
8
0
6
BYLAYER
62
256
10
116.377
20
94.791
11
115.891
21
94.531
0
LINE
5
30B
8
0
6
BYLAYER
62
256
10
115.891
20
94.531
11
115.376
21
94.332
0
LINE
5
30C
8
0
6
BYLAYER
62
256
10
115.376
20
94.332
11
114.839
21
94.2
0
LINE
5
30D
8
0
6
BYLAYER
62
256
10
114.839
20
94.2
11
114.29
21
94.137
0
LINE
5
30E
8
0
6
BYLAYER
62
256
10
114.29
20
94.137
11
113.737
21
94.142
0
LINE
5
30F
8
0
6
BYLAYER
62
256
10
113.737
20
94.142
11
113.189
21
94.218
0
LINE
5
310
8
0
6
BYLAYER
62
256
10
113.189
20
94.218
11
112.656
21
94.361
0
LINE
5
311
8
0
6
BYLAYER
62
256
10
112.656
20
94.361
11
112.145
21
94.569
0
LINE
5
312
8
0
6
BYLAYER
62
256
10
112.145
20
94.569
11
111.663
21
94.84
0
LINE
5
313
8
0
6
BYLAYER
62
256
10
111.663
20
94.84
11
111.22
21
95.17
0
LINE
5
314
8
0
6
BYLAYER
62
256
10
111.22
20
95.17
11
110.82
21
95.553
0
LINE
5
315
8
0
6
BYLAYER
62
256
10
110.82
20
95.553
11
110.473
21
95.982
0
LINE
5
316
8
0
6
BYLAYER
62
256
10
110.473
20
95.982
11
110.182
21
96.451
0
LINE
5
317
8
0
6
BYLAYER
62
256
10
110.182
20
96.451
11
109.952
21
96.955
0
LINE
5
318
8
0
6
BYLAYER
62
256
10
109.952
20
96.955
11
109.786
21
97.481
0
LINE
5
319
8
0
6
BYLAYER
62
256
10
109.786
20
97.481
11
109.689
21
98.025
0
LINE
5
31A
8
0
6
BYLAYER
62
256
10
109.689
20
98.025
11
109.66
21
98.577
0
LINE
5
31B
8
0
6
BYLAYER
62
256
10
109.66
20
528.577
11
109.7
21
529.128
0
LINE
5
31C
8
0
6
BYLAYER
62
256
10
109.7
20
529.128
11
109.809
21
529.67
0
LINE
5
31D
8
0
6
BYLAYER
62
256
10
109.809
20
529.67
11
109.986
21
530.193
0
LINE
5
31E
8
0
6
BYLAYER
62
256
10
109.986
20
530.193
11
110.226
21
530.691
0
LINE
5
31F
8
0
6
BYLAYER
62
256
10
110.226
20
530.691
11
110.527
21
531.155
0
LINE
5
320
8
0
6
BYLAYER
62
256
10
110.527
20
531.155
11
110.884
21
531.576
0
LINE
5
321
8
0
6
BYLAYER
62
256
10
110.884
20
531.576
11
111.29
21
531.95
0
LINE
5
322
8
0
6
BYLAYER
62
256
10
111.29
20
531.95
11
111.741
21
532.27
0
LINE
5
323
8
0
6
BYLAYER
62
256
10
111.741
20
532.27
11
112.227
21
532.531
0
LINE
5
324
8
0
6
BYLAYER
62
256
10
112.227
20
532.531
11
112.743
21
532.729
0
LINE
5
325
8
0
6
BYLAYER
62
256
10
112.743
20
532.729
11
113.28
21
532.861
0
LINE
5
326
8
0
6
BYLAYER
62
256
10
113.28
20
532.861
11
113.829
21
532.925
0
LINE
5
327
8
0
6
BYLAYER
62
256
10
113.829
20
532.925
11
114.382
21
532.919
0
LINE
5
328
8
0
6
BYLAYER
62
256
10
114.382
20
532.919
11
114.929
21
532.844
0
LINE
5
329
8
0
6
BYLAYER
62
256
10
114.929
20
532.844
11
115.462
21
532.701
0
LINE
5
32A
8
0
6
BYLAYER
62
256
10
115.462
20
532.701
11
115.974
21
532.492
0
LINE
5
32B
8
0
6
BYLAYER
62
256
10
115.974
20
532.492
11
116.456
21
532.221
0
LINE
5
32C
8
0
6
BYLAYER
62
256
10
116.456
20
532.221
11
116.899
21
531.891
0
LINE
5
32D
8
0
6
BYLAYER
62
256
10
116.899
20
531.891
11
117.299
21
531.508
0
LINE
5
32E
8
0
6
BYLAYER
62
256
10
117.299
20
531.508
11
117.646
21
531.079
0
LINE
5
32F
8
0
6
BYLAYER
62
256
10
117.646
20
531.079
11
117.936
21
530.61
0
LINE
5
330
8
0
6
BYLAYER
62
256
10
117.936
20
530.61
11
118.168
21
530.107
0
LINE
5
331
8
0
6
BYLAYER
62
256
10
118.168
20
530.107
11
118.332
21
529.581
0
LINE
5
332
8
0
6
BYLAYER
62
256
10
118.332
20
529.581
11
118.431
21
529.037
0
LINE
5
333
8
0
6
BYLAYER
62
256
10
118.431
20
529.037
11
118.46
21
528.485
0
LINE
5
334
8
0
6
BYLAYER
62
256
10
118.46
20
528.485
11
118.419
21
527.933
0
LINE
5
335
8
0
6
BYLAYER
62
256
10
118.419
20
527.933
11
118.309
21
527.392
0
LINE
5
336
8
0
6
BYLAYER
62
256
10
118.309
20
527.392
11
118.133
21
526.868
0
LINE
5
337
8
0
6
BYLAYER
62
256
10
118.133
20
526.868
11
117.893
21
526.371
0
LINE
5
338
8
0
6
BYLAYER
62
256
10
117.893
20
526.371
11
117.592
21
525.907
0
LINE
5
339
8
0
6
BYLAYER
62
256
10
117.592
20
525.907
11
117.235
21
525.485
0
LINE
5
33A
8
0
6
BYLAYER
62
256
10
117.235
20
525.485
11
116.829
21
525.112
0
LINE
5
33B
8
0
6
BYLAYER
62
256
10
116.829
20
525.112
11
116.377
21
524.791
0
LINE
5
33C
8
0
6
BYLAYER
62
256
10
116.377
20
524.791
11
115.891
21
524.531
0
LINE
5
33D
8
0
6
BYLAYER
62
256
10
115.891
20
524.531
11
115.376
21
524.332
0
LINE
5
33E
8
0
6
BYLAYER
62
256
10
115.376
20
524.332
11
114.839
21
524.2
0
LINE
5
33F
8
0
6
BYLAYER
62
256
10
114.839
20
524.2
11
114.29
21
524.137
0
LINE
5
340
8
0
6
BYLAYER
62
256
10
114.29
20
524.137
11
113.737
21
524.142
0
LINE
5
341
8
0
6
BYLAYER
62
256
10
113.737
20
524.142
11
113.189
21
524.218
0
LINE
5
342
8
0
6
BYLAYER
62
256
10
113.189
20
524.218
11
112.656
21
524.361
0
LINE
5
343
8
0
6
BYLAYER
62
256
10
112.656
20
524.361
11
112.145
21
524.569
0
LINE
5
344
8
0
6
BYLAYER
62
256
10
112.145
20
524.569
11
111.663
21
524.84
0
LINE
5
345
8
0
6
BYLAYER
62
256
10
111.663
20
524.84
11
111.22
21
525.17
0
LINE
5
346
8
0
6
BYLAYER
62
256
10
111.22
20
525.17
11
110.82
21
525.553
0
LINE
5
347
8
0
6
BYLAYER
62
256
10
110.82
20
525.553
11
110.473
21
525.982
0
LINE
5
348
8
0
6
BYLAYER
62
256
10
110.473
20
525.982
11
110.182
21
526.451
0
LINE
5
349
8
0
6
BYLAYER
62
256
10
110.182
20
526.451
11
109.952
21
526.955
0
LINE
5
34A
8
0
6
BYLAYER
62
256
10
109.952
20
526.955
11
109.786
21
527.481
0
LINE
5
34B
8
0
6
BYLAYER
62
256
10
109.786
20
527.481
11
109.689
21
528.025
0
LINE
5
34C
8
0
6
BYLAYER
62
256
10
109.689
20
528.025
11
109.66
21
528.577
0
LINE
5
34D
8
0
6
BYLAYER
62
256
10
115.065
20
110.144
11
115.085
21
110.407
0
LINE
5
34E
8
0
6
BYLAYER
62
256
10
115.085
20
110.407
11
115.136
21
110.665
0
LINE
5
34F
8
0
6
BYLAYER
62
256
10
115.136
20
110.665
11
115.222
21
110.915
0
LINE
5
350
8
0
6
BYLAYER
62
256
10
115.222
20
110.915
11
115.336
21
111.153
0
LINE
5
351
8
0
6
BYLAYER
62
256
10
115.336
20
111.153
11
115.479
21
111.374
0
LINE
5
352
8
0
6
BYLAYER
62
256
10
115.479
20
111.374
11
115.65
21
111.576
0
LINE
5
353
8
0
6
BYLAYER
62
256
10
115.65
20
111.576
11
115.844
21
111.754
0
LINE
5
354
8
0
6
BYLAYER
62
256
10
115.844
20
111.754
11
116.058
21
111.907
0
LINE
5
355
8
0
6
BYLAYER
62
256
10
116.058
20
111.907
11
116.29
21
112.031
0
LINE
5
356
8
0
6
BYLAYER
62
256
10
116.29
20
112.031
11
116.537
21
112.125
0
LINE
5
357
8
0
6
BYLAYER
62
256
10
116.537
20
112.125
11
116.794
21
112.188
0
LINE
5
358
8
0
6
BYLAYER
62
256
10
116.794
20
112.188
11
117.055
21
112.219
0
LINE
5
359
8
0
6
BYLAYER
62
256
10
117.055
20
112.219
11
117.318
21
112.217
0
LINE
5
35A
8
0
6
BYLAYER
62
256
10
117.318
20
112.217
11
117.581
21
112.181
0
LINE
5
35B
8
0
6
BYLAYER
62
256
10
117.581
20
112.181
11
117.835
21
112.113
0
LINE
5
35C
8
0
6
BYLAYER
62
256
10
117.835
20
112.113
11
118.08
21
112.012
0
LINE
5
35D
8
0
6
BYLAYER
62
256
10
118.08
20
112.012
11
118.308
21
111.883
0
LINE
5
35E
8
0
6
BYLAYER
62
256
10
118.308
20
111.883
11
118.521
21
111.726
0
LINE
5
35F
8
0
6
BYLAYER
62
256
10
118.521
20
111.726
11
118.711
21
111.543
0
LINE
5
360
8
0
6
BYLAYER
62
256
10
118.711
20
111.543
11
118.878
21
111.338
0
LINE
5
361
8
0
6
BYLAYER
62
256
10
118.878
20
111.338
11
119.016
21
111.114
0
LINE
5
362
8
0
6
BYLAYER
62
256
10
119.016
20
111.114
11
119.126
21
110.875
0
LINE
5
363
8
0
6
BYLAYER
62
256
10
119.126
20
110.875
11
119.204
21
110.624
0
LINE
5
364
8
0
6
BYLAYER
62
256
10
119.204
20
110.624
11
119.252
21
110.363
0
LINE
5
365
8
0
6
BYLAYER
62
256
10
119.252
20
110.363
11
119.265
21
110.1
0
LINE
5
366
8
0
6
BYLAYER
62
256
10
119.265
20
110.1
11
119.245
21
109.837
0
LINE
5
367
8
0
6
BYLAYER
62
256
10
119.245
20
109.837
11
119.194
21
109.578
0
LINE
5
368
8
0
6
BYLAYER
62
256
10
119.194
20
109.578
11
119.109
21
109.329
0
LINE
5
369
8
0
6
BYLAYER
62
256
10
119.109
20
109.329
11
118.994
21
109.091
0
LINE
5
36A
8
0
6
BYLAYER
62
256
10
118.994
20
109.091
11
118.852
21
108.87
0
LINE
5
36B
8
0
6
BYLAYER
62
256
10
118.852
20
108.87
11
118.68
21
108.668
0
LINE
5
36C
8
0
6
BYLAYER
62
256
10
118.68
20
108.668
11
118.487
21
108.49
0
LINE
5
36D
8
0
6
BYLAYER
62
256
10
118.487
20
108.49
11
118.272
21
108.337
0
LINE
5
36E
8
0
6
BYLAYER
62
256
10
118.272
20
108.337
11
118.04
21
108.212
0
LINE
5
36F
8
0
6
BYLAYER
62
256
10
118.04
20
108.212
11
117.793
21
108.118
0
LINE
5
370
8
0
6
BYLAYER
62
256
10
117.793
20
108.118
11
117.537
21
108.055
0
LINE
5
371
8
0
6
BYLAYER
62
256
10
117.537
20
108.055
11
117.275
21
108.025
0
LINE
5
372
8
0
6
BYLAYER
62
256
10
117.275
20
108.025
11
117.012
21
108.027
0
LINE
5
373
8
0
6
BYLAYER
62
256
10
117.012
20
108.027
11
116.75
21
108.063
0
LINE
5
374
8
0
6
BYLAYER
62
256
10
116.75
20
108.063
11
116.495
21
108.131
0
LINE
5
375
8
0
6
BYLAYER
62
256
10
116.495
20
108.131
11
116.251
21
108.231
0
LINE
5
376
8
0
6
BYLAYER
62
256
10
116.251
20
108.231
11
116.021
21
108.361
0
LINE
5
377
8
0
6
BYLAYER
62
256
10
116.021
20
108.361
11
115.81
21
108.518
0
LINE
5
378
8
0
6
BYLAYER
62
256
10
115.81
20
108.518
11
115.619
21
108.7
0
LINE
5
379
8
0
6
BYLAYER
62
256
10
115.619
20
108.7
11
115.453
21
108.906
0
LINE
5
37A
8
0
6
BYLAYER
62
256
10
115.453
20
108.906
11
115.314
21
109.129
0
LINE
5
37B
8
0
6
BYLAYER
62
256
10
115.314
20
109.129
11
115.205
21
109.369
0
LINE
5
37C
8
0
6
BYLAYER
62
256
10
115.205
20
109.369
11
115.126
21
109.621
0
LINE
5
37D
8
0
6
BYLAYER
62
256
10
115.126
20
109.621
11
115.079
21
109.881
0
LINE
5
37E
8
0
6
BYLAYER
62
256
10
115.079
20
109.881
11
115.065
21
110.144
0
LINE
5
37F
8
0
6
BYLAYER
62
256
10
115.065
20
540.144
11
115.085
21
540.407
0
LINE
5
380
8
0
6
BYLAYER
62
256
10
115.085
20
540.407
11
115.136
21
540.665
0
LINE
5
381
8
0
6
BYLAYER
62
256
10
115.136
20
540.665
11
115.222
21
540.915
0
LINE
5
382
8
0
6
BYLAYER
62
256
10
115.222
20
540.915
11
115.336
21
541.153
0
LINE
5
383
8
0
6
BYLAYER
62
256
10
115.336
20
541.153
11
115.479
21
541.374
0
LINE
5
384
8
0
6
BYLAYER
62
256
10
115.479
20
541.374
11
115.65
21
541.576
0
LINE
5
385
8
0
6
BYLAYER
62
256
10
115.65
20
541.576
11
115.844
21
541.754
0
LINE
5
386
8
0
6
BYLAYER
62
256
10
115.844
20
541.754
11
116.058
21
541.907
0
LINE
5
387
8
0
6
BYLAYER
62
256
10
116.058
20
541.907
11
116.29
21
542.031
0
LINE
5
388
8
0
6
BYLAYER
62
256
10
116.29
20
542.031
11
116.537
21
542.125
0
LINE
5
389
8
0
6
BYLAYER
62
256
10
116.537
20
542.125
11
116.794
21
542.188
0
LINE
5
38A
8
0
6
BYLAYER
62
256
10
116.794
20
542.188
11
117.055
21
542.219
0
LINE
5
38B
8
0
6
BYLAYER
62
256
10
117.055
20
542.219
11
117.318
21
542.217
0
LINE
5
38C
8
0
6
BYLAYER
62
256
10
117.318
20
542.217
11
117.581
21
542.181
0
LINE
5
38D
8
0
6
BYLAYER
62
256
10
117.581
20
542.181
11
117.835
21
542.113
0
LINE
5
38E
8
0
6
BYLAYER
62
256
10
117.835
20
542.113
11
118.08
21
542.012
0
LINE
5
38F
8
0
6
BYLAYER
62
256
10
118.08
20
542.012
11
118.308
21
541.883
0
LINE
5
390
8
0
6
BYLAYER
62
256
10
118.308
20
541.883
11
118.521
21
541.726
0
LINE
5
391
8
0
6
BYLAYER
62
256
10
118.521
20
541.726
11
118.711
21
541.543
0
LINE
5
392
8
0
6
BYLAYER
62
256
10
118.711
20
541.543
11
118.878
21
541.338
0
LINE
5
393
8
0
6
BYLAYER
62
256
10
118.878
20
541.338
11
119.016
21
541.114
0
LINE
5
394
8
0
6
BYLAYER
62
256
10
119.016
20
541.114
11
119.126
21
540.875
0
LINE
5
395
8
0
6
BYLAYER
62
256
10
119.126
20
540.875
11
119.204
21
540.624
0
LINE
5
396
8
0
6
BYLAYER
62
256
10
119.204
20
540.624
11
119.252
21
540.363
0
LINE
5
397
8
0
6
BYLAYER
62
256
10
119.252
20
540.363
11
119.265
21
540.1
0
LINE
5
398
8
0
6
BYLAYER
62
256
10
119.265
20
540.1
11
119.245
21
539.837
0
LINE
5
399
8
0
6
BYLAYER
62
256
10
119.245
20
539.837
11
119.194
21
539.578
0
LINE
5
39A
8
0
6
BYLAYER
62
256
10
119.194
20
539.578
11
119.109
21
539.329
0
LINE
5
39B
8
0
6
BYLAYER
62
256
10
119.109
20
539.329
11
118.994
21
539.091
0
LINE
5
39C
8
0
6
BYLAYER
62
256
10
118.994
20
539.091
11
118.852
21
538.87
0
LINE
5
39D
8
0
6
BYLAYER
62
256
10
118.852
20
538.87
11
118.68
21
538.668
0
LINE
5
39E
8
0
6
BYLAYER
62
256
10
118.68
20
538.668
11
118.487
21
538.49
0
LINE
5
39F
8
0
6
BYLAYER
62
256
10
118.487
20
538.49
11
118.272
21
538.337
0
LINE
5
3A0
8
0
6
BYLAYER
62
256
10
118.272
20
538.337
11
118.04
21
538.212
0
LINE
5
3A1
8
0
6
BYLAYER
62
256
10
118.04
20
538.212
11
117.793
21
538.118
0
LINE
5
3A2
8
0
6
BYLAYER
62
256
10
117.793
20
538.118
11
117.537
21
538.055
0
LINE
5
3A3
8
0
6
BYLAYER
62
256
10
117.537
20
538.055
11
117.275
21
538.025
0
LINE
5
3A4
8
0
6
BYLAYER
62
256
10
117.275
20
538.025
11
117.012
21
538.027
0
LINE
5
3A5
8
0
6
BYLAYER
62
256
10
117.012
20
538.027
11
116.75
21
538.063
0
LINE
5
3A6
8
0
6
BYLAYER
62
256
10
116.75
20
538.063
11
116.495
21
538.131
0
LINE
5
3A7
8
0
6
BYLAYER
62
256
10
116.495
20
538.131
11
116.251
21
538.231
0
LINE
5
3A8
8
0
6
BYLAYER
62
256
10
116.251
20
538.231
11
116.021
21
538.361
0
LINE
5
3A9
8
0
6
BYLAYER
62
256
10
116.021
20
538.361
11
115.81
21
538.518
0
LINE
5
3AA
8
0
6
BYLAYER
62
256
10
115.81
20
538.518
11
115.619
21
538.7
0
LINE
5
3AB
8
0
6
BYLAYER
62
256
10
115.619
20
538.7
11
115.453
21
538.906
0
LINE
5
3AC
8
0
6
BYLAYER
62
256
10
115.453
20
538.906
11
115.314
21
539.129
0
LINE
5
3AD
8
0
6
BYLAYER
62
256
10
115.314
20
539.129
11
115.205
21
539.369
0
LINE
5
3AE
8
0
6
BYLAYER
62
256
10
115.205
20
539.369
11
115.126
21
539.621
0
LINE
5
3AF
8
0
6
BYLAYER
62
256
10
115.126
20
539.621
11
115.079
21
539.881
0
LINE
5
3B0
8
0
6
BYLAYER
62
256
10
115.079
20
539.881
11
115.065
21
540.144
0
LINE
5
3B1
8
0
6
BYLAYER
62
256
10
117.799
20
68.344
11
124.8
21
94.473
0
LINE
5
3B2
8
0
6
BYLAYER
62
256
10
124.8
20
94.473
11
160.781
21
84.831
0
LINE
5
3B3
8
0
6
BYLAYER
62
256
10
160.781
20
84.831
11
153.78
21
58.703
0
LINE
5
3B4
8
0
6
BYLAYER
62
256
10
153.78
20
58.703
11
117.799
21
68.344
0
LINE
5
3B5
8
0
6
BYLAYER
62
256
10
117.799
20
498.344
11
124.8
21
524.473
0
LINE
5
3B6
8
0
6
BYLAYER
62
256
10
124.8
20
524.473
11
160.781
21
514.831
0
LINE
5
3B7
8
0
6
BYLAYER
62
256
10
160.781
20
514.831
11
153.78
21
488.703
0
LINE
5
3B8
8
0
6
BYLAYER
62
256
10
153.78
20
488.703
11
117.799
21
498.344
0
LINE
5
3B9
8
0
6
BYLAYER
62
256
10
124.382
20
144.918
11
124.403
21
145.18
0
LINE
5
3BA
8
0
6
BYLAYER
62
256
10
124.403
20
145.18
11
124.454
21
145.439
0
LINE
5
3BB
8
0
6
BYLAYER
62
256
10
124.454
20
145.439
11
124.539
21
145.688
0
LINE
5
3BC
8
0
6
BYLAYER
62
256
10
124.539
20
145.688
11
124.653
21
145.926
0
LINE
5
3BD
8
0
6
BYLAYER
62
256
10
124.653
20
145.926
11
124.796
21
146.147
0
LINE
5
3BE
8
0
6
BYLAYER
62
256
10
124.796
20
146.147
11
124.967
21
146.349
0
LINE
5
3BF
8
0
6
BYLAYER
62
256
10
124.967
20
146.349
11
125.162
21
146.527
0
LINE
5
3C0
8
0
6
BYLAYER
62
256
10
125.162
20
146.527
11
125.376
21
146.68
0
LINE
5
3C1
8
0
6
BYLAYER
62
256
10
125.376
20
146.68
11
125.608
21
146.805
0
LINE
5
3C2
8
0
6
BYLAYER
62
256
10
125.608
20
146.805
11
125.855
21
146.899
0
LINE
5
3C3
8
0
6
BYLAYER
62
256
10
125.855
20
146.899
11
126.111
21
146.962
0
LINE
5
3C4
8
0
6
BYLAYER
62
256
10
126.111
20
146.962
11
126.372
21
146.992
0
LINE
5
3C5
8
0
6
BYLAYER
62
256
10
126.372
20
146.992
11
126.636
21
146.99
0
LINE
5
3C6
8
0
6
BYLAYER
62
256
10
126.636
20
146.99
11
126.898
21
146.954
0
LINE
5
3C7
8
0
6
BYLAYER
62
256
10
126.898
20
146.954
11
127.153
21
146.886
0
LINE
5
3C8
8
0
6
BYLAYER
62
256
10
127.153
20
146.886
11
127.398
21
146.786
0
LINE
5
3C9
8
0
6
BYLAYER
62
256
10
127.398
20
146.786
11
127.626
21
146.656
0
LINE
5
3CA
8
0
6
BYLAYER
62
256
10
127.626
20
146.656
11
127.838
21
146.499
0
LINE
5
3CB
8
0
6
BYLAYER
62
256
10
127.838
20
146.499
11
128.028
21
146.316
0
LINE
5
3CC
8
0
6
BYLAYER
62
256
10
128.028
20
146.316
11
128.195
21
146.111
0
LINE
5
3CD
8
0
6
BYLAYER
62
256
10
128.195
20
146.111
11
128.334
21
145.888
0
LINE
5
3CE
8
0
6
BYLAYER
62
256
10
128.334
20
145.888
11
128.443
21
145.648
0
LINE
5
3CF
8
0
6
BYLAYER
62
256
10
128.443
20
145.648
11
128.522
21
145.397
0
LINE
5
3D0
8
0
6
BYLAYER
62
256
10
128.522
20
145.397
11
128.569
21
145.136
0
LINE
5
3D1
8
0
6
BYLAYER
62
256
10
128.569
20
145.136
11
128.582
21
144.873
0
LINE
5
3D2
8
0
6
BYLAYER
62
256
10
128.582
20
144.873
11
128.563
21
144.611
0
LINE
5
3D3
8
0
6
BYLAYER
62
256
10
128.563
20
144.611
11
128.511
21
144.351
0
LINE
5
3D4
8
0
6
BYLAYER
62
256
10
128.511
20
144.351
11
128.426
21
144.102
0
LINE
5
3D5
8
0
6
BYLAYER
62
256
10
128.426
20
144.102
11
128.312
21
143.865
0
LINE
5
3D6
8
0
6
BYLAYER
62
256
10
128.312
20
143.865
11
128.169
21
143.643
0
LINE
5
3D7
8
0
6
BYLAYER
62
256
10
128.169
20
143.643
11
127.998
21
143.442
0
LINE
5
3D8
8
0
6
BYLAYER
62
256
10
127.998
20
143.442
11
127.804
21
143.264
0
LINE
5
3D9
8
0
6
BYLAYER
62
256
10
127.804
20
143.264
11
127.59
21
143.11
0
LINE
5
3DA
8
0
6
BYLAYER
62
256
10
127.59
20
143.11
11
127.358
21
142.986
0
LINE
5
3DB
8
0
6
BYLAYER
62
256
10
127.358
20
142.986
11
127.11
21
142.891
0
LINE
5
3DC
8
0
6
BYLAYER
62
256
10
127.11
20
142.891
11
126.854
21
142.829
0
LINE
5
3DD
8
0
6
BYLAYER
62
256
10
126.854
20
142.829
11
126.592
21
142.798
0
LINE
5
3DE
8
0
6
BYLAYER
62
256
10
126.592
20
142.798
11
126.33
21
142.8
0
LINE
5
3DF
8
0
6
BYLAYER
62
256
10
126.33
20
142.8
11
126.067
21
142.837
0
LINE
5
3E0
8
0
6
BYLAYER
62
256
10
126.067
20
142.837
11
125.813
21
142.904
0
LINE
5
3E1
8
0
6
BYLAYER
62
256
10
125.813
20
142.904
11
125.568
21
143.005
0
LINE
5
3E2
8
0
6
BYLAYER
62
256
10
125.568
20
143.005
11
125.338
21
143.134
0
LINE
5
3E3
8
0
6
BYLAYER
62
256
10
125.338
20
143.134
11
125.128
21
143.291
0
LINE
5
3E4
8
0
6
BYLAYER
62
256
10
125.128
20
143.291
11
124.937
21
143.474
0
LINE
5
3E5
8
0
6
BYLAYER
62
256
10
124.937
20
143.474
11
124.771
21
143.679
0
LINE
5
3E6
8
0
6
BYLAYER
62
256
10
124.771
20
143.679
11
124.632
21
143.903
0
LINE
5
3E7
8
0
6
BYLAYER
62
256
10
124.632
20
143.903
11
124.522
21
144.143
0
LINE
5
3E8
8
0
6
BYLAYER
62
256
10
124.522
20
144.143
11
124.443
21
144.394
0
LINE
5
3E9
8
0
6
BYLAYER
62
256
10
124.443
20
144.394
11
124.396
21
144.654
0
LINE
5
3EA
8
0
6
BYLAYER
62
256
10
124.396
20
144.654
11
124.382
21
144.918
0
LINE
5
3EB
8
0
6
BYLAYER
62
256
10
128.036
20
332.296
11
128.045
21
332.559
0
LINE
5
3EC
8
0
6
BYLAYER
62
256
10
128.045
20
332.559
11
128.086
21
332.82
0
LINE
5
3ED
8
0
6
BYLAYER
62
256
10
128.086
20
332.82
11
128.16
21
333.073
0
LINE
5
3EE
8
0
6
BYLAYER
62
256
10
128.16
20
333.073
11
128.264
21
333.315
0
LINE
5
3EF
8
0
6
BYLAYER
62
256
10
128.264
20
333.315
11
128.398
21
333.542
0
LINE
5
3F0
8
0
6
BYLAYER
62
256
10
128.398
20
333.542
11
128.56
21
333.75
0
LINE
5
3F1
8
0
6
BYLAYER
62
256
10
128.56
20
333.75
11
128.747
21
333.937
0
LINE
5
3F2
8
0
6
BYLAYER
62
256
10
128.747
20
333.937
11
128.955
21
334.099
0
LINE
5
3F3
8
0
6
BYLAYER
62
256
10
128.955
20
334.099
11
129.182
21
334.233
0
LINE
5
3F4
8
0
6
BYLAYER
62
256
10
129.182
20
334.233
11
129.424
21
334.337
0
LINE
5
3F5
8
0
6
BYLAYER
62
256
10
129.424
20
334.337
11
129.677
21
334.411
0
LINE
5
3F6
8
0
6
BYLAYER
62
256
10
129.677
20
334.411
11
129.938
21
334.453
0
LINE
5
3F7
8
0
6
BYLAYER
62
256
10
129.938
20
334.453
11
130.201
21
334.461
0
LINE
5
3F8
8
0
6
BYLAYER
62
256
10
130.201
20
334.461
11
130.464
21
334.436
0
LINE
5
3F9
8
0
6
BYLAYER
62
256
10
130.464
20
334.436
11
130.721
21
334.378
0
LINE
5
3FA
8
0
6
BYLAYER
62
256
10
130.721
20
334.378
11
130.97
21
334.289
0
LINE
5
3FB
8
0
6
BYLAYER
62
256
10
130.97
20
334.289
11
131.205
21
334.169
0
LINE
5
3FC
8
0
6
BYLAYER
62
256
10
131.205
20
334.169
11
131.422
21
334.021
0
LINE
5
3FD
8
0
6
BYLAYER
62
256
10
131.422
20
334.021
11
131.62
21
333.847
0
LINE
5
3FE
8
0
6
BYLAYER
62
256
10
131.62
20
333.847
11
131.794
21
333.649
0
LINE
5
3FF
8
0
6
BYLAYER
62
256
10
131.794
20
333.649
11
131.943
21
333.431
0
LINE
5
400
8
0
6
BYLAYER
62
256
10
131.943
20
333.431
11
132.063
21
333.196
0
LINE
5
401
8
0
6
BYLAYER
62
256
10
132.063
20
333.196
11
132.152
21
332.947
0
LINE
5
402
8
0
6
BYLAYER
62
256
10
132.152
20
332.947
11
132.209
21
332.69
0
LINE
5
403
8
0
6
BYLAYER
62
256
10
132.209
20
332.69
11
132.235
21
332.427
0
LINE
5
404
8
0
6
BYLAYER
62
256
10
132.235
20
332.427
11
132.226
21
332.164
0
LINE
5
405
8
0
6
BYLAYER
62
256
10
132.226
20
332.164
11
132.185
21
331.903
0
LINE
5
406
8
0
6
BYLAYER
62
256
10
132.185
20
331.903
11
132.111
21
331.65
0
LINE
5
407
8
0
6
BYLAYER
62
256
10
132.111
20
331.65
11
132.006
21
331.408
0
LINE
5
408
8
0
6
BYLAYER
62
256
10
132.006
20
331.408
11
131.873
21
331.182
0
LINE
5
409
8
0
6
BYLAYER
62
256
10
131.873
20
331.182
11
131.711
21
330.973
0
LINE
5
40A
8
0
6
BYLAYER
62
256
10
131.711
20
330.973
11
131.524
21
330.786
0
LINE
5
40B
8
0
6
BYLAYER
62
256
10
131.524
20
330.786
11
131.316
21
330.624
0
LINE
5
40C
8
0
6
BYLAYER
62
256
10
131.316
20
330.624
11
131.089
21
330.491
0
LINE
5
40D
8
0
6
BYLAYER
62
256
10
131.089
20
330.491
11
130.847
21
330.386
0
LINE
5
40E
8
0
6
BYLAYER
62
256
10
130.847
20
330.386
11
130.594
21
330.312
0
LINE
5
40F
8
0
6
BYLAYER
62
256
10
130.594
20
330.312
11
130.333
21
330.271
0
LINE
5
410
8
0
6
BYLAYER
62
256
10
130.333
20
330.271
11
130.07
21
330.262
0
LINE
5
411
8
0
6
BYLAYER
62
256
10
130.07
20
330.262
11
129.807
21
330.288
0
LINE
5
412
8
0
6
BYLAYER
62
256
10
129.807
20
330.288
11
129.55
21
330.345
0
LINE
5
413
8
0
6
BYLAYER
62
256
10
129.55
20
330.345
11
129.301
21
330.434
0
LINE
5
414
8
0
6
BYLAYER
62
256
10
129.301
20
330.434
11
129.066
21
330.554
0
LINE
5
415
8
0
6
BYLAYER
62
256
10
129.066
20
330.554
11
128.849
21
330.703
0
LINE
5
416
8
0
6
BYLAYER
62
256
10
128.849
20
330.703
11
128.651
21
330.877
0
LINE
5
417
8
0
6
BYLAYER
62
256
10
128.651
20
330.877
11
128.477
21
331.075
0
LINE
5
418
8
0
6
BYLAYER
62
256
10
128.477
20
331.075
11
128.328
21
331.293
0
LINE
5
419
8
0
6
BYLAYER
62
256
10
128.328
20
331.293
11
128.208
21
331.527
0
LINE
5
41A
8
0
6
BYLAYER
62
256
10
128.208
20
331.527
11
128.119
21
331.776
0
LINE
5
41B
8
0
6
BYLAYER
62
256
10
128.119
20
331.776
11
128.062
21
332.033
0
LINE
5
41C
8
0
6
BYLAYER
62
256
10
128.062
20
332.033
11
128.036
21
332.296
0
LINE
5
41D
8
0
6
BYLAYER
62
256
10
147.75
20
1059.53
11
148.409
21
1061.12
0
LINE
5
41E
8
0
6
BYLAYER
62
256
10
148.409
20
1061.12
11
150
21
1061.78
0
LINE
5
41F
8
0
6
BYLAYER
62
256
10
150
20
1061.78
11
151.591
21
1061.12
0
LINE
5
420
8
0
6
BYLAYER
62
256
10
151.591
20
1061.12
11
152.25
21
1059.53
0
LINE
5
421
8
0
6
BYLAYER
62
256
10
152.25
20
1059.53
11
151.591
21
1057.93
0
LINE
5
422
8
0
6
BYLAYER
62
256
10
151.591
20
1057.93
11
150
21
1057.28
0
LINE
5
423
8
0
6
BYLAYER
62
256
10
150
20
1057.28
11
148.409
21
1057.93
0
LINE
5
424
8
0
6
BYLAYER
62
256
10
148.409
20
1057.93
11
147.75
21
1059.53
0
LINE
5
425
8
0
6
BYLAYER
62
256
10
147.75
20
1489.53
11
148.409
21
1491.12
0
LINE
5
426
8
0
6
BYLAYER
62
256
10
148.409
20
1491.12
11
150
21
1491.78
0
LINE
5
427
8
0
6
BYLAYER
62
256
10
150
20
1491.78
11
151.591
21
1491.12
0
LINE
5
428
8
0
6
BYLAYER
62
256
10
151.591
20
1491.12
11
152.25
21
1489.53
0
LINE
5
429
8
0
6
BYLAYER
62
256
10
152.25
20
1489.53
11
151.591
21
1487.93
0
LINE
5
42A
8
0
6
BYLAYER
62
256
10
151.591
20
1487.93
11
150
21
1487.28
0
LINE
5
42B
8
0
6
BYLAYER
62
256
10
150
20
1487.28
11
148.409
21
1487.93
0
LINE
5
42C
8
0
6
BYLAYER
62
256
10
148.409
20
1487.93
11
147.75
21
1489.53
0
LINE
5
42D
8
0
6
BYLAYER
62
256
10
167.712
20
83.022
11
167.752
21
83.573
0
LINE
5
42E
8
0
6
BYLAYER
62
256
10
167.752
20
83.573
11
167.862
21
84.114
0
LINE
5
42F
8
0
6
BYLAYER
62
256
10
167.862
20
84.114
11
168.038
21
84.638
0
LINE
5
430
8
0
6
BYLAYER
62
256
10
168.038
20
84.638
11
168.278
21
85.136
0
LINE
5
431
8
0
6
BYLAYER
62
256
10
168.278
20
85.136
11
168.579
21
85.6
0
LINE
5
432
8
0
6
BYLAYER
62
256
10
168.579
20
85.6
11
168.936
21
86.021
0
LINE
5
433
8
0
6
BYLAYER
62
256
10
168.936
20
86.021
11
169.342
21
86.395
0
LINE
5
434
8
0
6
BYLAYER
62
256
10
169.342
20
86.395
11
169.794
21
86.715
0
LINE
5
435
8
0
6
BYLAYER
62
256
10
169.794
20
86.715
11
170.279
21
86.976
0
LINE
5
436
8
0
6
BYLAYER
62
256
10
170.279
20
86.976
11
170.795
21
87.175
0
LINE
5
437
8
0
6
BYLAYER
62
256
10
170.795
20
87.175
11
171.332
21
87.306
0
LINE
5
438
8
0
6
BYLAYER
62
256
10
171.332
20
87.306
11
171.881
21
87.37
0
LINE
5
439
8
0
6
BYLAYER
62
256
10
171.881
20
87.37
11
172.434
21
87.364
0
LINE
5
43A
8
0
6
BYLAYER
62
256
10
172.434
20
87.364
11
172.982
21
87.288
0
LINE
5
43B
8
0
6
BYLAYER
62
256
10
172.982
20
87.288
11
173.515
21
87.146
0
LINE
5
43C
8
0
6
BYLAYER
62
256
10
173.515
20
87.146
11
174.026
21
86.937
0
LINE
5
43D
8
0
6
BYLAYER
62
256
10
174.026
20
86.937
11
174.508
21
86.666
0
LINE
5
43E
8
0
6
BYLAYER
62
256
10
174.508
20
86.666
11
174.951
21
86.336
0
LINE
5
43F
8
0
6
BYLAYER
62
256
10
174.951
20
86.336
11
175.351
21
85.953
0
LINE
5
440
8
0
6
BYLAYER
62
256
10
175.351
20
85.953
11
175.698
21
85.524
0
LINE
5
441
8
0
6
BYLAYER
62
256
10
175.698
20
85.524
11
175.988
21
85.055
0
LINE
5
442
8
0
6
BYLAYER
62
256
10
175.988
20
85.055
11
176.22
21
84.553
0
LINE
5
443
8
0
6
BYLAYER
62
256
10
176.22
20
84.553
11
176.384
21
84.026
0
LINE
5
444
8
0
6
BYLAYER
62
256
10
176.384
20
84.026
11
176.483
21
83.482
0
LINE
5
445
8
0
6
BYLAYER
62
256
10
176.483
20
83.482
11
176.512
21
82.93
0
LINE
5
446
8
0
6
BYLAYER
62
256
10
176.512
20
82.93
11
176.471
21
82.378
0
LINE
5
447
8
0
6
BYLAYER
62
256
10
176.471
20
82.378
11
176.362
21
81.837
0
LINE
5
448
8
0
6
BYLAYER
62
256
10
176.362
20
81.837
11
176.185
21
81.313
0
LINE
5
449
8
0
6
BYLAYER
62
256
10
176.185
20
81.313
11
175.945
21
80.816
0
LINE
5
44A
8
0
6
BYLAYER
62
256
10
175.945
20
80.816
11
175.644
21
80.352
0
LINE
5
44B
8
0
6
BYLAYER
62
256
10
175.644
20
80.352
11
175.287
21
79.93
0
LINE
5
44C
8
0
6
BYLAYER
62
256
10
175.287
20
79.93
11
174.881
21
79.557
0
LINE
5
44D
8
0
6
BYLAYER
62
256
10
174.881
20
79.557
11
174.429
21
79.237
0
LINE
5
44E
8
0
6
BYLAYER
62
256
10
174.429
20
79.237
11
173.944
21
78.976
0
LINE
5
44F
8
0
6
BYLAYER
62
256
10
173.944
20
78.976
11
173.428
21
78.777
0
LINE
5
450
8
0
6
BYLAYER
62
256
10
173.428
20
78.777
11
172.891
21
78.645
0
LINE
5
451
8
0
6
BYLAYER
62
256
10
172.891
20
78.645
11
172.342
21
78.582
0
LINE
5
452
8
0
6
BYLAYER
62
256
10
172.342
20
78.582
11
171.789
21
78.587
0
LINE
5
453
8
0
6
BYLAYER
62
256
10
171.789
20
78.587
11
171.242
21
78.662
0
LINE
5
454
8
0
6
BYLAYER
62
256
10
171.242
20
78.662
11
170.709
21
78.805
0
LINE
5
455
8
0
6
BYLAYER
62
256
10
170.709
20
78.805
11
170.197
21
79.014
0
LINE
5
456
8
0
6
BYLAYER
62
256
10
170.197
20
79.014
11
169.715
21
79.285
0
LINE
5
457
8
0
6
BYLAYER
62
256
10
169.715
20
79.285
11
169.272
21
79.616
0
LINE
5
458
8
0
6
BYLAYER
62
256
10
169.272
20
79.616
11
168.872
21
79.998
0
LINE
5
459
8
0
6
BYLAYER
62
256
10
168.872
20
79.998
11
168.525
21
80.427
0
LINE
5
45A
8
0
6
BYLAYER
62
256
10
168.525
20
80.427
11
168.234
21
80.896
0
LINE
5
45B
8
0
6
BYLAYER
62
256
10
168.234
20
80.896
11
168.004
21
81.4
0
LINE
5
45C
8
0
6
BYLAYER
62
256
10
168.004
20
81.4
11
167.838
21
81.926
0
LINE
5
45D
8
0
6
BYLAYER
62
256
10
167.838
20
81.926
11
167.741
21
82.47
0
LINE
5
45E
8
0
6
BYLAYER
62
256
10
167.741
20
82.47
11
167.712
21
83.022
0
LINE
5
45F
8
0
6
BYLAYER
62
256
10
167.712
20
513.022
11
167.752
21
513.573
0
LINE
5
460
8
0
6
BYLAYER
62
256
10
167.752
20
513.573
11
167.862
21
514.114
0
LINE
5
461
8
0
6
BYLAYER
62
256
10
167.862
20
514.114
11
168.038
21
514.638
0
LINE
5
462
8
0
6
BYLAYER
62
256
10
168.038
20
514.638
11
168.278
21
515.136
0
LINE
5
463
8
0
6
BYLAYER
62
256
10
168.278
20
515.136
11
168.579
21
515.6
0
LINE
5
464
8
0
6
BYLAYER
62
256
10
168.579
20
515.6
11
168.936
21
516.021
0
LINE
5
465
8
0
6
BYLAYER
62
256
10
168.936
20
516.021
11
169.342
21
516.395
0
LINE
5
466
8
0
6
BYLAYER
62
256
10
169.342
20
516.395
11
169.794
21
516.715
0
LINE
5
467
8
0
6
BYLAYER
62
256
10
169.794
20
516.715
11
170.279
21
516.976
0
LINE
5
468
8
0
6
BYLAYER
62
256
10
170.279
20
516.976
11
170.795
21
517.175
0
LINE
5
469
8
0
6
BYLAYER
62
256
10
170.795
20
517.175
11
171.332
21
517.306
0
LINE
5
46A
8
0
6
BYLAYER
62
256
10
171.332
20
517.306
11
171.881
21
517.37
0
LINE
5
46B
8
0
6
BYLAYER
62
256
10
171.881
20
517.37
11
172.434
21
517.364
0
LINE
5
46C
8
0
6
BYLAYER
62
256
10
172.434
20
517.364
11
172.982
21
517.288
0
LINE
5
46D
8
0
6
BYLAYER
62
256
10
172.982
20
517.288
11
173.515
21
517.146
0
LINE
5
46E
8
0
6
BYLAYER
62
256
10
173.515
20
517.146
11
174.026
21
516.937
0
LINE
5
46F
8
0
6
BYLAYER
62
256
10
174.026
20
516.937
11
174.508
21
516.666
0
LINE
5
470
8
0
6
BYLAYER
62
256
10
174.508
20
516.666
11
174.951
21
516.336
0
LINE
5
471
8
0
6
BYLAYER
62
256
10
174.951
20
516.336
11
175.351
21
515.953
0
LINE
5
472
8
0
6
BYLAYER
62
256
10
175.351
20
515.953
11
175.698
21
515.524
0
LINE
5
473
8
0
6
BYLAYER
62
256
10
175.698
20
515.524
11
175.988
21
515.055
0
LINE
5
474
8
0
6
BYLAYER
62
256
10
175.988
20
515.055
11
176.22
21
514.553
0
LINE
5
475
8
0
6
BYLAYER
62
256
10
176.22
20
514.553
11
176.384
21
514.026
0
LINE
5
476
8
0
6
BYLAYER
62
256
10
176.384
20
514.026
11
176.483
21
513.482
0
LINE
5
477
8
0
6
BYLAYER
62
256
10
176.483
20
513.482
11
176.512
21
512.93
0
LINE
5
478
8
0
6
BYLAYER
62
256
10
176.512
20
512.93
11
176.471
21
512.378
0
LINE
5
479
8
0
6
BYLAYER
62
256
10
176.471
20
512.378
11
176.362
21
511.837
0
LINE
5
47A
8
0
6
BYLAYER
62
256
10
176.362
20
511.837
11
176.185
21
511.313
0
LINE
5
47B
8
0
6
BYLAYER
62
256
10
176.185
20
511.313
11
175.945
21
510.816
0
LINE
5
47C
8
0
6
BYLAYER
62
256
10
175.945
20
510.816
11
175.644
21
510.352
0
LINE
5
47D
8
0
6
BYLAYER
62
256
10
175.644
20
510.352
11
175.287
21
509.93
0
LINE
5
47E
8
0
6
BYLAYER
62
256
10
175.287
20
509.93
11
174.881
21
509.557
0
LINE
5
47F
8
0
6
BYLAYER
62
256
10
174.881
20
509.557
11
174.429
21
509.237
0
LINE
5
480
8
0
6
BYLAYER
62
256
10
174.429
20
509.237
11
173.944
21
508.976
0
LINE
5
481
8
0
6
BYLAYER
62
256
10
173.944
20
508.976
11
173.428
21
508.777
0
LINE
5
482
8
0
6
BYLAYER
62
256
10
173.428
20
508.777
11
172.891
21
508.645
0
LINE
5
483
8
0
6
BYLAYER
62
256
10
172.891
20
508.645
11
172.342
21
508.582
0
LINE
5
484
8
0
6
BYLAYER
62
256
10
172.342
20
508.582
11
171.789
21
508.587
0
LINE
5
485
8
0
6
BYLAYER
62
256
10
171.789
20
508.587
11
171.242
21
508.662
0
LINE
5
486
8
0
6
BYLAYER
62
256
10
171.242
20
508.662
11
170.709
21
508.805
0
LINE
5
487
8
0
6
BYLAYER
62
256
10
170.709
20
508.805
11
170.197
21
509.014
0
LINE
5
488
8
0
6
BYLAYER
62
256
10
170.197
20
509.014
11
169.715
21
509.285
0
LINE
5
489
8
0
6
BYLAYER
62
256
10
169.715
20
509.285
11
169.272
21
509.616
0
LINE
5
48A
8
0
6
BYLAYER
62
256
10
169.272
20
509.616
11
168.872
21
509.998
0
LINE
5
48B
8
0
6
BYLAYER
62
256
10
168.872
20
509.998
11
168.525
21
510.427
0
LINE
5
48C
8
0
6
BYLAYER
62
256
10
168.525
20
510.427
11
168.234
21
510.896
0
LINE
5
48D
8
0
6
BYLAYER
62
256
10
168.234
20
510.896
11
168.004
21
511.4
0
LINE
5
48E
8
0
6
BYLAYER
62
256
10
168.004
20
511.4
11
167.838
21
511.926
0
LINE
5
48F
8
0
6
BYLAYER
62
256
10
167.838
20
511.926
11
167.741
21
512.47
0
LINE
5
490
8
0
6
BYLAYER
62
256
10
167.741
20
512.47
11
167.712
21
513.022
0
LINE
5
491
8
0
6
BYLAYER
62
256
10
169.05
20
870.65
11
169.05
21
896.9
0
LINE
5
492
8
0
6
BYLAYER
62
256
10
169.05
20
896.9
11
188.1
21
896.9
0
LINE
5
493
8
0
6
BYLAYER
62
256
10
188.1
20
896.9
11
188.1
21
870.65
0
LINE
5
494
8
0
6
BYLAYER
62
256
10
188.1
20
870.65
11
169.05
21
870.65
0
LINE
5
495
8
0
6
BYLAYER
62
256
10
169.05
20
975.65
11
169.05
21
1001.9
0
LINE
5
496
8
0
6
BYLAYER
62
256
10
169.05
20
1001.9
11
188.1
21
1001.9
0
LINE
5
497
8
0
6
BYLAYER
62
256
10
188.1
20
1001.9
11
188.1
21
975.65
0
LINE
5
498
8
0
6
BYLAYER
62
256
10
188.1
20
975.65
11
169.05
21
975.65
0
LINE
5
499
8
0
6
BYLAYER
62
256
10
169.05
20
1090.65
11
169.05
21
1116.9
0
LINE
5
49A
8
0
6
BYLAYER
62
256
10
169.05
20
1116.9
11
188.1
21
1116.9
0
LINE
5
49B
8
0
6
BYLAYER
62
256
10
188.1
20
1116.9
11
188.1
21
1090.65
0
LINE
5
49C
8
0
6
BYLAYER
62
256
10
188.1
20
1090.65
11
169.05
21
1090.65
0
LINE
5
49D
8
0
6
BYLAYER
62
256
10
169.05
20
1195.65
11
169.05
21
1221.9
0
LINE
5
49E
8
0
6
BYLAYER
62
256
10
169.05
20
1221.9
11
188.1
21
1221.9
0
LINE
5
49F
8
0
6
BYLAYER
62
256
10
188.1
20
1221.9
11
188.1
21
1195.65
0
LINE
5
4A0
8
0
6
BYLAYER
62
256
10
188.1
20
1195.65
11
169.05
21
1195.65
0
LINE
5
4A1
8
0
6
BYLAYER
62
256
10
169.05
20
1300.65
11
169.05
21
1326.9
0
LINE
5
4A2
8
0
6
BYLAYER
62
256
10
169.05
20
1326.9
11
188.1
21
1326.9
0
LINE
5
4A3
8
0
6
BYLAYER
62
256
10
188.1
20
1326.9
11
188.1
21
1300.65
0
LINE
5
4A4
8
0
6
BYLAYER
62
256
10
188.1
20
1300.65
11
169.05
21
1300.65
0
LINE
5
4A5
8
0
6
BYLAYER
62
256
10
169.05
20
1405.65
11
169.05
21
1431.9
0
LINE
5
4A6
8
0
6
BYLAYER
62
256
10
169.05
20
1431.9
11
188.1
21
1431.9
0
LINE
5
4A7
8
0
6
BYLAYER
62
256
10
188.1
20
1431.9
11
188.1
21
1405.65
0
LINE
5
4A8
8
0
6
BYLAYER
62
256
10
188.1
20
1405.65
11
169.05
21
1405.65
0
LINE
5
4A9
8
0
6
BYLAYER
62
256
10
169.05
20
1520.65
11
169.05
21
1546.9
0
LINE
5
4AA
8
0
6
BYLAYER
62
256
10
169.05
20
1546.9
11
188.1
21
1546.9
0
LINE
5
4AB
8
0
6
BYLAYER
62
256
10
188.1
20
1546.9
11
188.1
21
1520.65
0
LINE
5
4AC
8
0
6
BYLAYER
62
256
10
188.1
20
1520.65
11
169.05
21
1520.65
0
LINE
5
4AD
8
0
6
BYLAYER
62
256
10
169.05
20
1625.65
11
169.05
21
1651.9
0
LINE
5
4AE
8
0
6
BYLAYER
62
256
10
169.05
20
1651.9
11
188.1
21
1651.9
0
LINE
5
4AF
8
0
6
BYLAYER
62
256
10
188.1
20
1651.9
11
188.1
21
1625.65
0
LINE
5
4B0
8
0
6
BYLAYER
62
256
10
188.1
20
1625.65
11
169.05
21
1625.65
0
LINE
5
4B1
8
0
6
BYLAYER
62
256
10
169.05
20
1730.65
11
169.05
21
1756.9
0
LINE
5
4B2
8
0
6
BYLAYER
62
256
10
169.05
20
1756.9
11
188.1
21
1756.9
0
LINE
5
4B3
8
0
6
BYLAYER
62
256
10
188.1
20
1756.9
11
188.1
21
1730.65
0
LINE
5
4B4
8
0
6
BYLAYER
62
256
10
188.1
20
1730.65
11
169.05
21
1730.65
0
LINE
5
4B5
8
0
6
BYLAYER
62
256
10
169.05
20
1835.65
11
169.05
21
1861.9
0
LINE
5
4B6
8
0
6
BYLAYER
62
256
10
169.05
20
1861.9
11
188.1
21
1861.9
0
LINE
5
4B7
8
0
6
BYLAYER
62
256
10
188.1
20
1861.9
11
188.1
21
1835.65
0
LINE
5
4B8
8
0
6
BYLAYER
62
256
10
188.1
20
1835.65
11
169.05
21
1835.65
0
LINE
5
4B9
8
0
6
BYLAYER
62
256
10
173.118
20
94.589
11
173.137
21
94.852
0
LINE
5
4BA
8
0
6
BYLAYER
62
256
10
173.137
20
94.852
11
173.188
21
95.11
0
LINE
5
4BB
8
0
6
BYLAYER
62
256
10
173.188
20
95.11
11
173.274
21
95.36
0
LINE
5
4BC
8
0
6
BYLAYER
62
256
10
173.274
20
95.36
11
173.388
21
95.598
0
LINE
5
4BD
8
0
6
BYLAYER
62
256
10
173.388
20
95.598
11
173.531
21
95.819
0
LINE
5
4BE
8
0
6
BYLAYER
62
256
10
173.531
20
95.819
11
173.702
21
96.02
0
LINE
5
4BF
8
0
6
BYLAYER
62
256
10
173.702
20
96.02
11
173.896
21
96.199
0
LINE
5
4C0
8
0
6
BYLAYER
62
256
10
173.896
20
96.199
11
174.11
21
96.352
0
LINE
5
4C1
8
0
6
BYLAYER
62
256
10
174.11
20
96.352
11
174.342
21
96.476
0
LINE
5
4C2
8
0
6
BYLAYER
62
256
10
174.342
20
96.476
11
174.589
21
96.571
0
LINE
5
4C3
8
0
6
BYLAYER
62
256
10
174.589
20
96.571
11
174.846
21
96.633
0
LINE
5
4C4
8
0
6
BYLAYER
62
256
10
174.846
20
96.633
11
175.107
21
96.663
0
LINE
5
4C5
8
0
6
BYLAYER
62
256
10
175.107
20
96.663
11
175.37
21
96.662
0
LINE
5
4C6
8
0
6
BYLAYER
62
256
10
175.37
20
96.662
11
175.633
21
96.626
0
LINE
5
4C7
8
0
6
BYLAYER
62
256
10
175.633
20
96.626
11
175.887
21
96.558
0
LINE
5
4C8
8
0
6
BYLAYER
62
256
10
175.887
20
96.558
11
176.132
21
96.457
0
LINE
5
4C9
8
0
6
BYLAYER
62
256
10
176.132
20
96.457
11
176.361
21
96.327
0
LINE
5
4CA
8
0
6
BYLAYER
62
256
10
176.361
20
96.327
11
176.573
21
96.171
0
LINE
5
4CB
8
0
6
BYLAYER
62
256
10
176.573
20
96.171
11
176.763
21
95.988
0
LINE
5
4CC
8
0
6
BYLAYER
62
256
10
176.763
20
95.988
11
176.93
21
95.783
0
LINE
5
4CD
8
0
6
BYLAYER
62
256
10
176.93
20
95.783
11
177.068
21
95.559
0
LINE
5
4CE
8
0
6
BYLAYER
62
256
10
177.068
20
95.559
11
177.178
21
95.32
0
LINE
5
4CF
8
0
6
BYLAYER
62
256
10
177.178
20
95.32
11
177.257
21
95.068
0
LINE
5
4D0
8
0
6
BYLAYER
62
256
10
177.257
20
95.068
11
177.304
21
94.808
0
LINE
5
4D1
8
0
6
BYLAYER
62
256
10
177.304
20
94.808
11
177.318
21
94.545
0
LINE
5
4D2
8
0
6
BYLAYER
62
256
10
177.318
20
94.545
11
177.297
21
94.282
0
LINE
5
4D3
8
0
6
BYLAYER
62
256
10
177.297
20
94.282
11
177.246
21
94.023
0
LINE
5
4D4
8
0
6
BYLAYER
62
256
10
177.246
20
94.023
11
177.161
21
93.774
0
LINE
5
4D5
8
0
6
BYLAYER
62
256
10
177.161
20
93.774
11
177.047
21
93.536
0
LINE
5
4D6
8
0
6
BYLAYER
62
256
10
177.047
20
93.536
11
176.904
21
93.315
0
LINE
5
4D7
8
0
6
BYLAYER
62
256
10
176.904
20
93.315
11
176.733
21
93.113
0
LINE
5
4D8
8
0
6
BYLAYER
62
256
10
176.733
20
93.113
11
176.539
21
92.935
0
LINE
5
4D9
8
0
6
BYLAYER
62
256
10
176.539
20
92.935
11
176.324
21
92.782
0
LINE
5
4DA
8
0
6
BYLAYER
62
256
10
176.324
20
92.782
11
176.092
21
92.657
0
LINE
5
4DB
8
0
6
BYLAYER
62
256
10
176.092
20
92.657
11
175.845
21
92.563
0
LINE
5
4DC
8
0
6
BYLAYER
62
256
10
175.845
20
92.563
11
175.589
21
92.5
0
LINE
5
4DD
8
0
6
BYLAYER
62
256
10
175.589
20
92.5
11
175.327
21
92.469
0
LINE
5
4DE
8
0
6
BYLAYER
62
256
10
175.327
20
92.469
11
175.064
21
92.472
0
LINE
5
4DF
8
0
6
BYLAYER
62
256
10
175.064
20
92.472
11
174.802
21
92.508
0
LINE
5
4E0
8
0
6
BYLAYER
62
256
10
174.802
20
92.508
11
174.547
21
92.576
0
LINE
5
4E1
8
0
6
BYLAYER
62
256
10
174.547
20
92.576
11
174.303
21
92.677
0
LINE
5
4E2
8
0
6
BYLAYER
62
256
10
174.303
20
92.677
11
174.074
21
92.805
0
LINE
5
4E3
8
0
6
BYLAYER
62
256
10
174.074
20
92.805
11
173.862
21
92.963
0
LINE
5
4E4
8
0
6
BYLAYER
62
256
10
173.862
20
92.963
11
173.671
21
93.145
0
LINE
5
4E5
8
0
6
BYLAYER
62
256
10
173.671
20
93.145
11
173.505
21
93.351
0
LINE
5
4E6
8
0
6
BYLAYER
62
256
10
173.505
20
93.351
11
173.367
21
93.575
0
LINE
5
4E7
8
0
6
BYLAYER
62
256
10
173.367
20
93.575
11
173.257
21
93.814
0
LINE
5
4E8
8
0
6
BYLAYER
62
256
10
173.257
20
93.814
11
173.178
21
94.065
0
LINE
5
4E9
8
0
6
BYLAYER
62
256
10
173.178
20
94.065
11
173.131
21
94.326
0
LINE
5
4EA
8
0
6
BYLAYER
62
256
10
173.131
20
94.326
11
173.118
21
94.589
0
LINE
5
4EB
8
0
6
BYLAYER
62
256
10
173.118
20
524.589
11
173.137
21
524.852
0
LINE
5
4EC
8
0
6
BYLAYER
62
256
10
173.137
20
524.852
11
173.188
21
525.11
0
LINE
5
4ED
8
0
6
BYLAYER
62
256
10
173.188
20
525.11
11
173.274
21
525.36
0
LINE
5
4EE
8
0
6
BYLAYER
62
256
10
173.274
20
525.36
11
173.388
21
525.598
0
LINE
5
4EF
8
0
6
BYLAYER
62
256
10
173.388
20
525.598
11
173.531
21
525.819
0
LINE
5
4F0
8
0
6
BYLAYER
62
256
10
173.531
20
525.819
11
173.702
21
526.02
0
LINE
5
4F1
8
0
6
BYLAYER
62
256
10
173.702
20
526.02
11
173.896
21
526.199
0
LINE
5
4F2
8
0
6
BYLAYER
62
256
10
173.896
20
526.199
11
174.11
21
526.352
0
LINE
5
4F3
8
0
6
BYLAYER
62
256
10
174.11
20
526.352
11
174.342
21
526.476
0
LINE
5
4F4
8
0
6
BYLAYER
62
256
10
174.342
20
526.476
11
174.589
21
526.571
0
LINE
5
4F5
8
0
6
BYLAYER
62
256
10
174.589
20
526.571
11
174.846
21
526.633
0
LINE
5
4F6
8
0
6
BYLAYER
62
256
10
174.846
20
526.633
11
175.107
21
526.663
0
LINE
5
4F7
8
0
6
BYLAYER
62
256
10
175.107
20
526.663
11
175.37
21
526.662
0
LINE
5
4F8
8
0
6
BYLAYER
62
256
10
175.37
20
526.662
11
175.633
21
526.626
0
LINE
5
4F9
8
0
6
BYLAYER
62
256
10
175.633
20
526.626
11
175.887
21
526.558
0
LINE
5
4FA
8
0
6
BYLAYER
62
256
10
175.887
20
526.558
11
176.132
21
526.457
0
LINE
5
4FB
8
0
6
BYLAYER
62
256
10
176.132
20
526.457
11
176.361
21
526.327
0
LINE
5
4FC
8
0
6
BYLAYER
62
256
10
176.361
20
526.327
11
176.573
21
526.171
0
LINE
5
4FD
8
0
6
BYLAYER
62
256
10
176.573
20
526.171
11
176.763
21
525.988
0
LINE
5
4FE
8
0
6
BYLAYER
62
256
10
176.763
20
525.988
11
176.93
21
525.783
0
LINE
5
4FF
8
0
6
BYLAYER
62
256
10
176.93
20
525.783
11
177.068
21
525.559
0
LINE
5
500
8
0
6
BYLAYER
62
256
10
177.068
20
525.559
11
177.178
21
525.32
0
LINE
5
501
8
0
6
BYLAYER
62
256
10
177.178
20
525.32
11
177.257
21
525.068
0
LINE
5
502
8
0
6
BYLAYER
62
256
10
177.257
20
525.068
11
177.304
21
524.808
0
LINE
5
503
8
0
6
BYLAYER
62
256
10
177.304
20
524.808
11
177.318
21
524.545
0
LINE
5
504
8
0
6
BYLAYER
62
256
10
177.318
20
524.545
11
177.297
21
524.282
0
LINE
5
505
8
0
6
BYLAYER
62
256
10
177.297
20
524.282
11
177.246
21
524.023
0
LINE
5
506
8
0
6
BYLAYER
62
256
10
177.246
20
524.023
11
177.161
21
523.774
0
LINE
5
507
8
0
6
BYLAYER
62
256
10
177.161
20
523.774
11
177.047
21
523.536
0
LINE
5
508
8
0
6
BYLAYER
62
256
10
177.047
20
523.536
11
176.904
21
523.315
0
LINE
5
509
8
0
6
BYLAYER
62
256
10
176.904
20
523.315
11
176.733
21
523.113
0
LINE
5
50A
8
0
6
BYLAYER
62
256
10
176.733
20
523.113
11
176.539
21
522.935
0
LINE
5
50B
8
0
6
BYLAYER
62
256
10
176.539
20
522.935
11
176.324
21
522.782
0
LINE
5
50C
8
0
6
BYLAYER
62
256
10
176.324
20
522.782
11
176.092
21
522.657
0
LINE
5
50D
8
0
6
BYLAYER
62
256
10
176.092
20
522.657
11
175.845
21
522.563
0
LINE
5
50E
8
0
6
BYLAYER
62
256
10
175.845
20
522.563
11
175.589
21
522.5
0
LINE
5
50F
8
0
6
BYLAYER
62
256
10
175.589
20
522.5
11
175.327
21
522.469
0
LINE
5
510
8
0
6
BYLAYER
62
256
10
175.327
20
522.469
11
175.064
21
522.472
0
LINE
5
511
8
0
6
BYLAYER
62
256
10
175.064
20
522.472
11
174.802
21
522.508
0
LINE
5
512
8
0
6
BYLAYER
62
256
10
174.802
20
522.508
11
174.547
21
522.576
0
LINE
5
513
8
0
6
BYLAYER
62
256
10
174.547
20
522.576
11
174.303
21
522.677
0
LINE
5
514
8
0
6
BYLAYER
62
256
10
174.303
20
522.677
11
174.074
21
522.805
0
LINE
5
515
8
0
6
BYLAYER
62
256
10
174.074
20
522.805
11
173.862
21
522.963
0
LINE
5
516
8
0
6
BYLAYER
62
256
10
173.862
20
522.963
11
173.671
21
523.145
0
LINE
5
517
8
0
6
BYLAYER
62
256
10
173.671
20
523.145
11
173.505
21
523.351
0
LINE
5
518
8
0
6
BYLAYER
62
256
10
173.505
20
523.351
11
173.367
21
523.575
0
LINE
5
519
8
0
6
BYLAYER
62
256
10
173.367
20
523.575
11
173.257
21
523.814
0
LINE
5
51A
8
0
6
BYLAYER
62
256
10
173.257
20
523.814
11
173.178
21
524.065
0
LINE
5
51B
8
0
6
BYLAYER
62
256
10
173.178
20
524.065
11
173.131
21
524.326
0
LINE
5
51C
8
0
6
BYLAYER
62
256
10
173.131
20
524.326
11
173.118
21
524.589
0
LINE
5
51D
8
0
6
BYLAYER
62
256
10
176.325
20
931.9
11
176.984
21
933.491
0
LINE
5
51E
8
0
6
BYLAYER
62
256
10
176.984
20
933.491
11
178.575
21
934.15
0
LINE
5
51F
8
0
6
BYLAYER
62
256
10
178.575
20
934.15
11
180.166
21
933.491
0
LINE
5
520
8
0
6
BYLAYER
62
256
10
180.166
20
933.491
11
180.825
21
931.9
0
LINE
5
521
8
0
6
BYLAYER
62
256
10
180.825
20
931.9
11
180.166
21
930.309
0
LINE
5
522
8
0
6
BYLAYER
62
256
10
180.166
20
930.309
11
178.575
21
929.65
0
LINE
5
523
8
0
6
BYLAYER
62
256
10
178.575
20
929.65
11
176.984
21
930.309
0
LINE
5
524
8
0
6
BYLAYER
62
256
10
176.984
20
930.309
11
176.325
21
931.9
0
LINE
5
525
8
0
6
BYLAYER
62
256
10
176.325
20
1151.9
11
176.984
21
1153.49
0
LINE
5
526
8
0
6
BYLAYER
62
256
10
176.984
20
1153.49
11
178.575
21
1154.15
0
LINE
5
527
8
0
6
BYLAYER
62
256
10
178.575
20
1154.15
11
180.166
21
1153.49
0
LINE
5
528
8
0
6
BYLAYER
62
256
10
180.166
20
1153.49
11
180.825
21
1151.9
0
LINE
5
529
8
0
6
BYLAYER
62
256
10
180.825
20
1151.9
11
180.166
21
1150.31
0
LINE
5
52A
8
0
6
BYLAYER
62
256
10
180.166
20
1150.31
11
178.575
21
1149.65
0
LINE
5
52B
8
0
6
BYLAYER
62
256
10
178.575
20
1149.65
11
176.984
21
1150.31
0
LINE
5
52C
8
0
6
BYLAYER
62
256
10
176.984
20
1150.31
11
176.325
21
1151.9
0
LINE
5
52D
8
0
6
BYLAYER
62
256
10
176.325
20
1256.9
11
176.984
21
1258.49
0
LINE
5
52E
8
0
6
BYLAYER
62
256
10
176.984
20
1258.49
11
178.575
21
1259.15
0
LINE
5
52F
8
0
6
BYLAYER
62
256
10
178.575
20
1259.15
11
180.166
21
1258.49
0
LINE
5
530
8
0
6
BYLAYER
62
256
10
180.166
20
1258.49
11
180.825
21
1256.9
0
LINE
5
531
8
0
6
BYLAYER
62
256
10
180.825
20
1256.9
11
180.166
21
1255.31
0
LINE
5
532
8
0
6
BYLAYER
62
256
10
180.166
20
1255.31
11
178.575
21
1254.65
0
LINE
5
533
8
0
6
BYLAYER
62
256
10
178.575
20
1254.65
11
176.984
21
1255.31
0
LINE
5
534
8
0
6
BYLAYER
62
256
10
176.984
20
1255.31
11
176.325
21
1256.9
0
LINE
5
535
8
0
6
BYLAYER
62
256
10
176.325
20
1361.9
11
176.984
21
1363.49
0
LINE
5
536
8
0
6
BYLAYER
62
256
10
176.984
20
1363.49
11
178.575
21
1364.15
0
LINE
5
537
8
0
6
BYLAYER
62
256
10
178.575
20
1364.15
11
180.166
21
1363.49
0
LINE
5
538
8
0
6
BYLAYER
62
256
10
180.166
20
1363.49
11
180.825
21
1361.9
0
LINE
5
539
8
0
6
BYLAYER
62
256
10
180.825
20
1361.9
11
180.166
21
1360.31
0
LINE
5
53A
8
0
6
BYLAYER
62
256
10
180.166
20
1360.31
11
178.575
21
1359.65
0
LINE
5
53B
8
0
6
BYLAYER
62
256
10
178.575
20
1359.65
11
176.984
21
1360.31
0
LINE
5
53C
8
0
6
BYLAYER
62
256
10
176.984
20
1360.31
11
176.325
21
1361.9
0
LINE
5
53D
8
0
6
BYLAYER
62
256
10
176.325
20
1581.9
11
176.984
21
1583.49
0
LINE
5
53E
8
0
6
BYLAYER
62
256
10
176.984
20
1583.49
11
178.575
21
1584.15
0
LINE
5
53F
8
0
6
BYLAYER
62
256
10
178.575
20
1584.15
11
180.166
21
1583.49
0
LINE
5
540
8
0
6
BYLAYER
62
256
10
180.166
20
1583.49
11
180.825
21
1581.9
0
LINE
5
541
8
0
6
BYLAYER
62
256
10
180.825
20
1581.9
11
180.166
21
1580.31
0
LINE
5
542
8
0
6
BYLAYER
62
256
10
180.166
20
1580.31
11
178.575
21
1579.65
0
LINE
5
543
8
0
6
BYLAYER
62
256
10
178.575
20
1579.65
11
176.984
21
1580.31
0
LINE
5
544
8
0
6
BYLAYER
62
256
10
176.984
20
1580.31
11
176.325
21
1581.9
0
LINE
5
545
8
0
6
BYLAYER
62
256
10
176.325
20
1686.9
11
176.984
21
1688.49
0
LINE
5
546
8
0
6
BYLAYER
62
256
10
176.984
20
1688.49
11
178.575
21
1689.15
0
LINE
5
547
8
0
6
BYLAYER
62
256
10
178.575
20
1689.15
11
180.166
21
1688.49
0
LINE
5
548
8
0
6
BYLAYER
62
256
10
180.166
20
1688.49
11
180.825
21
1686.9
0
LINE
5
549
8
0
6
BYLAYER
62
256
10
180.825
20
1686.9
11
180.166
21
1685.31
0
LINE
5
54A
8
0
6
BYLAYER
62
256
10
180.166
20
1685.31
11
178.575
21
1684.65
0
LINE
5
54B
8
0
6
BYLAYER
62
256
10
178.575
20
1684.65
11
176.984
21
1685.31
0
LINE
5
54C
8
0
6
BYLAYER
62
256
10
176.984
20
1685.31
11
176.325
21
1686.9
0
LINE
5
54D
8
0
6
BYLAYER
62
256
10
176.325
20
1791.9
11
176.984
21
1793.49
0
LINE
5
54E
8
0
6
BYLAYER
62
256
10
176.984
20
1793.49
11
178.575
21
1794.15
0
LINE
5
54F
8
0
6
BYLAYER
62
256
10
178.575
20
1794.15
11
180.166
21
1793.49
0
LINE
5
550
8
0
6
BYLAYER
62
256
10
180.166
20
1793.49
11
180.825
21
1791.9
0
LINE
5
551
8
0
6
BYLAYER
62
256
10
180.825
20
1791.9
11
180.166
21
1790.31
0
LINE
5
552
8
0
6
BYLAYER
62
256
10
180.166
20
1790.31
11
178.575
21
1789.65
0
LINE
5
553
8
0
6
BYLAYER
62
256
10
178.575
20
1789.65
11
176.984
21
1790.31
0
LINE
5
554
8
0
6
BYLAYER
62
256
10
176.984
20
1790.31
11
176.325
21
1791.9
0
LINE
5
555
8
0
6
BYLAYER
62
256
10
182.435
20
129.362
11
182.455
21
129.625
0
LINE
5
556
8
0
6
BYLAYER
62
256
10
182.455
20
129.625
11
182.506
21
129.884
0
LINE
5
557
8
0
6
BYLAYER
62
256
10
182.506
20
129.884
11
182.591
21
130.133
0
LINE
5
558
8
0
6
BYLAYER
62
256
10
182.591
20
130.133
11
182.705
21
130.37
0
LINE
5
559
8
0
6
BYLAYER
62
256
10
182.705
20
130.37
11
182.848
21
130.592
0
LINE
5
55A
8
0
6
BYLAYER
62
256
10
182.848
20
130.592
11
183.02
21
130.794
0
LINE
5
55B
8
0
6
BYLAYER
62
256
10
183.02
20
130.794
11
183.214
21
130.972
0
LINE
5
55C
8
0
6
BYLAYER
62
256
10
183.214
20
130.972
11
183.428
21
131.125
0
LINE
5
55D
8
0
6
BYLAYER
62
256
10
183.428
20
131.125
11
183.66
21
131.25
0
LINE
5
55E
8
0
6
BYLAYER
62
256
10
183.66
20
131.25
11
183.907
21
131.344
0
LINE
5
55F
8
0
6
BYLAYER
62
256
10
183.907
20
131.344
11
184.163
21
131.407
0
LINE
5
560
8
0
6
BYLAYER
62
256
10
184.163
20
131.407
11
184.425
21
131.437
0
LINE
5
561
8
0
6
BYLAYER
62
256
10
184.425
20
131.437
11
184.688
21
131.435
0
LINE
5
562
8
0
6
BYLAYER
62
256
10
184.688
20
131.435
11
184.95
21
131.399
0
LINE
5
563
8
0
6
BYLAYER
62
256
10
184.95
20
131.399
11
185.205
21
131.331
0
LINE
5
564
8
0
6
BYLAYER
62
256
10
185.205
20
131.331
11
185.45
21
131.231
0
LINE
5
565
8
0
6
BYLAYER
62
256
10
185.45
20
131.231
11
185.679
21
131.101
0
LINE
5
566
8
0
6
BYLAYER
62
256
10
185.679
20
131.101
11
185.89
21
130.944
0
LINE
5
567
8
0
6
BYLAYER
62
256
10
185.89
20
130.944
11
186.08
21
130.761
0
LINE
5
568
8
0
6
BYLAYER
62
256
10
186.08
20
130.761
11
186.247
21
130.556
0
LINE
5
569
8
0
6
BYLAYER
62
256
10
186.247
20
130.556
11
186.386
21
130.333
0
LINE
5
56A
8
0
6
BYLAYER
62
256
10
186.386
20
130.333
11
186.495
21
130.093
0
LINE
5
56B
8
0
6
BYLAYER
62
256
10
186.495
20
130.093
11
186.575
21
129.841
0
LINE
5
56C
8
0
6
BYLAYER
62
256
10
186.575
20
129.841
11
186.621
21
129.581
0
LINE
5
56D
8
0
6
BYLAYER
62
256
10
186.621
20
129.581
11
186.635
21
129.317
0
LINE
5
56E
8
0
6
BYLAYER
62
256
10
186.635
20
129.317
11
186.615
21
129.056
0
LINE
5
56F
8
0
6
BYLAYER
62
256
10
186.615
20
129.056
11
186.563
21
128.796
0
LINE
5
570
8
0
6
BYLAYER
62
256
10
186.563
20
128.796
11
186.478
21
128.547
0
LINE
5
571
8
0
6
BYLAYER
62
256
10
186.478
20
128.547
11
186.365
21
128.309
0
LINE
5
572
8
0
6
BYLAYER
62
256
10
186.365
20
128.309
11
186.221
21
128.088
0
LINE
5
573
8
0
6
BYLAYER
62
256
10
186.221
20
128.088
11
186.051
21
127.886
0
LINE
5
574
8
0
6
BYLAYER
62
256
10
186.051
20
127.886
11
185.856
21
127.709
0
LINE
5
575
8
0
6
BYLAYER
62
256
10
185.856
20
127.709
11
185.642
21
127.555
0
LINE
5
576
8
0
6
BYLAYER
62
256
10
185.642
20
127.555
11
185.41
21
127.431
0
LINE
5
577
8
0
6
BYLAYER
62
256
10
185.41
20
127.431
11
185.163
21
127.336
0
LINE
5
578
8
0
6
BYLAYER
62
256
10
185.163
20
127.336
11
184.907
21
127.274
0
LINE
5
579
8
0
6
BYLAYER
62
256
10
184.907
20
127.274
11
184.645
21
127.243
0
LINE
5
57A
8
0
6
BYLAYER
62
256
10
184.645
20
127.243
11
184.382
21
127.246
0
LINE
5
57B
8
0
6
BYLAYER
62
256
10
184.382
20
127.246
11
184.12
21
127.282
0
LINE
5
57C
8
0
6
BYLAYER
62
256
10
184.12
20
127.282
11
183.865
21
127.349
0
LINE
5
57D
8
0
6
BYLAYER
62
256
10
183.865
20
127.349
11
183.62
21
127.45
0
LINE
5
57E
8
0
6
BYLAYER
62
256
10
183.62
20
127.45
11
183.391
21
127.579
0
LINE
5
57F
8
0
6
BYLAYER
62
256
10
183.391
20
127.579
11
183.18
21
127.736
0
LINE
5
580
8
0
6
BYLAYER
62
256
10
183.18
20
127.736
11
182.989
21
127.919
0
LINE
5
581
8
0
6
BYLAYER
62
256
10
182.989
20
127.919
11
182.823
21
128.124
0
LINE
5
582
8
0
6
BYLAYER
62
256
10
182.823
20
128.124
11
182.684
21
128.348
0
LINE
5
583
8
0
6
BYLAYER
62
256
10
182.684
20
128.348
11
182.574
21
128.588
0
LINE
5
584
8
0
6
BYLAYER
62
256
10
182.574
20
128.588
11
182.496
21
128.839
0
LINE
5
585
8
0
6
BYLAYER
62
256
10
182.496
20
128.839
11
182.448
21
129.099
0
LINE
5
586
8
0
6
BYLAYER
62
256
10
182.448
20
129.099
11
182.435
21
129.362
0
LINE
5
587
8
0
6
BYLAYER
62
256
10
247.75
20
1030.47
11
248.409
21
1032.07
0
LINE
5
588
8
0
6
BYLAYER
62
256
10
248.409
20
1032.07
11
250
21
1032.72
0
LINE
5
589
8
0
6
BYLAYER
62
256
10
250
20
1032.72
11
251.591
21
1032.07
0
LINE
5
58A
8
0
6
BYLAYER
62
256
10
251.591
20
1032.07
11
252.25
21
1030.47
0
LINE
5
58B
8
0
6
BYLAYER
62
256
10
252.25
20
1030.47
11
251.591
21
1028.88
0
LINE
5
58C
8
0
6
BYLAYER
62
256
10
251.591
20
1028.88
11
250
21
1028.22
0
LINE
5
58D
8
0
6
BYLAYER
62
256
10
250
20
1028.22
11
248.409
21
1028.88
0
LINE
5
58E
8
0
6
BYLAYER
62
256
10
248.409
20
1028.88
11
247.75
21
1030.47
0
LINE
5
58F
8
0
6
BYLAYER
62
256
10
247.75
20
1460.48
11
248.409
21
1462.07
0
LINE
5
590
8
0
6
BYLAYER
62
256
10
248.409
20
1462.07
11
250
21
1462.73
0
LINE
5
591
8
0
6
BYLAYER
62
256
10
250
20
1462.73
11
251.591
21
1462.07
0
LINE
5
592
8
0
6
BYLAYER
62
256
10
251.591
20
1462.07
11
252.25
21
1460.48
0
LINE
5
593
8
0
6
BYLAYER
62
256
10
252.25
20
1460.48
11
251.591
21
1458.88
0
LINE
5
594
8
0
6
BYLAYER
62
256
10
251.591
20
1458.88
11
250
21
1458.23
0
LINE
5
595
8
0
6
BYLAYER
62
256
10
250
20
1458.23
11
248.409
21
1458.88
0
LINE
5
596
8
0
6
BYLAYER
62
256
10
248.409
20
1458.88
11
247.75
21
1460.48
0
LINE
5
597
8
0
6
BYLAYER
62
256
10
247.75
20
1890.48
11
248.409
21
1892.07
0
LINE
5
598
8
0
6
BYLAYER
62
256
10
248.409
20
1892.07
11
250
21
1892.73
0
LINE
5
599
8
0
6
BYLAYER
62
256
10
250
20
1892.73
11
251.591
21
1892.07
0
LINE
5
59A
8
0
6
BYLAYER
62
256
10
251.591
20
1892.07
11
252.25
21
1890.48
0
LINE
5
59B
8
0
6
BYLAYER
62
256
10
252.25
20
1890.48
11
251.591
21
1888.88
0
LINE
5
59C
8
0
6
BYLAYER
62
256
10
251.591
20
1888.88
11
250
21
1888.23
0
LINE
5
59D
8
0
6
BYLAYER
62
256
10
250
20
1888.23
11
248.409
21
1888.88
0
LINE
5
59E
8
0
6
BYLAYER
62
256
10
248.409
20
1888.88
11
247.75
21
1890.48
0
LINE
5
59F
8
0
6
BYLAYER
62
256
10
269.05
20
870.65
11
269.05
21
896.9
0
LINE
5
5A0
8
0
6
BYLAYER
62
256
10
269.05
20
896.9
11
288.1
21
896.9
0
LINE
5
5A1
8
0
6
BYLAYER
62
256
10
288.1
20
896.9
11
288.1
21
870.65
0
LINE
5
5A2
8
0
6
BYLAYER
62
256
10
288.1
20
870.65
11
269.05
21
870.65
0
LINE
5
5A3
8
0
6
BYLAYER
62
256
10
269.05
20
975.65
11
269.05
21
1001.9
0
LINE
5
5A4
8
0
6
BYLAYER
62
256
10
269.05
20
1001.9
11
288.1
21
1001.9
0
LINE
5
5A5
8
0
6
BYLAYER
62
256
10
288.1
20
1001.9
11
288.1
21
975.65
0
LINE
5
5A6
8
0
6
BYLAYER
62
256
10
288.1
20
975.65
11
269.05
21
975.65
0
LINE
5
5A7
8
0
6
BYLAYER
62
256
10
269.05
20
1090.65
11
269.05
21
1116.9
0
LINE
5
5A8
8
0
6
BYLAYER
62
256
10
269.05
20
1116.9
11
288.1
21
1116.9
0
LINE
5
5A9
8
0
6
BYLAYER
62
256
10
288.1
20
1116.9
11
288.1
21
1090.65
0
LINE
5
5AA
8
0
6
BYLAYER
62
256
10
288.1
20
1090.65
11
269.05
21
1090.65
0
LINE
5
5AB
8
0
6
BYLAYER
62
256
10
269.05
20
1195.65
11
269.05
21
1221.9
0
LINE
5
5AC
8
0
6
BYLAYER
62
256
10
269.05
20
1221.9
11
288.1
21
1221.9
0
LINE
5
5AD
8
0
6
BYLAYER
62
256
10
288.1
20
1221.9
11
288.1
21
1195.65
0
LINE
5
5AE
8
0
6
BYLAYER
62
256
10
288.1
20
1195.65
11
269.05
21
1195.65
0
LINE
5
5AF
8
0
6
BYLAYER
62
256
10
269.05
20
1300.65
11
269.05
21
1326.9
0
LINE
5
5B0
8
0
6
BYLAYER
62
256
10
269.05
20
1326.9
11
288.1
21
1326.9
0
LINE
5
5B1
8
0
6
BYLAYER
62
256
10
288.1
20
1326.9
11
288.1
21
1300.65
0
LINE
5
5B2
8
0
6
BYLAYER
62
256
10
288.1
20
1300.65
11
269.05
21
1300.65
0
LINE
5
5B3
8
0
6
BYLAYER
62
256
10
269.05
20
1405.65
11
269.05
21
1431.9
0
LINE
5
5B4
8
0
6
BYLAYER
62
256
10
269.05
20
1431.9
11
288.1
21
1431.9
0
LINE
5
5B5
8
0
6
BYLAYER
62
256
10
288.1
20
1431.9
11
288.1
21
1405.65
0
LINE
5
5B6
8
0
6
BYLAYER
62
256
10
288.1
20
1405.65
11
269.05
21
1405.65
0
LINE
5
5B7
8
0
6
BYLAYER
62
256
10
269.05
20
1520.65
11
269.05
21
1546.9
0
LINE
5
5B8
8
0
6
BYLAYER
62
256
10
269.05
20
1546.9
11
288.1
21
1546.9
0
LINE
5
5B9
8
0
6
BYLAYER
62
256
10
288.1
20
1546.9
11
288.1
21
1520.65
0
LINE
5
5BA
8
0
6
BYLAYER
62
256
10
288.1
20
1520.65
11
269.05
21
1520.65
0
LINE
5
5BB
8
0
6
BYLAYER
62
256
10
269.05
20
1625.65
11
269.05
21
1651.9
0
LINE
5
5BC
8
0
6
BYLAYER
62
256
10
269.05
20
1651.9
11
288.1
21
1651.9
0
LINE
5
5BD
8
0
6
BYLAYER
62
256
10
288.1
20
1651.9
11
288.1
21
1625.65
0
LINE
5
5BE
8
0
6
BYLAYER
62
256
10
288.1
20
1625.65
11
269.05
21
1625.65
0
LINE
5
5BF
8
0
6
BYLAYER
62
256
10
269.05
20
1730.65
11
269.05
21
1756.9
0
LINE
5
5C0
8
0
6
BYLAYER
62
256
10
269.05
20
1756.9
11
288.1
21
1756.9
0
LINE
5
5C1
8
0
6
BYLAYER
62
256
10
288.1
20
1756.9
11
288.1
21
1730.65
0
LINE
5
5C2
8
0
6
BYLAYER
62
256
10
288.1
20
1730.65
11
269.05
21
1730.65
0
LINE
5
5C3
8
0
6
BYLAYER
62
256
10
269.05
20
1835.65
11
269.05
21
1861.9
0
LINE
5
5C4
8
0
6
BYLAYER
62
256
10
269.05
20
1861.9
11
288.1
21
1861.9
0
LINE
5
5C5
8
0
6
BYLAYER
62
256
10
288.1
20
1861.9
11
288.1
21
1835.65
0
LINE
5
5C6
8
0
6
BYLAYER
62
256
10
288.1
20
1835.65
11
269.05
21
1835.65
0
LINE
5
5C7
8
0
6
BYLAYER
62
256
10
273.008
20
293.628
11
273.038
21
293.889
0
LINE
5
5C8
8
0
6
BYLAYER
62
256
10
273.038
20
293.889
11
273.101
21
294.145
0
LINE
5
5C9
8
0
6
BYLAYER
62
256
10
273.101
20
294.145
11
273.195
21
294.392
0
LINE
5
5CA
8
0
6
BYLAYER
62
256
10
273.195
20
294.392
11
273.32
21
294.624
0
LINE
5
5CB
8
0
6
BYLAYER
62
256
10
273.32
20
294.624
11
273.473
21
294.838
0
LINE
5
5CC
8
0
6
BYLAYER
62
256
10
273.473
20
294.838
11
273.651
21
295.033
0
LINE
5
5CD
8
0
6
BYLAYER
62
256
10
273.651
20
295.033
11
273.853
21
295.204
0
LINE
5
5CE
8
0
6
BYLAYER
62
256
10
273.853
20
295.204
11
274.074
21
295.347
0
LINE
5
5CF
8
0
6
BYLAYER
62
256
10
274.074
20
295.347
11
274.312
21
295.461
0
LINE
5
5D0
8
0
6
BYLAYER
62
256
10
274.312
20
295.461
11
274.561
21
295.546
0
LINE
5
5D1
8
0
6
BYLAYER
62
256
10
274.561
20
295.546
11
274.82
21
295.597
0
LINE
5
5D2
8
0
6
BYLAYER
62
256
10
274.82
20
295.597
11
275.082
21
295.618
0
LINE
5
5D3
8
0
6
BYLAYER
62
256
10
275.082
20
295.618
11
275.346
21
295.604
0
LINE
5
5D4
8
0
6
BYLAYER
62
256
10
275.346
20
295.604
11
275.606
21
295.557
0
LINE
5
5D5
8
0
6
BYLAYER
62
256
10
275.606
20
295.557
11
275.857
21
295.478
0
LINE
5
5D6
8
0
6
BYLAYER
62
256
10
275.857
20
295.478
11
276.097
21
295.368
0
LINE
5
5D7
8
0
6
BYLAYER
62
256
10
276.097
20
295.368
11
276.321
21
295.229
0
LINE
5
5D8
8
0
6
BYLAYER
62
256
10
276.321
20
295.229
11
276.526
21
295.063
0
LINE
5
5D9
8
0
6
BYLAYER
62
256
10
276.526
20
295.063
11
276.709
21
294.872
0
LINE
5
5DA
8
0
6
BYLAYER
62
256
10
276.709
20
294.872
11
276.866
21
294.662
0
LINE
5
5DB
8
0
6
BYLAYER
62
256
10
276.866
20
294.662
11
276.995
21
294.432
0
LINE
5
5DC
8
0
6
BYLAYER
62
256
10
276.995
20
294.432
11
277.096
21
294.187
0
LINE
5
5DD
8
0
6
BYLAYER
62
256
10
277.096
20
294.187
11
277.163
21
293.933
0
LINE
5
5DE
8
0
6
BYLAYER
62
256
10
277.163
20
293.933
11
277.2
21
293.67
0
LINE
5
5DF
8
0
6
BYLAYER
62
256
10
277.2
20
293.67
11
277.202
21
293.408
0
LINE
5
5E0
8
0
6
BYLAYER
62
256
10
277.202
20
293.408
11
277.171
21
293.146
0
LINE
5
5E1
8
0
6
BYLAYER
62
256
10
277.171
20
293.146
11
277.109
21
292.89
0
LINE
5
5E2
8
0
6
BYLAYER
62
256
10
277.109
20
292.89
11
277.014
21
292.642
0
LINE
5
5E3
8
0
6
BYLAYER
62
256
10
277.014
20
292.642
11
276.89
21
292.41
0
LINE
5
5E4
8
0
6
BYLAYER
62
256
10
276.89
20
292.41
11
276.736
21
292.196
0
LINE
5
5E5
8
0
6
BYLAYER
62
256
10
276.736
20
292.196
11
276.558
21
292.002
0
LINE
5
5E6
8
0
6
BYLAYER
62
256
10
276.558
20
292.002
11
276.357
21
291.831
0
LINE
5
5E7
8
0
6
BYLAYER
62
256
10
276.357
20
291.831
11
276.135
21
291.688
0
LINE
5
5E8
8
0
6
BYLAYER
62
256
10
276.135
20
291.688
11
275.898
21
291.574
0
LINE
5
5E9
8
0
6
BYLAYER
62
256
10
275.898
20
291.574
11
275.649
21
291.489
0
LINE
5
5EA
8
0
6
BYLAYER
62
256
10
275.649
20
291.489
11
275.389
21
291.437
0
LINE
5
5EB
8
0
6
BYLAYER
62
256
10
275.389
20
291.437
11
275.127
21
291.418
0
LINE
5
5EC
8
0
6
BYLAYER
62
256
10
275.127
20
291.418
11
274.864
21
291.431
0
LINE
5
5ED
8
0
6
BYLAYER
62
256
10
274.864
20
291.431
11
274.603
21
291.478
0
LINE
5
5EE
8
0
6
BYLAYER
62
256
10
274.603
20
291.478
11
274.352
21
291.557
0
LINE
5
5EF
8
0
6
BYLAYER
62
256
10
274.352
20
291.557
11
274.112
21
291.666
0
LINE
5
5F0
8
0
6
BYLAYER
62
256
10
274.112
20
291.666
11
273.889
21
291.805
0
LINE
5
5F1
8
0
6
BYLAYER
62
256
10
273.889
20
291.805
11
273.684
21
291.972
0
LINE
5
5F2
8
0
6
BYLAYER
62
256
10
273.684
20
291.972
11
273.501
21
292.162
0
LINE
5
5F3
8
0
6
BYLAYER
62
256
10
273.501
20
292.162
11
273.344
21
292.374
0
LINE
5
5F4
8
0
6
BYLAYER
62
256
10
273.344
20
292.374
11
273.214
21
292.602
0
LINE
5
5F5
8
0
6
BYLAYER
62
256
10
273.214
20
292.602
11
273.114
21
292.847
0
LINE
5
5F6
8
0
6
BYLAYER
62
256
10
273.114
20
292.847
11
273.046
21
293.102
0
LINE
5
5F7
8
0
6
BYLAYER
62
256
10
273.046
20
293.102
11
273.01
21
293.364
0
LINE
5
5F8
8
0
6
BYLAYER
62
256
10
273.01
20
293.364
11
273.008
21
293.628
0
LINE
5
5F9
8
0
6
BYLAYER
62
256
10
276.325
20
931.9
11
276.984
21
933.491
0
LINE
5
5FA
8
0
6
BYLAYER
62
256
10
276.984
20
933.491
11
278.575
21
934.15
0
LINE
5
5FB
8
0
6
BYLAYER
62
256
10
278.575
20
934.15
11
280.166
21
933.491
0
LINE
5
5FC
8
0
6
BYLAYER
62
256
10
280.166
20
933.491
11
280.825
21
931.9
0
LINE
5
5FD
8
0
6
BYLAYER
62
256
10
280.825
20
931.9
11
280.166
21
930.309
0
LINE
5
5FE
8
0
6
BYLAYER
62
256
10
280.166
20
930.309
11
278.575
21
929.65
0
LINE
5
5FF
8
0
6
BYLAYER
62
256
10
278.575
20
929.65
11
276.984
21
930.309
0
LINE
5
600
8
0
6
BYLAYER
62
256
10
276.984
20
930.309
11
276.325
21
931.9
0
LINE
5
601
8
0
6
BYLAYER
62
256
10
276.325
20
1151.9
11
276.984
21
1153.49
0
LINE
5
602
8
0
6
BYLAYER
62
256
10
276.984
20
1153.49
11
278.575
21
1154.15
0
LINE
5
603
8
0
6
BYLAYER
62
256
10
278.575
20
1154.15
11
280.166
21
1153.49
0
LINE
5
604
8
0
6
BYLAYER
62
256
10
280.166
20
1153.49
11
280.825
21
1151.9
0
LINE
5
605
8
0
6
BYLAYER
62
256
10
280.825
20
1151.9
11
280.166
21
1150.31
0
LINE
5
606
8
0
6
BYLAYER
62
256
10
280.166
20
1150.31
11
278.575
21
1149.65
0
LINE
5
607
8
0
6
BYLAYER
62
256
10
278.575
20
1149.65
11
276.984
21
1150.31
0
LINE
5
608
8
0
6
BYLAYER
62
256
10
276.984
20
1150.31
11
276.325
21
1151.9
0
LINE
5
609
8
0
6
BYLAYER
62
256
10
276.325
20
1256.9
11
276.984
21
1258.49
0
LINE
5
60A
8
0
6
BYLAYER
62
256
10
276.984
20
1258.49
11
278.575
21
1259.15
0
LINE
5
60B
8
0
6
BYLAYER
62
256
10
278.575
20
1259.15
11
280.166
21
1258.49
0
LINE
5
60C
8
0
6
BYLAYER
62
256
10
280.166
20
1258.49
11
280.825
21
1256.9
0
LINE
5
60D
8
0
6
BYLAYER
62
256
10
280.825
20
1256.9
11
280.166
21
1255.31
0
LINE
5
60E
8
0
6
BYLAYER
62
256
10
280.166
20
1255.31
11
278.575
21
1254.65
0
LINE
5
60F
8
0
6
BYLAYER
62
256
10
278.575
20
1254.65
11
276.984
21
1255.31
0
LINE
5
610
8
0
6
BYLAYER
62
256
10
276.984
20
1255.31
11
276.325
21
1256.9
0
LINE
5
611
8
0
6
BYLAYER
62
256
10
276.325
20
1361.9
11
276.984
21
1363.49
0
LINE
5
612
8
0
6
BYLAYER
62
256
10
276.984
20
1363.49
11
278.575
21
1364.15
0
LINE
5
613
8
0
6
BYLAYER
62
256
10
278.575
20
1364.15
11
280.166
21
1363.49
0
LINE
5
614
8
0
6
BYLAYER
62
256
10
280.166
20
1363.49
11
280.825
21
1361.9
0
LINE
5
615
8
0
6
BYLAYER
62
256
10
280.825
20
1361.9
11
280.166
21
1360.31
0
LINE
5
616
8
0
6
BYLAYER
62
256
10
280.166
20
1360.31
11
278.575
21
1359.65
0
LINE
5
617
8
0
6
BYLAYER
62
256
10
278.575
20
1359.65
11
276.984
21
1360.31
0
LINE
5
618
8
0
6
BYLAYER
62
256
10
276.984
20
1360.31
11
276.325
21
1361.9
0
LINE
5
619
8
0
6
BYLAYER
62
256
10
276.325
20
1581.9
11
276.984
21
1583.49
0
LINE
5
61A
8
0
6
BYLAYER
62
256
10
276.984
20
1583.49
11
278.575
21
1584.15
0
LINE
5
61B
8
0
6
BYLAYER
62
256
10
278.575
20
1584.15
11
280.166
21
1583.49
0
LINE
5
61C
8
0
6
BYLAYER
62
256
10
280.166
20
1583.49
11
280.825
21
1581.9
0
LINE
5
61D
8
0
6
BYLAYER
62
256
10
280.825
20
1581.9
11
280.166
21
1580.31
0
LINE
5
61E
8
0
6
BYLAYER
62
256
10
280.166
20
1580.31
11
278.575
21
1579.65
0
LINE
5
61F
8
0
6
BYLAYER
62
256
10
278.575
20
1579.65
11
276.984
21
1580.31
0
LINE
5
620
8
0
6
BYLAYER
62
256
10
276.984
20
1580.31
11
276.325
21
1581.9
0
LINE
5
621
8
0
6
BYLAYER
62
256
10
276.325
20
1686.9
11
276.984
21
1688.49
0
LINE
5
622
8
0
6
BYLAYER
62
256
10
276.984
20
1688.49
11
278.575
21
1689.15
0
LINE
5
623
8
0
6
BYLAYER
62
256
10
278.575
20
1689.15
11
280.166
21
1688.49
0
LINE
5
624
8
0
6
BYLAYER
62
256
10
280.166
20
1688.49
11
280.825
21
1686.9
0
LINE
5
625
8
0
6
BYLAYER
62
256
10
280.825
20
1686.9
11
280.166
21
1685.31
0
LINE
5
626
8
0
6
BYLAYER
62
256
10
280.166
20
1685.31
11
278.575
21
1684.65
0
LINE
5
627
8
0
6
BYLAYER
62
256
10
278.575
20
1684.65
11
276.984
21
1685.31
0
LINE
5
628
8
0
6
BYLAYER
62
256
10
276.984
20
1685.31
11
276.325
21
1686.9
0
LINE
5
629
8
0
6
BYLAYER
62
256
10
276.325
20
1791.9
11
276.984
21
1793.49
0
LINE
5
62A
8
0
6
BYLAYER
62
256
10
276.984
20
1793.49
11
278.575
21
1794.15
0
LINE
5
62B
8
0
6
BYLAYER
62
256
10
278.575
20
1794.15
11
280.166
21
1793.49
0
LINE
5
62C
8
0
6
BYLAYER
62
256
10
280.166
20
1793.49
11
280.825
21
1791.9
0
LINE
5
62D
8
0
6
BYLAYER
62
256
10
280.825
20
1791.9
11
280.166
21
1790.31
0
LINE
5
62E
8
0
6
BYLAYER
62
256
10
280.166
20
1790.31
11
278.575
21
1789.65
0
LINE
5
62F
8
0
6
BYLAYER
62
256
10
278.575
20
1789.65
11
276.984
21
1790.31
0
LINE
5
630
8
0
6
BYLAYER
62
256
10
276.984
20
1790.31
11
276.325
21
1791.9
0
LINE
5
631
8
0
6
BYLAYER
62
256
10
288.563
20
235.575
11
288.593
21
235.837
0
LINE
5
632
8
0
6
BYLAYER
62
256
10
288.593
20
235.837
11
288.656
21
236.093
0
LINE
5
633
8
0
6
BYLAYER
62
256
10
288.656
20
236.093
11
288.75
21
236.34
0
LINE
5
634
8
0
6
BYLAYER
62
256
10
288.75
20
236.34
11
288.875
21
236.572
0
LINE
5
635
8
0
6
BYLAYER
62
256
10
288.875
20
236.572
11
289.028
21
236.786
0
LINE
5
636
8
0
6
BYLAYER
62
256
10
289.028
20
236.786
11
289.206
21
236.98
0
LINE
5
637
8
0
6
BYLAYER
62
256
10
289.206
20
236.98
11
289.408
21
237.152
0
LINE
5
638
8
0
6
BYLAYER
62
256
10
289.408
20
237.152
11
289.63
21
237.295
0
LINE
5
639
8
0
6
BYLAYER
62
256
10
289.63
20
237.295
11
289.867
21
237.409
0
LINE
5
63A
8
0
6
BYLAYER
62
256
10
289.867
20
237.409
11
290.116
21
237.494
0
LINE
5
63B
8
0
6
BYLAYER
62
256
10
290.116
20
237.494
11
290.375
21
237.545
0
LINE
5
63C
8
0
6
BYLAYER
62
256
10
290.375
20
237.545
11
290.638
21
237.565
0
LINE
5
63D
8
0
6
BYLAYER
62
256
10
290.638
20
237.565
11
290.901
21
237.552
0
LINE
5
63E
8
0
6
BYLAYER
62
256
10
290.901
20
237.552
11
291.161
21
237.504
0
LINE
5
63F
8
0
6
BYLAYER
62
256
10
291.161
20
237.504
11
291.412
21
237.426
0
LINE
5
640
8
0
6
BYLAYER
62
256
10
291.412
20
237.426
11
291.652
21
237.316
0
LINE
5
641
8
0
6
BYLAYER
62
256
10
291.652
20
237.316
11
291.876
21
237.177
0
LINE
5
642
8
0
6
BYLAYER
62
256
10
291.876
20
237.177
11
292.081
21
237.011
0
LINE
5
643
8
0
6
BYLAYER
62
256
10
292.081
20
237.011
11
292.264
21
236.82
0
LINE
5
644
8
0
6
BYLAYER
62
256
10
292.264
20
236.82
11
292.421
21
236.609
0
LINE
5
645
8
0
6
BYLAYER
62
256
10
292.421
20
236.609
11
292.55
21
236.38
0
LINE
5
646
8
0
6
BYLAYER
62
256
10
292.55
20
236.38
11
292.651
21
236.135
0
LINE
5
647
8
0
6
BYLAYER
62
256
10
292.651
20
236.135
11
292.718
21
235.88
0
LINE
5
648
8
0
6
BYLAYER
62
256
10
292.718
20
235.88
11
292.754
21
235.618
0
LINE
5
649
8
0
6
BYLAYER
62
256
10
292.754
20
235.618
11
292.757
21
235.355
0
LINE
5
64A
8
0
6
BYLAYER
62
256
10
292.757
20
235.355
11
292.726
21
235.093
0
LINE
5
64B
8
0
6
BYLAYER
62
256
10
292.726
20
235.093
11
292.664
21
234.837
0
LINE
5
64C
8
0
6
BYLAYER
62
256
10
292.664
20
234.837
11
292.569
21
234.59
0
LINE
5
64D
8
0
6
BYLAYER
62
256
10
292.569
20
234.59
11
292.445
21
234.358
0
LINE
5
64E
8
0
6
BYLAYER
62
256
10
292.445
20
234.358
11
292.291
21
234.144
0
LINE
5
64F
8
0
6
BYLAYER
62
256
10
292.291
20
234.144
11
292.114
21
233.949
0
LINE
5
650
8
0
6
BYLAYER
62
256
10
292.114
20
233.949
11
291.912
21
233.779
0
LINE
5
651
8
0
6
BYLAYER
62
256
10
291.912
20
233.779
11
291.691
21
233.635
0
LINE
5
652
8
0
6
BYLAYER
62
256
10
291.691
20
233.635
11
291.453
21
233.522
0
LINE
5
653
8
0
6
BYLAYER
62
256
10
291.453
20
233.522
11
291.204
21
233.437
0
LINE
5
654
8
0
6
BYLAYER
62
256
10
291.204
20
233.437
11
290.944
21
233.385
0
LINE
5
655
8
0
6
BYLAYER
62
256
10
290.944
20
233.385
11
290.683
21
233.365
0
LINE
5
656
8
0
6
BYLAYER
62
256
10
290.683
20
233.365
11
290.419
21
233.379
0
LINE
5
657
8
0
6
BYLAYER
62
256
10
290.419
20
233.379
11
290.159
21
233.425
0
LINE
5
658
8
0
6
BYLAYER
62
256
10
290.159
20
233.425
11
289.907
21
233.505
0
LINE
5
659
8
0
6
BYLAYER
62
256
10
289.907
20
233.505
11
289.667
21
233.614
0
LINE
5
65A
8
0
6
BYLAYER
62
256
10
289.667
20
233.614
11
289.444
21
233.753
0
LINE
5
65B
8
0
6
BYLAYER
62
256
10
289.444
20
233.753
11
289.239
21
233.92
0
LINE
5
65C
8
0
6
BYLAYER
62
256
10
289.239
20
233.92
11
289.056
21
234.11
0
LINE
5
65D
8
0
6
BYLAYER
62
256
10
289.056
20
234.11
11
288.899
21
234.321
0
LINE
5
65E
8
0
6
BYLAYER
62
256
10
288.899
20
234.321
11
288.769
21
234.55
0
LINE
5
65F
8
0
6
BYLAYER
62
256
10
288.769
20
234.55
11
288.669
21
234.795
0
LINE
5
660
8
0
6
BYLAYER
62
256
10
288.669
20
234.795
11
288.601
21
235.05
0
LINE
5
661
8
0
6
BYLAYER
62
256
10
288.601
20
235.05
11
288.565
21
235.312
0
LINE
5
662
8
0
6
BYLAYER
62
256
10
288.565
20
235.312
11
288.563
21
235.575
0
LINE
5
663
8
0
6
BYLAYER
62
256
10
307.781
20
302.945
11
307.812
21
303.206
0
LINE
5
664
8
0
6
BYLAYER
62
256
10
307.812
20
303.206
11
307.875
21
303.463
0
LINE
5
665
8
0
6
BYLAYER
62
256
10
307.875
20
303.463
11
307.969
21
303.71
0
LINE
5
666
8
0
6
BYLAYER
62
256
10
307.969
20
303.71
11
308.093
21
303.942
0
LINE
5
667
8
0
6
BYLAYER
62
256
10
308.093
20
303.942
11
308.246
21
304.156
0
LINE
5
668
8
0
6
BYLAYER
62
256
10
308.246
20
304.156
11
308.424
21
304.35
0
LINE
5
669
8
0
6
BYLAYER
62
256
10
308.424
20
304.35
11
308.626
21
304.521
0
LINE
5
66A
8
0
6
BYLAYER
62
256
10
308.626
20
304.521
11
308.847
21
304.664
0
LINE
5
66B
8
0
6
BYLAYER
62
256
10
308.847
20
304.664
11
309.085
21
304.778
0
LINE
5
66C
8
0
6
BYLAYER
62
256
10
309.085
20
304.778
11
309.335
21
304.864
0
LINE
5
66D
8
0
6
BYLAYER
62
256
10
309.335
20
304.864
11
309.593
21
304.915
0
LINE
5
66E
8
0
6
BYLAYER
62
256
10
309.593
20
304.915
11
309.856
21
304.935
0
LINE
5
66F
8
0
6
BYLAYER
62
256
10
309.856
20
304.935
11
310.119
21
304.921
0
LINE
5
670
8
0
6
BYLAYER
62
256
10
310.119
20
304.921
11
310.379
21
304.874
0
LINE
5
671
8
0
6
BYLAYER
62
256
10
310.379
20
304.874
11
310.631
21
304.795
0
LINE
5
672
8
0
6
BYLAYER
62
256
10
310.631
20
304.795
11
310.871
21
304.686
0
LINE
5
673
8
0
6
BYLAYER
62
256
10
310.871
20
304.686
11
311.094
21
304.547
0
LINE
5
674
8
0
6
BYLAYER
62
256
10
311.094
20
304.547
11
311.3
21
304.381
0
LINE
5
675
8
0
6
BYLAYER
62
256
10
311.3
20
304.381
11
311.482
21
304.19
0
LINE
5
676
8
0
6
BYLAYER
62
256
10
311.482
20
304.19
11
311.639
21
303.979
0
LINE
5
677
8
0
6
BYLAYER
62
256
10
311.639
20
303.979
11
311.769
21
303.749
0
LINE
5
678
8
0
6
BYLAYER
62
256
10
311.769
20
303.749
11
311.869
21
303.505
0
LINE
5
679
8
0
6
BYLAYER
62
256
10
311.869
20
303.505
11
311.937
21
303.25
0
LINE
5
67A
8
0
6
BYLAYER
62
256
10
311.937
20
303.25
11
311.973
21
302.988
0
LINE
5
67B
8
0
6
BYLAYER
62
256
10
311.973
20
302.988
11
311.975
21
302.725
0
LINE
5
67C
8
0
6
BYLAYER
62
256
10
311.975
20
302.725
11
311.945
21
302.463
0
LINE
5
67D
8
0
6
BYLAYER
62
256
10
311.945
20
302.463
11
311.882
21
302.207
0
LINE
5
67E
8
0
6
BYLAYER
62
256
10
311.882
20
302.207
11
311.788
21
301.96
0
LINE
5
67F
8
0
6
BYLAYER
62
256
10
311.788
20
301.96
11
311.663
21
301.728
0
LINE
5
680
8
0
6
BYLAYER
62
256
10
311.663
20
301.728
11
311.51
21
301.513
0
LINE
5
681
8
0
6
BYLAYER
62
256
10
311.51
20
301.513
11
311.332
21
301.32
0
LINE
5
682
8
0
6
BYLAYER
62
256
10
311.332
20
301.32
11
311.13
21
301.148
0
LINE
5
683
8
0
6
BYLAYER
62
256
10
311.13
20
301.148
11
310.909
21
301.006
0
LINE
5
684
8
0
6
BYLAYER
62
256
10
310.909
20
301.006
11
310.671
21
300.891
0
LINE
5
685
8
0
6
BYLAYER
62
256
10
310.671
20
300.891
11
310.422
21
300.806
0
LINE
5
686
8
0
6
BYLAYER
62
256
10
310.422
20
300.806
11
310.163
21
300.755
0
LINE
5
687
8
0
6
BYLAYER
62
256
10
310.163
20
300.755
11
309.9
21
300.735
0
LINE
5
688
8
0
6
BYLAYER
62
256
10
309.9
20
300.735
11
309.637
21
300.748
0
LINE
5
689
8
0
6
BYLAYER
62
256
10
309.637
20
300.748
11
309.376
21
300.796
0
LINE
5
68A
8
0
6
BYLAYER
62
256
10
309.376
20
300.796
11
309.125
21
300.874
0
LINE
5
68B
8
0
6
BYLAYER
62
256
10
309.125
20
300.874
11
308.886
21
300.984
0
LINE
5
68C
8
0
6
BYLAYER
62
256
10
308.886
20
300.984
11
308.662
21
301.122
0
LINE
5
68D
8
0
6
BYLAYER
62
256
10
308.662
20
301.122
11
308.457
21
301.289
0
LINE
5
68E
8
0
6
BYLAYER
62
256
10
308.457
20
301.289
11
308.274
21
301.479
0
LINE
5
68F
8
0
6
BYLAYER
62
256
10
308.274
20
301.479
11
308.117
21
301.692
0
LINE
5
690
8
0
6
BYLAYER
62
256
10
308.117
20
301.692
11
307.988
21
301.92
0
LINE
5
691
8
0
6
BYLAYER
62
256
10
307.988
20
301.92
11
307.887
21
302.165
0
LINE
5
692
8
0
6
BYLAYER
62
256
10
307.887
20
302.165
11
307.819
21
302.419
0
LINE
5
693
8
0
6
BYLAYER
62
256
10
307.819
20
302.419
11
307.783
21
302.682
0
LINE
5
694
8
0
6
BYLAYER
62
256
10
307.783
20
302.682
11
307.781
21
302.945
0
LINE
5
695
8
0
6
BYLAYER
62
256
10
307.781
20
732.945
11
307.812
21
733.206
0
LINE
5
696
8
0
6
BYLAYER
62
256
10
307.812
20
733.206
11
307.875
21
733.463
0
LINE
5
697
8
0
6
BYLAYER
62
256
10
307.875
20
733.463
11
307.969
21
733.71
0
LINE
5
698
8
0
6
BYLAYER
62
256
10
307.969
20
733.71
11
308.093
21
733.942
0
LINE
5
699
8
0
6
BYLAYER
62
256
10
308.093
20
733.942
11
308.246
21
734.156
0
LINE
5
69A
8
0
6
BYLAYER
62
256
10
308.246
20
734.156
11
308.424
21
734.35
0
LINE
5
69B
8
0
6
BYLAYER
62
256
10
308.424
20
734.35
11
308.626
21
734.521
0
LINE
5
69C
8
0
6
BYLAYER
62
256
10
308.626
20
734.521
11
308.847
21
734.664
0
LINE
5
69D
8
0
6
BYLAYER
62
256
10
308.847
20
734.664
11
309.085
21
734.778
0
LINE
5
69E
8
0
6
BYLAYER
62
256
10
309.085
20
734.778
11
309.335
21
734.864
0
LINE
5
69F
8
0
6
BYLAYER
62
256
10
309.335
20
734.864
11
309.593
21
734.915
0
LINE
5
6A0
8
0
6
BYLAYER
62
256
10
309.593
20
734.915
11
309.856
21
734.935
0
LINE
5
6A1
8
0
6
BYLAYER
62
256
10
309.856
20
734.935
11
310.119
21
734.921
0
LINE
5
6A2
8
0
6
BYLAYER
62
256
10
310.119
20
734.921
11
310.379
21
734.874
0
LINE
5
6A3
8
0
6
BYLAYER
62
256
10
310.379
20
734.874
11
310.631
21
734.795
0
LINE
5
6A4
8
0
6
BYLAYER
62
256
10
310.631
20
734.795
11
310.871
21
734.686
0
LINE
5
6A5
8
0
6
BYLAYER
62
256
10
310.871
20
734.686
11
311.094
21
734.547
0
LINE
5
6A6
8
0
6
BYLAYER
62
256
10
311.094
20
734.547
11
311.3
21
734.381
0
LINE
5
6A7
8
0
6
BYLAYER
62
256
10
311.3
20
734.381
11
311.482
21
734.19
0
LINE
5
6A8
8
0
6
BYLAYER
62
256
10
311.482
20
734.19
11
311.639
21
733.979
0
LINE
5
6A9
8
0
6
BYLAYER
62
256
10
311.639
20
733.979
11
311.769
21
733.749
0
LINE
5
6AA
8
0
6
BYLAYER
62
256
10
311.769
20
733.749
11
311.869
21
733.505
0
LINE
5
6AB
8
0
6
BYLAYER
62
256
10
311.869
20
733.505
11
311.937
21
733.25
0
LINE
5
6AC
8
0
6
BYLAYER
62
256
10
311.937
20
733.25
11
311.973
21
732.988
0
LINE
5
6AD
8
0
6
BYLAYER
62
256
10
311.973
20
732.988
11
311.975
21
732.725
0
LINE
5
6AE
8
0
6
BYLAYER
62
256
10
311.975
20
732.725
11
311.945
21
732.463
0
LINE
5
6AF
8
0
6
BYLAYER
62
256
10
311.945
20
732.463
11
311.882
21
732.207
0
LINE
5
6B0
8
0
6
BYLAYER
62
256
10
311.882
20
732.207
11
311.788
21
731.96
0
LINE
5
6B1
8
0
6
BYLAYER
62
256
10
311.788
20
731.96
11
311.663
21
731.728
0
LINE
5
6B2
8
0
6
BYLAYER
62
256
10
311.663
20
731.728
11
311.51
21
731.513
0
LINE
5
6B3
8
0
6
BYLAYER
62
256
10
311.51
20
731.513
11
311.332
21
731.32
0
LINE
5
6B4
8
0
6
BYLAYER
62
256
10
311.332
20
731.32
11
311.13
21
731.148
0
LINE
5
6B5
8
0
6
BYLAYER
62
256
10
311.13
20
731.148
11
310.909
21
731.006
0
LINE
5
6B6
8
0
6
BYLAYER
62
256
10
310.909
20
731.006
11
310.671
21
730.891
0
LINE
5
6B7
8
0
6
BYLAYER
62
256
10
310.671
20
730.891
11
310.422
21
730.806
0
LINE
5
6B8
8
0
6
BYLAYER
62
256
10
310.422
20
730.806
11
310.163
21
730.755
0
LINE
5
6B9
8
0
6
BYLAYER
62
256
10
310.163
20
730.755
11
309.9
21
730.735
0
LINE
5
6BA
8
0
6
BYLAYER
62
256
10
309.9
20
730.735
11
309.637
21
730.748
0
LINE
5
6BB
8
0
6
BYLAYER
62
256
10
309.637
20
730.748
11
309.376
21
730.796
0
LINE
5
6BC
8
0
6
BYLAYER
62
256
10
309.376
20
730.796
11
309.125
21
730.874
0
LINE
5
6BD
8
0
6
BYLAYER
62
256
10
309.125
20
730.874
11
308.886
21
730.984
0
LINE
5
6BE
8
0
6
BYLAYER
62
256
10
308.886
20
730.984
11
308.662
21
731.122
0
LINE
5
6BF
8
0
6
BYLAYER
62
256
10
308.662
20
731.122
11
308.457
21
731.289
0
LINE
5
6C0
8
0
6
BYLAYER
62
256
10
308.457
20
731.289
11
308.274
21
731.479
0
LINE
5
6C1
8
0
6
BYLAYER
62
256
10
308.274
20
731.479
11
308.117
21
731.692
0
LINE
5
6C2
8
0
6
BYLAYER
62
256
10
308.117
20
731.692
11
307.988
21
731.92
0
LINE
5
6C3
8
0
6
BYLAYER
62
256
10
307.988
20
731.92
11
307.887
21
732.165
0
LINE
5
6C4
8
0
6
BYLAYER
62
256
10
307.887
20
732.165
11
307.819
21
732.419
0
LINE
5
6C5
8
0
6
BYLAYER
62
256
10
307.819
20
732.419
11
307.783
21
732.682
0
LINE
5
6C6
8
0
6
BYLAYER
62
256
10
307.783
20
732.682
11
307.781
21
732.945
0
LINE
5
6C7
8
0
6
BYLAYER
62
256
10
317.075
20
306.171
11
317.139
21
306.72
0
LINE
5
6C8
8
0
6
BYLAYER
62
256
10
317.139
20
306.72
11
317.271
21
307.257
0
LINE
5
6C9
8
0
6
BYLAYER
62
256
10
317.271
20
307.257
11
317.469
21
307.773
0
LINE
5
6CA
8
0
6
BYLAYER
62
256
10
317.469
20
307.773
11
317.73
21
308.259
0
LINE
5
6CB
8
0
6
BYLAYER
62
256
10
317.73
20
308.259
11
318.05
21
308.71
0
LINE
5
6CC
8
0
6
BYLAYER
62
256
10
318.05
20
308.71
11
318.424
21
309.116
0
LINE
5
6CD
8
0
6
BYLAYER
62
256
10
318.424
20
309.116
11
318.845
21
309.473
0
LINE
5
6CE
8
0
6
BYLAYER
62
256
10
318.845
20
309.473
11
319.309
21
309.774
0
LINE
5
6CF
8
0
6
BYLAYER
62
256
10
319.309
20
309.774
11
319.807
21
310.014
0
LINE
5
6D0
8
0
6
BYLAYER
62
256
10
319.807
20
310.014
11
320.33
21
310.191
0
LINE
5
6D1
8
0
6
BYLAYER
62
256
10
320.33
20
310.191
11
320.872
21
310.3
0
LINE
5
6D2
8
0
6
BYLAYER
62
256
10
320.872
20
310.3
11
321.423
21
310.34
0
LINE
5
6D3
8
0
6
BYLAYER
62
256
10
321.423
20
310.34
11
321.975
21
310.311
0
LINE
5
6D4
8
0
6
BYLAYER
62
256
10
321.975
20
310.311
11
322.519
21
310.214
0
LINE
5
6D5
8
0
6
BYLAYER
62
256
10
322.519
20
310.214
11
323.045
21
310.048
0
LINE
5
6D6
8
0
6
BYLAYER
62
256
10
323.045
20
310.048
11
323.549
21
309.818
0
LINE
5
6D7
8
0
6
BYLAYER
62
256
10
323.549
20
309.818
11
324.018
21
309.527
0
LINE
5
6D8
8
0
6
BYLAYER
62
256
10
324.018
20
309.527
11
324.447
21
309.18
0
LINE
5
6D9
8
0
6
BYLAYER
62
256
10
324.447
20
309.18
11
324.83
21
308.78
0
LINE
5
6DA
8
0
6
BYLAYER
62
256
10
324.83
20
308.78
11
325.16
21
308.337
0
LINE
5
6DB
8
0
6
BYLAYER
62
256
10
325.16
20
308.337
11
325.431
21
307.855
0
LINE
5
6DC
8
0
6
BYLAYER
62
256
10
325.431
20
307.855
11
325.639
21
307.344
0
LINE
5
6DD
8
0
6
BYLAYER
62
256
10
325.639
20
307.344
11
325.782
21
306.811
0
LINE
5
6DE
8
0
6
BYLAYER
62
256
10
325.782
20
306.811
11
325.858
21
306.263
0
LINE
5
6DF
8
0
6
BYLAYER
62
256
10
325.858
20
306.263
11
325.863
21
305.71
0
LINE
5
6E0
8
0
6
BYLAYER
62
256
10
325.863
20
305.71
11
325.8
21
305.161
0
LINE
5
6E1
8
0
6
BYLAYER
62
256
10
325.8
20
305.161
11
325.668
21
304.624
0
LINE
5
6E2
8
0
6
BYLAYER
62
256
10
325.668
20
304.624
11
325.469
21
304.109
0
LINE
5
6E3
8
0
6
BYLAYER
62
256
10
325.469
20
304.109
11
325.209
21
303.623
0
LINE
5
6E4
8
0
6
BYLAYER
62
256
10
325.209
20
303.623
11
324.888
21
303.171
0
LINE
5
6E5
8
0
6
BYLAYER
62
256
10
324.888
20
303.171
11
324.515
21
302.765
0
LINE
5
6E6
8
0
6
BYLAYER
62
256
10
324.515
20
302.765
11
324.093
21
302.408
0
LINE
5
6E7
8
0
6
BYLAYER
62
256
10
324.093
20
302.408
11
323.629
21
302.107
0
LINE
5
6E8
8
0
6
BYLAYER
62
256
10
323.629
20
302.107
11
323.132
21
301.867
0
LINE
5
6E9
8
0
6
BYLAYER
62
256
10
323.132
20
301.867
11
322.608
21
301.691
0
LINE
5
6EA
8
0
6
BYLAYER
62
256
10
322.608
20
301.691
11
322.067
21
301.581
0
LINE
5
6EB
8
0
6
BYLAYER
62
256
10
322.067
20
301.581
11
321.515
21
301.54
0
LINE
5
6EC
8
0
6
BYLAYER
62
256
10
321.515
20
301.54
11
320.963
21
301.569
0
LINE
5
6ED
8
0
6
BYLAYER
62
256
10
320.963
20
301.569
11
320.419
21
301.668
0
LINE
5
6EE
8
0
6
BYLAYER
62
256
10
320.419
20
301.668
11
319.893
21
301.832
0
LINE
5
6EF
8
0
6
BYLAYER
62
256
10
319.893
20
301.832
11
319.39
21
302.064
0
LINE
5
6F0
8
0
6
BYLAYER
62
256
10
319.39
20
302.064
11
318.921
21
302.354
0
LINE
5
6F1
8
0
6
BYLAYER
62
256
10
318.921
20
302.354
11
318.492
21
302.701
0
LINE
5
6F2
8
0
6
BYLAYER
62
256
10
318.492
20
302.701
11
318.109
21
303.101
0
LINE
5
6F3
8
0
6
BYLAYER
62
256
10
318.109
20
303.101
11
317.779
21
303.544
0
LINE
5
6F4
8
0
6
BYLAYER
62
256
10
317.779
20
303.544
11
317.508
21
304.026
0
LINE
5
6F5
8
0
6
BYLAYER
62
256
10
317.508
20
304.026
11
317.299
21
304.538
0
LINE
5
6F6
8
0
6
BYLAYER
62
256
10
317.299
20
304.538
11
317.156
21
305.071
0
LINE
5
6F7
8
0
6
BYLAYER
62
256
10
317.156
20
305.071
11
317.081
21
305.618
0
LINE
5
6F8
8
0
6
BYLAYER
62
256
10
317.081
20
305.618
11
317.075
21
306.171
0
LINE
5
6F9
8
0
6
BYLAYER
62
256
10
317.075
20
736.171
11
317.139
21
736.72
0
LINE
5
6FA
8
0
6
BYLAYER
62
256
10
317.139
20
736.72
11
317.271
21
737.257
0
LINE
5
6FB
8
0
6
BYLAYER
62
256
10
317.271
20
737.257
11
317.469
21
737.773
0
LINE
5
6FC
8
0
6
BYLAYER
62
256
10
317.469
20
737.773
11
317.73
21
738.259
0
LINE
5
6FD
8
0
6
BYLAYER
62
256
10
317.73
20
738.259
11
318.05
21
738.71
0
LINE
5
6FE
8
0
6
BYLAYER
62
256
10
318.05
20
738.71
11
318.424
21
739.116
0
LINE
5
6FF
8
0
6
BYLAYER
62
256
10
318.424
20
739.116
11
318.845
21
739.473
0
LINE
5
700
8
0
6
BYLAYER
62
256
10
318.845
20
739.473
11
319.309
21
739.774
0
LINE
5
701
8
0
6
BYLAYER
62
256
10
319.309
20
739.774
11
319.807
21
740.014
0
LINE
5
702
8
0
6
BYLAYER
62
256
10
319.807
20
740.014
11
320.33
21
740.191
0
LINE
5
703
8
0
6
BYLAYER
62
256
10
320.33
20
740.191
11
320.872
21
740.3
0
LINE
5
704
8
0
6
BYLAYER
62
256
10
320.872
20
740.3
11
321.423
21
740.34
0
LINE
5
705
8
0
6
BYLAYER
62
256
10
321.423
20
740.34
11
321.975
21
740.311
0
LINE
5
706
8
0
6
BYLAYER
62
256
10
321.975
20
740.311
11
322.519
21
740.214
0
LINE
5
707
8
0
6
BYLAYER
62
256
10
322.519
20
740.214
11
323.045
21
740.048
0
LINE
5
708
8
0
6
BYLAYER
62
256
10
323.045
20
740.048
11
323.549
21
739.818
0
LINE
5
709
8
0
6
BYLAYER
62
256
10
323.549
20
739.818
11
324.018
21
739.527
0
LINE
5
70A
8
0
6
BYLAYER
62
256
10
324.018
20
739.527
11
324.447
21
739.18
0
LINE
5
70B
8
0
6
BYLAYER
62
256
10
324.447
20
739.18
11
324.83
21
738.78
0
LINE
5
70C
8
0
6
BYLAYER
62
256
10
324.83
20
738.78
11
325.16
21
738.337
0
LINE
5
70D
8
0
6
BYLAYER
62
256
10
325.16
20
738.337
11
325.431
21
737.855
0
LINE
5
70E
8
0
6
BYLAYER
62
256
10
325.431
20
737.855
11
325.639
21
737.344
0
LINE
5
70F
8
0
6
BYLAYER
62
256
10
325.639
20
737.344
11
325.782
21
736.811
0
LINE
5
710
8
0
6
BYLAYER
62
256
10
325.782
20
736.811
11
325.858
21
736.263
0
LINE
5
711
8
0
6
BYLAYER
62
256
10
325.858
20
736.263
11
325.863
21
735.71
0
LINE
5
712
8
0
6
BYLAYER
62
256
10
325.863
20
735.71
11
325.8
21
735.161
0
LINE
5
713
8
0
6
BYLAYER
62
256
10
325.8
20
735.161
11
325.668
21
734.624
0
LINE
5
714
8
0
6
BYLAYER
62
256
10
325.668
20
734.624
11
325.469
21
734.109
0
LINE
5
715
8
0
6
BYLAYER
62
256
10
325.469
20
734.109
11
325.209
21
733.623
0
LINE
5
716
8
0
6
BYLAYER
62
256
10
325.209
20
733.623
11
324.888
21
733.171
0
LINE
5
717
8
0
6
BYLAYER
62
256
10
324.888
20
733.171
11
324.515
21
732.765
0
LINE
5
718
8
0
6
BYLAYER
62
256
10
324.515
20
732.765
11
324.093
21
732.408
0
LINE
5
719
8
0
6
BYLAYER
62
256
10
324.093
20
732.408
11
323.629
21
732.107
0
LINE
5
71A
8
0
6
BYLAYER
62
256
10
323.629
20
732.107
11
323.132
21
731.867
0
LINE
5
71B
8
0
6
BYLAYER
62
256
10
323.132
20
731.867
11
322.608
21
731.691
0
LINE
5
71C
8
0
6
BYLAYER
62
256
10
322.608
20
731.691
11
322.067
21
731.581
0
LINE
5
71D
8
0
6
BYLAYER
62
256
10
322.067
20
731.581
11
321.515
21
731.54
0
LINE
5
71E
8
0
6
BYLAYER
62
256
10
321.515
20
731.54
11
320.963
21
731.569
0
LINE
5
71F
8
0
6
BYLAYER
62
256
10
320.963
20
731.569
11
320.419
21
731.668
0
LINE
5
720
8
0
6
BYLAYER
62
256
10
320.419
20
731.668
11
319.893
21
731.832
0
LINE
5
721
8
0
6
BYLAYER
62
256
10
319.893
20
731.832
11
319.39
21
732.064
0
LINE
5
722
8
0
6
BYLAYER
62
256
10
319.39
20
732.064
11
318.921
21
732.354
0
LINE
5
723
8
0
6
BYLAYER
62
256
10
318.921
20
732.354
11
318.492
21
732.701
0
LINE
5
724
8
0
6
BYLAYER
62
256
10
318.492
20
732.701
11
318.109
21
733.101
0
LINE
5
725
8
0
6
BYLAYER
62
256
10
318.109
20
733.101
11
317.779
21
733.544
0
LINE
5
726
8
0
6
BYLAYER
62
256
10
317.779
20
733.544
11
317.508
21
734.026
0
LINE
5
727
8
0
6
BYLAYER
62
256
10
317.508
20
734.026
11
317.299
21
734.538
0
LINE
5
728
8
0
6
BYLAYER
62
256
10
317.299
20
734.538
11
317.156
21
735.071
0
LINE
5
729
8
0
6
BYLAYER
62
256
10
317.156
20
735.071
11
317.081
21
735.618
0
LINE
5
72A
8
0
6
BYLAYER
62
256
10
317.081
20
735.618
11
317.075
21
736.171
0
LINE
5
72B
8
0
6
BYLAYER
62
256
10
323.337
20
244.893
11
323.367
21
245.154
0
LINE
5
72C
8
0
6
BYLAYER
62
256
10
323.367
20
245.154
11
323.429
21
245.411
0
LINE
5
72D
8
0
6
BYLAYER
62
256
10
323.429
20
245.411
11
323.524
21
245.658
0
LINE
5
72E
8
0
6
BYLAYER
62
256
10
323.524
20
245.658
11
323.648
21
245.89
0
LINE
5
72F
8
0
6
BYLAYER
62
256
10
323.648
20
245.89
11
323.801
21
246.104
0
LINE
5
730
8
0
6
BYLAYER
62
256
10
323.801
20
246.104
11
323.98
21
246.298
0
LINE
5
731
8
0
6
BYLAYER
62
256
10
323.98
20
246.298
11
324.181
21
246.469
0
LINE
5
732
8
0
6
BYLAYER
62
256
10
324.181
20
246.469
11
324.402
21
246.612
0
LINE
5
733
8
0
6
BYLAYER
62
256
10
324.402
20
246.612
11
324.64
21
246.726
0
LINE
5
734
8
0
6
BYLAYER
62
256
10
324.64
20
246.726
11
324.89
21
246.812
0
LINE
5
735
8
0
6
BYLAYER
62
256
10
324.89
20
246.812
11
325.148
21
246.863
0
LINE
5
736
8
0
6
BYLAYER
62
256
10
325.148
20
246.863
11
325.411
21
246.882
0
LINE
5
737
8
0
6
BYLAYER
62
256
10
325.411
20
246.882
11
325.674
21
246.869
0
LINE
5
738
8
0
6
BYLAYER
62
256
10
325.674
20
246.869
11
325.935
21
246.822
0
LINE
5
739
8
0
6
BYLAYER
62
256
10
325.935
20
246.822
11
326.186
21
246.743
0
LINE
5
73A
8
0
6
BYLAYER
62
256
10
326.186
20
246.743
11
326.425
21
246.633
0
LINE
5
73B
8
0
6
BYLAYER
62
256
10
326.425
20
246.633
11
326.649
21
246.495
0
LINE
5
73C
8
0
6
BYLAYER
62
256
10
326.649
20
246.495
11
326.855
21
246.329
0
LINE
5
73D
8
0
6
BYLAYER
62
256
10
326.855
20
246.329
11
327.037
21
246.138
0
LINE
5
73E
8
0
6
BYLAYER
62
256
10
327.037
20
246.138
11
327.195
21
245.926
0
LINE
5
73F
8
0
6
BYLAYER
62
256
10
327.195
20
245.926
11
327.323
21
245.697
0
LINE
5
740
8
0
6
BYLAYER
62
256
10
327.323
20
245.697
11
327.424
21
245.453
0
LINE
5
741
8
0
6
BYLAYER
62
256
10
327.424
20
245.453
11
327.492
21
245.198
0
LINE
5
742
8
0
6
BYLAYER
62
256
10
327.492
20
245.198
11
327.528
21
244.936
0
LINE
5
743
8
0
6
BYLAYER
62
256
10
327.528
20
244.936
11
327.531
21
244.673
0
LINE
5
744
8
0
6
BYLAYER
62
256
10
327.531
20
244.673
11
327.5
21
244.411
0
LINE
5
745
8
0
6
BYLAYER
62
256
10
327.5
20
244.411
11
327.437
21
244.155
0
LINE
5
746
8
0
6
BYLAYER
62
256
10
327.437
20
244.155
11
327.343
21
243.908
0
LINE
5
747
8
0
6
BYLAYER
62
256
10
327.343
20
243.908
11
327.218
21
243.676
0
LINE
5
748
8
0
6
BYLAYER
62
256
10
327.218
20
243.676
11
327.065
21
243.461
0
LINE
5
749
8
0
6
BYLAYER
62
256
10
327.065
20
243.461
11
326.887
21
243.267
0
LINE
5
74A
8
0
6
BYLAYER
62
256
10
326.887
20
243.267
11
326.685
21
243.096
0
LINE
5
74B
8
0
6
BYLAYER
62
256
10
326.685
20
243.096
11
326.464
21
242.953
0
LINE
5
74C
8
0
6
BYLAYER
62
256
10
326.464
20
242.953
11
326.226
21
242.839
0
LINE
5
74D
8
0
6
BYLAYER
62
256
10
326.226
20
242.839
11
325.977
21
242.754
0
LINE
5
74E
8
0
6
BYLAYER
62
256
10
325.977
20
242.754
11
325.718
21
242.703
0
LINE
5
74F
8
0
6
BYLAYER
62
256
10
325.718
20
242.703
11
325.455
21
242.682
0
LINE
5
750
8
0
6
BYLAYER
62
256
10
325.455
20
242.682
11
325.192
21
242.696
0
LINE
5
751
8
0
6
BYLAYER
62
256
10
325.192
20
242.696
11
324.932
21
242.743
0
LINE
5
752
8
0
6
BYLAYER
62
256
10
324.932
20
242.743
11
324.68
21
242.822
0
LINE
5
753
8
0
6
BYLAYER
62
256
10
324.68
20
242.822
11
324.441
21
242.932
0
LINE
5
754
8
0
6
BYLAYER
62
256
10
324.441
20
242.932
11
324.217
21
243.07
0
LINE
5
755
8
0
6
BYLAYER
62
256
10
324.217
20
243.07
11
324.012
21
243.237
0
LINE
5
756
8
0
6
BYLAYER
62
256
10
324.012
20
243.237
11
323.829
21
243.427
0
LINE
5
757
8
0
6
BYLAYER
62
256
10
323.829
20
243.427
11
323.673
21
243.639
0
LINE
5
758
8
0
6
BYLAYER
62
256
10
323.673
20
243.639
11
323.543
21
243.868
0
LINE
5
759
8
0
6
BYLAYER
62
256
10
323.543
20
243.868
11
323.442
21
244.113
0
LINE
5
75A
8
0
6
BYLAYER
62
256
10
323.442
20
244.113
11
323.374
21
244.367
0
LINE
5
75B
8
0
6
BYLAYER
62
256
10
323.374
20
244.367
11
323.338
21
244.63
0
LINE
5
75C
8
0
6
BYLAYER
62
256
10
323.338
20
244.63
11
323.337
21
244.893
0
LINE
5
75D
8
0
6
BYLAYER
62
256
10
323.337
20
674.893
11
323.367
21
675.154
0
LINE
5
75E
8
0
6
BYLAYER
62
256
10
323.367
20
675.154
11
323.429
21
675.411
0
LINE
5
75F
8
0
6
BYLAYER
62
256
10
323.429
20
675.411
11
323.524
21
675.658
0
LINE
5
760
8
0
6
BYLAYER
62
256
10
323.524
20
675.658
11
323.648
21
675.89
0
LINE
5
761
8
0
6
BYLAYER
62
256
10
323.648
20
675.89
11
323.801
21
676.104
0
LINE
5
762
8
0
6
BYLAYER
62
256
10
323.801
20
676.104
11
323.98
21
676.298
0
LINE
5
763
8
0
6
BYLAYER
62
256
10
323.98
20
676.298
11
324.181
21
676.469
0
LINE
5
764
8
0
6
BYLAYER
62
256
10
324.181
20
676.469
11
324.402
21
676.612
0
LINE
5
765
8
0
6
BYLAYER
62
256
10
324.402
20
676.612
11
324.64
21
676.726
0
LINE
5
766
8
0
6
BYLAYER
62
256
10
324.64
20
676.726
11
324.89
21
676.812
0
LINE
5
767
8
0
6
BYLAYER
62
256
10
324.89
20
676.812
11
325.148
21
676.863
0
LINE
5
768
8
0
6
BYLAYER
62
256
10
325.148
20
676.863
11
325.411
21
676.882
0
LINE
5
769
8
0
6
BYLAYER
62
256
10
325.411
20
676.882
11
325.674
21
676.869
0
LINE
5
76A
8
0
6
BYLAYER
62
256
10
325.674
20
676.869
11
325.935
21
676.822
0
LINE
5
76B
8
0
6
BYLAYER
62
256
10
325.935
20
676.822
11
326.186
21
676.743
0
LINE
5
76C
8
0
6
BYLAYER
62
256
10
326.186
20
676.743
11
326.425
21
676.633
0
LINE
5
76D
8
0
6
BYLAYER
62
256
10
326.425
20
676.633
11
326.649
21
676.495
0
LINE
5
76E
8
0
6
BYLAYER
62
256
10
326.649
20
676.495
11
326.855
21
676.329
0
LINE
5
76F
8
0
6
BYLAYER
62
256
10
326.855
20
676.329
11
327.037
21
676.138
0
LINE
5
770
8
0
6
BYLAYER
62
256
10
327.037
20
676.138
11
327.195
21
675.926
0
LINE
5
771
8
0
6
BYLAYER
62
256
10
327.195
20
675.926
11
327.323
21
675.697
0
LINE
5
772
8
0
6
BYLAYER
62
256
10
327.323
20
675.697
11
327.424
21
675.453
0
LINE
5
773
8
0
6
BYLAYER
62
256
10
327.424
20
675.453
11
327.492
21
675.198
0
LINE
5
774
8
0
6
BYLAYER
62
256
10
327.492
20
675.198
11
327.528
21
674.936
0
LINE
5
775
8
0
6
BYLAYER
62
256
10
327.528
20
674.936
11
327.531
21
674.673
0
LINE
5
776
8
0
6
BYLAYER
62
256
10
327.531
20
674.673
11
327.5
21
674.411
0
LINE
5
777
8
0
6
BYLAYER
62
256
10
327.5
20
674.411
11
327.437
21
674.155
0
LINE
5
778
8
0
6
BYLAYER
62
256
10
327.437
20
674.155
11
327.343
21
673.908
0
LINE
5
779
8
0
6
BYLAYER
62
256
10
327.343
20
673.908
11
327.218
21
673.676
0
LINE
5
77A
8
0
6
BYLAYER
62
256
10
327.218
20
673.676
11
327.065
21
673.461
0
LINE
5
77B
8
0
6
BYLAYER
62
256
10
327.065
20
673.461
11
326.887
21
673.267
0
LINE
5
77C
8
0
6
BYLAYER
62
256
10
326.887
20
673.267
11
326.685
21
673.096
0
LINE
5
77D
8
0
6
BYLAYER
62
256
10
326.685
20
673.096
11
326.464
21
672.953
0
LINE
5
77E
8
0
6
BYLAYER
62
256
10
326.464
20
672.953
11
326.226
21
672.839
0
LINE
5
77F
8
0
6
BYLAYER
62
256
10
326.226
20
672.839
11
325.977
21
672.754
0
LINE
5
780
8
0
6
BYLAYER
62
256
10
325.977
20
672.754
11
325.718
21
672.703
0
LINE
5
781
8
0
6
BYLAYER
62
256
10
325.718
20
672.703
11
325.455
21
672.682
0
LINE
5
782
8
0
6
BYLAYER
62
256
10
325.455
20
672.682
11
325.192
21
672.696
0
LINE
5
783
8
0
6
BYLAYER
62
256
10
325.192
20
672.696
11
324.932
21
672.743
0
LINE
5
784
8
0
6
BYLAYER
62
256
10
324.932
20
672.743
11
324.68
21
672.822
0
LINE
5
785
8
0
6
BYLAYER
62
256
10
324.68
20
672.822
11
324.441
21
672.932
0
LINE
5
786
8
0
6
BYLAYER
62
256
10
324.441
20
672.932
11
324.217
21
673.07
0
LINE
5
787
8
0
6
BYLAYER
62
256
10
324.217
20
673.07
11
324.012
21
673.237
0
LINE
5
788
8
0
6
BYLAYER
62
256
10
324.012
20
673.237
11
323.829
21
673.427
0
LINE
5
789
8
0
6
BYLAYER
62
256
10
323.829
20
673.427
11
323.673
21
673.639
0
LINE
5
78A
8
0
6
BYLAYER
62
256
10
323.673
20
673.639
11
323.543
21
673.868
0
LINE
5
78B
8
0
6
BYLAYER
62
256
10
323.543
20
673.868
11
323.442
21
674.113
0
LINE
5
78C
8
0
6
BYLAYER
62
256
10
323.442
20
674.113
11
323.374
21
674.367
0
LINE
5
78D
8
0
6
BYLAYER
62
256
10
323.374
20
674.367
11
323.338
21
674.63
0
LINE
5
78E
8
0
6
BYLAYER
62
256
10
323.338
20
674.63
11
323.337
21
674.893
0
LINE
5
78F
8
0
6
BYLAYER
62
256
10
325.527
20
295.2
11
351.656
21
302.201
0
LINE
5
790
8
0
6
BYLAYER
62
256
10
351.656
20
302.201
11
361.297
21
266.22
0
LINE
5
791
8
0
6
BYLAYER
62
256
10
361.297
20
266.22
11
335.169
21
259.219
0
LINE
5
792
8
0
6
BYLAYER
62
256
10
335.169
20
259.219
11
325.527
21
295.2
0
LINE
5
793
8
0
6
BYLAYER
62
256
10
325.527
20
725.2
11
351.656
21
732.201
0
LINE
5
794
8
0
6
BYLAYER
62
256
10
351.656
20
732.201
11
361.297
21
696.22
0
LINE
5
795
8
0
6
BYLAYER
62
256
10
361.297
20
696.22
11
335.169
21
689.219
0
LINE
5
796
8
0
6
BYLAYER
62
256
10
335.169
20
689.219
11
325.527
21
725.2
0
LINE
5
797
8
0
6
BYLAYER
62
256
10
332.63
20
248.119
11
332.694
21
248.668
0
LINE
5
798
8
0
6
BYLAYER
62
256
10
332.694
20
248.668
11
332.825
21
249.205
0
LINE
5
799
8
0
6
BYLAYER
62
256
10
332.825
20
249.205
11
333.024
21
249.721
0
LINE
5
79A
8
0
6
BYLAYER
62
256
10
333.024
20
249.721
11
333.285
21
250.206
0
LINE
5
79B
8
0
6
BYLAYER
62
256
10
333.285
20
250.206
11
333.605
21
250.658
0
LINE
5
79C
8
0
6
BYLAYER
62
256
10
333.605
20
250.658
11
333.979
21
251.064
0
LINE
5
79D
8
0
6
BYLAYER
62
256
10
333.979
20
251.064
11
334.4
21
251.421
0
LINE
5
79E
8
0
6
BYLAYER
62
256
10
334.4
20
251.421
11
334.864
21
251.722
0
LINE
5
79F
8
0
6
BYLAYER
62
256
10
334.864
20
251.722
11
335.362
21
251.962
0
LINE
5
7A0
8
0
6
BYLAYER
62
256
10
335.362
20
251.962
11
335.886
21
252.138
0
LINE
5
7A1
8
0
6
BYLAYER
62
256
10
335.886
20
252.138
11
336.427
21
252.248
0
LINE
5
7A2
8
0
6
BYLAYER
62
256
10
336.427
20
252.248
11
336.978
21
252.288
0
LINE
5
7A3
8
0
6
BYLAYER
62
256
10
336.978
20
252.288
11
337.53
21
252.259
0
LINE
5
7A4
8
0
6
BYLAYER
62
256
10
337.53
20
252.259
11
338.074
21
252.162
0
LINE
5
7A5
8
0
6
BYLAYER
62
256
10
338.074
20
252.162
11
338.6
21
251.996
0
LINE
5
7A6
8
0
6
BYLAYER
62
256
10
338.6
20
251.996
11
339.104
21
251.766
0
LINE
5
7A7
8
0
6
BYLAYER
62
256
10
339.104
20
251.766
11
339.573
21
251.475
0
LINE
5
7A8
8
0
6
BYLAYER
62
256
10
339.573
20
251.475
11
340.002
21
251.128
0
LINE
5
7A9
8
0
6
BYLAYER
62
256
10
340.002
20
251.128
11
340.384
21
250.728
0
LINE
5
7AA
8
0
6
BYLAYER
62
256
10
340.384
20
250.728
11
340.715
21
250.285
0
LINE
5
7AB
8
0
6
BYLAYER
62
256
10
340.715
20
250.285
11
340.986
21
249.803
0
LINE
5
7AC
8
0
6
BYLAYER
62
256
10
340.986
20
249.803
11
341.195
21
249.291
0
LINE
5
7AD
8
0
6
BYLAYER
62
256
10
341.195
20
249.291
11
341.338
21
248.758
0
LINE
5
7AE
8
0
6
BYLAYER
62
256
10
341.338
20
248.758
11
341.413
21
248.211
0
LINE
5
7AF
8
0
6
BYLAYER
62
256
10
341.413
20
248.211
11
341.418
21
247.658
0
LINE
5
7B0
8
0
6
BYLAYER
62
256
10
341.418
20
247.658
11
341.355
21
247.109
0
LINE
5
7B1
8
0
6
BYLAYER
62
256
10
341.355
20
247.109
11
341.223
21
246.572
0
LINE
5
7B2
8
0
6
BYLAYER
62
256
10
341.223
20
246.572
11
341.024
21
246.056
0
LINE
5
7B3
8
0
6
BYLAYER
62
256
10
341.024
20
246.056
11
340.763
21
245.571
0
LINE
5
7B4
8
0
6
BYLAYER
62
256
10
340.763
20
245.571
11
340.443
21
245.119
0
LINE
5
7B5
8
0
6
BYLAYER
62
256
10
340.443
20
245.119
11
340.07
21
244.713
0
LINE
5
7B6
8
0
6
BYLAYER
62
256
10
340.07
20
244.713
11
339.648
21
244.356
0
LINE
5
7B7
8
0
6
BYLAYER
62
256
10
339.648
20
244.356
11
339.184
21
244.055
0
LINE
5
7B8
8
0
6
BYLAYER
62
256
10
339.184
20
244.055
11
338.687
21
243.815
0
LINE
5
7B9
8
0
6
BYLAYER
62
256
10
338.687
20
243.815
11
338.163
21
243.638
0
LINE
5
7BA
8
0
6
BYLAYER
62
256
10
338.163
20
243.638
11
337.622
21
243.529
0
LINE
5
7BB
8
0
6
BYLAYER
62
256
10
337.622
20
243.529
11
337.07
21
243.488
0
LINE
5
7BC
8
0
6
BYLAYER
62
256
10
337.07
20
243.488
11
336.518
21
243.517
0
LINE
5
7BD
8
0
6
BYLAYER
62
256
10
336.518
20
243.517
11
335.974
21
243.616
0
LINE
5
7BE
8
0
6
BYLAYER
62
256
10
335.974
20
243.616
11
335.447
21
243.78
0
LINE
5
7BF
8
0
6
BYLAYER
62
256
10
335.447
20
243.78
11
334.945
21
244.012
0
LINE
5
7C0
8
0
6
BYLAYER
62
256
10
334.945
20
244.012
11
334.476
21
244.302
0
LINE
5
7C1
8
0
6
BYLAYER
62
256
10
334.476
20
244.302
11
334.047
21
244.649
0
LINE
5
7C2
8
0
6
BYLAYER
62
256
10
334.047
20
244.649
11
333.664
21
245.049
0
LINE
5
7C3
8
0
6
BYLAYER
62
256
10
333.664
20
245.049
11
333.334
21
245.492
0
LINE
5
7C4
8
0
6
BYLAYER
62
256
10
333.334
20
245.492
11
333.063
21
245.974
0
LINE
5
7C5
8
0
6
BYLAYER
62
256
10
333.063
20
245.974
11
332.854
21
246.485
0
LINE
5
7C6
8
0
6
BYLAYER
62
256
10
332.854
20
246.485
11
332.712
21
247.018
0
LINE
5
7C7
8
0
6
BYLAYER
62
256
10
332.712
20
247.018
11
332.636
21
247.566
0
LINE
5
7C8
8
0
6
BYLAYER
62
256
10
332.636
20
247.566
11
332.63
21
248.119
0
LINE
5
7C9
8
0
6
BYLAYER
62
256
10
332.63
20
678.119
11
332.694
21
678.668
0
LINE
5
7CA
8
0
6
BYLAYER
62
256
10
332.694
20
678.668
11
332.825
21
679.205
0
LINE
5
7CB
8
0
6
BYLAYER
62
256
10
332.825
20
679.205
11
333.024
21
679.721
0
LINE
5
7CC
8
0
6
BYLAYER
62
256
10
333.024
20
679.721
11
333.285
21
680.206
0
LINE
5
7CD
8
0
6
BYLAYER
62
256
10
333.285
20
680.206
11
333.605
21
680.658
0
LINE
5
7CE
8
0
6
BYLAYER
62
256
10
333.605
20
680.658
11
333.979
21
681.064
0
LINE
5
7CF
8
0
6
BYLAYER
62
256
10
333.979
20
681.064
11
334.4
21
681.421
0
LINE
5
7D0
8
0
6
BYLAYER
62
256
10
334.4
20
681.421
11
334.864
21
681.722
0
LINE
5
7D1
8
0
6
BYLAYER
62
256
10
334.864
20
681.722
11
335.362
21
681.962
0
LINE
5
7D2
8
0
6
BYLAYER
62
256
10
335.362
20
681.962
11
335.886
21
682.138
0
LINE
5
7D3
8
0
6
BYLAYER
62
256
10
335.886
20
682.138
11
336.427
21
682.248
0
LINE
5
7D4
8
0
6
BYLAYER
62
256
10
336.427
20
682.248
11
336.978
21
682.288
0
LINE
5
7D5
8
0
6
BYLAYER
62
256
10
336.978
20
682.288
11
337.53
21
682.259
0
LINE
5
7D6
8
0
6
BYLAYER
62
256
10
337.53
20
682.259
11
338.074
21
682.162
0
LINE
5
7D7
8
0
6
BYLAYER
62
256
10
338.074
20
682.162
11
338.6
21
681.996
0
LINE
5
7D8
8
0
6
BYLAYER
62
256
10
338.6
20
681.996
11
339.104
21
681.766
0
LINE
5
7D9
8
0
6
BYLAYER
62
256
10
339.104
20
681.766
11
339.573
21
681.475
0
LINE
5
7DA
8
0
6
BYLAYER
62
256
10
339.573
20
681.475
11
340.002
21
681.128
0
LINE
5
7DB
8
0
6
BYLAYER
62
256
10
340.002
20
681.128
11
340.384
21
680.728
0
LINE
5
7DC
8
0
6
BYLAYER
62
256
10
340.384
20
680.728
11
340.715
21
680.285
0
LINE
5
7DD
8
0
6
BYLAYER
62
256
10
340.715
20
680.285
11
340.986
21
679.803
0
LINE
5
7DE
8
0
6
BYLAYER
62
256
10
340.986
20
679.803
11
341.195
21
679.291
0
LINE
5
7DF
8
0
6
BYLAYER
62
256
10
341.195
20
679.291
11
341.338
21
678.758
0
LINE
5
7E0
8
0
6
BYLAYER
62
256
10
341.338
20
678.758
11
341.413
21
678.211
0
LINE
5
7E1
8
0
6
BYLAYER
62
256
10
341.413
20
678.211
11
341.418
21
677.658
0
LINE
5
7E2
8
0
6
BYLAYER
62
256
10
341.418
20
677.658
11
341.355
21
677.109
0
LINE
5
7E3
8
0
6
BYLAYER
62
256
10
341.355
20
677.109
11
341.223
21
676.572
0
LINE
5
7E4
8
0
6
BYLAYER
62
256
10
341.223
20
676.572
11
341.024
21
676.056
0
LINE
5
7E5
8
0
6
BYLAYER
62
256
10
341.024
20
676.056
11
340.763
21
675.571
0
LINE
5
7E6
8
0
6
BYLAYER
62
256
10
340.763
20
675.571
11
340.443
21
675.119
0
LINE
5
7E7
8
0
6
BYLAYER
62
256
10
340.443
20
675.119
11
340.07
21
674.713
0
LINE
5
7E8
8
0
6
BYLAYER
62
256
10
340.07
20
674.713
11
339.648
21
674.356
0
LINE
5
7E9
8
0
6
BYLAYER
62
256
10
339.648
20
674.356
11
339.184
21
674.055
0
LINE
5
7EA
8
0
6
BYLAYER
62
256
10
339.184
20
674.055
11
338.687
21
673.815
0
LINE
5
7EB
8
0
6
BYLAYER
62
256
10
338.687
20
673.815
11
338.163
21
673.638
0
LINE
5
7EC
8
0
6
BYLAYER
62
256
10
338.163
20
673.638
11
337.622
21
673.529
0
LINE
5
7ED
8
0
6
BYLAYER
62
256
10
337.622
20
673.529
11
337.07
21
673.488
0
LINE
5
7EE
8
0
6
BYLAYER
62
256
10
337.07
20
673.488
11
336.518
21
673.517
0
LINE
5
7EF
8
0
6
BYLAYER
62
256
10
336.518
20
673.517
11
335.974
21
673.616
0
LINE
5
7F0
8
0
6
BYLAYER
62
256
10
335.974
20
673.616
11
335.447
21
673.78
0
LINE
5
7F1
8
0
6
BYLAYER
62
256
10
335.447
20
673.78
11
334.945
21
674.012
0
LINE
5
7F2
8
0
6
BYLAYER
62
256
10
334.945
20
674.012
11
334.476
21
674.302
0
LINE
5
7F3
8
0
6
BYLAYER
62
256
10
334.476
20
674.302
11
334.047
21
674.649
0
LINE
5
7F4
8
0
6
BYLAYER
62
256
10
334.047
20
674.649
11
333.664
21
675.049
0
LINE
5
7F5
8
0
6
BYLAYER
62
256
10
333.664
20
675.049
11
333.334
21
675.492
0
LINE
5
7F6
8
0
6
BYLAYER
62
256
10
333.334
20
675.492
11
333.063
21
675.974
0
LINE
5
7F7
8
0
6
BYLAYER
62
256
10
333.063
20
675.974
11
332.854
21
676.485
0
LINE
5
7F8
8
0
6
BYLAYER
62
256
10
332.854
20
676.485
11
332.712
21
677.018
0
LINE
5
7F9
8
0
6
BYLAYER
62
256
10
332.712
20
677.018
11
332.636
21
677.566
0
LINE
5
7FA
8
0
6
BYLAYER
62
256
10
332.636
20
677.566
11
332.63
21
678.119
0
LINE
5
7FB
8
0
6
BYLAYER
62
256
10
347.75
20
1059.53
11
348.409
21
1061.12
0
LINE
5
7FC
8
0
6
BYLAYER
62
256
10
348.409
20
1061.12
11
350
21
1061.78
0
LINE
5
7FD
8
0
6
BYLAYER
62
256
10
350
20
1061.78
11
351.591
21
1061.12
0
LINE
5
7FE
8
0
6
BYLAYER
62
256
10
351.591
20
1061.12
11
352.25
21
1059.53
0
LINE
5
7FF
8
0
6
BYLAYER
62
256
10
352.25
20
1059.53
11
351.591
21
1057.93
0
LINE
5
800
8
0
6
BYLAYER
62
256
10
351.591
20
1057.93
11
350
21
1057.28
0
LINE
5
801
8
0
6
BYLAYER
62
256
10
350
20
1057.28
11
348.409
21
1057.93
0
LINE
5
802
8
0
6
BYLAYER
62
256
10
348.409
20
1057.93
11
347.75
21
1059.53
0
LINE
5
803
8
0
6
BYLAYER
62
256
10
347.75
20
1489.53
11
348.409
21
1491.12
0
LINE
5
804
8
0
6
BYLAYER
62
256
10
348.409
20
1491.12
11
350
21
1491.78
0
LINE
5
805
8
0
6
BYLAYER
62
256
10
350
20
1491.78
11
351.591
21
1491.12
0
LINE
5
806
8
0
6
BYLAYER
62
256
10
351.591
20
1491.12
11
352.25
21
1489.53
0
LINE
5
807
8
0
6
BYLAYER
62
256
10
352.25
20
1489.53
11
351.591
21
1487.93
0
LINE
5
808
8
0
6
BYLAYER
62
256
10
351.591
20
1487.93
11
350
21
1487.28
0
LINE
5
809
8
0
6
BYLAYER
62
256
10
350
20
1487.28
11
348.409
21
1487.93
0
LINE
5
80A
8
0
6
BYLAYER
62
256
10
348.409
20
1487.93
11
347.75
21
1489.53
0
LINE
5
80B
8
0
6
BYLAYER
62
256
10
430
20
468.101
11
430
21
494.35
0
LINE
5
80C
8
0
6
BYLAYER
62
256
10
430
20
494.35
11
449.05
21
494.351
0
LINE
5
80D
8
0
6
BYLAYER
62
256
10
449.05
20
494.351
11
449.05
21
573.101
0
LINE
5
80E
8
0
6
BYLAYER
62
256
10
449.05
20
573.101
11
430
21
573.1
0
LINE
5
80F
8
0
6
BYLAYER
62
256
10
430
20
573.1
11
430
21
599.351
0
LINE
5
810
8
0
6
BYLAYER
62
256
10
430
20
599.351
11
449.05
21
599.35
0
LINE
5
811
8
0
6
BYLAYER
62
256
10
449.05
20
599.35
11
449.05
21
678.101
0
LINE
5
812
8
0
6
BYLAYER
62
256
10
449.05
20
678.101
11
430
21
678.1
0
LINE
5
813
8
0
6
BYLAYER
62
256
10
430
20
678.1
11
430
21
704.351
0
LINE
5
814
8
0
6
BYLAYER
62
256
10
430
20
704.351
11
449.05
21
704.35
0
LINE
5
815
8
0
6
BYLAYER
62
256
10
449.05
20
704.35
11
449.05
21
783.1
0
LINE
5
816
8
0
6
BYLAYER
62
256
10
449.05
20
783.1
11
430
21
783.1
0
LINE
5
817
8
0
6
BYLAYER
62
256
10
430
20
783.1
11
430
21
809.35
0
LINE
5
818
8
0
6
BYLAYER
62
256
10
430
20
809.35
11
449.049
21
809.35
0
LINE
5
819
8
0
6
BYLAYER
62
256
10
449.049
20
809.35
11
449.05
21
830.95
0
LINE
5
81A
8
0
6
BYLAYER
62
256
10
449.05
20
830.95
11
468.099
21
830.95
0
LINE
5
81B
8
0
6
BYLAYER
62
256
10
468.099
20
830.95
11
468.1
21
850
0
LINE
5
81C
8
0
6
BYLAYER
62
256
10
468.1
20
850
11
494.349
21
850
0
LINE
5
81D
8
0
6
BYLAYER
62
256
10
494.349
20
850
11
494.35
21
830.95
0
LINE
5
81E
8
0
6
BYLAYER
62
256
10
494.35
20
830.95
11
573.1
21
830.95
0
LINE
5
81F
8
0
6
BYLAYER
62
256
10
573.1
20
830.95
11
573.1
21
850
0
LINE
5
820
8
0
6
BYLAYER
62
256
10
573.1
20
850
11
599.35
21
850
0
LINE
5
821
8
0
6
BYLAYER
62
256
10
599.35
20
850
11
599.349
21
830.95
0
LINE
5
822
8
0
6
BYLAYER
62
256
10
599.349
20
830.95
11
678.1
21
830.95
0
LINE
5
823
8
0
6
BYLAYER
62
256
10
678.1
20
830.95
11
678.099
21
850
0
LINE
5
824
8
0
6
BYLAYER
62
256
10
678.099
20
850
11
704.35
21
850
0
LINE
5
825
8
0
6
BYLAYER
62
256
10
704.35
20
850
11
704.349
21
830.95
0
LINE
5
826
8
0
6
BYLAYER
62
256
10
704.349
20
830.95
11
783.1
21
830.95
0
LINE
5
827
8
0
6
BYLAYER
62
256
10
783.1
20
830.95
11
783.1
21
850
0
LINE
5
828
8
0
6
BYLAYER
62
256
10
783.1
20
850
11
809.35
21
850
0
LINE
5
829
8
0
6
BYLAYER
62
256
10
809.35
20
850
11
809.35
21
830.951
0
LINE
5
82A
8
0
6
BYLAYER
62
256
10
809.35
20
830.951
11
830.95
21
830.95
0
LINE
5
82B
8
0
6
BYLAYER
62
256
10
830.95
20
830.95
11
830.95
21
811.901
0
LINE
5
82C
8
0
6
BYLAYER
62
256
10
830.95
20
811.901
11
850
21
811.9
0
LINE
5
82D
8
0
6
BYLAYER
62
256
10
850
20
811.9
11
850
21
785.651
0
LINE
5
82E
8
0
6
BYLAYER
62
256
10
850
20
785.651
11
830.95
21
785.65
0
LINE
5
82F
8
0
6
BYLAYER
62
256
10
830.95
20
785.65
11
830.95
21
706.9
0
LINE
5
830
8
0
6
BYLAYER
62
256
10
830.95
20
706.9
11
850
21
706.9
0
LINE
5
831
8
0
6
BYLAYER
62
256
10
850
20
706.9
11
850
21
680.65
0
LINE
5
832
8
0
6
BYLAYER
62
256
10
850
20
680.65
11
830.95
21
680.651
0
LINE
5
833
8
0
6
BYLAYER
62
256
10
830.95
20
680.651
11
830.95
21
650.951
0
LINE
5
834
8
0
6
BYLAYER
62
256
10
830.95
20
650.951
11
629.049
21
449.05
0
LINE
5
835
8
0
6
BYLAYER
62
256
10
629.049
20
449.05
11
601.899
21
449.05
0
LINE
5
836
8
0
6
BYLAYER
62
256
10
601.899
20
449.05
11
601.9
21
430
0
LINE
5
837
8
0
6
BYLAYER
62
256
10
601.9
20
430
11
575.649
21
430
0
LINE
5
838
8
0
6
BYLAYER
62
256
10
575.649
20
430
11
575.65
21
449.05
0
LINE
5
839
8
0
6
BYLAYER
62
256
10
575.65
20
449.05
11
496.9
21
449.05
0
LINE
5
83A
8
0
6
BYLAYER
62
256
10
496.9
20
449.05
11
496.9
21
430.001
0
LINE
5
83B
8
0
6
BYLAYER
62
256
10
496.9
20
430.001
11
470.65
21
430
0
LINE
5
83C
8
0
6
BYLAYER
62
256
10
470.65
20
430
11
470.65
21
449.05
0
LINE
5
83D
8
0
6
BYLAYER
62
256
10
470.65
20
449.05
11
449.05
21
449.05
0
LINE
5
83E
8
0
6
BYLAYER
62
256
10
449.05
20
449.05
11
449.05
21
468.1
0
LINE
5
83F
8
0
6
BYLAYER
62
256
10
449.05
20
468.1
11
430
21
468.101
0
LINE
5
840
8
0
6
BYLAYER
62
256
10
447.75
20
1030.47
11
448.409
21
1032.07
0
LINE
5
841
8
0
6
BYLAYER
62
256
10
448.409
20
1032.07
11
450
21
1032.72
0
LINE
5
842
8
0
6
BYLAYER
62
256
10
450
20
1032.72
11
451.591
21
1032.07
0
LINE
5
843
8
0
6
BYLAYER
62
256
10
451.591
20
1032.07
11
452.25
21
1030.47
0
LINE
5
844
8
0
6
BYLAYER
62
256
10
452.25
20
1030.47
11
451.591
21
1028.88
0
LINE
5
845
8
0
6
BYLAYER
62
256
10
451.591
20
1028.88
11
450
21
1028.22
0
LINE
5
846
8
0
6
BYLAYER
62
256
10
450
20
1028.22
11
448.409
21
1028.88
0
LINE
5
847
8
0
6
BYLAYER
62
256
10
448.409
20
1028.88
11
447.75
21
1030.47
0
LINE
5
848
8
0
6
BYLAYER
62
256
10
447.75
20
1460.48
11
448.409
21
1462.07
0
LINE
5
849
8
0
6
BYLAYER
62
256
10
448.409
20
1462.07
11
450
21
1462.73
0
LINE
5
84A
8
0
6
BYLAYER
62
256
10
450
20
1462.73
11
451.591
21
1462.07
0
LINE
5
84B
8
0
6
BYLAYER
62
256
10
451.591
20
1462.07
11
452.25
21
1460.48
0
LINE
5
84C
8
0
6
BYLAYER
62
256
10
452.25
20
1460.48
11
451.591
21
1458.88
0
LINE
5
84D
8
0
6
BYLAYER
62
256
10
451.591
20
1458.88
11
450
21
1458.23
0
LINE
5
84E
8
0
6
BYLAYER
62
256
10
450
20
1458.23
11
448.409
21
1458.88
0
LINE
5
84F
8
0
6
BYLAYER
62
256
10
448.409
20
1458.88
11
447.75
21
1460.48
0
LINE
5
850
8
0
6
BYLAYER
62
256
10
447.75
20
1890.48
11
448.409
21
1892.07
0
LINE
5
851
8
0
6
BYLAYER
62
256
10
448.409
20
1892.07
11
450
21
1892.73
0
LINE
5
852
8
0
6
BYLAYER
62
256
10
450
20
1892.73
11
451.591
21
1892.07
0
LINE
5
853
8
0
6
BYLAYER
62
256
10
451.591
20
1892.07
11
452.25
21
1890.48
0
LINE
5
854
8
0
6
BYLAYER
62
256
10
452.25
20
1890.48
11
451.591
21
1888.88
0
LINE
5
855
8
0
6
BYLAYER
62
256
10
451.591
20
1888.88
11
450
21
1888.23
0
LINE
5
856
8
0
6
BYLAYER
62
256
10
450
20
1888.23
11
448.409
21
1888.88
0
LINE
5
857
8
0
6
BYLAYER
62
256
10
448.409
20
1888.88
11
447.75
21
1890.48
0
LINE
5
858
8
0
6
BYLAYER
62
256
10
547.75
20
1059.53
11
548.409
21
1061.12
0
LINE
5
859
8
0
6
BYLAYER
62
256
10
548.409
20
1061.12
11
550
21
1061.78
0
LINE
5
85A
8
0
6
BYLAYER
62
256
10
550
20
1061.78
11
551.591
21
1061.12
0
LINE
5
85B
8
0
6
BYLAYER
62
256
10
551.591
20
1061.12
11
552.25
21
1059.53
0
LINE
5
85C
8
0
6
BYLAYER
62
256
10
552.25
20
1059.53
11
551.591
21
1057.93
0
LINE
5
85D
8
0
6
BYLAYER
62
256
10
551.591
20
1057.93
11
550
21
1057.28
0
LINE
5
85E
8
0
6
BYLAYER
62
256
10
550
20
1057.28
11
548.409
21
1057.93
0
LINE
5
85F
8
0
6
BYLAYER
62
256
10
548.409
20
1057.93
11
547.75
21
1059.53
0
LINE
5
860
8
0
6
BYLAYER
62
256
10
547.75
20
1489.53
11
548.409
21
1491.12
0
LINE
5
861
8
0
6
BYLAYER
62
256
10
548.409
20
1491.12
11
550
21
1491.78
0
LINE
5
862
8
0
6
BYLAYER
62
256
10
550
20
1491.78
11
551.591
21
1491.12
0
LINE
5
863
8
0
6
BYLAYER
62
256
10
551.591
20
1491.12
11
552.25
21
1489.53
0
LINE
5
864
8
0
6
BYLAYER
62
256
10
552.25
20
1489.53
11
551.591
21
1487.93
0
LINE
5
865
8
0
6
BYLAYER
62
256
10
551.591
20
1487.93
11
550
21
1487.28
0
LINE
5
866
8
0
6
BYLAYER
62
256
10
550
20
1487.28
11
548.409
21
1487.93
0
LINE
5
867
8
0
6
BYLAYER
62
256
10
548.409
20
1487.93
11
547.75
21
1489.53
0
LINE
5
868
8
0
6
BYLAYER
62
256
10
647.75
20
1030.47
11
648.409
21
1032.07
0
LINE
5
869
8
0
6
BYLAYER
62
256
10
648.409
20
1032.07
11
650
21
1032.72
0
LINE
5
86A
8
0
6
BYLAYER
62
256
10
650
20
1032.72
11
651.591
21
1032.07
0
LINE
5
86B
8
0
6
BYLAYER
62
256
10
651.591
20
1032.07
11
652.25
21
1030.47
0
LINE
5
86C
8
0
6
BYLAYER
62
256
10
652.25
20
1030.47
11
651.591
21
1028.88
0
LINE
5
86D
8
0
6
BYLAYER
62
256
10
651.591
20
1028.88
11
650
21
1028.22
0
LINE
5
86E
8
0
6
BYLAYER
62
256
10
650
20
1028.22
11
648.409
21
1028.88
0
LINE
5
86F
8
0
6
BYLAYER
62
256
10
648.409
20
1028.88
11
647.75
21
1030.47
0
LINE
5
870
8
0
6
BYLAYER
62
256
10
647.75
20
1460.48
11
648.409
21
1462.07
0
LINE
5
871
8
0
6
BYLAYER
62
256
10
648.409
20
1462.07
11
650
21
1462.73
0
LINE
5
872
8
0
6
BYLAYER
62
256
10
650
20
1462.73
11
651.591
21
1462.07
0
LINE
5
873
8
0
6
BYLAYER
62
256
10
651.591
20
1462.07
11
652.25
21
1460.48
0
LINE
5
874
8
0
6
BYLAYER
62
256
10
652.25
20
1460.48
11
651.591
21
1458.88
0
LINE
5
875
8
0
6
BYLAYER
62
256
10
651.591
20
1458.88
11
650
21
1458.23
0
LINE
5
876
8
0
6
BYLAYER
62
256
10
650
20
1458.23
11
648.409
21
1458.88
0
LINE
5
877
8
0
6
BYLAYER
62
256
10
648.409
20
1458.88
11
647.75
21
1460.48
0
LINE
5
878
8
0
6
BYLAYER
62
256
10
647.75
20
1890.48
11
648.409
21
1892.07
0
LINE
5
879
8
0
6
BYLAYER
62
256
10
648.409
20
1892.07
11
650
21
1892.73
0
LINE
5
87A
8
0
6
BYLAYER
62
256
10
650
20
1892.73
11
651.591
21
1892.07
0
LINE
5
87B
8
0
6
BYLAYER
62
256
10
651.591
20
1892.07
11
652.25
21
1890.48
0
LINE
5
87C
8
0
6
BYLAYER
62
256
10
652.25
20
1890.48
11
651.591
21
1888.88
0
LINE
5
87D
8
0
6
BYLAYER
62
256
10
651.591
20
1888.88
11
650
21
1888.23
0
LINE
5
87E
8
0
6
BYLAYER
62
256
10
650
20
1888.23
11
648.409
21
1888.88
0
LINE
5
87F
8
0
6
BYLAYER
62
256
10
648.409
20
1888.88
11
647.75
21
1890.48
0
LINE
5
880
8
0
6
BYLAYER
62
256
10
715.15
20
870.65
11
715.15
21
896.9
0
LINE
5
881
8
0
6
BYLAYER
62
256
10
715.15
20
896.9
11
734.2
21
896.9
0
LINE
5
882
8
0
6
BYLAYER
62
256
10
734.2
20
896.9
11
734.2
21
870.65
0
LINE
5
883
8
0
6
BYLAYER
62
256
10
734.2
20
870.65
11
715.15
21
870.65
0
LINE
5
884
8
0
6
BYLAYER
62
256
10
715.15
20
975.65
11
715.15
21
1001.9
0
LINE
5
885
8
0
6
BYLAYER
62
256
10
715.15
20
1001.9
11
734.2
21
1001.9
0
LINE
5
886
8
0
6
BYLAYER
62
256
10
734.2
20
1001.9
11
734.2
21
975.65
0
LINE
5
887
8
0
6
BYLAYER
62
256
10
734.2
20
975.65
11
715.15
21
975.65
0
LINE
5
888
8
0
6
BYLAYER
62
256
10
715.15
20
1090.65
11
715.15
21
1116.9
0
LINE
5
889
8
0
6
BYLAYER
62
256
10
715.15
20
1116.9
11
734.2
21
1116.9
0
LINE
5
88A
8
0
6
BYLAYER
62
256
10
734.2
20
1116.9
11
734.2
21
1090.65
0
LINE
5
88B
8
0
6
BYLAYER
62
256
10
734.2
20
1090.65
11
715.15
21
1090.65
0
LINE
5
88C
8
0
6
BYLAYER
62
256
10
715.15
20
1195.65
11
715.15
21
1221.9
0
LINE
5
88D
8
0
6
BYLAYER
62
256
10
715.15
20
1221.9
11
734.2
21
1221.9
0
LINE
5
88E
8
0
6
BYLAYER
62
256
10
734.2
20
1221.9
11
734.2
21
1195.65
0
LINE
5
88F
8
0
6
BYLAYER
62
256
10
734.2
20
1195.65
11
715.15
21
1195.65
0
LINE
5
890
8
0
6
BYLAYER
62
256
10
715.15
20
1300.65
11
715.15
21
1326.9
0
LINE
5
891
8
0
6
BYLAYER
62
256
10
715.15
20
1326.9
11
734.2
21
1326.9
0
LINE
5
892
8
0
6
BYLAYER
62
256
10
734.2
20
1326.9
11
734.2
21
1300.65
0
LINE
5
893
8
0
6
BYLAYER
62
256
10
734.2
20
1300.65
11
715.15
21
1300.65
0
LINE
5
894
8
0
6
BYLAYER
62
256
10
715.15
20
1405.65
11
715.15
21
1431.9
0
LINE
5
895
8
0
6
BYLAYER
62
256
10
715.15
20
1431.9
11
734.2
21
1431.9
0
LINE
5
896
8
0
6
BYLAYER
62
256
10
734.2
20
1431.9
11
734.2
21
1405.65
0
LINE
5
897
8
0
6
BYLAYER
62
256
10
734.2
20
1405.65
11
715.15
21
1405.65
0
LINE
5
898
8
0
6
BYLAYER
62
256
10
715.15
20
1520.65
11
715.15
21
1546.9
0
LINE
5
899
8
0
6
BYLAYER
62
256
10
715.15
20
1546.9
11
734.2
21
1546.9
0
LINE
5
89A
8
0
6
BYLAYER
62
256
10
734.2
20
1546.9
11
734.2
21
1520.65
0
LINE
5
89B
8
0
6
BYLAYER
62
256
10
734.2
20
1520.65
11
715.15
21
1520.65
0
LINE
5
89C
8
0
6
BYLAYER
62
256
10
715.15
20
1625.65
11
715.15
21
1651.9
0
LINE
5
89D
8
0
6
BYLAYER
62
256
10
715.15
20
1651.9
11
734.2
21
1651.9
0
LINE
5
89E
8
0
6
BYLAYER
62
256
10
734.2
20
1651.9
11
734.2
21
1625.65
0
LINE
5
89F
8
0
6
BYLAYER
62
256
10
734.2
20
1625.65
11
715.15
21
1625.65
0
LINE
5
8A0
8
0
6
BYLAYER
62
256
10
715.15
20
1730.65
11
715.15
21
1756.9
0
LINE
5
8A1
8
0
6
BYLAYER
62
256
10
715.15
20
1756.9
11
734.2
21
1756.9
0
LINE
5
8A2
8
0
6
BYLAYER
62
256
10
734.2
20
1756.9
11
734.2
21
1730.65
0
LINE
5
8A3
8
0
6
BYLAYER
62
256
10
734.2
20
1730.65
11
715.15
21
1730.65
0
LINE
5
8A4
8
0
6
BYLAYER
62
256
10
715.15
20
1835.65
11
715.15
21
1861.9
0
LINE
5
8A5
8
0
6
BYLAYER
62
256
10
715.15
20
1861.9
11
734.2
21
1861.9
0
LINE
5
8A6
8
0
6
BYLAYER
62
256
10
734.2
20
1861.9
11
734.2
21
1835.65
0
LINE
5
8A7
8
0
6
BYLAYER
62
256
10
734.2
20
1835.65
11
715.15
21
1835.65
0
LINE
5
8A8
8
0
6
BYLAYER
62
256
10
722.425
20
931.9
11
723.084
21
933.491
0
LINE
5
8A9
8
0
6
BYLAYER
62
256
10
723.084
20
933.491
11
724.675
21
934.15
0
LINE
5
8AA
8
0
6
BYLAYER
62
256
10
724.675
20
934.15
11
726.266
21
933.491
0
LINE
5
8AB
8
0
6
BYLAYER
62
256
10
726.266
20
933.491
11
726.925
21
931.9
0
LINE
5
8AC
8
0
6
BYLAYER
62
256
10
726.925
20
931.9
11
726.266
21
930.309
0
LINE
5
8AD
8
0
6
BYLAYER
62
256
10
726.266
20
930.309
11
724.675
21
929.65
0
LINE
5
8AE
8
0
6
BYLAYER
62
256
10
724.675
20
929.65
11
723.084
21
930.309
0
LINE
5
8AF
8
0
6
BYLAYER
62
256
10
723.084
20
930.309
11
722.425
21
931.9
0
LINE
5
8B0
8
0
6
BYLAYER
62
256
10
722.425
20
1151.9
11
723.084
21
1153.49
0
LINE
5
8B1
8
0
6
BYLAYER
62
256
10
723.084
20
1153.49
11
724.675
21
1154.15
0
LINE
5
8B2
8
0
6
BYLAYER
62
256
10
724.675
20
1154.15
11
726.266
21
1153.49
0
LINE
5
8B3
8
0
6
BYLAYER
62
256
10
726.266
20
1153.49
11
726.925
21
1151.9
0
LINE
5
8B4
8
0
6
BYLAYER
62
256
10
726.925
20
1151.9
11
726.266
21
1150.31
0
LINE
5
8B5
8
0
6
BYLAYER
62
256
10
726.266
20
1150.31
11
724.675
21
1149.65
0
LINE
5
8B6
8
0
6
BYLAYER
62
256
10
724.675
20
1149.65
11
723.084
21
1150.31
0
LINE
5
8B7
8
0
6
BYLAYER
62
256
10
723.084
20
1150.31
11
722.425
21
1151.9
0
LINE
5
8B8
8
0
6
BYLAYER
62
256
10
722.425
20
1256.9
11
723.084
21
1258.49
0
LINE
5
8B9
8
0
6
BYLAYER
62
256
10
723.084
20
1258.49
11
724.675
21
1259.15
0
LINE
5
8BA
8
0
6
BYLAYER
62
256
10
724.675
20
1259.15
11
726.266
21
1258.49
0
LINE
5
8BB
8
0
6
BYLAYER
62
256
10
726.266
20
1258.49
11
726.925
21
1256.9
0
LINE
5
8BC
8
0
6
BYLAYER
62
256
10
726.925
20
1256.9
11
726.266
21
1255.31
0
LINE
5
8BD
8
0
6
BYLAYER
62
256
10
726.266
20
1255.31
11
724.675
21
1254.65
0
LINE
5
8BE
8
0
6
BYLAYER
62
256
10
724.675
20
1254.65
11
723.084
21
1255.31
0
LINE
5
8BF
8
0
6
BYLAYER
62
256
10
723.084
20
1255.31
11
722.425
21
1256.9
0
LINE
5
8C0
8
0
6
BYLAYER
62
256
10
722.425
20
1361.9
11
723.084
21
1363.49
0
LINE
5
8C1
8
0
6
BYLAYER
62
256
10
723.084
20
1363.49
11
724.675
21
1364.15
0
LINE
5
8C2
8
0
6
BYLAYER
62
256
10
724.675
20
1364.15
11
726.266
21
1363.49
0
LINE
5
8C3
8
0
6
BYLAYER
62
256
10
726.266
20
1363.49
11
726.925
21
1361.9
0
LINE
5
8C4
8
0
6
BYLAYER
62
256
10
726.925
20
1361.9
11
726.266
21
1360.31
0
LINE
5
8C5
8
0
6
BYLAYER
62
256
10
726.266
20
1360.31
11
724.675
21
1359.65
0
LINE
5
8C6
8
0
6
BYLAYER
62
256
10
724.675
20
1359.65
11
723.084
21
1360.31
0
LINE
5
8C7
8
0
6
BYLAYER
62
256
10
723.084
20
1360.31
11
722.425
21
1361.9
0
LINE
5
8C8
8
0
6
BYLAYER
62
256
10
722.425
20
1581.9
11
723.084
21
1583.49
0
LINE
5
8C9
8
0
6
BYLAYER
62
256
10
723.084
20
1583.49
11
724.675
21
1584.15
0
LINE
5
8CA
8
0
6
BYLAYER
62
256
10
724.675
20
1584.15
11
726.266
21
1583.49
0
LINE
5
8CB
8
0
6
BYLAYER
62
256
10
726.266
20
1583.49
11
726.925
21
1581.9
0
LINE
5
8CC
8
0
6
BYLAYER
62
256
10
726.925
20
1581.9
11
726.266
21
1580.31
0
LINE
5
8CD
8
0
6
BYLAYER
62
256
10
726.266
20
1580.31
11
724.675
21
1579.65
0
LINE
5
8CE
8
0
6
BYLAYER
62
256
10
724.675
20
1579.65
11
723.084
21
1580.31
0
LINE
5
8CF
8
0
6
BYLAYER
62
256
10
723.084
20
1580.31
11
722.425
21
1581.9
0
LINE
5
8D0
8
0
6
BYLAYER
62
256
10
722.425
20
1686.9
11
723.084
21
1688.49
0
LINE
5
8D1
8
0
6
BYLAYER
62
256
10
723.084
20
1688.49
11
724.675
21
1689.15
0
LINE
5
8D2
8
0
6
BYLAYER
62
256
10
724.675
20
1689.15
11
726.266
21
1688.49
0
LINE
5
8D3
8
0
6
BYLAYER
62
256
10
726.266
20
1688.49
11
726.925
21
1686.9
0
LINE
5
8D4
8
0
6
BYLAYER
62
256
10
726.925
20
1686.9
11
726.266
21
1685.31
0
LINE
5
8D5
8
0
6
BYLAYER
62
256
10
726.266
20
1685.31
11
724.675
21
1684.65
0
LINE
5
8D6
8
0
6
BYLAYER
62
256
10
724.675
20
1684.65
11
723.084
21
1685.31
0
LINE
5
8D7
8
0
6
BYLAYER
62
256
10
723.084
20
1685.31
11
722.425
21
1686.9
0
LINE
5
8D8
8
0
6
BYLAYER
62
256
10
722.425
20
1791.9
11
723.084
21
1793.49
0
LINE
5
8D9
8
0
6
BYLAYER
62
256
10
723.084
20
1793.49
11
724.675
21
1794.15
0
LINE
5
8DA
8
0
6
BYLAYER
62
256
10
724.675
20
1794.15
11
726.266
21
1793.49
0
LINE
5
8DB
8
0
6
BYLAYER
62
256
10
726.266
20
1793.49
11
726.925
21
1791.9
0
LINE
5
8DC
8
0
6
BYLAYER
62
256
10
726.925
20
1791.9
11
726.266
21
1790.31
0
LINE
5
8DD
8
0
6
BYLAYER
62
256
10
726.266
20
1790.31
11
724.675
21
1789.65
0
LINE
5
8DE
8
0
6
BYLAYER
62
256
10
724.675
20
1789.65
11
723.084
21
1790.31
0
LINE
5
8DF
8
0
6
BYLAYER
62
256
10
723.084
20
1790.31
11
722.425
21
1791.9
0
LINE
5
8E0
8
0
6
BYLAYER
62
256
10
810
20
1050
11
810
21
1850
0
LINE
5
8E1
8
0
6
BYLAYER
62
256
10
810
20
1850
11
990
21
1850
0
LINE
5
8E2
8
0
6
BYLAYER
62
256
10
990
20
1850
11
990
21
1750
0
LINE
5
8E3
8
0
6
BYLAYER
62
256
10
990
20
1750
11
970.95
21
1750
0
LINE
5
8E4
8
0
6
BYLAYER
62
256
10
970.95
20
1750
11
970.95
21
1650
0
LINE
5
8E5
8
0
6
BYLAYER
62
256
10
970.95
20
1650
11
990
21
1650
0
LINE
5
8E6
8
0
6
BYLAYER
62
256
10
990
20
1650
11
990
21
1550
0
LINE
5
8E7
8
0
6
BYLAYER
62
256
10
990
20
1550
11
970.95
21
1550
0
LINE
5
8E8
8
0
6
BYLAYER
62
256
10
970.95
20
1550
11
970.95
21
1450
0
LINE
5
8E9
8
0
6
BYLAYER
62
256
10
970.95
20
1450
11
990
21
1450
0
LINE
5
8EA
8
0
6
BYLAYER
62
256
10
990
20
1450
11
990
21
1350
0
LINE
5
8EB
8
0
6
BYLAYER
62
256
10
990
20
1350
11
970.95
21
1350
0
LINE
5
8EC
8
0
6
BYLAYER
62
256
10
970.95
20
1350
11
970.95
21
1250
0
LINE
5
8ED
8
0
6
BYLAYER
62
256
10
970.95
20
1250
11
990
21
1250
0
LINE
5
8EE
8
0
6
BYLAYER
62
256
10
990
20
1250
11
990
21
1150
0
LINE
5
8EF
8
0
6
BYLAYER
62
256
10
990
20
1150
11
970.95
21
1150
0
LINE
5
8F0
8
0
6
BYLAYER
62
256
10
970.95
20
1150
11
970.95
21
1050
0
LINE
5
8F1
8
0
6
BYLAYER
62
256
10
970.95
20
1050
11
810
21
1050
0
LINE
5
8F2
8
0
6
BYLAYER
62
256
10
818.1
20
1219.05
11
818.1
21
1238.1
0
LINE
5
8F3
8
0
6
BYLAYER
62
256
10
818.1
20
1238.1
11
844.35
21
1238.1
0
LINE
5
8F4
8
0
6
BYLAYER
62
256
10
844.35
20
1238.1
11
844.35
21
1219.05
0
LINE
5
8F5
8
0
6
BYLAYER
62
256
10
844.35
20
1219.05
11
818.1
21
1219.05
0
LINE
5
8F6
8
0
6
BYLAYER
62
256
10
818.1
20
1319.05
11
818.1
21
1338.1
0
LINE
5
8F7
8
0
6
BYLAYER
62
256
10
818.1
20
1338.1
11
844.35
21
1338.1
0
LINE
5
8F8
8
0
6
BYLAYER
62
256
10
844.35
20
1338.1
11
844.35
21
1319.05
0
LINE
5
8F9
8
0
6
BYLAYER
62
256
10
844.35
20
1319.05
11
818.1
21
1319.05
0
LINE
5
8FA
8
0
6
BYLAYER
62
256
10
818.1
20
1765.15
11
818.1
21
1784.2
0
LINE
5
8FB
8
0
6
BYLAYER
62
256
10
818.1
20
1784.2
11
844.35
21
1784.2
0
LINE
5
8FC
8
0
6
BYLAYER
62
256
10
844.35
20
1784.2
11
844.35
21
1765.15
0
LINE
5
8FD
8
0
6
BYLAYER
62
256
10
844.35
20
1765.15
11
818.1
21
1765.15
0
LINE
5
8FE
8
0
6
BYLAYER
62
256
10
885.85
20
1228.58
11
886.509
21
1230.17
0
LINE
5
8FF
8
0
6
BYLAYER
62
256
10
886.509
20
1230.17
11
888.1
21
1230.83
0
LINE
5
900
8
0
6
BYLAYER
62
256
10
888.1
20
1230.83
11
889.691
21
1230.17
0
LINE
5
901
8
0
6
BYLAYER
62
256
10
889.691
20
1230.17
11
890.35
21
1228.58
0
LINE
5
902
8
0
6
BYLAYER
62
256
10
890.35
20
1228.58
11
889.691
21
1226.98
0
LINE
5
903
8
0
6
BYLAYER
62
256
10
889.691
20
1226.98
11
888.1
21
1226.33
0
LINE
5
904
8
0
6
BYLAYER
62
256
10
888.1
20
1226.33
11
886.509
21
1226.98
0
LINE
5
905
8
0
6
BYLAYER
62
256
10
886.509
20
1226.98
11
885.85
21
1228.58
0
LINE
5
906
8
0
6
BYLAYER
62
256
10
885.85
20
1328.58
11
886.509
21
1330.17
0
LINE
5
907
8
0
6
BYLAYER
62
256
10
886.509
20
1330.17
11
888.1
21
1330.83
0
LINE
5
908
8
0
6
BYLAYER
62
256
10
888.1
20
1330.83
11
889.691
21
1330.17
0
LINE
5
909
8
0
6
BYLAYER
62
256
10
889.691
20
1330.17
11
890.35
21
1328.58
0
LINE
5
90A
8
0
6
BYLAYER
62
256
10
890.35
20
1328.58
11
889.691
21
1326.98
0
LINE
5
90B
8
0
6
BYLAYER
62
256
10
889.691
20
1326.98
11
888.1
21
1326.33
0
LINE
5
90C
8
0
6
BYLAYER
62
256
10
888.1
20
1326.33
11
886.509
21
1326.98
0
LINE
5
90D
8
0
6
BYLAYER
62
256
10
886.509
20
1326.98
11
885.85
21
1328.58
0
LINE
5
90E
8
0
6
BYLAYER
62
256
10
885.85
20
1774.67
11
886.509
21
1776.27
0
LINE
5
90F
8
0
6
BYLAYER
62
256
10
886.509
20
1776.27
11
888.1
21
1776.92
0
LINE
5
910
8
0
6
BYLAYER
62
256
10
888.1
20
1776.92
11
889.691
21
1776.27
0
LINE
5
911
8
0
6
BYLAYER
62
256
10
889.691
20
1776.27
11
890.35
21
1774.67
0
LINE
5
912
8
0
6
BYLAYER
62
256
10
890.35
20
1774.67
11
889.691
21
1773.08
0
LINE
5
913
8
0
6
BYLAYER
62
256
10
889.691
20
1773.08
11
888.1
21
1772.42
0
LINE
5
914
8
0
6
BYLAYER
62
256
10
888.1
20
1772.42
11
886.509
21
1773.08
0
LINE
5
915
8
0
6
BYLAYER
62
256
10
886.509
20
1773.08
11
885.85
21
1774.67
0
LINE
5
916
8
0
6
BYLAYER
62
256
10
923.1
20
1219.05
11
923.1
21
1238.1
0
LINE
5
917
8
0
6
BYLAYER
62
256
10
923.1
20
1238.1
11
949.35
21
1238.1
0
LINE
5
918
8
0
6
BYLAYER
62
256
10
949.35
20
1238.1
11
949.35
21
1219.05
0
LINE
5
919
8
0
6
BYLAYER
62
256
10
949.35
20
1219.05
11
923.1
21
1219.05
0
LINE
5
91A
8
0
6
BYLAYER
62
256
10
923.1
20
1319.05
11
923.1
21
1338.1
0
LINE
5
91B
8
0
6
BYLAYER
62
256
10
923.1
20
1338.1
11
949.35
21
1338.1
0
LINE
5
91C
8
0
6
BYLAYER
62
256
10
949.35
20
1338.1
11
949.35
21
1319.05
0
LINE
5
91D
8
0
6
BYLAYER
62
256
10
949.35
20
1319.05
11
923.1
21
1319.05
0
LINE
5
91E
8
0
6
BYLAYER
62
256
10
923.1
20
1765.15
11
923.1
21
1784.2
0
LINE
5
91F
8
0
6
BYLAYER
62
256
10
923.1
20
1784.2
11
949.35
21
1784.2
0
LINE
5
920
8
0
6
BYLAYER
62
256
10
949.35
20
1784.2
11
949.35
21
1765.15
0
LINE
5
921
8
0
6
BYLAYER
62
256
10
949.35
20
1765.15
11
923.1
21
1765.15
0
LINE
5
922
8
0
6
BYLAYER
62
256
10
978.225
20
1200
11
978.884
21
1201.59
0
LINE
5
923
8
0
6
BYLAYER
62
256
10
978.884
20
1201.59
11
980.475
21
1202.25
0
LINE
5
924
8
0
6
BYLAYER
62
256
10
980.475
20
1202.25
11
982.066
21
1201.59
0
LINE
5
925
8
0
6
BYLAYER
62
256
10
982.066
20
1201.59
11
982.725
21
1200
0
LINE
5
926
8
0
6
BYLAYER
62
256
10
982.725
20
1200
11
982.066
21
1198.41
0
LINE
5
927
8
0
6
BYLAYER
62
256
10
982.066
20
1198.41
11
980.475
21
1197.75
0
LINE
5
928
8
0
6
BYLAYER
62
256
10
980.475
20
1197.75
11
978.884
21
1198.41
0
LINE
5
929
8
0
6
BYLAYER
62
256
10
978.884
20
1198.41
11
978.225
21
1200
0
LINE
5
92A
8
0
6
BYLAYER
62
256
10
978.225
20
1400
11
978.884
21
1401.59
0
LINE
5
92B
8
0
6
BYLAYER
62
256
10
978.884
20
1401.59
11
980.475
21
1402.25
0
LINE
5
92C
8
0
6
BYLAYER
62
256
10
980.475
20
1402.25
11
982.066
21
1401.59
0
LINE
5
92D
8
0
6
BYLAYER
62
256
10
982.066
20
1401.59
11
982.725
21
1400
0
LINE
5
92E
8
0
6
BYLAYER
62
256
10
982.725
20
1400
11
982.066
21
1398.41
0
LINE
5
92F
8
0
6
BYLAYER
62
256
10
982.066
20
1398.41
11
980.475
21
1397.75
0
LINE
5
930
8
0
6
BYLAYER
62
256
10
980.475
20
1397.75
11
978.884
21
1398.41
0
LINE
5
931
8
0
6
BYLAYER
62
256
10
978.884
20
1398.41
11
978.225
21
1400
0
LINE
5
932
8
0
6
BYLAYER
62
256
10
978.225
20
1600
11
978.884
21
1601.59
0
LINE
5
933
8
0
6
BYLAYER
62
256
10
978.884
20
1601.59
11
980.475
21
1602.25
0
LINE
5
934
8
0
6
BYLAYER
62
256
10
980.475
20
1602.25
11
982.066
21
1601.59
0
LINE
5
935
8
0
6
BYLAYER
62
256
10
982.066
20
1601.59
11
982.725
21
1600
0
LINE
5
936
8
0
6
BYLAYER
62
256
10
982.725
20
1600
11
982.066
21
1598.41
0
LINE
5
937
8
0
6
BYLAYER
62
256
10
982.066
20
1598.41
11
980.475
21
1597.75
0
LINE
5
938
8
0
6
BYLAYER
62
256
10
980.475
20
1597.75
11
978.884
21
1598.41
0
LINE
5
939
8
0
6
BYLAYER
62
256
10
978.884
20
1598.41
11
978.225
21
1600
0
ENDSEC
0
EOF
