  0
SECTION
  2
BLOCKS
  0
ENDSEC
  0
SECTION
  2
ENTITIES
  0
LINE
  8
0
 10
0
 11
0
 20
6.35
 21
10.725
  0
LINE
  8
0
 10
0
 11
3.175
 20
10.725
 21
10.725
  0
LINE
  8
0
 10
3.175
 11
3.175
 20
10.725
 21
23.85
  0
LINE
  8
0
 10
3.175
 11
0
 20
23.85
 21
23.85
  0
LINE
  8
0
 10
0
 11
0
 20
23.85
 21
28.225
  0
LINE
  8
0
 10
0
 11
3.175
 20
28.225
 21
28.225
  0
LINE
  8
0
 10
3.175
 11
3.175
 20
28.225
 21
41.35
  0
LINE
  8
0
 10
3.175
 11
0
 20
41.35
 21
41.35
  0
LINE
  8
0
 10
0
 11
0
 20
41.35
 21
45.725
  0
LINE
  8
0
 10
0
 11
3.175
 20
45.725
 21
45.725
  0
LINE
  8
0
 10
3.175
 11
3.175
 20
45.725
 21
58.85
  0
LINE
  8
0
 10
3.175
 11
0
 20
58.85
 21
58.85
  0
LINE
  8
0
 10
0
 11
0
 20
58.85
 21
63.225
  0
LINE
  8
0
 10
0
 11
3.175
 20
63.225
 21
63.225
  0
LINE
  8
0
 10
3.175
 11
3.175
 20
63.225
 21
66.825
  0
LINE
  8
0
 10
3.175
 11
6.35
 20
66.825
 21
66.825
  0
LINE
  8
0
 10
6.35
 11
6.35
 20
66.825
 21
70
  0
LINE
  8
0
 10
6.35
 11
10.725
 20
70
 21
70
  0
LINE
  8
0
 10
10.725
 11
10.725
 20
70
 21
66.825
  0
LINE
  8
0
 10
10.725
 11
23.85
 20
66.825
 21
66.825
  0
LINE
  8
0
 10
23.85
 11
23.85
 20
66.825
 21
70
  0
LINE
  8
0
 10
23.85
 11
28.225
 20
70
 21
70
  0
LINE
  8
0
 10
28.225
 11
28.225
 20
70
 21
66.825
  0
LINE
  8
0
 10
28.225
 11
41.35
 20
66.825
 21
66.825
  0
LINE
  8
0
 10
41.35
 11
41.35
 20
66.825
 21
70
  0
LINE
  8
0
 10
41.35
 11
45.725
 20
70
 21
70
  0
LINE
  8
0
 10
45.725
 11
45.725
 20
70
 21
66.825
  0
LINE
  8
0
 10
45.725
 11
58.85
 20
66.825
 21
66.825
  0
LINE
  8
0
 10
58.85
 11
58.85
 20
66.825
 21
70
  0
LINE
  8
0
 10
58.85
 11
63.225
 20
70
 21
70
  0
LINE
  8
0
 10
63.225
 11
63.225
 20
70
 21
66.825
  0
LINE
  8
0
 10
63.225
 11
66.825
 20
66.825
 21
66.825
  0
LINE
  8
0
 10
66.825
 11
66.825
 20
66.825
 21
63.65
  0
LINE
  8
0
 10
66.825
 11
70
 20
63.65
 21
63.65
  0
LINE
  8
0
 10
70
 11
70
 20
63.65
 21
59.275
  0
LINE
  8
0
 10
70
 11
66.825
 20
59.275
 21
59.275
  0
LINE
  8
0
 10
66.825
 11
66.825
 20
59.275
 21
46.15
  0
LINE
  8
0
 10
66.825
 11
69.957
 20
46.15
 21
46.15
  0
LINE
  8
0
 10
69.957
 11
24.275
 20
46.15
 21
0.468
  0
LINE
  8
0
 10
24.275
 11
24.275
 20
0.468
 21
3.175
  0
LINE
  8
0
 10
24.275
 11
11.15
 20
3.175
 21
3.175
  0
LINE
  8
0
 10
11.15
 11
11.15
 20
3.175
 21
0
  0
LINE
  8
0
 10
11.15
 11
6.775
 20
0
 21
0
  0
LINE
  8
0
 10
6.775
 11
6.775
 20
0
 21
3.175
  0
LINE
  8
0
 10
6.775
 11
3.175
 20
3.175
 21
3.175
  0
LINE
  8
0
 10
3.175
 11
3.175
 20
3.175
 21
6.35
  0
LINE
  8
0
 10
3.175
 11
0
 20
6.35
 21
6.35
  0
LINE
  8
0
 10
0
 11
0
 20
78.017
 21
82.392
  0
LINE
  8
0
 10
0
 11
3.175
 20
82.392
 21
82.392
  0
LINE
  8
0
 10
3.175
 11
3.175
 20
82.392
 21
95.517
  0
LINE
  8
0
 10
3.175
 11
0
 20
95.517
 21
95.517
  0
LINE
  8
0
 10
0
 11
0
 20
95.517
 21
99.892
  0
LINE
  8
0
 10
0
 11
3.175
 20
99.892
 21
99.892
  0
LINE
  8
0
 10
3.175
 11
3.175
 20
99.892
 21
113.017
  0
LINE
  8
0
 10
3.175
 11
0
 20
113.017
 21
113.017
  0
LINE
  8
0
 10
0
 11
0
 20
113.017
 21
117.392
  0
LINE
  8
0
 10
0
 11
3.175
 20
117.392
 21
117.392
  0
LINE
  8
0
 10
3.175
 11
3.175
 20
117.392
 21
130.517
  0
LINE
  8
0
 10
3.175
 11
0
 20
130.517
 21
130.517
  0
LINE
  8
0
 10
0
 11
0
 20
130.517
 21
134.892
  0
LINE
  8
0
 10
0
 11
3.175
 20
134.892
 21
134.892
  0
LINE
  8
0
 10
3.175
 11
3.175
 20
134.892
 21
138.492
  0
LINE
  8
0
 10
3.175
 11
6.35
 20
138.492
 21
138.492
  0
LINE
  8
0
 10
6.35
 11
6.35
 20
138.492
 21
141.667
  0
LINE
  8
0
 10
6.35
 11
10.725
 20
141.667
 21
141.667
  0
LINE
  8
0
 10
10.725
 11
10.725
 20
141.667
 21
138.492
  0
LINE
  8
0
 10
10.725
 11
23.85
 20
138.492
 21
138.492
  0
LINE
  8
0
 10
23.85
 11
23.85
 20
138.492
 21
141.667
  0
LINE
  8
0
 10
23.85
 11
28.225
 20
141.667
 21
141.667
  0
LINE
  8
0
 10
28.225
 11
28.225
 20
141.667
 21
138.492
  0
LINE
  8
0
 10
28.225
 11
41.35
 20
138.492
 21
138.492
  0
LINE
  8
0
 10
41.35
 11
41.35
 20
138.492
 21
141.667
  0
LINE
  8
0
 10
41.35
 11
45.725
 20
141.667
 21
141.667
  0
LINE
  8
0
 10
45.725
 11
45.725
 20
141.667
 21
138.492
  0
LINE
  8
0
 10
45.725
 11
58.85
 20
138.492
 21
138.492
  0
LINE
  8
0
 10
58.85
 11
58.85
 20
138.492
 21
141.667
  0
LINE
  8
0
 10
58.85
 11
63.225
 20
141.667
 21
141.667
  0
LINE
  8
0
 10
63.225
 11
63.225
 20
141.667
 21
138.492
  0
LINE
  8
0
 10
63.225
 11
66.825
 20
138.492
 21
138.492
  0
LINE
  8
0
 10
66.825
 11
66.825
 20
138.492
 21
135.317
  0
LINE
  8
0
 10
66.825
 11
70
 20
135.317
 21
135.317
  0
LINE
  8
0
 10
70
 11
70
 20
135.317
 21
130.942
  0
LINE
  8
0
 10
70
 11
66.825
 20
130.942
 21
130.942
  0
LINE
  8
0
 10
66.825
 11
66.825
 20
130.942
 21
117.817
  0
LINE
  8
0
 10
66.825
 11
69.957
 20
117.817
 21
117.817
  0
LINE
  8
0
 10
69.957
 11
58.689
 20
117.817
 21
106.548
  0
LINE
  8
0
 10
58.689
 11
51.872
 20
106.548
 21
113.365
  0
LINE
  8
0
 10
51.872
 11
51.804
 20
113.365
 21
114.652
  0
LINE
  8
0
 10
51.804
 11
50.632
 20
114.652
 21
119.027
  0
LINE
  8
0
 10
50.632
 11
48.576
 20
119.027
 21
123.063
  0
LINE
  8
0
 10
48.576
 11
45.725
 20
123.063
 21
126.583
  0
LINE
  8
0
 10
45.725
 11
42.205
 20
126.583
 21
129.433
  0
LINE
  8
0
 10
42.205
 11
38.169
 20
129.433
 21
131.49
  0
LINE
  8
0
 10
38.169
 11
33.794
 20
131.49
 21
132.662
  0
LINE
  8
0
 10
33.794
 11
29.27
 20
132.662
 21
132.899
  0
LINE
  8
0
 10
29.27
 11
24.797
 20
132.899
 21
132.191
  0
LINE
  8
0
 10
24.797
 11
20.568
 20
132.191
 21
130.567
  0
LINE
  8
0
 10
20.568
 11
16.769
 20
130.567
 21
128.1
  0
LINE
  8
0
 10
16.769
 11
13.566
 20
128.1
 21
124.898
  0
LINE
  8
0
 10
13.566
 11
11.099
 20
124.898
 21
121.099
  0
LINE
  8
0
 10
11.099
 11
9.476
 20
121.099
 21
116.87
  0
LINE
  8
0
 10
9.476
 11
8.767
 20
116.87
 21
112.396
  0
LINE
  8
0
 10
8.767
 11
9.005
 20
112.396
 21
107.873
  0
LINE
  8
0
 10
9.005
 11
10.177
 20
107.873
 21
103.498
  0
LINE
  8
0
 10
10.177
 11
12.233
 20
103.498
 21
99.462
  0
LINE
  8
0
 10
12.233
 11
15.084
 20
99.462
 21
95.942
  0
LINE
  8
0
 10
15.084
 11
18.604
 20
95.942
 21
93.091
  0
LINE
  8
0
 10
18.604
 11
22.64
 20
93.091
 21
91.035
  0
LINE
  8
0
 10
22.64
 11
27.015
 20
91.035
 21
89.863
  0
LINE
  8
0
 10
27.015
 11
28.301
 20
89.863
 21
89.795
  0
LINE
  8
0
 10
28.301
 11
35.118
 20
89.795
 21
82.978
  0
LINE
  8
0
 10
35.118
 11
24.275
 20
82.978
 21
72.135
  0
LINE
  8
0
 10
24.275
 11
24.275
 20
72.135
 21
74.842
  0
LINE
  8
0
 10
24.275
 11
11.15
 20
74.842
 21
74.842
  0
LINE
  8
0
 10
11.15
 11
11.15
 20
74.842
 21
71.667
  0
LINE
  8
0
 10
11.15
 11
6.775
 20
71.667
 21
71.667
  0
LINE
  8
0
 10
6.775
 11
6.775
 20
71.667
 21
74.842
  0
LINE
  8
0
 10
6.775
 11
3.175
 20
74.842
 21
74.842
  0
LINE
  8
0
 10
3.175
 11
3.175
 20
74.842
 21
78.017
  0
LINE
  8
0
 10
3.175
 11
0
 20
78.017
 21
78.017
  0
LINE
  8
0
 10
0
 11
0
 20
143.333
 21
166.667
  0
LINE
  8
0
 10
0
 11
16.667
 20
166.667
 21
166.667
  0
LINE
  8
0
 10
16.667
 11
16.667
 20
166.667
 21
163.492
  0
LINE
  8
0
 10
16.667
 11
33.333
 20
163.492
 21
163.492
  0
LINE
  8
0
 10
33.333
 11
33.333
 20
163.492
 21
166.667
  0
LINE
  8
0
 10
33.333
 11
50
 20
166.667
 21
166.667
  0
LINE
  8
0
 10
50
 11
50
 20
166.667
 21
163.492
  0
LINE
  8
0
 10
50
 11
66.667
 20
163.492
 21
163.492
  0
LINE
  8
0
 10
66.667
 11
66.667
 20
163.492
 21
166.667
  0
LINE
  8
0
 10
66.667
 11
83.333
 20
166.667
 21
166.667
  0
LINE
  8
0
 10
83.333
 11
83.333
 20
166.667
 21
163.492
  0
LINE
  8
0
 10
83.333
 11
100
 20
163.492
 21
163.492
  0
LINE
  8
0
 10
100
 11
100
 20
163.492
 21
166.667
  0
LINE
  8
0
 10
100
 11
116.667
 20
166.667
 21
166.667
  0
LINE
  8
0
 10
116.667
 11
116.667
 20
166.667
 21
163.492
  0
LINE
  8
0
 10
116.667
 11
133.333
 20
163.492
 21
163.492
  0
LINE
  8
0
 10
133.333
 11
133.333
 20
163.492
 21
166.667
  0
LINE
  8
0
 10
133.333
 11
148.167
 20
166.667
 21
166.667
  0
LINE
  8
0
 10
148.167
 11
148.167
 20
166.667
 21
143.333
  0
LINE
  8
0
 10
148.167
 11
0
 20
143.333
 21
143.333
  0
LINE
  8
0
 10
0
 11
0
 20
171.508
 21
238.333
  0
LINE
  8
0
 10
0
 11
16.667
 20
238.333
 21
238.333
  0
LINE
  8
0
 10
16.667
 11
16.667
 20
238.333
 21
235.158
  0
LINE
  8
0
 10
16.667
 11
33.333
 20
235.158
 21
235.158
  0
LINE
  8
0
 10
33.333
 11
33.333
 20
235.158
 21
238.333
  0
LINE
  8
0
 10
33.333
 11
50
 20
238.333
 21
238.333
  0
LINE
  8
0
 10
50
 11
50
 20
238.333
 21
235.158
  0
LINE
  8
0
 10
50
 11
66.667
 20
235.158
 21
235.158
  0
LINE
  8
0
 10
66.667
 11
66.667
 20
235.158
 21
238.333
  0
LINE
  8
0
 10
66.667
 11
83.333
 20
238.333
 21
238.333
  0
LINE
  8
0
 10
83.333
 11
83.333
 20
238.333
 21
235.158
  0
LINE
  8
0
 10
83.333
 11
100
 20
235.158
 21
235.158
  0
LINE
  8
0
 10
100
 11
100
 20
235.158
 21
238.333
  0
LINE
  8
0
 10
100
 11
116.667
 20
238.333
 21
238.333
  0
LINE
  8
0
 10
116.667
 11
116.667
 20
238.333
 21
235.158
  0
LINE
  8
0
 10
116.667
 11
133.333
 20
235.158
 21
235.158
  0
LINE
  8
0
 10
133.333
 11
133.333
 20
235.158
 21
238.333
  0
LINE
  8
0
 10
133.333
 11
148.167
 20
238.333
 21
238.333
  0
LINE
  8
0
 10
148.167
 11
148.167
 20
238.333
 21
171.508
  0
LINE
  8
0
 10
148.167
 11
133.333
 20
171.508
 21
171.508
  0
LINE
  8
0
 10
133.333
 11
133.333
 20
171.508
 21
168.333
  0
LINE
  8
0
 10
133.333
 11
116.667
 20
168.333
 21
168.333
  0
LINE
  8
0
 10
116.667
 11
116.667
 20
168.333
 21
171.508
  0
LINE
  8
0
 10
116.667
 11
100
 20
171.508
 21
171.508
  0
LINE
  8
0
 10
100
 11
100
 20
171.508
 21
168.333
  0
LINE
  8
0
 10
100
 11
83.333
 20
168.333
 21
168.333
  0
LINE
  8
0
 10
83.333
 11
83.333
 20
168.333
 21
171.508
  0
LINE
  8
0
 10
83.333
 11
66.667
 20
171.508
 21
171.508
  0
LINE
  8
0
 10
66.667
 11
66.667
 20
171.508
 21
168.333
  0
LINE
  8
0
 10
66.667
 11
50
 20
168.333
 21
168.333
  0
LINE
  8
0
 10
50
 11
50
 20
168.333
 21
171.508
  0
LINE
  8
0
 10
50
 11
33.333
 20
171.508
 21
171.508
  0
LINE
  8
0
 10
33.333
 11
33.333
 20
171.508
 21
168.333
  0
LINE
  8
0
 10
33.333
 11
16.667
 20
168.333
 21
168.333
  0
LINE
  8
0
 10
16.667
 11
16.667
 20
168.333
 21
171.508
  0
LINE
  8
0
 10
16.667
 11
0
 20
171.508
 21
171.508
  0
LINE
  8
0
 10
0
 11
0
 20
243.175
 21
310
  0
LINE
  8
0
 10
0
 11
16.667
 20
310
 21
310
  0
LINE
  8
0
 10
16.667
 11
16.667
 20
310
 21
306.825
  0
LINE
  8
0
 10
16.667
 11
33.333
 20
306.825
 21
306.825
  0
LINE
  8
0
 10
33.333
 11
33.333
 20
306.825
 21
310
  0
LINE
  8
0
 10
33.333
 11
50
 20
310
 21
310
  0
LINE
  8
0
 10
50
 11
50
 20
310
 21
306.825
  0
LINE
  8
0
 10
50
 11
66.667
 20
306.825
 21
306.825
  0
LINE
  8
0
 10
66.667
 11
66.667
 20
306.825
 21
310
  0
LINE
  8
0
 10
66.667
 11
83.333
 20
310
 21
310
  0
LINE
  8
0
 10
83.333
 11
83.333
 20
310
 21
306.825
  0
LINE
  8
0
 10
83.333
 11
100
 20
306.825
 21
306.825
  0
LINE
  8
0
 10
100
 11
100
 20
306.825
 21
310
  0
LINE
  8
0
 10
100
 11
116.667
 20
310
 21
310
  0
LINE
  8
0
 10
116.667
 11
116.667
 20
310
 21
306.825
  0
LINE
  8
0
 10
116.667
 11
133.333
 20
306.825
 21
306.825
  0
LINE
  8
0
 10
133.333
 11
133.333
 20
306.825
 21
310
  0
LINE
  8
0
 10
133.333
 11
148.167
 20
310
 21
310
  0
LINE
  8
0
 10
148.167
 11
148.167
 20
310
 21
243.175
  0
LINE
  8
0
 10
148.167
 11
133.333
 20
243.175
 21
243.175
  0
LINE
  8
0
 10
133.333
 11
133.333
 20
243.175
 21
240
  0
LINE
  8
0
 10
133.333
 11
116.667
 20
240
 21
240
  0
LINE
  8
0
 10
116.667
 11
116.667
 20
240
 21
243.175
  0
LINE
  8
0
 10
116.667
 11
100
 20
243.175
 21
243.175
  0
LINE
  8
0
 10
100
 11
100
 20
243.175
 21
240
  0
LINE
  8
0
 10
100
 11
83.333
 20
240
 21
240
  0
LINE
  8
0
 10
83.333
 11
83.333
 20
240
 21
243.175
  0
LINE
  8
0
 10
83.333
 11
66.667
 20
243.175
 21
243.175
  0
LINE
  8
0
 10
66.667
 11
66.667
 20
243.175
 21
240
  0
LINE
  8
0
 10
66.667
 11
50
 20
240
 21
240
  0
LINE
  8
0
 10
50
 11
50
 20
240
 21
243.175
  0
LINE
  8
0
 10
50
 11
33.333
 20
243.175
 21
243.175
  0
LINE
  8
0
 10
33.333
 11
33.333
 20
243.175
 21
240
  0
LINE
  8
0
 10
33.333
 11
16.667
 20
240
 21
240
  0
LINE
  8
0
 10
16.667
 11
16.667
 20
240
 21
243.175
  0
LINE
  8
0
 10
16.667
 11
0
 20
243.175
 21
243.175
  0
LINE
  8
0
 10
0
 11
0
 20
314.842
 21
335
  0
LINE
  8
0
 10
0
 11
148.167
 20
335
 21
335
  0
LINE
  8
0
 10
148.167
 11
148.167
 20
335
 21
314.842
  0
LINE
  8
0
 10
148.167
 11
133.333
 20
314.842
 21
314.842
  0
LINE
  8
0
 10
133.333
 11
133.333
 20
314.842
 21
311.667
  0
LINE
  8
0
 10
133.333
 11
116.667
 20
311.667
 21
311.667
  0
LINE
  8
0
 10
116.667
 11
116.667
 20
311.667
 21
314.842
  0
LINE
  8
0
 10
116.667
 11
100
 20
314.842
 21
314.842
  0
LINE
  8
0
 10
100
 11
100
 20
314.842
 21
311.667
  0
LINE
  8
0
 10
100
 11
83.333
 20
311.667
 21
311.667
  0
LINE
  8
0
 10
83.333
 11
83.333
 20
311.667
 21
314.842
  0
LINE
  8
0
 10
83.333
 11
66.667
 20
314.842
 21
314.842
  0
LINE
  8
0
 10
66.667
 11
66.667
 20
314.842
 21
311.667
  0
LINE
  8
0
 10
66.667
 11
50
 20
311.667
 21
311.667
  0
LINE
  8
0
 10
50
 11
50
 20
311.667
 21
314.842
  0
LINE
  8
0
 10
50
 11
33.333
 20
314.842
 21
314.842
  0
LINE
  8
0
 10
33.333
 11
33.333
 20
314.842
 21
311.667
  0
LINE
  8
0
 10
33.333
 11
16.667
 20
311.667
 21
311.667
  0
LINE
  8
0
 10
16.667
 11
16.667
 20
311.667
 21
314.842
  0
LINE
  8
0
 10
16.667
 11
0
 20
314.842
 21
314.842
  0
LINE
  8
0
 10
6.974
 11
11.364
 20
58.636
 21
63.026
  0
LINE
  8
0
 10
11.364
 11
14.552
 20
63.026
 21
59.838
  0
LINE
  8
0
 10
14.552
 11
10.162
 20
59.838
 21
55.448
  0
LINE
  8
0
 10
10.162
 11
6.974
 20
55.448
 21
58.636
  0
LINE
  8
0
 10
6.974
 11
11.364
 20
130.303
 21
134.693
  0
LINE
  8
0
 10
11.364
 11
14.552
 20
134.693
 21
131.505
  0
LINE
  8
0
 10
14.552
 11
10.162
 20
131.505
 21
127.115
  0
LINE
  8
0
 10
10.162
 11
6.974
 20
127.115
 21
130.303
  0
LINE
  8
0
 10
7.958
 11
8.068
 20
165.079
 21
165.344
  0
LINE
  8
0
 10
8.068
 11
8.333
 20
165.344
 21
165.454
  0
LINE
  8
0
 10
8.333
 11
8.599
 20
165.454
 21
165.344
  0
LINE
  8
0
 10
8.599
 11
8.708
 20
165.344
 21
165.079
  0
LINE
  8
0
 10
8.708
 11
8.599
 20
165.079
 21
164.814
  0
LINE
  8
0
 10
8.599
 11
8.333
 20
164.814
 21
164.704
  0
LINE
  8
0
 10
8.333
 11
8.068
 20
164.704
 21
164.814
  0
LINE
  8
0
 10
8.068
 11
7.958
 20
164.814
 21
165.079
  0
LINE
  8
0
 10
7.958
 11
8.068
 20
236.746
 21
237.011
  0
LINE
  8
0
 10
8.068
 11
8.333
 20
237.011
 21
237.121
  0
LINE
  8
0
 10
8.333
 11
8.599
 20
237.121
 21
237.011
  0
LINE
  8
0
 10
8.599
 11
8.708
 20
237.011
 21
236.746
  0
LINE
  8
0
 10
8.708
 11
8.599
 20
236.746
 21
236.481
  0
LINE
  8
0
 10
8.599
 11
8.333
 20
236.481
 21
236.371
  0
LINE
  8
0
 10
8.333
 11
8.068
 20
236.371
 21
236.481
  0
LINE
  8
0
 10
8.068
 11
7.958
 20
236.481
 21
236.746
  0
LINE
  8
0
 10
7.958
 11
8.068
 20
308.412
 21
308.678
  0
LINE
  8
0
 10
8.068
 11
8.333
 20
308.678
 21
308.787
  0
LINE
  8
0
 10
8.333
 11
8.599
 20
308.787
 21
308.678
  0
LINE
  8
0
 10
8.599
 11
8.708
 20
308.678
 21
308.412
  0
LINE
  8
0
 10
8.708
 11
8.599
 20
308.412
 21
308.147
  0
LINE
  8
0
 10
8.599
 11
8.333
 20
308.147
 21
308.037
  0
LINE
  8
0
 10
8.333
 11
8.068
 20
308.037
 21
308.147
  0
LINE
  8
0
 10
8.068
 11
7.958
 20
308.147
 21
308.412
  0
LINE
  8
0
 10
8.217
 11
8.22
 20
53.945
 21
54.036
  0
LINE
  8
0
 10
8.22
 11
8.234
 20
54.036
 21
54.128
  0
LINE
  8
0
 10
8.234
 11
8.26
 20
54.128
 21
54.216
  0
LINE
  8
0
 10
8.26
 11
8.296
 20
54.216
 21
54.301
  0
LINE
  8
0
 10
8.296
 11
8.343
 20
54.301
 21
54.38
  0
LINE
  8
0
 10
8.343
 11
8.4
 20
54.38
 21
54.453
  0
LINE
  8
0
 10
8.4
 11
8.464
 20
54.453
 21
54.518
  0
LINE
  8
0
 10
8.464
 11
8.537
 20
54.518
 21
54.574
  0
LINE
  8
0
 10
8.537
 11
8.617
 20
54.574
 21
54.621
  0
LINE
  8
0
 10
8.617
 11
8.701
 20
54.621
 21
54.658
  0
LINE
  8
0
 10
8.701
 11
8.79
 20
54.658
 21
54.683
  0
LINE
  8
0
 10
8.79
 11
8.881
 20
54.683
 21
54.698
  0
LINE
  8
0
 10
8.881
 11
8.973
 20
54.698
 21
54.701
  0
LINE
  8
0
 10
8.973
 11
9.064
 20
54.701
 21
54.692
  0
LINE
  8
0
 10
9.064
 11
9.154
 20
54.692
 21
54.672
  0
LINE
  8
0
 10
9.154
 11
9.241
 20
54.672
 21
54.641
  0
LINE
  8
0
 10
9.241
 11
9.323
 20
54.641
 21
54.599
  0
LINE
  8
0
 10
9.323
 11
9.399
 20
54.599
 21
54.547
  0
LINE
  8
0
 10
9.399
 11
9.468
 20
54.547
 21
54.486
  0
LINE
  8
0
 10
9.468
 11
9.529
 20
54.486
 21
54.417
  0
LINE
  8
0
 10
9.529
 11
9.581
 20
54.417
 21
54.341
  0
LINE
  8
0
 10
9.581
 11
9.622
 20
54.341
 21
54.259
  0
LINE
  8
0
 10
9.622
 11
9.654
 20
54.259
 21
54.172
  0
LINE
  8
0
 10
9.654
 11
9.674
 20
54.172
 21
54.082
  0
LINE
  8
0
 10
9.674
 11
9.682
 20
54.082
 21
53.991
  0
LINE
  8
0
 10
9.682
 11
9.68
 20
53.991
 21
53.899
  0
LINE
  8
0
 10
9.68
 11
9.665
 20
53.899
 21
53.808
  0
LINE
  8
0
 10
9.665
 11
9.64
 20
53.808
 21
53.719
  0
LINE
  8
0
 10
9.64
 11
9.603
 20
53.719
 21
53.635
  0
LINE
  8
0
 10
9.603
 11
9.556
 20
53.635
 21
53.555
  0
LINE
  8
0
 10
9.556
 11
9.5
 20
53.555
 21
53.483
  0
LINE
  8
0
 10
9.5
 11
9.435
 20
53.483
 21
53.418
  0
LINE
  8
0
 10
9.435
 11
9.362
 20
53.418
 21
53.361
  0
LINE
  8
0
 10
9.362
 11
9.282
 20
53.361
 21
53.314
  0
LINE
  8
0
 10
9.282
 11
9.198
 20
53.314
 21
53.278
  0
LINE
  8
0
 10
9.198
 11
9.109
 20
53.278
 21
53.252
  0
LINE
  8
0
 10
9.109
 11
9.019
 20
53.252
 21
53.237
  0
LINE
  8
0
 10
9.019
 11
8.926
 20
53.237
 21
53.235
  0
LINE
  8
0
 10
8.926
 11
8.835
 20
53.235
 21
53.243
  0
LINE
  8
0
 10
8.835
 11
8.745
 20
53.243
 21
53.263
  0
LINE
  8
0
 10
8.745
 11
8.658
 20
53.263
 21
53.295
  0
LINE
  8
0
 10
8.658
 11
8.576
 20
53.295
 21
53.336
  0
LINE
  8
0
 10
8.576
 11
8.5
 20
53.336
 21
53.388
  0
LINE
  8
0
 10
8.5
 11
8.431
 20
53.388
 21
53.449
  0
LINE
  8
0
 10
8.431
 11
8.37
 20
53.449
 21
53.518
  0
LINE
  8
0
 10
8.37
 11
8.318
 20
53.518
 21
53.594
  0
LINE
  8
0
 10
8.318
 11
8.277
 20
53.594
 21
53.676
  0
LINE
  8
0
 10
8.277
 11
8.245
 20
53.676
 21
53.763
  0
LINE
  8
0
 10
8.245
 11
8.225
 20
53.763
 21
53.853
  0
LINE
  8
0
 10
8.225
 11
8.217
 20
53.853
 21
53.945
  0
LINE
  8
0
 10
8.217
 11
8.22
 20
125.611
 21
125.703
  0
LINE
  8
0
 10
8.22
 11
8.234
 20
125.703
 21
125.794
  0
LINE
  8
0
 10
8.234
 11
8.26
 20
125.794
 21
125.883
  0
LINE
  8
0
 10
8.26
 11
8.296
 20
125.883
 21
125.967
  0
LINE
  8
0
 10
8.296
 11
8.343
 20
125.967
 21
126.046
  0
LINE
  8
0
 10
8.343
 11
8.4
 20
126.046
 21
126.119
  0
LINE
  8
0
 10
8.4
 11
8.464
 20
126.119
 21
126.184
  0
LINE
  8
0
 10
8.464
 11
8.537
 20
126.184
 21
126.241
  0
LINE
  8
0
 10
8.537
 11
8.617
 20
126.241
 21
126.288
  0
LINE
  8
0
 10
8.617
 11
8.701
 20
126.288
 21
126.324
  0
LINE
  8
0
 10
8.701
 11
8.79
 20
126.324
 21
126.35
  0
LINE
  8
0
 10
8.79
 11
8.881
 20
126.35
 21
126.364
  0
LINE
  8
0
 10
8.881
 11
8.973
 20
126.364
 21
126.367
  0
LINE
  8
0
 10
8.973
 11
9.064
 20
126.367
 21
126.359
  0
LINE
  8
0
 10
9.064
 11
9.154
 20
126.359
 21
126.339
  0
LINE
  8
0
 10
9.154
 11
9.241
 20
126.339
 21
126.307
  0
LINE
  8
0
 10
9.241
 11
9.323
 20
126.307
 21
126.265
  0
LINE
  8
0
 10
9.323
 11
9.399
 20
126.265
 21
126.214
  0
LINE
  8
0
 10
9.399
 11
9.468
 20
126.214
 21
126.153
  0
LINE
  8
0
 10
9.468
 11
9.529
 20
126.153
 21
126.084
  0
LINE
  8
0
 10
9.529
 11
9.581
 20
126.084
 21
126.008
  0
LINE
  8
0
 10
9.581
 11
9.622
 20
126.008
 21
125.926
  0
LINE
  8
0
 10
9.622
 11
9.654
 20
125.926
 21
125.839
  0
LINE
  8
0
 10
9.654
 11
9.674
 20
125.839
 21
125.749
  0
LINE
  8
0
 10
9.674
 11
9.682
 20
125.749
 21
125.657
  0
LINE
  8
0
 10
9.682
 11
9.68
 20
125.657
 21
125.565
  0
LINE
  8
0
 10
9.68
 11
9.665
 20
125.565
 21
125.474
  0
LINE
  8
0
 10
9.665
 11
9.64
 20
125.474
 21
125.386
  0
LINE
  8
0
 10
9.64
 11
9.603
 20
125.386
 21
125.301
  0
LINE
  8
0
 10
9.603
 11
9.556
 20
125.301
 21
125.222
  0
LINE
  8
0
 10
9.556
 11
9.5
 20
125.222
 21
125.149
  0
LINE
  8
0
 10
9.5
 11
9.435
 20
125.149
 21
125.084
  0
LINE
  8
0
 10
9.435
 11
9.362
 20
125.084
 21
125.028
  0
LINE
  8
0
 10
9.362
 11
9.282
 20
125.028
 21
124.981
  0
LINE
  8
0
 10
9.282
 11
9.198
 20
124.981
 21
124.944
  0
LINE
  8
0
 10
9.198
 11
9.109
 20
124.944
 21
124.918
  0
LINE
  8
0
 10
9.109
 11
9.019
 20
124.918
 21
124.904
  0
LINE
  8
0
 10
9.019
 11
8.926
 20
124.904
 21
124.901
  0
LINE
  8
0
 10
8.926
 11
8.835
 20
124.901
 21
124.91
  0
LINE
  8
0
 10
8.835
 11
8.745
 20
124.91
 21
124.93
  0
LINE
  8
0
 10
8.745
 11
8.658
 20
124.93
 21
124.961
  0
LINE
  8
0
 10
8.658
 11
8.576
 20
124.961
 21
125.003
  0
LINE
  8
0
 10
8.576
 11
8.5
 20
125.003
 21
125.055
  0
LINE
  8
0
 10
8.5
 11
8.431
 20
125.055
 21
125.116
  0
LINE
  8
0
 10
8.431
 11
8.37
 20
125.116
 21
125.185
  0
LINE
  8
0
 10
8.37
 11
8.318
 20
125.185
 21
125.261
  0
LINE
  8
0
 10
8.318
 11
8.277
 20
125.261
 21
125.343
  0
LINE
  8
0
 10
8.277
 11
8.245
 20
125.343
 21
125.43
  0
LINE
  8
0
 10
8.245
 11
8.225
 20
125.43
 21
125.519
  0
LINE
  8
0
 10
8.225
 11
8.217
 20
125.519
 21
125.611
  0
LINE
  8
0
 10
10.014
 11
10.015
 20
52.542
 21
52.586
  0
LINE
  8
0
 10
10.015
 11
10.022
 20
52.586
 21
52.63
  0
LINE
  8
0
 10
10.022
 11
10.035
 20
52.63
 21
52.672
  0
LINE
  8
0
 10
10.035
 11
10.052
 20
52.672
 21
52.712
  0
LINE
  8
0
 10
10.052
 11
10.074
 20
52.712
 21
52.75
  0
LINE
  8
0
 10
10.074
 11
10.101
 20
52.75
 21
52.785
  0
LINE
  8
0
 10
10.101
 11
10.132
 20
52.785
 21
52.816
  0
LINE
  8
0
 10
10.132
 11
10.167
 20
52.816
 21
52.843
  0
LINE
  8
0
 10
10.167
 11
10.205
 20
52.843
 21
52.865
  0
LINE
  8
0
 10
10.205
 11
10.245
 20
52.865
 21
52.883
  0
LINE
  8
0
 10
10.245
 11
10.287
 20
52.883
 21
52.895
  0
LINE
  8
0
 10
10.287
 11
10.331
 20
52.895
 21
52.902
  0
LINE
  8
0
 10
10.331
 11
10.375
 20
52.902
 21
52.903
  0
LINE
  8
0
 10
10.375
 11
10.419
 20
52.903
 21
52.899
  0
LINE
  8
0
 10
10.419
 11
10.461
 20
52.899
 21
52.89
  0
LINE
  8
0
 10
10.461
 11
10.503
 20
52.89
 21
52.875
  0
LINE
  8
0
 10
10.503
 11
10.542
 20
52.875
 21
52.855
  0
LINE
  8
0
 10
10.542
 11
10.578
 20
52.855
 21
52.83
  0
LINE
  8
0
 10
10.578
 11
10.611
 20
52.83
 21
52.801
  0
LINE
  8
0
 10
10.611
 11
10.64
 20
52.801
 21
52.768
  0
LINE
  8
0
 10
10.64
 11
10.665
 20
52.768
 21
52.732
  0
LINE
  8
0
 10
10.665
 11
10.685
 20
52.732
 21
52.692
  0
LINE
  8
0
 10
10.685
 11
10.7
 20
52.692
 21
52.651
  0
LINE
  8
0
 10
10.7
 11
10.709
 20
52.651
 21
52.608
  0
LINE
  8
0
 10
10.709
 11
10.714
 20
52.608
 21
52.564
  0
LINE
  8
0
 10
10.714
 11
10.712
 20
52.564
 21
52.521
  0
LINE
  8
0
 10
10.712
 11
10.705
 20
52.521
 21
52.477
  0
LINE
  8
0
 10
10.705
 11
10.693
 20
52.477
 21
52.435
  0
LINE
  8
0
 10
10.693
 11
10.676
 20
52.435
 21
52.395
  0
LINE
  8
0
 10
10.676
 11
10.653
 20
52.395
 21
52.357
  0
LINE
  8
0
 10
10.653
 11
10.626
 20
52.357
 21
52.322
  0
LINE
  8
0
 10
10.626
 11
10.595
 20
52.322
 21
52.291
  0
LINE
  8
0
 10
10.595
 11
10.561
 20
52.291
 21
52.264
  0
LINE
  8
0
 10
10.561
 11
10.523
 20
52.264
 21
52.241
  0
LINE
  8
0
 10
10.523
 11
10.482
 20
52.241
 21
52.224
  0
LINE
  8
0
 10
10.482
 11
10.44
 20
52.224
 21
52.212
  0
LINE
  8
0
 10
10.44
 11
10.397
 20
52.212
 21
52.205
  0
LINE
  8
0
 10
10.397
 11
10.353
 20
52.205
 21
52.204
  0
LINE
  8
0
 10
10.353
 11
10.309
 20
52.204
 21
52.208
  0
LINE
  8
0
 10
10.309
 11
10.266
 20
52.208
 21
52.217
  0
LINE
  8
0
 10
10.266
 11
10.225
 20
52.217
 21
52.232
  0
LINE
  8
0
 10
10.225
 11
10.186
 20
52.232
 21
52.252
  0
LINE
  8
0
 10
10.186
 11
10.149
 20
52.252
 21
52.277
  0
LINE
  8
0
 10
10.149
 11
10.116
 20
52.277
 21
52.306
  0
LINE
  8
0
 10
10.116
 11
10.087
 20
52.306
 21
52.339
  0
LINE
  8
0
 10
10.087
 11
10.063
 20
52.339
 21
52.375
  0
LINE
  8
0
 10
10.063
 11
10.043
 20
52.375
 21
52.414
  0
LINE
  8
0
 10
10.043
 11
10.028
 20
52.414
 21
52.456
  0
LINE
  8
0
 10
10.028
 11
10.018
 20
52.456
 21
52.499
  0
LINE
  8
0
 10
10.018
 11
10.014
 20
52.499
 21
52.542
  0
LINE
  8
0
 10
10.014
 11
10.015
 20
124.209
 21
124.253
  0
LINE
  8
0
 10
10.015
 11
10.022
 20
124.253
 21
124.296
  0
LINE
  8
0
 10
10.022
 11
10.035
 20
124.296
 21
124.339
  0
LINE
  8
0
 10
10.035
 11
10.052
 20
124.339
 21
124.379
  0
LINE
  8
0
 10
10.052
 11
10.074
 20
124.379
 21
124.417
  0
LINE
  8
0
 10
10.074
 11
10.101
 20
124.417
 21
124.452
  0
LINE
  8
0
 10
10.101
 11
10.132
 20
124.452
 21
124.483
  0
LINE
  8
0
 10
10.132
 11
10.167
 20
124.483
 21
124.51
  0
LINE
  8
0
 10
10.167
 11
10.205
 20
124.51
 21
124.532
  0
LINE
  8
0
 10
10.205
 11
10.245
 20
124.532
 21
124.549
  0
LINE
  8
0
 10
10.245
 11
10.287
 20
124.549
 21
124.562
  0
LINE
  8
0
 10
10.287
 11
10.331
 20
124.562
 21
124.569
  0
LINE
  8
0
 10
10.331
 11
10.375
 20
124.569
 21
124.57
  0
LINE
  8
0
 10
10.375
 11
10.419
 20
124.57
 21
124.566
  0
LINE
  8
0
 10
10.419
 11
10.461
 20
124.566
 21
124.556
  0
LINE
  8
0
 10
10.461
 11
10.503
 20
124.556
 21
124.541
  0
LINE
  8
0
 10
10.503
 11
10.542
 20
124.541
 21
124.521
  0
LINE
  8
0
 10
10.542
 11
10.578
 20
124.521
 21
124.497
  0
LINE
  8
0
 10
10.578
 11
10.611
 20
124.497
 21
124.468
  0
LINE
  8
0
 10
10.611
 11
10.64
 20
124.468
 21
124.435
  0
LINE
  8
0
 10
10.64
 11
10.665
 20
124.435
 21
124.398
  0
LINE
  8
0
 10
10.665
 11
10.685
 20
124.398
 21
124.359
  0
LINE
  8
0
 10
10.685
 11
10.7
 20
124.359
 21
124.318
  0
LINE
  8
0
 10
10.7
 11
10.709
 20
124.318
 21
124.275
  0
LINE
  8
0
 10
10.709
 11
10.714
 20
124.275
 21
124.231
  0
LINE
  8
0
 10
10.714
 11
10.712
 20
124.231
 21
124.187
  0
LINE
  8
0
 10
10.712
 11
10.705
 20
124.187
 21
124.144
  0
LINE
  8
0
 10
10.705
 11
10.693
 20
124.144
 21
124.102
  0
LINE
  8
0
 10
10.693
 11
10.676
 20
124.102
 21
124.061
  0
LINE
  8
0
 10
10.676
 11
10.653
 20
124.061
 21
124.023
  0
LINE
  8
0
 10
10.653
 11
10.626
 20
124.023
 21
123.989
  0
LINE
  8
0
 10
10.626
 11
10.595
 20
123.989
 21
123.958
  0
LINE
  8
0
 10
10.595
 11
10.561
 20
123.958
 21
123.93
  0
LINE
  8
0
 10
10.561
 11
10.523
 20
123.93
 21
123.908
  0
LINE
  8
0
 10
10.523
 11
10.482
 20
123.908
 21
123.891
  0
LINE
  8
0
 10
10.482
 11
10.44
 20
123.891
 21
123.878
  0
LINE
  8
0
 10
10.44
 11
10.397
 20
123.878
 21
123.872
  0
LINE
  8
0
 10
10.397
 11
10.353
 20
123.872
 21
123.87
  0
LINE
  8
0
 10
10.353
 11
10.309
 20
123.87
 21
123.874
  0
LINE
  8
0
 10
10.309
 11
10.266
 20
123.874
 21
123.884
  0
LINE
  8
0
 10
10.266
 11
10.225
 20
123.884
 21
123.899
  0
LINE
  8
0
 10
10.225
 11
10.186
 20
123.899
 21
123.919
  0
LINE
  8
0
 10
10.186
 11
10.149
 20
123.919
 21
123.944
  0
LINE
  8
0
 10
10.149
 11
10.116
 20
123.944
 21
123.973
  0
LINE
  8
0
 10
10.116
 11
10.087
 20
123.973
 21
124.006
  0
LINE
  8
0
 10
10.087
 11
10.063
 20
124.006
 21
124.042
  0
LINE
  8
0
 10
10.063
 11
10.043
 20
124.042
 21
124.081
  0
LINE
  8
0
 10
10.043
 11
10.028
 20
124.081
 21
124.122
  0
LINE
  8
0
 10
10.028
 11
10.018
 20
124.122
 21
124.165
  0
LINE
  8
0
 10
10.018
 11
10.014
 20
124.165
 21
124.209
  0
LINE
  8
0
 10
14.256
 11
14.258
 20
48.3
 21
48.344
  0
LINE
  8
0
 10
14.258
 11
14.265
 20
48.344
 21
48.387
  0
LINE
  8
0
 10
14.265
 11
14.277
 20
48.387
 21
48.429
  0
LINE
  8
0
 10
14.277
 11
14.294
 20
48.429
 21
48.47
  0
LINE
  8
0
 10
14.294
 11
14.317
 20
48.47
 21
48.508
  0
LINE
  8
0
 10
14.317
 11
14.344
 20
48.508
 21
48.542
  0
LINE
  8
0
 10
14.344
 11
14.375
 20
48.542
 21
48.573
  0
LINE
  8
0
 10
14.375
 11
14.41
 20
48.573
 21
48.6
  0
LINE
  8
0
 10
14.41
 11
14.448
 20
48.6
 21
48.623
  0
LINE
  8
0
 10
14.448
 11
14.488
 20
48.623
 21
48.64
  0
LINE
  8
0
 10
14.488
 11
14.53
 20
48.64
 21
48.652
  0
LINE
  8
0
 10
14.53
 11
14.573
 20
48.652
 21
48.659
  0
LINE
  8
0
 10
14.573
 11
14.617
 20
48.659
 21
48.661
  0
LINE
  8
0
 10
14.617
 11
14.661
 20
48.661
 21
48.656
  0
LINE
  8
0
 10
14.661
 11
14.704
 20
48.656
 21
48.647
  0
LINE
  8
0
 10
14.704
 11
14.746
 20
48.647
 21
48.632
  0
LINE
  8
0
 10
14.746
 11
14.785
 20
48.632
 21
48.612
  0
LINE
  8
0
 10
14.785
 11
14.821
 20
48.612
 21
48.587
  0
LINE
  8
0
 10
14.821
 11
14.854
 20
48.587
 21
48.558
  0
LINE
  8
0
 10
14.854
 11
14.883
 20
48.558
 21
48.525
  0
LINE
  8
0
 10
14.883
 11
14.908
 20
48.525
 21
48.489
  0
LINE
  8
0
 10
14.908
 11
14.928
 20
48.489
 21
48.45
  0
LINE
  8
0
 10
14.928
 11
14.942
 20
48.45
 21
48.408
  0
LINE
  8
0
 10
14.942
 11
14.952
 20
48.408
 21
48.365
  0
LINE
  8
0
 10
14.952
 11
14.956
 20
48.365
 21
48.322
  0
LINE
  8
0
 10
14.956
 11
14.955
 20
48.322
 21
48.278
  0
LINE
  8
0
 10
14.955
 11
14.948
 20
48.278
 21
48.234
  0
LINE
  8
0
 10
14.948
 11
14.936
 20
48.234
 21
48.192
  0
LINE
  8
0
 10
14.936
 11
14.918
 20
48.192
 21
48.152
  0
LINE
  8
0
 10
14.918
 11
14.896
 20
48.152
 21
48.114
  0
LINE
  8
0
 10
14.896
 11
14.869
 20
48.114
 21
48.079
  0
LINE
  8
0
 10
14.869
 11
14.838
 20
48.079
 21
48.048
  0
LINE
  8
0
 10
14.838
 11
14.803
 20
48.048
 21
48.021
  0
LINE
  8
0
 10
14.803
 11
14.765
 20
48.021
 21
47.999
  0
LINE
  8
0
 10
14.765
 11
14.725
 20
47.999
 21
47.981
  0
LINE
  8
0
 10
14.725
 11
14.683
 20
47.981
 21
47.969
  0
LINE
  8
0
 10
14.683
 11
14.639
 20
47.969
 21
47.962
  0
LINE
  8
0
 10
14.639
 11
14.596
 20
47.962
 21
47.961
  0
LINE
  8
0
 10
14.596
 11
14.552
 20
47.961
 21
47.965
  0
LINE
  8
0
 10
14.552
 11
14.509
 20
47.965
 21
47.975
  0
LINE
  8
0
 10
14.509
 11
14.467
 20
47.975
 21
47.99
  0
LINE
  8
0
 10
14.467
 11
14.428
 20
47.99
 21
48.009
  0
LINE
  8
0
 10
14.428
 11
14.392
 20
48.009
 21
48.034
  0
LINE
  8
0
 10
14.392
 11
14.359
 20
48.034
 21
48.063
  0
LINE
  8
0
 10
14.359
 11
14.33
 20
48.063
 21
48.096
  0
LINE
  8
0
 10
14.33
 11
14.305
 20
48.096
 21
48.133
  0
LINE
  8
0
 10
14.305
 11
14.285
 20
48.133
 21
48.172
  0
LINE
  8
0
 10
14.285
 11
14.27
 20
48.172
 21
48.213
  0
LINE
  8
0
 10
14.27
 11
14.261
 20
48.213
 21
48.256
  0
LINE
  8
0
 10
14.261
 11
14.256
 20
48.256
 21
48.3
  0
LINE
  8
0
 10
15.3
 11
15.302
 20
61.027
 21
61.119
  0
LINE
  8
0
 10
15.302
 11
15.317
 20
61.119
 21
61.21
  0
LINE
  8
0
 10
15.317
 11
15.342
 20
61.21
 21
61.299
  0
LINE
  8
0
 10
15.342
 11
15.379
 20
61.299
 21
61.383
  0
LINE
  8
0
 10
15.379
 11
15.426
 20
61.383
 21
61.463
  0
LINE
  8
0
 10
15.426
 11
15.482
 20
61.463
 21
61.536
  0
LINE
  8
0
 10
15.482
 11
15.548
 20
61.536
 21
61.6
  0
LINE
  8
0
 10
15.548
 11
15.62
 20
61.6
 21
61.657
  0
LINE
  8
0
 10
15.62
 11
15.699
 20
61.657
 21
61.704
  0
LINE
  8
0
 10
15.699
 11
15.784
 20
61.704
 21
61.74
  0
LINE
  8
0
 10
15.784
 11
15.872
 20
61.74
 21
61.766
  0
LINE
  8
0
 10
15.872
 11
15.964
 20
61.766
 21
61.78
  0
LINE
  8
0
 10
15.964
 11
16.055
 20
61.78
 21
61.783
  0
LINE
  8
0
 10
16.055
 11
16.147
 20
61.783
 21
61.775
  0
LINE
  8
0
 10
16.147
 11
16.237
 20
61.775
 21
61.755
  0
LINE
  8
0
 10
16.237
 11
16.324
 20
61.755
 21
61.723
  0
LINE
  8
0
 10
16.324
 11
16.406
 20
61.723
 21
61.682
  0
LINE
  8
0
 10
16.406
 11
16.482
 20
61.682
 21
61.63
  0
LINE
  8
0
 10
16.482
 11
16.551
 20
61.63
 21
61.569
  0
LINE
  8
0
 10
16.551
 11
16.612
 20
61.569
 21
61.5
  0
LINE
  8
0
 10
16.612
 11
16.664
 20
61.5
 21
61.424
  0
LINE
  8
0
 10
16.664
 11
16.706
 20
61.424
 21
61.342
  0
LINE
  8
0
 10
16.706
 11
16.737
 20
61.342
 21
61.255
  0
LINE
  8
0
 10
16.737
 11
16.757
 20
61.255
 21
61.165
  0
LINE
  8
0
 10
16.757
 11
16.765
 20
61.165
 21
61.073
  0
LINE
  8
0
 10
16.765
 11
16.763
 20
61.073
 21
60.981
  0
LINE
  8
0
 10
16.763
 11
16.748
 20
60.981
 21
60.89
  0
LINE
  8
0
 10
16.748
 11
16.722
 20
60.89
 21
60.802
  0
LINE
  8
0
 10
16.722
 11
16.686
 20
60.802
 21
60.717
  0
LINE
  8
0
 10
16.686
 11
16.639
 20
60.717
 21
60.638
  0
LINE
  8
0
 10
16.639
 11
16.582
 20
60.638
 21
60.566
  0
LINE
  8
0
 10
16.582
 11
16.517
 20
60.566
 21
60.5
  0
LINE
  8
0
 10
16.517
 11
16.445
 20
60.5
 21
60.444
  0
LINE
  8
0
 10
16.445
 11
16.365
 20
60.444
 21
60.397
  0
LINE
  8
0
 10
16.365
 11
16.281
 20
60.397
 21
60.36
  0
LINE
  8
0
 10
16.281
 11
16.192
 20
60.36
 21
60.335
  0
LINE
  8
0
 10
16.192
 11
16.101
 20
60.335
 21
60.32
  0
LINE
  8
0
 10
16.101
 11
16.009
 20
60.32
 21
60.317
  0
LINE
  8
0
 10
16.009
 11
15.918
 20
60.317
 21
60.326
  0
LINE
  8
0
 10
15.918
 11
15.828
 20
60.326
 21
60.346
  0
LINE
  8
0
 10
15.828
 11
15.741
 20
60.346
 21
60.378
  0
LINE
  8
0
 10
15.741
 11
15.659
 20
60.378
 21
60.419
  0
LINE
  8
0
 10
15.659
 11
15.583
 20
60.419
 21
60.471
  0
LINE
  8
0
 10
15.583
 11
15.514
 20
60.471
 21
60.532
  0
LINE
  8
0
 10
15.514
 11
15.453
 20
60.532
 21
60.601
  0
LINE
  8
0
 10
15.453
 11
15.401
 20
60.601
 21
60.677
  0
LINE
  8
0
 10
15.401
 11
15.359
 20
60.677
 21
60.759
  0
LINE
  8
0
 10
15.359
 11
15.328
 20
60.759
 21
60.846
  0
LINE
  8
0
 10
15.328
 11
15.308
 20
60.846
 21
60.936
  0
LINE
  8
0
 10
15.308
 11
15.3
 20
60.936
 21
61.027
  0
LINE
  8
0
 10
15.3
 11
15.302
 20
132.694
 21
132.786
  0
LINE
  8
0
 10
15.302
 11
15.317
 20
132.786
 21
132.877
  0
LINE
  8
0
 10
15.317
 11
15.342
 20
132.877
 21
132.966
  0
LINE
  8
0
 10
15.342
 11
15.379
 20
132.966
 21
133.05
  0
LINE
  8
0
 10
15.379
 11
15.426
 20
133.05
 21
133.129
  0
LINE
  8
0
 10
15.426
 11
15.482
 20
133.129
 21
133.202
  0
LINE
  8
0
 10
15.482
 11
15.548
 20
133.202
 21
133.267
  0
LINE
  8
0
 10
15.548
 11
15.62
 20
133.267
 21
133.324
  0
LINE
  8
0
 10
15.62
 11
15.699
 20
133.324
 21
133.371
  0
LINE
  8
0
 10
15.699
 11
15.784
 20
133.371
 21
133.407
  0
LINE
  8
0
 10
15.784
 11
15.872
 20
133.407
 21
133.433
  0
LINE
  8
0
 10
15.872
 11
15.964
 20
133.433
 21
133.447
  0
LINE
  8
0
 10
15.964
 11
16.055
 20
133.447
 21
133.45
  0
LINE
  8
0
 10
16.055
 11
16.147
 20
133.45
 21
133.442
  0
LINE
  8
0
 10
16.147
 11
16.237
 20
133.442
 21
133.421
  0
LINE
  8
0
 10
16.237
 11
16.324
 20
133.421
 21
133.39
  0
LINE
  8
0
 10
16.324
 11
16.406
 20
133.39
 21
133.348
  0
LINE
  8
0
 10
16.406
 11
16.482
 20
133.348
 21
133.296
  0
LINE
  8
0
 10
16.482
 11
16.551
 20
133.296
 21
133.236
  0
LINE
  8
0
 10
16.551
 11
16.612
 20
133.236
 21
133.167
  0
LINE
  8
0
 10
16.612
 11
16.664
 20
133.167
 21
133.091
  0
LINE
  8
0
 10
16.664
 11
16.706
 20
133.091
 21
133.008
  0
LINE
  8
0
 10
16.706
 11
16.737
 20
133.008
 21
132.922
  0
LINE
  8
0
 10
16.737
 11
16.757
 20
132.922
 21
132.832
  0
LINE
  8
0
 10
16.757
 11
16.765
 20
132.832
 21
132.74
  0
LINE
  8
0
 10
16.765
 11
16.763
 20
132.74
 21
132.648
  0
LINE
  8
0
 10
16.763
 11
16.748
 20
132.648
 21
132.557
  0
LINE
  8
0
 10
16.748
 11
16.722
 20
132.557
 21
132.469
  0
LINE
  8
0
 10
16.722
 11
16.686
 20
132.469
 21
132.384
  0
LINE
  8
0
 10
16.686
 11
16.639
 20
132.384
 21
132.305
  0
LINE
  8
0
 10
16.639
 11
16.582
 20
132.305
 21
132.232
  0
LINE
  8
0
 10
16.582
 11
16.517
 20
132.232
 21
132.167
  0
LINE
  8
0
 10
16.517
 11
16.445
 20
132.167
 21
132.111
  0
LINE
  8
0
 10
16.445
 11
16.365
 20
132.111
 21
132.064
  0
LINE
  8
0
 10
16.365
 11
16.281
 20
132.064
 21
132.027
  0
LINE
  8
0
 10
16.281
 11
16.192
 20
132.027
 21
132.002
  0
LINE
  8
0
 10
16.192
 11
16.101
 20
132.002
 21
131.987
  0
LINE
  8
0
 10
16.101
 11
16.009
 20
131.987
 21
131.984
  0
LINE
  8
0
 10
16.009
 11
15.918
 20
131.984
 21
131.993
  0
LINE
  8
0
 10
15.918
 11
15.828
 20
131.993
 21
132.013
  0
LINE
  8
0
 10
15.828
 11
15.741
 20
132.013
 21
132.044
  0
LINE
  8
0
 10
15.741
 11
15.659
 20
132.044
 21
132.086
  0
LINE
  8
0
 10
15.659
 11
15.583
 20
132.086
 21
132.138
  0
LINE
  8
0
 10
15.583
 11
15.514
 20
132.138
 21
132.199
  0
LINE
  8
0
 10
15.514
 11
15.453
 20
132.199
 21
132.268
  0
LINE
  8
0
 10
15.453
 11
15.401
 20
132.268
 21
132.344
  0
LINE
  8
0
 10
15.401
 11
15.359
 20
132.344
 21
132.426
  0
LINE
  8
0
 10
15.359
 11
15.328
 20
132.426
 21
132.513
  0
LINE
  8
0
 10
15.328
 11
15.308
 20
132.513
 21
132.602
  0
LINE
  8
0
 10
15.308
 11
15.3
 20
132.602
 21
132.694
  0
LINE
  8
0
 10
17.097
 11
17.098
 20
59.625
 21
59.669
  0
LINE
  8
0
 10
17.098
 11
17.105
 20
59.669
 21
59.713
  0
LINE
  8
0
 10
17.105
 11
17.117
 20
59.713
 21
59.755
  0
LINE
  8
0
 10
17.117
 11
17.135
 20
59.755
 21
59.795
  0
LINE
  8
0
 10
17.135
 11
17.157
 20
59.795
 21
59.833
  0
LINE
  8
0
 10
17.157
 11
17.184
 20
59.833
 21
59.868
  0
LINE
  8
0
 10
17.184
 11
17.215
 20
59.868
 21
59.899
  0
LINE
  8
0
 10
17.215
 11
17.25
 20
59.899
 21
59.926
  0
LINE
  8
0
 10
17.25
 11
17.288
 20
59.926
 21
59.948
  0
LINE
  8
0
 10
17.288
 11
17.328
 20
59.948
 21
59.966
  0
LINE
  8
0
 10
17.328
 11
17.37
 20
59.966
 21
59.978
  0
LINE
  8
0
 10
17.37
 11
17.414
 20
59.978
 21
59.985
  0
LINE
  8
0
 10
17.414
 11
17.458
 20
59.985
 21
59.986
  0
LINE
  8
0
 10
17.458
 11
17.501
 20
59.986
 21
59.982
  0
LINE
  8
0
 10
17.501
 11
17.544
 20
59.982
 21
59.972
  0
LINE
  8
0
 10
17.544
 11
17.586
 20
59.972
 21
59.957
  0
LINE
  8
0
 10
17.586
 11
17.625
 20
59.957
 21
59.938
  0
LINE
  8
0
 10
17.625
 11
17.661
 20
59.938
 21
59.913
  0
LINE
  8
0
 10
17.661
 11
17.694
 20
59.913
 21
59.884
  0
LINE
  8
0
 10
17.694
 11
17.723
 20
59.884
 21
59.851
  0
LINE
  8
0
 10
17.723
 11
17.748
 20
59.851
 21
59.814
  0
LINE
  8
0
 10
17.748
 11
17.768
 20
59.814
 21
59.775
  0
LINE
  8
0
 10
17.768
 11
17.783
 20
59.775
 21
59.734
  0
LINE
  8
0
 10
17.783
 11
17.792
 20
59.734
 21
59.691
  0
LINE
  8
0
 10
17.792
 11
17.796
 20
59.691
 21
59.647
  0
LINE
  8
0
 10
17.796
 11
17.795
 20
59.647
 21
59.603
  0
LINE
  8
0
 10
17.795
 11
17.788
 20
59.603
 21
59.56
  0
LINE
  8
0
 10
17.788
 11
17.776
 20
59.56
 21
59.518
  0
LINE
  8
0
 10
17.776
 11
17.758
 20
59.518
 21
59.477
  0
LINE
  8
0
 10
17.758
 11
17.736
 20
59.477
 21
59.439
  0
LINE
  8
0
 10
17.736
 11
17.709
 20
59.439
 21
59.405
  0
LINE
  8
0
 10
17.709
 11
17.678
 20
59.405
 21
59.374
  0
LINE
  8
0
 10
17.678
 11
17.643
 20
59.374
 21
59.347
  0
LINE
  8
0
 10
17.643
 11
17.606
 20
59.347
 21
59.325
  0
LINE
  8
0
 10
17.606
 11
17.565
 20
59.325
 21
59.307
  0
LINE
  8
0
 10
17.565
 11
17.523
 20
59.307
 21
59.295
  0
LINE
  8
0
 10
17.523
 11
17.479
 20
59.295
 21
59.288
  0
LINE
  8
0
 10
17.479
 11
17.436
 20
59.288
 21
59.286
  0
LINE
  8
0
 10
17.436
 11
17.392
 20
59.286
 21
59.291
  0
LINE
  8
0
 10
17.392
 11
17.349
 20
59.291
 21
59.3
  0
LINE
  8
0
 10
17.349
 11
17.307
 20
59.3
 21
59.315
  0
LINE
  8
0
 10
17.307
 11
17.268
 20
59.315
 21
59.335
  0
LINE
  8
0
 10
17.268
 11
17.232
 20
59.335
 21
59.36
  0
LINE
  8
0
 10
17.232
 11
17.199
 20
59.36
 21
59.389
  0
LINE
  8
0
 10
17.199
 11
17.17
 20
59.389
 21
59.422
  0
LINE
  8
0
 10
17.17
 11
17.145
 20
59.422
 21
59.458
  0
LINE
  8
0
 10
17.145
 11
17.125
 20
59.458
 21
59.497
  0
LINE
  8
0
 10
17.125
 11
17.11
 20
59.497
 21
59.539
  0
LINE
  8
0
 10
17.11
 11
17.101
 20
59.539
 21
59.582
  0
LINE
  8
0
 10
17.101
 11
17.097
 20
59.582
 21
59.625
  0
LINE
  8
0
 10
17.097
 11
17.098
 20
131.292
 21
131.336
  0
LINE
  8
0
 10
17.098
 11
17.105
 20
131.336
 21
131.379
  0
LINE
  8
0
 10
17.105
 11
17.117
 20
131.379
 21
131.421
  0
LINE
  8
0
 10
17.117
 11
17.135
 20
131.421
 21
131.462
  0
LINE
  8
0
 10
17.135
 11
17.157
 20
131.462
 21
131.5
  0
LINE
  8
0
 10
17.157
 11
17.184
 20
131.5
 21
131.534
  0
LINE
  8
0
 10
17.184
 11
17.215
 20
131.534
 21
131.565
  0
LINE
  8
0
 10
17.215
 11
17.25
 20
131.565
 21
131.593
  0
LINE
  8
0
 10
17.25
 11
17.288
 20
131.593
 21
131.615
  0
LINE
  8
0
 10
17.288
 11
17.328
 20
131.615
 21
131.632
  0
LINE
  8
0
 10
17.328
 11
17.37
 20
131.632
 21
131.645
  0
LINE
  8
0
 10
17.37
 11
17.414
 20
131.645
 21
131.651
  0
LINE
  8
0
 10
17.414
 11
17.458
 20
131.651
 21
131.653
  0
LINE
  8
0
 10
17.458
 11
17.501
 20
131.653
 21
131.648
  0
LINE
  8
0
 10
17.501
 11
17.544
 20
131.648
 21
131.639
  0
LINE
  8
0
 10
17.544
 11
17.586
 20
131.639
 21
131.624
  0
LINE
  8
0
 10
17.586
 11
17.625
 20
131.624
 21
131.604
  0
LINE
  8
0
 10
17.625
 11
17.661
 20
131.604
 21
131.579
  0
LINE
  8
0
 10
17.661
 11
17.694
 20
131.579
 21
131.55
  0
LINE
  8
0
 10
17.694
 11
17.723
 20
131.55
 21
131.517
  0
LINE
  8
0
 10
17.723
 11
17.748
 20
131.517
 21
131.481
  0
LINE
  8
0
 10
17.748
 11
17.768
 20
131.481
 21
131.442
  0
LINE
  8
0
 10
17.768
 11
17.783
 20
131.442
 21
131.401
  0
LINE
  8
0
 10
17.783
 11
17.792
 20
131.401
 21
131.358
  0
LINE
  8
0
 10
17.792
 11
17.796
 20
131.358
 21
131.314
  0
LINE
  8
0
 10
17.796
 11
17.795
 20
131.314
 21
131.27
  0
LINE
  8
0
 10
17.795
 11
17.788
 20
131.27
 21
131.226
  0
LINE
  8
0
 10
17.788
 11
17.776
 20
131.226
 21
131.184
  0
LINE
  8
0
 10
17.776
 11
17.758
 20
131.184
 21
131.144
  0
LINE
  8
0
 10
17.758
 11
17.736
 20
131.144
 21
131.106
  0
LINE
  8
0
 10
17.736
 11
17.709
 20
131.106
 21
131.071
  0
LINE
  8
0
 10
17.709
 11
17.678
 20
131.071
 21
131.04
  0
LINE
  8
0
 10
17.678
 11
17.643
 20
131.04
 21
131.013
  0
LINE
  8
0
 10
17.643
 11
17.606
 20
131.013
 21
130.991
  0
LINE
  8
0
 10
17.606
 11
17.565
 20
130.991
 21
130.974
  0
LINE
  8
0
 10
17.565
 11
17.523
 20
130.974
 21
130.961
  0
LINE
  8
0
 10
17.523
 11
17.479
 20
130.961
 21
130.955
  0
LINE
  8
0
 10
17.479
 11
17.436
 20
130.955
 21
130.953
  0
LINE
  8
0
 10
17.436
 11
17.392
 20
130.953
 21
130.957
  0
LINE
  8
0
 10
17.392
 11
17.349
 20
130.957
 21
130.967
  0
LINE
  8
0
 10
17.349
 11
17.307
 20
130.967
 21
130.982
  0
LINE
  8
0
 10
17.307
 11
17.268
 20
130.982
 21
131.002
  0
LINE
  8
0
 10
17.268
 11
17.232
 20
131.002
 21
131.027
  0
LINE
  8
0
 10
17.232
 11
17.199
 20
131.027
 21
131.055
  0
LINE
  8
0
 10
17.199
 11
17.17
 20
131.055
 21
131.088
  0
LINE
  8
0
 10
17.17
 11
17.145
 20
131.088
 21
131.125
  0
LINE
  8
0
 10
17.145
 11
17.125
 20
131.125
 21
131.164
  0
LINE
  8
0
 10
17.125
 11
17.11
 20
131.164
 21
131.205
  0
LINE
  8
0
 10
17.11
 11
17.101
 20
131.205
 21
131.248
  0
LINE
  8
0
 10
17.101
 11
17.097
 20
131.248
 21
131.292
  0
LINE
  8
0
 10
18.277
 11
18.283
 20
16.43
 21
16.521
  0
LINE
  8
0
 10
18.283
 11
18.302
 20
16.521
 21
16.612
  0
LINE
  8
0
 10
18.302
 11
18.331
 20
16.612
 21
16.699
  0
LINE
  8
0
 10
18.331
 11
18.371
 20
16.699
 21
16.782
  0
LINE
  8
0
 10
18.371
 11
18.421
 20
16.782
 21
16.859
  0
LINE
  8
0
 10
18.421
 11
18.481
 20
16.859
 21
16.929
  0
LINE
  8
0
 10
18.481
 11
18.548
 20
16.929
 21
16.992
  0
LINE
  8
0
 10
18.548
 11
18.624
 20
16.992
 21
17.045
  0
LINE
  8
0
 10
18.624
 11
18.705
 20
17.045
 21
17.089
  0
LINE
  8
0
 10
18.705
 11
18.79
 20
17.089
 21
17.121
  0
LINE
  8
0
 10
18.79
 11
18.88
 20
17.121
 21
17.144
  0
LINE
  8
0
 10
18.88
 11
18.972
 20
17.144
 21
17.154
  0
LINE
  8
0
 10
18.972
 11
19.064
 20
17.154
 21
17.153
  0
LINE
  8
0
 10
19.064
 11
19.155
 20
17.153
 21
17.141
  0
LINE
  8
0
 10
19.155
 11
19.244
 20
17.141
 21
17.117
  0
LINE
  8
0
 10
19.244
 11
19.329
 20
17.117
 21
17.082
  0
LINE
  8
0
 10
19.329
 11
19.409
 20
17.082
 21
17.037
  0
LINE
  8
0
 10
19.409
 11
19.483
 20
17.037
 21
16.982
  0
LINE
  8
0
 10
19.483
 11
19.55
 20
16.982
 21
16.918
  0
LINE
  8
0
 10
19.55
 11
19.608
 20
16.918
 21
16.847
  0
LINE
  8
0
 10
19.608
 11
19.656
 20
16.847
 21
16.768
  0
LINE
  8
0
 10
19.656
 11
19.695
 20
16.768
 21
16.685
  0
LINE
  8
0
 10
19.695
 11
19.722
 20
16.685
 21
16.597
  0
LINE
  8
0
 10
19.722
 11
19.738
 20
16.597
 21
16.506
  0
LINE
  8
0
 10
19.738
 11
19.743
 20
16.506
 21
16.414
  0
LINE
  8
0
 10
19.743
 11
19.737
 20
16.414
 21
16.322
  0
LINE
  8
0
 10
19.737
 11
19.718
 20
16.322
 21
16.232
  0
LINE
  8
0
 10
19.718
 11
19.689
 20
16.232
 21
16.145
  0
LINE
  8
0
 10
19.689
 11
19.649
 20
16.145
 21
16.062
  0
LINE
  8
0
 10
19.649
 11
19.599
 20
16.062
 21
15.984
  0
LINE
  8
0
 10
19.599
 11
19.539
 20
15.984
 21
15.914
  0
LINE
  8
0
 10
19.539
 11
19.472
 20
15.914
 21
15.852
  0
LINE
  8
0
 10
19.472
 11
19.396
 20
15.852
 21
15.798
  0
LINE
  8
0
 10
19.396
 11
19.315
 20
15.798
 21
15.755
  0
LINE
  8
0
 10
19.315
 11
19.229
 20
15.755
 21
15.722
  0
LINE
  8
0
 10
19.229
 11
19.14
 20
15.722
 21
15.7
  0
LINE
  8
0
 10
19.14
 11
19.048
 20
15.7
 21
15.689
  0
LINE
  8
0
 10
19.048
 11
18.956
 20
15.689
 21
15.69
  0
LINE
  8
0
 10
18.956
 11
18.865
 20
15.69
 21
15.703
  0
LINE
  8
0
 10
18.865
 11
18.776
 20
15.703
 21
15.727
  0
LINE
  8
0
 10
18.776
 11
18.691
 20
15.727
 21
15.762
  0
LINE
  8
0
 10
18.691
 11
18.61
 20
15.762
 21
15.807
  0
LINE
  8
0
 10
18.61
 11
18.537
 20
15.807
 21
15.862
  0
LINE
  8
0
 10
18.537
 11
18.47
 20
15.862
 21
15.926
  0
LINE
  8
0
 10
18.47
 11
18.412
 20
15.926
 21
15.997
  0
LINE
  8
0
 10
18.412
 11
18.364
 20
15.997
 21
16.075
  0
LINE
  8
0
 10
18.364
 11
18.325
 20
16.075
 21
16.159
  0
LINE
  8
0
 10
18.325
 11
18.298
 20
16.159
 21
16.247
  0
LINE
  8
0
 10
18.298
 11
18.281
 20
16.247
 21
16.337
  0
LINE
  8
0
 10
18.281
 11
18.277
 20
16.337
 21
16.43
  0
LINE
  8
0
 10
18.277
 11
18.283
 20
88.096
 21
88.188
  0
LINE
  8
0
 10
18.283
 11
18.302
 20
88.188
 21
88.278
  0
LINE
  8
0
 10
18.302
 11
18.331
 20
88.278
 21
88.366
  0
LINE
  8
0
 10
18.331
 11
18.371
 20
88.366
 21
88.449
  0
LINE
  8
0
 10
18.371
 11
18.421
 20
88.449
 21
88.526
  0
LINE
  8
0
 10
18.421
 11
18.481
 20
88.526
 21
88.596
  0
LINE
  8
0
 10
18.481
 11
18.548
 20
88.596
 21
88.658
  0
LINE
  8
0
 10
18.548
 11
18.624
 20
88.658
 21
88.712
  0
LINE
  8
0
 10
18.624
 11
18.705
 20
88.712
 21
88.755
  0
LINE
  8
0
 10
18.705
 11
18.79
 20
88.755
 21
88.788
  0
LINE
  8
0
 10
18.79
 11
18.88
 20
88.788
 21
88.81
  0
LINE
  8
0
 10
18.88
 11
18.972
 20
88.81
 21
88.821
  0
LINE
  8
0
 10
18.972
 11
19.064
 20
88.821
 21
88.82
  0
LINE
  8
0
 10
19.064
 11
19.155
 20
88.82
 21
88.807
  0
LINE
  8
0
 10
19.155
 11
19.244
 20
88.807
 21
88.783
  0
LINE
  8
0
 10
19.244
 11
19.329
 20
88.783
 21
88.749
  0
LINE
  8
0
 10
19.329
 11
19.409
 20
88.749
 21
88.703
  0
LINE
  8
0
 10
19.409
 11
19.483
 20
88.703
 21
88.649
  0
LINE
  8
0
 10
19.483
 11
19.55
 20
88.649
 21
88.585
  0
LINE
  8
0
 10
19.55
 11
19.608
 20
88.585
 21
88.513
  0
LINE
  8
0
 10
19.608
 11
19.656
 20
88.513
 21
88.435
  0
LINE
  8
0
 10
19.656
 11
19.695
 20
88.435
 21
88.351
  0
LINE
  8
0
 10
19.695
 11
19.722
 20
88.351
 21
88.263
  0
LINE
  8
0
 10
19.722
 11
19.738
 20
88.263
 21
88.173
  0
LINE
  8
0
 10
19.738
 11
19.743
 20
88.173
 21
88.081
  0
LINE
  8
0
 10
19.743
 11
19.737
 20
88.081
 21
87.989
  0
LINE
  8
0
 10
19.737
 11
19.718
 20
87.989
 21
87.899
  0
LINE
  8
0
 10
19.718
 11
19.689
 20
87.899
 21
87.811
  0
LINE
  8
0
 10
19.689
 11
19.649
 20
87.811
 21
87.729
  0
LINE
  8
0
 10
19.649
 11
19.599
 20
87.729
 21
87.651
  0
LINE
  8
0
 10
19.599
 11
19.539
 20
87.651
 21
87.581
  0
LINE
  8
0
 10
19.539
 11
19.472
 20
87.581
 21
87.519
  0
LINE
  8
0
 10
19.472
 11
19.396
 20
87.519
 21
87.465
  0
LINE
  8
0
 10
19.396
 11
19.315
 20
87.465
 21
87.422
  0
LINE
  8
0
 10
19.315
 11
19.229
 20
87.422
 21
87.389
  0
LINE
  8
0
 10
19.229
 11
19.14
 20
87.389
 21
87.367
  0
LINE
  8
0
 10
19.14
 11
19.048
 20
87.367
 21
87.356
  0
LINE
  8
0
 10
19.048
 11
18.956
 20
87.356
 21
87.357
  0
LINE
  8
0
 10
18.956
 11
18.865
 20
87.357
 21
87.37
  0
LINE
  8
0
 10
18.865
 11
18.776
 20
87.37
 21
87.394
  0
LINE
  8
0
 10
18.776
 11
18.691
 20
87.394
 21
87.428
  0
LINE
  8
0
 10
18.691
 11
18.61
 20
87.428
 21
87.473
  0
LINE
  8
0
 10
18.61
 11
18.537
 20
87.473
 21
87.528
  0
LINE
  8
0
 10
18.537
 11
18.47
 20
87.528
 21
87.592
  0
LINE
  8
0
 10
18.47
 11
18.412
 20
87.592
 21
87.664
  0
LINE
  8
0
 10
18.412
 11
18.364
 20
87.664
 21
87.742
  0
LINE
  8
0
 10
18.364
 11
18.325
 20
87.742
 21
87.826
  0
LINE
  8
0
 10
18.325
 11
18.298
 20
87.826
 21
87.914
  0
LINE
  8
0
 10
18.298
 11
18.281
 20
87.914
 21
88.004
  0
LINE
  8
0
 10
18.281
 11
18.277
 20
88.004
 21
88.096
  0
LINE
  8
0
 10
19.177
 11
19.181
 20
18.357
 21
18.401
  0
LINE
  8
0
 10
19.181
 11
19.189
 20
18.401
 21
18.444
  0
LINE
  8
0
 10
19.189
 11
19.204
 20
18.444
 21
18.486
  0
LINE
  8
0
 10
19.204
 11
19.223
 20
18.486
 21
18.525
  0
LINE
  8
0
 10
19.223
 11
19.246
 20
18.525
 21
18.562
  0
LINE
  8
0
 10
19.246
 11
19.275
 20
18.562
 21
18.596
  0
LINE
  8
0
 10
19.275
 11
19.307
 20
18.596
 21
18.626
  0
LINE
  8
0
 10
19.307
 11
19.343
 20
18.626
 21
18.651
  0
LINE
  8
0
 10
19.343
 11
19.382
 20
18.651
 21
18.672
  0
LINE
  8
0
 10
19.382
 11
19.423
 20
18.672
 21
18.688
  0
LINE
  8
0
 10
19.423
 11
19.466
 20
18.688
 21
18.698
  0
LINE
  8
0
 10
19.466
 11
19.509
 20
18.698
 21
18.703
  0
LINE
  8
0
 10
19.509
 11
19.553
 20
18.703
 21
18.703
  0
LINE
  8
0
 10
19.553
 11
19.597
 20
18.703
 21
18.697
  0
LINE
  8
0
 10
19.597
 11
19.639
 20
18.697
 21
18.685
  0
LINE
  8
0
 10
19.639
 11
19.68
 20
18.685
 21
18.669
  0
LINE
  8
0
 10
19.68
 11
19.718
 20
18.669
 21
18.647
  0
LINE
  8
0
 10
19.718
 11
19.754
 20
18.647
 21
18.621
  0
LINE
  8
0
 10
19.754
 11
19.785
 20
18.621
 21
18.591
  0
LINE
  8
0
 10
19.785
 11
19.813
 20
18.591
 21
18.556
  0
LINE
  8
0
 10
19.813
 11
19.836
 20
18.556
 21
18.519
  0
LINE
  8
0
 10
19.836
 11
19.854
 20
18.519
 21
18.479
  0
LINE
  8
0
 10
19.854
 11
19.867
 20
18.479
 21
18.437
  0
LINE
  8
0
 10
19.867
 11
19.875
 20
18.437
 21
18.394
  0
LINE
  8
0
 10
19.875
 11
19.877
 20
18.394
 21
18.35
  0
LINE
  8
0
 10
19.877
 11
19.874
 20
18.35
 21
18.306
  0
LINE
  8
0
 10
19.874
 11
19.866
 20
18.306
 21
18.263
  0
LINE
  8
0
 10
19.866
 11
19.851
 20
18.263
 21
18.222
  0
LINE
  8
0
 10
19.851
 11
19.832
 20
18.222
 21
18.182
  0
LINE
  8
0
 10
19.832
 11
19.809
 20
18.182
 21
18.145
  0
LINE
  8
0
 10
19.809
 11
19.78
 20
18.145
 21
18.111
  0
LINE
  8
0
 10
19.78
 11
19.748
 20
18.111
 21
18.082
  0
LINE
  8
0
 10
19.748
 11
19.712
 20
18.082
 21
18.056
  0
LINE
  8
0
 10
19.712
 11
19.673
 20
18.056
 21
18.035
  0
LINE
  8
0
 10
19.673
 11
19.632
 20
18.035
 21
18.02
  0
LINE
  8
0
 10
19.632
 11
19.589
 20
18.02
 21
18.009
  0
LINE
  8
0
 10
19.589
 11
19.546
 20
18.009
 21
18.004
  0
LINE
  8
0
 10
19.546
 11
19.502
 20
18.004
 21
18.005
  0
LINE
  8
0
 10
19.502
 11
19.458
 20
18.005
 21
18.011
  0
LINE
  8
0
 10
19.458
 11
19.416
 20
18.011
 21
18.022
  0
LINE
  8
0
 10
19.416
 11
19.375
 20
18.022
 21
18.039
  0
LINE
  8
0
 10
19.375
 11
19.337
 20
18.039
 21
18.06
  0
LINE
  8
0
 10
19.337
 11
19.302
 20
18.06
 21
18.086
  0
LINE
  8
0
 10
19.302
 11
19.27
 20
18.086
 21
18.117
  0
LINE
  8
0
 10
19.27
 11
19.242
 20
18.117
 21
18.151
  0
LINE
  8
0
 10
19.242
 11
19.219
 20
18.151
 21
18.188
  0
LINE
  8
0
 10
19.219
 11
19.201
 20
18.188
 21
18.228
  0
LINE
  8
0
 10
19.201
 11
19.188
 20
18.228
 21
18.27
  0
LINE
  8
0
 10
19.188
 11
19.18
 20
18.27
 21
18.313
  0
LINE
  8
0
 10
19.18
 11
19.177
 20
18.313
 21
18.357
  0
LINE
  8
0
 10
19.177
 11
19.181
 20
90.024
 21
90.068
  0
LINE
  8
0
 10
19.181
 11
19.189
 20
90.068
 21
90.111
  0
LINE
  8
0
 10
19.189
 11
19.204
 20
90.111
 21
90.152
  0
LINE
  8
0
 10
19.204
 11
19.223
 20
90.152
 21
90.192
  0
LINE
  8
0
 10
19.223
 11
19.246
 20
90.192
 21
90.229
  0
LINE
  8
0
 10
19.246
 11
19.275
 20
90.229
 21
90.263
  0
LINE
  8
0
 10
19.275
 11
19.307
 20
90.263
 21
90.292
  0
LINE
  8
0
 10
19.307
 11
19.343
 20
90.292
 21
90.318
  0
LINE
  8
0
 10
19.343
 11
19.382
 20
90.318
 21
90.339
  0
LINE
  8
0
 10
19.382
 11
19.423
 20
90.339
 21
90.354
  0
LINE
  8
0
 10
19.423
 11
19.466
 20
90.354
 21
90.365
  0
LINE
  8
0
 10
19.466
 11
19.509
 20
90.365
 21
90.37
  0
LINE
  8
0
 10
19.509
 11
19.553
 20
90.37
 21
90.37
  0
LINE
  8
0
 10
19.553
 11
19.597
 20
90.37
 21
90.364
  0
LINE
  8
0
 10
19.597
 11
19.639
 20
90.364
 21
90.352
  0
LINE
  8
0
 10
19.639
 11
19.68
 20
90.352
 21
90.335
  0
LINE
  8
0
 10
19.68
 11
19.718
 20
90.335
 21
90.314
  0
LINE
  8
0
 10
19.718
 11
19.754
 20
90.314
 21
90.288
  0
LINE
  8
0
 10
19.754
 11
19.785
 20
90.288
 21
90.257
  0
LINE
  8
0
 10
19.785
 11
19.813
 20
90.257
 21
90.223
  0
LINE
  8
0
 10
19.813
 11
19.836
 20
90.223
 21
90.186
  0
LINE
  8
0
 10
19.836
 11
19.854
 20
90.186
 21
90.146
  0
LINE
  8
0
 10
19.854
 11
19.867
 20
90.146
 21
90.104
  0
LINE
  8
0
 10
19.867
 11
19.875
 20
90.104
 21
90.06
  0
LINE
  8
0
 10
19.875
 11
19.877
 20
90.06
 21
90.017
  0
LINE
  8
0
 10
19.877
 11
19.874
 20
90.017
 21
89.973
  0
LINE
  8
0
 10
19.874
 11
19.866
 20
89.973
 21
89.93
  0
LINE
  8
0
 10
19.866
 11
19.851
 20
89.93
 21
89.888
  0
LINE
  8
0
 10
19.851
 11
19.832
 20
89.888
 21
89.849
  0
LINE
  8
0
 10
19.832
 11
19.809
 20
89.849
 21
89.812
  0
LINE
  8
0
 10
19.809
 11
19.78
 20
89.812
 21
89.778
  0
LINE
  8
0
 10
19.78
 11
19.748
 20
89.778
 21
89.748
  0
LINE
  8
0
 10
19.748
 11
19.712
 20
89.748
 21
89.723
  0
LINE
  8
0
 10
19.712
 11
19.673
 20
89.723
 21
89.702
  0
LINE
  8
0
 10
19.673
 11
19.632
 20
89.702
 21
89.686
  0
LINE
  8
0
 10
19.632
 11
19.589
 20
89.686
 21
89.676
  0
LINE
  8
0
 10
19.589
 11
19.546
 20
89.676
 21
89.671
  0
LINE
  8
0
 10
19.546
 11
19.502
 20
89.671
 21
89.671
  0
LINE
  8
0
 10
19.502
 11
19.458
 20
89.671
 21
89.677
  0
LINE
  8
0
 10
19.458
 11
19.416
 20
89.677
 21
89.688
  0
LINE
  8
0
 10
19.416
 11
19.375
 20
89.688
 21
89.705
  0
LINE
  8
0
 10
19.375
 11
19.337
 20
89.705
 21
89.727
  0
LINE
  8
0
 10
19.337
 11
19.302
 20
89.727
 21
89.753
  0
LINE
  8
0
 10
19.302
 11
19.27
 20
89.753
 21
89.783
  0
LINE
  8
0
 10
19.27
 11
19.242
 20
89.783
 21
89.818
  0
LINE
  8
0
 10
19.242
 11
19.219
 20
89.818
 21
89.855
  0
LINE
  8
0
 10
19.219
 11
19.201
 20
89.855
 21
89.895
  0
LINE
  8
0
 10
19.201
 11
19.188
 20
89.895
 21
89.937
  0
LINE
  8
0
 10
19.188
 11
19.18
 20
89.937
 21
89.98
  0
LINE
  8
0
 10
19.18
 11
19.177
 20
89.98
 21
90.024
  0
LINE
  8
0
 10
19.633
 11
20.8
 20
11.391
 21
15.746
  0
LINE
  8
0
 10
20.8
 11
26.797
 20
15.746
 21
14.138
  0
LINE
  8
0
 10
26.797
 11
25.63
 20
14.138
 21
9.784
  0
LINE
  8
0
 10
25.63
 11
19.633
 20
9.784
 21
11.391
  0
LINE
  8
0
 10
19.633
 11
20.8
 20
83.057
 21
87.412
  0
LINE
  8
0
 10
20.8
 11
26.797
 20
87.412
 21
85.805
  0
LINE
  8
0
 10
26.797
 11
25.63
 20
85.805
 21
81.45
  0
LINE
  8
0
 10
25.63
 11
19.633
 20
81.45
 21
83.057
  0
LINE
  8
0
 10
20.73
 11
20.734
 20
24.153
 21
24.197
  0
LINE
  8
0
 10
20.734
 11
20.742
 20
24.197
 21
24.24
  0
LINE
  8
0
 10
20.742
 11
20.757
 20
24.24
 21
24.281
  0
LINE
  8
0
 10
20.757
 11
20.775
 20
24.281
 21
24.321
  0
LINE
  8
0
 10
20.775
 11
20.799
 20
24.321
 21
24.358
  0
LINE
  8
0
 10
20.799
 11
20.828
 20
24.358
 21
24.392
  0
LINE
  8
0
 10
20.828
 11
20.86
 20
24.392
 21
24.421
  0
LINE
  8
0
 10
20.86
 11
20.896
 20
24.421
 21
24.447
  0
LINE
  8
0
 10
20.896
 11
20.935
 20
24.447
 21
24.467
  0
LINE
  8
0
 10
20.935
 11
20.976
 20
24.467
 21
24.483
  0
LINE
  8
0
 10
20.976
 11
21.019
 20
24.483
 21
24.494
  0
LINE
  8
0
 10
21.019
 11
21.062
 20
24.494
 21
24.499
  0
LINE
  8
0
 10
21.062
 11
21.106
 20
24.499
 21
24.498
  0
LINE
  8
0
 10
21.106
 11
21.15
 20
24.498
 21
24.492
  0
LINE
  8
0
 10
21.15
 11
21.192
 20
24.492
 21
24.481
  0
LINE
  8
0
 10
21.192
 11
21.233
 20
24.481
 21
24.464
  0
LINE
  8
0
 10
21.233
 11
21.271
 20
24.464
 21
24.443
  0
LINE
  8
0
 10
21.271
 11
21.306
 20
24.443
 21
24.417
  0
LINE
  8
0
 10
21.306
 11
21.338
 20
24.417
 21
24.386
  0
LINE
  8
0
 10
21.338
 11
21.366
 20
24.386
 21
24.352
  0
LINE
  8
0
 10
21.366
 11
21.389
 20
24.352
 21
24.315
  0
LINE
  8
0
 10
21.389
 11
21.407
 20
24.315
 21
24.275
  0
LINE
  8
0
 10
21.407
 11
21.42
 20
24.275
 21
24.233
  0
LINE
  8
0
 10
21.42
 11
21.428
 20
24.233
 21
24.189
  0
LINE
  8
0
 10
21.428
 11
21.43
 20
24.189
 21
24.145
  0
LINE
  8
0
 10
21.43
 11
21.427
 20
24.145
 21
24.102
  0
LINE
  8
0
 10
21.427
 11
21.418
 20
24.102
 21
24.058
  0
LINE
  8
0
 10
21.418
 11
21.404
 20
24.058
 21
24.017
  0
LINE
  8
0
 10
21.404
 11
21.385
 20
24.017
 21
23.978
  0
LINE
  8
0
 10
21.385
 11
21.362
 20
23.978
 21
23.941
  0
LINE
  8
0
 10
21.362
 11
21.333
 20
23.941
 21
23.907
  0
LINE
  8
0
 10
21.333
 11
21.301
 20
23.907
 21
23.877
  0
LINE
  8
0
 10
21.301
 11
21.265
 20
23.877
 21
23.852
  0
LINE
  8
0
 10
21.265
 11
21.226
 20
23.852
 21
23.831
  0
LINE
  8
0
 10
21.226
 11
21.185
 20
23.831
 21
23.815
  0
LINE
  8
0
 10
21.185
 11
21.142
 20
23.815
 21
23.805
  0
LINE
  8
0
 10
21.142
 11
21.099
 20
23.805
 21
23.8
  0
LINE
  8
0
 10
21.099
 11
21.055
 20
23.8
 21
23.8
  0
LINE
  8
0
 10
21.055
 11
21.011
 20
23.8
 21
23.806
  0
LINE
  8
0
 10
21.011
 11
20.969
 20
23.806
 21
23.817
  0
LINE
  8
0
 10
20.969
 11
20.928
 20
23.817
 21
23.834
  0
LINE
  8
0
 10
20.928
 11
20.89
 20
23.834
 21
23.856
  0
LINE
  8
0
 10
20.89
 11
20.855
 20
23.856
 21
23.882
  0
LINE
  8
0
 10
20.855
 11
20.823
 20
23.882
 21
23.912
  0
LINE
  8
0
 10
20.823
 11
20.795
 20
23.912
 21
23.947
  0
LINE
  8
0
 10
20.795
 11
20.772
 20
23.947
 21
23.984
  0
LINE
  8
0
 10
20.772
 11
20.754
 20
23.984
 21
24.024
  0
LINE
  8
0
 10
20.754
 11
20.741
 20
24.024
 21
24.066
  0
LINE
  8
0
 10
20.741
 11
20.733
 20
24.066
 21
24.109
  0
LINE
  8
0
 10
20.733
 11
20.73
 20
24.109
 21
24.153
  0
LINE
  8
0
 10
21.339
 11
21.341
 20
55.383
 21
55.426
  0
LINE
  8
0
 10
21.341
 11
21.348
 20
55.426
 21
55.47
  0
LINE
  8
0
 10
21.348
 11
21.36
 20
55.47
 21
55.512
  0
LINE
  8
0
 10
21.36
 11
21.377
 20
55.512
 21
55.552
  0
LINE
  8
0
 10
21.377
 11
21.4
 20
55.552
 21
55.59
  0
LINE
  8
0
 10
21.4
 11
21.427
 20
55.59
 21
55.625
  0
LINE
  8
0
 10
21.427
 11
21.458
 20
55.625
 21
55.656
  0
LINE
  8
0
 10
21.458
 11
21.493
 20
55.656
 21
55.683
  0
LINE
  8
0
 10
21.493
 11
21.53
 20
55.683
 21
55.706
  0
LINE
  8
0
 10
21.53
 11
21.571
 20
55.706
 21
55.723
  0
LINE
  8
0
 10
21.571
 11
21.613
 20
55.723
 21
55.735
  0
LINE
  8
0
 10
21.613
 11
21.656
 20
55.735
 21
55.742
  0
LINE
  8
0
 10
21.656
 11
21.7
 20
55.742
 21
55.743
  0
LINE
  8
0
 10
21.7
 11
21.744
 20
55.743
 21
55.739
  0
LINE
  8
0
 10
21.744
 11
21.787
 20
55.739
 21
55.73
  0
LINE
  8
0
 10
21.787
 11
21.828
 20
55.73
 21
55.715
  0
LINE
  8
0
 10
21.828
 11
21.868
 20
55.715
 21
55.695
  0
LINE
  8
0
 10
21.868
 11
21.904
 20
55.695
 21
55.67
  0
LINE
  8
0
 10
21.904
 11
21.937
 20
55.67
 21
55.641
  0
LINE
  8
0
 10
21.937
 11
21.966
 20
55.641
 21
55.608
  0
LINE
  8
0
 10
21.966
 11
21.99
 20
55.608
 21
55.572
  0
LINE
  8
0
 10
21.99
 11
22.011
 20
55.572
 21
55.533
  0
LINE
  8
0
 10
22.011
 11
22.025
 20
55.533
 21
55.491
  0
LINE
  8
0
 10
22.025
 11
22.035
 20
55.491
 21
55.448
  0
LINE
  8
0
 10
22.035
 11
22.039
 20
55.448
 21
55.405
  0
LINE
  8
0
 10
22.039
 11
22.038
 20
55.405
 21
55.361
  0
LINE
  8
0
 10
22.038
 11
22.031
 20
55.361
 21
55.317
  0
LINE
  8
0
 10
22.031
 11
22.019
 20
55.317
 21
55.275
  0
LINE
  8
0
 10
22.019
 11
22.001
 20
55.275
 21
55.235
  0
LINE
  8
0
 10
22.001
 11
21.979
 20
55.235
 21
55.197
  0
LINE
  8
0
 10
21.979
 11
21.952
 20
55.197
 21
55.162
  0
LINE
  8
0
 10
21.952
 11
21.921
 20
55.162
 21
55.131
  0
LINE
  8
0
 10
21.921
 11
21.886
 20
55.131
 21
55.104
  0
LINE
  8
0
 10
21.886
 11
21.848
 20
55.104
 21
55.082
  0
LINE
  8
0
 10
21.848
 11
21.808
 20
55.082
 21
55.064
  0
LINE
  8
0
 10
21.808
 11
21.766
 20
55.064
 21
55.052
  0
LINE
  8
0
 10
21.766
 11
21.722
 20
55.052
 21
55.045
  0
LINE
  8
0
 10
21.722
 11
21.678
 20
55.045
 21
55.044
  0
LINE
  8
0
 10
21.678
 11
21.635
 20
55.044
 21
55.048
  0
LINE
  8
0
 10
21.635
 11
21.592
 20
55.048
 21
55.057
  0
LINE
  8
0
 10
21.592
 11
21.55
 20
55.057
 21
55.072
  0
LINE
  8
0
 10
21.55
 11
21.511
 20
55.072
 21
55.092
  0
LINE
  8
0
 10
21.511
 11
21.475
 20
55.092
 21
55.117
  0
LINE
  8
0
 10
21.475
 11
21.442
 20
55.117
 21
55.146
  0
LINE
  8
0
 10
21.442
 11
21.413
 20
55.146
 21
55.179
  0
LINE
  8
0
 10
21.413
 11
21.388
 20
55.179
 21
55.216
  0
LINE
  8
0
 10
21.388
 11
21.368
 20
55.216
 21
55.255
  0
LINE
  8
0
 10
21.368
 11
21.353
 20
55.255
 21
55.296
  0
LINE
  8
0
 10
21.353
 11
21.344
 20
55.296
 21
55.339
  0
LINE
  8
0
 10
21.344
 11
21.339
 20
55.339
 21
55.383
  0
LINE
  8
0
 10
24.625
 11
24.735
 20
169.921
 21
170.186
  0
LINE
  8
0
 10
24.735
 11
25
 20
170.186
 21
170.296
  0
LINE
  8
0
 10
25
 11
25.265
 20
170.296
 21
170.186
  0
LINE
  8
0
 10
25.265
 11
25.375
 20
170.186
 21
169.921
  0
LINE
  8
0
 10
25.375
 11
25.265
 20
169.921
 21
169.656
  0
LINE
  8
0
 10
25.265
 11
25
 20
169.656
 21
169.546
  0
LINE
  8
0
 10
25
 11
24.735
 20
169.546
 21
169.656
  0
LINE
  8
0
 10
24.735
 11
24.625
 20
169.656
 21
169.921
  0
LINE
  8
0
 10
24.625
 11
24.735
 20
241.587
 21
241.853
  0
LINE
  8
0
 10
24.735
 11
25
 20
241.853
 21
241.962
  0
LINE
  8
0
 10
25
 11
25.265
 20
241.962
 21
241.853
  0
LINE
  8
0
 10
25.265
 11
25.375
 20
241.853
 21
241.587
  0
LINE
  8
0
 10
25.375
 11
25.265
 20
241.587
 21
241.322
  0
LINE
  8
0
 10
25.265
 11
25
 20
241.322
 21
241.212
  0
LINE
  8
0
 10
25
 11
24.735
 20
241.212
 21
241.322
  0
LINE
  8
0
 10
24.735
 11
24.625
 20
241.322
 21
241.587
  0
LINE
  8
0
 10
24.625
 11
24.735
 20
313.254
 21
313.519
  0
LINE
  8
0
 10
24.735
 11
25
 20
313.519
 21
313.629
  0
LINE
  8
0
 10
25
 11
25.265
 20
313.629
 21
313.519
  0
LINE
  8
0
 10
25.265
 11
25.375
 20
313.519
 21
313.254
  0
LINE
  8
0
 10
25.375
 11
25.265
 20
313.254
 21
312.989
  0
LINE
  8
0
 10
25.265
 11
25
 20
312.989
 21
312.879
  0
LINE
  8
0
 10
25
 11
24.735
 20
312.879
 21
312.989
  0
LINE
  8
0
 10
24.735
 11
24.625
 20
312.989
 21
313.254
  0
LINE
  8
0
 10
27.952
 11
27.959
 20
13.837
 21
13.929
  0
LINE
  8
0
 10
27.959
 11
27.977
 20
13.929
 21
14.019
  0
LINE
  8
0
 10
27.977
 11
28.006
 20
14.019
 21
14.106
  0
LINE
  8
0
 10
28.006
 11
28.046
 20
14.106
 21
14.189
  0
LINE
  8
0
 10
28.046
 11
28.097
 20
14.189
 21
14.267
  0
LINE
  8
0
 10
28.097
 11
28.156
 20
14.267
 21
14.337
  0
LINE
  8
0
 10
28.156
 11
28.224
 20
14.337
 21
14.399
  0
LINE
  8
0
 10
28.224
 11
28.299
 20
14.399
 21
14.452
  0
LINE
  8
0
 10
28.299
 11
28.38
 20
14.452
 21
14.496
  0
LINE
  8
0
 10
28.38
 11
28.466
 20
14.496
 21
14.529
  0
LINE
  8
0
 10
28.466
 11
28.555
 20
14.529
 21
14.551
  0
LINE
  8
0
 10
28.555
 11
28.647
 20
14.551
 21
14.562
  0
LINE
  8
0
 10
28.647
 11
28.739
 20
14.562
 21
14.561
  0
LINE
  8
0
 10
28.739
 11
28.83
 20
14.561
 21
14.548
  0
LINE
  8
0
 10
28.83
 11
28.919
 20
14.548
 21
14.524
  0
LINE
  8
0
 10
28.919
 11
29.004
 20
14.524
 21
14.49
  0
LINE
  8
0
 10
29.004
 11
29.085
 20
14.49
 21
14.444
  0
LINE
  8
0
 10
29.085
 11
29.159
 20
14.444
 21
14.389
  0
LINE
  8
0
 10
29.159
 11
29.225
 20
14.389
 21
14.326
  0
LINE
  8
0
 10
29.225
 11
29.283
 20
14.326
 21
14.254
  0
LINE
  8
0
 10
29.283
 11
29.331
 20
14.254
 21
14.176
  0
LINE
  8
0
 10
29.331
 11
29.37
 20
14.176
 21
14.092
  0
LINE
  8
0
 10
29.37
 11
29.397
 20
14.092
 21
14.004
  0
LINE
  8
0
 10
29.397
 11
29.414
 20
14.004
 21
13.914
  0
LINE
  8
0
 10
29.414
 11
29.419
 20
13.914
 21
13.822
  0
LINE
  8
0
 10
29.419
 11
29.412
 20
13.822
 21
13.73
  0
LINE
  8
0
 10
29.412
 11
29.394
 20
13.73
 21
13.64
  0
LINE
  8
0
 10
29.394
 11
29.364
 20
13.64
 21
13.552
  0
LINE
  8
0
 10
29.364
 11
29.324
 20
13.552
 21
13.469
  0
LINE
  8
0
 10
29.324
 11
29.274
 20
13.469
 21
13.392
  0
LINE
  8
0
 10
29.274
 11
29.214
 20
13.392
 21
13.322
  0
LINE
  8
0
 10
29.214
 11
29.147
 20
13.322
 21
13.259
  0
LINE
  8
0
 10
29.147
 11
29.072
 20
13.259
 21
13.206
  0
LINE
  8
0
 10
29.072
 11
28.991
 20
13.206
 21
13.163
  0
LINE
  8
0
 10
28.991
 11
28.905
 20
13.163
 21
13.13
  0
LINE
  8
0
 10
28.905
 11
28.815
 20
13.13
 21
13.108
  0
LINE
  8
0
 10
28.815
 11
28.724
 20
13.108
 21
13.097
  0
LINE
  8
0
 10
28.724
 11
28.632
 20
13.097
 21
13.098
  0
LINE
  8
0
 10
28.632
 11
28.54
 20
13.098
 21
13.11
  0
LINE
  8
0
 10
28.54
 11
28.452
 20
13.11
 21
13.134
  0
LINE
  8
0
 10
28.452
 11
28.366
 20
13.134
 21
13.169
  0
LINE
  8
0
 10
28.366
 11
28.286
 20
13.169
 21
13.214
  0
LINE
  8
0
 10
28.286
 11
28.212
 20
13.214
 21
13.269
  0
LINE
  8
0
 10
28.212
 11
28.145
 20
13.269
 21
13.333
  0
LINE
  8
0
 10
28.145
 11
28.087
 20
13.333
 21
13.404
  0
LINE
  8
0
 10
28.087
 11
28.039
 20
13.404
 21
13.483
  0
LINE
  8
0
 10
28.039
 11
28.001
 20
13.483
 21
13.567
  0
LINE
  8
0
 10
28.001
 11
27.973
 20
13.567
 21
13.654
  0
LINE
  8
0
 10
27.973
 11
27.957
 20
13.654
 21
13.745
  0
LINE
  8
0
 10
27.957
 11
27.952
 20
13.745
 21
13.837
  0
LINE
  8
0
 10
27.952
 11
27.959
 20
85.504
 21
85.596
  0
LINE
  8
0
 10
27.959
 11
27.977
 20
85.596
 21
85.686
  0
LINE
  8
0
 10
27.977
 11
28.006
 20
85.686
 21
85.773
  0
LINE
  8
0
 10
28.006
 11
28.046
 20
85.773
 21
85.856
  0
LINE
  8
0
 10
28.046
 11
28.097
 20
85.856
 21
85.933
  0
LINE
  8
0
 10
28.097
 11
28.156
 20
85.933
 21
86.004
  0
LINE
  8
0
 10
28.156
 11
28.224
 20
86.004
 21
86.066
  0
LINE
  8
0
 10
28.224
 11
28.299
 20
86.066
 21
86.119
  0
LINE
  8
0
 10
28.299
 11
28.38
 20
86.119
 21
86.163
  0
LINE
  8
0
 10
28.38
 11
28.466
 20
86.163
 21
86.196
  0
LINE
  8
0
 10
28.466
 11
28.555
 20
86.196
 21
86.218
  0
LINE
  8
0
 10
28.555
 11
28.647
 20
86.218
 21
86.228
  0
LINE
  8
0
 10
28.647
 11
28.739
 20
86.228
 21
86.227
  0
LINE
  8
0
 10
28.739
 11
28.83
 20
86.227
 21
86.215
  0
LINE
  8
0
 10
28.83
 11
28.919
 20
86.215
 21
86.191
  0
LINE
  8
0
 10
28.919
 11
29.004
 20
86.191
 21
86.156
  0
LINE
  8
0
 10
29.004
 11
29.085
 20
86.156
 21
86.111
  0
LINE
  8
0
 10
29.085
 11
29.159
 20
86.111
 21
86.056
  0
LINE
  8
0
 10
29.159
 11
29.225
 20
86.056
 21
85.992
  0
LINE
  8
0
 10
29.225
 11
29.283
 20
85.992
 21
85.921
  0
LINE
  8
0
 10
29.283
 11
29.331
 20
85.921
 21
85.843
  0
LINE
  8
0
 10
29.331
 11
29.37
 20
85.843
 21
85.759
  0
LINE
  8
0
 10
29.37
 11
29.397
 20
85.759
 21
85.671
  0
LINE
  8
0
 10
29.397
 11
29.414
 20
85.671
 21
85.58
  0
LINE
  8
0
 10
29.414
 11
29.419
 20
85.58
 21
85.488
  0
LINE
  8
0
 10
29.419
 11
29.412
 20
85.488
 21
85.396
  0
LINE
  8
0
 10
29.412
 11
29.394
 20
85.396
 21
85.306
  0
LINE
  8
0
 10
29.394
 11
29.364
 20
85.306
 21
85.219
  0
LINE
  8
0
 10
29.364
 11
29.324
 20
85.219
 21
85.136
  0
LINE
  8
0
 10
29.324
 11
29.274
 20
85.136
 21
85.059
  0
LINE
  8
0
 10
29.274
 11
29.214
 20
85.059
 21
84.988
  0
LINE
  8
0
 10
29.214
 11
29.147
 20
84.988
 21
84.926
  0
LINE
  8
0
 10
29.147
 11
29.072
 20
84.926
 21
84.873
  0
LINE
  8
0
 10
29.072
 11
28.991
 20
84.873
 21
84.829
  0
LINE
  8
0
 10
28.991
 11
28.905
 20
84.829
 21
84.796
  0
LINE
  8
0
 10
28.905
 11
28.815
 20
84.796
 21
84.774
  0
LINE
  8
0
 10
28.815
 11
28.724
 20
84.774
 21
84.764
  0
LINE
  8
0
 10
28.724
 11
28.632
 20
84.764
 21
84.765
  0
LINE
  8
0
 10
28.632
 11
28.54
 20
84.765
 21
84.777
  0
LINE
  8
0
 10
28.54
 11
28.452
 20
84.777
 21
84.801
  0
LINE
  8
0
 10
28.452
 11
28.366
 20
84.801
 21
84.836
  0
LINE
  8
0
 10
28.366
 11
28.286
 20
84.836
 21
84.881
  0
LINE
  8
0
 10
28.286
 11
28.212
 20
84.881
 21
84.936
  0
LINE
  8
0
 10
28.212
 11
28.145
 20
84.936
 21
85
  0
LINE
  8
0
 10
28.145
 11
28.087
 20
85
 21
85.071
  0
LINE
  8
0
 10
28.087
 11
28.039
 20
85.071
 21
85.149
  0
LINE
  8
0
 10
28.039
 11
28.001
 20
85.149
 21
85.233
  0
LINE
  8
0
 10
28.001
 11
27.973
 20
85.233
 21
85.321
  0
LINE
  8
0
 10
27.973
 11
27.957
 20
85.321
 21
85.412
  0
LINE
  8
0
 10
27.957
 11
27.952
 20
85.412
 21
85.504
  0
LINE
  8
0
 10
28.175
 11
28.175
 20
155.942
 21
160.317
  0
LINE
  8
0
 10
28.175
 11
31.35
 20
160.317
 21
160.317
  0
LINE
  8
0
 10
31.35
 11
31.35
 20
160.317
 21
155.942
  0
LINE
  8
0
 10
31.35
 11
28.175
 20
155.942
 21
155.942
  0
LINE
  8
0
 10
28.175
 11
28.175
 20
175.108
 21
179.483
  0
LINE
  8
0
 10
28.175
 11
31.35
 20
179.483
 21
179.483
  0
LINE
  8
0
 10
31.35
 11
31.35
 20
179.483
 21
175.108
  0
LINE
  8
0
 10
31.35
 11
28.175
 20
175.108
 21
175.108
  0
LINE
  8
0
 10
28.175
 11
28.175
 20
192.608
 21
196.983
  0
LINE
  8
0
 10
28.175
 11
31.35
 20
196.983
 21
196.983
  0
LINE
  8
0
 10
31.35
 11
31.35
 20
196.983
 21
192.608
  0
LINE
  8
0
 10
31.35
 11
28.175
 20
192.608
 21
192.608
  0
LINE
  8
0
 10
28.175
 11
28.175
 20
210.108
 21
214.483
  0
LINE
  8
0
 10
28.175
 11
31.35
 20
214.483
 21
214.483
  0
LINE
  8
0
 10
31.35
 11
31.35
 20
214.483
 21
210.108
  0
LINE
  8
0
 10
31.35
 11
28.175
 20
210.108
 21
210.108
  0
LINE
  8
0
 10
28.175
 11
28.175
 20
227.608
 21
231.983
  0
LINE
  8
0
 10
28.175
 11
31.35
 20
231.983
 21
231.983
  0
LINE
  8
0
 10
31.35
 11
31.35
 20
231.983
 21
227.608
  0
LINE
  8
0
 10
31.35
 11
28.175
 20
227.608
 21
227.608
  0
LINE
  8
0
 10
28.175
 11
28.175
 20
246.775
 21
251.15
  0
LINE
  8
0
 10
28.175
 11
31.35
 20
251.15
 21
251.15
  0
LINE
  8
0
 10
31.35
 11
31.35
 20
251.15
 21
246.775
  0
LINE
  8
0
 10
31.35
 11
28.175
 20
246.775
 21
246.775
  0
LINE
  8
0
 10
28.175
 11
28.175
 20
264.275
 21
268.65
  0
LINE
  8
0
 10
28.175
 11
31.35
 20
268.65
 21
268.65
  0
LINE
  8
0
 10
31.35
 11
31.35
 20
268.65
 21
264.275
  0
LINE
  8
0
 10
31.35
 11
28.175
 20
264.275
 21
264.275
  0
LINE
  8
0
 10
28.175
 11
28.175
 20
281.775
 21
286.15
  0
LINE
  8
0
 10
28.175
 11
31.35
 20
286.15
 21
286.15
  0
LINE
  8
0
 10
31.35
 11
31.35
 20
286.15
 21
281.775
  0
LINE
  8
0
 10
31.35
 11
28.175
 20
281.775
 21
281.775
  0
LINE
  8
0
 10
28.175
 11
28.175
 20
299.275
 21
303.65
  0
LINE
  8
0
 10
28.175
 11
31.35
 20
303.65
 21
303.65
  0
LINE
  8
0
 10
31.35
 11
31.35
 20
303.65
 21
299.275
  0
LINE
  8
0
 10
31.35
 11
28.175
 20
299.275
 21
299.275
  0
LINE
  8
0
 10
28.175
 11
28.175
 20
318.442
 21
322.817
  0
LINE
  8
0
 10
28.175
 11
31.35
 20
322.817
 21
322.817
  0
LINE
  8
0
 10
31.35
 11
31.35
 20
322.817
 21
318.442
  0
LINE
  8
0
 10
31.35
 11
28.175
 20
318.442
 21
318.442
  0
LINE
  8
0
 10
28.853
 11
28.856
 20
15.765
 21
15.809
  0
LINE
  8
0
 10
28.856
 11
28.865
 20
15.809
 21
15.852
  0
LINE
  8
0
 10
28.865
 11
28.879
 20
15.852
 21
15.893
  0
LINE
  8
0
 10
28.879
 11
28.898
 20
15.893
 21
15.933
  0
LINE
  8
0
 10
28.898
 11
28.922
 20
15.933
 21
15.97
  0
LINE
  8
0
 10
28.922
 11
28.95
 20
15.97
 21
16.003
  0
LINE
  8
0
 10
28.95
 11
28.983
 20
16.003
 21
16.033
  0
LINE
  8
0
 10
28.983
 11
29.018
 20
16.033
 21
16.059
  0
LINE
  8
0
 10
29.018
 11
29.057
 20
16.059
 21
16.079
  0
LINE
  8
0
 10
29.057
 11
29.098
 20
16.079
 21
16.095
  0
LINE
  8
0
 10
29.098
 11
29.141
 20
16.095
 21
16.105
  0
LINE
  8
0
 10
29.141
 11
29.185
 20
16.105
 21
16.11
  0
LINE
  8
0
 10
29.185
 11
29.228
 20
16.11
 21
16.11
  0
LINE
  8
0
 10
29.228
 11
29.272
 20
16.11
 21
16.104
  0
LINE
  8
0
 10
29.272
 11
29.315
 20
16.104
 21
16.093
  0
LINE
  8
0
 10
29.315
 11
29.355
 20
16.093
 21
16.076
  0
LINE
  8
0
 10
29.355
 11
29.394
 20
16.076
 21
16.055
  0
LINE
  8
0
 10
29.394
 11
29.429
 20
16.055
 21
16.028
  0
LINE
  8
0
 10
29.429
 11
29.461
 20
16.028
 21
15.998
  0
LINE
  8
0
 10
29.461
 11
29.488
 20
15.998
 21
15.964
  0
LINE
  8
0
 10
29.488
 11
29.511
 20
15.964
 21
15.926
  0
LINE
  8
0
 10
29.511
 11
29.53
 20
15.926
 21
15.887
  0
LINE
  8
0
 10
29.53
 11
29.543
 20
15.887
 21
15.845
  0
LINE
  8
0
 10
29.543
 11
29.551
 20
15.845
 21
15.801
  0
LINE
  8
0
 10
29.551
 11
29.553
 20
15.801
 21
15.757
  0
LINE
  8
0
 10
29.553
 11
29.549
 20
15.757
 21
15.714
  0
LINE
  8
0
 10
29.549
 11
29.541
 20
15.714
 21
15.67
  0
LINE
  8
0
 10
29.541
 11
29.527
 20
15.67
 21
15.629
  0
LINE
  8
0
 10
29.527
 11
29.508
 20
15.629
 21
15.589
  0
LINE
  8
0
 10
29.508
 11
29.484
 20
15.589
 21
15.552
  0
LINE
  8
0
 10
29.484
 11
29.455
 20
15.552
 21
15.519
  0
LINE
  8
0
 10
29.455
 11
29.423
 20
15.519
 21
15.489
  0
LINE
  8
0
 10
29.423
 11
29.387
 20
15.489
 21
15.464
  0
LINE
  8
0
 10
29.387
 11
29.349
 20
15.464
 21
15.443
  0
LINE
  8
0
 10
29.349
 11
29.307
 20
15.443
 21
15.427
  0
LINE
  8
0
 10
29.307
 11
29.265
 20
15.427
 21
15.417
  0
LINE
  8
0
 10
29.265
 11
29.221
 20
15.417
 21
15.411
  0
LINE
  8
0
 10
29.221
 11
29.177
 20
15.411
 21
15.412
  0
LINE
  8
0
 10
29.177
 11
29.134
 20
15.412
 21
15.418
  0
LINE
  8
0
 10
29.134
 11
29.091
 20
15.418
 21
15.429
  0
LINE
  8
0
 10
29.091
 11
29.051
 20
15.429
 21
15.446
  0
LINE
  8
0
 10
29.051
 11
29.012
 20
15.446
 21
15.467
  0
LINE
  8
0
 10
29.012
 11
28.977
 20
15.467
 21
15.494
  0
LINE
  8
0
 10
28.977
 11
28.945
 20
15.494
 21
15.524
  0
LINE
  8
0
 10
28.945
 11
28.918
 20
15.524
 21
15.558
  0
LINE
  8
0
 10
28.918
 11
28.894
 20
15.558
 21
15.596
  0
LINE
  8
0
 10
28.894
 11
28.876
 20
15.596
 21
15.636
  0
LINE
  8
0
 10
28.876
 11
28.863
 20
15.636
 21
15.677
  0
LINE
  8
0
 10
28.863
 11
28.855
 20
15.677
 21
15.721
  0
LINE
  8
0
 10
28.855
 11
28.853
 20
15.721
 21
15.765
  0
LINE
  8
0
 10
28.853
 11
28.856
 20
87.432
 21
87.475
  0
LINE
  8
0
 10
28.856
 11
28.865
 20
87.475
 21
87.518
  0
LINE
  8
0
 10
28.865
 11
28.879
 20
87.518
 21
87.56
  0
LINE
  8
0
 10
28.879
 11
28.898
 20
87.56
 21
87.6
  0
LINE
  8
0
 10
28.898
 11
28.922
 20
87.6
 21
87.637
  0
LINE
  8
0
 10
28.922
 11
28.95
 20
87.637
 21
87.67
  0
LINE
  8
0
 10
28.95
 11
28.983
 20
87.67
 21
87.7
  0
LINE
  8
0
 10
28.983
 11
29.018
 20
87.7
 21
87.725
  0
LINE
  8
0
 10
29.018
 11
29.057
 20
87.725
 21
87.746
  0
LINE
  8
0
 10
29.057
 11
29.098
 20
87.746
 21
87.762
  0
LINE
  8
0
 10
29.098
 11
29.141
 20
87.762
 21
87.772
  0
LINE
  8
0
 10
29.141
 11
29.185
 20
87.772
 21
87.777
  0
LINE
  8
0
 10
29.185
 11
29.228
 20
87.777
 21
87.777
  0
LINE
  8
0
 10
29.228
 11
29.272
 20
87.777
 21
87.771
  0
LINE
  8
0
 10
29.272
 11
29.315
 20
87.771
 21
87.76
  0
LINE
  8
0
 10
29.315
 11
29.355
 20
87.76
 21
87.743
  0
LINE
  8
0
 10
29.355
 11
29.394
 20
87.743
 21
87.721
  0
LINE
  8
0
 10
29.394
 11
29.429
 20
87.721
 21
87.695
  0
LINE
  8
0
 10
29.429
 11
29.461
 20
87.695
 21
87.665
  0
LINE
  8
0
 10
29.461
 11
29.488
 20
87.665
 21
87.631
  0
LINE
  8
0
 10
29.488
 11
29.511
 20
87.631
 21
87.593
  0
LINE
  8
0
 10
29.511
 11
29.53
 20
87.593
 21
87.553
  0
LINE
  8
0
 10
29.53
 11
29.543
 20
87.553
 21
87.511
  0
LINE
  8
0
 10
29.543
 11
29.551
 20
87.511
 21
87.468
  0
LINE
  8
0
 10
29.551
 11
29.553
 20
87.468
 21
87.424
  0
LINE
  8
0
 10
29.553
 11
29.549
 20
87.424
 21
87.38
  0
LINE
  8
0
 10
29.549
 11
29.541
 20
87.38
 21
87.337
  0
LINE
  8
0
 10
29.541
 11
29.527
 20
87.337
 21
87.296
  0
LINE
  8
0
 10
29.527
 11
29.508
 20
87.296
 21
87.256
  0
LINE
  8
0
 10
29.508
 11
29.484
 20
87.256
 21
87.219
  0
LINE
  8
0
 10
29.484
 11
29.455
 20
87.219
 21
87.185
  0
LINE
  8
0
 10
29.455
 11
29.423
 20
87.185
 21
87.156
  0
LINE
  8
0
 10
29.423
 11
29.387
 20
87.156
 21
87.13
  0
LINE
  8
0
 10
29.387
 11
29.349
 20
87.13
 21
87.11
  0
LINE
  8
0
 10
29.349
 11
29.307
 20
87.11
 21
87.094
  0
LINE
  8
0
 10
29.307
 11
29.265
 20
87.094
 21
87.083
  0
LINE
  8
0
 10
29.265
 11
29.221
 20
87.083
 21
87.078
  0
LINE
  8
0
 10
29.221
 11
29.177
 20
87.078
 21
87.079
  0
LINE
  8
0
 10
29.177
 11
29.134
 20
87.079
 21
87.085
  0
LINE
  8
0
 10
29.134
 11
29.091
 20
87.085
 21
87.096
  0
LINE
  8
0
 10
29.091
 11
29.051
 20
87.096
 21
87.113
  0
LINE
  8
0
 10
29.051
 11
29.012
 20
87.113
 21
87.134
  0
LINE
  8
0
 10
29.012
 11
28.977
 20
87.134
 21
87.161
  0
LINE
  8
0
 10
28.977
 11
28.945
 20
87.161
 21
87.191
  0
LINE
  8
0
 10
28.945
 11
28.918
 20
87.191
 21
87.225
  0
LINE
  8
0
 10
28.918
 11
28.894
 20
87.225
 21
87.263
  0
LINE
  8
0
 10
28.894
 11
28.876
 20
87.263
 21
87.302
  0
LINE
  8
0
 10
28.876
 11
28.863
 20
87.302
 21
87.344
  0
LINE
  8
0
 10
28.863
 11
28.855
 20
87.344
 21
87.388
  0
LINE
  8
0
 10
28.855
 11
28.853
 20
87.388
 21
87.432
  0
LINE
  8
0
 10
29.388
 11
29.497
 20
148.65
 21
148.915
  0
LINE
  8
0
 10
29.497
 11
29.763
 20
148.915
 21
149.025
  0
LINE
  8
0
 10
29.763
 11
30.028
 20
149.025
 21
148.915
  0
LINE
  8
0
 10
30.028
 11
30.138
 20
148.915
 21
148.65
  0
LINE
  8
0
 10
30.138
 11
30.028
 20
148.65
 21
148.385
  0
LINE
  8
0
 10
30.028
 11
29.763
 20
148.385
 21
148.275
  0
LINE
  8
0
 10
29.763
 11
29.497
 20
148.275
 21
148.385
  0
LINE
  8
0
 10
29.497
 11
29.388
 20
148.385
 21
148.65
  0
LINE
  8
0
 10
29.388
 11
29.497
 20
185.317
 21
185.582
  0
LINE
  8
0
 10
29.497
 11
29.763
 20
185.582
 21
185.692
  0
LINE
  8
0
 10
29.763
 11
30.028
 20
185.692
 21
185.582
  0
LINE
  8
0
 10
30.028
 11
30.138
 20
185.582
 21
185.317
  0
LINE
  8
0
 10
30.138
 11
30.028
 20
185.317
 21
185.052
  0
LINE
  8
0
 10
30.028
 11
29.763
 20
185.052
 21
184.942
  0
LINE
  8
0
 10
29.763
 11
29.497
 20
184.942
 21
185.052
  0
LINE
  8
0
 10
29.497
 11
29.388
 20
185.052
 21
185.317
  0
LINE
  8
0
 10
29.388
 11
29.497
 20
202.817
 21
203.082
  0
LINE
  8
0
 10
29.497
 11
29.763
 20
203.082
 21
203.192
  0
LINE
  8
0
 10
29.763
 11
30.028
 20
203.192
 21
203.082
  0
LINE
  8
0
 10
30.028
 11
30.138
 20
203.082
 21
202.817
  0
LINE
  8
0
 10
30.138
 11
30.028
 20
202.817
 21
202.552
  0
LINE
  8
0
 10
30.028
 11
29.763
 20
202.552
 21
202.442
  0
LINE
  8
0
 10
29.763
 11
29.497
 20
202.442
 21
202.552
  0
LINE
  8
0
 10
29.497
 11
29.388
 20
202.552
 21
202.817
  0
LINE
  8
0
 10
29.388
 11
29.497
 20
220.317
 21
220.582
  0
LINE
  8
0
 10
29.497
 11
29.763
 20
220.582
 21
220.692
  0
LINE
  8
0
 10
29.763
 11
30.028
 20
220.692
 21
220.582
  0
LINE
  8
0
 10
30.028
 11
30.138
 20
220.582
 21
220.317
  0
LINE
  8
0
 10
30.138
 11
30.028
 20
220.317
 21
220.051
  0
LINE
  8
0
 10
30.028
 11
29.763
 20
220.051
 21
219.942
  0
LINE
  8
0
 10
29.763
 11
29.497
 20
219.942
 21
220.051
  0
LINE
  8
0
 10
29.497
 11
29.388
 20
220.051
 21
220.317
  0
LINE
  8
0
 10
29.388
 11
29.497
 20
256.983
 21
257.248
  0
LINE
  8
0
 10
29.497
 11
29.763
 20
257.248
 21
257.358
  0
LINE
  8
0
 10
29.763
 11
30.028
 20
257.358
 21
257.248
  0
LINE
  8
0
 10
30.028
 11
30.138
 20
257.248
 21
256.983
  0
LINE
  8
0
 10
30.138
 11
30.028
 20
256.983
 21
256.718
  0
LINE
  8
0
 10
30.028
 11
29.763
 20
256.718
 21
256.608
  0
LINE
  8
0
 10
29.763
 11
29.497
 20
256.608
 21
256.718
  0
LINE
  8
0
 10
29.497
 11
29.388
 20
256.718
 21
256.983
  0
LINE
  8
0
 10
29.388
 11
29.497
 20
274.483
 21
274.749
  0
LINE
  8
0
 10
29.497
 11
29.763
 20
274.749
 21
274.858
  0
LINE
  8
0
 10
29.763
 11
30.028
 20
274.858
 21
274.749
  0
LINE
  8
0
 10
30.028
 11
30.138
 20
274.749
 21
274.483
  0
LINE
  8
0
 10
30.138
 11
30.028
 20
274.483
 21
274.218
  0
LINE
  8
0
 10
30.028
 11
29.763
 20
274.218
 21
274.108
  0
LINE
  8
0
 10
29.763
 11
29.497
 20
274.108
 21
274.218
  0
LINE
  8
0
 10
29.497
 11
29.388
 20
274.218
 21
274.483
  0
LINE
  8
0
 10
29.388
 11
29.497
 20
291.983
 21
292.249
  0
LINE
  8
0
 10
29.497
 11
29.763
 20
292.249
 21
292.358
  0
LINE
  8
0
 10
29.763
 11
30.028
 20
292.358
 21
292.249
  0
LINE
  8
0
 10
30.028
 11
30.138
 20
292.249
 21
291.983
  0
LINE
  8
0
 10
30.138
 11
30.028
 20
291.983
 21
291.718
  0
LINE
  8
0
 10
30.028
 11
29.763
 20
291.718
 21
291.608
  0
LINE
  8
0
 10
29.763
 11
29.497
 20
291.608
 21
291.718
  0
LINE
  8
0
 10
29.497
 11
29.388
 20
291.718
 21
291.983
  0
LINE
  8
0
 10
29.388
 11
29.497
 20
328.65
 21
328.915
  0
LINE
  8
0
 10
29.497
 11
29.763
 20
328.915
 21
329.025
  0
LINE
  8
0
 10
29.763
 11
30.028
 20
329.025
 21
328.915
  0
LINE
  8
0
 10
30.028
 11
30.138
 20
328.915
 21
328.65
  0
LINE
  8
0
 10
30.138
 11
30.028
 20
328.65
 21
328.385
  0
LINE
  8
0
 10
30.028
 11
29.763
 20
328.385
 21
328.275
  0
LINE
  8
0
 10
29.763
 11
29.497
 20
328.275
 21
328.385
  0
LINE
  8
0
 10
29.497
 11
29.388
 20
328.385
 21
328.65
  0
LINE
  8
0
 10
30.406
 11
30.409
 20
21.56
 21
21.604
  0
LINE
  8
0
 10
30.409
 11
30.418
 20
21.604
 21
21.647
  0
LINE
  8
0
 10
30.418
 11
30.432
 20
21.647
 21
21.689
  0
LINE
  8
0
 10
30.432
 11
30.451
 20
21.689
 21
21.728
  0
LINE
  8
0
 10
30.451
 11
30.475
 20
21.728
 21
21.765
  0
LINE
  8
0
 10
30.475
 11
30.503
 20
21.765
 21
21.799
  0
LINE
  8
0
 10
30.503
 11
30.536
 20
21.799
 21
21.829
  0
LINE
  8
0
 10
30.536
 11
30.571
 20
21.829
 21
21.854
  0
LINE
  8
0
 10
30.571
 11
30.61
 20
21.854
 21
21.875
  0
LINE
  8
0
 10
30.61
 11
30.651
 20
21.875
 21
21.891
  0
LINE
  8
0
 10
30.651
 11
30.694
 20
21.891
 21
21.901
  0
LINE
  8
0
 10
30.694
 11
30.737
 20
21.901
 21
21.906
  0
LINE
  8
0
 10
30.737
 11
30.781
 20
21.906
 21
21.906
  0
LINE
  8
0
 10
30.781
 11
30.825
 20
21.906
 21
21.9
  0
LINE
  8
0
 10
30.825
 11
30.868
 20
21.9
 21
21.889
  0
LINE
  8
0
 10
30.868
 11
30.908
 20
21.889
 21
21.872
  0
LINE
  8
0
 10
30.908
 11
30.947
 20
21.872
 21
21.85
  0
LINE
  8
0
 10
30.947
 11
30.982
 20
21.85
 21
21.824
  0
LINE
  8
0
 10
30.982
 11
31.013
 20
21.824
 21
21.793
  0
LINE
  8
0
 10
31.013
 11
31.041
 20
21.793
 21
21.759
  0
LINE
  8
0
 10
31.041
 11
31.064
 20
21.759
 21
21.722
  0
LINE
  8
0
 10
31.064
 11
31.083
 20
21.722
 21
21.682
  0
LINE
  8
0
 10
31.083
 11
31.096
 20
21.682
 21
21.64
  0
LINE
  8
0
 10
31.096
 11
31.103
 20
21.64
 21
21.597
  0
LINE
  8
0
 10
31.103
 11
31.106
 20
21.597
 21
21.553
  0
LINE
  8
0
 10
31.106
 11
31.103
 20
21.553
 21
21.509
  0
LINE
  8
0
 10
31.103
 11
31.094
 20
21.509
 21
21.466
  0
LINE
  8
0
 10
31.094
 11
31.08
 20
21.466
 21
21.424
  0
LINE
  8
0
 10
31.08
 11
31.061
 20
21.424
 21
21.385
  0
LINE
  8
0
 10
31.061
 11
31.037
 20
21.385
 21
21.348
  0
LINE
  8
0
 10
31.037
 11
31.008
 20
21.348
 21
21.314
  0
LINE
  8
0
 10
31.008
 11
30.976
 20
21.314
 21
21.285
  0
LINE
  8
0
 10
30.976
 11
30.94
 20
21.285
 21
21.259
  0
LINE
  8
0
 10
30.94
 11
30.902
 20
21.259
 21
21.238
  0
LINE
  8
0
 10
30.902
 11
30.86
 20
21.238
 21
21.223
  0
LINE
  8
0
 10
30.86
 11
30.818
 20
21.223
 21
21.212
  0
LINE
  8
0
 10
30.818
 11
30.774
 20
21.212
 21
21.207
  0
LINE
  8
0
 10
30.774
 11
30.73
 20
21.207
 21
21.208
  0
LINE
  8
0
 10
30.73
 11
30.687
 20
21.208
 21
21.214
  0
LINE
  8
0
 10
30.687
 11
30.644
 20
21.214
 21
21.225
  0
LINE
  8
0
 10
30.644
 11
30.603
 20
21.225
 21
21.242
  0
LINE
  8
0
 10
30.603
 11
30.565
 20
21.242
 21
21.263
  0
LINE
  8
0
 10
30.565
 11
30.53
 20
21.263
 21
21.289
  0
LINE
  8
0
 10
30.53
 11
30.498
 20
21.289
 21
21.32
  0
LINE
  8
0
 10
30.498
 11
30.47
 20
21.32
 21
21.354
  0
LINE
  8
0
 10
30.47
 11
30.447
 20
21.354
 21
21.391
  0
LINE
  8
0
 10
30.447
 11
30.429
 20
21.391
 21
21.431
  0
LINE
  8
0
 10
30.429
 11
30.416
 20
21.431
 21
21.473
  0
LINE
  8
0
 10
30.416
 11
30.408
 20
21.473
 21
21.517
  0
LINE
  8
0
 10
30.408
 11
30.406
 20
21.517
 21
21.56
  0
LINE
  8
0
 10
41.292
 11
41.402
 20
165.079
 21
165.344
  0
LINE
  8
0
 10
41.402
 11
41.667
 20
165.344
 21
165.454
  0
LINE
  8
0
 10
41.667
 11
41.932
 20
165.454
 21
165.344
  0
LINE
  8
0
 10
41.932
 11
42.042
 20
165.344
 21
165.079
  0
LINE
  8
0
 10
42.042
 11
41.932
 20
165.079
 21
164.814
  0
LINE
  8
0
 10
41.932
 11
41.667
 20
164.814
 21
164.704
  0
LINE
  8
0
 10
41.667
 11
41.402
 20
164.704
 21
164.814
  0
LINE
  8
0
 10
41.402
 11
41.292
 20
164.814
 21
165.079
  0
LINE
  8
0
 10
41.292
 11
41.402
 20
236.746
 21
237.011
  0
LINE
  8
0
 10
41.402
 11
41.667
 20
237.011
 21
237.121
  0
LINE
  8
0
 10
41.667
 11
41.932
 20
237.121
 21
237.011
  0
LINE
  8
0
 10
41.932
 11
42.042
 20
237.011
 21
236.746
  0
LINE
  8
0
 10
42.042
 11
41.932
 20
236.746
 21
236.481
  0
LINE
  8
0
 10
41.932
 11
41.667
 20
236.481
 21
236.371
  0
LINE
  8
0
 10
41.667
 11
41.402
 20
236.371
 21
236.481
  0
LINE
  8
0
 10
41.402
 11
41.292
 20
236.481
 21
236.746
  0
LINE
  8
0
 10
41.292
 11
41.402
 20
308.412
 21
308.678
  0
LINE
  8
0
 10
41.402
 11
41.667
 20
308.678
 21
308.787
  0
LINE
  8
0
 10
41.667
 11
41.932
 20
308.787
 21
308.678
  0
LINE
  8
0
 10
41.932
 11
42.042
 20
308.678
 21
308.412
  0
LINE
  8
0
 10
42.042
 11
41.932
 20
308.412
 21
308.147
  0
LINE
  8
0
 10
41.932
 11
41.667
 20
308.147
 21
308.037
  0
LINE
  8
0
 10
41.667
 11
41.402
 20
308.037
 21
308.147
  0
LINE
  8
0
 10
41.402
 11
41.292
 20
308.147
 21
308.412
  0
LINE
  8
0
 10
44.842
 11
44.842
 20
155.942
 21
160.317
  0
LINE
  8
0
 10
44.842
 11
48.017
 20
160.317
 21
160.317
  0
LINE
  8
0
 10
48.017
 11
48.017
 20
160.317
 21
155.942
  0
LINE
  8
0
 10
48.017
 11
44.842
 20
155.942
 21
155.942
  0
LINE
  8
0
 10
44.842
 11
44.842
 20
175.108
 21
179.483
  0
LINE
  8
0
 10
44.842
 11
48.017
 20
179.483
 21
179.483
  0
LINE
  8
0
 10
48.017
 11
48.017
 20
179.483
 21
175.108
  0
LINE
  8
0
 10
48.017
 11
44.842
 20
175.108
 21
175.108
  0
LINE
  8
0
 10
44.842
 11
44.842
 20
192.608
 21
196.983
  0
LINE
  8
0
 10
44.842
 11
48.017
 20
196.983
 21
196.983
  0
LINE
  8
0
 10
48.017
 11
48.017
 20
196.983
 21
192.608
  0
LINE
  8
0
 10
48.017
 11
44.842
 20
192.608
 21
192.608
  0
LINE
  8
0
 10
44.842
 11
44.842
 20
210.108
 21
214.483
  0
LINE
  8
0
 10
44.842
 11
48.017
 20
214.483
 21
214.483
  0
LINE
  8
0
 10
48.017
 11
48.017
 20
214.483
 21
210.108
  0
LINE
  8
0
 10
48.017
 11
44.842
 20
210.108
 21
210.108
  0
LINE
  8
0
 10
44.842
 11
44.842
 20
227.608
 21
231.983
  0
LINE
  8
0
 10
44.842
 11
48.017
 20
231.983
 21
231.983
  0
LINE
  8
0
 10
48.017
 11
48.017
 20
231.983
 21
227.608
  0
LINE
  8
0
 10
48.017
 11
44.842
 20
227.608
 21
227.608
  0
LINE
  8
0
 10
44.842
 11
44.842
 20
246.775
 21
251.15
  0
LINE
  8
0
 10
44.842
 11
48.017
 20
251.15
 21
251.15
  0
LINE
  8
0
 10
48.017
 11
48.017
 20
251.15
 21
246.775
  0
LINE
  8
0
 10
48.017
 11
44.842
 20
246.775
 21
246.775
  0
LINE
  8
0
 10
44.842
 11
44.842
 20
264.275
 21
268.65
  0
LINE
  8
0
 10
44.842
 11
48.017
 20
268.65
 21
268.65
  0
LINE
  8
0
 10
48.017
 11
48.017
 20
268.65
 21
264.275
  0
LINE
  8
0
 10
48.017
 11
44.842
 20
264.275
 21
264.275
  0
LINE
  8
0
 10
44.842
 11
44.842
 20
281.775
 21
286.15
  0
LINE
  8
0
 10
44.842
 11
48.017
 20
286.15
 21
286.15
  0
LINE
  8
0
 10
48.017
 11
48.017
 20
286.15
 21
281.775
  0
LINE
  8
0
 10
48.017
 11
44.842
 20
281.775
 21
281.775
  0
LINE
  8
0
 10
44.842
 11
44.842
 20
299.275
 21
303.65
  0
LINE
  8
0
 10
44.842
 11
48.017
 20
303.65
 21
303.65
  0
LINE
  8
0
 10
48.017
 11
48.017
 20
303.65
 21
299.275
  0
LINE
  8
0
 10
48.017
 11
44.842
 20
299.275
 21
299.275
  0
LINE
  8
0
 10
44.842
 11
44.842
 20
318.442
 21
322.817
  0
LINE
  8
0
 10
44.842
 11
48.017
 20
322.817
 21
322.817
  0
LINE
  8
0
 10
48.017
 11
48.017
 20
322.817
 21
318.442
  0
LINE
  8
0
 10
48.017
 11
44.842
 20
318.442
 21
318.442
  0
LINE
  8
0
 10
45.501
 11
45.506
 20
48.938
 21
48.981
  0
LINE
  8
0
 10
45.506
 11
45.517
 20
48.981
 21
49.024
  0
LINE
  8
0
 10
45.517
 11
45.533
 20
49.024
 21
49.065
  0
LINE
  8
0
 10
45.533
 11
45.553
 20
49.065
 21
49.104
  0
LINE
  8
0
 10
45.553
 11
45.579
 20
49.104
 21
49.14
  0
LINE
  8
0
 10
45.579
 11
45.609
 20
49.14
 21
49.172
  0
LINE
  8
0
 10
45.609
 11
45.642
 20
49.172
 21
49.201
  0
LINE
  8
0
 10
45.642
 11
45.679
 20
49.201
 21
49.225
  0
LINE
  8
0
 10
45.679
 11
45.719
 20
49.225
 21
49.243
  0
LINE
  8
0
 10
45.719
 11
45.76
 20
49.243
 21
49.258
  0
LINE
  8
0
 10
45.76
 11
45.803
 20
49.258
 21
49.266
  0
LINE
  8
0
 10
45.803
 11
45.847
 20
49.266
 21
49.27
  0
LINE
  8
0
 10
45.847
 11
45.891
 20
49.27
 21
49.267
  0
LINE
  8
0
 10
45.891
 11
45.934
 20
49.267
 21
49.259
  0
LINE
  8
0
 10
45.934
 11
45.976
 20
49.259
 21
49.246
  0
LINE
  8
0
 10
45.976
 11
46.016
 20
49.246
 21
49.228
  0
LINE
  8
0
 10
46.016
 11
46.054
 20
49.228
 21
49.205
  0
LINE
  8
0
 10
46.054
 11
46.088
 20
49.205
 21
49.177
  0
LINE
  8
0
 10
46.088
 11
46.118
 20
49.177
 21
49.145
  0
LINE
  8
0
 10
46.118
 11
46.144
 20
49.145
 21
49.11
  0
LINE
  8
0
 10
46.144
 11
46.166
 20
49.11
 21
49.072
  0
LINE
  8
0
 10
46.166
 11
46.183
 20
49.072
 21
49.031
  0
LINE
  8
0
 10
46.183
 11
46.194
 20
49.031
 21
48.989
  0
LINE
  8
0
 10
46.194
 11
46.2
 20
48.989
 21
48.945
  0
LINE
  8
0
 10
46.2
 11
46.2
 20
48.945
 21
48.901
  0
LINE
  8
0
 10
46.2
 11
46.195
 20
48.901
 21
48.858
  0
LINE
  8
0
 10
46.195
 11
46.185
 20
48.858
 21
48.815
  0
LINE
  8
0
 10
46.185
 11
46.169
 20
48.815
 21
48.774
  0
LINE
  8
0
 10
46.169
 11
46.148
 20
48.774
 21
48.735
  0
LINE
  8
0
 10
46.148
 11
46.123
 20
48.735
 21
48.699
  0
LINE
  8
0
 10
46.123
 11
46.093
 20
48.699
 21
48.667
  0
LINE
  8
0
 10
46.093
 11
46.06
 20
48.667
 21
48.639
  0
LINE
  8
0
 10
46.06
 11
46.023
 20
48.639
 21
48.615
  0
LINE
  8
0
 10
46.023
 11
45.983
 20
48.615
 21
48.596
  0
LINE
  8
0
 10
45.983
 11
45.942
 20
48.596
 21
48.582
  0
LINE
  8
0
 10
45.942
 11
45.898
 20
48.582
 21
48.573
  0
LINE
  8
0
 10
45.898
 11
45.854
 20
48.573
 21
48.57
  0
LINE
  8
0
 10
45.854
 11
45.811
 20
48.57
 21
48.572
  0
LINE
  8
0
 10
45.811
 11
45.767
 20
48.572
 21
48.58
  0
LINE
  8
0
 10
45.767
 11
45.725
 20
48.58
 21
48.593
  0
LINE
  8
0
 10
45.725
 11
45.685
 20
48.593
 21
48.611
  0
LINE
  8
0
 10
45.685
 11
45.648
 20
48.611
 21
48.634
  0
LINE
  8
0
 10
45.648
 11
45.614
 20
48.634
 21
48.662
  0
LINE
  8
0
 10
45.614
 11
45.584
 20
48.662
 21
48.694
  0
LINE
  8
0
 10
45.584
 11
45.557
 20
48.694
 21
48.729
  0
LINE
  8
0
 10
45.557
 11
45.536
 20
48.729
 21
48.767
  0
LINE
  8
0
 10
45.536
 11
45.519
 20
48.767
 21
48.808
  0
LINE
  8
0
 10
45.519
 11
45.508
 20
48.808
 21
48.85
  0
LINE
  8
0
 10
45.508
 11
45.502
 20
48.85
 21
48.894
  0
LINE
  8
0
 10
45.502
 11
45.501
 20
48.894
 21
48.938
  0
LINE
  8
0
 10
46.054
 11
46.164
 20
148.65
 21
148.915
  0
LINE
  8
0
 10
46.164
 11
46.429
 20
148.915
 21
149.025
  0
LINE
  8
0
 10
46.429
 11
46.694
 20
149.025
 21
148.915
  0
LINE
  8
0
 10
46.694
 11
46.804
 20
148.915
 21
148.65
  0
LINE
  8
0
 10
46.804
 11
46.694
 20
148.65
 21
148.385
  0
LINE
  8
0
 10
46.694
 11
46.429
 20
148.385
 21
148.275
  0
LINE
  8
0
 10
46.429
 11
46.164
 20
148.275
 21
148.385
  0
LINE
  8
0
 10
46.164
 11
46.054
 20
148.385
 21
148.65
  0
LINE
  8
0
 10
46.054
 11
46.164
 20
185.317
 21
185.582
  0
LINE
  8
0
 10
46.164
 11
46.429
 20
185.582
 21
185.692
  0
LINE
  8
0
 10
46.429
 11
46.694
 20
185.692
 21
185.582
  0
LINE
  8
0
 10
46.694
 11
46.804
 20
185.582
 21
185.317
  0
LINE
  8
0
 10
46.804
 11
46.694
 20
185.317
 21
185.052
  0
LINE
  8
0
 10
46.694
 11
46.429
 20
185.052
 21
184.942
  0
LINE
  8
0
 10
46.429
 11
46.164
 20
184.942
 21
185.052
  0
LINE
  8
0
 10
46.164
 11
46.054
 20
185.052
 21
185.317
  0
LINE
  8
0
 10
46.054
 11
46.164
 20
202.817
 21
203.082
  0
LINE
  8
0
 10
46.164
 11
46.429
 20
203.082
 21
203.192
  0
LINE
  8
0
 10
46.429
 11
46.694
 20
203.192
 21
203.082
  0
LINE
  8
0
 10
46.694
 11
46.804
 20
203.082
 21
202.817
  0
LINE
  8
0
 10
46.804
 11
46.694
 20
202.817
 21
202.552
  0
LINE
  8
0
 10
46.694
 11
46.429
 20
202.552
 21
202.442
  0
LINE
  8
0
 10
46.429
 11
46.164
 20
202.442
 21
202.552
  0
LINE
  8
0
 10
46.164
 11
46.054
 20
202.552
 21
202.817
  0
LINE
  8
0
 10
46.054
 11
46.164
 20
220.317
 21
220.582
  0
LINE
  8
0
 10
46.164
 11
46.429
 20
220.582
 21
220.692
  0
LINE
  8
0
 10
46.429
 11
46.694
 20
220.692
 21
220.582
  0
LINE
  8
0
 10
46.694
 11
46.804
 20
220.582
 21
220.317
  0
LINE
  8
0
 10
46.804
 11
46.694
 20
220.317
 21
220.051
  0
LINE
  8
0
 10
46.694
 11
46.429
 20
220.051
 21
219.942
  0
LINE
  8
0
 10
46.429
 11
46.164
 20
219.942
 21
220.051
  0
LINE
  8
0
 10
46.164
 11
46.054
 20
220.051
 21
220.317
  0
LINE
  8
0
 10
46.054
 11
46.164
 20
256.983
 21
257.248
  0
LINE
  8
0
 10
46.164
 11
46.429
 20
257.248
 21
257.358
  0
LINE
  8
0
 10
46.429
 11
46.694
 20
257.358
 21
257.248
  0
LINE
  8
0
 10
46.694
 11
46.804
 20
257.248
 21
256.983
  0
LINE
  8
0
 10
46.804
 11
46.694
 20
256.983
 21
256.718
  0
LINE
  8
0
 10
46.694
 11
46.429
 20
256.718
 21
256.608
  0
LINE
  8
0
 10
46.429
 11
46.164
 20
256.608
 21
256.718
  0
LINE
  8
0
 10
46.164
 11
46.054
 20
256.718
 21
256.983
  0
LINE
  8
0
 10
46.054
 11
46.164
 20
274.483
 21
274.749
  0
LINE
  8
0
 10
46.164
 11
46.429
 20
274.749
 21
274.858
  0
LINE
  8
0
 10
46.429
 11
46.694
 20
274.858
 21
274.749
  0
LINE
  8
0
 10
46.694
 11
46.804
 20
274.749
 21
274.483
  0
LINE
  8
0
 10
46.804
 11
46.694
 20
274.483
 21
274.218
  0
LINE
  8
0
 10
46.694
 11
46.429
 20
274.218
 21
274.108
  0
LINE
  8
0
 10
46.429
 11
46.164
 20
274.108
 21
274.218
  0
LINE
  8
0
 10
46.164
 11
46.054
 20
274.218
 21
274.483
  0
LINE
  8
0
 10
46.054
 11
46.164
 20
291.983
 21
292.249
  0
LINE
  8
0
 10
46.164
 11
46.429
 20
292.249
 21
292.358
  0
LINE
  8
0
 10
46.429
 11
46.694
 20
292.358
 21
292.249
  0
LINE
  8
0
 10
46.694
 11
46.804
 20
292.249
 21
291.983
  0
LINE
  8
0
 10
46.804
 11
46.694
 20
291.983
 21
291.718
  0
LINE
  8
0
 10
46.694
 11
46.429
 20
291.718
 21
291.608
  0
LINE
  8
0
 10
46.429
 11
46.164
 20
291.608
 21
291.718
  0
LINE
  8
0
 10
46.164
 11
46.054
 20
291.718
 21
291.983
  0
LINE
  8
0
 10
46.054
 11
46.164
 20
328.65
 21
328.915
  0
LINE
  8
0
 10
46.164
 11
46.429
 20
328.915
 21
329.025
  0
LINE
  8
0
 10
46.429
 11
46.694
 20
329.025
 21
328.915
  0
LINE
  8
0
 10
46.694
 11
46.804
 20
328.915
 21
328.65
  0
LINE
  8
0
 10
46.804
 11
46.694
 20
328.65
 21
328.385
  0
LINE
  8
0
 10
46.694
 11
46.429
 20
328.385
 21
328.275
  0
LINE
  8
0
 10
46.429
 11
46.164
 20
328.275
 21
328.385
  0
LINE
  8
0
 10
46.164
 11
46.054
 20
328.385
 21
328.65
  0
LINE
  8
0
 10
48.094
 11
48.094
 20
39.219
 21
39.262
  0
LINE
  8
0
 10
48.094
 11
48.099
 20
39.262
 21
39.306
  0
LINE
  8
0
 10
48.099
 11
48.109
 20
39.306
 21
39.349
  0
LINE
  8
0
 10
48.109
 11
48.125
 20
39.349
 21
39.39
  0
LINE
  8
0
 10
48.125
 11
48.146
 20
39.39
 21
39.429
  0
LINE
  8
0
 10
48.146
 11
48.171
 20
39.429
 21
39.464
  0
LINE
  8
0
 10
48.171
 11
48.201
 20
39.464
 21
39.497
  0
LINE
  8
0
 10
48.201
 11
48.235
 20
39.497
 21
39.525
  0
LINE
  8
0
 10
48.235
 11
48.272
 20
39.525
 21
39.549
  0
LINE
  8
0
 10
48.272
 11
48.311
 20
39.549
 21
39.568
  0
LINE
  8
0
 10
48.311
 11
48.353
 20
39.568
 21
39.582
  0
LINE
  8
0
 10
48.353
 11
48.396
 20
39.582
 21
39.591
  0
LINE
  8
0
 10
48.396
 11
48.44
 20
39.591
 21
39.594
  0
LINE
  8
0
 10
48.44
 11
48.484
 20
39.594
 21
39.592
  0
LINE
  8
0
 10
48.484
 11
48.527
 20
39.592
 21
39.584
  0
LINE
  8
0
 10
48.527
 11
48.569
 20
39.584
 21
39.571
  0
LINE
  8
0
 10
48.569
 11
48.609
 20
39.571
 21
39.553
  0
LINE
  8
0
 10
48.609
 11
48.646
 20
39.553
 21
39.53
  0
LINE
  8
0
 10
48.646
 11
48.68
 20
39.53
 21
39.502
  0
LINE
  8
0
 10
48.68
 11
48.711
 20
39.502
 21
39.47
  0
LINE
  8
0
 10
48.711
 11
48.737
 20
39.47
 21
39.435
  0
LINE
  8
0
 10
48.737
 11
48.758
 20
39.435
 21
39.397
  0
LINE
  8
0
 10
48.758
 11
48.775
 20
39.397
 21
39.356
  0
LINE
  8
0
 10
48.775
 11
48.786
 20
39.356
 21
39.313
  0
LINE
  8
0
 10
48.786
 11
48.792
 20
39.313
 21
39.27
  0
LINE
  8
0
 10
48.792
 11
48.793
 20
39.27
 21
39.226
  0
LINE
  8
0
 10
48.793
 11
48.788
 20
39.226
 21
39.182
  0
LINE
  8
0
 10
48.788
 11
48.777
 20
39.182
 21
39.14
  0
LINE
  8
0
 10
48.777
 11
48.762
 20
39.14
 21
39.098
  0
LINE
  8
0
 10
48.762
 11
48.741
 20
39.098
 21
39.06
  0
LINE
  8
0
 10
48.741
 11
48.715
 20
39.06
 21
39.024
  0
LINE
  8
0
 10
48.715
 11
48.686
 20
39.024
 21
38.991
  0
LINE
  8
0
 10
48.686
 11
48.652
 20
38.991
 21
38.963
  0
LINE
  8
0
 10
48.652
 11
48.615
 20
38.963
 21
38.939
  0
LINE
  8
0
 10
48.615
 11
48.576
 20
38.939
 21
38.92
  0
LINE
  8
0
 10
48.576
 11
48.534
 20
38.92
 21
38.906
  0
LINE
  8
0
 10
48.534
 11
48.491
 20
38.906
 21
38.898
  0
LINE
  8
0
 10
48.491
 11
48.447
 20
38.898
 21
38.894
  0
LINE
  8
0
 10
48.447
 11
48.403
 20
38.894
 21
38.896
  0
LINE
  8
0
 10
48.403
 11
48.36
 20
38.896
 21
38.904
  0
LINE
  8
0
 10
48.36
 11
48.318
 20
38.904
 21
38.917
  0
LINE
  8
0
 10
48.318
 11
48.278
 20
38.917
 21
38.936
  0
LINE
  8
0
 10
48.278
 11
48.241
 20
38.936
 21
38.959
  0
LINE
  8
0
 10
48.241
 11
48.207
 20
38.959
 21
38.987
  0
LINE
  8
0
 10
48.207
 11
48.176
 20
38.987
 21
39.018
  0
LINE
  8
0
 10
48.176
 11
48.15
 20
39.018
 21
39.054
  0
LINE
  8
0
 10
48.15
 11
48.128
 20
39.054
 21
39.092
  0
LINE
  8
0
 10
48.128
 11
48.112
 20
39.092
 21
39.133
  0
LINE
  8
0
 10
48.112
 11
48.1
 20
39.133
 21
39.175
  0
LINE
  8
0
 10
48.1
 11
48.094
 20
39.175
 21
39.219
  0
LINE
  8
0
 10
51.297
 11
51.297
 20
50.447
 21
50.491
  0
LINE
  8
0
 10
51.297
 11
51.302
 20
50.491
 21
50.534
  0
LINE
  8
0
 10
51.302
 11
51.313
 20
50.534
 21
50.577
  0
LINE
  8
0
 10
51.313
 11
51.328
 20
50.577
 21
50.618
  0
LINE
  8
0
 10
51.328
 11
51.349
 20
50.618
 21
50.657
  0
LINE
  8
0
 10
51.349
 11
51.374
 20
50.657
 21
50.693
  0
LINE
  8
0
 10
51.374
 11
51.404
 20
50.693
 21
50.725
  0
LINE
  8
0
 10
51.404
 11
51.438
 20
50.725
 21
50.753
  0
LINE
  8
0
 10
51.438
 11
51.475
 20
50.753
 21
50.777
  0
LINE
  8
0
 10
51.475
 11
51.514
 20
50.777
 21
50.796
  0
LINE
  8
0
 10
51.514
 11
51.556
 20
50.796
 21
50.811
  0
LINE
  8
0
 10
51.556
 11
51.599
 20
50.811
 21
50.819
  0
LINE
  8
0
 10
51.599
 11
51.643
 20
50.819
 21
50.823
  0
LINE
  8
0
 10
51.643
 11
51.686
 20
50.823
 21
50.82
  0
LINE
  8
0
 10
51.686
 11
51.73
 20
50.82
 21
50.812
  0
LINE
  8
0
 10
51.73
 11
51.772
 20
50.812
 21
50.799
  0
LINE
  8
0
 10
51.772
 11
51.812
 20
50.799
 21
50.781
  0
LINE
  8
0
 10
51.812
 11
51.849
 20
50.781
 21
50.758
  0
LINE
  8
0
 10
51.849
 11
51.883
 20
50.758
 21
50.73
  0
LINE
  8
0
 10
51.883
 11
51.914
 20
50.73
 21
50.698
  0
LINE
  8
0
 10
51.914
 11
51.94
 20
50.698
 21
50.663
  0
LINE
  8
0
 10
51.94
 11
51.962
 20
50.663
 21
50.625
  0
LINE
  8
0
 10
51.962
 11
51.978
 20
50.625
 21
50.584
  0
LINE
  8
0
 10
51.978
 11
51.99
 20
50.584
 21
50.542
  0
LINE
  8
0
 10
51.99
 11
51.996
 20
50.542
 21
50.498
  0
LINE
  8
0
 10
51.996
 11
51.996
 20
50.498
 21
50.454
  0
LINE
  8
0
 10
51.996
 11
51.991
 20
50.454
 21
50.411
  0
LINE
  8
0
 10
51.991
 11
51.98
 20
50.411
 21
50.368
  0
LINE
  8
0
 10
51.98
 11
51.965
 20
50.368
 21
50.327
  0
LINE
  8
0
 10
51.965
 11
51.944
 20
50.327
 21
50.288
  0
LINE
  8
0
 10
51.944
 11
51.918
 20
50.288
 21
50.252
  0
LINE
  8
0
 10
51.918
 11
51.889
 20
50.252
 21
50.22
  0
LINE
  8
0
 10
51.889
 11
51.855
 20
50.22
 21
50.191
  0
LINE
  8
0
 10
51.855
 11
51.818
 20
50.191
 21
50.168
  0
LINE
  8
0
 10
51.818
 11
51.779
 20
50.168
 21
50.149
  0
LINE
  8
0
 10
51.779
 11
51.737
 20
50.149
 21
50.134
  0
LINE
  8
0
 10
51.737
 11
51.694
 20
50.134
 21
50.126
  0
LINE
  8
0
 10
51.694
 11
51.65
 20
50.126
 21
50.122
  0
LINE
  8
0
 10
51.65
 11
51.606
 20
50.122
 21
50.125
  0
LINE
  8
0
 10
51.606
 11
51.563
 20
50.125
 21
50.133
  0
LINE
  8
0
 10
51.563
 11
51.521
 20
50.133
 21
50.146
  0
LINE
  8
0
 10
51.521
 11
51.481
 20
50.146
 21
50.164
  0
LINE
  8
0
 10
51.481
 11
51.444
 20
50.164
 21
50.187
  0
LINE
  8
0
 10
51.444
 11
51.409
 20
50.187
 21
50.215
  0
LINE
  8
0
 10
51.409
 11
51.379
 20
50.215
 21
50.247
  0
LINE
  8
0
 10
51.379
 11
51.353
 20
50.247
 21
50.282
  0
LINE
  8
0
 10
51.353
 11
51.331
 20
50.282
 21
50.32
  0
LINE
  8
0
 10
51.331
 11
51.314
 20
50.32
 21
50.361
  0
LINE
  8
0
 10
51.314
 11
51.303
 20
50.361
 21
50.403
  0
LINE
  8
0
 10
51.303
 11
51.297
 20
50.403
 21
50.447
  0
LINE
  8
0
 10
51.297
 11
51.297
 20
122.114
 21
122.158
  0
LINE
  8
0
 10
51.297
 11
51.302
 20
122.158
 21
122.201
  0
LINE
  8
0
 10
51.302
 11
51.313
 20
122.201
 21
122.244
  0
LINE
  8
0
 10
51.313
 11
51.328
 20
122.244
 21
122.285
  0
LINE
  8
0
 10
51.328
 11
51.349
 20
122.285
 21
122.324
  0
LINE
  8
0
 10
51.349
 11
51.374
 20
122.324
 21
122.359
  0
LINE
  8
0
 10
51.374
 11
51.404
 20
122.359
 21
122.392
  0
LINE
  8
0
 10
51.404
 11
51.438
 20
122.392
 21
122.42
  0
LINE
  8
0
 10
51.438
 11
51.475
 20
122.42
 21
122.444
  0
LINE
  8
0
 10
51.475
 11
51.514
 20
122.444
 21
122.463
  0
LINE
  8
0
 10
51.514
 11
51.556
 20
122.463
 21
122.477
  0
LINE
  8
0
 10
51.556
 11
51.599
 20
122.477
 21
122.486
  0
LINE
  8
0
 10
51.599
 11
51.643
 20
122.486
 21
122.489
  0
LINE
  8
0
 10
51.643
 11
51.686
 20
122.489
 21
122.487
  0
LINE
  8
0
 10
51.686
 11
51.73
 20
122.487
 21
122.479
  0
LINE
  8
0
 10
51.73
 11
51.772
 20
122.479
 21
122.466
  0
LINE
  8
0
 10
51.772
 11
51.812
 20
122.466
 21
122.448
  0
LINE
  8
0
 10
51.812
 11
51.849
 20
122.448
 21
122.424
  0
LINE
  8
0
 10
51.849
 11
51.883
 20
122.424
 21
122.397
  0
LINE
  8
0
 10
51.883
 11
51.914
 20
122.397
 21
122.365
  0
LINE
  8
0
 10
51.914
 11
51.94
 20
122.365
 21
122.33
  0
LINE
  8
0
 10
51.94
 11
51.962
 20
122.33
 21
122.292
  0
LINE
  8
0
 10
51.962
 11
51.978
 20
122.292
 21
122.251
  0
LINE
  8
0
 10
51.978
 11
51.99
 20
122.251
 21
122.208
  0
LINE
  8
0
 10
51.99
 11
51.996
 20
122.208
 21
122.165
  0
LINE
  8
0
 10
51.996
 11
51.996
 20
122.165
 21
122.121
  0
LINE
  8
0
 10
51.996
 11
51.991
 20
122.121
 21
122.077
  0
LINE
  8
0
 10
51.991
 11
51.98
 20
122.077
 21
122.034
  0
LINE
  8
0
 10
51.98
 11
51.965
 20
122.034
 21
121.993
  0
LINE
  8
0
 10
51.965
 11
51.944
 20
121.993
 21
121.955
  0
LINE
  8
0
 10
51.944
 11
51.918
 20
121.955
 21
121.919
  0
LINE
  8
0
 10
51.918
 11
51.889
 20
121.919
 21
121.887
  0
LINE
  8
0
 10
51.889
 11
51.855
 20
121.887
 21
121.858
  0
LINE
  8
0
 10
51.855
 11
51.818
 20
121.858
 21
121.834
  0
LINE
  8
0
 10
51.818
 11
51.779
 20
121.834
 21
121.815
  0
LINE
  8
0
 10
51.779
 11
51.737
 20
121.815
 21
121.801
  0
LINE
  8
0
 10
51.737
 11
51.694
 20
121.801
 21
121.792
  0
LINE
  8
0
 10
51.694
 11
51.65
 20
121.792
 21
121.789
  0
LINE
  8
0
 10
51.65
 11
51.606
 20
121.789
 21
121.791
  0
LINE
  8
0
 10
51.606
 11
51.563
 20
121.791
 21
121.799
  0
LINE
  8
0
 10
51.563
 11
51.521
 20
121.799
 21
121.812
  0
LINE
  8
0
 10
51.521
 11
51.481
 20
121.812
 21
121.831
  0
LINE
  8
0
 10
51.481
 11
51.444
 20
121.831
 21
121.854
  0
LINE
  8
0
 10
51.444
 11
51.409
 20
121.854
 21
121.881
  0
LINE
  8
0
 10
51.409
 11
51.379
 20
121.881
 21
121.913
  0
LINE
  8
0
 10
51.379
 11
51.353
 20
121.913
 21
121.949
  0
LINE
  8
0
 10
51.353
 11
51.331
 20
121.949
 21
121.987
  0
LINE
  8
0
 10
51.331
 11
51.314
 20
121.987
 21
122.027
  0
LINE
  8
0
 10
51.314
 11
51.303
 20
122.027
 21
122.07
  0
LINE
  8
0
 10
51.303
 11
51.297
 20
122.07
 21
122.114
  0
LINE
  8
0
 10
52.846
 11
52.856
 20
51.029
 21
51.12
  0
LINE
  8
0
 10
52.856
 11
52.878
 20
51.12
 21
51.21
  0
LINE
  8
0
 10
52.878
 11
52.911
 20
51.21
 21
51.295
  0
LINE
  8
0
 10
52.911
 11
52.955
 20
51.295
 21
51.377
  0
LINE
  8
0
 10
52.955
 11
53.008
 20
51.377
 21
51.452
  0
LINE
  8
0
 10
53.008
 11
53.071
 20
51.452
 21
51.519
  0
LINE
  8
0
 10
53.071
 11
53.141
 20
51.519
 21
51.579
  0
LINE
  8
0
 10
53.141
 11
53.218
 20
51.579
 21
51.629
  0
LINE
  8
0
 10
53.218
 11
53.301
 20
51.629
 21
51.669
  0
LINE
  8
0
 10
53.301
 11
53.388
 20
51.669
 21
51.698
  0
LINE
  8
0
 10
53.388
 11
53.479
 20
51.698
 21
51.717
  0
LINE
  8
0
 10
53.479
 11
53.57
 20
51.717
 21
51.723
  0
LINE
  8
0
 10
53.57
 11
53.662
 20
51.723
 21
51.719
  0
LINE
  8
0
 10
53.662
 11
53.753
 20
51.719
 21
51.702
  0
LINE
  8
0
 10
53.753
 11
53.841
 20
51.702
 21
51.675
  0
LINE
  8
0
 10
53.841
 11
53.925
 20
51.675
 21
51.636
  0
LINE
  8
0
 10
53.925
 11
54.003
 20
51.636
 21
51.588
  0
LINE
  8
0
 10
54.003
 11
54.075
 20
51.588
 21
51.53
  0
LINE
  8
0
 10
54.075
 11
54.138
 20
51.53
 21
51.463
  0
LINE
  8
0
 10
54.138
 11
54.193
 20
51.463
 21
51.39
  0
LINE
  8
0
 10
54.193
 11
54.238
 20
51.39
 21
51.309
  0
LINE
  8
0
 10
54.238
 11
54.273
 20
51.309
 21
51.224
  0
LINE
  8
0
 10
54.273
 11
54.297
 20
51.224
 21
51.135
  0
LINE
  8
0
 10
54.297
 11
54.31
 20
51.135
 21
51.044
  0
LINE
  8
0
 10
54.31
 11
54.311
 20
51.044
 21
50.952
  0
LINE
  8
0
 10
54.311
 11
54.3
 20
50.952
 21
50.86
  0
LINE
  8
0
 10
54.3
 11
54.278
 20
50.86
 21
50.771
  0
LINE
  8
0
 10
54.278
 11
54.245
 20
50.771
 21
50.685
  0
LINE
  8
0
 10
54.245
 11
54.201
 20
50.685
 21
50.604
  0
LINE
  8
0
 10
54.201
 11
54.148
 20
50.604
 21
50.529
  0
LINE
  8
0
 10
54.148
 11
54.086
 20
50.529
 21
50.461
  0
LINE
  8
0
 10
54.086
 11
54.015
 20
50.461
 21
50.401
  0
LINE
  8
0
 10
54.015
 11
53.938
 20
50.401
 21
50.351
  0
LINE
  8
0
 10
53.938
 11
53.855
 20
50.351
 21
50.311
  0
LINE
  8
0
 10
53.855
 11
53.768
 20
50.311
 21
50.282
  0
LINE
  8
0
 10
53.768
 11
53.678
 20
50.282
 21
50.264
  0
LINE
  8
0
 10
53.678
 11
53.586
 20
50.264
 21
50.257
  0
LINE
  8
0
 10
53.586
 11
53.494
 20
50.257
 21
50.262
  0
LINE
  8
0
 10
53.494
 11
53.403
 20
50.262
 21
50.278
  0
LINE
  8
0
 10
53.403
 11
53.316
 20
50.278
 21
50.305
  0
LINE
  8
0
 10
53.316
 11
53.232
 20
50.305
 21
50.344
  0
LINE
  8
0
 10
53.232
 11
53.154
 20
50.344
 21
50.392
  0
LINE
  8
0
 10
53.154
 11
53.082
 20
50.392
 21
50.45
  0
LINE
  8
0
 10
53.082
 11
53.018
 20
50.45
 21
50.517
  0
LINE
  8
0
 10
53.018
 11
52.963
 20
50.517
 21
50.591
  0
LINE
  8
0
 10
52.963
 11
52.918
 20
50.591
 21
50.671
  0
LINE
  8
0
 10
52.918
 11
52.883
 20
50.671
 21
50.756
  0
LINE
  8
0
 10
52.883
 11
52.859
 20
50.756
 21
50.845
  0
LINE
  8
0
 10
52.859
 11
52.847
 20
50.845
 21
50.936
  0
LINE
  8
0
 10
52.847
 11
52.846
 20
50.936
 21
51.029
  0
LINE
  8
0
 10
52.846
 11
52.856
 20
122.695
 21
122.787
  0
LINE
  8
0
 10
52.856
 11
52.878
 20
122.787
 21
122.876
  0
LINE
  8
0
 10
52.878
 11
52.911
 20
122.876
 21
122.962
  0
LINE
  8
0
 10
52.911
 11
52.955
 20
122.962
 21
123.043
  0
LINE
  8
0
 10
52.955
 11
53.008
 20
123.043
 21
123.118
  0
LINE
  8
0
 10
53.008
 11
53.071
 20
123.118
 21
123.186
  0
LINE
  8
0
 10
53.071
 11
53.141
 20
123.186
 21
123.245
  0
LINE
  8
0
 10
53.141
 11
53.218
 20
123.245
 21
123.296
  0
LINE
  8
0
 10
53.218
 11
53.301
 20
123.296
 21
123.336
  0
LINE
  8
0
 10
53.301
 11
53.388
 20
123.336
 21
123.365
  0
LINE
  8
0
 10
53.388
 11
53.479
 20
123.365
 21
123.383
  0
LINE
  8
0
 10
53.479
 11
53.57
 20
123.383
 21
123.39
  0
LINE
  8
0
 10
53.57
 11
53.662
 20
123.39
 21
123.385
  0
LINE
  8
0
 10
53.662
 11
53.753
 20
123.385
 21
123.369
  0
LINE
  8
0
 10
53.753
 11
53.841
 20
123.369
 21
123.341
  0
LINE
  8
0
 10
53.841
 11
53.925
 20
123.341
 21
123.303
  0
LINE
  8
0
 10
53.925
 11
54.003
 20
123.303
 21
123.254
  0
LINE
  8
0
 10
54.003
 11
54.075
 20
123.254
 21
123.197
  0
LINE
  8
0
 10
54.075
 11
54.138
 20
123.197
 21
123.13
  0
LINE
  8
0
 10
54.138
 11
54.193
 20
123.13
 21
123.056
  0
LINE
  8
0
 10
54.193
 11
54.238
 20
123.056
 21
122.976
  0
LINE
  8
0
 10
54.238
 11
54.273
 20
122.976
 21
122.891
  0
LINE
  8
0
 10
54.273
 11
54.297
 20
122.891
 21
122.802
  0
LINE
  8
0
 10
54.297
 11
54.31
 20
122.802
 21
122.711
  0
LINE
  8
0
 10
54.31
 11
54.311
 20
122.711
 21
122.618
  0
LINE
  8
0
 10
54.311
 11
54.3
 20
122.618
 21
122.527
  0
LINE
  8
0
 10
54.3
 11
54.278
 20
122.527
 21
122.437
  0
LINE
  8
0
 10
54.278
 11
54.245
 20
122.437
 21
122.352
  0
LINE
  8
0
 10
54.245
 11
54.201
 20
122.352
 21
122.271
  0
LINE
  8
0
 10
54.201
 11
54.148
 20
122.271
 21
122.195
  0
LINE
  8
0
 10
54.148
 11
54.086
 20
122.195
 21
122.128
  0
LINE
  8
0
 10
54.086
 11
54.015
 20
122.128
 21
122.068
  0
LINE
  8
0
 10
54.015
 11
53.938
 20
122.068
 21
122.018
  0
LINE
  8
0
 10
53.938
 11
53.855
 20
122.018
 21
121.978
  0
LINE
  8
0
 10
53.855
 11
53.768
 20
121.978
 21
121.949
  0
LINE
  8
0
 10
53.768
 11
53.678
 20
121.949
 21
121.93
  0
LINE
  8
0
 10
53.678
 11
53.586
 20
121.93
 21
121.923
  0
LINE
  8
0
 10
53.586
 11
53.494
 20
121.923
 21
121.928
  0
LINE
  8
0
 10
53.494
 11
53.403
 20
121.928
 21
121.945
  0
LINE
  8
0
 10
53.403
 11
53.316
 20
121.945
 21
121.972
  0
LINE
  8
0
 10
53.316
 11
53.232
 20
121.972
 21
122.011
  0
LINE
  8
0
 10
53.232
 11
53.154
 20
122.011
 21
122.059
  0
LINE
  8
0
 10
53.154
 11
53.082
 20
122.059
 21
122.117
  0
LINE
  8
0
 10
53.082
 11
53.018
 20
122.117
 21
122.183
  0
LINE
  8
0
 10
53.018
 11
52.963
 20
122.183
 21
122.257
  0
LINE
  8
0
 10
52.963
 11
52.918
 20
122.257
 21
122.338
  0
LINE
  8
0
 10
52.918
 11
52.883
 20
122.338
 21
122.423
  0
LINE
  8
0
 10
52.883
 11
52.859
 20
122.423
 21
122.512
  0
LINE
  8
0
 10
52.859
 11
52.847
 20
122.512
 21
122.603
  0
LINE
  8
0
 10
52.847
 11
52.846
 20
122.603
 21
122.695
  0
LINE
  8
0
 10
53.89
 11
53.89
 20
40.772
 21
40.816
  0
LINE
  8
0
 10
53.89
 11
53.895
 20
40.816
 21
40.859
  0
LINE
  8
0
 10
53.895
 11
53.905
 20
40.859
 21
40.902
  0
LINE
  8
0
 10
53.905
 11
53.921
 20
40.902
 21
40.943
  0
LINE
  8
0
 10
53.921
 11
53.941
 20
40.943
 21
40.982
  0
LINE
  8
0
 10
53.941
 11
53.967
 20
40.982
 21
41.017
  0
LINE
  8
0
 10
53.967
 11
53.997
 20
41.017
 21
41.05
  0
LINE
  8
0
 10
53.997
 11
54.03
 20
41.05
 21
41.078
  0
LINE
  8
0
 10
54.03
 11
54.067
 20
41.078
 21
41.102
  0
LINE
  8
0
 10
54.067
 11
54.107
 20
41.102
 21
41.121
  0
LINE
  8
0
 10
54.107
 11
54.148
 20
41.121
 21
41.135
  0
LINE
  8
0
 10
54.148
 11
54.191
 20
41.135
 21
41.144
  0
LINE
  8
0
 10
54.191
 11
54.235
 20
41.144
 21
41.147
  0
LINE
  8
0
 10
54.235
 11
54.279
 20
41.147
 21
41.145
  0
LINE
  8
0
 10
54.279
 11
54.323
 20
41.145
 21
41.137
  0
LINE
  8
0
 10
54.323
 11
54.364
 20
41.137
 21
41.124
  0
LINE
  8
0
 10
54.364
 11
54.404
 20
41.124
 21
41.106
  0
LINE
  8
0
 10
54.404
 11
54.442
 20
41.106
 21
41.082
  0
LINE
  8
0
 10
54.442
 11
54.476
 20
41.082
 21
41.055
  0
LINE
  8
0
 10
54.476
 11
54.506
 20
41.055
 21
41.023
  0
LINE
  8
0
 10
54.506
 11
54.533
 20
41.023
 21
40.988
  0
LINE
  8
0
 10
54.533
 11
54.554
 20
40.988
 21
40.95
  0
LINE
  8
0
 10
54.554
 11
54.571
 20
40.95
 21
40.909
  0
LINE
  8
0
 10
54.571
 11
54.582
 20
40.909
 21
40.866
  0
LINE
  8
0
 10
54.582
 11
54.588
 20
40.866
 21
40.823
  0
LINE
  8
0
 10
54.588
 11
54.588
 20
40.823
 21
40.779
  0
LINE
  8
0
 10
54.588
 11
54.583
 20
40.779
 21
40.735
  0
LINE
  8
0
 10
54.583
 11
54.573
 20
40.735
 21
40.692
  0
LINE
  8
0
 10
54.573
 11
54.557
 20
40.692
 21
40.651
  0
LINE
  8
0
 10
54.557
 11
54.536
 20
40.651
 21
40.613
  0
LINE
  8
0
 10
54.536
 11
54.511
 20
40.613
 21
40.577
  0
LINE
  8
0
 10
54.511
 11
54.481
 20
40.577
 21
40.545
  0
LINE
  8
0
 10
54.481
 11
54.448
 20
40.545
 21
40.516
  0
LINE
  8
0
 10
54.448
 11
54.411
 20
40.516
 21
40.492
  0
LINE
  8
0
 10
54.411
 11
54.371
 20
40.492
 21
40.473
  0
LINE
  8
0
 10
54.371
 11
54.329
 20
40.473
 21
40.459
  0
LINE
  8
0
 10
54.329
 11
54.286
 20
40.459
 21
40.451
  0
LINE
  8
0
 10
54.286
 11
54.243
 20
40.451
 21
40.447
  0
LINE
  8
0
 10
54.243
 11
54.199
 20
40.447
 21
40.449
  0
LINE
  8
0
 10
54.199
 11
54.155
 20
40.449
 21
40.457
  0
LINE
  8
0
 10
54.155
 11
54.113
 20
40.457
 21
40.47
  0
LINE
  8
0
 10
54.113
 11
54.073
 20
40.47
 21
40.489
  0
LINE
  8
0
 10
54.073
 11
54.036
 20
40.489
 21
40.512
  0
LINE
  8
0
 10
54.036
 11
54.002
 20
40.512
 21
40.539
  0
LINE
  8
0
 10
54.002
 11
53.972
 20
40.539
 21
40.571
  0
LINE
  8
0
 10
53.972
 11
53.945
 20
40.571
 21
40.606
  0
LINE
  8
0
 10
53.945
 11
53.924
 20
40.606
 21
40.645
  0
LINE
  8
0
 10
53.924
 11
53.907
 20
40.645
 21
40.686
  0
LINE
  8
0
 10
53.907
 11
53.896
 20
40.686
 21
40.728
  0
LINE
  8
0
 10
53.896
 11
53.89
 20
40.728
 21
40.772
  0
LINE
  8
0
 10
53.89
 11
53.89
 20
112.438
 21
112.482
  0
LINE
  8
0
 10
53.89
 11
53.895
 20
112.482
 21
112.526
  0
LINE
  8
0
 10
53.895
 11
53.905
 20
112.526
 21
112.569
  0
LINE
  8
0
 10
53.905
 11
53.921
 20
112.569
 21
112.61
  0
LINE
  8
0
 10
53.921
 11
53.941
 20
112.61
 21
112.648
  0
LINE
  8
0
 10
53.941
 11
53.967
 20
112.648
 21
112.684
  0
LINE
  8
0
 10
53.967
 11
53.997
 20
112.684
 21
112.716
  0
LINE
  8
0
 10
53.997
 11
54.03
 20
112.716
 21
112.745
  0
LINE
  8
0
 10
54.03
 11
54.067
 20
112.745
 21
112.769
  0
LINE
  8
0
 10
54.067
 11
54.107
 20
112.769
 21
112.788
  0
LINE
  8
0
 10
54.107
 11
54.148
 20
112.788
 21
112.802
  0
LINE
  8
0
 10
54.148
 11
54.191
 20
112.802
 21
112.81
  0
LINE
  8
0
 10
54.191
 11
54.235
 20
112.81
 21
112.814
  0
LINE
  8
0
 10
54.235
 11
54.279
 20
112.814
 21
112.812
  0
LINE
  8
0
 10
54.279
 11
54.323
 20
112.812
 21
112.804
  0
LINE
  8
0
 10
54.323
 11
54.364
 20
112.804
 21
112.79
  0
LINE
  8
0
 10
54.364
 11
54.404
 20
112.79
 21
112.772
  0
LINE
  8
0
 10
54.404
 11
54.442
 20
112.772
 21
112.749
  0
LINE
  8
0
 10
54.442
 11
54.476
 20
112.749
 21
112.721
  0
LINE
  8
0
 10
54.476
 11
54.506
 20
112.721
 21
112.69
  0
LINE
  8
0
 10
54.506
 11
54.533
 20
112.69
 21
112.654
  0
LINE
  8
0
 10
54.533
 11
54.554
 20
112.654
 21
112.616
  0
LINE
  8
0
 10
54.554
 11
54.571
 20
112.616
 21
112.575
  0
LINE
  8
0
 10
54.571
 11
54.582
 20
112.575
 21
112.533
  0
LINE
  8
0
 10
54.582
 11
54.588
 20
112.533
 21
112.489
  0
LINE
  8
0
 10
54.588
 11
54.588
 20
112.489
 21
112.446
  0
LINE
  8
0
 10
54.588
 11
54.583
 20
112.446
 21
112.402
  0
LINE
  8
0
 10
54.583
 11
54.573
 20
112.402
 21
112.359
  0
LINE
  8
0
 10
54.573
 11
54.557
 20
112.359
 21
112.318
  0
LINE
  8
0
 10
54.557
 11
54.536
 20
112.318
 21
112.279
  0
LINE
  8
0
 10
54.536
 11
54.511
 20
112.279
 21
112.244
  0
LINE
  8
0
 10
54.511
 11
54.481
 20
112.244
 21
112.211
  0
LINE
  8
0
 10
54.481
 11
54.448
 20
112.211
 21
112.183
  0
LINE
  8
0
 10
54.448
 11
54.411
 20
112.183
 21
112.159
  0
LINE
  8
0
 10
54.411
 11
54.371
 20
112.159
 21
112.14
  0
LINE
  8
0
 10
54.371
 11
54.329
 20
112.14
 21
112.126
  0
LINE
  8
0
 10
54.329
 11
54.286
 20
112.126
 21
112.117
  0
LINE
  8
0
 10
54.286
 11
54.243
 20
112.117
 21
112.114
  0
LINE
  8
0
 10
54.243
 11
54.199
 20
112.114
 21
112.116
  0
LINE
  8
0
 10
54.199
 11
54.155
 20
112.116
 21
112.124
  0
LINE
  8
0
 10
54.155
 11
54.113
 20
112.124
 21
112.137
  0
LINE
  8
0
 10
54.113
 11
54.073
 20
112.137
 21
112.155
  0
LINE
  8
0
 10
54.073
 11
54.036
 20
112.155
 21
112.178
  0
LINE
  8
0
 10
54.036
 11
54.002
 20
112.178
 21
112.206
  0
LINE
  8
0
 10
54.002
 11
53.972
 20
112.206
 21
112.238
  0
LINE
  8
0
 10
53.972
 11
53.945
 20
112.238
 21
112.273
  0
LINE
  8
0
 10
53.945
 11
53.924
 20
112.273
 21
112.311
  0
LINE
  8
0
 10
53.924
 11
53.907
 20
112.311
 21
112.352
  0
LINE
  8
0
 10
53.907
 11
53.896
 20
112.352
 21
112.394
  0
LINE
  8
0
 10
53.896
 11
53.89
 20
112.394
 21
112.438
  0
LINE
  8
0
 10
54.255
 11
58.609
 20
49.2
 21
50.367
  0
LINE
  8
0
 10
58.609
 11
60.216
 20
50.367
 21
44.37
  0
LINE
  8
0
 10
60.216
 11
55.862
 20
44.37
 21
43.203
  0
LINE
  8
0
 10
55.862
 11
54.255
 20
43.203
 21
49.2
  0
LINE
  8
0
 10
54.255
 11
58.609
 20
120.867
 21
122.033
  0
LINE
  8
0
 10
58.609
 11
60.216
 20
122.033
 21
116.037
  0
LINE
  8
0
 10
60.216
 11
55.862
 20
116.037
 21
114.87
  0
LINE
  8
0
 10
55.862
 11
54.255
 20
114.87
 21
120.867
  0
LINE
  8
0
 10
55.438
 11
55.449
 20
41.353
 21
41.445
  0
LINE
  8
0
 10
55.449
 11
55.471
 20
41.445
 21
41.534
  0
LINE
  8
0
 10
55.471
 11
55.504
 20
41.534
 21
41.62
  0
LINE
  8
0
 10
55.504
 11
55.548
 20
41.62
 21
41.701
  0
LINE
  8
0
 10
55.548
 11
55.601
 20
41.701
 21
41.776
  0
LINE
  8
0
 10
55.601
 11
55.663
 20
41.776
 21
41.844
  0
LINE
  8
0
 10
55.663
 11
55.733
 20
41.844
 21
41.904
  0
LINE
  8
0
 10
55.733
 11
55.811
 20
41.904
 21
41.954
  0
LINE
  8
0
 10
55.811
 11
55.894
 20
41.954
 21
41.994
  0
LINE
  8
0
 10
55.894
 11
55.981
 20
41.994
 21
42.023
  0
LINE
  8
0
 10
55.981
 11
56.071
 20
42.023
 21
42.041
  0
LINE
  8
0
 10
56.071
 11
56.163
 20
42.041
 21
42.048
  0
LINE
  8
0
 10
56.163
 11
56.255
 20
42.048
 21
42.043
  0
LINE
  8
0
 10
56.255
 11
56.346
 20
42.043
 21
42.027
  0
LINE
  8
0
 10
56.346
 11
56.433
 20
42.027
 21
41.999
  0
LINE
  8
0
 10
56.433
 11
56.517
 20
41.999
 21
41.961
  0
LINE
  8
0
 10
56.517
 11
56.595
 20
41.961
 21
41.913
  0
LINE
  8
0
 10
56.595
 11
56.667
 20
41.913
 21
41.855
  0
LINE
  8
0
 10
56.667
 11
56.731
 20
41.855
 21
41.788
  0
LINE
  8
0
 10
56.731
 11
56.786
 20
41.788
 21
41.714
  0
LINE
  8
0
 10
56.786
 11
56.831
 20
41.714
 21
41.634
  0
LINE
  8
0
 10
56.831
 11
56.866
 20
41.634
 21
41.548
  0
LINE
  8
0
 10
56.866
 11
56.89
 20
41.548
 21
41.46
  0
LINE
  8
0
 10
56.89
 11
56.902
 20
41.46
 21
41.369
  0
LINE
  8
0
 10
56.902
 11
56.903
 20
41.369
 21
41.276
  0
LINE
  8
0
 10
56.903
 11
56.893
 20
41.276
 21
41.185
  0
LINE
  8
0
 10
56.893
 11
56.871
 20
41.185
 21
41.095
  0
LINE
  8
0
 10
56.871
 11
56.837
 20
41.095
 21
41.009
  0
LINE
  8
0
 10
56.837
 11
56.794
 20
41.009
 21
40.929
  0
LINE
  8
0
 10
56.794
 11
56.74
 20
40.929
 21
40.853
  0
LINE
  8
0
 10
56.74
 11
56.678
 20
40.853
 21
40.786
  0
LINE
  8
0
 10
56.678
 11
56.608
 20
40.786
 21
40.726
  0
LINE
  8
0
 10
56.608
 11
56.531
 20
40.726
 21
40.676
  0
LINE
  8
0
 10
56.531
 11
56.448
 20
40.676
 21
40.636
  0
LINE
  8
0
 10
56.448
 11
56.36
 20
40.636
 21
40.606
  0
LINE
  8
0
 10
56.36
 11
56.27
 20
40.606
 21
40.588
  0
LINE
  8
0
 10
56.27
 11
56.178
 20
40.588
 21
40.581
  0
LINE
  8
0
 10
56.178
 11
56.086
 20
40.581
 21
40.586
  0
LINE
  8
0
 10
56.086
 11
55.996
 20
40.586
 21
40.603
  0
LINE
  8
0
 10
55.996
 11
55.908
 20
40.603
 21
40.63
  0
LINE
  8
0
 10
55.908
 11
55.824
 20
40.63
 21
40.669
  0
LINE
  8
0
 10
55.824
 11
55.746
 20
40.669
 21
40.717
  0
LINE
  8
0
 10
55.746
 11
55.674
 20
40.717
 21
40.775
  0
LINE
  8
0
 10
55.674
 11
55.611
 20
40.775
 21
40.841
  0
LINE
  8
0
 10
55.611
 11
55.556
 20
40.841
 21
40.915
  0
LINE
  8
0
 10
55.556
 11
55.511
 20
40.915
 21
40.996
  0
LINE
  8
0
 10
55.511
 11
55.476
 20
40.996
 21
41.081
  0
LINE
  8
0
 10
55.476
 11
55.452
 20
41.081
 21
41.17
  0
LINE
  8
0
 10
55.452
 11
55.439
 20
41.17
 21
41.261
  0
LINE
  8
0
 10
55.439
 11
55.438
 20
41.261
 21
41.353
  0
LINE
  8
0
 10
55.438
 11
55.449
 20
113.02
 21
113.111
  0
LINE
  8
0
 10
55.449
 11
55.471
 20
113.111
 21
113.201
  0
LINE
  8
0
 10
55.471
 11
55.504
 20
113.201
 21
113.287
  0
LINE
  8
0
 10
55.504
 11
55.548
 20
113.287
 21
113.368
  0
LINE
  8
0
 10
55.548
 11
55.601
 20
113.368
 21
113.443
  0
LINE
  8
0
 10
55.601
 11
55.663
 20
113.443
 21
113.511
  0
LINE
  8
0
 10
55.663
 11
55.733
 20
113.511
 21
113.57
  0
LINE
  8
0
 10
55.733
 11
55.811
 20
113.57
 21
113.62
  0
LINE
  8
0
 10
55.811
 11
55.894
 20
113.62
 21
113.66
  0
LINE
  8
0
 10
55.894
 11
55.981
 20
113.66
 21
113.69
  0
LINE
  8
0
 10
55.981
 11
56.071
 20
113.69
 21
113.708
  0
LINE
  8
0
 10
56.071
 11
56.163
 20
113.708
 21
113.715
  0
LINE
  8
0
 10
56.163
 11
56.255
 20
113.715
 21
113.71
  0
LINE
  8
0
 10
56.255
 11
56.346
 20
113.71
 21
113.694
  0
LINE
  8
0
 10
56.346
 11
56.433
 20
113.694
 21
113.666
  0
LINE
  8
0
 10
56.433
 11
56.517
 20
113.666
 21
113.628
  0
LINE
  8
0
 10
56.517
 11
56.595
 20
113.628
 21
113.579
  0
LINE
  8
0
 10
56.595
 11
56.667
 20
113.579
 21
113.521
  0
LINE
  8
0
 10
56.667
 11
56.731
 20
113.521
 21
113.455
  0
LINE
  8
0
 10
56.731
 11
56.786
 20
113.455
 21
113.381
  0
LINE
  8
0
 10
56.786
 11
56.831
 20
113.381
 21
113.301
  0
LINE
  8
0
 10
56.831
 11
56.866
 20
113.301
 21
113.215
  0
LINE
  8
0
 10
56.866
 11
56.89
 20
113.215
 21
113.126
  0
LINE
  8
0
 10
56.89
 11
56.902
 20
113.126
 21
113.035
  0
LINE
  8
0
 10
56.902
 11
56.903
 20
113.035
 21
112.943
  0
LINE
  8
0
 10
56.903
 11
56.893
 20
112.943
 21
112.852
  0
LINE
  8
0
 10
56.893
 11
56.871
 20
112.852
 21
112.762
  0
LINE
  8
0
 10
56.871
 11
56.837
 20
112.762
 21
112.676
  0
LINE
  8
0
 10
56.837
 11
56.794
 20
112.676
 21
112.595
  0
LINE
  8
0
 10
56.794
 11
56.74
 20
112.595
 21
112.52
  0
LINE
  8
0
 10
56.74
 11
56.678
 20
112.52
 21
112.452
  0
LINE
  8
0
 10
56.678
 11
56.608
 20
112.452
 21
112.393
  0
LINE
  8
0
 10
56.608
 11
56.531
 20
112.393
 21
112.343
  0
LINE
  8
0
 10
56.531
 11
56.448
 20
112.343
 21
112.302
  0
LINE
  8
0
 10
56.448
 11
56.36
 20
112.302
 21
112.273
  0
LINE
  8
0
 10
56.36
 11
56.27
 20
112.273
 21
112.255
  0
LINE
  8
0
 10
56.27
 11
56.178
 20
112.255
 21
112.248
  0
LINE
  8
0
 10
56.178
 11
56.086
 20
112.248
 21
112.253
  0
LINE
  8
0
 10
56.086
 11
55.996
 20
112.253
 21
112.269
  0
LINE
  8
0
 10
55.996
 11
55.908
 20
112.269
 21
112.297
  0
LINE
  8
0
 10
55.908
 11
55.824
 20
112.297
 21
112.335
  0
LINE
  8
0
 10
55.824
 11
55.746
 20
112.335
 21
112.384
  0
LINE
  8
0
 10
55.746
 11
55.674
 20
112.384
 21
112.441
  0
LINE
  8
0
 10
55.674
 11
55.611
 20
112.441
 21
112.508
  0
LINE
  8
0
 10
55.611
 11
55.556
 20
112.508
 21
112.582
  0
LINE
  8
0
 10
55.556
 11
55.511
 20
112.582
 21
112.662
  0
LINE
  8
0
 10
55.511
 11
55.476
 20
112.662
 21
112.747
  0
LINE
  8
0
 10
55.476
 11
55.452
 20
112.747
 21
112.836
  0
LINE
  8
0
 10
55.452
 11
55.439
 20
112.836
 21
112.928
  0
LINE
  8
0
 10
55.439
 11
55.438
 20
112.928
 21
113.02
  0
LINE
  8
0
 10
57.958
 11
58.068
 20
169.921
 21
170.186
  0
LINE
  8
0
 10
58.068
 11
58.333
 20
170.186
 21
170.296
  0
LINE
  8
0
 10
58.333
 11
58.598
 20
170.296
 21
170.186
  0
LINE
  8
0
 10
58.598
 11
58.708
 20
170.186
 21
169.921
  0
LINE
  8
0
 10
58.708
 11
58.598
 20
169.921
 21
169.656
  0
LINE
  8
0
 10
58.598
 11
58.333
 20
169.656
 21
169.546
  0
LINE
  8
0
 10
58.333
 11
58.068
 20
169.546
 21
169.656
  0
LINE
  8
0
 10
58.068
 11
57.958
 20
169.656
 21
169.921
  0
LINE
  8
0
 10
57.958
 11
58.068
 20
241.587
 21
241.853
  0
LINE
  8
0
 10
58.068
 11
58.333
 20
241.853
 21
241.962
  0
LINE
  8
0
 10
58.333
 11
58.598
 20
241.962
 21
241.853
  0
LINE
  8
0
 10
58.598
 11
58.708
 20
241.853
 21
241.587
  0
LINE
  8
0
 10
58.708
 11
58.598
 20
241.587
 21
241.322
  0
LINE
  8
0
 10
58.598
 11
58.333
 20
241.322
 21
241.212
  0
LINE
  8
0
 10
58.333
 11
58.068
 20
241.212
 21
241.322
  0
LINE
  8
0
 10
58.068
 11
57.958
 20
241.322
 21
241.587
  0
LINE
  8
0
 10
57.958
 11
58.068
 20
313.254
 21
313.519
  0
LINE
  8
0
 10
58.068
 11
58.333
 20
313.519
 21
313.629
  0
LINE
  8
0
 10
58.333
 11
58.598
 20
313.629
 21
313.519
  0
LINE
  8
0
 10
58.598
 11
58.708
 20
313.519
 21
313.254
  0
LINE
  8
0
 10
58.708
 11
58.598
 20
313.254
 21
312.989
  0
LINE
  8
0
 10
58.598
 11
58.333
 20
312.989
 21
312.879
  0
LINE
  8
0
 10
58.333
 11
58.068
 20
312.879
 21
312.989
  0
LINE
  8
0
 10
58.068
 11
57.958
 20
312.989
 21
313.254
  0
LINE
  8
0
 10
74.625
 11
74.735
 20
165.079
 21
165.344
  0
LINE
  8
0
 10
74.735
 11
75
 20
165.344
 21
165.454
  0
LINE
  8
0
 10
75
 11
75.265
 20
165.454
 21
165.344
  0
LINE
  8
0
 10
75.265
 11
75.375
 20
165.344
 21
165.079
  0
LINE
  8
0
 10
75.375
 11
75.265
 20
165.079
 21
164.814
  0
LINE
  8
0
 10
75.265
 11
75
 20
164.814
 21
164.704
  0
LINE
  8
0
 10
75
 11
74.735
 20
164.704
 21
164.814
  0
LINE
  8
0
 10
74.735
 11
74.625
 20
164.814
 21
165.079
  0
LINE
  8
0
 10
74.625
 11
74.735
 20
236.746
 21
237.011
  0
LINE
  8
0
 10
74.735
 11
75
 20
237.011
 21
237.121
  0
LINE
  8
0
 10
75
 11
75.265
 20
237.121
 21
237.011
  0
LINE
  8
0
 10
75.265
 11
75.375
 20
237.011
 21
236.746
  0
LINE
  8
0
 10
75.375
 11
75.265
 20
236.746
 21
236.481
  0
LINE
  8
0
 10
75.265
 11
75
 20
236.481
 21
236.371
  0
LINE
  8
0
 10
75
 11
74.735
 20
236.371
 21
236.481
  0
LINE
  8
0
 10
74.735
 11
74.625
 20
236.481
 21
236.746
  0
LINE
  8
0
 10
74.625
 11
74.735
 20
308.412
 21
308.678
  0
LINE
  8
0
 10
74.735
 11
75
 20
308.678
 21
308.787
  0
LINE
  8
0
 10
75
 11
75.265
 20
308.787
 21
308.678
  0
LINE
  8
0
 10
75.265
 11
75.375
 20
308.678
 21
308.412
  0
LINE
  8
0
 10
75.375
 11
75.265
 20
308.412
 21
308.147
  0
LINE
  8
0
 10
75.265
 11
75
 20
308.147
 21
308.037
  0
LINE
  8
0
 10
75
 11
74.735
 20
308.037
 21
308.147
  0
LINE
  8
0
 10
74.735
 11
74.625
 20
308.147
 21
308.412
  0
LINE
  8
0
 10
71.667
 11
71.667
 20
78.017
 21
82.392
  0
LINE
  8
0
 10
71.667
 11
74.842
 20
82.392
 21
82.392
  0
LINE
  8
0
 10
74.842
 11
74.842
 20
82.392
 21
95.517
  0
LINE
  8
0
 10
74.842
 11
71.667
 20
95.517
 21
95.517
  0
LINE
  8
0
 10
71.667
 11
71.667
 20
95.517
 21
99.892
  0
LINE
  8
0
 10
71.667
 11
74.842
 20
99.892
 21
99.892
  0
LINE
  8
0
 10
74.842
 11
74.842
 20
99.892
 21
113.017
  0
LINE
  8
0
 10
74.842
 11
71.667
 20
113.017
 21
113.017
  0
LINE
  8
0
 10
71.667
 11
71.667
 20
113.017
 21
117.392
  0
LINE
  8
0
 10
71.667
 11
74.842
 20
117.392
 21
117.392
  0
LINE
  8
0
 10
74.842
 11
74.842
 20
117.392
 21
130.517
  0
LINE
  8
0
 10
74.842
 11
71.667
 20
130.517
 21
130.517
  0
LINE
  8
0
 10
71.667
 11
71.667
 20
130.517
 21
134.892
  0
LINE
  8
0
 10
71.667
 11
74.842
 20
134.892
 21
134.892
  0
LINE
  8
0
 10
74.842
 11
74.842
 20
134.892
 21
138.492
  0
LINE
  8
0
 10
74.842
 11
78.016
 20
138.492
 21
138.492
  0
LINE
  8
0
 10
78.016
 11
78.017
 20
138.492
 21
141.667
  0
LINE
  8
0
 10
78.017
 11
82.391
 20
141.667
 21
141.667
  0
LINE
  8
0
 10
82.391
 11
82.392
 20
141.667
 21
138.492
  0
LINE
  8
0
 10
82.392
 11
95.517
 20
138.492
 21
138.492
  0
LINE
  8
0
 10
95.517
 11
95.517
 20
138.492
 21
141.667
  0
LINE
  8
0
 10
95.517
 11
99.892
 20
141.667
 21
141.667
  0
LINE
  8
0
 10
99.892
 11
99.891
 20
141.667
 21
138.492
  0
LINE
  8
0
 10
99.891
 11
113.017
 20
138.492
 21
138.492
  0
LINE
  8
0
 10
113.017
 11
113.016
 20
138.492
 21
141.667
  0
LINE
  8
0
 10
113.016
 11
117.392
 20
141.667
 21
141.667
  0
LINE
  8
0
 10
117.392
 11
117.391
 20
141.667
 21
138.492
  0
LINE
  8
0
 10
117.391
 11
130.517
 20
138.492
 21
138.492
  0
LINE
  8
0
 10
130.517
 11
130.517
 20
138.492
 21
141.667
  0
LINE
  8
0
 10
130.517
 11
134.892
 20
141.667
 21
141.667
  0
LINE
  8
0
 10
134.892
 11
134.892
 20
141.667
 21
138.492
  0
LINE
  8
0
 10
134.892
 11
138.492
 20
138.492
 21
138.492
  0
LINE
  8
0
 10
138.492
 11
138.492
 20
138.492
 21
135.317
  0
LINE
  8
0
 10
138.492
 11
141.667
 20
135.317
 21
135.317
  0
LINE
  8
0
 10
141.667
 11
141.667
 20
135.317
 21
130.942
  0
LINE
  8
0
 10
141.667
 11
138.492
 20
130.942
 21
130.942
  0
LINE
  8
0
 10
138.492
 11
138.492
 20
130.942
 21
117.817
  0
LINE
  8
0
 10
138.492
 11
141.624
 20
117.817
 21
117.817
  0
LINE
  8
0
 10
141.624
 11
95.941
 20
117.817
 21
72.135
  0
LINE
  8
0
 10
95.941
 11
95.942
 20
72.135
 21
74.842
  0
LINE
  8
0
 10
95.942
 11
82.817
 20
74.842
 21
74.842
  0
LINE
  8
0
 10
82.817
 11
82.817
 20
74.842
 21
71.667
  0
LINE
  8
0
 10
82.817
 11
78.442
 20
71.667
 21
71.667
  0
LINE
  8
0
 10
78.442
 11
78.442
 20
71.667
 21
74.842
  0
LINE
  8
0
 10
78.442
 11
74.842
 20
74.842
 21
74.842
  0
LINE
  8
0
 10
74.842
 11
74.842
 20
74.842
 21
78.017
  0
LINE
  8
0
 10
74.842
 11
71.667
 20
78.017
 21
78.017
  0
LINE
  8
0
 10
78.641
 11
83.03
 20
130.303
 21
134.693
  0
LINE
  8
0
 10
83.03
 11
86.218
 20
134.693
 21
131.505
  0
LINE
  8
0
 10
86.218
 11
81.828
 20
131.505
 21
127.115
  0
LINE
  8
0
 10
81.828
 11
78.641
 20
127.115
 21
130.303
  0
LINE
  8
0
 10
79.883
 11
79.886
 20
125.611
 21
125.703
  0
LINE
  8
0
 10
79.886
 11
79.9
 20
125.703
 21
125.794
  0
LINE
  8
0
 10
79.9
 11
79.926
 20
125.794
 21
125.883
  0
LINE
  8
0
 10
79.926
 11
79.963
 20
125.883
 21
125.967
  0
LINE
  8
0
 10
79.963
 11
80.01
 20
125.967
 21
126.046
  0
LINE
  8
0
 10
80.01
 11
80.066
 20
126.046
 21
126.119
  0
LINE
  8
0
 10
80.066
 11
80.131
 20
126.119
 21
126.184
  0
LINE
  8
0
 10
80.131
 11
80.204
 20
126.184
 21
126.241
  0
LINE
  8
0
 10
80.204
 11
80.283
 20
126.241
 21
126.288
  0
LINE
  8
0
 10
80.283
 11
80.368
 20
126.288
 21
126.324
  0
LINE
  8
0
 10
80.368
 11
80.456
 20
126.324
 21
126.35
  0
LINE
  8
0
 10
80.456
 11
80.547
 20
126.35
 21
126.364
  0
LINE
  8
0
 10
80.547
 11
80.639
 20
126.364
 21
126.367
  0
LINE
  8
0
 10
80.639
 11
80.731
 20
126.367
 21
126.359
  0
LINE
  8
0
 10
80.731
 11
80.821
 20
126.359
 21
126.339
  0
LINE
  8
0
 10
80.821
 11
80.907
 20
126.339
 21
126.307
  0
LINE
  8
0
 10
80.907
 11
80.989
 20
126.307
 21
126.265
  0
LINE
  8
0
 10
80.989
 11
81.066
 20
126.265
 21
126.214
  0
LINE
  8
0
 10
81.066
 11
81.135
 20
126.214
 21
126.153
  0
LINE
  8
0
 10
81.135
 11
81.196
 20
126.153
 21
126.084
  0
LINE
  8
0
 10
81.196
 11
81.247
 20
126.084
 21
126.008
  0
LINE
  8
0
 10
81.247
 11
81.289
 20
126.008
 21
125.926
  0
LINE
  8
0
 10
81.289
 11
81.321
 20
125.926
 21
125.839
  0
LINE
  8
0
 10
81.321
 11
81.34
 20
125.839
 21
125.749
  0
LINE
  8
0
 10
81.34
 11
81.349
 20
125.749
 21
125.657
  0
LINE
  8
0
 10
81.349
 11
81.346
 20
125.657
 21
125.565
  0
LINE
  8
0
 10
81.346
 11
81.332
 20
125.565
 21
125.474
  0
LINE
  8
0
 10
81.332
 11
81.306
 20
125.474
 21
125.386
  0
LINE
  8
0
 10
81.306
 11
81.27
 20
125.386
 21
125.301
  0
LINE
  8
0
 10
81.27
 11
81.223
 20
125.301
 21
125.222
  0
LINE
  8
0
 10
81.223
 11
81.166
 20
125.222
 21
125.149
  0
LINE
  8
0
 10
81.166
 11
81.101
 20
125.149
 21
125.084
  0
LINE
  8
0
 10
81.101
 11
81.028
 20
125.084
 21
125.028
  0
LINE
  8
0
 10
81.028
 11
80.949
 20
125.028
 21
124.981
  0
LINE
  8
0
 10
80.949
 11
80.865
 20
124.981
 21
124.944
  0
LINE
  8
0
 10
80.865
 11
80.776
 20
124.944
 21
124.918
  0
LINE
  8
0
 10
80.776
 11
80.685
 20
124.918
 21
124.904
  0
LINE
  8
0
 10
80.685
 11
80.593
 20
124.904
 21
124.901
  0
LINE
  8
0
 10
80.593
 11
80.501
 20
124.901
 21
124.91
  0
LINE
  8
0
 10
80.501
 11
80.412
 20
124.91
 21
124.93
  0
LINE
  8
0
 10
80.412
 11
80.325
 20
124.93
 21
124.961
  0
LINE
  8
0
 10
80.325
 11
80.243
 20
124.961
 21
125.003
  0
LINE
  8
0
 10
80.243
 11
80.167
 20
125.003
 21
125.055
  0
LINE
  8
0
 10
80.167
 11
80.098
 20
125.055
 21
125.116
  0
LINE
  8
0
 10
80.098
 11
80.037
 20
125.116
 21
125.185
  0
LINE
  8
0
 10
80.037
 11
79.985
 20
125.185
 21
125.261
  0
LINE
  8
0
 10
79.985
 11
79.943
 20
125.261
 21
125.343
  0
LINE
  8
0
 10
79.943
 11
79.912
 20
125.343
 21
125.43
  0
LINE
  8
0
 10
79.912
 11
79.892
 20
125.43
 21
125.519
  0
LINE
  8
0
 10
79.892
 11
79.883
 20
125.519
 21
125.611
  0
LINE
  8
0
 10
81.681
 11
81.682
 20
124.209
 21
124.253
  0
LINE
  8
0
 10
81.682
 11
81.689
 20
124.253
 21
124.296
  0
LINE
  8
0
 10
81.689
 11
81.701
 20
124.296
 21
124.339
  0
LINE
  8
0
 10
81.701
 11
81.718
 20
124.339
 21
124.379
  0
LINE
  8
0
 10
81.718
 11
81.741
 20
124.379
 21
124.417
  0
LINE
  8
0
 10
81.741
 11
81.768
 20
124.417
 21
124.452
  0
LINE
  8
0
 10
81.768
 11
81.799
 20
124.452
 21
124.483
  0
LINE
  8
0
 10
81.799
 11
81.834
 20
124.483
 21
124.51
  0
LINE
  8
0
 10
81.834
 11
81.872
 20
124.51
 21
124.532
  0
LINE
  8
0
 10
81.872
 11
81.912
 20
124.532
 21
124.549
  0
LINE
  8
0
 10
81.912
 11
81.954
 20
124.549
 21
124.562
  0
LINE
  8
0
 10
81.954
 11
81.998
 20
124.562
 21
124.569
  0
LINE
  8
0
 10
81.998
 11
82.041
 20
124.569
 21
124.57
  0
LINE
  8
0
 10
82.041
 11
82.085
 20
124.57
 21
124.566
  0
LINE
  8
0
 10
82.085
 11
82.128
 20
124.566
 21
124.556
  0
LINE
  8
0
 10
82.128
 11
82.17
 20
124.556
 21
124.541
  0
LINE
  8
0
 10
82.17
 11
82.209
 20
124.541
 21
124.521
  0
LINE
  8
0
 10
82.209
 11
82.245
 20
124.521
 21
124.497
  0
LINE
  8
0
 10
82.245
 11
82.278
 20
124.497
 21
124.468
  0
LINE
  8
0
 10
82.278
 11
82.307
 20
124.468
 21
124.435
  0
LINE
  8
0
 10
82.307
 11
82.332
 20
124.435
 21
124.398
  0
LINE
  8
0
 10
82.332
 11
82.352
 20
124.398
 21
124.359
  0
LINE
  8
0
 10
82.352
 11
82.367
 20
124.359
 21
124.318
  0
LINE
  8
0
 10
82.367
 11
82.376
 20
124.318
 21
124.275
  0
LINE
  8
0
 10
82.376
 11
82.38
 20
124.275
 21
124.231
  0
LINE
  8
0
 10
82.38
 11
82.379
 20
124.231
 21
124.187
  0
LINE
  8
0
 10
82.379
 11
82.372
 20
124.187
 21
124.144
  0
LINE
  8
0
 10
82.372
 11
82.36
 20
124.144
 21
124.102
  0
LINE
  8
0
 10
82.36
 11
82.342
 20
124.102
 21
124.061
  0
LINE
  8
0
 10
82.342
 11
82.32
 20
124.061
 21
124.023
  0
LINE
  8
0
 10
82.32
 11
82.293
 20
124.023
 21
123.989
  0
LINE
  8
0
 10
82.293
 11
82.262
 20
123.989
 21
123.958
  0
LINE
  8
0
 10
82.262
 11
82.227
 20
123.958
 21
123.93
  0
LINE
  8
0
 10
82.227
 11
82.189
 20
123.93
 21
123.908
  0
LINE
  8
0
 10
82.189
 11
82.149
 20
123.908
 21
123.891
  0
LINE
  8
0
 10
82.149
 11
82.107
 20
123.891
 21
123.878
  0
LINE
  8
0
 10
82.107
 11
82.063
 20
123.878
 21
123.872
  0
LINE
  8
0
 10
82.063
 11
82.019
 20
123.872
 21
123.87
  0
LINE
  8
0
 10
82.019
 11
81.976
 20
123.87
 21
123.874
  0
LINE
  8
0
 10
81.976
 11
81.933
 20
123.874
 21
123.884
  0
LINE
  8
0
 10
81.933
 11
81.891
 20
123.884
 21
123.899
  0
LINE
  8
0
 10
81.891
 11
81.852
 20
123.899
 21
123.919
  0
LINE
  8
0
 10
81.852
 11
81.816
 20
123.919
 21
123.944
  0
LINE
  8
0
 10
81.816
 11
81.783
 20
123.944
 21
123.973
  0
LINE
  8
0
 10
81.783
 11
81.754
 20
123.973
 21
124.006
  0
LINE
  8
0
 10
81.754
 11
81.729
 20
124.006
 21
124.042
  0
LINE
  8
0
 10
81.729
 11
81.709
 20
124.042
 21
124.081
  0
LINE
  8
0
 10
81.709
 11
81.694
 20
124.081
 21
124.122
  0
LINE
  8
0
 10
81.694
 11
81.685
 20
124.122
 21
124.165
  0
LINE
  8
0
 10
81.685
 11
81.681
 20
124.165
 21
124.209
  0
LINE
  8
0
 10
85.923
 11
85.925
 20
119.967
 21
120.01
  0
LINE
  8
0
 10
85.925
 11
85.932
 20
120.01
 21
120.054
  0
LINE
  8
0
 10
85.932
 11
85.944
 20
120.054
 21
120.096
  0
LINE
  8
0
 10
85.944
 11
85.961
 20
120.096
 21
120.136
  0
LINE
  8
0
 10
85.961
 11
85.983
 20
120.136
 21
120.174
  0
LINE
  8
0
 10
85.983
 11
86.01
 20
120.174
 21
120.209
  0
LINE
  8
0
 10
86.01
 11
86.042
 20
120.209
 21
120.24
  0
LINE
  8
0
 10
86.042
 11
86.076
 20
120.24
 21
120.267
  0
LINE
  8
0
 10
86.076
 11
86.114
 20
120.267
 21
120.289
  0
LINE
  8
0
 10
86.114
 11
86.155
 20
120.289
 21
120.307
  0
LINE
  8
0
 10
86.155
 11
86.197
 20
120.307
 21
120.319
  0
LINE
  8
0
 10
86.197
 11
86.24
 20
120.319
 21
120.326
  0
LINE
  8
0
 10
86.24
 11
86.284
 20
120.326
 21
120.327
  0
LINE
  8
0
 10
86.284
 11
86.328
 20
120.327
 21
120.323
  0
LINE
  8
0
 10
86.328
 11
86.371
 20
120.323
 21
120.313
  0
LINE
  8
0
 10
86.371
 11
86.412
 20
120.313
 21
120.299
  0
LINE
  8
0
 10
86.412
 11
86.451
 20
120.299
 21
120.279
  0
LINE
  8
0
 10
86.451
 11
86.488
 20
120.279
 21
120.254
  0
LINE
  8
0
 10
86.488
 11
86.521
 20
120.254
 21
120.225
  0
LINE
  8
0
 10
86.521
 11
86.55
 20
120.225
 21
120.192
  0
LINE
  8
0
 10
86.55
 11
86.574
 20
120.192
 21
120.156
  0
LINE
  8
0
 10
86.574
 11
86.594
 20
120.156
 21
120.116
  0
LINE
  8
0
 10
86.594
 11
86.609
 20
120.116
 21
120.075
  0
LINE
  8
0
 10
86.609
 11
86.619
 20
120.075
 21
120.032
  0
LINE
  8
0
 10
86.619
 11
86.623
 20
120.032
 21
119.988
  0
LINE
  8
0
 10
86.623
 11
86.622
 20
119.988
 21
119.944
  0
LINE
  8
0
 10
86.622
 11
86.615
 20
119.944
 21
119.901
  0
LINE
  8
0
 10
86.615
 11
86.602
 20
119.901
 21
119.859
  0
LINE
  8
0
 10
86.602
 11
86.585
 20
119.859
 21
119.819
  0
LINE
  8
0
 10
86.585
 11
86.563
 20
119.819
 21
119.781
  0
LINE
  8
0
 10
86.563
 11
86.536
 20
119.781
 21
119.746
  0
LINE
  8
0
 10
86.536
 11
86.504
 20
119.746
 21
119.715
  0
LINE
  8
0
 10
86.504
 11
86.47
 20
119.715
 21
119.688
  0
LINE
  8
0
 10
86.47
 11
86.432
 20
119.688
 21
119.666
  0
LINE
  8
0
 10
86.432
 11
86.392
 20
119.666
 21
119.648
  0
LINE
  8
0
 10
86.392
 11
86.349
 20
119.648
 21
119.636
  0
LINE
  8
0
 10
86.349
 11
86.306
 20
119.636
 21
119.629
  0
LINE
  8
0
 10
86.306
 11
86.262
 20
119.629
 21
119.628
  0
LINE
  8
0
 10
86.262
 11
86.218
 20
119.628
 21
119.632
  0
LINE
  8
0
 10
86.218
 11
86.176
 20
119.632
 21
119.641
  0
LINE
  8
0
 10
86.176
 11
86.134
 20
119.641
 21
119.656
  0
LINE
  8
0
 10
86.134
 11
86.095
 20
119.656
 21
119.676
  0
LINE
  8
0
 10
86.095
 11
86.059
 20
119.676
 21
119.701
  0
LINE
  8
0
 10
86.059
 11
86.025
 20
119.701
 21
119.73
  0
LINE
  8
0
 10
86.025
 11
85.997
 20
119.73
 21
119.763
  0
LINE
  8
0
 10
85.997
 11
85.972
 20
119.763
 21
119.799
  0
LINE
  8
0
 10
85.972
 11
85.952
 20
119.799
 21
119.838
  0
LINE
  8
0
 10
85.952
 11
85.937
 20
119.838
 21
119.88
  0
LINE
  8
0
 10
85.937
 11
85.927
 20
119.88
 21
119.923
  0
LINE
  8
0
 10
85.927
 11
85.923
 20
119.923
 21
119.967
  0
LINE
  8
0
 10
86.966
 11
86.969
 20
132.694
 21
132.786
  0
LINE
  8
0
 10
86.969
 11
86.983
 20
132.786
 21
132.877
  0
LINE
  8
0
 10
86.983
 11
87.009
 20
132.877
 21
132.966
  0
LINE
  8
0
 10
87.009
 11
87.045
 20
132.966
 21
133.05
  0
LINE
  8
0
 10
87.045
 11
87.093
 20
133.05
 21
133.129
  0
LINE
  8
0
 10
87.093
 11
87.149
 20
133.129
 21
133.202
  0
LINE
  8
0
 10
87.149
 11
87.214
 20
133.202
 21
133.267
  0
LINE
  8
0
 10
87.214
 11
87.287
 20
133.267
 21
133.324
  0
LINE
  8
0
 10
87.287
 11
87.366
 20
133.324
 21
133.371
  0
LINE
  8
0
 10
87.366
 11
87.451
 20
133.371
 21
133.407
  0
LINE
  8
0
 10
87.451
 11
87.539
 20
133.407
 21
133.433
  0
LINE
  8
0
 10
87.539
 11
87.63
 20
133.433
 21
133.447
  0
LINE
  8
0
 10
87.63
 11
87.722
 20
133.447
 21
133.45
  0
LINE
  8
0
 10
87.722
 11
87.814
 20
133.45
 21
133.442
  0
LINE
  8
0
 10
87.814
 11
87.904
 20
133.442
 21
133.421
  0
LINE
  8
0
 10
87.904
 11
87.99
 20
133.421
 21
133.39
  0
LINE
  8
0
 10
87.99
 11
88.072
 20
133.39
 21
133.348
  0
LINE
  8
0
 10
88.072
 11
88.149
 20
133.348
 21
133.296
  0
LINE
  8
0
 10
88.149
 11
88.218
 20
133.296
 21
133.236
  0
LINE
  8
0
 10
88.218
 11
88.278
 20
133.236
 21
133.167
  0
LINE
  8
0
 10
88.278
 11
88.33
 20
133.167
 21
133.091
  0
LINE
  8
0
 10
88.33
 11
88.372
 20
133.091
 21
133.008
  0
LINE
  8
0
 10
88.372
 11
88.403
 20
133.008
 21
132.922
  0
LINE
  8
0
 10
88.403
 11
88.423
 20
132.922
 21
132.832
  0
LINE
  8
0
 10
88.423
 11
88.432
 20
132.832
 21
132.74
  0
LINE
  8
0
 10
88.432
 11
88.429
 20
132.74
 21
132.648
  0
LINE
  8
0
 10
88.429
 11
88.415
 20
132.648
 21
132.557
  0
LINE
  8
0
 10
88.415
 11
88.389
 20
132.557
 21
132.469
  0
LINE
  8
0
 10
88.389
 11
88.352
 20
132.469
 21
132.384
  0
LINE
  8
0
 10
88.352
 11
88.306
 20
132.384
 21
132.305
  0
LINE
  8
0
 10
88.306
 11
88.249
 20
132.305
 21
132.232
  0
LINE
  8
0
 10
88.249
 11
88.184
 20
132.232
 21
132.167
  0
LINE
  8
0
 10
88.184
 11
88.111
 20
132.167
 21
132.111
  0
LINE
  8
0
 10
88.111
 11
88.032
 20
132.111
 21
132.064
  0
LINE
  8
0
 10
88.032
 11
87.947
 20
132.064
 21
132.027
  0
LINE
  8
0
 10
87.947
 11
87.859
 20
132.027
 21
132.002
  0
LINE
  8
0
 10
87.859
 11
87.768
 20
132.002
 21
131.987
  0
LINE
  8
0
 10
87.768
 11
87.676
 20
131.987
 21
131.984
  0
LINE
  8
0
 10
87.676
 11
87.584
 20
131.984
 21
131.993
  0
LINE
  8
0
 10
87.584
 11
87.495
 20
131.993
 21
132.013
  0
LINE
  8
0
 10
87.495
 11
87.408
 20
132.013
 21
132.044
  0
LINE
  8
0
 10
87.408
 11
87.326
 20
132.044
 21
132.086
  0
LINE
  8
0
 10
87.326
 11
87.25
 20
132.086
 21
132.138
  0
LINE
  8
0
 10
87.25
 11
87.181
 20
132.138
 21
132.199
  0
LINE
  8
0
 10
87.181
 11
87.12
 20
132.199
 21
132.268
  0
LINE
  8
0
 10
87.12
 11
87.068
 20
132.268
 21
132.344
  0
LINE
  8
0
 10
87.068
 11
87.026
 20
132.344
 21
132.426
  0
LINE
  8
0
 10
87.026
 11
86.995
 20
132.426
 21
132.513
  0
LINE
  8
0
 10
86.995
 11
86.975
 20
132.513
 21
132.602
  0
LINE
  8
0
 10
86.975
 11
86.966
 20
132.602
 21
132.694
  0
LINE
  8
0
 10
88.763
 11
88.765
 20
131.292
 21
131.336
  0
LINE
  8
0
 10
88.765
 11
88.772
 20
131.336
 21
131.379
  0
LINE
  8
0
 10
88.772
 11
88.784
 20
131.379
 21
131.421
  0
LINE
  8
0
 10
88.784
 11
88.801
 20
131.421
 21
131.462
  0
LINE
  8
0
 10
88.801
 11
88.824
 20
131.462
 21
131.5
  0
LINE
  8
0
 10
88.824
 11
88.851
 20
131.5
 21
131.534
  0
LINE
  8
0
 10
88.851
 11
88.882
 20
131.534
 21
131.565
  0
LINE
  8
0
 10
88.882
 11
88.917
 20
131.565
 21
131.593
  0
LINE
  8
0
 10
88.917
 11
88.954
 20
131.593
 21
131.615
  0
LINE
  8
0
 10
88.954
 11
88.995
 20
131.615
 21
131.632
  0
LINE
  8
0
 10
88.995
 11
89.037
 20
131.632
 21
131.645
  0
LINE
  8
0
 10
89.037
 11
89.08
 20
131.645
 21
131.651
  0
LINE
  8
0
 10
89.08
 11
89.124
 20
131.651
 21
131.653
  0
LINE
  8
0
 10
89.124
 11
89.168
 20
131.653
 21
131.648
  0
LINE
  8
0
 10
89.168
 11
89.211
 20
131.648
 21
131.639
  0
LINE
  8
0
 10
89.211
 11
89.252
 20
131.639
 21
131.624
  0
LINE
  8
0
 10
89.252
 11
89.292
 20
131.624
 21
131.604
  0
LINE
  8
0
 10
89.292
 11
89.328
 20
131.604
 21
131.579
  0
LINE
  8
0
 10
89.328
 11
89.361
 20
131.579
 21
131.55
  0
LINE
  8
0
 10
89.361
 11
89.39
 20
131.55
 21
131.517
  0
LINE
  8
0
 10
89.39
 11
89.414
 20
131.517
 21
131.481
  0
LINE
  8
0
 10
89.414
 11
89.435
 20
131.481
 21
131.442
  0
LINE
  8
0
 10
89.435
 11
89.449
 20
131.442
 21
131.401
  0
LINE
  8
0
 10
89.449
 11
89.459
 20
131.401
 21
131.358
  0
LINE
  8
0
 10
89.459
 11
89.463
 20
131.358
 21
131.314
  0
LINE
  8
0
 10
89.463
 11
89.462
 20
131.314
 21
131.27
  0
LINE
  8
0
 10
89.462
 11
89.455
 20
131.27
 21
131.226
  0
LINE
  8
0
 10
89.455
 11
89.443
 20
131.226
 21
131.184
  0
LINE
  8
0
 10
89.443
 11
89.425
 20
131.184
 21
131.144
  0
LINE
  8
0
 10
89.425
 11
89.403
 20
131.144
 21
131.106
  0
LINE
  8
0
 10
89.403
 11
89.376
 20
131.106
 21
131.071
  0
LINE
  8
0
 10
89.376
 11
89.345
 20
131.071
 21
131.04
  0
LINE
  8
0
 10
89.345
 11
89.31
 20
131.04
 21
131.013
  0
LINE
  8
0
 10
89.31
 11
89.272
 20
131.013
 21
130.991
  0
LINE
  8
0
 10
89.272
 11
89.232
 20
130.991
 21
130.974
  0
LINE
  8
0
 10
89.232
 11
89.19
 20
130.974
 21
130.961
  0
LINE
  8
0
 10
89.19
 11
89.146
 20
130.961
 21
130.955
  0
LINE
  8
0
 10
89.146
 11
89.102
 20
130.955
 21
130.953
  0
LINE
  8
0
 10
89.102
 11
89.059
 20
130.953
 21
130.957
  0
LINE
  8
0
 10
89.059
 11
89.016
 20
130.957
 21
130.967
  0
LINE
  8
0
 10
89.016
 11
88.974
 20
130.967
 21
130.982
  0
LINE
  8
0
 10
88.974
 11
88.935
 20
130.982
 21
131.002
  0
LINE
  8
0
 10
88.935
 11
88.899
 20
131.002
 21
131.027
  0
LINE
  8
0
 10
88.899
 11
88.866
 20
131.027
 21
131.055
  0
LINE
  8
0
 10
88.866
 11
88.837
 20
131.055
 21
131.088
  0
LINE
  8
0
 10
88.837
 11
88.812
 20
131.088
 21
131.125
  0
LINE
  8
0
 10
88.812
 11
88.792
 20
131.125
 21
131.164
  0
LINE
  8
0
 10
88.792
 11
88.777
 20
131.164
 21
131.205
  0
LINE
  8
0
 10
88.777
 11
88.768
 20
131.205
 21
131.248
  0
LINE
  8
0
 10
88.768
 11
88.763
 20
131.248
 21
131.292
  0
LINE
  8
0
 10
89.943
 11
89.95
 20
88.096
 21
88.188
  0
LINE
  8
0
 10
89.95
 11
89.968
 20
88.188
 21
88.278
  0
LINE
  8
0
 10
89.968
 11
89.998
 20
88.278
 21
88.366
  0
LINE
  8
0
 10
89.998
 11
90.038
 20
88.366
 21
88.449
  0
LINE
  8
0
 10
90.038
 11
90.088
 20
88.449
 21
88.526
  0
LINE
  8
0
 10
90.088
 11
90.147
 20
88.526
 21
88.596
  0
LINE
  8
0
 10
90.147
 11
90.215
 20
88.596
 21
88.658
  0
LINE
  8
0
 10
90.215
 11
90.29
 20
88.658
 21
88.712
  0
LINE
  8
0
 10
90.29
 11
90.371
 20
88.712
 21
88.755
  0
LINE
  8
0
 10
90.371
 11
90.457
 20
88.755
 21
88.788
  0
LINE
  8
0
 10
90.457
 11
90.547
 20
88.788
 21
88.81
  0
LINE
  8
0
 10
90.547
 11
90.638
 20
88.81
 21
88.821
  0
LINE
  8
0
 10
90.638
 11
90.73
 20
88.821
 21
88.82
  0
LINE
  8
0
 10
90.73
 11
90.822
 20
88.82
 21
88.807
  0
LINE
  8
0
 10
90.822
 11
90.91
 20
88.807
 21
88.783
  0
LINE
  8
0
 10
90.91
 11
90.996
 20
88.783
 21
88.749
  0
LINE
  8
0
 10
90.996
 11
91.076
 20
88.749
 21
88.703
  0
LINE
  8
0
 10
91.076
 11
91.15
 20
88.703
 21
88.649
  0
LINE
  8
0
 10
91.15
 11
91.217
 20
88.649
 21
88.585
  0
LINE
  8
0
 10
91.217
 11
91.274
 20
88.585
 21
88.513
  0
LINE
  8
0
 10
91.274
 11
91.323
 20
88.513
 21
88.435
  0
LINE
  8
0
 10
91.323
 11
91.361
 20
88.435
 21
88.351
  0
LINE
  8
0
 10
91.361
 11
91.389
 20
88.351
 21
88.263
  0
LINE
  8
0
 10
91.389
 11
91.405
 20
88.263
 21
88.173
  0
LINE
  8
0
 10
91.405
 11
91.41
 20
88.173
 21
88.081
  0
LINE
  8
0
 10
91.41
 11
91.403
 20
88.081
 21
87.989
  0
LINE
  8
0
 10
91.403
 11
91.385
 20
87.989
 21
87.899
  0
LINE
  8
0
 10
91.385
 11
91.355
 20
87.899
 21
87.811
  0
LINE
  8
0
 10
91.355
 11
91.316
 20
87.811
 21
87.729
  0
LINE
  8
0
 10
91.316
 11
91.265
 20
87.729
 21
87.651
  0
LINE
  8
0
 10
91.265
 11
91.206
 20
87.651
 21
87.581
  0
LINE
  8
0
 10
91.206
 11
91.138
 20
87.581
 21
87.519
  0
LINE
  8
0
 10
91.138
 11
91.063
 20
87.519
 21
87.465
  0
LINE
  8
0
 10
91.063
 11
90.982
 20
87.465
 21
87.422
  0
LINE
  8
0
 10
90.982
 11
90.896
 20
87.422
 21
87.389
  0
LINE
  8
0
 10
90.896
 11
90.807
 20
87.389
 21
87.367
  0
LINE
  8
0
 10
90.807
 11
90.715
 20
87.367
 21
87.356
  0
LINE
  8
0
 10
90.715
 11
90.623
 20
87.356
 21
87.357
  0
LINE
  8
0
 10
90.623
 11
90.531
 20
87.357
 21
87.37
  0
LINE
  8
0
 10
90.531
 11
90.443
 20
87.37
 21
87.394
  0
LINE
  8
0
 10
90.443
 11
90.358
 20
87.394
 21
87.428
  0
LINE
  8
0
 10
90.358
 11
90.277
 20
87.428
 21
87.473
  0
LINE
  8
0
 10
90.277
 11
90.203
 20
87.473
 21
87.528
  0
LINE
  8
0
 10
90.203
 11
90.137
 20
87.528
 21
87.592
  0
LINE
  8
0
 10
90.137
 11
90.079
 20
87.592
 21
87.664
  0
LINE
  8
0
 10
90.079
 11
90.03
 20
87.664
 21
87.742
  0
LINE
  8
0
 10
90.03
 11
89.992
 20
87.742
 21
87.826
  0
LINE
  8
0
 10
89.992
 11
89.964
 20
87.826
 21
87.914
  0
LINE
  8
0
 10
89.964
 11
89.948
 20
87.914
 21
88.004
  0
LINE
  8
0
 10
89.948
 11
89.943
 20
88.004
 21
88.096
  0
LINE
  8
0
 10
90.844
 11
90.848
 20
90.024
 21
90.068
  0
LINE
  8
0
 10
90.848
 11
90.856
 20
90.068
 21
90.111
  0
LINE
  8
0
 10
90.856
 11
90.87
 20
90.111
 21
90.152
  0
LINE
  8
0
 10
90.87
 11
90.889
 20
90.152
 21
90.192
  0
LINE
  8
0
 10
90.889
 11
90.913
 20
90.192
 21
90.229
  0
LINE
  8
0
 10
90.913
 11
90.942
 20
90.229
 21
90.263
  0
LINE
  8
0
 10
90.942
 11
90.974
 20
90.263
 21
90.292
  0
LINE
  8
0
 10
90.974
 11
91.01
 20
90.292
 21
90.318
  0
LINE
  8
0
 10
91.01
 11
91.048
 20
90.318
 21
90.339
  0
LINE
  8
0
 10
91.048
 11
91.09
 20
90.339
 21
90.354
  0
LINE
  8
0
 10
91.09
 11
91.132
 20
90.354
 21
90.365
  0
LINE
  8
0
 10
91.132
 11
91.176
 20
90.365
 21
90.37
  0
LINE
  8
0
 10
91.176
 11
91.22
 20
90.37
 21
90.37
  0
LINE
  8
0
 10
91.22
 11
91.263
 20
90.37
 21
90.364
  0
LINE
  8
0
 10
91.263
 11
91.306
 20
90.364
 21
90.352
  0
LINE
  8
0
 10
91.306
 11
91.347
 20
90.352
 21
90.335
  0
LINE
  8
0
 10
91.347
 11
91.385
 20
90.335
 21
90.314
  0
LINE
  8
0
 10
91.385
 11
91.42
 20
90.314
 21
90.288
  0
LINE
  8
0
 10
91.42
 11
91.452
 20
90.288
 21
90.257
  0
LINE
  8
0
 10
91.452
 11
91.48
 20
90.257
 21
90.223
  0
LINE
  8
0
 10
91.48
 11
91.503
 20
90.223
 21
90.186
  0
LINE
  8
0
 10
91.503
 11
91.521
 20
90.186
 21
90.146
  0
LINE
  8
0
 10
91.521
 11
91.534
 20
90.146
 21
90.104
  0
LINE
  8
0
 10
91.534
 11
91.542
 20
90.104
 21
90.06
  0
LINE
  8
0
 10
91.542
 11
91.544
 20
90.06
 21
90.017
  0
LINE
  8
0
 10
91.544
 11
91.541
 20
90.017
 21
89.973
  0
LINE
  8
0
 10
91.541
 11
91.532
 20
89.973
 21
89.93
  0
LINE
  8
0
 10
91.532
 11
91.518
 20
89.93
 21
89.888
  0
LINE
  8
0
 10
91.518
 11
91.499
 20
89.888
 21
89.849
  0
LINE
  8
0
 10
91.499
 11
91.475
 20
89.849
 21
89.812
  0
LINE
  8
0
 10
91.475
 11
91.447
 20
89.812
 21
89.778
  0
LINE
  8
0
 10
91.447
 11
91.414
 20
89.778
 21
89.748
  0
LINE
  8
0
 10
91.414
 11
91.379
 20
89.748
 21
89.723
  0
LINE
  8
0
 10
91.379
 11
91.34
 20
89.723
 21
89.702
  0
LINE
  8
0
 10
91.34
 11
91.299
 20
89.702
 21
89.686
  0
LINE
  8
0
 10
91.299
 11
91.256
 20
89.686
 21
89.676
  0
LINE
  8
0
 10
91.256
 11
91.212
 20
89.676
 21
89.671
  0
LINE
  8
0
 10
91.212
 11
91.169
 20
89.671
 21
89.671
  0
LINE
  8
0
 10
91.169
 11
91.125
 20
89.671
 21
89.677
  0
LINE
  8
0
 10
91.125
 11
91.083
 20
89.677
 21
89.688
  0
LINE
  8
0
 10
91.083
 11
91.042
 20
89.688
 21
89.705
  0
LINE
  8
0
 10
91.042
 11
91.004
 20
89.705
 21
89.727
  0
LINE
  8
0
 10
91.004
 11
90.968
 20
89.727
 21
89.753
  0
LINE
  8
0
 10
90.968
 11
90.937
 20
89.753
 21
89.783
  0
LINE
  8
0
 10
90.937
 11
90.909
 20
89.783
 21
89.818
  0
LINE
  8
0
 10
90.909
 11
90.886
 20
89.818
 21
89.855
  0
LINE
  8
0
 10
90.886
 11
90.867
 20
89.855
 21
89.895
  0
LINE
  8
0
 10
90.867
 11
90.854
 20
89.895
 21
89.937
  0
LINE
  8
0
 10
90.854
 11
90.846
 20
89.937
 21
89.98
  0
LINE
  8
0
 10
90.846
 11
90.844
 20
89.98
 21
90.024
  0
LINE
  8
0
 10
91.292
 11
91.402
 20
169.921
 21
170.186
  0
LINE
  8
0
 10
91.402
 11
91.667
 20
170.186
 21
170.296
  0
LINE
  8
0
 10
91.667
 11
91.932
 20
170.296
 21
170.186
  0
LINE
  8
0
 10
91.932
 11
92.042
 20
170.186
 21
169.921
  0
LINE
  8
0
 10
92.042
 11
91.932
 20
169.921
 21
169.656
  0
LINE
  8
0
 10
91.932
 11
91.667
 20
169.656
 21
169.546
  0
LINE
  8
0
 10
91.667
 11
91.402
 20
169.546
 21
169.656
  0
LINE
  8
0
 10
91.402
 11
91.292
 20
169.656
 21
169.921
  0
LINE
  8
0
 10
91.292
 11
91.402
 20
241.587
 21
241.853
  0
LINE
  8
0
 10
91.402
 11
91.667
 20
241.853
 21
241.962
  0
LINE
  8
0
 10
91.667
 11
91.932
 20
241.962
 21
241.853
  0
LINE
  8
0
 10
91.932
 11
92.042
 20
241.853
 21
241.587
  0
LINE
  8
0
 10
92.042
 11
91.932
 20
241.587
 21
241.322
  0
LINE
  8
0
 10
91.932
 11
91.667
 20
241.322
 21
241.212
  0
LINE
  8
0
 10
91.667
 11
91.402
 20
241.212
 21
241.322
  0
LINE
  8
0
 10
91.402
 11
91.292
 20
241.322
 21
241.587
  0
LINE
  8
0
 10
91.292
 11
91.402
 20
313.254
 21
313.519
  0
LINE
  8
0
 10
91.402
 11
91.667
 20
313.519
 21
313.629
  0
LINE
  8
0
 10
91.667
 11
91.932
 20
313.629
 21
313.519
  0
LINE
  8
0
 10
91.932
 11
92.042
 20
313.519
 21
313.254
  0
LINE
  8
0
 10
92.042
 11
91.932
 20
313.254
 21
312.989
  0
LINE
  8
0
 10
91.932
 11
91.667
 20
312.989
 21
312.879
  0
LINE
  8
0
 10
91.667
 11
91.402
 20
312.879
 21
312.989
  0
LINE
  8
0
 10
91.402
 11
91.292
 20
312.989
 21
313.254
  0
LINE
  8
0
 10
91.3
 11
92.467
 20
83.057
 21
87.412
  0
LINE
  8
0
 10
92.467
 11
98.464
 20
87.412
 21
85.805
  0
LINE
  8
0
 10
98.464
 11
97.297
 20
85.805
 21
81.45
  0
LINE
  8
0
 10
97.297
 11
91.3
 20
81.45
 21
83.057
  0
LINE
  8
0
 10
92.397
 11
92.4
 20
95.82
 21
95.863
  0
LINE
  8
0
 10
92.4
 11
92.409
 20
95.863
 21
95.906
  0
LINE
  8
0
 10
92.409
 11
92.423
 20
95.906
 21
95.948
  0
LINE
  8
0
 10
92.423
 11
92.442
 20
95.948
 21
95.988
  0
LINE
  8
0
 10
92.442
 11
92.466
 20
95.988
 21
96.024
  0
LINE
  8
0
 10
92.466
 11
92.495
 20
96.024
 21
96.058
  0
LINE
  8
0
 10
92.495
 11
92.527
 20
96.058
 21
96.088
  0
LINE
  8
0
 10
92.527
 11
92.563
 20
96.088
 21
96.113
  0
LINE
  8
0
 10
92.563
 11
92.601
 20
96.113
 21
96.134
  0
LINE
  8
0
 10
92.601
 11
92.643
 20
96.134
 21
96.15
  0
LINE
  8
0
 10
92.643
 11
92.685
 20
96.15
 21
96.16
  0
LINE
  8
0
 10
92.685
 11
92.729
 20
96.16
 21
96.165
  0
LINE
  8
0
 10
92.729
 11
92.773
 20
96.165
 21
96.165
  0
LINE
  8
0
 10
92.773
 11
92.816
 20
96.165
 21
96.159
  0
LINE
  8
0
 10
92.816
 11
92.859
 20
96.159
 21
96.148
  0
LINE
  8
0
 10
92.859
 11
92.9
 20
96.148
 21
96.131
  0
LINE
  8
0
 10
92.9
 11
92.938
 20
96.131
 21
96.109
  0
LINE
  8
0
 10
92.938
 11
92.973
 20
96.109
 21
96.083
  0
LINE
  8
0
 10
92.973
 11
93.005
 20
96.083
 21
96.053
  0
LINE
  8
0
 10
93.005
 11
93.033
 20
96.053
 21
96.018
  0
LINE
  8
0
 10
93.033
 11
93.056
 20
96.018
 21
95.981
  0
LINE
  8
0
 10
93.056
 11
93.074
 20
95.981
 21
95.941
  0
LINE
  8
0
 10
93.074
 11
93.087
 20
95.941
 21
95.899
  0
LINE
  8
0
 10
93.087
 11
93.095
 20
95.899
 21
95.856
  0
LINE
  8
0
 10
93.095
 11
93.097
 20
95.856
 21
95.812
  0
LINE
  8
0
 10
93.097
 11
93.094
 20
95.812
 21
95.768
  0
LINE
  8
0
 10
93.094
 11
93.085
 20
95.768
 21
95.725
  0
LINE
  8
0
 10
93.085
 11
93.071
 20
95.725
 21
95.684
  0
LINE
  8
0
 10
93.071
 11
93.052
 20
95.684
 21
95.644
  0
LINE
  8
0
 10
93.052
 11
93.028
 20
95.644
 21
95.607
  0
LINE
  8
0
 10
93.028
 11
93
 20
95.607
 21
95.574
  0
LINE
  8
0
 10
93
 11
92.967
 20
95.574
 21
95.544
  0
LINE
  8
0
 10
92.967
 11
92.932
 20
95.544
 21
95.518
  0
LINE
  8
0
 10
92.932
 11
92.893
 20
95.518
 21
95.498
  0
LINE
  8
0
 10
92.893
 11
92.852
 20
95.498
 21
95.482
  0
LINE
  8
0
 10
92.852
 11
92.809
 20
95.482
 21
95.471
  0
LINE
  8
0
 10
92.809
 11
92.765
 20
95.471
 21
95.466
  0
LINE
  8
0
 10
92.765
 11
92.722
 20
95.466
 21
95.467
  0
LINE
  8
0
 10
92.722
 11
92.678
 20
95.467
 21
95.473
  0
LINE
  8
0
 10
92.678
 11
92.635
 20
95.473
 21
95.484
  0
LINE
  8
0
 10
92.635
 11
92.595
 20
95.484
 21
95.501
  0
LINE
  8
0
 10
92.595
 11
92.556
 20
95.501
 21
95.522
  0
LINE
  8
0
 10
92.556
 11
92.521
 20
95.522
 21
95.548
  0
LINE
  8
0
 10
92.521
 11
92.489
 20
95.548
 21
95.579
  0
LINE
  8
0
 10
92.489
 11
92.462
 20
95.579
 21
95.613
  0
LINE
  8
0
 10
92.462
 11
92.439
 20
95.613
 21
95.65
  0
LINE
  8
0
 10
92.439
 11
92.42
 20
95.65
 21
95.691
  0
LINE
  8
0
 10
92.42
 11
92.407
 20
95.691
 21
95.732
  0
LINE
  8
0
 10
92.407
 11
92.399
 20
95.732
 21
95.776
  0
LINE
  8
0
 10
92.399
 11
92.397
 20
95.776
 21
95.82
  0
LINE
  8
0
 10
93.006
 11
93.007
 20
127.049
 21
127.093
  0
LINE
  8
0
 10
93.007
 11
93.014
 20
127.093
 21
127.137
  0
LINE
  8
0
 10
93.014
 11
93.027
 20
127.137
 21
127.179
  0
LINE
  8
0
 10
93.027
 11
93.044
 20
127.179
 21
127.219
  0
LINE
  8
0
 10
93.044
 11
93.066
 20
127.219
 21
127.257
  0
LINE
  8
0
 10
93.066
 11
93.093
 20
127.257
 21
127.292
  0
LINE
  8
0
 10
93.093
 11
93.125
 20
127.292
 21
127.323
  0
LINE
  8
0
 10
93.125
 11
93.159
 20
127.323
 21
127.35
  0
LINE
  8
0
 10
93.159
 11
93.197
 20
127.35
 21
127.372
  0
LINE
  8
0
 10
93.197
 11
93.237
 20
127.372
 21
127.39
  0
LINE
  8
0
 10
93.237
 11
93.28
 20
127.39
 21
127.402
  0
LINE
  8
0
 10
93.28
 11
93.323
 20
127.402
 21
127.409
  0
LINE
  8
0
 10
93.323
 11
93.367
 20
127.409
 21
127.41
  0
LINE
  8
0
 10
93.367
 11
93.411
 20
127.41
 21
127.406
  0
LINE
  8
0
 10
93.411
 11
93.453
 20
127.406
 21
127.396
  0
LINE
  8
0
 10
93.453
 11
93.495
 20
127.396
 21
127.381
  0
LINE
  8
0
 10
93.495
 11
93.534
 20
127.381
 21
127.361
  0
LINE
  8
0
 10
93.534
 11
93.57
 20
127.361
 21
127.337
  0
LINE
  8
0
 10
93.57
 11
93.603
 20
127.337
 21
127.308
  0
LINE
  8
0
 10
93.603
 11
93.632
 20
127.308
 21
127.275
  0
LINE
  8
0
 10
93.632
 11
93.657
 20
127.275
 21
127.238
  0
LINE
  8
0
 10
93.657
 11
93.677
 20
127.238
 21
127.199
  0
LINE
  8
0
 10
93.677
 11
93.692
 20
127.199
 21
127.158
  0
LINE
  8
0
 10
93.692
 11
93.702
 20
127.158
 21
127.115
  0
LINE
  8
0
 10
93.702
 11
93.706
 20
127.115
 21
127.071
  0
LINE
  8
0
 10
93.706
 11
93.704
 20
127.071
 21
127.027
  0
LINE
  8
0
 10
93.704
 11
93.697
 20
127.027
 21
126.984
  0
LINE
  8
0
 10
93.697
 11
93.685
 20
126.984
 21
126.942
  0
LINE
  8
0
 10
93.685
 11
93.668
 20
126.942
 21
126.901
  0
LINE
  8
0
 10
93.668
 11
93.646
 20
126.901
 21
126.864
  0
LINE
  8
0
 10
93.646
 11
93.619
 20
126.864
 21
126.829
  0
LINE
  8
0
 10
93.619
 11
93.587
 20
126.829
 21
126.798
  0
LINE
  8
0
 10
93.587
 11
93.553
 20
126.798
 21
126.771
  0
LINE
  8
0
 10
93.553
 11
93.515
 20
126.771
 21
126.748
  0
LINE
  8
0
 10
93.515
 11
93.474
 20
126.748
 21
126.731
  0
LINE
  8
0
 10
93.474
 11
93.432
 20
126.731
 21
126.719
  0
LINE
  8
0
 10
93.432
 11
93.389
 20
126.719
 21
126.712
  0
LINE
  8
0
 10
93.389
 11
93.345
 20
126.712
 21
126.71
  0
LINE
  8
0
 10
93.345
 11
93.301
 20
126.71
 21
126.715
  0
LINE
  8
0
 10
93.301
 11
93.258
 20
126.715
 21
126.724
  0
LINE
  8
0
 10
93.258
 11
93.217
 20
126.724
 21
126.739
  0
LINE
  8
0
 10
93.217
 11
93.178
 20
126.739
 21
126.759
  0
LINE
  8
0
 10
93.178
 11
93.141
 20
126.759
 21
126.784
  0
LINE
  8
0
 10
93.141
 11
93.108
 20
126.784
 21
126.813
  0
LINE
  8
0
 10
93.108
 11
93.08
 20
126.813
 21
126.846
  0
LINE
  8
0
 10
93.08
 11
93.055
 20
126.846
 21
126.882
  0
LINE
  8
0
 10
93.055
 11
93.035
 20
126.882
 21
126.921
  0
LINE
  8
0
 10
93.035
 11
93.02
 20
126.921
 21
126.963
  0
LINE
  8
0
 10
93.02
 11
93.01
 20
126.963
 21
127.006
  0
LINE
  8
0
 10
93.01
 11
93.006
 20
127.006
 21
127.049
  0
LINE
  8
0
 10
99.619
 11
99.625
 20
85.504
 21
85.596
  0
LINE
  8
0
 10
99.625
 11
99.644
 20
85.596
 21
85.686
  0
LINE
  8
0
 10
99.644
 11
99.673
 20
85.686
 21
85.773
  0
LINE
  8
0
 10
99.673
 11
99.713
 20
85.773
 21
85.856
  0
LINE
  8
0
 10
99.713
 11
99.763
 20
85.856
 21
85.933
  0
LINE
  8
0
 10
99.763
 11
99.823
 20
85.933
 21
86.004
  0
LINE
  8
0
 10
99.823
 11
99.89
 20
86.004
 21
86.066
  0
LINE
  8
0
 10
99.89
 11
99.966
 20
86.066
 21
86.119
  0
LINE
  8
0
 10
99.966
 11
100.046
 20
86.119
 21
86.163
  0
LINE
  8
0
 10
100.046
 11
100.132
 20
86.163
 21
86.196
  0
LINE
  8
0
 10
100.132
 11
100.222
 20
86.196
 21
86.218
  0
LINE
  8
0
 10
100.222
 11
100.313
 20
86.218
 21
86.228
  0
LINE
  8
0
 10
100.313
 11
100.406
 20
86.228
 21
86.227
  0
LINE
  8
0
 10
100.406
 11
100.497
 20
86.227
 21
86.215
  0
LINE
  8
0
 10
100.497
 11
100.586
 20
86.215
 21
86.191
  0
LINE
  8
0
 10
100.586
 11
100.671
 20
86.191
 21
86.156
  0
LINE
  8
0
 10
100.671
 11
100.751
 20
86.156
 21
86.111
  0
LINE
  8
0
 10
100.751
 11
100.825
 20
86.111
 21
86.056
  0
LINE
  8
0
 10
100.825
 11
100.892
 20
86.056
 21
85.992
  0
LINE
  8
0
 10
100.892
 11
100.95
 20
85.992
 21
85.921
  0
LINE
  8
0
 10
100.95
 11
100.998
 20
85.921
 21
85.843
  0
LINE
  8
0
 10
100.998
 11
101.037
 20
85.843
 21
85.759
  0
LINE
  8
0
 10
101.037
 11
101.064
 20
85.759
 21
85.671
  0
LINE
  8
0
 10
101.064
 11
101.081
 20
85.671
 21
85.58
  0
LINE
  8
0
 10
101.081
 11
101.085
 20
85.58
 21
85.488
  0
LINE
  8
0
 10
101.085
 11
101.078
 20
85.488
 21
85.396
  0
LINE
  8
0
 10
101.078
 11
101.06
 20
85.396
 21
85.306
  0
LINE
  8
0
 10
101.06
 11
101.031
 20
85.306
 21
85.219
  0
LINE
  8
0
 10
101.031
 11
100.991
 20
85.219
 21
85.136
  0
LINE
  8
0
 10
100.991
 11
100.941
 20
85.136
 21
85.059
  0
LINE
  8
0
 10
100.941
 11
100.881
 20
85.059
 21
84.988
  0
LINE
  8
0
 10
100.881
 11
100.813
 20
84.988
 21
84.926
  0
LINE
  8
0
 10
100.813
 11
100.738
 20
84.926
 21
84.873
  0
LINE
  8
0
 10
100.738
 11
100.657
 20
84.873
 21
84.829
  0
LINE
  8
0
 10
100.657
 11
100.571
 20
84.829
 21
84.796
  0
LINE
  8
0
 10
100.571
 11
100.482
 20
84.796
 21
84.774
  0
LINE
  8
0
 10
100.482
 11
100.39
 20
84.774
 21
84.764
  0
LINE
  8
0
 10
100.39
 11
100.298
 20
84.764
 21
84.765
  0
LINE
  8
0
 10
100.298
 11
100.207
 20
84.765
 21
84.777
  0
LINE
  8
0
 10
100.207
 11
100.118
 20
84.777
 21
84.801
  0
LINE
  8
0
 10
100.118
 11
100.033
 20
84.801
 21
84.836
  0
LINE
  8
0
 10
100.033
 11
99.953
 20
84.836
 21
84.881
  0
LINE
  8
0
 10
99.953
 11
99.879
 20
84.881
 21
84.936
  0
LINE
  8
0
 10
99.879
 11
99.812
 20
84.936
 21
85
  0
LINE
  8
0
 10
99.812
 11
99.754
 20
85
 21
85.071
  0
LINE
  8
0
 10
99.754
 11
99.706
 20
85.071
 21
85.149
  0
LINE
  8
0
 10
99.706
 11
99.667
 20
85.149
 21
85.233
  0
LINE
  8
0
 10
99.667
 11
99.64
 20
85.233
 21
85.321
  0
LINE
  8
0
 10
99.64
 11
99.623
 20
85.321
 21
85.412
  0
LINE
  8
0
 10
99.623
 11
99.619
 20
85.412
 21
85.504
  0
LINE
  8
0
 10
100.52
 11
100.523
 20
87.432
 21
87.475
  0
LINE
  8
0
 10
100.523
 11
100.531
 20
87.475
 21
87.518
  0
LINE
  8
0
 10
100.531
 11
100.546
 20
87.518
 21
87.56
  0
LINE
  8
0
 10
100.546
 11
100.565
 20
87.56
 21
87.6
  0
LINE
  8
0
 10
100.565
 11
100.589
 20
87.6
 21
87.637
  0
LINE
  8
0
 10
100.589
 11
100.617
 20
87.637
 21
87.67
  0
LINE
  8
0
 10
100.617
 11
100.649
 20
87.67
 21
87.7
  0
LINE
  8
0
 10
100.649
 11
100.685
 20
87.7
 21
87.725
  0
LINE
  8
0
 10
100.685
 11
100.724
 20
87.725
 21
87.746
  0
LINE
  8
0
 10
100.724
 11
100.765
 20
87.746
 21
87.762
  0
LINE
  8
0
 10
100.765
 11
100.808
 20
87.762
 21
87.772
  0
LINE
  8
0
 10
100.808
 11
100.851
 20
87.772
 21
87.777
  0
LINE
  8
0
 10
100.851
 11
100.895
 20
87.777
 21
87.777
  0
LINE
  8
0
 10
100.895
 11
100.939
 20
87.777
 21
87.771
  0
LINE
  8
0
 10
100.939
 11
100.981
 20
87.771
 21
87.76
  0
LINE
  8
0
 10
100.981
 11
101.022
 20
87.76
 21
87.743
  0
LINE
  8
0
 10
101.022
 11
101.06
 20
87.743
 21
87.721
  0
LINE
  8
0
 10
101.06
 11
101.096
 20
87.721
 21
87.695
  0
LINE
  8
0
 10
101.096
 11
101.127
 20
87.695
 21
87.665
  0
LINE
  8
0
 10
101.127
 11
101.155
 20
87.665
 21
87.631
  0
LINE
  8
0
 10
101.155
 11
101.178
 20
87.631
 21
87.593
  0
LINE
  8
0
 10
101.178
 11
101.196
 20
87.593
 21
87.553
  0
LINE
  8
0
 10
101.196
 11
101.209
 20
87.553
 21
87.511
  0
LINE
  8
0
 10
101.209
 11
101.217
 20
87.511
 21
87.468
  0
LINE
  8
0
 10
101.217
 11
101.22
 20
87.468
 21
87.424
  0
LINE
  8
0
 10
101.22
 11
101.216
 20
87.424
 21
87.38
  0
LINE
  8
0
 10
101.216
 11
101.208
 20
87.38
 21
87.337
  0
LINE
  8
0
 10
101.208
 11
101.194
 20
87.337
 21
87.296
  0
LINE
  8
0
 10
101.194
 11
101.174
 20
87.296
 21
87.256
  0
LINE
  8
0
 10
101.174
 11
101.151
 20
87.256
 21
87.219
  0
LINE
  8
0
 10
101.151
 11
101.122
 20
87.219
 21
87.185
  0
LINE
  8
0
 10
101.122
 11
101.09
 20
87.185
 21
87.156
  0
LINE
  8
0
 10
101.09
 11
101.054
 20
87.156
 21
87.13
  0
LINE
  8
0
 10
101.054
 11
101.015
 20
87.13
 21
87.11
  0
LINE
  8
0
 10
101.015
 11
100.974
 20
87.11
 21
87.094
  0
LINE
  8
0
 10
100.974
 11
100.932
 20
87.094
 21
87.083
  0
LINE
  8
0
 10
100.932
 11
100.888
 20
87.083
 21
87.078
  0
LINE
  8
0
 10
100.888
 11
100.844
 20
87.078
 21
87.079
  0
LINE
  8
0
 10
100.844
 11
100.8
 20
87.079
 21
87.085
  0
LINE
  8
0
 10
100.8
 11
100.758
 20
87.085
 21
87.096
  0
LINE
  8
0
 10
100.758
 11
100.717
 20
87.096
 21
87.113
  0
LINE
  8
0
 10
100.717
 11
100.679
 20
87.113
 21
87.134
  0
LINE
  8
0
 10
100.679
 11
100.644
 20
87.134
 21
87.161
  0
LINE
  8
0
 10
100.644
 11
100.612
 20
87.161
 21
87.191
  0
LINE
  8
0
 10
100.612
 11
100.584
 20
87.191
 21
87.225
  0
LINE
  8
0
 10
100.584
 11
100.561
 20
87.225
 21
87.263
  0
LINE
  8
0
 10
100.561
 11
100.543
 20
87.263
 21
87.302
  0
LINE
  8
0
 10
100.543
 11
100.53
 20
87.302
 21
87.344
  0
LINE
  8
0
 10
100.53
 11
100.522
 20
87.344
 21
87.388
  0
LINE
  8
0
 10
100.522
 11
100.52
 20
87.388
 21
87.432
  0
LINE
  8
0
 10
102.072
 11
102.076
 20
93.227
 21
93.271
  0
LINE
  8
0
 10
102.076
 11
102.084
 20
93.271
 21
93.314
  0
LINE
  8
0
 10
102.084
 11
102.099
 20
93.314
 21
93.355
  0
LINE
  8
0
 10
102.099
 11
102.117
 20
93.355
 21
93.395
  0
LINE
  8
0
 10
102.117
 11
102.141
 20
93.395
 21
93.432
  0
LINE
  8
0
 10
102.141
 11
102.17
 20
93.432
 21
93.466
  0
LINE
  8
0
 10
102.17
 11
102.202
 20
93.466
 21
93.495
  0
LINE
  8
0
 10
102.202
 11
102.238
 20
93.495
 21
93.521
  0
LINE
  8
0
 10
102.238
 11
102.277
 20
93.521
 21
93.542
  0
LINE
  8
0
 10
102.277
 11
102.318
 20
93.542
 21
93.557
  0
LINE
  8
0
 10
102.318
 11
102.361
 20
93.557
 21
93.568
  0
LINE
  8
0
 10
102.361
 11
102.404
 20
93.568
 21
93.573
  0
LINE
  8
0
 10
102.404
 11
102.448
 20
93.573
 21
93.572
  0
LINE
  8
0
 10
102.448
 11
102.492
 20
93.572
 21
93.566
  0
LINE
  8
0
 10
102.492
 11
102.534
 20
93.566
 21
93.555
  0
LINE
  8
0
 10
102.534
 11
102.575
 20
93.555
 21
93.539
  0
LINE
  8
0
 10
102.575
 11
102.613
 20
93.539
 21
93.517
  0
LINE
  8
0
 10
102.613
 11
102.648
 20
93.517
 21
93.491
  0
LINE
  8
0
 10
102.648
 11
102.68
 20
93.491
 21
93.46
  0
LINE
  8
0
 10
102.68
 11
102.708
 20
93.46
 21
93.426
  0
LINE
  8
0
 10
102.708
 11
102.731
 20
93.426
 21
93.389
  0
LINE
  8
0
 10
102.731
 11
102.749
 20
93.389
 21
93.349
  0
LINE
  8
0
 10
102.749
 11
102.762
 20
93.349
 21
93.307
  0
LINE
  8
0
 10
102.762
 11
102.77
 20
93.307
 21
93.263
  0
LINE
  8
0
 10
102.77
 11
102.772
 20
93.263
 21
93.22
  0
LINE
  8
0
 10
102.772
 11
102.769
 20
93.22
 21
93.176
  0
LINE
  8
0
 10
102.769
 11
102.76
 20
93.176
 21
93.133
  0
LINE
  8
0
 10
102.76
 11
102.746
 20
93.133
 21
93.091
  0
LINE
  8
0
 10
102.746
 11
102.727
 20
93.091
 21
93.051
  0
LINE
  8
0
 10
102.727
 11
102.703
 20
93.051
 21
93.015
  0
LINE
  8
0
 10
102.703
 11
102.675
 20
93.015
 21
92.981
  0
LINE
  8
0
 10
102.675
 11
102.643
 20
92.981
 21
92.952
  0
LINE
  8
0
 10
102.643
 11
102.607
 20
92.952
 21
92.926
  0
LINE
  8
0
 10
102.607
 11
102.568
 20
92.926
 21
92.905
  0
LINE
  8
0
 10
102.568
 11
102.527
 20
92.905
 21
92.889
  0
LINE
  8
0
 10
102.527
 11
102.485
 20
92.889
 21
92.879
  0
LINE
  8
0
 10
102.485
 11
102.441
 20
92.879
 21
92.874
  0
LINE
  8
0
 10
102.441
 11
102.397
 20
92.874
 21
92.874
  0
LINE
  8
0
 10
102.397
 11
102.353
 20
92.874
 21
92.88
  0
LINE
  8
0
 10
102.353
 11
102.311
 20
92.88
 21
92.891
  0
LINE
  8
0
 10
102.311
 11
102.27
 20
92.891
 21
92.908
  0
LINE
  8
0
 10
102.27
 11
102.232
 20
92.908
 21
92.93
  0
LINE
  8
0
 10
102.232
 11
102.197
 20
92.93
 21
92.956
  0
LINE
  8
0
 10
102.197
 11
102.165
 20
92.956
 21
92.986
  0
LINE
  8
0
 10
102.165
 11
102.137
 20
92.986
 21
93.021
  0
LINE
  8
0
 10
102.137
 11
102.114
 20
93.021
 21
93.058
  0
LINE
  8
0
 10
102.114
 11
102.096
 20
93.058
 21
93.098
  0
LINE
  8
0
 10
102.096
 11
102.083
 20
93.098
 21
93.14
  0
LINE
  8
0
 10
102.083
 11
102.075
 20
93.14
 21
93.183
  0
LINE
  8
0
 10
102.075
 11
102.072
 20
93.183
 21
93.227
  0
LINE
  8
0
 10
107.958
 11
108.068
 20
165.079
 21
165.344
  0
LINE
  8
0
 10
108.068
 11
108.333
 20
165.344
 21
165.454
  0
LINE
  8
0
 10
108.333
 11
108.599
 20
165.454
 21
165.344
  0
LINE
  8
0
 10
108.599
 11
108.708
 20
165.344
 21
165.079
  0
LINE
  8
0
 10
108.708
 11
108.599
 20
165.079
 21
164.814
  0
LINE
  8
0
 10
108.599
 11
108.333
 20
164.814
 21
164.704
  0
LINE
  8
0
 10
108.333
 11
108.068
 20
164.704
 21
164.814
  0
LINE
  8
0
 10
108.068
 11
107.958
 20
164.814
 21
165.079
  0
LINE
  8
0
 10
107.958
 11
108.068
 20
236.746
 21
237.011
  0
LINE
  8
0
 10
108.068
 11
108.333
 20
237.011
 21
237.121
  0
LINE
  8
0
 10
108.333
 11
108.599
 20
237.121
 21
237.011
  0
LINE
  8
0
 10
108.599
 11
108.708
 20
237.011
 21
236.746
  0
LINE
  8
0
 10
108.708
 11
108.599
 20
236.746
 21
236.481
  0
LINE
  8
0
 10
108.599
 11
108.333
 20
236.481
 21
236.371
  0
LINE
  8
0
 10
108.333
 11
108.068
 20
236.371
 21
236.481
  0
LINE
  8
0
 10
108.068
 11
107.958
 20
236.481
 21
236.746
  0
LINE
  8
0
 10
107.958
 11
108.068
 20
308.412
 21
308.678
  0
LINE
  8
0
 10
108.068
 11
108.333
 20
308.678
 21
308.787
  0
LINE
  8
0
 10
108.333
 11
108.599
 20
308.787
 21
308.678
  0
LINE
  8
0
 10
108.599
 11
108.708
 20
308.678
 21
308.412
  0
LINE
  8
0
 10
108.708
 11
108.599
 20
308.412
 21
308.147
  0
LINE
  8
0
 10
108.599
 11
108.333
 20
308.147
 21
308.037
  0
LINE
  8
0
 10
108.333
 11
108.068
 20
308.037
 21
308.147
  0
LINE
  8
0
 10
108.068
 11
107.958
 20
308.147
 21
308.412
  0
LINE
  8
0
 10
117.168
 11
117.168
 20
120.561
 21
120.605
  0
LINE
  8
0
 10
117.168
 11
117.173
 20
120.605
 21
120.648
  0
LINE
  8
0
 10
117.173
 11
117.183
 20
120.648
 21
120.691
  0
LINE
  8
0
 10
117.183
 11
117.199
 20
120.691
 21
120.732
  0
LINE
  8
0
 10
117.199
 11
117.22
 20
120.732
 21
120.771
  0
LINE
  8
0
 10
117.22
 11
117.245
 20
120.771
 21
120.806
  0
LINE
  8
0
 10
117.245
 11
117.275
 20
120.806
 21
120.839
  0
LINE
  8
0
 10
117.275
 11
117.309
 20
120.839
 21
120.867
  0
LINE
  8
0
 10
117.309
 11
117.346
 20
120.867
 21
120.891
  0
LINE
  8
0
 10
117.346
 11
117.385
 20
120.891
 21
120.91
  0
LINE
  8
0
 10
117.385
 11
117.427
 20
120.91
 21
120.924
  0
LINE
  8
0
 10
117.427
 11
117.47
 20
120.924
 21
120.933
  0
LINE
  8
0
 10
117.47
 11
117.514
 20
120.933
 21
120.936
  0
LINE
  8
0
 10
117.514
 11
117.558
 20
120.936
 21
120.934
  0
LINE
  8
0
 10
117.558
 11
117.601
 20
120.934
 21
120.926
  0
LINE
  8
0
 10
117.601
 11
117.643
 20
120.926
 21
120.913
  0
LINE
  8
0
 10
117.643
 11
117.683
 20
120.913
 21
120.895
  0
LINE
  8
0
 10
117.683
 11
117.72
 20
120.895
 21
120.872
  0
LINE
  8
0
 10
117.72
 11
117.754
 20
120.872
 21
120.844
  0
LINE
  8
0
 10
117.754
 11
117.785
 20
120.844
 21
120.812
  0
LINE
  8
0
 10
117.785
 11
117.811
 20
120.812
 21
120.777
  0
LINE
  8
0
 10
117.811
 11
117.833
 20
120.777
 21
120.739
  0
LINE
  8
0
 10
117.833
 11
117.849
 20
120.739
 21
120.698
  0
LINE
  8
0
 10
117.849
 11
117.86
 20
120.698
 21
120.655
  0
LINE
  8
0
 10
117.86
 11
117.867
 20
120.655
 21
120.612
  0
LINE
  8
0
 10
117.867
 11
117.867
 20
120.612
 21
120.568
  0
LINE
  8
0
 10
117.867
 11
117.862
 20
120.568
 21
120.524
  0
LINE
  8
0
 10
117.862
 11
117.852
 20
120.524
 21
120.482
  0
LINE
  8
0
 10
117.852
 11
117.836
 20
120.482
 21
120.44
  0
LINE
  8
0
 10
117.836
 11
117.815
 20
120.44
 21
120.402
  0
LINE
  8
0
 10
117.815
 11
117.789
 20
120.402
 21
120.366
  0
LINE
  8
0
 10
117.789
 11
117.76
 20
120.366
 21
120.334
  0
LINE
  8
0
 10
117.76
 11
117.726
 20
120.334
 21
120.305
  0
LINE
  8
0
 10
117.726
 11
117.689
 20
120.305
 21
120.281
  0
LINE
  8
0
 10
117.689
 11
117.65
 20
120.281
 21
120.262
  0
LINE
  8
0
 10
117.65
 11
117.608
 20
120.262
 21
120.248
  0
LINE
  8
0
 10
117.608
 11
117.565
 20
120.248
 21
120.239
  0
LINE
  8
0
 10
117.565
 11
117.521
 20
120.239
 21
120.236
  0
LINE
  8
0
 10
117.521
 11
117.477
 20
120.236
 21
120.238
  0
LINE
  8
0
 10
117.477
 11
117.434
 20
120.238
 21
120.246
  0
LINE
  8
0
 10
117.434
 11
117.392
 20
120.246
 21
120.259
  0
LINE
  8
0
 10
117.392
 11
117.352
 20
120.259
 21
120.278
  0
LINE
  8
0
 10
117.352
 11
117.315
 20
120.278
 21
120.301
  0
LINE
  8
0
 10
117.315
 11
117.281
 20
120.301
 21
120.329
  0
LINE
  8
0
 10
117.281
 11
117.25
 20
120.329
 21
120.36
  0
LINE
  8
0
 10
117.25
 11
117.224
 20
120.36
 21
120.396
  0
LINE
  8
0
 10
117.224
 11
117.202
 20
120.396
 21
120.434
  0
LINE
  8
0
 10
117.202
 11
117.186
 20
120.434
 21
120.474
  0
LINE
  8
0
 10
117.186
 11
117.174
 20
120.474
 21
120.517
  0
LINE
  8
0
 10
117.174
 11
117.168
 20
120.517
 21
120.561
  0
LINE
  8
0
 10
119.76
 11
119.765
 20
110.929
 21
110.973
  0
LINE
  8
0
 10
119.765
 11
119.776
 20
110.973
 21
111.015
  0
LINE
  8
0
 10
119.776
 11
119.792
 20
111.015
 21
111.057
  0
LINE
  8
0
 10
119.792
 11
119.813
 20
111.057
 21
111.095
  0
LINE
  8
0
 10
119.813
 11
119.838
 20
111.095
 21
111.131
  0
LINE
  8
0
 10
119.838
 11
119.868
 20
111.131
 21
111.163
  0
LINE
  8
0
 10
119.868
 11
119.901
 20
111.163
 21
111.192
  0
LINE
  8
0
 10
119.901
 11
119.938
 20
111.192
 21
111.216
  0
LINE
  8
0
 10
119.938
 11
119.978
 20
111.216
 21
111.235
  0
LINE
  8
0
 10
119.978
 11
120.019
 20
111.235
 21
111.249
  0
LINE
  8
0
 10
120.019
 11
120.063
 20
111.249
 21
111.257
  0
LINE
  8
0
 10
120.063
 11
120.106
 20
111.257
 21
111.261
  0
LINE
  8
0
 10
120.106
 11
120.15
 20
111.261
 21
111.259
  0
LINE
  8
0
 10
120.15
 11
120.194
 20
111.259
 21
111.251
  0
LINE
  8
0
 10
120.194
 11
120.235
 20
111.251
 21
111.238
  0
LINE
  8
0
 10
120.235
 11
120.275
 20
111.238
 21
111.219
  0
LINE
  8
0
 10
120.275
 11
120.313
 20
111.219
 21
111.196
  0
LINE
  8
0
 10
120.313
 11
120.347
 20
111.196
 21
111.168
  0
LINE
  8
0
 10
120.347
 11
120.377
 20
111.168
 21
111.137
  0
LINE
  8
0
 10
120.377
 11
120.403
 20
111.137
 21
111.102
  0
LINE
  8
0
 10
120.403
 11
120.425
 20
111.102
 21
111.063
  0
LINE
  8
0
 10
120.425
 11
120.442
 20
111.063
 21
111.022
  0
LINE
  8
0
 10
120.442
 11
120.453
 20
111.022
 21
110.98
  0
LINE
  8
0
 10
120.453
 11
120.459
 20
110.98
 21
110.936
  0
LINE
  8
0
 10
120.459
 11
120.459
 20
110.936
 21
110.893
  0
LINE
  8
0
 10
120.459
 11
120.454
 20
110.893
 21
110.849
  0
LINE
  8
0
 10
120.454
 11
120.444
 20
110.849
 21
110.806
  0
LINE
  8
0
 10
120.444
 11
120.428
 20
110.806
 21
110.765
  0
LINE
  8
0
 10
120.428
 11
120.408
 20
110.765
 21
110.726
  0
LINE
  8
0
 10
120.408
 11
120.382
 20
110.726
 21
110.691
  0
LINE
  8
0
 10
120.382
 11
120.352
 20
110.691
 21
110.658
  0
LINE
  8
0
 10
120.352
 11
120.319
 20
110.658
 21
110.63
  0
LINE
  8
0
 10
120.319
 11
120.282
 20
110.63
 21
110.606
  0
LINE
  8
0
 10
120.282
 11
120.242
 20
110.606
 21
110.587
  0
LINE
  8
0
 10
120.242
 11
120.201
 20
110.587
 21
110.573
  0
LINE
  8
0
 10
120.201
 11
120.157
 20
110.573
 21
110.564
  0
LINE
  8
0
 10
120.157
 11
120.114
 20
110.564
 21
110.561
  0
LINE
  8
0
 10
120.114
 11
120.07
 20
110.561
 21
110.563
  0
LINE
  8
0
 10
120.07
 11
120.027
 20
110.563
 21
110.571
  0
LINE
  8
0
 10
120.027
 11
119.985
 20
110.571
 21
110.584
  0
LINE
  8
0
 10
119.985
 11
119.944
 20
110.584
 21
110.602
  0
LINE
  8
0
 10
119.944
 11
119.907
 20
110.602
 21
110.625
  0
LINE
  8
0
 10
119.907
 11
119.873
 20
110.625
 21
110.653
  0
LINE
  8
0
 10
119.873
 11
119.843
 20
110.653
 21
110.685
  0
LINE
  8
0
 10
119.843
 11
119.816
 20
110.685
 21
110.72
  0
LINE
  8
0
 10
119.816
 11
119.795
 20
110.72
 21
110.758
  0
LINE
  8
0
 10
119.795
 11
119.778
 20
110.758
 21
110.799
  0
LINE
  8
0
 10
119.778
 11
119.767
 20
110.799
 21
110.842
  0
LINE
  8
0
 10
119.767
 11
119.761
 20
110.842
 21
110.885
  0
LINE
  8
0
 10
119.761
 11
119.76
 20
110.885
 21
110.929
  0
LINE
  8
0
 10
122.964
 11
122.964
 20
122.114
 21
122.158
  0
LINE
  8
0
 10
122.964
 11
122.969
 20
122.158
 21
122.201
  0
LINE
  8
0
 10
122.969
 11
122.979
 20
122.201
 21
122.244
  0
LINE
  8
0
 10
122.979
 11
122.995
 20
122.244
 21
122.285
  0
LINE
  8
0
 10
122.995
 11
123.015
 20
122.285
 21
122.324
  0
LINE
  8
0
 10
123.015
 11
123.041
 20
122.324
 21
122.359
  0
LINE
  8
0
 10
123.041
 11
123.071
 20
122.359
 21
122.392
  0
LINE
  8
0
 10
123.071
 11
123.104
 20
122.392
 21
122.42
  0
LINE
  8
0
 10
123.104
 11
123.141
 20
122.42
 21
122.444
  0
LINE
  8
0
 10
123.141
 11
123.181
 20
122.444
 21
122.463
  0
LINE
  8
0
 10
123.181
 11
123.223
 20
122.463
 21
122.477
  0
LINE
  8
0
 10
123.223
 11
123.265
 20
122.477
 21
122.486
  0
LINE
  8
0
 10
123.265
 11
123.309
 20
122.486
 21
122.489
  0
LINE
  8
0
 10
123.309
 11
123.353
 20
122.489
 21
122.487
  0
LINE
  8
0
 10
123.353
 11
123.396
 20
122.487
 21
122.479
  0
LINE
  8
0
 10
123.396
 11
123.438
 20
122.479
 21
122.466
  0
LINE
  8
0
 10
123.438
 11
123.479
 20
122.466
 21
122.448
  0
LINE
  8
0
 10
123.479
 11
123.516
 20
122.448
 21
122.424
  0
LINE
  8
0
 10
123.516
 11
123.55
 20
122.424
 21
122.397
  0
LINE
  8
0
 10
123.55
 11
123.58
 20
122.397
 21
122.365
  0
LINE
  8
0
 10
123.58
 11
123.607
 20
122.365
 21
122.33
  0
LINE
  8
0
 10
123.607
 11
123.628
 20
122.33
 21
122.292
  0
LINE
  8
0
 10
123.628
 11
123.645
 20
122.292
 21
122.251
  0
LINE
  8
0
 10
123.645
 11
123.656
 20
122.251
 21
122.208
  0
LINE
  8
0
 10
123.656
 11
123.662
 20
122.208
 21
122.165
  0
LINE
  8
0
 10
123.662
 11
123.662
 20
122.165
 21
122.121
  0
LINE
  8
0
 10
123.662
 11
123.658
 20
122.121
 21
122.077
  0
LINE
  8
0
 10
123.658
 11
123.647
 20
122.077
 21
122.034
  0
LINE
  8
0
 10
123.647
 11
123.631
 20
122.034
 21
121.993
  0
LINE
  8
0
 10
123.631
 11
123.61
 20
121.993
 21
121.955
  0
LINE
  8
0
 10
123.61
 11
123.585
 20
121.955
 21
121.919
  0
LINE
  8
0
 10
123.585
 11
123.555
 20
121.919
 21
121.887
  0
LINE
  8
0
 10
123.555
 11
123.522
 20
121.887
 21
121.858
  0
LINE
  8
0
 10
123.522
 11
123.485
 20
121.858
 21
121.834
  0
LINE
  8
0
 10
123.485
 11
123.445
 20
121.834
 21
121.815
  0
LINE
  8
0
 10
123.445
 11
123.404
 20
121.815
 21
121.801
  0
LINE
  8
0
 10
123.404
 11
123.36
 20
121.801
 21
121.792
  0
LINE
  8
0
 10
123.36
 11
123.317
 20
121.792
 21
121.789
  0
LINE
  8
0
 10
123.317
 11
123.273
 20
121.789
 21
121.791
  0
LINE
  8
0
 10
123.273
 11
123.229
 20
121.791
 21
121.799
  0
LINE
  8
0
 10
123.229
 11
123.188
 20
121.799
 21
121.812
  0
LINE
  8
0
 10
123.188
 11
123.148
 20
121.812
 21
121.831
  0
LINE
  8
0
 10
123.148
 11
123.11
 20
121.831
 21
121.854
  0
LINE
  8
0
 10
123.11
 11
123.076
 20
121.854
 21
121.881
  0
LINE
  8
0
 10
123.076
 11
123.046
 20
121.881
 21
121.913
  0
LINE
  8
0
 10
123.046
 11
123.019
 20
121.913
 21
121.949
  0
LINE
  8
0
 10
123.019
 11
122.998
 20
121.949
 21
121.987
  0
LINE
  8
0
 10
122.998
 11
122.981
 20
121.987
 21
122.027
  0
LINE
  8
0
 10
122.981
 11
122.97
 20
122.027
 21
122.07
  0
LINE
  8
0
 10
122.97
 11
122.964
 20
122.07
 21
122.114
  0
LINE
  8
0
 10
124.512
 11
124.523
 20
122.695
 21
122.787
  0
LINE
  8
0
 10
124.523
 11
124.545
 20
122.787
 21
122.876
  0
LINE
  8
0
 10
124.545
 11
124.578
 20
122.876
 21
122.962
  0
LINE
  8
0
 10
124.578
 11
124.622
 20
122.962
 21
123.043
  0
LINE
  8
0
 10
124.622
 11
124.675
 20
123.043
 21
123.118
  0
LINE
  8
0
 10
124.675
 11
124.737
 20
123.118
 21
123.186
  0
LINE
  8
0
 10
124.737
 11
124.807
 20
123.186
 21
123.245
  0
LINE
  8
0
 10
124.807
 11
124.885
 20
123.245
 21
123.296
  0
LINE
  8
0
 10
124.885
 11
124.968
 20
123.296
 21
123.336
  0
LINE
  8
0
 10
124.968
 11
125.055
 20
123.336
 21
123.365
  0
LINE
  8
0
 10
125.055
 11
125.145
 20
123.365
 21
123.383
  0
LINE
  8
0
 10
125.145
 11
125.237
 20
123.383
 21
123.39
  0
LINE
  8
0
 10
125.237
 11
125.329
 20
123.39
 21
123.385
  0
LINE
  8
0
 10
125.329
 11
125.42
 20
123.385
 21
123.369
  0
LINE
  8
0
 10
125.42
 11
125.507
 20
123.369
 21
123.341
  0
LINE
  8
0
 10
125.507
 11
125.592
 20
123.341
 21
123.303
  0
LINE
  8
0
 10
125.592
 11
125.67
 20
123.303
 21
123.254
  0
LINE
  8
0
 10
125.67
 11
125.741
 20
123.254
 21
123.197
  0
LINE
  8
0
 10
125.741
 11
125.805
 20
123.197
 21
123.13
  0
LINE
  8
0
 10
125.805
 11
125.86
 20
123.13
 21
123.056
  0
LINE
  8
0
 10
125.86
 11
125.905
 20
123.056
 21
122.976
  0
LINE
  8
0
 10
125.905
 11
125.94
 20
122.976
 21
122.891
  0
LINE
  8
0
 10
125.94
 11
125.964
 20
122.891
 21
122.802
  0
LINE
  8
0
 10
125.964
 11
125.976
 20
122.802
 21
122.711
  0
LINE
  8
0
 10
125.976
 11
125.977
 20
122.711
 21
122.618
  0
LINE
  8
0
 10
125.977
 11
125.967
 20
122.618
 21
122.527
  0
LINE
  8
0
 10
125.967
 11
125.945
 20
122.527
 21
122.437
  0
LINE
  8
0
 10
125.945
 11
125.911
 20
122.437
 21
122.352
  0
LINE
  8
0
 10
125.911
 11
125.868
 20
122.352
 21
122.271
  0
LINE
  8
0
 10
125.868
 11
125.815
 20
122.271
 21
122.195
  0
LINE
  8
0
 10
125.815
 11
125.753
 20
122.195
 21
122.128
  0
LINE
  8
0
 10
125.753
 11
125.682
 20
122.128
 21
122.068
  0
LINE
  8
0
 10
125.682
 11
125.605
 20
122.068
 21
122.018
  0
LINE
  8
0
 10
125.605
 11
125.522
 20
122.018
 21
121.978
  0
LINE
  8
0
 10
125.522
 11
125.435
 20
121.978
 21
121.949
  0
LINE
  8
0
 10
125.435
 11
125.345
 20
121.949
 21
121.93
  0
LINE
  8
0
 10
125.345
 11
125.253
 20
121.93
 21
121.923
  0
LINE
  8
0
 10
125.253
 11
125.161
 20
121.923
 21
121.928
  0
LINE
  8
0
 10
125.161
 11
125.07
 20
121.928
 21
121.945
  0
LINE
  8
0
 10
125.07
 11
124.982
 20
121.945
 21
121.972
  0
LINE
  8
0
 10
124.982
 11
124.898
 20
121.972
 21
122.011
  0
LINE
  8
0
 10
124.898
 11
124.82
 20
122.011
 21
122.059
  0
LINE
  8
0
 10
124.82
 11
124.749
 20
122.059
 21
122.117
  0
LINE
  8
0
 10
124.749
 11
124.685
 20
122.117
 21
122.183
  0
LINE
  8
0
 10
124.685
 11
124.63
 20
122.183
 21
122.257
  0
LINE
  8
0
 10
124.63
 11
124.585
 20
122.257
 21
122.338
  0
LINE
  8
0
 10
124.585
 11
124.55
 20
122.338
 21
122.423
  0
LINE
  8
0
 10
124.55
 11
124.526
 20
122.423
 21
122.512
  0
LINE
  8
0
 10
124.526
 11
124.513
 20
122.512
 21
122.603
  0
LINE
  8
0
 10
124.513
 11
124.512
 20
122.603
 21
122.695
  0
LINE
  8
0
 10
124.625
 11
124.735
 20
169.921
 21
170.186
  0
LINE
  8
0
 10
124.735
 11
125
 20
170.186
 21
170.296
  0
LINE
  8
0
 10
125
 11
125.265
 20
170.296
 21
170.186
  0
LINE
  8
0
 10
125.265
 11
125.375
 20
170.186
 21
169.921
  0
LINE
  8
0
 10
125.375
 11
125.265
 20
169.921
 21
169.656
  0
LINE
  8
0
 10
125.265
 11
125
 20
169.656
 21
169.546
  0
LINE
  8
0
 10
125
 11
124.735
 20
169.546
 21
169.656
  0
LINE
  8
0
 10
124.735
 11
124.625
 20
169.656
 21
169.921
  0
LINE
  8
0
 10
124.625
 11
124.735
 20
241.587
 21
241.853
  0
LINE
  8
0
 10
124.735
 11
125
 20
241.853
 21
241.962
  0
LINE
  8
0
 10
125
 11
125.265
 20
241.962
 21
241.853
  0
LINE
  8
0
 10
125.265
 11
125.375
 20
241.853
 21
241.587
  0
LINE
  8
0
 10
125.375
 11
125.265
 20
241.587
 21
241.322
  0
LINE
  8
0
 10
125.265
 11
125
 20
241.322
 21
241.212
  0
LINE
  8
0
 10
125
 11
124.735
 20
241.212
 21
241.322
  0
LINE
  8
0
 10
124.735
 11
124.625
 20
241.322
 21
241.587
  0
LINE
  8
0
 10
124.625
 11
124.735
 20
313.254
 21
313.519
  0
LINE
  8
0
 10
124.735
 11
125
 20
313.519
 21
313.629
  0
LINE
  8
0
 10
125
 11
125.265
 20
313.629
 21
313.519
  0
LINE
  8
0
 10
125.265
 11
125.375
 20
313.519
 21
313.254
  0
LINE
  8
0
 10
125.375
 11
125.265
 20
313.254
 21
312.989
  0
LINE
  8
0
 10
125.265
 11
125
 20
312.989
 21
312.879
  0
LINE
  8
0
 10
125
 11
124.735
 20
312.879
 21
312.989
  0
LINE
  8
0
 10
124.735
 11
124.625
 20
312.989
 21
313.254
  0
LINE
  8
0
 10
125.556
 11
125.556
 20
112.438
 21
112.482
  0
LINE
  8
0
 10
125.556
 11
125.561
 20
112.482
 21
112.526
  0
LINE
  8
0
 10
125.561
 11
125.572
 20
112.526
 21
112.569
  0
LINE
  8
0
 10
125.572
 11
125.587
 20
112.569
 21
112.61
  0
LINE
  8
0
 10
125.587
 11
125.608
 20
112.61
 21
112.648
  0
LINE
  8
0
 10
125.608
 11
125.634
 20
112.648
 21
112.684
  0
LINE
  8
0
 10
125.634
 11
125.663
 20
112.684
 21
112.716
  0
LINE
  8
0
 10
125.663
 11
125.697
 20
112.716
 21
112.745
  0
LINE
  8
0
 10
125.697
 11
125.734
 20
112.745
 21
112.769
  0
LINE
  8
0
 10
125.734
 11
125.773
 20
112.769
 21
112.788
  0
LINE
  8
0
 10
125.773
 11
125.815
 20
112.788
 21
112.802
  0
LINE
  8
0
 10
125.815
 11
125.858
 20
112.802
 21
112.81
  0
LINE
  8
0
 10
125.858
 11
125.902
 20
112.81
 21
112.814
  0
LINE
  8
0
 10
125.902
 11
125.946
 20
112.814
 21
112.812
  0
LINE
  8
0
 10
125.946
 11
125.989
 20
112.812
 21
112.804
  0
LINE
  8
0
 10
125.989
 11
126.031
 20
112.804
 21
112.79
  0
LINE
  8
0
 10
126.031
 11
126.071
 20
112.79
 21
112.772
  0
LINE
  8
0
 10
126.071
 11
126.108
 20
112.772
 21
112.749
  0
LINE
  8
0
 10
126.108
 11
126.143
 20
112.749
 21
112.721
  0
LINE
  8
0
 10
126.143
 11
126.173
 20
112.721
 21
112.69
  0
LINE
  8
0
 10
126.173
 11
126.199
 20
112.69
 21
112.654
  0
LINE
  8
0
 10
126.199
 11
126.221
 20
112.654
 21
112.616
  0
LINE
  8
0
 10
126.221
 11
126.237
 20
112.616
 21
112.575
  0
LINE
  8
0
 10
126.237
 11
126.249
 20
112.575
 21
112.533
  0
LINE
  8
0
 10
126.249
 11
126.255
 20
112.533
 21
112.489
  0
LINE
  8
0
 10
126.255
 11
126.255
 20
112.489
 21
112.446
  0
LINE
  8
0
 10
126.255
 11
126.25
 20
112.446
 21
112.402
  0
LINE
  8
0
 10
126.25
 11
126.239
 20
112.402
 21
112.359
  0
LINE
  8
0
 10
126.239
 11
126.224
 20
112.359
 21
112.318
  0
LINE
  8
0
 10
126.224
 11
126.203
 20
112.318
 21
112.279
  0
LINE
  8
0
 10
126.203
 11
126.177
 20
112.279
 21
112.244
  0
LINE
  8
0
 10
126.177
 11
126.148
 20
112.244
 21
112.211
  0
LINE
  8
0
 10
126.148
 11
126.114
 20
112.211
 21
112.183
  0
LINE
  8
0
 10
126.114
 11
126.077
 20
112.183
 21
112.159
  0
LINE
  8
0
 10
126.077
 11
126.038
 20
112.159
 21
112.14
  0
LINE
  8
0
 10
126.038
 11
125.996
 20
112.14
 21
112.126
  0
LINE
  8
0
 10
125.996
 11
125.953
 20
112.126
 21
112.117
  0
LINE
  8
0
 10
125.953
 11
125.909
 20
112.117
 21
112.114
  0
LINE
  8
0
 10
125.909
 11
125.865
 20
112.114
 21
112.116
  0
LINE
  8
0
 10
125.865
 11
125.822
 20
112.116
 21
112.124
  0
LINE
  8
0
 10
125.822
 11
125.78
 20
112.124
 21
112.137
  0
LINE
  8
0
 10
125.78
 11
125.74
 20
112.137
 21
112.155
  0
LINE
  8
0
 10
125.74
 11
125.703
 20
112.155
 21
112.178
  0
LINE
  8
0
 10
125.703
 11
125.669
 20
112.178
 21
112.206
  0
LINE
  8
0
 10
125.669
 11
125.638
 20
112.206
 21
112.238
  0
LINE
  8
0
 10
125.638
 11
125.612
 20
112.238
 21
112.273
  0
LINE
  8
0
 10
125.612
 11
125.59
 20
112.273
 21
112.311
  0
LINE
  8
0
 10
125.59
 11
125.574
 20
112.311
 21
112.352
  0
LINE
  8
0
 10
125.574
 11
125.562
 20
112.352
 21
112.394
  0
LINE
  8
0
 10
125.562
 11
125.556
 20
112.394
 21
112.438
  0
LINE
  8
0
 10
125.921
 11
130.276
 20
120.867
 21
122.033
  0
LINE
  8
0
 10
130.276
 11
131.883
 20
122.033
 21
116.037
  0
LINE
  8
0
 10
131.883
 11
127.528
 20
116.037
 21
114.87
  0
LINE
  8
0
 10
127.528
 11
125.921
 20
114.87
 21
120.867
  0
LINE
  8
0
 10
127.105
 11
127.116
 20
113.02
 21
113.111
  0
LINE
  8
0
 10
127.116
 11
127.137
 20
113.111
 21
113.201
  0
LINE
  8
0
 10
127.137
 11
127.171
 20
113.201
 21
113.287
  0
LINE
  8
0
 10
127.171
 11
127.214
 20
113.287
 21
113.368
  0
LINE
  8
0
 10
127.214
 11
127.268
 20
113.368
 21
113.443
  0
LINE
  8
0
 10
127.268
 11
127.33
 20
113.443
 21
113.511
  0
LINE
  8
0
 10
127.33
 11
127.4
 20
113.511
 21
113.57
  0
LINE
  8
0
 10
127.4
 11
127.477
 20
113.57
 21
113.62
  0
LINE
  8
0
 10
127.477
 11
127.56
 20
113.62
 21
113.66
  0
LINE
  8
0
 10
127.56
 11
127.648
 20
113.66
 21
113.69
  0
LINE
  8
0
 10
127.648
 11
127.738
 20
113.69
 21
113.708
  0
LINE
  8
0
 10
127.738
 11
127.83
 20
113.708
 21
113.715
  0
LINE
  8
0
 10
127.83
 11
127.922
 20
113.715
 21
113.71
  0
LINE
  8
0
 10
127.922
 11
128.012
 20
113.71
 21
113.694
  0
LINE
  8
0
 10
128.012
 11
128.1
 20
113.694
 21
113.666
  0
LINE
  8
0
 10
128.1
 11
128.184
 20
113.666
 21
113.628
  0
LINE
  8
0
 10
128.184
 11
128.262
 20
113.628
 21
113.579
  0
LINE
  8
0
 10
128.262
 11
128.334
 20
113.579
 21
113.521
  0
LINE
  8
0
 10
128.334
 11
128.397
 20
113.521
 21
113.455
  0
LINE
  8
0
 10
128.397
 11
128.452
 20
113.455
 21
113.381
  0
LINE
  8
0
 10
128.452
 11
128.498
 20
113.381
 21
113.301
  0
LINE
  8
0
 10
128.498
 11
128.533
 20
113.301
 21
113.215
  0
LINE
  8
0
 10
128.533
 11
128.556
 20
113.215
 21
113.126
  0
LINE
  8
0
 10
128.556
 11
128.569
 20
113.126
 21
113.035
  0
LINE
  8
0
 10
128.569
 11
128.57
 20
113.035
 21
112.943
  0
LINE
  8
0
 10
128.57
 11
128.559
 20
112.943
 21
112.852
  0
LINE
  8
0
 10
128.559
 11
128.537
 20
112.852
 21
112.762
  0
LINE
  8
0
 10
128.537
 11
128.504
 20
112.762
 21
112.676
  0
LINE
  8
0
 10
128.504
 11
128.461
 20
112.676
 21
112.595
  0
LINE
  8
0
 10
128.461
 11
128.407
 20
112.595
 21
112.52
  0
LINE
  8
0
 10
128.407
 11
128.345
 20
112.52
 21
112.452
  0
LINE
  8
0
 10
128.345
 11
128.275
 20
112.452
 21
112.393
  0
LINE
  8
0
 10
128.275
 11
128.197
 20
112.393
 21
112.343
  0
LINE
  8
0
 10
128.197
 11
128.114
 20
112.343
 21
112.302
  0
LINE
  8
0
 10
128.114
 11
128.027
 20
112.302
 21
112.273
  0
LINE
  8
0
 10
128.027
 11
127.937
 20
112.273
 21
112.255
  0
LINE
  8
0
 10
127.937
 11
127.845
 20
112.255
 21
112.248
  0
LINE
  8
0
 10
127.845
 11
127.753
 20
112.248
 21
112.253
  0
LINE
  8
0
 10
127.753
 11
127.662
 20
112.253
 21
112.269
  0
LINE
  8
0
 10
127.662
 11
127.575
 20
112.269
 21
112.297
  0
LINE
  8
0
 10
127.575
 11
127.491
 20
112.297
 21
112.335
  0
LINE
  8
0
 10
127.491
 11
127.413
 20
112.335
 21
112.384
  0
LINE
  8
0
 10
127.413
 11
127.341
 20
112.384
 21
112.441
  0
LINE
  8
0
 10
127.341
 11
127.277
 20
112.441
 21
112.508
  0
LINE
  8
0
 10
127.277
 11
127.222
 20
112.508
 21
112.582
  0
LINE
  8
0
 10
127.222
 11
127.177
 20
112.582
 21
112.662
  0
LINE
  8
0
 10
127.177
 11
127.142
 20
112.662
 21
112.747
  0
LINE
  8
0
 10
127.142
 11
127.119
 20
112.747
 21
112.836
  0
LINE
  8
0
 10
127.119
 11
127.106
 20
112.836
 21
112.928
  0
LINE
  8
0
 10
127.106
 11
127.105
 20
112.928
 21
113.02
  0
LINE
  8
0
 10
134.025
 11
134.025
 20
155.942
 21
160.317
  0
LINE
  8
0
 10
134.025
 11
137.2
 20
160.317
 21
160.317
  0
LINE
  8
0
 10
137.2
 11
137.2
 20
160.317
 21
155.942
  0
LINE
  8
0
 10
137.2
 11
134.025
 20
155.942
 21
155.942
  0
LINE
  8
0
 10
134.025
 11
134.025
 20
175.108
 21
179.483
  0
LINE
  8
0
 10
134.025
 11
137.2
 20
179.483
 21
179.483
  0
LINE
  8
0
 10
137.2
 11
137.2
 20
179.483
 21
175.108
  0
LINE
  8
0
 10
137.2
 11
134.025
 20
175.108
 21
175.108
  0
LINE
  8
0
 10
134.025
 11
134.025
 20
192.608
 21
196.983
  0
LINE
  8
0
 10
134.025
 11
137.2
 20
196.983
 21
196.983
  0
LINE
  8
0
 10
137.2
 11
137.2
 20
196.983
 21
192.608
  0
LINE
  8
0
 10
137.2
 11
134.025
 20
192.608
 21
192.608
  0
LINE
  8
0
 10
134.025
 11
134.025
 20
210.108
 21
214.483
  0
LINE
  8
0
 10
134.025
 11
137.2
 20
214.483
 21
214.483
  0
LINE
  8
0
 10
137.2
 11
137.2
 20
214.483
 21
210.108
  0
LINE
  8
0
 10
137.2
 11
134.025
 20
210.108
 21
210.108
  0
LINE
  8
0
 10
134.025
 11
134.025
 20
227.608
 21
231.983
  0
LINE
  8
0
 10
134.025
 11
137.2
 20
231.983
 21
231.983
  0
LINE
  8
0
 10
137.2
 11
137.2
 20
231.983
 21
227.608
  0
LINE
  8
0
 10
137.2
 11
134.025
 20
227.608
 21
227.608
  0
LINE
  8
0
 10
134.025
 11
134.025
 20
246.775
 21
251.15
  0
LINE
  8
0
 10
134.025
 11
137.2
 20
251.15
 21
251.15
  0
LINE
  8
0
 10
137.2
 11
137.2
 20
251.15
 21
246.775
  0
LINE
  8
0
 10
137.2
 11
134.025
 20
246.775
 21
246.775
  0
LINE
  8
0
 10
134.025
 11
134.025
 20
264.275
 21
268.65
  0
LINE
  8
0
 10
134.025
 11
137.2
 20
268.65
 21
268.65
  0
LINE
  8
0
 10
137.2
 11
137.2
 20
268.65
 21
264.275
  0
LINE
  8
0
 10
137.2
 11
134.025
 20
264.275
 21
264.275
  0
LINE
  8
0
 10
134.025
 11
134.025
 20
281.775
 21
286.15
  0
LINE
  8
0
 10
134.025
 11
137.2
 20
286.15
 21
286.15
  0
LINE
  8
0
 10
137.2
 11
137.2
 20
286.15
 21
281.775
  0
LINE
  8
0
 10
137.2
 11
134.025
 20
281.775
 21
281.775
  0
LINE
  8
0
 10
134.025
 11
134.025
 20
299.275
 21
303.65
  0
LINE
  8
0
 10
134.025
 11
137.2
 20
303.65
 21
303.65
  0
LINE
  8
0
 10
137.2
 11
137.2
 20
303.65
 21
299.275
  0
LINE
  8
0
 10
137.2
 11
134.025
 20
299.275
 21
299.275
  0
LINE
  8
0
 10
134.025
 11
134.025
 20
318.442
 21
322.817
  0
LINE
  8
0
 10
134.025
 11
137.2
 20
322.817
 21
322.817
  0
LINE
  8
0
 10
137.2
 11
137.2
 20
322.817
 21
318.442
  0
LINE
  8
0
 10
137.2
 11
134.025
 20
318.442
 21
318.442
  0
LINE
  8
0
 10
135.237
 11
135.347
 20
148.65
 21
148.915
  0
LINE
  8
0
 10
135.347
 11
135.612
 20
148.915
 21
149.025
  0
LINE
  8
0
 10
135.612
 11
135.878
 20
149.025
 21
148.915
  0
LINE
  8
0
 10
135.878
 11
135.987
 20
148.915
 21
148.65
  0
LINE
  8
0
 10
135.987
 11
135.878
 20
148.65
 21
148.385
  0
LINE
  8
0
 10
135.878
 11
135.612
 20
148.385
 21
148.275
  0
LINE
  8
0
 10
135.612
 11
135.347
 20
148.275
 21
148.385
  0
LINE
  8
0
 10
135.347
 11
135.237
 20
148.385
 21
148.65
  0
LINE
  8
0
 10
135.237
 11
135.347
 20
185.317
 21
185.582
  0
LINE
  8
0
 10
135.347
 11
135.612
 20
185.582
 21
185.692
  0
LINE
  8
0
 10
135.612
 11
135.878
 20
185.692
 21
185.582
  0
LINE
  8
0
 10
135.878
 11
135.987
 20
185.582
 21
185.317
  0
LINE
  8
0
 10
135.987
 11
135.878
 20
185.317
 21
185.052
  0
LINE
  8
0
 10
135.878
 11
135.612
 20
185.052
 21
184.942
  0
LINE
  8
0
 10
135.612
 11
135.347
 20
184.942
 21
185.052
  0
LINE
  8
0
 10
135.347
 11
135.237
 20
185.052
 21
185.317
  0
LINE
  8
0
 10
135.237
 11
135.347
 20
202.817
 21
203.082
  0
LINE
  8
0
 10
135.347
 11
135.612
 20
203.082
 21
203.192
  0
LINE
  8
0
 10
135.612
 11
135.878
 20
203.192
 21
203.082
  0
LINE
  8
0
 10
135.878
 11
135.987
 20
203.082
 21
202.817
  0
LINE
  8
0
 10
135.987
 11
135.878
 20
202.817
 21
202.552
  0
LINE
  8
0
 10
135.878
 11
135.612
 20
202.552
 21
202.442
  0
LINE
  8
0
 10
135.612
 11
135.347
 20
202.442
 21
202.552
  0
LINE
  8
0
 10
135.347
 11
135.237
 20
202.552
 21
202.817
  0
LINE
  8
0
 10
135.237
 11
135.347
 20
220.317
 21
220.582
  0
LINE
  8
0
 10
135.347
 11
135.612
 20
220.582
 21
220.692
  0
LINE
  8
0
 10
135.612
 11
135.878
 20
220.692
 21
220.582
  0
LINE
  8
0
 10
135.878
 11
135.987
 20
220.582
 21
220.317
  0
LINE
  8
0
 10
135.987
 11
135.878
 20
220.317
 21
220.051
  0
LINE
  8
0
 10
135.878
 11
135.612
 20
220.051
 21
219.942
  0
LINE
  8
0
 10
135.612
 11
135.347
 20
219.942
 21
220.051
  0
LINE
  8
0
 10
135.347
 11
135.237
 20
220.051
 21
220.317
  0
LINE
  8
0
 10
135.237
 11
135.347
 20
256.983
 21
257.248
  0
LINE
  8
0
 10
135.347
 11
135.612
 20
257.248
 21
257.358
  0
LINE
  8
0
 10
135.612
 11
135.878
 20
257.358
 21
257.248
  0
LINE
  8
0
 10
135.878
 11
135.987
 20
257.248
 21
256.983
  0
LINE
  8
0
 10
135.987
 11
135.878
 20
256.983
 21
256.718
  0
LINE
  8
0
 10
135.878
 11
135.612
 20
256.718
 21
256.608
  0
LINE
  8
0
 10
135.612
 11
135.347
 20
256.608
 21
256.718
  0
LINE
  8
0
 10
135.347
 11
135.237
 20
256.718
 21
256.983
  0
LINE
  8
0
 10
135.237
 11
135.347
 20
274.483
 21
274.749
  0
LINE
  8
0
 10
135.347
 11
135.612
 20
274.749
 21
274.858
  0
LINE
  8
0
 10
135.612
 11
135.878
 20
274.858
 21
274.749
  0
LINE
  8
0
 10
135.878
 11
135.987
 20
274.749
 21
274.483
  0
LINE
  8
0
 10
135.987
 11
135.878
 20
274.483
 21
274.218
  0
LINE
  8
0
 10
135.878
 11
135.612
 20
274.218
 21
274.108
  0
LINE
  8
0
 10
135.612
 11
135.347
 20
274.108
 21
274.218
  0
LINE
  8
0
 10
135.347
 11
135.237
 20
274.218
 21
274.483
  0
LINE
  8
0
 10
135.237
 11
135.347
 20
291.983
 21
292.249
  0
LINE
  8
0
 10
135.347
 11
135.612
 20
292.249
 21
292.358
  0
LINE
  8
0
 10
135.612
 11
135.878
 20
292.358
 21
292.249
  0
LINE
  8
0
 10
135.878
 11
135.987
 20
292.249
 21
291.983
  0
LINE
  8
0
 10
135.987
 11
135.878
 20
291.983
 21
291.718
  0
LINE
  8
0
 10
135.878
 11
135.612
 20
291.718
 21
291.608
  0
LINE
  8
0
 10
135.612
 11
135.347
 20
291.608
 21
291.718
  0
LINE
  8
0
 10
135.347
 11
135.237
 20
291.718
 21
291.983
  0
LINE
  8
0
 10
135.237
 11
135.347
 20
328.65
 21
328.915
  0
LINE
  8
0
 10
135.347
 11
135.612
 20
328.915
 21
329.025
  0
LINE
  8
0
 10
135.612
 11
135.878
 20
329.025
 21
328.915
  0
LINE
  8
0
 10
135.878
 11
135.987
 20
328.915
 21
328.65
  0
LINE
  8
0
 10
135.987
 11
135.878
 20
328.65
 21
328.385
  0
LINE
  8
0
 10
135.878
 11
135.612
 20
328.385
 21
328.275
  0
LINE
  8
0
 10
135.612
 11
135.347
 20
328.275
 21
328.385
  0
LINE
  8
0
 10
135.347
 11
135.237
 20
328.385
 21
328.65
  0
LINE
  8
0
 10
141.292
 11
141.402
 20
165.079
 21
165.344
  0
LINE
  8
0
 10
141.402
 11
141.667
 20
165.344
 21
165.454
  0
LINE
  8
0
 10
141.667
 11
141.932
 20
165.454
 21
165.344
  0
LINE
  8
0
 10
141.932
 11
142.042
 20
165.344
 21
165.079
  0
LINE
  8
0
 10
142.042
 11
141.932
 20
165.079
 21
164.814
  0
LINE
  8
0
 10
141.932
 11
141.667
 20
164.814
 21
164.704
  0
LINE
  8
0
 10
141.667
 11
141.402
 20
164.704
 21
164.814
  0
LINE
  8
0
 10
141.402
 11
141.292
 20
164.814
 21
165.079
  0
LINE
  8
0
 10
141.292
 11
141.402
 20
236.746
 21
237.011
  0
LINE
  8
0
 10
141.402
 11
141.667
 20
237.011
 21
237.121
  0
LINE
  8
0
 10
141.667
 11
141.932
 20
237.121
 21
237.011
  0
LINE
  8
0
 10
141.932
 11
142.042
 20
237.011
 21
236.746
  0
LINE
  8
0
 10
142.042
 11
141.932
 20
236.746
 21
236.481
  0
LINE
  8
0
 10
141.932
 11
141.667
 20
236.481
 21
236.371
  0
LINE
  8
0
 10
141.667
 11
141.402
 20
236.371
 21
236.481
  0
LINE
  8
0
 10
141.402
 11
141.292
 20
236.481
 21
236.746
  0
LINE
  8
0
 10
141.292
 11
141.402
 20
308.412
 21
308.678
  0
LINE
  8
0
 10
141.402
 11
141.667
 20
308.678
 21
308.787
  0
LINE
  8
0
 10
141.667
 11
141.932
 20
308.787
 21
308.678
  0
LINE
  8
0
 10
141.932
 11
142.042
 20
308.678
 21
308.412
  0
LINE
  8
0
 10
142.042
 11
141.932
 20
308.412
 21
308.147
  0
LINE
  8
0
 10
141.932
 11
141.667
 20
308.147
 21
308.037
  0
LINE
  8
0
 10
141.667
 11
141.402
 20
308.037
 21
308.147
  0
LINE
  8
0
 10
141.402
 11
141.292
 20
308.147
 21
308.412
  0
ENDSEC
  0
SECTION
  2
OBJECTS
  0
DICTIONARY
  0
ENDSEC
  0
EOF
